<svg width="227" height="226" viewBox="0 0 227 226" fill="none" xmlns="http://www.w3.org/2000/svg">
<g filter="url(#filter0_f_4919_6303)">
<circle cx="113.5" cy="113" r="33" transform="rotate(-90 113.5 113)" fill="url(#paint0_linear_4919_6303)"/>
</g>
<path fill-rule="evenodd" clip-rule="evenodd" d="M122.906 34.1989C117.474 34.685 109.794 36.4642 105.635 38.2004C105.257 38.3581 104.33 38.7263 103.574 39.0187C102.818 39.311 101.324 39.9592 100.253 40.4589C93.4257 43.6461 91.682 44.4087 88.573 45.5678C83.6972 47.3859 81.263 48.0198 75.7612 48.904C64.3709 50.7349 58.7136 55.4888 49.8984 63.6043C48.7455 64.6657 44.8334 69.1277 43.6476 70.7338C39.5728 76.2528 36.6936 82.7137 35.2828 89.5035C34.8106 91.7764 34.7623 92.6678 34.7307 99.6941C34.697 107.148 34.6762 107.485 34.0732 110.267C33.4156 113.3 32.5094 116.859 31.9987 118.415C30.967 121.557 29.0986 128.143 28.7737 129.784C28.4441 131.449 28.4262 132.127 28.6449 134.662C29.2095 141.203 30.724 145.835 33.8148 150.475C36.6828 154.78 39.6548 157.732 44.1354 160.725C50.2472 164.808 52.6254 167.479 62.9228 170.267C68.9474 171.898 74.3518 174.8 78.9769 178.885C78.9769 178.885 81.8112 181.495 83.7636 183.348C90.8818 190.104 94.2715 192.791 99.1079 195.508C110.17 201.723 119.465 202.636 128.422 198.385C134.266 195.612 138.871 191.977 149.833 181.486C151.822 179.583 154.958 176.826 156.595 175.542C157.159 175.1 157.776 174.615 157.965 174.464C160.703 172.281 163.963 170.262 168.414 167.992C179.662 162.254 185.609 155.463 187.167 146.576C187.569 144.284 187.615 139.236 187.262 136.058C187.125 134.83 186.66 131.861 186.228 129.459C183.322 113.309 183.267 109.673 185.779 100.039C186.965 95.493 187.329 92.9158 187.45 88.2148C187.579 83.238 187.327 80.2748 186.453 76.4799C185.045 70.3652 182.703 65.3265 178.845 60.1084C176.975 57.5781 172.833 52.9856 170.772 51.1567C168.367 49.0217 168.192 48.8725 167.356 48.2418C166.915 47.9092 166.503 47.578 166.44 47.5059C166.377 47.4335 165.81 47.0259 165.18 46.6003C164.55 46.1746 163.983 45.7551 163.92 45.6683C163.804 45.5081 162.317 44.5528 158.997 42.5063C153.573 39.1635 146.498 36.4644 139.31 34.9966C134.84 34.0839 127.942 33.7484 122.906 34.1989Z" fill="#101217"/>
<path d="M66.5 86V78C66.5 70.268 72.768 64 80.5 64H88.5" stroke="#9FA0A2" stroke-width="3.38633" stroke-linecap="round"/>
<path d="M67.5 141V149C67.5 156.732 73.768 163 81.5 163H89.5" stroke="#9FA0A2" stroke-width="3.38633" stroke-linecap="round"/>
<path d="M159.5 86V78C159.5 70.268 153.232 64 145.5 64H137.5" stroke="#9FA0A2" stroke-width="3.38633" stroke-linecap="round"/>
<path d="M159.5 141V149C159.5 156.732 153.232 163 145.5 163H137.5" stroke="#9FA0A2" stroke-width="3.38633" stroke-linecap="round"/>
<rect x="74.5" y="72" width="77" height="83" rx="10" fill="#282A2F"/>
<path d="M95.4177 103C94.1792 103 93.0232 102.782 91.9497 102.345C90.8763 101.908 89.9267 101.294 89.101 100.504C88.2918 99.6975 87.656 98.7479 87.1936 97.6555C86.7312 96.5462 86.5 95.3277 86.5 94C86.5 92.6723 86.7312 91.4622 87.1936 90.3697C87.656 89.2605 88.2918 88.3109 89.101 87.521C89.9267 86.7143 90.8763 86.0924 91.9497 85.6555C93.0232 85.2185 94.1792 85 95.4177 85C96.6563 85 97.8123 85.2185 98.8858 85.6555C99.9757 86.0924 100.925 86.7143 101.734 87.521C102.544 88.3109 103.179 89.2605 103.642 90.3697C104.104 91.4622 104.335 92.6723 104.335 94C104.335 95.3277 104.104 96.5462 103.642 97.6555C103.179 98.7479 102.535 99.6975 101.71 100.504C100.901 101.294 99.9592 101.908 98.8858 102.345C97.8123 102.782 96.6563 103 95.4177 103ZM95.4177 99.2437C96.326 99.2437 97.1187 99.0168 97.7958 98.563C98.4729 98.1092 99.0014 97.4874 99.3812 96.6975C99.761 95.9076 99.9509 95.0084 99.9509 94C99.9509 92.9748 99.761 92.0756 99.3812 91.3025C99.0014 90.5126 98.4729 89.8908 97.7958 89.437C97.1187 88.9832 96.326 88.7563 95.4177 88.7563C94.4929 88.7563 93.692 88.9832 93.0149 89.437C92.3378 89.8908 91.8094 90.5126 91.4295 91.3025C91.0662 92.0756 90.8846 92.9748 90.8846 94C90.8846 95.0084 91.0662 95.9076 91.4295 96.6975C91.8094 97.4874 92.3378 98.1092 93.0149 98.563C93.692 99.0168 94.4929 99.2437 95.4177 99.2437Z" fill="#E8E8E8"/>
<path d="M105.708 94C105.708 92.6891 105.914 91.4874 106.327 90.395C106.756 89.2857 107.351 88.3277 108.11 87.521C108.887 86.7143 109.811 86.0924 110.885 85.6555C111.958 85.2185 113.139 85 114.427 85C116.376 85 118.044 85.4958 119.431 86.4874C120.818 87.4622 121.809 88.8067 122.404 90.521L118.663 91.3529C118.366 90.7311 118.011 90.2269 117.598 89.8403C117.185 89.437 116.714 89.1429 116.186 88.958C115.657 88.7731 115.071 88.6807 114.427 88.6807C113.502 88.6807 112.71 88.916 112.049 89.3866C111.389 89.8571 110.885 90.4958 110.538 91.3025C110.191 92.0924 110.018 92.9916 110.018 94C110.018 95.0252 110.191 95.9412 110.538 96.7479C110.885 97.5378 111.389 98.1681 112.049 98.6387C112.71 99.0924 113.502 99.3193 114.427 99.3193C115.071 99.3193 115.674 99.2269 116.235 99.042C116.797 98.8403 117.301 98.521 117.747 98.084C118.192 97.6303 118.572 97.042 118.886 96.3193L122.527 97.0756C121.933 98.958 120.934 100.42 119.53 101.462C118.126 102.487 116.425 103 114.427 103C113.139 103 111.958 102.782 110.885 102.345C109.811 101.908 108.887 101.294 108.11 100.504C107.351 99.6975 106.756 98.7479 106.327 97.6555C105.914 96.5462 105.708 95.3277 105.708 94Z" fill="#E8E8E8"/>
<path d="M134.793 90.9244C134.793 90.2857 134.603 89.7815 134.224 89.4118C133.844 89.042 133.266 88.8571 132.49 88.8571H129.096V93.0168H132.49C133.002 93.0168 133.423 92.9412 133.753 92.7899C134.1 92.6218 134.356 92.3782 134.521 92.0588C134.703 91.7395 134.793 91.3613 134.793 90.9244ZM132.762 85.1765C134.199 85.1765 135.388 85.4454 136.329 85.9832C137.287 86.5042 137.997 87.2017 138.46 88.0756C138.939 88.9496 139.178 89.8992 139.178 90.9244C139.178 91.6303 139.046 92.3277 138.782 93.0168C138.534 93.7059 138.146 94.3277 137.617 94.8824C137.105 95.437 136.445 95.8824 135.636 96.2185C134.826 96.5378 133.869 96.6975 132.762 96.6975H129.096V102.824H124.786V85.1765H132.762ZM134.942 95.1849L139.5 102.824H134.744L130.434 95.1849H134.942Z" fill="#E8E8E8"/>
<rect x="86.5" y="115" width="53" height="5" rx="2.5" fill="#585A5D"/>
<rect x="86.5" y="126" width="53" height="5" rx="2.5" fill="#585A5D"/>
<rect x="95.5" y="137" width="35" height="5" rx="2.5" fill="#585A5D"/>
<defs>
<filter id="filter0_f_4919_6303" x="0.5" y="0" width="226" height="226" filterUnits="userSpaceOnUse" color-interpolation-filters="sRGB">
<feFlood flood-opacity="0" result="BackgroundImageFix"/>
<feBlend mode="normal" in="SourceGraphic" in2="BackgroundImageFix" result="shape"/>
<feGaussianBlur stdDeviation="40" result="effect1_foregroundBlur_4919_6303"/>
</filter>
<linearGradient id="paint0_linear_4919_6303" x1="139.062" y1="91.7141" x2="86.9059" y2="135.847" gradientUnits="userSpaceOnUse">
<stop stop-color="#0C79FE"/>
<stop offset="1" stop-color="#30C5D2"/>
</linearGradient>
</defs>
</svg>
