<svg width="98" height="103" viewBox="0 0 98 103" fill="none" xmlns="http://www.w3.org/2000/svg">
<path d="M2.5 24V16C2.5 8.26801 8.76801 2 16.5 2H24.5" stroke="#9FA0A2" stroke-width="3.38633" stroke-linecap="round"/>
<path d="M3.5 79V87C3.5 94.732 9.76801 101 17.5 101H25.5" stroke="#9FA0A2" stroke-width="3.38633" stroke-linecap="round"/>
<path d="M95.5 24V16C95.5 8.26801 89.232 2 81.5 2H73.5" stroke="#9FA0A2" stroke-width="3.38633" stroke-linecap="round"/>
<path d="M95.5 79V87C95.5 94.732 89.232 101 81.5 101H73.5" stroke="#9FA0A2" stroke-width="3.38633" stroke-linecap="round"/>
<rect x="10.5" y="10" width="77" height="83" rx="10" fill="#282A2F"/>
<path d="M31.4177 41C30.1792 41 29.0232 40.7815 27.9497 40.3445C26.8763 39.9076 25.9267 39.2941 25.101 38.5042C24.2918 37.6975 23.656 36.7479 23.1936 35.6555C22.7312 34.5462 22.5 33.3277 22.5 32C22.5 30.6723 22.7312 29.4622 23.1936 28.3697C23.656 27.2605 24.2918 26.3109 25.101 25.521C25.9267 24.7143 26.8763 24.0924 27.9497 23.6555C29.0232 23.2185 30.1792 23 31.4177 23C32.6563 23 33.8123 23.2185 34.8858 23.6555C35.9757 24.0924 36.9253 24.7143 37.7345 25.521C38.5437 26.3109 39.1795 27.2605 39.6419 28.3697C40.1043 29.4622 40.3355 30.6723 40.3355 32C40.3355 33.3277 40.1043 34.5462 39.6419 35.6555C39.1795 36.7479 38.5354 37.6975 37.7097 38.5042C36.9005 39.2941 35.9592 39.9076 34.8858 40.3445C33.8123 40.7815 32.6563 41 31.4177 41ZM31.4177 37.2437C32.326 37.2437 33.1187 37.0168 33.7958 36.563C34.4729 36.1092 35.0014 35.4874 35.3812 34.6975C35.761 33.9076 35.9509 33.0084 35.9509 32C35.9509 30.9748 35.761 30.0756 35.3812 29.3025C35.0014 28.5126 34.4729 27.8908 33.7958 27.437C33.1187 26.9832 32.326 26.7563 31.4177 26.7563C30.4929 26.7563 29.692 26.9832 29.0149 27.437C28.3378 27.8908 27.8094 28.5126 27.4295 29.3025C27.0662 30.0756 26.8846 30.9748 26.8846 32C26.8846 33.0084 27.0662 33.9076 27.4295 34.6975C27.8094 35.4874 28.3378 36.1092 29.0149 36.563C29.692 37.0168 30.4929 37.2437 31.4177 37.2437Z" fill="#E8E8E8"/>
<path d="M41.7076 32C41.7076 30.6891 41.914 29.4874 42.3269 28.395C42.7563 27.2857 43.3508 26.3277 44.1104 25.521C44.8866 24.7143 45.8114 24.0924 46.8848 23.6555C47.9583 23.2185 49.139 23 50.4272 23C52.3759 23 54.0438 23.4958 55.431 24.4874C56.8182 25.4622 57.8091 26.8067 58.4036 28.521L54.6631 29.3529C54.3658 28.7311 54.0108 28.2269 53.5979 27.8403C53.1851 27.437 52.7144 27.1429 52.1859 26.958C51.6575 26.7731 51.0712 26.6807 50.4272 26.6807C49.5024 26.6807 48.7097 26.916 48.0491 27.3866C47.3885 27.8571 46.8848 28.4958 46.538 29.3025C46.1912 30.0924 46.0178 30.9916 46.0178 32C46.0178 33.0252 46.1912 33.9412 46.538 34.7479C46.8848 35.5378 47.3885 36.1681 48.0491 36.6387C48.7097 37.0924 49.5024 37.3193 50.4272 37.3193C51.0712 37.3193 51.674 37.2269 52.2355 37.042C52.797 36.8403 53.3007 36.521 53.7465 36.084C54.1924 35.6303 54.5723 35.042 54.886 34.3193L58.5275 35.0756C57.9329 36.958 56.9338 38.4202 55.5301 39.4622C54.1264 40.4874 52.4254 41 50.4272 41C49.139 41 47.9583 40.7815 46.8848 40.3445C45.8114 39.9076 44.8866 39.2941 44.1104 38.5042C43.3508 37.6975 42.7563 36.7479 42.3269 35.6555C41.914 34.5462 41.7076 33.3277 41.7076 32Z" fill="#E8E8E8"/>
<path d="M70.7934 28.9244C70.7934 28.2857 70.6035 27.7815 70.2237 27.4118C69.8438 27.042 69.2658 26.8571 68.4897 26.8571H65.096V31.0168H68.4897C69.0016 31.0168 69.4227 30.9412 69.753 30.7899C70.0998 30.6218 70.3558 30.3782 70.5209 30.0588C70.7026 29.7395 70.7934 29.3613 70.7934 28.9244ZM68.7621 23.1765C70.1989 23.1765 71.3879 23.4454 72.3292 23.9832C73.2871 24.5042 73.9972 25.2017 74.4596 26.0756C74.9385 26.9496 75.178 27.8992 75.178 28.9244C75.178 29.6303 75.0459 30.3277 74.7816 31.0168C74.5339 31.7059 74.1458 32.3277 73.6174 32.8824C73.1054 33.437 72.4448 33.8824 71.6356 34.2185C70.8264 34.5378 69.8686 34.6975 68.7621 34.6975H65.096V40.8235H60.7857V23.1765H68.7621ZM70.942 33.1849L75.5 40.8235H70.7439L66.4336 33.1849H70.942Z" fill="#E8E8E8"/>
<rect x="22.5" y="53" width="53" height="5" rx="2.5" fill="#585A5D"/>
<rect x="22.5" y="64" width="53" height="5" rx="2.5" fill="#585A5D"/>
<rect x="31.5" y="75" width="35" height="5" rx="2.5" fill="#585A5D"/>
</svg>
