<svg width="160" height="167" viewBox="0 0 160 167" fill="none" xmlns="http://www.w3.org/2000/svg">
<path fill-rule="evenodd" clip-rule="evenodd" d="M94.9065 0.198853C89.4739 0.684972 81.794 2.46419 77.635 4.20042C77.2571 4.3581 76.3296 4.72631 75.5738 5.01867C74.818 5.31103 73.3237 5.95918 72.253 6.45886C65.4257 9.6461 63.682 10.4087 60.573 11.5678C55.6972 13.3859 53.263 14.0198 47.7612 14.904C36.3709 16.7349 30.7136 21.4888 21.8984 29.6043C20.7455 30.6657 16.8334 35.1277 15.6476 36.7338C11.5728 42.2528 8.69361 48.7137 7.28284 55.5035C6.81061 57.7764 6.76229 58.6678 6.73068 65.6941C6.69701 73.1484 6.67617 73.4853 6.07316 76.2669C5.41565 79.3003 4.50942 82.8595 3.9987 84.4146C2.96697 87.5565 1.09863 94.1432 0.773654 95.7838C0.444095 97.449 0.42623 98.1268 0.644943 100.662C1.20948 107.203 2.72398 111.835 5.81483 116.475C8.68285 120.78 11.6548 123.732 16.1354 126.725C22.2472 130.808 24.6254 133.479 34.9228 136.267C40.9474 137.898 46.3518 140.8 50.9769 144.885C50.9769 144.885 53.8112 147.495 55.7636 149.348C62.8818 156.104 66.2715 158.791 71.1079 161.508C82.1698 167.723 91.4653 168.636 100.422 164.385C106.266 161.612 110.871 157.977 121.833 147.486C123.822 145.583 126.958 142.826 128.595 141.542C129.159 141.1 129.776 140.615 129.965 140.464C132.703 138.281 135.963 136.262 140.414 133.992C151.662 128.254 157.609 121.463 159.167 112.576C159.569 110.284 159.615 105.236 159.262 102.058C159.125 100.83 158.66 97.8607 158.228 95.4588C155.322 79.3086 155.267 75.6732 157.779 66.0388C158.965 61.493 159.329 58.9158 159.45 54.2148C159.579 49.238 159.327 46.2748 158.453 42.4799C157.045 36.3652 154.703 31.3265 150.845 26.1084C148.975 23.5781 144.833 18.9856 142.772 17.1567C140.367 15.0217 140.192 14.8725 139.356 14.2418C138.915 13.9092 138.503 13.578 138.44 13.5059C138.377 13.4335 137.81 13.0259 137.18 12.6003C136.55 12.1746 135.983 11.7551 135.92 11.6683C135.804 11.5081 134.317 10.5528 130.997 8.50631C125.573 5.16347 118.498 2.46442 111.31 0.996638C106.84 0.0839301 99.9419 -0.25164 94.9065 0.198853Z" fill="#101217"/>
</svg>
