<svg width="1440" height="1145" viewBox="0 0 1440 1145" fill="none" xmlns="http://www.w3.org/2000/svg">
<path d="M937.244 185.639H830.881C822.044 185.639 814.881 178.475 814.881 169.639V68.1387C814.881 59.3021 822.044 52.1387 830.881 52.1387H1158.12C1166.96 52.1387 1174.12 44.9752 1174.12 36.1387V0.638672" stroke="white" stroke-opacity="0.05"/>
<path d="M591.092 126.639H192.889C184.052 126.639 176.889 119.475 176.889 110.639V26.1387" stroke="white" stroke-opacity="0.05"/>
<path d="M504.064 185.639H610.428C619.264 185.639 626.428 178.475 626.428 169.639V68.1387C626.428 59.3021 619.264 52.1387 610.428 52.1387H283.189C274.353 52.1387 267.189 44.9752 267.189 36.1387V0.638672" stroke="white" stroke-opacity="0.05"/>
<path d="M720.656 209.139V53.6387" stroke="white" stroke-opacity="0.05"/>
<path d="M673.542 218.139C673.542 218.139 673.542 -22.0438 673.542 2.96433" stroke="url(#paint0_linear_14498_27110)"/>
<path d="M767.767 218.139C767.767 218.139 767.767 -22.0438 767.767 2.96433" stroke="url(#paint1_linear_14498_27110)"/>
<path d="M176.889 21.1387C180.142 21.1387 182.778 23.1534 182.778 25.6387C182.778 28.124 180.142 30.1387 176.889 30.1387C173.637 30.1387 171 28.124 171 25.6387C171 23.1534 173.637 21.1387 176.889 21.1387Z" fill="#24272E" stroke="#2E3139" stroke-width="1.4"/>
<g opacity="0.4" filter="url(#filter0_f_14498_27110)">
<rect width="15.7044" height="24" rx="6" transform="matrix(1 0 0 -1 712.803 169.139)" fill="#929292"/>
</g>
<path d="M676.159 157.139H670.924V164.139C670.924 164.691 671.511 165.139 672.233 165.139H674.85C675.573 165.139 676.159 164.691 676.159 164.139V157.139Z" fill="url(#paint2_linear_14498_27110)"/>
<g opacity="0.4" filter="url(#filter1_f_14498_27110)">
<rect width="12" height="31.4088" rx="6" transform="matrix(-5.72051e-08 1 1 3.34006e-08 847.599 121.139)" fill="#30C5D2"/>
</g>
<path d="M676.159 97.1387H670.924V90.1387C670.924 89.5864 671.511 89.1387 672.233 89.1387H674.85C675.573 89.1387 676.159 89.5864 676.159 90.1387V97.1387Z" fill="url(#paint3_linear_14498_27110)"/>
<g opacity="0.4" filter="url(#filter2_f_14498_27110)">
<rect width="15.7044" height="24" rx="6" transform="matrix(1 0 0 -1 618.575 109.139)" fill="#30C5D2"/>
</g>
<path d="M629.045 157.139H623.811V164.139C623.811 164.691 624.397 165.139 625.119 165.139H627.737C628.459 165.139 629.045 164.691 629.045 164.139V157.139Z" fill="url(#paint4_linear_14498_27110)"/>
<path d="M629.045 97.1387H623.811V90.1387C623.811 89.5864 624.397 89.1387 625.119 89.1387H627.737C628.459 89.1387 629.045 89.5864 629.045 90.1387V97.1387Z" fill="url(#paint5_linear_14498_27110)"/>
<g opacity="0.4" filter="url(#filter3_f_14498_27110)">
<rect width="12" height="31.4088" rx="6" transform="matrix(-5.72051e-08 1 1 3.34006e-08 562.303 121.139)" fill="#682990"/>
</g>
<path d="M578.006 129.139L578.006 125.139L568.846 125.139C568.123 125.139 567.537 125.587 567.537 126.139L567.537 128.139C567.537 128.691 568.123 129.139 568.846 129.139L578.006 129.139Z" fill="url(#paint6_linear_14498_27110)"/>
<path d="M863.303 129.139L863.303 125.139L872.464 125.139C873.186 125.139 873.772 125.587 873.772 126.139L873.772 128.139C873.772 128.691 873.186 129.139 872.464 129.139L863.303 129.139Z" fill="url(#paint7_linear_14498_27110)"/>
<path d="M723.274 157.139H718.04V164.139C718.04 164.691 718.626 165.139 719.348 165.139H721.966C722.688 165.139 723.274 164.691 723.274 164.139V157.139Z" fill="url(#paint8_linear_14498_27110)"/>
<path d="M723.274 97.1387H718.04V90.1387C718.04 89.5864 718.626 89.1387 719.348 89.1387H721.966C722.688 89.1387 723.274 89.5864 723.274 90.1387V97.1387Z" fill="url(#paint9_linear_14498_27110)"/>
<path d="M770.385 157.139H765.15V164.139C765.15 164.691 765.737 165.139 766.459 165.139H769.076C769.799 165.139 770.385 164.691 770.385 164.139V157.139Z" fill="url(#paint10_linear_14498_27110)"/>
<path d="M770.385 97.1387H765.15V90.1387C765.15 89.5864 765.737 89.1387 766.459 89.1387H769.076C769.799 89.1387 770.385 89.5864 770.385 90.1387V97.1387Z" fill="url(#paint11_linear_14498_27110)"/>
<path d="M817.499 157.139H812.265V164.139C812.265 164.691 812.851 165.139 813.573 165.139H816.191C816.913 165.139 817.499 164.691 817.499 164.139V157.139Z" fill="url(#paint12_linear_14498_27110)"/>
<g opacity="0.4" filter="url(#filter4_f_14498_27110)">
<rect width="15.7044" height="24" rx="6" transform="matrix(1 0 0 -1 807.03 109.139)" fill="#682990"/>
</g>
<path d="M812.263 97.1387L817.498 97.1387L817.498 90.1387C817.498 89.5864 816.911 89.1387 816.189 89.1387L813.571 89.1387C812.849 89.1387 812.263 89.5864 812.263 90.1387L812.263 97.1387Z" fill="url(#paint13_linear_14498_27110)"/>
<g filter="url(#filter5_dd_14498_27110)">
<rect width="262" height="56" rx="28" transform="matrix(1 0 0 -1 589 156.639)" fill="url(#paint14_linear_14498_27110)"/>
<path d="M621.33 137.639V121.127H624.618V137.639H621.33ZM615.954 123.671V120.767H629.994V123.671H615.954ZM633.877 137.879C632.821 137.879 631.869 137.615 631.021 137.087C630.173 136.559 629.509 135.839 629.029 134.927C628.549 134.015 628.309 132.991 628.309 131.855C628.309 130.703 628.549 129.671 629.029 128.759C629.509 127.847 630.173 127.127 631.021 126.599C631.869 126.071 632.821 125.807 633.877 125.807C634.709 125.807 635.453 125.975 636.109 126.311C636.765 126.647 637.285 127.119 637.669 127.727C638.069 128.319 638.285 128.991 638.317 129.743V133.919C638.285 134.687 638.069 135.367 637.669 135.959C637.285 136.551 636.765 137.023 636.109 137.375C635.453 137.711 634.709 137.879 633.877 137.879ZM634.453 134.975C635.333 134.975 636.045 134.687 636.589 134.111C637.133 133.519 637.405 132.759 637.405 131.831C637.405 131.223 637.277 130.687 637.021 130.223C636.781 129.743 636.437 129.375 635.989 129.119C635.557 128.847 635.045 128.711 634.453 128.711C633.877 128.711 633.365 128.847 632.917 129.119C632.485 129.375 632.141 129.743 631.885 130.223C631.645 130.687 631.525 131.223 631.525 131.831C631.525 132.455 631.645 133.007 631.885 133.487C632.141 133.951 632.485 134.319 632.917 134.591C633.365 134.847 633.877 134.975 634.453 134.975ZM637.237 137.639V134.519L637.741 131.687L637.237 128.903V126.047H640.357V137.639H637.237ZM650.53 137.639L646.042 131.663L650.506 126.047H654.13L648.898 132.383L649.018 130.847L654.37 137.639H650.53ZM643.138 137.639V120.287H646.282V137.639H643.138ZM660.823 137.879C659.607 137.879 658.527 137.623 657.583 137.111C656.639 136.583 655.887 135.863 655.327 134.951C654.783 134.039 654.511 132.999 654.511 131.831C654.511 130.679 654.775 129.655 655.303 128.759C655.847 127.847 656.583 127.127 657.511 126.599C658.439 126.055 659.471 125.783 660.607 125.783C661.727 125.783 662.711 126.039 663.559 126.551C664.423 127.047 665.095 127.735 665.575 128.615C666.071 129.479 666.319 130.463 666.319 131.567C666.319 131.775 666.303 131.991 666.271 132.215C666.255 132.423 666.215 132.663 666.151 132.935L656.407 132.959V130.607L664.687 130.583L663.415 131.567C663.383 130.879 663.255 130.303 663.031 129.839C662.823 129.375 662.511 129.023 662.095 128.783C661.695 128.527 661.199 128.399 660.607 128.399C659.983 128.399 659.439 128.543 658.975 128.831C658.511 129.103 658.151 129.495 657.895 130.007C657.655 130.503 657.535 131.095 657.535 131.783C657.535 132.487 657.663 133.103 657.919 133.631C658.191 134.143 658.575 134.543 659.071 134.831C659.567 135.103 660.143 135.239 660.799 135.239C661.391 135.239 661.927 135.143 662.407 134.951C662.887 134.743 663.303 134.439 663.655 134.039L665.503 135.887C664.943 136.543 664.255 137.039 663.439 137.375C662.639 137.711 661.767 137.879 660.823 137.879ZM673.287 137.639V120.767H676.551V137.639H673.287ZM681.381 137.639V121.223H684.525V137.639H681.381ZM678.669 128.807V126.047H687.237V128.807H678.669ZM695.229 137.639V124.799C695.229 123.871 695.429 123.055 695.829 122.351C696.229 121.631 696.797 121.063 697.533 120.647C698.269 120.231 699.133 120.023 700.125 120.023C700.877 120.023 701.525 120.151 702.069 120.407C702.613 120.663 703.101 121.015 703.533 121.463L701.541 123.479C701.365 123.303 701.173 123.167 700.965 123.071C700.757 122.975 700.493 122.927 700.173 122.927C699.597 122.927 699.149 123.087 698.829 123.407C698.525 123.711 698.373 124.151 698.373 124.727V137.639H695.229ZM692.541 128.807V126.047H701.805V128.807H692.541ZM708.656 137.879C707.488 137.879 706.432 137.615 705.488 137.087C704.56 136.543 703.816 135.815 703.256 134.903C702.712 133.975 702.44 132.943 702.44 131.807C702.44 130.671 702.712 129.655 703.256 128.759C703.8 127.847 704.544 127.127 705.488 126.599C706.432 126.055 707.48 125.783 708.632 125.783C709.816 125.783 710.872 126.055 711.8 126.599C712.744 127.127 713.488 127.847 714.032 128.759C714.576 129.655 714.848 130.671 714.848 131.807C714.848 132.943 714.576 133.975 714.032 134.903C713.488 135.815 712.744 136.543 711.8 137.087C710.872 137.615 709.824 137.879 708.656 137.879ZM708.632 134.951C709.224 134.951 709.744 134.823 710.192 134.567C710.656 134.295 711.008 133.927 711.248 133.463C711.504 132.983 711.632 132.439 711.632 131.831C711.632 131.223 711.504 130.687 711.248 130.223C710.992 129.759 710.64 129.399 710.192 129.143C709.744 128.871 709.224 128.735 708.632 128.735C708.056 128.735 707.544 128.871 707.096 129.143C706.648 129.399 706.296 129.759 706.04 130.223C705.784 130.687 705.656 131.223 705.656 131.831C705.656 132.439 705.784 132.983 706.04 133.463C706.296 133.927 706.648 134.295 707.096 134.567C707.544 134.823 708.056 134.951 708.632 134.951ZM716.872 137.639V126.047H720.016V137.639H716.872ZM720.016 131.231L718.792 130.415C718.936 128.991 719.352 127.871 720.04 127.055C720.728 126.223 721.72 125.807 723.016 125.807C723.576 125.807 724.08 125.903 724.528 126.095C724.976 126.271 725.384 126.567 725.752 126.983L723.784 129.239C723.608 129.047 723.392 128.903 723.136 128.807C722.896 128.711 722.616 128.663 722.296 128.663C721.624 128.663 721.072 128.879 720.64 129.311C720.224 129.727 720.016 130.367 720.016 131.231ZM736.814 137.879C735.758 137.879 734.806 137.615 733.958 137.087C733.11 136.559 732.446 135.839 731.966 134.927C731.486 134.015 731.246 132.991 731.246 131.855C731.246 130.703 731.486 129.671 731.966 128.759C732.446 127.847 733.11 127.127 733.958 126.599C734.806 126.071 735.758 125.807 736.814 125.807C737.646 125.807 738.39 125.975 739.046 126.311C739.702 126.647 740.222 127.119 740.606 127.727C741.006 128.319 741.222 128.991 741.254 129.743V133.919C741.222 134.687 741.006 135.367 740.606 135.959C740.222 136.551 739.702 137.023 739.046 137.375C738.39 137.711 737.646 137.879 736.814 137.879ZM737.39 134.975C738.27 134.975 738.982 134.687 739.526 134.111C740.07 133.519 740.342 132.759 740.342 131.831C740.342 131.223 740.214 130.687 739.958 130.223C739.718 129.743 739.374 129.375 738.926 129.119C738.494 128.847 737.982 128.711 737.39 128.711C736.814 128.711 736.302 128.847 735.854 129.119C735.422 129.375 735.078 129.743 734.822 130.223C734.582 130.687 734.462 131.223 734.462 131.831C734.462 132.455 734.582 133.007 734.822 133.487C735.078 133.951 735.422 134.319 735.854 134.591C736.302 134.847 736.814 134.975 737.39 134.975ZM740.174 137.639V134.519L740.678 131.687L740.174 128.903V126.047H743.294V137.639H740.174ZM755.995 137.879C754.635 137.879 753.467 137.647 752.491 137.183C751.531 136.719 750.659 136.023 749.875 135.095L752.035 132.935C752.531 133.591 753.107 134.103 753.763 134.471C754.419 134.823 755.219 134.999 756.163 134.999C757.011 134.999 757.683 134.831 758.179 134.495C758.691 134.159 758.947 133.695 758.947 133.103C758.947 132.591 758.803 132.175 758.515 131.855C758.227 131.535 757.843 131.263 757.363 131.039C756.899 130.815 756.379 130.615 755.803 130.439C755.243 130.247 754.675 130.031 754.099 129.791C753.539 129.551 753.019 129.255 752.539 128.903C752.075 128.535 751.699 128.071 751.411 127.511C751.123 126.935 750.979 126.215 750.979 125.351C750.979 124.327 751.227 123.455 751.723 122.735C752.219 122.015 752.899 121.463 753.763 121.079C754.627 120.695 755.603 120.503 756.691 120.503C757.843 120.503 758.883 120.719 759.811 121.151C760.739 121.583 761.499 122.143 762.091 122.831L759.931 124.991C759.435 124.447 758.923 124.047 758.395 123.791C757.883 123.535 757.299 123.407 756.643 123.407C755.891 123.407 755.299 123.551 754.867 123.839C754.435 124.127 754.219 124.543 754.219 125.087C754.219 125.551 754.363 125.927 754.651 126.215C754.939 126.503 755.315 126.751 755.779 126.959C756.259 127.167 756.779 127.367 757.339 127.559C757.915 127.751 758.483 127.967 759.043 128.207C759.619 128.447 760.139 128.759 760.603 129.143C761.083 129.527 761.467 130.023 761.755 130.631C762.043 131.223 762.187 131.959 762.187 132.839C762.187 134.407 761.635 135.639 760.531 136.535C759.427 137.431 757.915 137.879 755.995 137.879ZM770.859 137.879C770.027 137.879 769.275 137.711 768.603 137.375C767.931 137.023 767.395 136.551 766.995 135.959C766.595 135.367 766.379 134.687 766.347 133.919V129.815C766.379 129.047 766.595 128.367 766.995 127.775C767.411 127.167 767.947 126.687 768.603 126.335C769.275 125.983 770.027 125.807 770.859 125.807C771.931 125.807 772.891 126.071 773.739 126.599C774.587 127.127 775.251 127.847 775.731 128.759C776.227 129.671 776.475 130.703 776.475 131.855C776.475 132.991 776.227 134.015 775.731 134.927C775.251 135.839 774.587 136.559 773.739 137.087C772.891 137.615 771.931 137.879 770.859 137.879ZM764.427 142.487V126.047H767.571V129.095L767.043 131.903L767.547 134.711V142.487H764.427ZM770.307 134.975C770.883 134.975 771.395 134.847 771.843 134.591C772.291 134.319 772.635 133.951 772.875 133.487C773.131 133.007 773.259 132.455 773.259 131.831C773.259 131.223 773.131 130.687 772.875 130.223C772.635 129.743 772.291 129.375 771.843 129.119C771.395 128.847 770.883 128.711 770.307 128.711C769.747 128.711 769.243 128.847 768.795 129.119C768.347 129.375 767.995 129.743 767.739 130.223C767.499 130.687 767.379 131.223 767.379 131.831C767.379 132.455 767.499 133.007 767.739 133.487C767.995 133.951 768.339 134.319 768.771 134.591C769.219 134.847 769.731 134.975 770.307 134.975ZM778.537 137.639V126.047H781.705V137.639H778.537ZM780.121 124.175C779.609 124.175 779.185 124.007 778.849 123.671C778.513 123.319 778.345 122.887 778.345 122.375C778.345 121.879 778.513 121.455 778.849 121.103C779.185 120.751 779.609 120.575 780.121 120.575C780.649 120.575 781.073 120.751 781.393 121.103C781.729 121.455 781.897 121.879 781.897 122.375C781.897 122.887 781.729 123.319 781.393 123.671C781.073 124.007 780.649 124.175 780.121 124.175ZM792.29 137.639V130.991C792.29 130.303 792.074 129.743 791.642 129.311C791.21 128.879 790.65 128.663 789.962 128.663C789.514 128.663 789.114 128.759 788.762 128.951C788.41 129.143 788.13 129.415 787.922 129.767C787.73 130.119 787.634 130.527 787.634 130.991L786.41 130.367C786.41 129.455 786.602 128.663 786.986 127.991C787.386 127.303 787.93 126.767 788.618 126.383C789.322 125.999 790.114 125.807 790.994 125.807C791.842 125.807 792.602 126.023 793.274 126.455C793.946 126.871 794.474 127.423 794.858 128.111C795.242 128.783 795.434 129.511 795.434 130.295V137.639H792.29ZM784.49 137.639V126.047H787.634V137.639H784.49Z" fill="#E9EBF1"/>
<path d="M816.404 122.293L822.75 128.639L816.404 134.984" stroke="#E9EBF1" stroke-width="2" stroke-linecap="round" stroke-linejoin="round"/>
<path d="M822.75 128.639L809.25 128.639" stroke="#E9EBF1" stroke-width="2" stroke-linecap="round" stroke-linejoin="round"/>
</g>
<path d="M498.176 181.139C501.428 181.139 504.065 183.153 504.065 185.639C504.065 188.124 501.428 190.139 498.176 190.139C494.923 190.139 492.286 188.124 492.286 185.639C492.286 183.153 494.923 181.139 498.176 181.139Z" fill="#24272E" stroke="#2E3139" stroke-width="1.4"/>
<path d="M720 209.139C723.253 209.139 725.889 211.153 725.889 213.639C725.889 216.124 723.253 218.139 720 218.139C716.748 218.139 714.111 216.124 714.111 213.639C714.111 211.153 716.748 209.139 720 209.139Z" fill="#24272E" stroke="#2E3139" stroke-width="1.4"/>
<path d="M720 45.1387C723.253 45.1387 725.889 47.1534 725.889 49.6387C725.889 52.124 723.253 54.1387 720 54.1387C716.748 54.1387 714.111 52.124 714.111 49.6387C714.111 47.1534 716.748 45.1387 720 45.1387Z" fill="#24272E" stroke="#2E3139" stroke-width="1.4"/>
<path d="M212.878 126.639H437.974" stroke="url(#paint15_linear_14498_27110)"/>
<path d="M435.357 52.6387H579.314" stroke="url(#paint16_linear_14498_27110)"/>
<path d="M873.773 126.639H1247.11C1255.95 126.639 1263.11 119.475 1263.11 110.639V26.1387" stroke="white" stroke-opacity="0.05"/>
<path d="M1263.11 21.1387C1259.86 21.1387 1257.22 23.1534 1257.22 25.6387C1257.22 28.124 1259.86 30.1387 1263.11 30.1387C1266.36 30.1387 1269 28.124 1269 25.6387C1269 23.1534 1266.36 21.1387 1263.11 21.1387Z" fill="#24272E" stroke="#2E3139" stroke-width="1.4"/>
<path d="M941.824 181.139C938.572 181.139 935.935 183.153 935.935 185.639C935.935 188.124 938.572 190.139 941.824 190.139C945.077 190.139 947.714 188.124 947.714 185.639C947.714 183.153 945.077 181.139 941.824 181.139Z" fill="#24272E" stroke="#2E3139" stroke-width="1.4"/>
<path d="M1231.05 126.139H1005.95" stroke="url(#paint17_linear_14498_27110)"/>
<path d="M994.172 52.6387H850.215" stroke="url(#paint18_linear_14498_27110)"/>
<defs>
<filter id="filter0_f_14498_27110" x="696.803" y="129.139" width="47.7043" height="56" filterUnits="userSpaceOnUse" color-interpolation-filters="sRGB">
<feFlood flood-opacity="0" result="BackgroundImageFix"/>
<feBlend mode="normal" in="SourceGraphic" in2="BackgroundImageFix" result="shape"/>
<feGaussianBlur stdDeviation="8" result="effect1_foregroundBlur_14498_27110"/>
</filter>
<filter id="filter1_f_14498_27110" x="831.599" y="105.139" width="63.4089" height="44" filterUnits="userSpaceOnUse" color-interpolation-filters="sRGB">
<feFlood flood-opacity="0" result="BackgroundImageFix"/>
<feBlend mode="normal" in="SourceGraphic" in2="BackgroundImageFix" result="shape"/>
<feGaussianBlur stdDeviation="8" result="effect1_foregroundBlur_14498_27110"/>
</filter>
<filter id="filter2_f_14498_27110" x="602.575" y="69.1387" width="47.7043" height="56" filterUnits="userSpaceOnUse" color-interpolation-filters="sRGB">
<feFlood flood-opacity="0" result="BackgroundImageFix"/>
<feBlend mode="normal" in="SourceGraphic" in2="BackgroundImageFix" result="shape"/>
<feGaussianBlur stdDeviation="8" result="effect1_foregroundBlur_14498_27110"/>
</filter>
<filter id="filter3_f_14498_27110" x="550.303" y="109.139" width="55.4089" height="36" filterUnits="userSpaceOnUse" color-interpolation-filters="sRGB">
<feFlood flood-opacity="0" result="BackgroundImageFix"/>
<feBlend mode="normal" in="SourceGraphic" in2="BackgroundImageFix" result="shape"/>
<feGaussianBlur stdDeviation="6" result="effect1_foregroundBlur_14498_27110"/>
</filter>
<filter id="filter4_f_14498_27110" x="795.03" y="73.1387" width="39.7043" height="48" filterUnits="userSpaceOnUse" color-interpolation-filters="sRGB">
<feFlood flood-opacity="0" result="BackgroundImageFix"/>
<feBlend mode="normal" in="SourceGraphic" in2="BackgroundImageFix" result="shape"/>
<feGaussianBlur stdDeviation="6" result="effect1_foregroundBlur_14498_27110"/>
</filter>
<filter id="filter5_dd_14498_27110" x="-377" y="100.639" width="2210" height="1044" filterUnits="userSpaceOnUse" color-interpolation-filters="sRGB">
<feFlood flood-opacity="0" result="BackgroundImageFix"/>
<feColorMatrix in="SourceAlpha" type="matrix" values="0 0 0 0 0 0 0 0 0 0 0 0 0 0 0 0 0 0 127 0" result="hardAlpha"/>
<feMorphology radius="200" operator="dilate" in="SourceAlpha" result="effect1_dropShadow_14498_27110"/>
<feOffset dx="-516" dy="500"/>
<feGaussianBlur stdDeviation="125"/>
<feComposite in2="hardAlpha" operator="out"/>
<feColorMatrix type="matrix" values="0 0 0 0 0.254902 0 0 0 0 0.239216 0 0 0 0 0.513726 0 0 0 0.15 0"/>
<feBlend mode="normal" in2="BackgroundImageFix" result="effect1_dropShadow_14498_27110"/>
<feColorMatrix in="SourceAlpha" type="matrix" values="0 0 0 0 0 0 0 0 0 0 0 0 0 0 0 0 0 0 127 0" result="hardAlpha"/>
<feMorphology radius="160" operator="dilate" in="SourceAlpha" result="effect2_dropShadow_14498_27110"/>
<feOffset dx="572" dy="578"/>
<feGaussianBlur stdDeviation="125"/>
<feComposite in2="hardAlpha" operator="out"/>
<feColorMatrix type="matrix" values="0 0 0 0 0.254902 0 0 0 0 0.239216 0 0 0 0 0.513726 0 0 0 0.15 0"/>
<feBlend mode="normal" in2="effect1_dropShadow_14498_27110" result="effect2_dropShadow_14498_27110"/>
<feBlend mode="normal" in="SourceGraphic" in2="effect2_dropShadow_14498_27110" result="shape"/>
</filter>
<linearGradient id="paint0_linear_14498_27110" x1="674.042" y1="218.139" x2="674.042" y2="1.13867" gradientUnits="userSpaceOnUse">
<stop stop-color="#161522" stop-opacity="0.2"/>
<stop offset="1" stop-color="white" stop-opacity="0.05"/>
</linearGradient>
<linearGradient id="paint1_linear_14498_27110" x1="768.267" y1="218.139" x2="768.267" y2="1.13867" gradientUnits="userSpaceOnUse">
<stop stop-color="#161522" stop-opacity="0.2"/>
<stop offset="1" stop-color="white" stop-opacity="0.05"/>
</linearGradient>
<linearGradient id="paint2_linear_14498_27110" x1="673.542" y1="157.639" x2="673.542" y2="165.139" gradientUnits="userSpaceOnUse">
<stop stop-color="#929292"/>
<stop offset="0.475" stop-color="#101217"/>
<stop offset="1" stop-color="#585858"/>
</linearGradient>
<linearGradient id="paint3_linear_14498_27110" x1="673.542" y1="96.6387" x2="673.542" y2="89.1387" gradientUnits="userSpaceOnUse">
<stop stop-color="#929292"/>
<stop offset="0.475" stop-color="#101217"/>
<stop offset="1" stop-color="#585858"/>
</linearGradient>
<linearGradient id="paint4_linear_14498_27110" x1="626.428" y1="157.639" x2="626.428" y2="165.139" gradientUnits="userSpaceOnUse">
<stop stop-color="#929292"/>
<stop offset="0.475" stop-color="#101217"/>
<stop offset="1" stop-color="#585858"/>
</linearGradient>
<linearGradient id="paint5_linear_14498_27110" x1="626.428" y1="96.6387" x2="626.428" y2="89.1387" gradientUnits="userSpaceOnUse">
<stop stop-color="#30C5D2"/>
<stop offset="0.475" stop-color="#101217"/>
<stop offset="1" stop-color="#0D484E"/>
</linearGradient>
<linearGradient id="paint6_linear_14498_27110" x1="577.352" y1="127.139" x2="567.537" y2="127.139" gradientUnits="userSpaceOnUse">
<stop stop-color="#682990"/>
<stop offset="0.475" stop-color="#101217"/>
<stop offset="1" stop-color="#602387"/>
</linearGradient>
<linearGradient id="paint7_linear_14498_27110" x1="863.957" y1="127.139" x2="873.772" y2="127.139" gradientUnits="userSpaceOnUse">
<stop stop-color="#30C5D2"/>
<stop offset="0.475" stop-color="#101217"/>
<stop offset="1" stop-color="#0D484E"/>
</linearGradient>
<linearGradient id="paint8_linear_14498_27110" x1="720.657" y1="157.639" x2="720.657" y2="165.139" gradientUnits="userSpaceOnUse">
<stop stop-color="#929292"/>
<stop offset="0.475" stop-color="#101217"/>
<stop offset="1" stop-color="#585858"/>
</linearGradient>
<linearGradient id="paint9_linear_14498_27110" x1="720.657" y1="96.6387" x2="720.657" y2="89.1387" gradientUnits="userSpaceOnUse">
<stop stop-color="#929292"/>
<stop offset="0.475" stop-color="#101217"/>
<stop offset="1" stop-color="#585858"/>
</linearGradient>
<linearGradient id="paint10_linear_14498_27110" x1="767.768" y1="157.639" x2="767.768" y2="165.139" gradientUnits="userSpaceOnUse">
<stop stop-color="#929292"/>
<stop offset="0.475" stop-color="#101217"/>
<stop offset="1" stop-color="#585858"/>
</linearGradient>
<linearGradient id="paint11_linear_14498_27110" x1="767.768" y1="96.6387" x2="767.768" y2="89.1387" gradientUnits="userSpaceOnUse">
<stop stop-color="#929292"/>
<stop offset="0.475" stop-color="#101217"/>
<stop offset="1" stop-color="#585858"/>
</linearGradient>
<linearGradient id="paint12_linear_14498_27110" x1="814.882" y1="157.639" x2="814.882" y2="165.139" gradientUnits="userSpaceOnUse">
<stop stop-color="#929292"/>
<stop offset="0.475" stop-color="#101217"/>
<stop offset="1" stop-color="#585858"/>
</linearGradient>
<linearGradient id="paint13_linear_14498_27110" x1="814.88" y1="96.6387" x2="814.88" y2="89.1387" gradientUnits="userSpaceOnUse">
<stop stop-color="#682990"/>
<stop offset="0.475" stop-color="#101217"/>
<stop offset="1" stop-color="#602387"/>
</linearGradient>
<linearGradient id="paint14_linear_14498_27110" x1="0" y1="28" x2="262" y2="28" gradientUnits="userSpaceOnUse">
<stop stop-color="#30C5D2"/>
<stop offset="1" stop-color="#471069"/>
</linearGradient>
<linearGradient id="paint15_linear_14498_27110" x1="212.878" y1="126.139" x2="437.974" y2="126.139" gradientUnits="userSpaceOnUse">
<stop stop-color="#682990" stop-opacity="0"/>
<stop offset="0.5" stop-color="#682990"/>
<stop offset="1" stop-color="#682990" stop-opacity="0"/>
</linearGradient>
<linearGradient id="paint16_linear_14498_27110" x1="435.357" y1="52.1387" x2="579.314" y2="52.1387" gradientUnits="userSpaceOnUse">
<stop stop-color="#30C5D2" stop-opacity="0"/>
<stop offset="0.5" stop-color="#30C5D2"/>
<stop offset="1" stop-color="#30C5D2" stop-opacity="0"/>
</linearGradient>
<linearGradient id="paint17_linear_14498_27110" x1="1231.05" y1="125.639" x2="1005.95" y2="125.639" gradientUnits="userSpaceOnUse">
<stop stop-color="#30C5D2" stop-opacity="0"/>
<stop offset="0.5" stop-color="#30C5D2"/>
<stop offset="1" stop-color="#30C5D2" stop-opacity="0"/>
</linearGradient>
<linearGradient id="paint18_linear_14498_27110" x1="994.172" y1="52.1387" x2="850.215" y2="52.1387" gradientUnits="userSpaceOnUse">
<stop stop-color="#682990" stop-opacity="0"/>
<stop offset="0.5" stop-color="#682990"/>
<stop offset="1" stop-color="#682990" stop-opacity="0"/>
</linearGradient>
</defs>
</svg>
