<svg width="77" height="77" viewBox="0 0 77 77" fill="none" xmlns="http://www.w3.org/2000/svg">
<path d="M73.9638 16.6184C73.2163 16.245 72.8946 16.9566 72.4576 17.3178C72.308 17.4343 72.1813 17.5857 72.0552 17.7254C70.9626 18.9147 69.686 19.6959 68.0184 19.6026C65.5806 19.4629 63.4986 20.2439 61.6587 22.1442C61.2677 19.8009 59.9683 18.4012 57.9903 17.504C56.9553 17.0377 55.9089 16.571 55.1842 15.5567C54.6782 14.8341 54.5402 14.0295 54.2872 13.2366C54.1263 12.7589 53.9649 12.269 53.4244 12.1871C52.838 12.0938 52.6076 12.595 52.378 13.0152C51.4579 14.7292 51.1014 16.6178 51.1362 18.5297C51.2169 22.8323 52.9992 26.2596 56.5415 28.6968C56.9439 28.9767 57.0472 29.2564 56.9211 29.6644C56.6796 30.5041 56.392 31.32 56.1391 32.1597C55.978 32.6961 55.7361 32.8126 55.1728 32.5795C53.2294 31.752 51.55 30.5273 50.0664 29.0469C47.5477 26.5633 45.2708 23.8234 42.4301 21.6779C41.7727 21.1824 41.0975 20.7118 40.406 20.2672C37.5079 17.3991 40.7856 15.0436 41.5445 14.7641C42.338 14.4724 41.8207 13.4699 39.2557 13.4815C36.6911 13.4931 34.3449 14.3674 31.3551 15.5335C30.9179 15.7087 30.4581 15.8368 29.9864 15.9413C27.2723 15.4166 24.4548 15.3001 21.5105 15.638C15.9671 16.2673 11.5398 18.9376 8.28528 23.4964C4.37533 28.9773 3.45501 35.2029 4.58215 41.6973C5.76664 48.541 9.19364 54.2077 14.4609 58.6384C19.9236 63.2316 26.2145 65.4822 33.3904 65.0507C37.7489 64.7944 42.6024 64.2 48.0765 59.4775C49.4566 60.1769 50.9054 60.457 53.3092 60.6668C55.1608 60.842 56.9434 60.5735 58.3235 60.2824C60.4856 59.8161 60.3362 57.7755 59.5539 57.4027C53.2176 54.3949 54.6086 55.619 53.3437 54.6279C56.1458 51.2494 60.185 47.7559 62.4366 38.2925C62.9765 36.0233 63.3146 33.4879 63.3146 31.1111C63.3146 30.6351 63.4179 30.4002 63.9932 30.3417C65.5801 30.1549 67.121 29.7124 68.5357 28.9192C72.6413 26.6339 74.2975 22.8797 74.6885 18.3793C74.7459 17.6915 74.6771 16.9796 73.9638 16.6184ZM38.1865 57.122C32.045 52.2023 29.0666 50.5812 27.8362 50.6513C26.6862 50.7214 26.8931 52.0622 27.146 52.9365C27.4104 53.7995 27.7558 54.3939 28.2386 55.1517C28.5721 55.6532 28.8023 56.3991 27.9053 56.9592C25.9273 58.2064 22.4886 56.5394 22.3273 56.4575C18.3253 54.0557 14.9786 50.8845 12.6208 46.5475C10.344 42.373 9.0212 37.8964 8.80299 33.1159C8.74544 31.9619 9.07912 31.5532 10.2059 31.3438C11.6893 31.0637 13.2189 31.0053 14.7025 31.2267C20.97 32.1597 26.306 35.0162 30.7798 39.5398C33.333 42.1162 35.265 45.1947 37.255 48.2025C39.371 51.3971 41.6481 54.4404 44.5461 56.9354C45.5698 57.8098 46.386 58.4745 47.1683 58.9644C44.8105 59.2323 40.8772 59.2908 38.1865 57.122ZM41.1569 37.6019C41.2542 37.1999 41.6092 36.9054 42.0391 36.9054C42.1451 36.9056 42.2502 36.9253 42.3494 36.9634C42.4761 37.0103 42.591 37.0803 42.6831 37.1849C42.8439 37.3484 42.9361 37.5815 42.9361 37.8262C42.9361 38.3393 42.5336 38.7472 42.0277 38.7472C41.8141 38.7492 41.607 38.6726 41.4444 38.5315C41.2818 38.3904 41.1746 38.1942 41.1425 37.9791C41.1226 37.8536 41.1275 37.7254 41.1569 37.6019ZM49.9767 42.7266C49.4898 42.9163 49.0052 43.0652 48.5368 43.0846C47.6626 43.131 46.7083 42.7697 46.191 42.3266C45.3861 41.6388 44.8111 41.2544 44.5695 40.0529C44.466 39.5398 44.5233 38.7471 44.6155 38.2925C44.8225 37.313 44.5923 36.6833 43.9141 36.1121C43.3622 35.6458 42.6603 35.5177 41.89 35.5177C41.6025 35.5177 41.3381 35.3895 41.1425 35.2846C40.8204 35.1216 40.556 34.7134 40.809 34.2119C40.8897 34.0489 41.2807 33.6523 41.3728 33.5826C42.4191 32.9761 43.6269 33.1744 44.7421 33.629C45.7772 34.0605 46.5594 34.8532 47.6864 35.9724C48.8363 37.3246 49.0433 37.698 49.6991 38.7123C50.2168 39.505 50.6881 40.3214 51.0102 41.2538C51.1741 41.7415 51.0235 42.1564 50.5729 42.449C50.3896 42.568 50.1788 42.6478 49.9767 42.7266Z" fill="#4D6BFE"/>
</svg>
