<svg width="96" height="97" viewBox="0 0 96 97" fill="none" xmlns="http://www.w3.org/2000/svg">
<path fill-rule="evenodd" clip-rule="evenodd" d="M48.0001 0.140625C74.5098 0.140625 96 21.6309 96 48.1405C96 74.6499 74.5098 96.1406 48.0001 96.1406C21.4907 96.1406 0 74.6499 0 48.1405C0 21.6309 21.4907 0.140625 48.0001 0.140625Z" fill="#101217"/>
<mask id="mask0_14731_9689" style="mask-type:luminance" maskUnits="userSpaceOnUse" x="35" y="35" width="22" height="22">
<path fill-rule="evenodd" clip-rule="evenodd" d="M56.6924 46.2075C56.6924 52.076 51.9349 56.834 46.0659 56.834C40.1971 56.834 35.4395 52.076 35.4395 46.2075C35.4395 40.3387 40.1971 35.5811 46.0659 35.5811C51.9349 35.5811 56.6924 40.3387 56.6924 46.2075Z" fill="white"/>
</mask>
<g mask="url(#mask0_14731_9689)">
<rect x="35.4204" y="34.1582" width="22.5413" height="24.1514" fill="url(#paint0_linear_14731_9689)"/>
</g>
<path d="M26.7435 76.1543C23.0157 76.1543 19.981 73.1209 19.981 69.3921C19.981 65.6633 23.0157 62.6295 26.7435 62.6295C30.4715 62.6295 33.5056 65.6633 33.5056 69.3921C33.5056 73.1209 30.4715 76.1543 26.7435 76.1543Z" fill="#30C5D2"/>
<path d="M69.2511 33.6465C65.5227 33.6465 62.4885 30.6132 62.4885 26.8844C62.4885 23.1551 65.5227 20.1219 69.2511 20.1219C72.9791 20.1219 76.0131 23.1551 76.0131 26.8844C76.0131 30.6132 72.9791 33.6465 69.2511 33.6465Z" fill="#30C5D2"/>
<path d="M56.6923 74.2227C53.4966 74.2227 50.896 71.623 50.896 68.4263C50.896 65.2298 53.4966 62.63 56.6923 62.63C59.8882 62.63 62.4887 65.2298 62.4887 68.4263C62.4887 71.623 59.8882 74.2227 56.6923 74.2227Z" fill="#30C5D2"/>
<path d="M23.8453 27.8516C21.7139 27.8516 19.981 26.1191 19.981 23.9877C19.981 21.8567 21.7139 20.1233 23.8453 20.1233C25.9763 20.1233 27.7097 21.8567 27.7097 23.9877C27.7097 26.1191 25.9763 27.8516 23.8453 27.8516Z" fill="#30C5D2"/>
<path d="M71.183 55.8672C69.0517 55.8672 67.3186 54.1338 67.3186 52.0028C67.3186 49.8718 69.0517 48.1384 71.183 48.1384C73.3139 48.1384 75.0474 49.8718 75.0474 52.0028C75.0474 54.1338 73.3139 55.8672 71.183 55.8672Z" fill="#30C5D2"/>
<path d="M58.6247 48.1391C58.6247 54.0081 53.867 58.7656 47.9983 58.7656C42.1296 58.7656 37.3716 54.0081 37.3716 48.1391C37.3716 42.2707 42.1296 37.5127 47.9983 37.5127C53.867 37.5127 58.6247 42.2707 58.6247 48.1391Z" stroke="#E9EBF1" stroke-width="1.39112" stroke-linecap="round" stroke-linejoin="round"/>
<path d="M24.813 78.0859C21.0858 78.0859 18.051 75.0523 18.051 71.3234C18.051 67.5945 21.0858 64.5609 24.813 64.5609C28.5417 64.5609 31.5759 67.5945 31.5759 71.3234C31.5759 75.0523 28.5417 78.0859 24.813 78.0859Z" stroke="#E9EBF1" stroke-width="1.39112" stroke-linecap="round" stroke-linejoin="round"/>
<path d="M71.1854 31.7168C67.4573 31.7168 64.4226 28.6832 64.4226 24.9542C64.4226 21.225 67.4573 18.1917 71.1854 18.1917C74.9132 18.1917 77.948 21.225 77.948 24.9542C77.948 28.6832 74.9132 31.7168 71.1854 31.7168Z" stroke="#E9EBF1" stroke-width="1.39112" stroke-linecap="round" stroke-linejoin="round"/>
<path d="M57.6585 76.1543C54.4627 76.1543 51.8621 73.5544 51.8621 70.3581C51.8621 67.161 54.4627 64.5614 57.6585 64.5614C60.8542 64.5614 63.4543 67.161 63.4543 70.3581C63.4543 73.5544 60.8542 76.1543 57.6585 76.1543Z" stroke="#E9EBF1" stroke-width="1.39112" stroke-linecap="round" stroke-linejoin="round"/>
<path d="M21.9155 25.9199C19.7839 25.9199 18.051 24.187 18.051 22.056C18.051 19.9244 19.7839 18.1916 21.9155 18.1916C24.0463 18.1916 25.7795 19.9244 25.7795 22.056C25.7795 24.187 24.0463 25.9199 21.9155 25.9199Z" stroke="#E9EBF1" stroke-width="1.39112" stroke-linecap="round" stroke-linejoin="round"/>
<path d="M74.0812 56.834C71.9502 56.834 70.2168 55.1012 70.2168 52.9701C70.2168 50.8387 71.9502 49.1056 74.0812 49.1056C76.2122 49.1056 77.9457 50.8387 77.9457 52.9701C77.9457 55.1012 76.2122 56.834 74.0812 56.834Z" stroke="#E9EBF1" stroke-width="1.39112" stroke-linecap="round" stroke-linejoin="round"/>
<path d="M40.4817 40.623L24.6482 24.7892" stroke="#E9EBF1" stroke-width="1.39112" stroke-linecap="round" stroke-linejoin="round"/>
<path d="M66.3994 29.7354L55.5122 40.623" stroke="#E9EBF1" stroke-width="1.39112" stroke-linecap="round" stroke-linejoin="round"/>
<path d="M70.2858 52.2656L58.4512 50.0727" stroke="#E9EBF1" stroke-width="1.39112" stroke-linecap="round" stroke-linejoin="round"/>
<path d="M55.3499 65.0449L52.239 57.8862" stroke="#E9EBF1" stroke-width="1.39112" stroke-linecap="round" stroke-linejoin="round"/>
<path d="M40.4819 55.6555L29.5945 66.543" stroke="#E9EBF1" stroke-width="1.39112" stroke-linecap="round" stroke-linejoin="round"/>
<path d="M52.8284 48.1393C52.8284 47.6076 52.3943 47.1735 51.8622 47.1735C51.3301 47.1735 50.896 47.6076 50.896 48.1393C50.896 48.6715 51.3301 49.1055 51.8622 49.1055C52.3943 49.1055 52.8284 48.6715 52.8284 48.1393Z" fill="#E9EBF1"/>
<path d="M52.8284 44.276C52.8284 43.7438 52.3943 43.3098 51.8622 43.3098C51.3301 43.3098 50.896 43.7438 50.896 44.276C50.896 44.8083 51.3301 45.2422 51.8622 45.2422C52.3943 45.2422 52.8284 44.8083 52.8284 44.276Z" fill="#E9EBF1"/>
<path d="M52.8284 52.0025C52.8284 51.4707 52.3943 51.0366 51.8622 51.0366C51.3301 51.0366 50.896 51.4707 50.896 52.0025C50.896 52.5347 51.3301 52.9688 51.8622 52.9688C52.3943 52.9688 52.8284 52.5347 52.8284 52.0025Z" fill="#E9EBF1"/>
<path d="M48.9644 48.1393C48.9644 47.6076 48.5305 47.1735 47.9982 47.1735C47.4661 47.1735 47.032 47.6076 47.032 48.1393C47.032 48.6715 47.4661 49.1055 47.9982 49.1055C48.5305 49.1055 48.9644 48.6715 48.9644 48.1393Z" fill="#E9EBF1"/>
<path d="M48.9644 44.276C48.9644 43.7438 48.5305 43.3098 47.9982 43.3098C47.4661 43.3098 47.032 43.7438 47.032 44.276C47.032 44.8083 47.4661 45.2422 47.9982 45.2422C48.5305 45.2422 48.9644 44.8083 48.9644 44.276Z" fill="#E9EBF1"/>
<path d="M48.9644 52.0025C48.9644 51.4707 48.5305 51.0366 47.9982 51.0366C47.4661 51.0366 47.032 51.4707 47.032 52.0025C47.032 52.5347 47.4661 52.9688 47.9982 52.9688C48.5305 52.9688 48.9644 52.5347 48.9644 52.0025Z" fill="#E9EBF1"/>
<path d="M45.0997 48.1393C45.0997 47.6076 44.6661 47.1735 44.1339 47.1735C43.6018 47.1735 43.1677 47.6076 43.1677 48.1393C43.1677 48.6715 43.6018 49.1055 44.1339 49.1055C44.6661 49.1055 45.0997 48.6715 45.0997 48.1393Z" fill="#E9EBF1"/>
<path d="M45.0997 44.276C45.0997 43.7438 44.6661 43.3098 44.1339 43.3098C43.6018 43.3098 43.1677 43.7438 43.1677 44.276C43.1677 44.8083 43.6018 45.2422 44.1339 45.2422C44.6661 45.2422 45.0997 44.8083 45.0997 44.276Z" fill="#E9EBF1"/>
<path d="M45.0997 52.0025C45.0997 51.4707 44.6661 51.0366 44.1339 51.0366C43.6018 51.0366 43.1677 51.4707 43.1677 52.0025C43.1677 52.5347 43.6018 52.9688 44.1339 52.9688C44.6661 52.9688 45.0997 52.5347 45.0997 52.0025Z" fill="#E9EBF1"/>
<defs>
<linearGradient id="paint0_linear_14731_9689" x1="35.4204" y1="46.2339" x2="57.9617" y2="46.2339" gradientUnits="userSpaceOnUse">
<stop stop-color="#30C5D2"/>
<stop offset="1" stop-color="#471069"/>
</linearGradient>
</defs>
</svg>
