<svg width="58" height="59" viewBox="0 0 58 59" fill="none" xmlns="http://www.w3.org/2000/svg">
<g clip-path="url(#clip0_14498_27106)">
<path d="M14.7849 15.0391C21.0079 8.82592 30.1736 7.25956 37.8289 10.4072C39.5223 11.0358 40.9986 11.9301 42.1501 12.7617L35.7576 15.7109C29.8058 13.2161 22.9875 14.9133 18.8259 19.0713C13.2861 24.6019 12.0976 34.1294 18.3533 40.4307L18.6511 40.7334L0.645264 56.8047C1.78723 55.2334 3.20498 53.7489 4.61792 52.2646C8.60522 48.0774 12.5637 43.9294 10.1492 38.0645C6.9167 30.217 8.79908 21.0201 14.7849 15.0391ZM56.9333 3.05762C51.0057 11.2143 48.1118 15.2033 50.4343 25.1826L50.4197 25.1689C52.0213 31.9621 50.3089 39.4949 44.7781 45.0215C37.805 51.9937 26.6461 53.5454 17.4568 47.2695L23.864 44.3057C29.7288 46.607 36.1452 45.5969 40.7566 40.9893C45.3682 36.3814 46.4034 29.6704 44.0857 24.0859C43.6452 23.027 42.3245 22.7607 41.4001 23.4424L22.5427 37.3535L49.5535 10.2422V10.2666L57.3542 2.47266C57.214 2.67081 57.0735 2.86429 56.9333 3.05762Z" fill="#E9EBF1"/>
</g>
<defs>
<clipPath id="clip0_14498_27106">
<rect width="57.375" height="57.375" fill="white" transform="translate(0.312012 0.951172)"/>
</clipPath>
</defs>
</svg>
