<svg width="72" height="73" viewBox="0 0 72 73" fill="none" xmlns="http://www.w3.org/2000/svg">
<path fill-rule="evenodd" clip-rule="evenodd" d="M35.7739 0.500145C55.5313 0.500145 71.5483 16.5168 71.5483 36.2744C71.5483 56.0322 55.5313 72.0488 35.7739 72.0488C16.0163 72.0488 -0.000488281 56.0322 -0.000488281 36.2744C-0.000488281 16.5168 16.0163 0.500145 35.7739 0.500145Z" fill="#101217"/>
<path fill-rule="evenodd" clip-rule="evenodd" d="M20.4131 39.5132C20.4131 40.3088 19.7688 40.9531 18.9731 40.9531C18.1775 40.9531 17.5332 40.3088 17.5332 39.5132C17.5332 38.7175 18.1775 38.0732 18.9731 38.0732C19.7688 38.0732 20.4131 38.7175 20.4131 39.5132Z" fill="url(#paint0_linear_18337_6350)"/>
<rect x="22.7993" y="19.6992" width="24" height="8.4" fill="url(#paint1_linear_18337_6350)"/>
<path d="M47.7739 28.7109V20.4311L42.0139 14.6709H23.2939V28.7109" stroke="#E9EBF1" stroke-width="1.0368" stroke-linecap="round" stroke-linejoin="round"/>
<path d="M42.0137 14.6714V20.4316H47.7737" stroke="#E9EBF1" stroke-width="1.0368" stroke-linecap="round" stroke-linejoin="round"/>
<path d="M55.6931 48.5117H15.3734C14.5776 48.5117 13.9331 47.8674 13.9331 47.0718V30.1516C13.9331 29.3562 14.5776 28.7117 15.3734 28.7117H55.6931C56.4891 28.7117 57.1334 29.3562 57.1334 30.1516V47.0718C57.1334 47.8674 56.4891 48.5117 55.6931 48.5117Z" stroke="#E9EBF1" stroke-width="1.0368" stroke-linecap="round" stroke-linejoin="round"/>
<path d="M13.9331 44.1914H57.1334" stroke="#E9EBF1" stroke-width="1.0368" stroke-linecap="round" stroke-linejoin="round"/>
<path d="M52.093 28.7112L51.3734 33.0312H19.693L18.9731 28.7112" stroke="#E9EBF1" stroke-width="1.0368" stroke-linecap="round" stroke-linejoin="round"/>
<path d="M21.1339 38.7925C21.1339 39.5879 20.4898 40.2324 19.6938 40.2324C18.8985 40.2324 18.2539 39.5879 18.2539 38.7925C18.2539 37.9965 18.8985 37.3524 19.6938 37.3524C20.4898 37.3524 21.1339 37.9965 21.1339 38.7925Z" stroke="#E9EBF1" stroke-width="1.0368" stroke-linecap="round" stroke-linejoin="round"/>
<path d="M24.0137 48.5111V55.7109" stroke="#E9EBF1" stroke-width="1.0368" stroke-linecap="round" stroke-linejoin="round"/>
<path d="M47.0537 48.5111V55.7109" stroke="#E9EBF1" stroke-width="1.0368" stroke-linecap="round" stroke-linejoin="round"/>
<path d="M38.4136 48.5111V55.7109" stroke="#E9EBF1" stroke-width="1.0368" stroke-linecap="round" stroke-linejoin="round"/>
<path d="M35.5332 48.5111V54.2715" stroke="#E9EBF1" stroke-width="1.0368" stroke-linecap="round" stroke-linejoin="round"/>
<path d="M32.6538 48.5111V54.2715" stroke="#E9EBF1" stroke-width="1.0368" stroke-linecap="round" stroke-linejoin="round"/>
<path d="M29.7734 48.5111V55.7109" stroke="#E9EBF1" stroke-width="1.0368" stroke-linecap="round" stroke-linejoin="round"/>
<path d="M26.894 48.5111V54.2715" stroke="#E9EBF1" stroke-width="1.0368" stroke-linecap="round" stroke-linejoin="round"/>
<path d="M41.2939 48.5111V54.2715" stroke="#E9EBF1" stroke-width="1.0368" stroke-linecap="round" stroke-linejoin="round"/>
<path d="M44.1733 48.5111V54.2715" stroke="#E9EBF1" stroke-width="1.0368" stroke-linecap="round" stroke-linejoin="round"/>
<path d="M25.4536 22.3789H28.3338V18.0588H25.4536V22.3789Z" stroke="#E9EBF1" stroke-width="1.0368" stroke-linecap="round" stroke-linejoin="round"/>
<path d="M30.4941 18.0588H31.9341V22.3789" stroke="#E9EBF1" stroke-width="1.0368" stroke-linecap="round" stroke-linejoin="round"/>
<path d="M34.0942 22.3789H36.9742V18.0588H34.0942V22.3789Z" stroke="#E9EBF1" stroke-width="1.0368" stroke-linecap="round" stroke-linejoin="round"/>
<path d="M39.1333 18.0588H40.5736V22.3789" stroke="#E9EBF1" stroke-width="1.0368" stroke-linecap="round" stroke-linejoin="round"/>
<path d="M42.7344 22.3848H45.6142V20.2247H42.7344V22.3848Z" stroke="#E9EBF1" stroke-width="0.733141" stroke-linecap="round" stroke-linejoin="round"/>
<path d="M29.7734 28.7109H32.6536V24.3909H29.7734V28.7109Z" stroke="#E9EBF1" stroke-width="1.0368" stroke-linecap="round" stroke-linejoin="round"/>
<path d="M26.1733 24.3909H27.6132V28.7109" stroke="#E9EBF1" stroke-width="1.0368" stroke-linecap="round" stroke-linejoin="round"/>
<path d="M34.8135 24.3909H36.2534V28.7109" stroke="#E9EBF1" stroke-width="1.0368" stroke-linecap="round" stroke-linejoin="round"/>
<path d="M38.4136 28.7109H41.2937V24.3909H38.4136V28.7109Z" stroke="#E9EBF1" stroke-width="1.0368" stroke-linecap="round" stroke-linejoin="round"/>
<path d="M43.4536 24.3909H44.8931V28.7109" stroke="#E9EBF1" stroke-width="1.0368" stroke-linecap="round" stroke-linejoin="round"/>
<path d="M24.7332 57.8738C24.7332 57.477 24.4098 57.1536 24.0131 57.1536C23.6165 57.1536 23.293 57.477 23.293 57.8738C23.293 58.2704 23.6165 58.5938 24.0131 58.5938C24.4098 58.5938 24.7332 58.2704 24.7332 57.8738Z" fill="#E9EBF1"/>
<path d="M27.6122 56.4342C27.6122 56.0374 27.2888 55.714 26.8925 55.714C26.4959 55.714 26.1724 56.0374 26.1724 56.4342C26.1724 56.8308 26.4959 57.1543 26.8925 57.1543C27.2888 57.1543 27.6122 56.8308 27.6122 56.4342Z" fill="#E9EBF1"/>
<path d="M30.4928 57.8738C30.4928 57.477 30.1694 57.1536 29.7727 57.1536C29.3761 57.1536 29.0527 57.477 29.0527 57.8738C29.0527 58.2704 29.3761 58.5938 29.7727 58.5938C30.1694 58.5938 30.4928 58.2704 30.4928 57.8738Z" fill="#E9EBF1"/>
<path d="M33.3733 56.4342C33.3733 56.0374 33.0499 55.714 32.6532 55.714C32.2566 55.714 31.9331 56.0374 31.9331 56.4342C31.9331 56.8308 32.2566 57.1543 32.6532 57.1543C33.0499 57.1543 33.3733 56.8308 33.3733 56.4342Z" fill="#E9EBF1"/>
<path d="M36.2527 56.4342C36.2527 56.0374 35.9293 55.714 35.5326 55.714C35.136 55.714 34.8125 56.0374 34.8125 56.4342C34.8125 56.8308 35.136 57.1543 35.5326 57.1543C35.9293 57.1543 36.2527 56.8308 36.2527 56.4342Z" fill="#E9EBF1"/>
<path d="M39.1327 57.8738C39.1327 57.477 38.8093 57.1536 38.4126 57.1536C38.0164 57.1536 37.6929 57.477 37.6929 57.8738C37.6929 58.2704 38.0164 58.5938 38.4126 58.5938C38.8093 58.5938 39.1327 58.2704 39.1327 57.8738Z" fill="#E9EBF1"/>
<path d="M42.0125 56.4342C42.0125 56.0374 41.6891 55.714 41.2924 55.714C40.8958 55.714 40.5723 56.0374 40.5723 56.4342C40.5723 56.8308 40.8958 57.1543 41.2924 57.1543C41.6891 57.1543 42.0125 56.8308 42.0125 56.4342Z" fill="#E9EBF1"/>
<path d="M44.8925 56.4342C44.8925 56.0374 44.5691 55.714 44.1728 55.714C43.7762 55.714 43.4526 56.0374 43.4526 56.4342C43.4526 56.8308 43.7762 57.1543 44.1728 57.1543C44.5691 57.1543 44.8925 56.8308 44.8925 56.4342Z" fill="#E9EBF1"/>
<path d="M47.7731 57.8738C47.7731 57.477 47.4497 57.1536 47.053 57.1536C46.6564 57.1536 46.333 57.477 46.333 57.8738C46.333 58.2704 46.6564 58.5938 47.053 58.5938C47.4497 58.5938 47.7731 58.2704 47.7731 57.8738Z" fill="#E9EBF1"/>
<path d="M30.4928 38.7938C30.4928 38.3972 30.1694 38.0737 29.7727 38.0737C29.3761 38.0737 29.0527 38.3972 29.0527 38.7938C29.0527 39.1902 29.3761 39.5137 29.7727 39.5137C30.1694 39.5137 30.4928 39.1902 30.4928 38.7938Z" fill="#E9EBF1"/>
<path d="M24.7332 38.7938C24.7332 38.3972 24.4098 38.0737 24.0131 38.0737C23.6165 38.0737 23.293 38.3972 23.293 38.7938C23.293 39.1902 23.6165 39.5137 24.0131 39.5137C24.4098 39.5137 24.7332 39.1902 24.7332 38.7938Z" fill="#E9EBF1"/>
<path d="M27.6122 38.7938C27.6122 38.3972 27.2888 38.0737 26.8925 38.0737C26.4959 38.0737 26.1724 38.3972 26.1724 38.7938C26.1724 39.1902 26.4959 39.5137 26.8925 39.5137C27.2888 39.5137 27.6122 39.1902 27.6122 38.7938Z" fill="#E9EBF1"/>
<defs>
<linearGradient id="paint0_linear_18337_6350" x1="17.5332" y1="39.5132" x2="20.4131" y2="39.5132" gradientUnits="userSpaceOnUse">
<stop stop-color="#30C5D2"/>
<stop offset="1" stop-color="#471069"/>
</linearGradient>
<linearGradient id="paint1_linear_18337_6350" x1="22.7993" y1="23.8992" x2="46.7993" y2="23.8992" gradientUnits="userSpaceOnUse">
<stop stop-color="#30C5D2"/>
<stop offset="1" stop-color="#471069"/>
</linearGradient>
</defs>
</svg>
