<svg width="72" height="73" viewBox="0 0 72 73" fill="none" xmlns="http://www.w3.org/2000/svg">
<path fill-rule="evenodd" clip-rule="evenodd" d="M35.7755 0.500656C55.5336 0.500656 71.5509 16.5177 71.5509 36.2757C71.5509 56.0338 55.5336 72.0508 35.7755 72.0508C16.0175 72.0508 0.000488281 56.0338 0.000488281 36.2757C0.000488281 16.5177 16.0175 0.500656 35.7755 0.500656Z" fill="#101217"/>
<path d="M15.6157 31.9551H19.9357V24.7553H15.6157V31.9551Z" fill="#30C5D2"/>
<path d="M15.6157 50.6758H19.9357V43.4757H15.6157V50.6758Z" fill="#30C5D2"/>
<rect x="25.6504" y="25.7012" width="24" height="24" rx="12" fill="url(#paint0_linear_18337_5992)"/>
<path d="M55.936 58.5957H17.0553C15.4648 58.5957 14.1753 57.3064 14.1753 55.7159V16.8352C14.1753 15.2447 15.4648 13.9552 17.0553 13.9552H55.936C57.5266 13.9552 58.8163 15.2447 58.8163 16.8352V55.7159C58.8163 57.3064 57.5266 58.5957 55.936 58.5957Z" stroke="#E9EBF1" stroke-width="1.03682" stroke-linecap="round" stroke-linejoin="round"/>
<path d="M19.2158 23.3159V18.9959H53.7763V53.5566H19.2158V49.2363" stroke="#E9EBF1" stroke-width="1.03682" stroke-linecap="round" stroke-linejoin="round"/>
<path d="M17.0557 30.5156H21.3758V23.3155H17.0557V30.5156Z" stroke="#E9EBF1" stroke-width="1.03682" stroke-linecap="round" stroke-linejoin="round"/>
<path d="M17.0557 49.2344H21.3758V42.0342H17.0557V49.2344Z" stroke="#E9EBF1" stroke-width="1.03682" stroke-linecap="round" stroke-linejoin="round"/>
<path d="M48.7363 36.2755C48.7363 43.0354 43.2563 48.5156 36.496 48.5156C29.7359 48.5156 24.2559 43.0354 24.2559 36.2755C24.2559 29.5151 29.7359 24.0353 36.496 24.0353C43.2563 24.0353 48.7363 29.5151 48.7363 36.2755Z" stroke="#E9EBF1" stroke-width="1.03682" stroke-linecap="round" stroke-linejoin="round"/>
<path d="M36.4954 44.1953C32.129 44.1953 28.5752 40.642 28.5752 36.2751C28.5752 31.9082 32.129 28.3548 36.4954 28.3548C40.8625 28.3548 44.4156 31.9082 44.4156 36.2751C44.4156 40.642 40.8625 44.1953 36.4954 44.1953Z" stroke="#E9EBF1" stroke-width="1.03682" stroke-linecap="round" stroke-linejoin="round"/>
<path d="M36.4961 24.0356V28.3555" stroke="#E9EBF1" stroke-width="1.03682" stroke-linecap="round" stroke-linejoin="round"/>
<path d="M36.4961 44.1957V48.5156" stroke="#E9EBF1" stroke-width="1.03682" stroke-linecap="round" stroke-linejoin="round"/>
<path d="M48.7357 36.2754H44.4155" stroke="#E9EBF1" stroke-width="1.03682" stroke-linecap="round" stroke-linejoin="round"/>
<path d="M45.1516 27.6208L42.0967 30.6758" stroke="#E9EBF1" stroke-width="1.03682" stroke-linecap="round" stroke-linejoin="round"/>
<path d="M30.8962 41.8764L27.8408 44.9316" stroke="#E9EBF1" stroke-width="1.03682" stroke-linecap="round" stroke-linejoin="round"/>
<path d="M45.1516 44.9316L42.0967 41.8764" stroke="#E9EBF1" stroke-width="1.03682" stroke-linecap="round" stroke-linejoin="round"/>
<path d="M30.8962 30.6758L27.8408 27.6208" stroke="#E9EBF1" stroke-width="1.03682" stroke-linecap="round" stroke-linejoin="round"/>
<path d="M32.8959 36.276C32.8959 35.8794 32.5724 35.5559 32.1762 35.5559C31.7795 35.5559 31.4561 35.8794 31.4561 36.276C31.4561 36.6726 31.7795 36.9961 32.1762 36.9961C32.5724 36.9961 32.8959 36.6726 32.8959 36.276Z" fill="#E9EBF1"/>
<path d="M32.8959 39.1549C32.8959 38.7586 32.5724 38.4351 32.1762 38.4351C31.7795 38.4351 31.4561 38.7586 31.4561 39.1549C31.4561 39.5516 31.7795 39.875 32.1762 39.875C32.5724 39.875 32.8959 39.5516 32.8959 39.1549Z" fill="#E9EBF1"/>
<path d="M32.8959 33.3951C32.8959 32.9985 32.5724 32.675 32.1762 32.675C31.7795 32.675 31.4561 32.9985 31.4561 33.3951C31.4561 33.7917 31.7795 34.1152 32.1762 34.1152C32.5724 34.1152 32.8959 33.7917 32.8959 33.3951Z" fill="#E9EBF1"/>
<path d="M19.2002 42.0215V30.5014" stroke="#E9EBF1" stroke-width="1.03682" stroke-linecap="round" stroke-linejoin="round"/>
<path d="M23.5201 36.5H19.2002" stroke="#E9EBF1" stroke-width="1.03682" stroke-linecap="round" stroke-linejoin="round"/>
<defs>
<linearGradient id="paint0_linear_18337_5992" x1="25.6504" y1="37.7012" x2="49.6504" y2="37.7012" gradientUnits="userSpaceOnUse">
<stop stop-color="#30C5D2"/>
<stop offset="1" stop-color="#471069"/>
</linearGradient>
</defs>
</svg>
