<svg width="72" height="73" viewBox="0 0 72 73" fill="none" xmlns="http://www.w3.org/2000/svg">
<path fill-rule="evenodd" clip-rule="evenodd" d="M35.7748 0.499069C55.5328 0.499069 71.5498 16.5161 71.5498 36.2737C71.5498 56.0318 55.5328 72.0488 35.7748 72.0488C16.017 72.0488 0 56.0318 0 36.2737C0 16.5161 16.017 0.499069 35.7748 0.499069Z" fill="#101217"/>
<rect x="20.4004" y="20.9004" width="19.2" height="19.2" rx="9.6" fill="url(#paint0_linear_18337_4589)"/>
<path d="M29.2938 39.5176C23.7352 39.5176 19.2134 34.9959 19.2134 29.4376C19.2134 23.8795 23.7352 19.3577 29.2938 19.3577C34.8524 19.3577 39.3741 23.8795 39.3741 29.4376C39.3741 34.9959 34.8524 39.5176 29.2938 39.5176Z" stroke="#E9EBF1" stroke-width="1.03681" stroke-linecap="round" stroke-linejoin="round"/>
<path d="M29.5201 34.3398C27.1377 34.3398 25.2002 32.4023 25.2002 30.0196C25.2002 27.6374 27.1377 25.6995 29.5201 25.6995C31.9026 25.6995 33.8401 27.6374 33.8401 30.0196C33.8401 32.4023 31.9026 34.3398 29.5201 34.3398Z" stroke="#E9EBF1" stroke-width="1.03681" stroke-linecap="round" stroke-linejoin="round"/>
<path d="M29 13.5L29 20.5" stroke="#E9EBF1" stroke-width="1.03681" stroke-linecap="round" stroke-linejoin="round"/>
<path d="M29 38.5L29 45.5" stroke="#E9EBF1" stroke-width="1.03681" stroke-linecap="round" stroke-linejoin="round"/>
<path d="M45 29.5H38" stroke="#E9EBF1" stroke-width="1.03681" stroke-linecap="round" stroke-linejoin="round"/>
<path d="M21 29.5L13 29.5" stroke="#E9EBF1" stroke-width="1.03681" stroke-linecap="round" stroke-linejoin="round"/>
<path d="M37.3407 41.3778C37.6295 41.1829 38.0132 41.2101 38.2596 41.4564L54.408 57.6046C54.8255 58.0223 55.3796 58.2383 55.9346 58.2383C56.4543 58.2383 56.9741 58.0481 57.3808 57.6801C58.3069 56.8437 58.2431 55.3344 57.3615 54.4524L56.0642 53.1549L57.6266 51.5856C57.936 51.276 58.0942 50.8725 58.0942 50.4621C58.0942 50.059 57.936 49.6559 57.6266 49.3463C57.0072 48.7197 56.0063 48.7197 55.3872 49.3463L53.8175 50.9087L51.7439 48.8351L54.7463 45.8257C55.056 45.5159 55.2143 45.1124 55.2143 44.7021C55.2143 44.2991 55.056 43.8959 54.7463 43.5861C54.1269 42.9598 53.1262 42.9598 52.5072 43.5861L49.4974 46.5884L41.3124 38.4036C41.0661 38.1573 41.0385 37.7736 41.2339 37.4848C43.1191 34.6948 44.0528 31.2127 43.5667 27.4984C42.7099 20.9503 37.3227 15.7539 30.7498 15.1095C21.6488 14.2182 14.0735 21.7932 14.965 30.8939C15.6093 37.4668 20.8055 42.8547 27.3544 43.7106C31.0689 44.197 34.5506 43.2626 37.3407 41.3778Z" stroke="#E9EBF1" stroke-width="1.03681" stroke-linecap="round" stroke-linejoin="round"/>
<defs>
<linearGradient id="paint0_linear_18337_4589" x1="20.4004" y1="30.5004" x2="39.6004" y2="30.5004" gradientUnits="userSpaceOnUse">
<stop stop-color="#30C5D2"/>
<stop offset="1" stop-color="#471069"/>
</linearGradient>
</defs>
</svg>
