<svg width="61" height="42" viewBox="0 0 61 42" fill="none" xmlns="http://www.w3.org/2000/svg">
<g clip-path="url(#clip0_14498_27076)">
<path d="M17.5298 0.638672C17.5092 0.638672 17.4913 0.638672 17.4707 0.638672L17.3911 7.33997C17.4091 7.33997 17.4271 7.33997 17.445 7.33997C21.8057 7.33997 25.1879 10.8179 32.5429 23.3452L32.9923 24.1088L33.0206 24.1582L37.1372 17.9114L37.109 17.862C36.1408 16.2698 35.2086 14.8023 34.3174 13.4646C33.2825 11.914 32.2938 10.527 31.3333 9.29062C26.4668 3.02568 22.3963 0.638672 17.5298 0.638672Z" fill="url(#paint0_linear_14498_27076)"/>
<path d="M17.471 0.638672C12.5788 0.664646 8.25408 3.86205 5.13128 8.75815C5.121 8.77374 5.1133 8.78672 5.10303 8.80231L10.835 11.9582C10.8453 11.9452 10.853 11.9296 10.8633 11.9166C12.6866 9.13997 14.9568 7.36854 17.3888 7.34257C17.4068 7.34257 17.4248 7.34257 17.4427 7.34257L17.5275 0.641269C17.5069 0.641269 17.489 0.641269 17.4684 0.641269L17.471 0.638672Z" fill="url(#paint1_linear_14498_27076)"/>
<path d="M5.13105 8.76367C5.12078 8.77926 5.11307 8.79224 5.1028 8.80783C3.05089 12.039 1.52031 16.0026 0.693378 20.2806C0.69081 20.2987 0.685674 20.3169 0.683105 20.3351L7.12389 21.8728C7.12646 21.8546 7.1316 21.8364 7.13416 21.8182C7.82241 18.0598 9.13214 14.5741 10.8348 11.9663C10.8451 11.9533 10.8528 11.9377 10.863 11.9247L5.13105 8.76887V8.76367Z" fill="url(#paint2_linear_14498_27076)"/>
<path d="M7.13417 21.815L0.695954 20.2773C0.693386 20.2955 0.68825 20.3137 0.685682 20.3319C0.233697 22.6877 0.00513619 25.0773 0 27.4721C0 27.4903 0 27.5111 0 27.5293L6.60514 28.1267C6.60514 28.1085 6.60514 28.0877 6.60514 28.0696C6.60258 27.9293 6.60001 27.789 6.60001 27.6462C6.60258 25.7085 6.77977 23.776 7.12647 21.8696C7.12904 21.8514 7.13417 21.8332 7.13674 21.815H7.13417Z" fill="url(#paint3_linear_14498_27076)"/>
<path d="M6.80546 30.2025C6.68732 29.5142 6.62055 28.8181 6.60514 28.1194C6.60514 28.1012 6.60514 28.0804 6.60514 28.0622L0 27.4648C0 27.483 0 27.5038 0 27.522C0 29.0181 0.123269 30.4129 0.362102 31.7038C0.36467 31.722 0.369806 31.7402 0.372374 31.7583L6.81573 30.2596C6.81316 30.2415 6.80802 30.2233 6.80546 30.2051V30.2025Z" fill="url(#paint4_linear_14498_27076)"/>
<path d="M8.31056 33.67C7.5915 32.8778 7.08301 31.7324 6.81593 30.2674C6.81336 30.2493 6.80823 30.2311 6.80566 30.2129L0.362305 31.7116C0.364873 31.7298 0.370009 31.748 0.372577 31.7661C0.860515 34.3531 1.81585 36.5064 3.18207 38.1376C3.19492 38.1531 3.20519 38.1661 3.21803 38.1817L8.34652 33.7116C8.33368 33.6986 8.32084 33.683 8.30799 33.67H8.31056Z" fill="url(#paint5_linear_14498_27076)"/>
<path d="M27.3964 15.127C23.5134 21.1503 21.161 24.927 21.161 24.927C15.9889 33.127 14.1989 34.9659 11.3201 34.9659C10.1182 34.9659 9.11407 34.5321 8.34621 33.7062C8.33337 33.6932 8.32053 33.6776 8.30769 33.6646L3.1792 38.1347C3.19204 38.1503 3.20231 38.1633 3.21515 38.1789C5.1027 40.4049 7.76839 41.6412 11.0684 41.6412C16.0582 41.6412 19.6458 39.262 26.025 27.9841C26.025 27.9841 28.683 23.2334 30.514 19.9633C29.3815 18.114 28.3491 16.5114 27.3964 15.1296V15.127Z" fill="#0082FB"/>
<path d="M34.3174 5.625C34.3046 5.63799 34.2917 5.65357 34.2789 5.66656C33.2593 6.76526 32.2809 7.99123 31.3281 9.29513C32.2886 10.5315 33.2799 11.9211 34.3148 13.4718C35.5347 11.5679 36.6723 10.025 37.7895 8.84318C37.8023 8.83019 37.8151 8.81461 37.828 8.80162L34.3174 5.625Z" fill="url(#paint6_linear_14498_27076)"/>
<path d="M53.1675 5.02828C50.4607 2.26205 47.2326 0.638672 43.7811 0.638672C40.1421 0.638672 37.081 2.65685 34.3203 5.62049C34.3074 5.63348 34.2946 5.64906 34.2817 5.66205L37.7949 8.83607C37.8077 8.82309 37.8206 8.8075 37.8334 8.79451C39.6516 6.88023 41.4133 5.92439 43.3651 5.92439C45.4658 5.92439 47.433 6.92439 49.1356 8.67763C49.1484 8.69062 49.1613 8.7062 49.1767 8.71919L53.2137 5.06984C53.2009 5.05685 53.1855 5.04127 53.1727 5.02828H53.1675Z" fill="#0082FB"/>
<path d="M60.995 26.5832C60.8435 17.7001 57.7695 9.75721 53.2085 5.0689C53.1957 5.05592 53.1803 5.04033 53.1674 5.02734L49.1304 8.67669C49.1432 8.68968 49.1561 8.70527 49.1715 8.71825C52.6024 12.2845 54.9574 18.9157 55.1705 26.5806C55.1705 26.5988 55.1705 26.6195 55.1705 26.6377H60.995C60.995 26.6195 60.995 26.6014 60.995 26.5806V26.5832Z" fill="url(#paint7_linear_14498_27076)"/>
<path d="M60.995 26.647C60.995 26.6288 60.995 26.608 60.995 26.5898H55.1705C55.1705 26.608 55.1705 26.6262 55.1705 26.647C55.1808 27.008 55.1834 27.3691 55.1834 27.7327C55.1834 29.8236 54.8752 31.5119 54.246 32.7301C54.2358 32.7483 54.228 32.7665 54.2178 32.7846L58.5604 37.3535C58.5707 37.3379 58.581 37.3197 58.5938 37.3041C60.1706 34.8444 60.9976 31.4262 60.9976 27.2808C60.9976 27.0704 60.9975 26.86 60.9924 26.6496L60.995 26.647Z" fill="url(#paint8_linear_14498_27076)"/>
<path d="M54.2512 32.7194C54.2409 32.7376 54.2332 32.7558 54.2229 32.7739C53.6811 33.8025 52.9055 34.4882 51.8911 34.7869L53.8711 41.0986C54.1331 41.0077 54.3873 40.9064 54.6364 40.7947C54.7109 40.761 54.7854 40.7272 54.8573 40.6908C54.8984 40.67 54.942 40.6493 54.9831 40.6285C56.2928 39.9687 57.3997 38.9947 58.2934 37.7402C58.3473 37.6648 58.4012 37.5869 58.4552 37.509C58.4937 37.4545 58.5296 37.3973 58.5656 37.3402C58.5759 37.3246 58.5861 37.3064 58.599 37.2908L54.2512 32.7168V32.7194Z" fill="url(#paint9_linear_14498_27076)"/>
<path d="M50.6298 34.9581C49.9673 34.9581 49.3792 34.8593 48.8065 34.5996L46.7803 41.0593C47.9205 41.4542 49.1352 41.6308 50.4912 41.6308C51.7393 41.6308 52.8872 41.4412 53.9247 41.0775L51.9447 34.7684C51.5184 34.8983 51.0741 34.9606 50.6298 34.9581Z" fill="url(#paint10_linear_14498_27076)"/>
<path d="M46.5723 32.7551C46.5595 32.7395 46.5466 32.7265 46.5338 32.7109L41.8701 37.6174C41.883 37.6304 41.8958 37.646 41.9086 37.659C43.5291 39.407 45.0777 40.4902 46.8317 41.085L48.8579 34.6278C48.1183 34.3057 47.4018 33.7239 46.5723 32.7525V32.7551Z" fill="url(#paint11_linear_14498_27076)"/>
<path d="M46.5365 32.7087C45.1368 31.062 43.4059 28.3243 40.6838 23.8931L37.1347 17.9087L37.1064 17.8594L32.9897 24.1035L33.018 24.1529L35.5322 28.4308C37.9693 32.5555 39.9544 35.5399 41.8702 37.6152C41.8831 37.6282 41.8959 37.6438 41.9087 37.6568L46.5724 32.7529C46.5596 32.7373 46.5467 32.7243 46.5339 32.7087H46.5365Z" fill="url(#paint12_linear_14498_27076)"/>
</g>
<defs>
<linearGradient id="paint0_linear_14498_27076" x1="34.3996" y1="21.6153" x2="20.5382" y2="3.65792" gradientUnits="userSpaceOnUse">
<stop stop-color="#0867DF"/>
<stop offset="0.45" stop-color="#0668E1"/>
<stop offset="0.86" stop-color="#0064E0"/>
</linearGradient>
<linearGradient id="paint1_linear_14498_27076" x1="7.79696" y1="9.88543" x2="17.2429" y2="2.79387" gradientUnits="userSpaceOnUse">
<stop offset="0.13" stop-color="#0064DF"/>
<stop offset="1" stop-color="#0064E0"/>
</linearGradient>
<linearGradient id="paint2_linear_14498_27076" x1="3.82389" y1="20.4442" x2="7.65787" y2="10.9078" gradientUnits="userSpaceOnUse">
<stop offset="0.01" stop-color="#0072EC"/>
<stop offset="0.69" stop-color="#0064DF"/>
</linearGradient>
<linearGradient id="paint3_linear_14498_27076" x1="3.31541" y1="27.3579" x2="3.75933" y2="21.5171" gradientUnits="userSpaceOnUse">
<stop offset="0.07" stop-color="#007CF6"/>
<stop offset="0.99" stop-color="#0072EC"/>
</linearGradient>
<linearGradient id="paint4_linear_14498_27076" x1="3.55425" y1="30.5246" x2="3.2365" y2="28.1827" gradientUnits="userSpaceOnUse">
<stop offset="0.07" stop-color="#007FF9"/>
<stop offset="1" stop-color="#007CF6"/>
</linearGradient>
<linearGradient id="paint5_linear_14498_27076" x1="3.37211" y1="31.148" x2="5.34727" y2="35.2865" gradientUnits="userSpaceOnUse">
<stop offset="0.07" stop-color="#007FF9"/>
<stop offset="1" stop-color="#0082FB"/>
</linearGradient>
<linearGradient id="paint6_linear_14498_27076" x1="33.1643" y1="11.0276" x2="35.7656" y2="7.47121" gradientUnits="userSpaceOnUse">
<stop offset="0.28" stop-color="#007FF8"/>
<stop offset="0.91" stop-color="#0082FB"/>
</linearGradient>
<linearGradient id="paint7_linear_14498_27076" x1="52.6461" y1="6.3728" x2="58.1227" y2="26.2868" gradientUnits="userSpaceOnUse">
<stop stop-color="#0082FB"/>
<stop offset="1" stop-color="#0081FA"/>
</linearGradient>
<linearGradient id="paint8_linear_14498_27076" x1="59.3026" y1="27.0911" x2="55.8479" y2="33.9924" gradientUnits="userSpaceOnUse">
<stop offset="0.06" stop-color="#0081FA"/>
<stop offset="1" stop-color="#0080F9"/>
</linearGradient>
<linearGradient id="paint9_linear_14498_27076" x1="53.2137" y1="37.6908" x2="56.408" y2="35.5401" gradientUnits="userSpaceOnUse">
<stop stop-color="#027AF3"/>
<stop offset="1" stop-color="#0080F9"/>
</linearGradient>
<linearGradient id="paint10_linear_14498_27076" x1="48.239" y1="38.1165" x2="52.6458" y2="38.1165" gradientUnits="userSpaceOnUse">
<stop stop-color="#0377EF"/>
<stop offset="1" stop-color="#0279F1"/>
</linearGradient>
<linearGradient id="paint11_linear_14498_27076" x1="44.4074" y1="35.6668" x2="47.5948" y2="37.5209" gradientUnits="userSpaceOnUse">
<stop stop-color="#0471E9"/>
<stop offset="1" stop-color="#0377EF"/>
</linearGradient>
<linearGradient id="paint12_linear_14498_27076" x1="34.7438" y1="21.7633" x2="45.0343" y2="34.556" gradientUnits="userSpaceOnUse">
<stop offset="0.28" stop-color="#0867DF"/>
<stop offset="1" stop-color="#0471E9"/>
</linearGradient>
<clipPath id="clip0_14498_27076">
<rect width="61" height="41" fill="white" transform="translate(0 0.638672)"/>
</clipPath>
</defs>
</svg>
