<svg width="72" height="72" viewBox="0 0 72 72" fill="none" xmlns="http://www.w3.org/2000/svg">
<path fill-rule="evenodd" clip-rule="evenodd" d="M35.7739 0.137466C55.5313 0.137466 71.5479 16.1541 71.5479 35.9115C71.5479 55.6689 55.5313 71.6855 35.7739 71.6855C16.0163 71.6855 -0.000488281 55.6689 -0.000488281 35.9115C-0.000488281 16.1541 16.0163 0.137466 35.7739 0.137466Z" fill="#101217"/>
<mask id="mask0_14731_745" style="mask-type:luminance" maskUnits="userSpaceOnUse" x="30" y="13" width="17" height="45">
<path fill-rule="evenodd" clip-rule="evenodd" d="M34.6938 26.1291V40.5289L32.5338 44.8486V57.8086H44.0535V44.8486L41.8935 40.5289V26.1291H46.2135L38.2937 13.1691L30.3738 26.1291H34.6938Z" fill="white"/>
</mask>
<g mask="url(#mask0_14731_745)">
<rect x="29.2488" y="12.584" width="18" height="45.6" fill="url(#paint0_linear_14731_745)"/>
</g>
<path d="M31.8129 26.1331V40.5329L29.6528 44.8525V57.8125H41.173V44.8525L39.0131 40.5329V26.1331H43.3327L35.4131 13.1731L27.4929 26.1331H31.8129Z" stroke="#E9EBF1" stroke-width="1.03678" stroke-linecap="round" stroke-linejoin="round"/>
<path d="M43.3318 34.0528V40.5329L46.2119 44.8525V57.8125H57.7314V44.8525L50.5317 40.5329V34.0528H52.6918L46.932 25.413L41.1721 34.0528H43.3318Z" stroke="#E9EBF1" stroke-width="1.03678" stroke-linecap="round" stroke-linejoin="round"/>
<path d="M20.2927 34.0528V40.5329L13.093 44.8525V57.8125H24.6127V44.8525L27.4924 40.5329V34.0528H29.6523L23.8927 25.413L18.1328 34.0528H20.2927Z" stroke="#E9EBF1" stroke-width="1.03678" stroke-linecap="round" stroke-linejoin="round"/>
<path d="M16.6938 54.9303C16.6938 54.5337 16.3703 54.2102 15.974 54.2102C15.5774 54.2102 15.2539 54.5337 15.2539 54.9303C15.2539 55.3269 15.5774 55.6504 15.974 55.6504C16.3703 55.6504 16.6938 55.3269 16.6938 54.9303Z" fill="#E9EBF1"/>
<path d="M19.5733 54.9303C19.5733 54.5337 19.2498 54.2102 18.8532 54.2102C18.4566 54.2102 18.1331 54.5337 18.1331 54.9303C18.1331 55.3269 18.4566 55.6504 18.8532 55.6504C19.2498 55.6504 19.5733 55.3269 19.5733 54.9303Z" fill="#E9EBF1"/>
<path d="M22.4535 54.9303C22.4535 54.5337 22.13 54.2102 21.7338 54.2102C21.3372 54.2102 21.0137 54.5337 21.0137 54.9303C21.0137 55.3269 21.3372 55.6504 21.7338 55.6504C22.13 55.6504 22.4535 55.3269 22.4535 54.9303Z" fill="#E9EBF1"/>
<path d="M16.6938 52.0514C16.6938 51.6548 16.3703 51.3312 15.974 51.3312C15.5774 51.3312 15.2539 51.6548 15.2539 52.0514C15.2539 52.448 15.5774 52.7715 15.974 52.7715C16.3703 52.7715 16.6938 52.448 16.6938 52.0514Z" fill="#E9EBF1"/>
<path d="M19.5733 52.0514C19.5733 51.6548 19.2498 51.3312 18.8532 51.3312C18.4566 51.3312 18.1331 51.6548 18.1331 52.0514C18.1331 52.448 18.4566 52.7715 18.8532 52.7715C19.2498 52.7715 19.5733 52.448 19.5733 52.0514Z" fill="#E9EBF1"/>
<path d="M22.4535 52.0514C22.4535 51.6548 22.13 51.3312 21.7338 51.3312C21.3372 51.3312 21.0137 51.6548 21.0137 52.0514C21.0137 52.448 21.3372 52.7715 21.7338 52.7715C22.13 52.7715 22.4535 52.448 22.4535 52.0514Z" fill="#E9EBF1"/>
<path d="M16.6938 49.1705C16.6938 48.7739 16.3703 48.4504 15.974 48.4504C15.5774 48.4504 15.2539 48.7739 15.2539 49.1705C15.2539 49.5671 15.5774 49.8906 15.974 49.8906C16.3703 49.8906 16.6938 49.5671 16.6938 49.1705Z" fill="#E9EBF1"/>
<path d="M19.5733 49.1705C19.5733 48.7739 19.2498 48.4504 18.8532 48.4504C18.4566 48.4504 18.1331 48.7739 18.1331 49.1705C18.1331 49.5671 18.4566 49.8906 18.8532 49.8906C19.2498 49.8906 19.5733 49.5671 19.5733 49.1705Z" fill="#E9EBF1"/>
<path d="M22.4535 49.1705C22.4535 48.7739 22.13 48.4504 21.7338 48.4504C21.3372 48.4504 21.0137 48.7739 21.0137 49.1705C21.0137 49.5671 21.3372 49.8906 21.7338 49.8906C22.13 49.8906 22.4535 49.5671 22.4535 49.1705Z" fill="#E9EBF1"/>
<path d="M16.6938 46.2916C16.6938 45.895 16.3703 45.5715 15.974 45.5715C15.5774 45.5715 15.2539 45.895 15.2539 46.2916C15.2539 46.6882 15.5774 47.0117 15.974 47.0117C16.3703 47.0117 16.6938 46.6882 16.6938 46.2916Z" fill="#E9EBF1"/>
<path d="M19.5733 46.2916C19.5733 45.895 19.2498 45.5715 18.8532 45.5715C18.4566 45.5715 18.1331 45.895 18.1331 46.2916C18.1331 46.6882 18.4566 47.0117 18.8532 47.0117C19.2498 47.0117 19.5733 46.6882 19.5733 46.2916Z" fill="#E9EBF1"/>
<path d="M22.4535 46.2916C22.4535 45.895 22.13 45.5715 21.7338 45.5715C21.3372 45.5715 21.0137 45.895 21.0137 46.2916C21.0137 46.6882 21.3372 47.0117 21.7338 47.0117C22.13 47.0117 22.4535 46.6882 22.4535 46.2916Z" fill="#E9EBF1"/>
<path d="M33.2536 54.9303C33.2536 54.5337 32.9301 54.2102 32.5338 54.2102C32.1372 54.2102 31.8137 54.5337 31.8137 54.9303C31.8137 55.3269 32.1372 55.6504 32.5338 55.6504C32.9301 55.6504 33.2536 55.3269 33.2536 54.9303Z" fill="#E9EBF1"/>
<path d="M36.1331 54.9303C36.1331 54.5337 35.8096 54.2102 35.413 54.2102C35.0164 54.2102 34.6929 54.5337 34.6929 54.9303C34.6929 55.3269 35.0164 55.6504 35.413 55.6504C35.8096 55.6504 36.1331 55.3269 36.1331 54.9303Z" fill="#E9EBF1"/>
<path d="M39.0134 54.9303C39.0134 54.5337 38.6899 54.2102 38.2936 54.2102C37.897 54.2102 37.5735 54.5337 37.5735 54.9303C37.5735 55.3269 37.897 55.6504 38.2936 55.6504C38.6899 55.6504 39.0134 55.3269 39.0134 54.9303Z" fill="#E9EBF1"/>
<path d="M33.2536 52.0514C33.2536 51.6548 32.9301 51.3312 32.5338 51.3312C32.1372 51.3312 31.8137 51.6548 31.8137 52.0514C31.8137 52.448 32.1372 52.7715 32.5338 52.7715C32.9301 52.7715 33.2536 52.448 33.2536 52.0514Z" fill="#E9EBF1"/>
<path d="M36.1331 52.0514C36.1331 51.6548 35.8096 51.3312 35.413 51.3312C35.0164 51.3312 34.6929 51.6548 34.6929 52.0514C34.6929 52.448 35.0164 52.7715 35.413 52.7715C35.8096 52.7715 36.1331 52.448 36.1331 52.0514Z" fill="#E9EBF1"/>
<path d="M39.0134 52.0514C39.0134 51.6548 38.6899 51.3312 38.2936 51.3312C37.897 51.3312 37.5735 51.6548 37.5735 52.0514C37.5735 52.448 37.897 52.7715 38.2936 52.7715C38.6899 52.7715 39.0134 52.448 39.0134 52.0514Z" fill="#E9EBF1"/>
<path d="M33.2536 49.1705C33.2536 48.7739 32.9301 48.4504 32.5338 48.4504C32.1372 48.4504 31.8137 48.7739 31.8137 49.1705C31.8137 49.5671 32.1372 49.8906 32.5338 49.8906C32.9301 49.8906 33.2536 49.5671 33.2536 49.1705Z" fill="#E9EBF1"/>
<path d="M36.1331 49.1705C36.1331 48.7739 35.8096 48.4504 35.413 48.4504C35.0164 48.4504 34.6929 48.7739 34.6929 49.1705C34.6929 49.5671 35.0164 49.8906 35.413 49.8906C35.8096 49.8906 36.1331 49.5671 36.1331 49.1705Z" fill="#E9EBF1"/>
<path d="M39.0134 49.1705C39.0134 48.7739 38.6899 48.4504 38.2936 48.4504C37.897 48.4504 37.5735 48.7739 37.5735 49.1705C37.5735 49.5671 37.897 49.8906 38.2936 49.8906C38.6899 49.8906 39.0134 49.5671 39.0134 49.1705Z" fill="#E9EBF1"/>
<path d="M33.2536 46.2916C33.2536 45.895 32.9301 45.5715 32.5338 45.5715C32.1372 45.5715 31.8137 45.895 31.8137 46.2916C31.8137 46.6882 32.1372 47.0117 32.5338 47.0117C32.9301 47.0117 33.2536 46.6882 33.2536 46.2916Z" fill="#E9EBF1"/>
<path d="M36.1331 46.2916C36.1331 45.895 35.8096 45.5715 35.413 45.5715C35.0164 45.5715 34.6929 45.895 34.6929 46.2916C34.6929 46.6882 35.0164 47.0117 35.413 47.0117C35.8096 47.0117 36.1331 46.6882 36.1331 46.2916Z" fill="#E9EBF1"/>
<path d="M39.0134 46.2916C39.0134 45.895 38.6899 45.5715 38.2936 45.5715C37.897 45.5715 37.5735 45.895 37.5735 46.2916C37.5735 46.6882 37.897 47.0117 38.2936 47.0117C38.6899 47.0117 39.0134 46.6882 39.0134 46.2916Z" fill="#E9EBF1"/>
<path d="M49.8132 54.9303C49.8132 54.5337 49.4897 54.2102 49.0934 54.2102C48.6968 54.2102 48.3733 54.5337 48.3733 54.9303C48.3733 55.3269 48.6968 55.6504 49.0934 55.6504C49.4897 55.6504 49.8132 55.3269 49.8132 54.9303Z" fill="#E9EBF1"/>
<path d="M52.6941 54.9303C52.6941 54.5337 52.3706 54.2102 51.974 54.2102C51.5774 54.2102 51.2539 54.5337 51.2539 54.9303C51.2539 55.3269 51.5774 55.6504 51.974 55.6504C52.3706 55.6504 52.6941 55.3269 52.6941 54.9303Z" fill="#E9EBF1"/>
<path d="M55.5729 54.9303C55.5729 54.5337 55.2494 54.2102 54.8532 54.2102C54.4566 54.2102 54.1331 54.5337 54.1331 54.9303C54.1331 55.3269 54.4566 55.6504 54.8532 55.6504C55.2494 55.6504 55.5729 55.3269 55.5729 54.9303Z" fill="#E9EBF1"/>
<path d="M49.8132 52.0514C49.8132 51.6548 49.4897 51.3312 49.0934 51.3312C48.6968 51.3312 48.3733 51.6548 48.3733 52.0514C48.3733 52.448 48.6968 52.7715 49.0934 52.7715C49.4897 52.7715 49.8132 52.448 49.8132 52.0514Z" fill="#E9EBF1"/>
<path d="M52.6941 52.0514C52.6941 51.6548 52.3706 51.3312 51.974 51.3312C51.5774 51.3312 51.2539 51.6548 51.2539 52.0514C51.2539 52.448 51.5774 52.7715 51.974 52.7715C52.3706 52.7715 52.6941 52.448 52.6941 52.0514Z" fill="#E9EBF1"/>
<path d="M55.5729 52.0514C55.5729 51.6548 55.2494 51.3312 54.8532 51.3312C54.4566 51.3312 54.1331 51.6548 54.1331 52.0514C54.1331 52.448 54.4566 52.7715 54.8532 52.7715C55.2494 52.7715 55.5729 52.448 55.5729 52.0514Z" fill="#E9EBF1"/>
<path d="M49.8132 49.1705C49.8132 48.7739 49.4897 48.4504 49.0934 48.4504C48.6968 48.4504 48.3733 48.7739 48.3733 49.1705C48.3733 49.5671 48.6968 49.8906 49.0934 49.8906C49.4897 49.8906 49.8132 49.5671 49.8132 49.1705Z" fill="#E9EBF1"/>
<path d="M52.6941 49.1705C52.6941 48.7739 52.3706 48.4504 51.974 48.4504C51.5774 48.4504 51.2539 48.7739 51.2539 49.1705C51.2539 49.5671 51.5774 49.8906 51.974 49.8906C52.3706 49.8906 52.6941 49.5671 52.6941 49.1705Z" fill="#E9EBF1"/>
<path d="M55.5729 49.1705C55.5729 48.7739 55.2494 48.4504 54.8532 48.4504C54.4566 48.4504 54.1331 48.7739 54.1331 49.1705C54.1331 49.5671 54.4566 49.8906 54.8532 49.8906C55.2494 49.8906 55.5729 49.5671 55.5729 49.1705Z" fill="#E9EBF1"/>
<path d="M49.8132 46.2916C49.8132 45.895 49.4897 45.5715 49.0934 45.5715C48.6968 45.5715 48.3733 45.895 48.3733 46.2916C48.3733 46.6882 48.6968 47.0117 49.0934 47.0117C49.4897 47.0117 49.8132 46.6882 49.8132 46.2916Z" fill="#E9EBF1"/>
<path d="M52.6941 46.2916C52.6941 45.895 52.3706 45.5715 51.974 45.5715C51.5774 45.5715 51.2539 45.895 51.2539 46.2916C51.2539 46.6882 51.5774 47.0117 51.974 47.0117C52.3706 47.0117 52.6941 46.6882 52.6941 46.2916Z" fill="#E9EBF1"/>
<path d="M55.5729 46.2916C55.5729 45.895 55.2494 45.5715 54.8532 45.5715C54.4566 45.5715 54.1331 45.895 54.1331 46.2916C54.1331 46.6882 54.4566 47.0117 54.8532 47.0117C55.2494 47.0117 55.5729 46.6882 55.5729 46.2916Z" fill="#E9EBF1"/>
<defs>
<linearGradient id="paint0_linear_14731_745" x1="29.2488" y1="35.384" x2="47.2488" y2="35.384" gradientUnits="userSpaceOnUse">
<stop stop-color="#30C5D2"/>
<stop offset="1" stop-color="#471069"/>
</linearGradient>
</defs>
</svg>
