<svg width="72" height="72" viewBox="0 0 72 72" fill="none" xmlns="http://www.w3.org/2000/svg">
<path fill-rule="evenodd" clip-rule="evenodd" d="M35.7751 0.138817C55.5329 0.138817 71.5495 16.1555 71.5495 35.9132C71.5495 55.6709 55.5329 71.6875 35.7751 71.6875C16.0175 71.6875 0.000488281 55.6709 0.000488281 35.9132C0.000488281 16.1555 16.0175 0.138817 35.7751 0.138817Z" fill="#101217"/>
<mask id="mask0_14731_24320" style="mask-type:luminance" maskUnits="userSpaceOnUse" x="22" y="19" width="31" height="31">
<path fill-rule="evenodd" clip-rule="evenodd" d="M22.0938 34.8351C22.0938 43.1855 28.8632 49.9551 37.2137 49.9551C45.5643 49.9551 52.3337 43.1855 52.3337 34.8351C52.3337 26.4845 45.5643 19.7151 37.2137 19.7151C28.8632 19.7151 22.0938 26.4845 22.0938 34.8351Z" fill="white"/>
</mask>
<g mask="url(#mask0_14731_24320)">
<g filter="url(#filter0_d_14731_24320)">
<rect x="21.3003" y="18.5898" width="31.2" height="32.4" fill="url(#paint0_linear_14731_24320)"/>
</g>
</g>
<path d="M39.3732 47.0723C43.3502 47.0723 46.5734 40.3026 46.5734 31.9521C46.5734 23.6016 43.3502 16.8324 39.3732 16.8324C35.3968 16.8324 32.1731 23.6016 32.1731 31.9521C32.1731 40.3026 35.3968 47.0723 39.3732 47.0723Z" stroke="#E9EBF1" stroke-width="1.0368" stroke-linecap="round" stroke-linejoin="round"/>
<path d="M24.2537 31.9512H54.4937" stroke="#E9EBF1" stroke-width="1.0368" stroke-linecap="round" stroke-linejoin="round"/>
<path d="M25.3916 26.1914H53.3568" stroke="#E9EBF1" stroke-width="1.0368" stroke-linecap="round" stroke-linejoin="round"/>
<path d="M29.5811 20.4316H49.1654" stroke="#E9EBF1" stroke-width="1.0368" stroke-linecap="round" stroke-linejoin="round"/>
<path d="M25.3916 37.7109H53.3568" stroke="#E9EBF1" stroke-width="1.0368" stroke-linecap="round" stroke-linejoin="round"/>
<path d="M39.373 16.8324V47.0723" stroke="#E9EBF1" stroke-width="1.0368" stroke-linecap="round" stroke-linejoin="round"/>
<path d="M39.3733 50.6699C49.6962 50.6699 58.0932 42.2718 58.0932 31.95C58.0932 21.6281 49.6962 13.2301 39.3733 13.2301C29.0506 13.2301 20.6536 21.6281 20.6536 31.95C20.6536 42.2718 29.0506 50.6699 39.3733 50.6699Z" stroke="#E9EBF1" stroke-width="1.0368" stroke-linecap="round" stroke-linejoin="round"/>
<path d="M24.2537 31.9521C24.2537 40.3026 31.0231 47.0723 39.3736 47.0723C47.7243 47.0723 54.4937 40.3026 54.4937 31.9521C54.4937 23.6016 47.7243 16.8324 39.3736 16.8324C31.0231 16.8324 24.2537 23.6016 24.2537 31.9521Z" stroke="#E9EBF1" stroke-width="1.0368" stroke-linecap="round" stroke-linejoin="round"/>
<path d="M29.5811 43.4727H49.1654" stroke="#E9EBF1" stroke-width="1.0368" stroke-linecap="round" stroke-linejoin="round"/>
<path d="M28.1201 46.9054L17.5864 57.4391C17.0102 58.0151 16.0745 58.0151 15.4912 57.4391L13.8856 55.8333C13.3096 55.2498 13.3096 54.3144 13.8856 53.7383L24.4193 43.2047" stroke="#E9EBF1" stroke-width="1.0368" stroke-linecap="round" stroke-linejoin="round"/>
<path d="M21.7846 53.2422L18.0837 49.5415" stroke="#E9EBF1" stroke-width="1.0368" stroke-linecap="round" stroke-linejoin="round"/>
<defs>
<filter id="filter0_d_14731_24320" x="17.3003" y="18.5898" width="39.2" height="40.4004" filterUnits="userSpaceOnUse" color-interpolation-filters="sRGB">
<feFlood flood-opacity="0" result="BackgroundImageFix"/>
<feColorMatrix in="SourceAlpha" type="matrix" values="0 0 0 0 0 0 0 0 0 0 0 0 0 0 0 0 0 0 127 0" result="hardAlpha"/>
<feOffset dy="4"/>
<feGaussianBlur stdDeviation="2"/>
<feComposite in2="hardAlpha" operator="out"/>
<feColorMatrix type="matrix" values="0 0 0 0 0 0 0 0 0 0 0 0 0 0 0 0 0 0 0.25 0"/>
<feBlend mode="normal" in2="BackgroundImageFix" result="effect1_dropShadow_14731_24320"/>
<feBlend mode="normal" in="SourceGraphic" in2="effect1_dropShadow_14731_24320" result="shape"/>
</filter>
<linearGradient id="paint0_linear_14731_24320" x1="21.3003" y1="34.7898" x2="52.5003" y2="34.7898" gradientUnits="userSpaceOnUse">
<stop stop-color="#30C5D2"/>
<stop offset="1" stop-color="#471069"/>
</linearGradient>
</defs>
</svg>
