<svg width="311" height="186" viewBox="0 0 311 186" fill="none" xmlns="http://www.w3.org/2000/svg">
<rect width="311" height="186" rx="12" fill="#101217"/>
<circle cx="14" cy="14" r="4" fill="#D95A57"/>
<circle cx="26" cy="14" r="4" fill="#585A5D"/>
<circle cx="38" cy="14" r="4" fill="#52BE80"/>
<rect x="287" y="162" width="263" height="36" rx="6" transform="rotate(180 287 162)" fill="url(#paint0_linear_7170_13708)"/>
<path d="M139.619 146.15C139.659 146.337 139.739 146.51 139.859 146.67C139.986 146.83 140.156 146.96 140.369 147.06C140.583 147.16 140.846 147.21 141.159 147.21C141.626 147.21 141.969 147.103 142.189 146.89C142.416 146.67 142.529 146.413 142.529 146.12C142.529 145.88 142.459 145.683 142.319 145.53C142.186 145.37 141.999 145.237 141.759 145.13C141.526 145.017 141.256 144.917 140.949 144.83C140.683 144.75 140.419 144.667 140.159 144.58C139.906 144.487 139.676 144.373 139.469 144.24C139.263 144.1 139.099 143.923 138.979 143.71C138.859 143.49 138.799 143.217 138.799 142.89C138.799 142.483 138.896 142.133 139.089 141.84C139.283 141.547 139.553 141.323 139.899 141.17C140.253 141.01 140.659 140.93 141.119 140.93C141.506 140.93 141.853 140.987 142.159 141.1C142.466 141.207 142.723 141.363 142.929 141.57C143.143 141.77 143.299 142.013 143.399 142.3L142.489 142.63C142.449 142.483 142.366 142.347 142.239 142.22C142.113 142.087 141.953 141.98 141.759 141.9C141.566 141.82 141.349 141.78 141.109 141.78C140.863 141.773 140.639 141.813 140.439 141.9C140.246 141.98 140.089 142.097 139.969 142.25C139.856 142.403 139.799 142.587 139.799 142.8C139.799 143.033 139.866 143.217 139.999 143.35C140.133 143.483 140.309 143.593 140.529 143.68C140.756 143.767 141.003 143.85 141.269 143.93C141.549 144.017 141.823 144.11 142.089 144.21C142.356 144.31 142.596 144.437 142.809 144.59C143.029 144.743 143.206 144.937 143.339 145.17C143.473 145.397 143.539 145.683 143.539 146.03C143.539 146.403 143.453 146.743 143.279 147.05C143.106 147.357 142.843 147.603 142.489 147.79C142.143 147.977 141.706 148.07 141.179 148.07C140.746 148.07 140.356 148.003 140.009 147.87C139.663 147.737 139.376 147.553 139.149 147.32C138.929 147.08 138.783 146.803 138.709 146.49L139.619 146.15ZM144.881 143H145.831V148H144.881V143ZM145.361 142.12C145.181 142.12 145.031 142.06 144.911 141.94C144.791 141.82 144.731 141.673 144.731 141.5C144.731 141.32 144.791 141.17 144.911 141.05C145.031 140.923 145.181 140.86 145.361 140.86C145.534 140.86 145.681 140.923 145.801 141.05C145.927 141.17 145.991 141.32 145.991 141.5C145.991 141.673 145.927 141.82 145.801 141.94C145.681 142.06 145.534 142.12 145.361 142.12ZM151.157 143H152.017V147.18C152.017 147.767 151.877 148.27 151.597 148.69C151.317 149.11 150.913 149.433 150.387 149.66C149.867 149.887 149.237 150 148.497 150L148.347 149.17C149.24 149.15 149.917 148.97 150.377 148.63C150.837 148.297 151.067 147.813 151.067 147.18V147.13L151.177 147.14C151.017 147.393 150.787 147.613 150.487 147.8C150.193 147.98 149.827 148.07 149.387 148.07C148.94 148.07 148.543 147.963 148.197 147.75C147.857 147.537 147.59 147.237 147.397 146.85C147.21 146.463 147.117 146.013 147.117 145.5C147.117 144.987 147.21 144.537 147.397 144.15C147.59 143.763 147.857 143.463 148.197 143.25C148.543 143.037 148.94 142.93 149.387 142.93C149.66 142.93 149.903 142.967 150.117 143.04C150.337 143.113 150.527 143.213 150.687 143.34C150.847 143.46 150.98 143.597 151.087 143.75L151.157 143ZM148.127 145.5C148.127 146.013 148.26 146.427 148.527 146.74C148.8 147.053 149.163 147.21 149.617 147.21C149.883 147.21 150.127 147.143 150.347 147.01C150.567 146.87 150.74 146.673 150.867 146.42C151 146.16 151.067 145.853 151.067 145.5C151.067 145.14 151 144.833 150.867 144.58C150.74 144.327 150.563 144.133 150.337 144C150.117 143.86 149.877 143.79 149.617 143.79C149.163 143.79 148.8 143.947 148.527 144.26C148.26 144.573 148.127 144.987 148.127 145.5ZM153.442 143H154.302L154.362 143.58C154.522 143.373 154.725 143.213 154.972 143.1C155.218 142.987 155.492 142.93 155.792 142.93C156.178 142.93 156.512 143.013 156.792 143.18C157.078 143.34 157.298 143.58 157.452 143.9C157.612 144.22 157.692 144.62 157.692 145.1V148H156.752V145.22C156.752 144.753 156.652 144.4 156.452 144.16C156.258 143.913 155.975 143.79 155.602 143.79C155.215 143.79 154.915 143.917 154.702 144.17C154.488 144.417 154.382 144.783 154.382 145.27V148H153.442V143ZM166.03 148H165.17L165.1 147.41C164.94 147.623 164.737 147.787 164.49 147.9C164.25 148.013 163.98 148.07 163.68 148.07C163.293 148.07 162.957 147.99 162.67 147.83C162.383 147.663 162.16 147.423 162 147.11C161.847 146.79 161.77 146.393 161.77 145.92V143H162.72V145.8C162.72 146.26 162.813 146.61 163 146.85C163.193 147.09 163.483 147.21 163.87 147.21C164.25 147.21 164.547 147.087 164.76 146.84C164.98 146.593 165.09 146.227 165.09 145.74V143H166.03V148ZM168.295 147.15L168.395 147.12V150H167.455V143H168.315L168.385 143.75C168.545 143.523 168.765 143.33 169.045 143.17C169.332 143.01 169.679 142.93 170.085 142.93C170.525 142.93 170.915 143.037 171.255 143.25C171.595 143.463 171.862 143.763 172.055 144.15C172.255 144.53 172.355 144.98 172.355 145.5C172.355 146.013 172.259 146.463 172.065 146.85C171.879 147.237 171.615 147.537 171.275 147.75C170.935 147.963 170.539 148.07 170.085 148.07C169.652 148.07 169.282 147.983 168.975 147.81C168.675 147.63 168.449 147.41 168.295 147.15ZM171.335 145.5C171.335 144.987 171.199 144.573 170.925 144.26C170.659 143.947 170.309 143.79 169.875 143.79C169.595 143.79 169.345 143.857 169.125 143.99C168.905 144.123 168.729 144.317 168.595 144.57C168.462 144.823 168.395 145.133 168.395 145.5C168.395 145.86 168.462 146.167 168.595 146.42C168.729 146.673 168.905 146.87 169.125 147.01C169.345 147.143 169.595 147.21 169.875 147.21C170.309 147.21 170.659 147.053 170.925 146.74C171.199 146.427 171.335 146.013 171.335 145.5Z" fill="white"/>
<rect x="286.674" y="69.6736" width="262.347" height="35.3473" rx="5.67363" transform="rotate(180 286.674 69.6736)" fill="#1E2129"/>
<rect x="286.674" y="69.6736" width="262.347" height="35.3473" rx="5.67363" transform="rotate(180 286.674 69.6736)" stroke="#282A2F" stroke-width="0.652733"/>
<path d="M36.82 55.5V48.56H37.76V55.5H36.82ZM37.46 55.5V54.64H41.44V55.5H37.46ZM37.46 52.36V51.54H41.11V52.36H37.46ZM37.46 49.42V48.56H41.39V49.42H37.46ZM42.5584 55.5V50.75H43.4584V55.5H42.5584ZM45.7684 55.5V52.63C45.7684 52.2767 45.6584 52 45.4384 51.8C45.2251 51.5933 44.9551 51.49 44.6284 51.49C44.4084 51.49 44.2118 51.5367 44.0384 51.63C43.8651 51.7233 43.7251 51.8533 43.6184 52.02C43.5118 52.1867 43.4584 52.3867 43.4584 52.62L43.0884 52.44C43.0884 52.08 43.1651 51.7667 43.3184 51.5C43.4784 51.2333 43.6951 51.0267 43.9684 50.88C44.2418 50.7267 44.5484 50.65 44.8884 50.65C45.2218 50.65 45.5218 50.7233 45.7884 50.87C46.0618 51.0167 46.2751 51.2233 46.4284 51.49C46.5884 51.7567 46.6684 52.0733 46.6684 52.44V55.5H45.7684ZM48.9784 55.5V52.63C48.9784 52.2767 48.8684 52 48.6484 51.8C48.4351 51.5933 48.1684 51.49 47.8484 51.49C47.6284 51.49 47.4284 51.5367 47.2484 51.63C47.0751 51.7233 46.9351 51.8533 46.8284 52.02C46.7218 52.1867 46.6684 52.3867 46.6684 52.62L46.1584 52.44C46.1784 52.0733 46.2751 51.76 46.4484 51.5C46.6284 51.2333 46.8584 51.0267 47.1384 50.88C47.4184 50.7267 47.7251 50.65 48.0584 50.65C48.4051 50.65 48.7151 50.7233 48.9884 50.87C49.2618 51.0167 49.4784 51.2233 49.6384 51.49C49.8051 51.7567 49.8884 52.0767 49.8884 52.45V55.5H48.9784ZM53.1331 55.6C52.6998 55.6 52.3065 55.4933 51.9531 55.28C51.5998 55.06 51.3198 54.7633 51.1131 54.39C50.9131 54.0167 50.8131 53.5967 50.8131 53.13C50.8131 52.6633 50.9131 52.2433 51.1131 51.87C51.3198 51.4967 51.5965 51.2 51.9431 50.98C52.2965 50.76 52.6931 50.65 53.1331 50.65C53.4931 50.65 53.8131 50.7267 54.0931 50.88C54.3798 51.0267 54.6098 51.2333 54.7831 51.5C54.9565 51.76 55.0531 52.0633 55.0731 52.41V53.84C55.0531 54.18 54.9565 54.4833 54.7831 54.75C54.6165 55.0167 54.3898 55.2267 54.1031 55.38C53.8231 55.5267 53.4998 55.6 53.1331 55.6ZM53.2831 54.75C53.7298 54.75 54.0898 54.6 54.3631 54.3C54.6365 53.9933 54.7731 53.6033 54.7731 53.13C54.7731 52.8033 54.7098 52.52 54.5831 52.28C54.4631 52.0333 54.2898 51.8433 54.0631 51.71C53.8365 51.57 53.5731 51.5 53.2731 51.5C52.9731 51.5 52.7065 51.57 52.4731 51.71C52.2465 51.85 52.0665 52.0433 51.9331 52.29C51.8065 52.53 51.7431 52.8067 51.7431 53.12C51.7431 53.44 51.8065 53.7233 51.9331 53.97C52.0665 54.21 52.2498 54.4 52.4831 54.54C52.7165 54.68 52.9831 54.75 53.2831 54.75ZM54.7131 55.5V54.22L54.8831 53.06L54.7131 51.91V50.75H55.6231V55.5H54.7131ZM56.9434 55.5V50.75H57.8434V55.5H56.9434ZM57.3934 49.8C57.2268 49.8 57.0901 49.7467 56.9834 49.64C56.8768 49.5267 56.8234 49.3867 56.8234 49.22C56.8234 49.06 56.8768 48.9267 56.9834 48.82C57.0901 48.7067 57.2268 48.65 57.3934 48.65C57.5601 48.65 57.6968 48.7067 57.8034 48.82C57.9101 48.9267 57.9634 49.06 57.9634 49.22C57.9634 49.3867 57.9101 49.5267 57.8034 49.64C57.6968 49.7467 57.5601 49.8 57.3934 49.8ZM59.1698 55.5V48.36H60.0698V55.5H59.1698ZM65.4866 55.6C65.0533 55.6 64.66 55.4933 64.3066 55.28C63.9533 55.06 63.6733 54.7633 63.4666 54.39C63.2666 54.0167 63.1666 53.5967 63.1666 53.13C63.1666 52.6633 63.2666 52.2433 63.4666 51.87C63.6733 51.4967 63.95 51.2 64.2966 50.98C64.65 50.76 65.0466 50.65 65.4866 50.65C65.8466 50.65 66.1666 50.7267 66.4466 50.88C66.7333 51.0267 66.9633 51.2333 67.1366 51.5C67.31 51.76 67.4066 52.0633 67.4266 52.41V53.84C67.4066 54.18 67.31 54.4833 67.1366 54.75C66.97 55.0167 66.7433 55.2267 66.4566 55.38C66.1766 55.5267 65.8533 55.6 65.4866 55.6ZM65.6366 54.75C66.0833 54.75 66.4433 54.6 66.7166 54.3C66.99 53.9933 67.1266 53.6033 67.1266 53.13C67.1266 52.8033 67.0633 52.52 66.9366 52.28C66.8166 52.0333 66.6433 51.8433 66.4166 51.71C66.19 51.57 65.9266 51.5 65.6266 51.5C65.3266 51.5 65.06 51.57 64.8266 51.71C64.6 51.85 64.42 52.0433 64.2866 52.29C64.16 52.53 64.0966 52.8067 64.0966 53.12C64.0966 53.44 64.16 53.7233 64.2866 53.97C64.42 54.21 64.6033 54.4 64.8366 54.54C65.07 54.68 65.3366 54.75 65.6366 54.75ZM67.0666 55.5V54.22L67.2366 53.06L67.0666 51.91V50.75H67.9766V55.5H67.0666ZM71.297 55.6C70.857 55.6 70.4636 55.4933 70.117 55.28C69.7703 55.06 69.4936 54.7633 69.287 54.39C69.087 54.0167 68.987 53.5967 68.987 53.13C68.987 52.6633 69.087 52.2433 69.287 51.87C69.4936 51.4967 69.7703 51.2 70.117 50.98C70.4636 50.76 70.857 50.65 71.297 50.65C71.6503 50.65 71.9703 50.7267 72.257 50.88C72.5436 51.0267 72.7736 51.2333 72.947 51.5C73.127 51.76 73.227 52.0633 73.247 52.41V53.84C73.227 54.18 73.1303 54.4833 72.957 54.75C72.7836 55.0167 72.5536 55.2267 72.267 55.38C71.9803 55.5267 71.657 55.6 71.297 55.6ZM71.447 54.75C71.747 54.75 72.007 54.68 72.227 54.54C72.4536 54.4 72.6303 54.21 72.757 53.97C72.8836 53.7233 72.947 53.4433 72.947 53.13C72.947 52.8033 72.8803 52.52 72.747 52.28C72.6203 52.04 72.4436 51.85 72.217 51.71C71.997 51.57 71.737 51.5 71.437 51.5C71.137 51.5 70.8736 51.57 70.647 51.71C70.4203 51.85 70.2403 52.0433 70.107 52.29C69.9803 52.53 69.917 52.8067 69.917 53.12C69.917 53.44 69.9803 53.7233 70.107 53.97C70.2403 54.21 70.4203 54.4 70.647 54.54C70.8803 54.68 71.147 54.75 71.447 54.75ZM73.797 55.5H72.887V54.22L73.057 53.06L72.887 51.91V48.36H73.797V55.5ZM77.1173 55.6C76.6773 55.6 76.2839 55.4933 75.9373 55.28C75.5906 55.06 75.3139 54.7633 75.1073 54.39C74.9073 54.0167 74.8073 53.5967 74.8073 53.13C74.8073 52.6633 74.9073 52.2433 75.1073 51.87C75.3139 51.4967 75.5906 51.2 75.9373 50.98C76.2839 50.76 76.6773 50.65 77.1173 50.65C77.4706 50.65 77.7906 50.7267 78.0773 50.88C78.3639 51.0267 78.5939 51.2333 78.7673 51.5C78.9473 51.76 79.0473 52.0633 79.0673 52.41V53.84C79.0473 54.18 78.9506 54.4833 78.7773 54.75C78.6039 55.0167 78.3739 55.2267 78.0873 55.38C77.8006 55.5267 77.4773 55.6 77.1173 55.6ZM77.2673 54.75C77.5673 54.75 77.8273 54.68 78.0473 54.54C78.2739 54.4 78.4506 54.21 78.5773 53.97C78.7039 53.7233 78.7673 53.4433 78.7673 53.13C78.7673 52.8033 78.7006 52.52 78.5673 52.28C78.4406 52.04 78.2639 51.85 78.0373 51.71C77.8173 51.57 77.5573 51.5 77.2573 51.5C76.9573 51.5 76.6939 51.57 76.4673 51.71C76.2406 51.85 76.0606 52.0433 75.9273 52.29C75.8006 52.53 75.7373 52.8067 75.7373 53.12C75.7373 53.44 75.8006 53.7233 75.9273 53.97C76.0606 54.21 76.2406 54.4 76.4673 54.54C76.7006 54.68 76.9673 54.75 77.2673 54.75ZM79.6173 55.5H78.7073V54.22L78.8773 53.06L78.7073 51.91V48.36H79.6173V55.5ZM80.9276 55.5V50.75H81.8276V55.5H80.9276ZM81.8276 52.79L81.4876 52.64C81.4876 52.0333 81.6276 51.55 81.9076 51.19C82.1876 50.83 82.5909 50.65 83.1176 50.65C83.3576 50.65 83.5742 50.6933 83.7676 50.78C83.9609 50.86 84.1409 50.9967 84.3076 51.19L83.7176 51.8C83.6176 51.6933 83.5076 51.6167 83.3876 51.57C83.2676 51.5233 83.1276 51.5 82.9676 51.5C82.6342 51.5 82.3609 51.6067 82.1476 51.82C81.9342 52.0333 81.8276 52.3567 81.8276 52.79ZM86.985 55.6C86.5117 55.6 86.085 55.4933 85.705 55.28C85.325 55.06 85.025 54.7633 84.805 54.39C84.585 54.0167 84.475 53.5933 84.475 53.12C84.475 52.6533 84.5817 52.2333 84.795 51.86C85.015 51.4867 85.3083 51.1933 85.675 50.98C86.0483 50.76 86.465 50.65 86.925 50.65C87.365 50.65 87.7517 50.75 88.085 50.95C88.425 51.15 88.6883 51.4267 88.875 51.78C89.0683 52.1333 89.165 52.5333 89.165 52.98C89.165 53.0467 89.1617 53.12 89.155 53.2C89.1483 53.2733 89.135 53.36 89.115 53.46H85.105V52.71H88.635L88.305 53C88.305 52.68 88.2483 52.41 88.135 52.19C88.0217 51.9633 87.8617 51.79 87.655 51.67C87.4483 51.5433 87.1983 51.48 86.905 51.48C86.5983 51.48 86.3283 51.5467 86.095 51.68C85.8617 51.8133 85.6817 52 85.555 52.24C85.4283 52.48 85.365 52.7633 85.365 53.09C85.365 53.4233 85.4317 53.7167 85.565 53.97C85.6983 54.2167 85.8883 54.41 86.135 54.55C86.3817 54.6833 86.665 54.75 86.985 54.75C87.2517 54.75 87.495 54.7033 87.715 54.61C87.9417 54.5167 88.135 54.3767 88.295 54.19L88.875 54.78C88.6483 55.0467 88.3683 55.25 88.035 55.39C87.7083 55.53 87.3583 55.6 86.985 55.6ZM91.6563 55.6C91.3897 55.6 91.1363 55.5667 90.8963 55.5C90.663 55.4267 90.4463 55.3267 90.2463 55.2C90.0463 55.0667 89.873 54.91 89.7263 54.73L90.3063 54.15C90.4797 54.3633 90.6797 54.5233 90.9063 54.63C91.133 54.73 91.3863 54.78 91.6663 54.78C91.9463 54.78 92.163 54.7333 92.3163 54.64C92.4697 54.54 92.5463 54.4033 92.5463 54.23C92.5463 54.0567 92.483 53.9233 92.3563 53.83C92.2363 53.73 92.0797 53.65 91.8863 53.59C91.693 53.5233 91.4863 53.46 91.2663 53.4C91.053 53.3333 90.8497 53.25 90.6563 53.15C90.463 53.05 90.303 52.9133 90.1763 52.74C90.0563 52.5667 89.9963 52.3367 89.9963 52.05C89.9963 51.7633 90.0663 51.5167 90.2063 51.31C90.3463 51.0967 90.5397 50.9333 90.7863 50.82C91.0397 50.7067 91.343 50.65 91.6963 50.65C92.0697 50.65 92.3997 50.7167 92.6863 50.85C92.9797 50.9767 93.2197 51.17 93.4063 51.43L92.8263 52.01C92.693 51.8367 92.5263 51.7033 92.3263 51.61C92.133 51.5167 91.913 51.47 91.6663 51.47C91.4063 51.47 91.2063 51.5167 91.0663 51.61C90.933 51.6967 90.8663 51.82 90.8663 51.98C90.8663 52.14 90.9263 52.2633 91.0463 52.35C91.1663 52.4367 91.323 52.51 91.5163 52.57C91.7163 52.63 91.923 52.6933 92.1363 52.76C92.3497 52.82 92.553 52.9033 92.7463 53.01C92.9397 53.1167 93.0963 53.26 93.2163 53.44C93.343 53.62 93.4063 53.8567 93.4063 54.15C93.4063 54.5967 93.2463 54.95 92.9263 55.21C92.613 55.47 92.1897 55.6 91.6563 55.6ZM95.9239 55.6C95.6572 55.6 95.4039 55.5667 95.1639 55.5C94.9306 55.4267 94.7139 55.3267 94.5139 55.2C94.3139 55.0667 94.1406 54.91 93.9939 54.73L94.5739 54.15C94.7472 54.3633 94.9472 54.5233 95.1739 54.63C95.4006 54.73 95.6539 54.78 95.9339 54.78C96.2139 54.78 96.4306 54.7333 96.5839 54.64C96.7372 54.54 96.8139 54.4033 96.8139 54.23C96.8139 54.0567 96.7506 53.9233 96.6239 53.83C96.5039 53.73 96.3472 53.65 96.1539 53.59C95.9606 53.5233 95.7539 53.46 95.5339 53.4C95.3206 53.3333 95.1172 53.25 94.9239 53.15C94.7306 53.05 94.5706 52.9133 94.4439 52.74C94.3239 52.5667 94.2639 52.3367 94.2639 52.05C94.2639 51.7633 94.3339 51.5167 94.4739 51.31C94.6139 51.0967 94.8072 50.9333 95.0539 50.82C95.3072 50.7067 95.6106 50.65 95.9639 50.65C96.3372 50.65 96.6672 50.7167 96.9539 50.85C97.2472 50.9767 97.4872 51.17 97.6739 51.43L97.0939 52.01C96.9606 51.8367 96.7939 51.7033 96.5939 51.61C96.4006 51.5167 96.1806 51.47 95.9339 51.47C95.6739 51.47 95.4739 51.5167 95.3339 51.61C95.2006 51.6967 95.1339 51.82 95.1339 51.98C95.1339 52.14 95.1939 52.2633 95.3139 52.35C95.4339 52.4367 95.5906 52.51 95.7839 52.57C95.9839 52.63 96.1906 52.6933 96.4039 52.76C96.6172 52.82 96.8206 52.9033 97.0139 53.01C97.2072 53.1167 97.3639 53.26 97.4839 53.44C97.6106 53.62 97.6739 53.8567 97.6739 54.15C97.6739 54.5967 97.5139 54.95 97.1939 55.21C96.8806 55.47 96.4572 55.6 95.9239 55.6Z" fill="#BCBDBF"/>
<rect x="286.674" y="113.674" width="262.347" height="35.3473" rx="5.67363" transform="rotate(180 286.674 113.674)" fill="#1E2129"/>
<rect x="286.674" y="113.674" width="262.347" height="35.3473" rx="5.67363" transform="rotate(180 286.674 113.674)" stroke="#282A2F" stroke-width="0.652733"/>
<path d="M37.45 96.8V95.98H39.34C39.6 95.98 39.83 95.9267 40.03 95.82C40.2367 95.7133 40.3967 95.5633 40.51 95.37C40.63 95.1767 40.69 94.9467 40.69 94.68C40.69 94.4133 40.63 94.1833 40.51 93.99C40.3967 93.7967 40.2367 93.6467 40.03 93.54C39.83 93.4333 39.6 93.38 39.34 93.38H37.45V92.56H39.4C39.8267 92.56 40.2067 92.6467 40.54 92.82C40.88 92.9933 41.1467 93.24 41.34 93.56C41.54 93.8733 41.64 94.2467 41.64 94.68C41.64 95.1067 41.54 95.48 41.34 95.8C41.1467 96.1133 40.88 96.36 40.54 96.54C40.2067 96.7133 39.8267 96.8 39.4 96.8H37.45ZM36.82 99.5V92.56H37.76V99.5H36.82ZM44.471 99.6C44.0377 99.6 43.6443 99.4933 43.291 99.28C42.9377 99.06 42.6577 98.7633 42.451 98.39C42.251 98.0167 42.151 97.5967 42.151 97.13C42.151 96.6633 42.251 96.2433 42.451 95.87C42.6577 95.4967 42.9343 95.2 43.281 94.98C43.6343 94.76 44.031 94.65 44.471 94.65C44.831 94.65 45.151 94.7267 45.431 94.88C45.7177 95.0267 45.9477 95.2333 46.121 95.5C46.2943 95.76 46.391 96.0633 46.411 96.41V97.84C46.391 98.18 46.2943 98.4833 46.121 98.75C45.9543 99.0167 45.7277 99.2267 45.441 99.38C45.161 99.5267 44.8377 99.6 44.471 99.6ZM44.621 98.75C45.0677 98.75 45.4277 98.6 45.701 98.3C45.9743 97.9933 46.111 97.6033 46.111 97.13C46.111 96.8033 46.0477 96.52 45.921 96.28C45.801 96.0333 45.6277 95.8433 45.401 95.71C45.1743 95.57 44.911 95.5 44.611 95.5C44.311 95.5 44.0443 95.57 43.811 95.71C43.5843 95.85 43.4043 96.0433 43.271 96.29C43.1443 96.53 43.081 96.8067 43.081 97.12C43.081 97.44 43.1443 97.7233 43.271 97.97C43.4043 98.21 43.5877 98.4 43.821 98.54C44.0543 98.68 44.321 98.75 44.621 98.75ZM46.051 99.5V98.22L46.221 97.06L46.051 95.91V94.75H46.961V99.5H46.051ZM49.7813 99.6C49.5147 99.6 49.2613 99.5667 49.0213 99.5C48.788 99.4267 48.5713 99.3267 48.3713 99.2C48.1713 99.0667 47.998 98.91 47.8513 98.73L48.4313 98.15C48.6047 98.3633 48.8047 98.5233 49.0313 98.63C49.258 98.73 49.5113 98.78 49.7913 98.78C50.0713 98.78 50.288 98.7333 50.4413 98.64C50.5947 98.54 50.6713 98.4033 50.6713 98.23C50.6713 98.0567 50.608 97.9233 50.4813 97.83C50.3613 97.73 50.2047 97.65 50.0113 97.59C49.818 97.5233 49.6113 97.46 49.3913 97.4C49.178 97.3333 48.9747 97.25 48.7813 97.15C48.588 97.05 48.428 96.9133 48.3013 96.74C48.1813 96.5667 48.1213 96.3367 48.1213 96.05C48.1213 95.7633 48.1913 95.5167 48.3313 95.31C48.4713 95.0967 48.6647 94.9333 48.9113 94.82C49.1647 94.7067 49.468 94.65 49.8213 94.65C50.1947 94.65 50.5247 94.7167 50.8113 94.85C51.1047 94.9767 51.3447 95.17 51.5313 95.43L50.9513 96.01C50.818 95.8367 50.6513 95.7033 50.4513 95.61C50.258 95.5167 50.038 95.47 49.7913 95.47C49.5313 95.47 49.3313 95.5167 49.1913 95.61C49.058 95.6967 48.9913 95.82 48.9913 95.98C48.9913 96.14 49.0513 96.2633 49.1713 96.35C49.2913 96.4367 49.448 96.51 49.6413 96.57C49.8413 96.63 50.048 96.6933 50.2613 96.76C50.4747 96.82 50.678 96.9033 50.8713 97.01C51.0647 97.1167 51.2213 97.26 51.3413 97.44C51.468 97.62 51.5313 97.8567 51.5313 98.15C51.5313 98.5967 51.3713 98.95 51.0513 99.21C50.738 99.47 50.3147 99.6 49.7813 99.6ZM54.0489 99.6C53.7822 99.6 53.5289 99.5667 53.2889 99.5C53.0556 99.4267 52.8389 99.3267 52.6389 99.2C52.4389 99.0667 52.2656 98.91 52.1189 98.73L52.6989 98.15C52.8722 98.3633 53.0722 98.5233 53.2989 98.63C53.5256 98.73 53.7789 98.78 54.0589 98.78C54.3389 98.78 54.5556 98.7333 54.7089 98.64C54.8622 98.54 54.9389 98.4033 54.9389 98.23C54.9389 98.0567 54.8756 97.9233 54.7489 97.83C54.6289 97.73 54.4722 97.65 54.2789 97.59C54.0856 97.5233 53.8789 97.46 53.6589 97.4C53.4456 97.3333 53.2422 97.25 53.0489 97.15C52.8556 97.05 52.6956 96.9133 52.5689 96.74C52.4489 96.5667 52.3889 96.3367 52.3889 96.05C52.3889 95.7633 52.4589 95.5167 52.5989 95.31C52.7389 95.0967 52.9322 94.9333 53.1789 94.82C53.4322 94.7067 53.7356 94.65 54.0889 94.65C54.4622 94.65 54.7922 94.7167 55.0789 94.85C55.3722 94.9767 55.6122 95.17 55.7989 95.43L55.2189 96.01C55.0856 95.8367 54.9189 95.7033 54.7189 95.61C54.5256 95.5167 54.3056 95.47 54.0589 95.47C53.7989 95.47 53.5989 95.5167 53.4589 95.61C53.3256 95.6967 53.2589 95.82 53.2589 95.98C53.2589 96.14 53.3189 96.2633 53.4389 96.35C53.5589 96.4367 53.7156 96.51 53.9089 96.57C54.1089 96.63 54.3156 96.6933 54.5289 96.76C54.7422 96.82 54.9456 96.9033 55.1389 97.01C55.3322 97.1167 55.4889 97.26 55.6089 97.44C55.7356 97.62 55.7989 97.8567 55.7989 98.15C55.7989 98.5967 55.6389 98.95 55.3189 99.21C55.0056 99.47 54.5822 99.6 54.0489 99.6ZM58.1665 99.5L56.2865 94.75H57.2265L58.5865 98.45H58.2865L59.6365 94.75H60.1565L61.5065 98.45H61.2065L62.5665 94.75H63.5065L61.6365 99.5H61.1065L59.7365 95.91H60.0665L58.6865 99.5H58.1665ZM66.3398 99.6C65.8731 99.6 65.4531 99.49 65.0798 99.27C64.7064 99.05 64.4098 98.7533 64.1898 98.38C63.9698 98 63.8598 97.5767 63.8598 97.11C63.8598 96.65 63.9698 96.2367 64.1898 95.87C64.4098 95.4967 64.7064 95.2 65.0798 94.98C65.4531 94.76 65.8731 94.65 66.3398 94.65C66.7998 94.65 67.2164 94.76 67.5898 94.98C67.9698 95.1933 68.2698 95.4867 68.4898 95.86C68.7098 96.2333 68.8198 96.65 68.8198 97.11C68.8198 97.5767 68.7098 98 68.4898 98.38C68.2698 98.7533 67.9698 99.05 67.5898 99.27C67.2164 99.49 66.7998 99.6 66.3398 99.6ZM66.3398 98.73C66.6398 98.73 66.9064 98.66 67.1398 98.52C67.3731 98.38 67.5564 98.19 67.6898 97.95C67.8231 97.7033 67.8898 97.4233 67.8898 97.11C67.8898 96.8033 67.8198 96.53 67.6798 96.29C67.5464 96.05 67.3631 95.8633 67.1298 95.73C66.9031 95.59 66.6398 95.52 66.3398 95.52C66.0398 95.52 65.7731 95.59 65.5398 95.73C65.3064 95.8633 65.1231 96.05 64.9898 96.29C64.8564 96.53 64.7898 96.8033 64.7898 97.11C64.7898 97.4233 64.8564 97.7033 64.9898 97.95C65.1231 98.19 65.3064 98.38 65.5398 98.52C65.7731 98.66 66.0398 98.73 66.3398 98.73ZM69.8338 99.5V94.75H70.7338V99.5H69.8338ZM70.7338 96.79L70.3938 96.64C70.3938 96.0333 70.5338 95.55 70.8138 95.19C71.0938 94.83 71.4972 94.65 72.0238 94.65C72.2638 94.65 72.4805 94.6933 72.6738 94.78C72.8672 94.86 73.0472 94.9967 73.2138 95.19L72.6238 95.8C72.5238 95.6933 72.4138 95.6167 72.2938 95.57C72.1738 95.5233 72.0338 95.5 71.8738 95.5C71.5405 95.5 71.2672 95.6067 71.0538 95.82C70.8405 96.0333 70.7338 96.3567 70.7338 96.79ZM75.7013 99.6C75.2613 99.6 74.8679 99.4933 74.5213 99.28C74.1746 99.06 73.8979 98.7633 73.6912 98.39C73.4913 98.0167 73.3913 97.5967 73.3913 97.13C73.3913 96.6633 73.4913 96.2433 73.6912 95.87C73.8979 95.4967 74.1746 95.2 74.5213 94.98C74.8679 94.76 75.2613 94.65 75.7013 94.65C76.0546 94.65 76.3746 94.7267 76.6613 94.88C76.9479 95.0267 77.1779 95.2333 77.3513 95.5C77.5313 95.76 77.6313 96.0633 77.6513 96.41V97.84C77.6313 98.18 77.5346 98.4833 77.3613 98.75C77.1879 99.0167 76.9579 99.2267 76.6713 99.38C76.3846 99.5267 76.0613 99.6 75.7013 99.6ZM75.8513 98.75C76.1513 98.75 76.4113 98.68 76.6313 98.54C76.8579 98.4 77.0346 98.21 77.1613 97.97C77.2879 97.7233 77.3513 97.4433 77.3513 97.13C77.3513 96.8033 77.2846 96.52 77.1513 96.28C77.0246 96.04 76.8479 95.85 76.6213 95.71C76.4013 95.57 76.1413 95.5 75.8413 95.5C75.5413 95.5 75.2779 95.57 75.0513 95.71C74.8246 95.85 74.6446 96.0433 74.5113 96.29C74.3846 96.53 74.3213 96.8067 74.3213 97.12C74.3213 97.44 74.3846 97.7233 74.5113 97.97C74.6446 98.21 74.8246 98.4 75.0513 98.54C75.2846 98.68 75.5513 98.75 75.8513 98.75ZM78.2013 99.5H77.2913V98.22L77.4613 97.06L77.2913 95.91V92.36H78.2013V99.5Z" fill="#BCBDBF"/>
<defs>
<linearGradient id="paint0_linear_7170_13708" x1="287" y1="171.775" x2="447.992" y2="313.707" gradientUnits="userSpaceOnUse">
<stop stop-color="#30C5D2"/>
<stop offset="1" stop-color="#471069"/>
</linearGradient>
</defs>
</svg>
