<svg width="311" height="186" viewBox="0 0 311 186" fill="none" xmlns="http://www.w3.org/2000/svg">
<rect width="311" height="186" rx="12" fill="#101217"/>
<circle cx="14" cy="14" r="4" fill="#D95A57"/>
<circle cx="26" cy="14" r="4" fill="#585A5D"/>
<circle cx="38" cy="14" r="4" fill="#52BE80"/>
<rect x="287" y="162" width="263" height="36" rx="6" transform="rotate(180 287 162)" fill="url(#paint0_linear_7173_13876)"/>
<path d="M134.063 146.15C134.103 146.337 134.183 146.51 134.303 146.67C134.43 146.83 134.6 146.96 134.813 147.06C135.026 147.16 135.29 147.21 135.603 147.21C136.07 147.21 136.413 147.103 136.633 146.89C136.86 146.67 136.973 146.413 136.973 146.12C136.973 145.88 136.903 145.683 136.763 145.53C136.63 145.37 136.443 145.237 136.203 145.13C135.97 145.017 135.7 144.917 135.393 144.83C135.126 144.75 134.863 144.667 134.603 144.58C134.35 144.487 134.12 144.373 133.913 144.24C133.706 144.1 133.543 143.923 133.423 143.71C133.303 143.49 133.243 143.217 133.243 142.89C133.243 142.483 133.34 142.133 133.533 141.84C133.726 141.547 133.996 141.323 134.343 141.17C134.696 141.01 135.103 140.93 135.563 140.93C135.95 140.93 136.296 140.987 136.603 141.1C136.91 141.207 137.166 141.363 137.373 141.57C137.586 141.77 137.743 142.013 137.843 142.3L136.933 142.63C136.893 142.483 136.81 142.347 136.683 142.22C136.556 142.087 136.396 141.98 136.203 141.9C136.01 141.82 135.793 141.78 135.553 141.78C135.306 141.773 135.083 141.813 134.883 141.9C134.69 141.98 134.533 142.097 134.413 142.25C134.3 142.403 134.243 142.587 134.243 142.8C134.243 143.033 134.31 143.217 134.443 143.35C134.576 143.483 134.753 143.593 134.973 143.68C135.2 143.767 135.446 143.85 135.713 143.93C135.993 144.017 136.266 144.11 136.533 144.21C136.8 144.31 137.04 144.437 137.253 144.59C137.473 144.743 137.65 144.937 137.783 145.17C137.916 145.397 137.983 145.683 137.983 146.03C137.983 146.403 137.896 146.743 137.723 147.05C137.55 147.357 137.286 147.603 136.933 147.79C136.586 147.977 136.15 148.07 135.623 148.07C135.19 148.07 134.8 148.003 134.453 147.87C134.106 147.737 133.82 147.553 133.593 147.32C133.373 147.08 133.226 146.803 133.153 146.49L134.063 146.15ZM143.354 148H142.494L142.424 147.41C142.264 147.623 142.061 147.787 141.814 147.9C141.574 148.013 141.304 148.07 141.004 148.07C140.617 148.07 140.281 147.99 139.994 147.83C139.707 147.663 139.484 147.423 139.324 147.11C139.171 146.79 139.094 146.393 139.094 145.92V143H140.044V145.8C140.044 146.26 140.137 146.61 140.324 146.85C140.517 147.09 140.807 147.21 141.194 147.21C141.574 147.21 141.871 147.087 142.084 146.84C142.304 146.593 142.414 146.227 142.414 145.74V143H143.354V148ZM145.62 143.85C145.773 143.59 146 143.373 146.3 143.2C146.606 143.02 146.976 142.93 147.41 142.93C147.863 142.93 148.26 143.037 148.6 143.25C148.94 143.463 149.203 143.763 149.39 144.15C149.583 144.537 149.68 144.987 149.68 145.5C149.68 146.013 149.583 146.463 149.39 146.85C149.196 147.237 148.93 147.537 148.59 147.75C148.25 147.963 147.856 148.07 147.41 148.07C147.003 148.07 146.656 147.99 146.37 147.83C146.09 147.67 145.87 147.477 145.71 147.25L145.64 148H144.78V140.8H145.72V143.88L145.62 143.85ZM148.66 145.5C148.66 144.987 148.523 144.573 148.25 144.26C147.983 143.947 147.633 143.79 147.2 143.79C146.92 143.79 146.67 143.86 146.45 144C146.23 144.133 146.053 144.327 145.92 144.58C145.786 144.833 145.72 145.14 145.72 145.5C145.72 145.86 145.786 146.17 145.92 146.43C146.053 146.683 146.23 146.877 146.45 147.01C146.67 147.143 146.92 147.21 147.2 147.21C147.633 147.21 147.983 147.053 148.25 146.74C148.523 146.427 148.66 146.013 148.66 145.5ZM151.336 146.42C151.382 146.62 151.462 146.777 151.576 146.89C151.689 147.003 151.822 147.087 151.976 147.14C152.136 147.187 152.302 147.21 152.476 147.21C152.776 147.21 153.009 147.15 153.176 147.03C153.342 146.91 153.426 146.76 153.426 146.58C153.426 146.427 153.372 146.307 153.266 146.22C153.166 146.127 153.029 146.053 152.856 146C152.689 145.947 152.509 145.897 152.316 145.85C152.142 145.803 151.952 145.75 151.746 145.69C151.546 145.63 151.356 145.55 151.176 145.45C151.002 145.343 150.859 145.21 150.746 145.05C150.632 144.883 150.576 144.673 150.576 144.42C150.576 144.12 150.656 143.86 150.816 143.64C150.982 143.413 151.209 143.24 151.496 143.12C151.789 142.993 152.119 142.93 152.486 142.93C152.912 142.93 153.286 143.023 153.606 143.21C153.932 143.39 154.169 143.663 154.316 144.03L153.466 144.31C153.419 144.183 153.342 144.08 153.236 144C153.129 143.92 153.006 143.867 152.866 143.84C152.732 143.807 152.599 143.79 152.466 143.79C152.212 143.79 152.002 143.84 151.836 143.94C151.669 144.04 151.586 144.187 151.586 144.38C151.586 144.487 151.612 144.577 151.666 144.65C151.719 144.717 151.792 144.773 151.886 144.82C151.986 144.86 152.102 144.897 152.236 144.93C152.369 144.963 152.512 145 152.666 145.04C152.866 145.1 153.069 145.167 153.276 145.24C153.482 145.307 153.672 145.393 153.846 145.5C154.019 145.607 154.159 145.747 154.266 145.92C154.372 146.093 154.429 146.307 154.436 146.56C154.436 146.853 154.352 147.113 154.186 147.34C154.026 147.567 153.796 147.747 153.496 147.88C153.202 148.007 152.852 148.07 152.446 148.07C151.952 148.07 151.532 147.96 151.186 147.74C150.839 147.52 150.606 147.18 150.486 146.72L151.336 146.42ZM157.72 148.07C157.24 148.07 156.817 147.963 156.45 147.75C156.084 147.53 155.797 147.23 155.59 146.85C155.39 146.47 155.29 146.027 155.29 145.52C155.29 145.007 155.394 144.557 155.6 144.17C155.807 143.783 156.094 143.48 156.46 143.26C156.827 143.04 157.254 142.93 157.74 142.93C158.254 142.93 158.704 143.05 159.09 143.29C159.484 143.53 159.767 143.853 159.94 144.26L159.09 144.56C158.99 144.327 158.82 144.14 158.58 144C158.347 143.86 158.08 143.79 157.78 143.79C157.474 143.79 157.21 143.863 156.99 144.01C156.77 144.15 156.6 144.35 156.48 144.61C156.36 144.863 156.3 145.163 156.3 145.51C156.3 146.03 156.434 146.443 156.7 146.75C156.967 147.057 157.327 147.21 157.78 147.21C158.08 147.21 158.347 147.143 158.58 147.01C158.82 146.877 159 146.693 159.12 146.46L159.96 146.76C159.774 147.16 159.48 147.48 159.08 147.72C158.68 147.953 158.227 148.07 157.72 148.07ZM161.108 143H161.968L162.028 143.67C162.168 143.497 162.328 143.353 162.508 143.24C162.694 143.12 162.894 143.037 163.108 142.99C163.328 142.943 163.554 142.947 163.788 143V143.89C163.568 143.837 163.354 143.83 163.148 143.87C162.941 143.91 162.754 143.997 162.588 144.13C162.428 144.257 162.298 144.427 162.198 144.64C162.098 144.853 162.048 145.11 162.048 145.41V148H161.108V143ZM164.891 143H165.841V148H164.891V143ZM165.371 142.12C165.191 142.12 165.041 142.06 164.921 141.94C164.801 141.82 164.741 141.673 164.741 141.5C164.741 141.32 164.801 141.17 164.921 141.05C165.041 140.923 165.191 140.86 165.371 140.86C165.544 140.86 165.691 140.923 165.811 141.05C165.937 141.17 166.001 141.32 166.001 141.5C166.001 141.673 165.937 141.82 165.811 141.94C165.691 142.06 165.544 142.12 165.371 142.12ZM168.256 143.85C168.41 143.59 168.636 143.373 168.936 143.2C169.243 143.02 169.613 142.93 170.046 142.93C170.5 142.93 170.896 143.037 171.236 143.25C171.576 143.463 171.84 143.763 172.026 144.15C172.22 144.537 172.316 144.987 172.316 145.5C172.316 146.013 172.22 146.463 172.026 146.85C171.833 147.237 171.566 147.537 171.226 147.75C170.886 147.963 170.493 148.07 170.046 148.07C169.64 148.07 169.293 147.99 169.006 147.83C168.726 147.67 168.506 147.477 168.346 147.25L168.276 148H167.416V140.8H168.356V143.88L168.256 143.85ZM171.296 145.5C171.296 144.987 171.16 144.573 170.886 144.26C170.62 143.947 170.27 143.79 169.836 143.79C169.556 143.79 169.306 143.86 169.086 144C168.866 144.133 168.69 144.327 168.556 144.58C168.423 144.833 168.356 145.14 168.356 145.5C168.356 145.86 168.423 146.17 168.556 146.43C168.69 146.683 168.866 146.877 169.086 147.01C169.306 147.143 169.556 147.21 169.836 147.21C170.27 147.21 170.62 147.053 170.886 146.74C171.16 146.427 171.296 146.013 171.296 145.5ZM175.582 148.07C175.102 148.07 174.676 147.96 174.302 147.74C173.936 147.513 173.646 147.203 173.432 146.81C173.226 146.417 173.122 145.967 173.122 145.46C173.122 144.973 173.226 144.54 173.432 144.16C173.639 143.78 173.922 143.48 174.282 143.26C174.649 143.04 175.062 142.93 175.522 142.93C175.989 142.93 176.402 143.033 176.762 143.24C177.122 143.44 177.402 143.723 177.602 144.09C177.802 144.45 177.899 144.867 177.892 145.34C177.892 145.42 177.889 145.503 177.882 145.59C177.876 145.67 177.866 145.76 177.852 145.86H174.152C174.172 146.127 174.246 146.363 174.372 146.57C174.506 146.77 174.672 146.927 174.872 147.04C175.079 147.153 175.312 147.21 175.572 147.21C175.906 147.21 176.196 147.147 176.442 147.02C176.689 146.887 176.862 146.71 176.962 146.49L177.782 146.78C177.582 147.187 177.289 147.503 176.902 147.73C176.522 147.957 176.082 148.07 175.582 148.07ZM176.862 145.05C176.862 144.81 176.802 144.593 176.682 144.4C176.562 144.207 176.399 144.057 176.192 143.95C175.992 143.837 175.766 143.78 175.512 143.78C175.286 143.78 175.076 143.837 174.882 143.95C174.696 144.057 174.536 144.207 174.402 144.4C174.276 144.587 174.196 144.803 174.162 145.05H176.862Z" fill="white"/>
<rect x="103.674" y="113.674" width="79.3473" height="79.3473" rx="5.67363" transform="rotate(180 103.674 113.674)" fill="#1E2129"/>
<rect x="103.674" y="113.674" width="79.3473" height="79.3473" rx="5.67363" transform="rotate(180 103.674 113.674)" stroke="#282A2F" stroke-width="0.652733"/>
<path d="M36.82 56V49.06H37.76V56H36.82ZM37.46 52.95V52.09H41.08V52.95H37.46ZM37.46 49.92V49.06H41.25V49.92H37.46ZM42.3241 56V51.25H43.2241V56H42.3241ZM43.2241 53.29L42.8841 53.14C42.8841 52.5333 43.0241 52.05 43.3041 51.69C43.5841 51.33 43.9874 51.15 44.5141 51.15C44.7541 51.15 44.9707 51.1933 45.1641 51.28C45.3574 51.36 45.5374 51.4967 45.7041 51.69L45.1141 52.3C45.0141 52.1933 44.9041 52.1167 44.7841 52.07C44.6641 52.0233 44.5241 52 44.3641 52C44.0307 52 43.7574 52.1067 43.5441 52.32C43.3307 52.5333 43.2241 52.8567 43.2241 53.29ZM48.3815 56.1C47.9082 56.1 47.4815 55.9933 47.1015 55.78C46.7215 55.56 46.4215 55.2633 46.2015 54.89C45.9815 54.5167 45.8715 54.0933 45.8715 53.62C45.8715 53.1533 45.9782 52.7333 46.1915 52.36C46.4115 51.9867 46.7048 51.6933 47.0715 51.48C47.4448 51.26 47.8615 51.15 48.3215 51.15C48.7615 51.15 49.1482 51.25 49.4815 51.45C49.8215 51.65 50.0848 51.9267 50.2715 52.28C50.4648 52.6333 50.5615 53.0333 50.5615 53.48C50.5615 53.5467 50.5582 53.62 50.5515 53.7C50.5448 53.7733 50.5315 53.86 50.5115 53.96H46.5015V53.21H50.0315L49.7015 53.5C49.7015 53.18 49.6448 52.91 49.5315 52.69C49.4182 52.4633 49.2582 52.29 49.0515 52.17C48.8448 52.0433 48.5948 51.98 48.3015 51.98C47.9948 51.98 47.7248 52.0467 47.4915 52.18C47.2582 52.3133 47.0782 52.5 46.9515 52.74C46.8248 52.98 46.7615 53.2633 46.7615 53.59C46.7615 53.9233 46.8282 54.2167 46.9615 54.47C47.0948 54.7167 47.2848 54.91 47.5315 55.05C47.7782 55.1833 48.0615 55.25 48.3815 55.25C48.6482 55.25 48.8915 55.2033 49.1115 55.11C49.3382 55.0167 49.5315 54.8767 49.6915 54.69L50.2715 55.28C50.0448 55.5467 49.7648 55.75 49.4315 55.89C49.1048 56.03 48.7548 56.1 48.3815 56.1ZM53.7428 56.1C53.2695 56.1 52.8428 55.9933 52.4628 55.78C52.0828 55.56 51.7828 55.2633 51.5628 54.89C51.3428 54.5167 51.2328 54.0933 51.2328 53.62C51.2328 53.1533 51.3395 52.7333 51.5528 52.36C51.7728 51.9867 52.0661 51.6933 52.4328 51.48C52.8061 51.26 53.2228 51.15 53.6828 51.15C54.1228 51.15 54.5095 51.25 54.8428 51.45C55.1828 51.65 55.4461 51.9267 55.6328 52.28C55.8261 52.6333 55.9228 53.0333 55.9228 53.48C55.9228 53.5467 55.9195 53.62 55.9128 53.7C55.9061 53.7733 55.8928 53.86 55.8728 53.96H51.8628V53.21H55.3928L55.0628 53.5C55.0628 53.18 55.0061 52.91 54.8928 52.69C54.7795 52.4633 54.6195 52.29 54.4128 52.17C54.2061 52.0433 53.9561 51.98 53.6628 51.98C53.3561 51.98 53.0861 52.0467 52.8528 52.18C52.6195 52.3133 52.4395 52.5 52.3128 52.74C52.1861 52.98 52.1228 53.2633 52.1228 53.59C52.1228 53.9233 52.1895 54.2167 52.3228 54.47C52.4561 54.7167 52.6461 54.91 52.8928 55.05C53.1395 55.1833 53.4228 55.25 53.7428 55.25C54.0095 55.25 54.2528 55.2033 54.4728 55.11C54.6995 55.0167 54.8928 54.8767 55.0528 54.69L55.6328 55.28C55.4061 55.5467 55.1261 55.75 54.7928 55.89C54.4661 56.03 54.1161 56.1 53.7428 56.1ZM60.828 56V49.26H61.768V56H60.828ZM58.468 49.92V49.06H64.118V49.92H58.468ZM64.0135 56V51.25H64.9135V56H64.0135ZM64.9135 53.29L64.5735 53.14C64.5735 52.5333 64.7135 52.05 64.9935 51.69C65.2735 51.33 65.6768 51.15 66.2035 51.15C66.4435 51.15 66.6602 51.1933 66.8535 51.28C67.0468 51.36 67.2268 51.4967 67.3935 51.69L66.8035 52.3C66.7035 52.1933 66.5935 52.1167 66.4735 52.07C66.3535 52.0233 66.2135 52 66.0535 52C65.7202 52 65.4468 52.1067 65.2335 52.32C65.0202 52.5333 64.9135 52.8567 64.9135 53.29ZM68.0372 56V51.25H68.9372V56H68.0372ZM68.4872 50.3C68.3205 50.3 68.1839 50.2467 68.0772 50.14C67.9705 50.0267 67.9172 49.8867 67.9172 49.72C67.9172 49.56 67.9705 49.4267 68.0772 49.32C68.1839 49.2067 68.3205 49.15 68.4872 49.15C68.6539 49.15 68.7905 49.2067 68.8972 49.32C69.0039 49.4267 69.0572 49.56 69.0572 49.72C69.0572 49.8867 69.0039 50.0267 68.8972 50.14C68.7905 50.2467 68.6539 50.3 68.4872 50.3ZM72.2835 56.1C71.8502 56.1 71.4568 55.9933 71.1035 55.78C70.7502 55.56 70.4702 55.2633 70.2635 54.89C70.0635 54.5167 69.9635 54.0967 69.9635 53.63C69.9635 53.1633 70.0635 52.7433 70.2635 52.37C70.4702 51.9967 70.7468 51.7 71.0935 51.48C71.4468 51.26 71.8435 51.15 72.2835 51.15C72.6435 51.15 72.9635 51.2267 73.2435 51.38C73.5302 51.5267 73.7602 51.7333 73.9335 52C74.1068 52.26 74.2035 52.5633 74.2235 52.91V54.34C74.2035 54.68 74.1068 54.9833 73.9335 55.25C73.7668 55.5167 73.5402 55.7267 73.2535 55.88C72.9735 56.0267 72.6502 56.1 72.2835 56.1ZM72.4335 55.25C72.8802 55.25 73.2402 55.1 73.5135 54.8C73.7868 54.4933 73.9235 54.1033 73.9235 53.63C73.9235 53.3033 73.8602 53.02 73.7335 52.78C73.6135 52.5333 73.4402 52.3433 73.2135 52.21C72.9868 52.07 72.7235 52 72.4235 52C72.1235 52 71.8568 52.07 71.6235 52.21C71.3968 52.35 71.2168 52.5433 71.0835 52.79C70.9568 53.03 70.8935 53.3067 70.8935 53.62C70.8935 53.94 70.9568 54.2233 71.0835 54.47C71.2168 54.71 71.4002 54.9 71.6335 55.04C71.8668 55.18 72.1335 55.25 72.4335 55.25ZM73.8635 56V54.72L74.0335 53.56L73.8635 52.41V51.25H74.7735V56H73.8635ZM76.0838 56V48.86H76.9838V56H76.0838Z" fill="white"/>
<rect x="36" y="68" width="55" height="6" rx="3" fill="url(#paint1_linear_7173_13876)"/>
<rect x="36" y="82" width="55" height="6" rx="3" fill="url(#paint2_linear_7173_13876)"/>
<rect x="36" y="96" width="32" height="6" rx="3" fill="url(#paint3_linear_7173_13876)"/>
<rect x="195.674" y="113.674" width="79.3473" height="79.3473" rx="5.67363" transform="rotate(180 195.674 113.674)" fill="#1E2129"/>
<rect x="195.674" y="113.674" width="79.3473" height="79.3473" rx="5.67363" transform="rotate(180 195.674 113.674)" stroke="#282A2F" stroke-width="0.652733"/>
<path d="M129.45 56V55.18H131.55C131.95 55.18 132.263 55.0633 132.49 54.83C132.717 54.59 132.83 54.3033 132.83 53.97C132.83 53.7433 132.78 53.54 132.68 53.36C132.58 53.1733 132.433 53.0267 132.24 52.92C132.053 52.8133 131.833 52.76 131.58 52.76H129.45V51.94H131.44C131.773 51.94 132.037 51.8533 132.23 51.68C132.43 51.5 132.53 51.2433 132.53 50.91C132.53 50.5767 132.427 50.3233 132.22 50.15C132.013 49.97 131.74 49.88 131.4 49.88H129.45V49.06H131.42C131.873 49.06 132.25 49.1433 132.55 49.31C132.857 49.47 133.087 49.6833 133.24 49.95C133.4 50.2167 133.48 50.51 133.48 50.83C133.48 51.2033 133.377 51.53 133.17 51.81C132.97 52.09 132.673 52.31 132.28 52.47L132.36 52.17C132.807 52.33 133.153 52.5733 133.4 52.9C133.653 53.22 133.78 53.6 133.78 54.04C133.78 54.4067 133.69 54.7367 133.51 55.03C133.33 55.3233 133.07 55.56 132.73 55.74C132.397 55.9133 131.987 56 131.5 56H129.45ZM128.82 56V49.06H129.76V56H128.82ZM136.91 56.1C136.477 56.1 136.084 55.9933 135.73 55.78C135.377 55.56 135.097 55.2633 134.89 54.89C134.69 54.5167 134.59 54.0967 134.59 53.63C134.59 53.1633 134.69 52.7433 134.89 52.37C135.097 51.9967 135.374 51.7 135.72 51.48C136.074 51.26 136.47 51.15 136.91 51.15C137.27 51.15 137.59 51.2267 137.87 51.38C138.157 51.5267 138.387 51.7333 138.56 52C138.734 52.26 138.83 52.5633 138.85 52.91V54.34C138.83 54.68 138.734 54.9833 138.56 55.25C138.394 55.5167 138.167 55.7267 137.88 55.88C137.6 56.0267 137.277 56.1 136.91 56.1ZM137.06 55.25C137.507 55.25 137.867 55.1 138.14 54.8C138.414 54.4933 138.55 54.1033 138.55 53.63C138.55 53.3033 138.487 53.02 138.36 52.78C138.24 52.5333 138.067 52.3433 137.84 52.21C137.614 52.07 137.35 52 137.05 52C136.75 52 136.484 52.07 136.25 52.21C136.024 52.35 135.844 52.5433 135.71 52.79C135.584 53.03 135.52 53.3067 135.52 53.62C135.52 53.94 135.584 54.2233 135.71 54.47C135.844 54.71 136.027 54.9 136.26 55.04C136.494 55.18 136.76 55.25 137.06 55.25ZM138.49 56V54.72L138.66 53.56L138.49 52.41V51.25H139.4V56H138.49ZM142.221 56.1C141.954 56.1 141.701 56.0667 141.461 56C141.227 55.9267 141.011 55.8267 140.811 55.7C140.611 55.5667 140.437 55.41 140.291 55.23L140.871 54.65C141.044 54.8633 141.244 55.0233 141.471 55.13C141.697 55.23 141.951 55.28 142.231 55.28C142.511 55.28 142.727 55.2333 142.881 55.14C143.034 55.04 143.111 54.9033 143.111 54.73C143.111 54.5567 143.047 54.4233 142.921 54.33C142.801 54.23 142.644 54.15 142.451 54.09C142.257 54.0233 142.051 53.96 141.831 53.9C141.617 53.8333 141.414 53.75 141.221 53.65C141.027 53.55 140.867 53.4133 140.741 53.24C140.621 53.0667 140.561 52.8367 140.561 52.55C140.561 52.2633 140.631 52.0167 140.771 51.81C140.911 51.5967 141.104 51.4333 141.351 51.32C141.604 51.2067 141.907 51.15 142.261 51.15C142.634 51.15 142.964 51.2167 143.251 51.35C143.544 51.4767 143.784 51.67 143.971 51.93L143.391 52.51C143.257 52.3367 143.091 52.2033 142.891 52.11C142.697 52.0167 142.477 51.97 142.231 51.97C141.971 51.97 141.771 52.0167 141.631 52.11C141.497 52.1967 141.431 52.32 141.431 52.48C141.431 52.64 141.491 52.7633 141.611 52.85C141.731 52.9367 141.887 53.01 142.081 53.07C142.281 53.13 142.487 53.1933 142.701 53.26C142.914 53.32 143.117 53.4033 143.311 53.51C143.504 53.6167 143.661 53.76 143.781 53.94C143.907 54.12 143.971 54.3567 143.971 54.65C143.971 55.0967 143.811 55.45 143.491 55.71C143.177 55.97 142.754 56.1 142.221 56.1ZM144.988 56V51.25H145.888V56H144.988ZM145.438 50.3C145.272 50.3 145.135 50.2467 145.028 50.14C144.922 50.0267 144.868 49.8867 144.868 49.72C144.868 49.56 144.922 49.4267 145.028 49.32C145.135 49.2067 145.272 49.15 145.438 49.15C145.605 49.15 145.742 49.2067 145.848 49.32C145.955 49.4267 146.008 49.56 146.008 49.72C146.008 49.8867 145.955 50.0267 145.848 50.14C145.742 50.2467 145.605 50.3 145.438 50.3ZM149.385 56.1C148.918 56.1 148.495 55.99 148.115 55.77C147.741 55.55 147.445 55.2533 147.225 54.88C147.011 54.5 146.905 54.08 146.905 53.62C146.905 53.1533 147.011 52.7333 147.225 52.36C147.445 51.9867 147.741 51.6933 148.115 51.48C148.495 51.26 148.918 51.15 149.385 51.15C149.751 51.15 150.091 51.22 150.405 51.36C150.718 51.4933 150.988 51.69 151.215 51.95L150.615 52.55C150.468 52.3767 150.288 52.2467 150.075 52.16C149.868 52.0667 149.638 52.02 149.385 52.02C149.085 52.02 148.818 52.09 148.585 52.23C148.351 52.3633 148.168 52.55 148.035 52.79C147.901 53.03 147.835 53.3067 147.835 53.62C147.835 53.9333 147.901 54.21 148.035 54.45C148.168 54.69 148.351 54.88 148.585 55.02C148.818 55.16 149.085 55.23 149.385 55.23C149.638 55.23 149.868 55.1867 150.075 55.1C150.288 55.0067 150.471 54.8733 150.625 54.7L151.215 55.3C150.995 55.5533 150.725 55.75 150.405 55.89C150.091 56.03 149.751 56.1 149.385 56.1Z" fill="white"/>
<rect x="128" y="68" width="55" height="6" rx="3" fill="url(#paint4_linear_7173_13876)"/>
<rect x="128" y="82" width="55" height="6" rx="3" fill="url(#paint5_linear_7173_13876)"/>
<rect x="128" y="96" width="32" height="6" rx="3" fill="url(#paint6_linear_7173_13876)"/>
<rect x="286.674" y="113.674" width="79.3473" height="79.3473" rx="5.67363" transform="rotate(180 286.674 113.674)" fill="#1E2129"/>
<rect x="286.674" y="113.674" width="79.3473" height="79.3473" rx="5.67363" transform="rotate(180 286.674 113.674)" stroke="#282A2F" stroke-width="0.652733"/>
<path d="M219.31 56L222.15 49.06H222.83L225.66 56H224.64L222.31 50.13H222.66L220.31 56H219.31ZM220.66 54.43V53.61H224.31V54.43H220.66ZM228.49 56.1C228.023 56.1 227.6 55.99 227.22 55.77C226.847 55.55 226.55 55.2533 226.33 54.88C226.117 54.5 226.01 54.08 226.01 53.62C226.01 53.1533 226.117 52.7333 226.33 52.36C226.55 51.9867 226.847 51.6933 227.22 51.48C227.6 51.26 228.023 51.15 228.49 51.15C228.857 51.15 229.197 51.22 229.51 51.36C229.823 51.4933 230.093 51.69 230.32 51.95L229.72 52.55C229.573 52.3767 229.393 52.2467 229.18 52.16C228.973 52.0667 228.743 52.02 228.49 52.02C228.19 52.02 227.923 52.09 227.69 52.23C227.457 52.3633 227.273 52.55 227.14 52.79C227.007 53.03 226.94 53.3067 226.94 53.62C226.94 53.9333 227.007 54.21 227.14 54.45C227.273 54.69 227.457 54.88 227.69 55.02C227.923 55.16 228.19 55.23 228.49 55.23C228.743 55.23 228.973 55.1867 229.18 55.1C229.393 55.0067 229.577 54.8733 229.73 54.7L230.32 55.3C230.1 55.5533 229.83 55.75 229.51 55.89C229.197 56.03 228.857 56.1 228.49 56.1ZM231.884 56V49.26H232.784V56H231.884ZM230.714 52.07V51.25H233.954V52.07H230.714ZM234.846 56V51.25H235.746V56H234.846ZM235.296 50.3C235.129 50.3 234.992 50.2467 234.886 50.14C234.779 50.0267 234.726 49.8867 234.726 49.72C234.726 49.56 234.779 49.4267 234.886 49.32C234.992 49.2067 235.129 49.15 235.296 49.15C235.462 49.15 235.599 49.2067 235.706 49.32C235.812 49.4267 235.866 49.56 235.866 49.72C235.866 49.8867 235.812 50.0267 235.706 50.14C235.599 50.2467 235.462 50.3 235.296 50.3ZM238.702 56L236.522 51.25H237.522L239.272 55.26H238.692L240.452 51.25H241.412L239.232 56H238.702ZM244.194 56.1C243.721 56.1 243.294 55.9933 242.914 55.78C242.534 55.56 242.234 55.2633 242.014 54.89C241.794 54.5167 241.684 54.0933 241.684 53.62C241.684 53.1533 241.791 52.7333 242.004 52.36C242.224 51.9867 242.517 51.6933 242.884 51.48C243.257 51.26 243.674 51.15 244.134 51.15C244.574 51.15 244.961 51.25 245.294 51.45C245.634 51.65 245.897 51.9267 246.084 52.28C246.277 52.6333 246.374 53.0333 246.374 53.48C246.374 53.5467 246.371 53.62 246.364 53.7C246.357 53.7733 246.344 53.86 246.324 53.96H242.314V53.21H245.844L245.514 53.5C245.514 53.18 245.457 52.91 245.344 52.69C245.231 52.4633 245.071 52.29 244.864 52.17C244.657 52.0433 244.407 51.98 244.114 51.98C243.807 51.98 243.537 52.0467 243.304 52.18C243.071 52.3133 242.891 52.5 242.764 52.74C242.637 52.98 242.574 53.2633 242.574 53.59C242.574 53.9233 242.641 54.2167 242.774 54.47C242.907 54.7167 243.097 54.91 243.344 55.05C243.591 55.1833 243.874 55.25 244.194 55.25C244.461 55.25 244.704 55.2033 244.924 55.11C245.151 55.0167 245.344 54.8767 245.504 54.69L246.084 55.28C245.857 55.5467 245.577 55.75 245.244 55.89C244.917 56.03 244.567 56.1 244.194 56.1ZM252.195 56.1C251.682 56.1 251.222 55.9867 250.815 55.76C250.415 55.5267 250.099 55.21 249.865 54.81C249.632 54.4033 249.515 53.9433 249.515 53.43V49.06H250.455V53.41C250.455 53.7767 250.532 54.0933 250.685 54.36C250.839 54.6267 251.045 54.8333 251.305 54.98C251.572 55.1267 251.869 55.2 252.195 55.2C252.535 55.2 252.832 55.1267 253.085 54.98C253.345 54.8333 253.549 54.6267 253.695 54.36C253.849 54.0933 253.925 53.78 253.925 53.42V49.06H254.875V53.44C254.875 53.9533 254.759 54.41 254.525 54.81C254.292 55.21 253.975 55.5267 253.575 55.76C253.175 55.9867 252.715 56.1 252.195 56.1ZM257.772 56.1C257.505 56.1 257.252 56.0667 257.012 56C256.778 55.9267 256.562 55.8267 256.362 55.7C256.162 55.5667 255.988 55.41 255.842 55.23L256.422 54.65C256.595 54.8633 256.795 55.0233 257.022 55.13C257.248 55.23 257.502 55.28 257.782 55.28C258.062 55.28 258.278 55.2333 258.432 55.14C258.585 55.04 258.662 54.9033 258.662 54.73C258.662 54.5567 258.598 54.4233 258.472 54.33C258.352 54.23 258.195 54.15 258.002 54.09C257.808 54.0233 257.602 53.96 257.382 53.9C257.168 53.8333 256.965 53.75 256.772 53.65C256.578 53.55 256.418 53.4133 256.292 53.24C256.172 53.0667 256.112 52.8367 256.112 52.55C256.112 52.2633 256.182 52.0167 256.322 51.81C256.462 51.5967 256.655 51.4333 256.902 51.32C257.155 51.2067 257.458 51.15 257.812 51.15C258.185 51.15 258.515 51.2167 258.802 51.35C259.095 51.4767 259.335 51.67 259.522 51.93L258.942 52.51C258.808 52.3367 258.642 52.2033 258.442 52.11C258.248 52.0167 258.028 51.97 257.782 51.97C257.522 51.97 257.322 52.0167 257.182 52.11C257.048 52.1967 256.982 52.32 256.982 52.48C256.982 52.64 257.042 52.7633 257.162 52.85C257.282 52.9367 257.438 53.01 257.632 53.07C257.832 53.13 258.038 53.1933 258.252 53.26C258.465 53.32 258.668 53.4033 258.862 53.51C259.055 53.6167 259.212 53.76 259.332 53.94C259.458 54.12 259.522 54.3567 259.522 54.65C259.522 55.0967 259.362 55.45 259.042 55.71C258.728 55.97 258.305 56.1 257.772 56.1ZM262.729 56.1C262.256 56.1 261.829 55.9933 261.449 55.78C261.069 55.56 260.769 55.2633 260.549 54.89C260.329 54.5167 260.219 54.0933 260.219 53.62C260.219 53.1533 260.326 52.7333 260.539 52.36C260.759 51.9867 261.052 51.6933 261.419 51.48C261.792 51.26 262.209 51.15 262.669 51.15C263.109 51.15 263.496 51.25 263.829 51.45C264.169 51.65 264.432 51.9267 264.619 52.28C264.812 52.6333 264.909 53.0333 264.909 53.48C264.909 53.5467 264.906 53.62 264.899 53.7C264.892 53.7733 264.879 53.86 264.859 53.96H260.849V53.21H264.379L264.049 53.5C264.049 53.18 263.992 52.91 263.879 52.69C263.766 52.4633 263.606 52.29 263.399 52.17C263.192 52.0433 262.942 51.98 262.649 51.98C262.342 51.98 262.072 52.0467 261.839 52.18C261.606 52.3133 261.426 52.5 261.299 52.74C261.172 52.98 261.109 53.2633 261.109 53.59C261.109 53.9233 261.176 54.2167 261.309 54.47C261.442 54.7167 261.632 54.91 261.879 55.05C262.126 55.1833 262.409 55.25 262.729 55.25C262.996 55.25 263.239 55.2033 263.459 55.11C263.686 55.0167 263.879 54.8767 264.039 54.69L264.619 55.28C264.392 55.5467 264.112 55.75 263.779 55.89C263.452 56.03 263.102 56.1 262.729 56.1ZM265.89 56V51.25H266.79V56H265.89ZM266.79 53.29L266.45 53.14C266.45 52.5333 266.59 52.05 266.87 51.69C267.15 51.33 267.554 51.15 268.08 51.15C268.32 51.15 268.537 51.1933 268.73 51.28C268.924 51.36 269.104 51.4967 269.27 51.69L268.68 52.3C268.58 52.1933 268.47 52.1167 268.35 52.07C268.23 52.0233 268.09 52 267.93 52C267.597 52 267.324 52.1067 267.11 52.32C266.897 52.5333 266.79 52.8567 266.79 53.29Z" fill="white"/>
<rect x="219" y="68" width="55" height="6" rx="3" fill="url(#paint7_linear_7173_13876)"/>
<rect x="219" y="82" width="55" height="6" rx="3" fill="url(#paint8_linear_7173_13876)"/>
<rect x="219" y="96" width="32" height="6" rx="3" fill="url(#paint9_linear_7173_13876)"/>
<defs>
<linearGradient id="paint0_linear_7173_13876" x1="287" y1="171.775" x2="447.992" y2="313.707" gradientUnits="userSpaceOnUse">
<stop stop-color="#30C5D2"/>
<stop offset="1" stop-color="#471069"/>
</linearGradient>
<linearGradient id="paint1_linear_7173_13876" x1="36" y1="71" x2="91" y2="71" gradientUnits="userSpaceOnUse">
<stop stop-color="#343842"/>
<stop offset="1" stop-color="#1E2129"/>
</linearGradient>
<linearGradient id="paint2_linear_7173_13876" x1="36" y1="85" x2="91" y2="85" gradientUnits="userSpaceOnUse">
<stop stop-color="#343842"/>
<stop offset="1" stop-color="#1E2129"/>
</linearGradient>
<linearGradient id="paint3_linear_7173_13876" x1="36" y1="99" x2="68" y2="99" gradientUnits="userSpaceOnUse">
<stop stop-color="#343842"/>
<stop offset="1" stop-color="#1E2129"/>
</linearGradient>
<linearGradient id="paint4_linear_7173_13876" x1="128" y1="71" x2="183" y2="71" gradientUnits="userSpaceOnUse">
<stop stop-color="#343842"/>
<stop offset="1" stop-color="#1E2129"/>
</linearGradient>
<linearGradient id="paint5_linear_7173_13876" x1="128" y1="85" x2="183" y2="85" gradientUnits="userSpaceOnUse">
<stop stop-color="#343842"/>
<stop offset="1" stop-color="#1E2129"/>
</linearGradient>
<linearGradient id="paint6_linear_7173_13876" x1="128" y1="99" x2="160" y2="99" gradientUnits="userSpaceOnUse">
<stop stop-color="#343842"/>
<stop offset="1" stop-color="#1E2129"/>
</linearGradient>
<linearGradient id="paint7_linear_7173_13876" x1="219" y1="71" x2="274" y2="71" gradientUnits="userSpaceOnUse">
<stop stop-color="#343842"/>
<stop offset="1" stop-color="#1E2129"/>
</linearGradient>
<linearGradient id="paint8_linear_7173_13876" x1="219" y1="85" x2="274" y2="85" gradientUnits="userSpaceOnUse">
<stop stop-color="#343842"/>
<stop offset="1" stop-color="#1E2129"/>
</linearGradient>
<linearGradient id="paint9_linear_7173_13876" x1="219" y1="99" x2="251" y2="99" gradientUnits="userSpaceOnUse">
<stop stop-color="#343842"/>
<stop offset="1" stop-color="#1E2129"/>
</linearGradient>
</defs>
</svg>
