<svg width="311" height="186" viewBox="0 0 311 186" fill="none" xmlns="http://www.w3.org/2000/svg">
<rect width="311" height="186" rx="12" fill="#101217"/>
<circle cx="14" cy="14" r="4" fill="#D95A57"/>
<circle cx="26" cy="14" r="4" fill="#585A5D"/>
<circle cx="38" cy="14" r="4" fill="#52BE80"/>
<path d="M76.3332 59.1469C76.3332 62.2002 74.7598 64.9069 72.3332 66.6135L70.5465 70.5469C70.1332 71.4402 68.9332 71.6135 68.3065 70.8535L66.3332 68.4802C63.8532 68.4802 61.5732 67.6402 59.8398 66.2402L60.6398 65.2935C66.7998 64.8269 71.6665 59.9469 71.6665 54.0002C71.6665 52.9869 71.5198 51.9869 71.2532 51.0269C74.2798 52.6269 76.3332 55.6669 76.3332 59.1469Z" fill="#8F9094"/>
<path d="M68.7332 50.0932C67.1732 46.8932 63.6932 44.6665 59.6665 44.6665C54.1465 44.6665 49.6665 48.8398 49.6665 53.9998C49.6665 57.0532 51.2398 59.7598 53.6665 61.4665L55.4532 65.3998C55.8665 66.2932 57.0665 66.4532 57.6932 65.7065L58.4265 64.8265L59.6665 63.3332C65.1865 63.3332 69.6665 59.1598 69.6665 53.9998C69.6665 52.5998 69.3332 51.2798 68.7332 50.0932ZM62.9998 54.9998H56.3332C55.7865 54.9998 55.3332 54.5465 55.3332 53.9998C55.3332 53.4532 55.7865 52.9998 56.3332 52.9998H62.9998C63.5465 52.9998 63.9998 53.4532 63.9998 53.9998C63.9998 54.5465 63.5465 54.9998 62.9998 54.9998Z" fill="#8F9094"/>
<path d="M260.333 138.147C260.333 141.2 258.76 143.907 256.333 145.614L254.547 149.547C254.133 150.44 252.933 150.614 252.307 149.854L250.333 147.48C247.853 147.48 245.573 146.64 243.84 145.24L244.64 144.294C250.8 143.827 255.667 138.947 255.667 133C255.667 131.987 255.52 130.987 255.253 130.027C258.28 131.627 260.333 134.667 260.333 138.147Z" fill="#8F9094"/>
<path d="M252.733 129.093C251.173 125.893 247.693 123.667 243.667 123.667C238.147 123.667 233.667 127.84 233.667 133C233.667 136.053 235.24 138.76 237.667 140.467L239.453 144.4C239.867 145.293 241.067 145.453 241.693 144.707L242.427 143.827L243.667 142.333C249.187 142.333 253.667 138.16 253.667 133C253.667 131.6 253.333 130.28 252.733 129.093ZM247 134H240.333C239.787 134 239.333 133.547 239.333 133C239.333 132.453 239.787 132 240.333 132H247C247.547 132 248 132.453 248 133C248 133.547 247.547 134 247 134Z" fill="#8F9094"/>
<g clip-path="url(#clip0_7173_13812)">
<path fill-rule="evenodd" clip-rule="evenodd" d="M145.933 54.1253C137.787 56.0853 128.36 62.833 123.684 70.0517C121.672 73.1562 121.536 73.2538 118.31 73.9114C112.915 75.0111 108.558 77.4837 104.021 82.0207C94.4553 91.5861 92.3593 104.932 98.5481 116.87C101.142 121.874 106.425 127.19 111.082 129.482C117.801 132.79 116.807 132.72 157.219 132.727C191.86 132.733 194.301 132.672 197.333 131.728C201.808 130.336 204.673 128.538 207.967 125.056C212.868 119.874 214.82 114.335 215.208 104.51C215.332 101.392 215.278 100.543 215.072 102.333L214.733 105.267L214.384 103.002C213.78 99.0821 211.008 93.9898 207.653 90.6346C203.662 86.6431 199.243 84.3754 193.632 83.4394C191.866 83.1445 191.683 82.929 191.031 80.3861C187.899 68.1663 176.4 57.0693 163.792 54.0975C159.459 53.0762 150.234 53.0906 145.933 54.1253ZM95.1748 103.133C95.1775 105.187 95.2735 105.961 95.3892 104.855C95.5044 103.748 95.5028 102.068 95.3849 101.122C95.2671 100.174 95.1727 101.08 95.1748 103.133Z" fill="#343742"/>
<path d="M164.104 91.6665V94.4665C163.518 94.3865 162.851 94.3465 162.104 94.3332V91.6665C162.104 87.4665 160.918 84.6665 155.104 84.6665C149.291 84.6665 148.104 87.4665 148.104 91.6665V94.3332C147.358 94.3465 146.691 94.3865 146.104 94.4665V91.6665C146.104 87.7998 147.038 82.6665 155.104 82.6665C163.171 82.6665 164.104 87.7998 164.104 91.6665Z" fill="white"/>
<path d="M164.104 94.4668C163.518 94.3868 162.851 94.3468 162.104 94.3335H148.104C147.358 94.3468 146.691 94.3868 146.104 94.4668C142.704 94.8802 141.771 96.5468 141.771 101V103.667C141.771 109 143.104 110.333 148.438 110.333H161.771C167.104 110.333 168.438 109 168.438 103.667V101C168.438 96.5468 167.504 94.8802 164.104 94.4668ZM150.718 103.28C150.464 103.52 150.118 103.667 149.771 103.667C149.598 103.667 149.424 103.627 149.264 103.56C149.091 103.493 148.958 103.4 148.824 103.28C148.584 103.027 148.438 102.68 148.438 102.333C148.438 102.16 148.478 101.987 148.544 101.827C148.611 101.667 148.704 101.52 148.824 101.387C148.958 101.267 149.091 101.173 149.264 101.107C149.758 100.893 150.344 101.013 150.718 101.387C150.838 101.52 150.931 101.667 150.998 101.827C151.064 101.987 151.104 102.16 151.104 102.333C151.104 102.68 150.958 103.027 150.718 103.28ZM156.331 102.84C156.264 103 156.171 103.147 156.051 103.28C155.798 103.52 155.451 103.667 155.104 103.667C154.744 103.667 154.411 103.52 154.158 103.28C154.038 103.147 153.944 103 153.878 102.84C153.811 102.68 153.771 102.507 153.771 102.333C153.771 101.973 153.918 101.64 154.158 101.387C154.651 100.893 155.544 100.893 156.051 101.387C156.291 101.64 156.438 101.973 156.438 102.333C156.438 102.507 156.398 102.68 156.331 102.84ZM161.384 103.28C161.131 103.52 160.784 103.667 160.438 103.667C160.091 103.667 159.744 103.52 159.491 103.28C159.251 103.027 159.104 102.693 159.104 102.333C159.104 101.973 159.251 101.64 159.491 101.387C159.998 100.893 160.891 100.893 161.384 101.387C161.438 101.453 161.491 101.52 161.544 101.6C161.598 101.667 161.638 101.747 161.664 101.827C161.704 101.907 161.731 101.987 161.744 102.067C161.758 102.16 161.771 102.253 161.771 102.333C161.771 102.68 161.624 103.027 161.384 103.28Z" fill="white"/>
</g>
<rect x="24" y="134" width="56" height="10" rx="5" fill="url(#paint0_linear_7173_13812)"/>
<rect x="24" y="152" width="32" height="10" rx="5" fill="url(#paint1_linear_7173_13812)"/>
<rect x="231" y="24" width="56" height="10" rx="5" fill="url(#paint2_linear_7173_13812)"/>
<rect x="231" y="42" width="32" height="10" rx="5" fill="url(#paint3_linear_7173_13812)"/>
<defs>
<linearGradient id="paint0_linear_7173_13812" x1="24" y1="139" x2="80" y2="139" gradientUnits="userSpaceOnUse">
<stop stop-color="#30C5D2"/>
<stop offset="1" stop-color="#30C5D2" stop-opacity="0"/>
</linearGradient>
<linearGradient id="paint1_linear_7173_13812" x1="24" y1="157" x2="56" y2="157" gradientUnits="userSpaceOnUse">
<stop stop-color="#343842"/>
<stop offset="1" stop-color="#101217"/>
</linearGradient>
<linearGradient id="paint2_linear_7173_13812" x1="231" y1="29" x2="287" y2="29" gradientUnits="userSpaceOnUse">
<stop stop-color="#471069"/>
<stop offset="1" stop-color="#471069" stop-opacity="0"/>
</linearGradient>
<linearGradient id="paint3_linear_7173_13812" x1="231" y1="47" x2="263" y2="47" gradientUnits="userSpaceOnUse">
<stop stop-color="#343842"/>
<stop offset="1" stop-color="#101217"/>
</linearGradient>
<clipPath id="clip0_7173_13812">
<rect width="120" height="120" fill="white" transform="translate(95 33)"/>
</clipPath>
</defs>
</svg>
