<svg width="311" height="186" viewBox="0 0 311 186" fill="none" xmlns="http://www.w3.org/2000/svg">
<rect width="311" height="186" rx="12" fill="#101217"/>
<circle cx="14" cy="14" r="4" fill="#D95A57"/>
<circle cx="26" cy="14" r="4" fill="#585A5D"/>
<circle cx="38" cy="14" r="4" fill="#52BE80"/>
<path d="M27.888 50L29.208 41.6H30.324L29.004 50H27.888ZM24.516 47.48V46.424H30.792V47.48H24.516ZM25.296 50L26.616 41.6H27.732L26.412 50H25.296ZM24.888 44.996V43.94H31.176V44.996H24.888ZM33.6795 50V41.6H35.0355V50H33.6795ZM31.9995 42.836V41.6H34.9155V42.836H31.9995ZM38.9051 50.12C38.3451 50.12 37.8371 50.02 37.3811 49.82C36.9331 49.612 36.5531 49.312 36.2411 48.92L37.1771 47.984C37.3451 48.24 37.5811 48.444 37.8851 48.596C38.1891 48.748 38.5211 48.824 38.8811 48.824C39.2251 48.824 39.5211 48.76 39.7691 48.632C40.0171 48.504 40.2091 48.324 40.3451 48.092C40.4891 47.86 40.5611 47.592 40.5611 47.288C40.5611 46.968 40.4891 46.696 40.3451 46.472C40.2091 46.248 40.0091 46.076 39.7451 45.956C39.4891 45.828 39.1771 45.764 38.8091 45.764C38.6651 45.764 38.5171 45.776 38.3651 45.8C38.2131 45.816 38.0771 45.844 37.9571 45.884L38.5691 45.092C38.7371 45.028 38.9131 44.976 39.0971 44.936C39.2891 44.888 39.4731 44.864 39.6491 44.864C40.0811 44.864 40.4691 44.968 40.8131 45.176C41.1651 45.384 41.4411 45.676 41.6411 46.052C41.8491 46.42 41.9531 46.856 41.9531 47.36C41.9531 47.904 41.8251 48.384 41.5691 48.8C41.3131 49.216 40.9571 49.54 40.5011 49.772C40.0451 50.004 39.5131 50.12 38.9051 50.12ZM37.9571 45.884V45.068L40.2011 42.452L41.8571 42.416L39.5171 45.104L37.9571 45.884ZM36.6611 42.836V41.6H41.8571V42.416L40.6691 42.836H36.6611ZM42.7696 47L45.7576 41.6H47.3176L44.2576 47H42.7696ZM42.7696 47.84V47L43.3576 46.604H49.2856V47.84H42.7696ZM46.7536 50V44.504H48.1096V50H46.7536ZM51.1756 50V41.6H52.5316V50H51.1756ZM49.4956 42.836V41.6H52.4116V42.836H49.4956ZM55.4412 50V41.6H56.7972V50H55.4412ZM53.7612 42.836V41.6H56.6772V42.836H53.7612ZM58.0508 47L61.0388 41.6H62.5988L59.5388 47H58.0508ZM58.0508 47.84V47L58.6388 46.604H64.5668V47.84H58.0508ZM62.0348 50V44.504H63.3908V50H62.0348ZM65.0118 47L67.9998 41.6H69.5598L66.4998 47H65.0118ZM65.0118 47.84V47L65.5998 46.604H71.5278V47.84H65.0118ZM68.9958 50V44.504H70.3518V50H68.9958Z" fill="#30C5D2"/>
<rect x="24" y="61" width="263" height="10" rx="5" fill="url(#paint0_linear_7173_13892)"/>
<rect x="24" y="82" width="263" height="80" rx="12" fill="#1E2129"/>
<rect x="36" y="92" width="20" height="20" rx="10" fill="url(#paint1_linear_7173_13892)"/>
<path d="M43.2969 97H44.6971V97.6006H43.2969V97Z" fill="white"/>
<path d="M43.2969 98.1411H44.8273V98.7718H43.2969V98.1411Z" fill="white"/>
<path d="M45.2832 98.1411H46.8462V98.7718H45.2832V98.1411Z" fill="white"/>
<path d="M47.1718 98.1411H48.7023V98.7718H47.1718V98.1411Z" fill="white"/>
<path d="M47.1067 99.3724H48.6372V100.003H47.1067V99.3724Z" fill="white"/>
<path d="M45.0227 101.775H47.0416V102.646H45.0227V101.775Z" fill="white"/>
<path d="M43.5574 103.426H47.0416V104.477H43.5574V103.426Z" fill="white"/>
<path d="M44.7622 105.048H46.2275V105.649H44.7622V105.048Z" fill="white"/>
<path d="M43.5574 106.459H44.6971V106.94H43.5574V106.459Z" fill="white"/>
<path d="M46.0321 106.459H47.1718V106.94H46.0321V106.459Z" fill="white"/>
<path d="M47.4975 106.459H48.6372V106.94H47.4975V106.459Z" fill="white"/>
<path d="M46.1624 97H47.5626V97.6006H46.1624V97Z" fill="white"/>
<path d="M45.8368 97.3303C45.8368 97.5128 45.6691 97.6607 45.4623 97.6607C45.2555 97.6607 45.0878 97.5128 45.0878 97.3303C45.0878 97.1479 45.2555 97 45.4623 97C45.6691 97 45.8368 97.1479 45.8368 97.3303Z" fill="white"/>
<path d="M48.7023 97.3303C48.7023 97.5128 48.5346 97.6607 48.3278 97.6607C48.121 97.6607 47.9533 97.5128 47.9533 97.3303C47.9533 97.1479 48.121 97 48.3278 97C48.5346 97 48.7023 97.1479 48.7023 97.3303Z" fill="white"/>
<path d="M44.1109 99.6577C44.1109 99.8484 43.9433 100.003 43.7365 100.003C43.5297 100.003 43.362 99.8484 43.362 99.6577C43.362 99.4669 43.5297 99.3123 43.7365 99.3123C43.9433 99.3123 44.1109 99.4669 44.1109 99.6577Z" fill="white"/>
<path d="M45.3483 99.6577C45.3483 99.8484 45.188 100.003 44.9901 100.003C44.7923 100.003 44.6319 99.8484 44.6319 99.6577C44.6319 99.4669 44.7923 99.3123 44.9901 99.3123C45.188 99.3123 45.3483 99.4669 45.3483 99.6577Z" fill="white"/>
<path d="M46.6183 99.6577C46.6183 99.8484 46.4579 100.003 46.2601 100.003C46.0623 100.003 45.9019 99.8484 45.9019 99.6577C45.9019 99.4669 46.0623 99.3123 46.2601 99.3123C46.4579 99.3123 46.6183 99.4669 46.6183 99.6577Z" fill="white"/>
<path d="M44.1109 100.889C44.1109 101.08 43.9433 101.234 43.7365 101.234C43.5297 101.234 43.362 101.08 43.362 100.889C43.362 100.698 43.5297 100.544 43.7365 100.544C43.9433 100.544 44.1109 100.698 44.1109 100.889Z" fill="white"/>
<path d="M44.3063 102.21C44.3063 102.451 44.0949 102.646 43.8342 102.646C43.5734 102.646 43.362 102.451 43.362 102.21C43.362 101.97 43.5734 101.775 43.8342 101.775C44.0949 101.775 44.3063 101.97 44.3063 102.21Z" fill="white"/>
<path d="M48.6372 102.21C48.6372 102.451 48.4258 102.646 48.165 102.646C47.9042 102.646 47.6928 102.451 47.6928 102.21C47.6928 101.97 47.9042 101.775 48.165 101.775C48.4258 101.775 48.6372 101.97 48.6372 102.21Z" fill="white"/>
<path d="M44.2412 105.378C44.2412 105.561 44.0735 105.709 43.8667 105.709C43.6599 105.709 43.4923 105.561 43.4923 105.378C43.4923 105.196 43.6599 105.048 43.8667 105.048C44.0735 105.048 44.2412 105.196 44.2412 105.378Z" fill="white"/>
<path d="M47.4323 105.378C47.4323 105.561 47.2647 105.709 47.0579 105.709C46.8511 105.709 46.6834 105.561 46.6834 105.378C46.6834 105.196 46.8511 105.048 47.0579 105.048C47.2647 105.048 47.4323 105.196 47.4323 105.378Z" fill="white"/>
<path d="M48.6372 105.378C48.6372 105.561 48.4695 105.709 48.2627 105.709C48.0559 105.709 47.8882 105.561 47.8882 105.378C47.8882 105.196 48.0559 105.048 48.2627 105.048C48.4695 105.048 48.6372 105.196 48.6372 105.378Z" fill="white"/>
<path d="M45.6414 106.73C45.6414 106.879 45.5029 107 45.332 107C45.1612 107 45.0227 106.879 45.0227 106.73C45.0227 106.58 45.1612 106.459 45.332 106.459C45.5029 106.459 45.6414 106.58 45.6414 106.73Z" fill="white"/>
<path d="M44.3063 100.889C44.3063 101.129 44.0949 101.324 43.8342 101.324C43.5734 101.324 43.362 101.129 43.362 100.889C43.362 100.648 43.5734 100.453 43.8342 100.453C44.0949 100.453 44.3063 100.648 44.3063 100.889Z" fill="white"/>
<path d="M65.94 105.6C65.4333 105.6 64.9633 105.51 64.53 105.33C64.1033 105.143 63.73 104.887 63.41 104.56C63.09 104.227 62.8433 103.843 62.67 103.41C62.4967 102.97 62.41 102.5 62.41 102C62.41 101.5 62.4967 101.033 62.67 100.6C62.8433 100.16 63.09 99.7767 63.41 99.45C63.73 99.1233 64.1033 98.8667 64.53 98.68C64.9633 98.4933 65.4333 98.4 65.94 98.4C66.5067 98.4 66.9967 98.4933 67.41 98.68C67.8233 98.8667 68.19 99.12 68.51 99.44L67.73 100.22C67.5233 99.9933 67.27 99.8167 66.97 99.69C66.6767 99.5633 66.3333 99.5 65.94 99.5C65.5933 99.5 65.2767 99.56 64.99 99.68C64.7033 99.8 64.4533 99.9733 64.24 100.2C64.0333 100.42 63.8733 100.683 63.76 100.99C63.6467 101.297 63.59 101.633 63.59 102C63.59 102.367 63.6467 102.703 63.76 103.01C63.8733 103.317 64.0333 103.583 64.24 103.81C64.4533 104.03 64.7033 104.2 64.99 104.32C65.2767 104.44 65.5933 104.5 65.94 104.5C66.3667 104.5 66.7267 104.437 67.02 104.31C67.32 104.177 67.5733 103.997 67.78 103.77L68.56 104.55C68.24 104.877 67.8633 105.133 67.43 105.32C66.9967 105.507 66.5 105.6 65.94 105.6ZM71.4897 105.6C71.023 105.6 70.5997 105.49 70.2197 105.27C69.8397 105.043 69.5364 104.74 69.3097 104.36C69.0897 103.98 68.9797 103.557 68.9797 103.09C68.9797 102.623 69.0897 102.203 69.3097 101.83C69.5364 101.457 69.8397 101.16 70.2197 100.94C70.5997 100.713 71.023 100.6 71.4897 100.6C71.963 100.6 72.3897 100.71 72.7697 100.93C73.1497 101.15 73.4497 101.45 73.6697 101.83C73.8964 102.203 74.0097 102.623 74.0097 103.09C74.0097 103.557 73.8964 103.98 73.6697 104.36C73.4497 104.74 73.1497 105.043 72.7697 105.27C72.3897 105.49 71.963 105.6 71.4897 105.6ZM71.4897 104.54C71.763 104.54 72.003 104.48 72.2097 104.36C72.423 104.233 72.5864 104.06 72.6997 103.84C72.8197 103.62 72.8797 103.37 72.8797 103.09C72.8797 102.81 72.8197 102.563 72.6997 102.35C72.5797 102.137 72.4164 101.97 72.2097 101.85C72.003 101.723 71.763 101.66 71.4897 101.66C71.223 101.66 70.983 101.723 70.7697 101.85C70.563 101.97 70.3997 102.137 70.2797 102.35C70.1664 102.563 70.1097 102.81 70.1097 103.09C70.1097 103.37 70.1664 103.62 70.2797 103.84C70.3997 104.06 70.563 104.233 70.7697 104.36C70.983 104.48 71.223 104.54 71.4897 104.54ZM76.3784 105.5L74.1884 100.7H75.4084L77.0784 104.61H76.3584L78.0384 100.7H79.2084L77.0184 105.5H76.3784ZM81.9201 105.6C81.4401 105.6 81.0067 105.493 80.6201 105.28C80.2401 105.06 79.9367 104.76 79.7101 104.38C79.4901 104 79.3801 103.573 79.3801 103.1C79.3801 102.627 79.4901 102.203 79.7101 101.83C79.9301 101.45 80.2267 101.15 80.6001 100.93C80.9801 100.71 81.4001 100.6 81.8601 100.6C82.3067 100.6 82.7001 100.703 83.0401 100.91C83.3867 101.117 83.6567 101.4 83.8501 101.76C84.0501 102.12 84.1501 102.53 84.1501 102.99C84.1501 103.07 84.1434 103.153 84.1301 103.24C84.1234 103.32 84.1101 103.41 84.0901 103.51H80.1501V102.61H83.5201L83.1101 102.97C83.0967 102.677 83.0401 102.43 82.9401 102.23C82.8401 102.03 82.6967 101.877 82.5101 101.77C82.3301 101.663 82.1067 101.61 81.8401 101.61C81.5601 101.61 81.3167 101.67 81.1101 101.79C80.9034 101.91 80.7434 102.08 80.6301 102.3C80.5167 102.513 80.4601 102.77 80.4601 103.07C80.4601 103.37 80.5201 103.633 80.6401 103.86C80.7601 104.087 80.9301 104.263 81.1501 104.39C81.3701 104.51 81.6234 104.57 81.9101 104.57C82.1567 104.57 82.3834 104.527 82.5901 104.44C82.8034 104.353 82.9834 104.227 83.1301 104.06L83.8301 104.77C83.5967 105.043 83.3134 105.25 82.9801 105.39C82.6467 105.53 82.2934 105.6 81.9201 105.6ZM85.0319 105.5V100.7H86.1319V105.5H85.0319ZM86.1319 102.83L85.7519 102.64C85.7519 102.033 85.8852 101.543 86.1519 101.17C86.4252 100.79 86.8352 100.6 87.3819 100.6C87.6219 100.6 87.8385 100.643 88.0319 100.73C88.2252 100.817 88.4052 100.957 88.5719 101.15L87.8519 101.89C87.7652 101.797 87.6685 101.73 87.5619 101.69C87.4552 101.65 87.3319 101.63 87.1919 101.63C86.8852 101.63 86.6319 101.727 86.4319 101.92C86.2319 102.113 86.1319 102.417 86.1319 102.83ZM89.8439 105.5V98.7H90.9439V105.5H89.8439ZM88.6939 101.7V100.7H92.0939V101.7H88.6939ZM92.8932 105.5V98.3H93.9932V105.5H92.8932ZM96.7674 105.55L94.7174 100.7H95.9274L97.3274 104.26H96.9774L98.4574 100.7H99.6774L97.4474 105.55H96.7674ZM95.3374 107.5L96.8274 104.43L97.4474 105.55L96.5574 107.5H95.3374Z" fill="white"/>
<path d="M39.96 132.1C39.4733 132.1 39.0167 132.01 38.59 131.83C38.17 131.643 37.8 131.387 37.48 131.06C37.1667 130.733 36.92 130.353 36.74 129.92C36.56 129.487 36.47 129.02 36.47 128.52C36.47 128.02 36.56 127.557 36.74 127.13C36.92 126.697 37.17 126.317 37.49 125.99C37.81 125.663 38.1833 125.41 38.61 125.23C39.0433 125.05 39.5133 124.96 40.02 124.96C40.5733 124.96 41.0833 125.067 41.55 125.28C42.0167 125.493 42.4067 125.8 42.72 126.2L42.07 126.85C41.85 126.53 41.56 126.287 41.2 126.12C40.84 125.947 40.4467 125.86 40.02 125.86C39.5133 125.86 39.0633 125.973 38.67 126.2C38.2833 126.427 37.98 126.74 37.76 127.14C37.5467 127.54 37.44 128 37.44 128.52C37.44 129.047 37.55 129.51 37.77 129.91C37.99 130.31 38.2867 130.623 38.66 130.85C39.0333 131.077 39.46 131.19 39.94 131.19C40.4267 131.19 40.8467 131.097 41.2 130.91C41.56 130.723 41.8367 130.45 42.03 130.09C42.2233 129.723 42.32 129.277 42.32 128.75L42.89 129.16H39.89V128.3H43.29V128.44C43.29 129.247 43.1467 129.923 42.86 130.47C42.58 131.01 42.1867 131.417 41.68 131.69C41.18 131.963 40.6067 132.1 39.96 132.1ZM45.1844 129.3V128.48H47.0744C47.3344 128.48 47.5644 128.427 47.7644 128.32C47.971 128.213 48.131 128.063 48.2444 127.87C48.3644 127.677 48.4244 127.447 48.4244 127.18C48.4244 126.913 48.3644 126.683 48.2444 126.49C48.131 126.297 47.971 126.147 47.7644 126.04C47.5644 125.933 47.3344 125.88 47.0744 125.88H45.1844V125.06H47.1344C47.561 125.06 47.941 125.147 48.2744 125.32C48.6144 125.493 48.881 125.74 49.0744 126.06C49.2744 126.373 49.3744 126.747 49.3744 127.18C49.3744 127.607 49.2744 127.98 49.0744 128.3C48.881 128.613 48.6144 128.86 48.2744 129.04C47.941 129.213 47.561 129.3 47.1344 129.3H45.1844ZM44.5544 132V125.06H45.4944V132H44.5544ZM52.244 132V125.26H53.184V132H52.244ZM49.884 125.92V125.06H55.534V125.92H49.884ZM57.7846 132L60.6246 125.06H61.3046L64.1346 132H63.1146L60.7846 126.13H61.1346L58.7846 132H57.7846ZM59.1346 130.43V129.61H62.7846V130.43H59.1346ZM68.4044 132.1C68.1377 132.1 67.8844 132.067 67.6444 132C67.411 131.927 67.1944 131.827 66.9944 131.7C66.7944 131.567 66.621 131.41 66.4744 131.23L67.0544 130.65C67.2277 130.863 67.4277 131.023 67.6544 131.13C67.881 131.23 68.1344 131.28 68.4144 131.28C68.6944 131.28 68.911 131.233 69.0644 131.14C69.2177 131.04 69.2944 130.903 69.2944 130.73C69.2944 130.557 69.231 130.423 69.1044 130.33C68.9844 130.23 68.8277 130.15 68.6344 130.09C68.441 130.023 68.2344 129.96 68.0144 129.9C67.801 129.833 67.5977 129.75 67.4044 129.65C67.211 129.55 67.051 129.413 66.9244 129.24C66.8044 129.067 66.7444 128.837 66.7444 128.55C66.7444 128.263 66.8144 128.017 66.9544 127.81C67.0944 127.597 67.2877 127.433 67.5344 127.32C67.7877 127.207 68.091 127.15 68.4444 127.15C68.8177 127.15 69.1477 127.217 69.4344 127.35C69.7277 127.477 69.9677 127.67 70.1544 127.93L69.5744 128.51C69.441 128.337 69.2744 128.203 69.0744 128.11C68.881 128.017 68.661 127.97 68.4144 127.97C68.1544 127.97 67.9544 128.017 67.8144 128.11C67.681 128.197 67.6144 128.32 67.6144 128.48C67.6144 128.64 67.6744 128.763 67.7944 128.85C67.9144 128.937 68.071 129.01 68.2644 129.07C68.4644 129.13 68.671 129.193 68.8844 129.26C69.0977 129.32 69.301 129.403 69.4944 129.51C69.6877 129.617 69.8444 129.76 69.9644 129.94C70.091 130.12 70.1544 130.357 70.1544 130.65C70.1544 131.097 69.9944 131.45 69.6744 131.71C69.361 131.97 68.9377 132.1 68.4044 132.1ZM73.662 132.1C73.302 132.1 72.9753 132.027 72.682 131.88C72.3953 131.727 72.1653 131.517 71.992 131.25C71.8186 130.983 71.722 130.68 71.702 130.34V128.91C71.722 128.563 71.8186 128.26 71.992 128C72.172 127.733 72.4053 127.527 72.692 127.38C72.9853 127.227 73.3086 127.15 73.662 127.15C74.0953 127.15 74.4853 127.26 74.832 127.48C75.1853 127.7 75.462 127.997 75.662 128.37C75.862 128.743 75.962 129.163 75.962 129.63C75.962 130.097 75.862 130.517 75.662 130.89C75.462 131.263 75.1853 131.56 74.832 131.78C74.4853 131.993 74.0953 132.1 73.662 132.1ZM71.162 133.99V127.25H72.062V128.5L71.892 129.65L72.062 130.81V133.99H71.162ZM73.512 131.25C73.812 131.25 74.0753 131.18 74.302 131.04C74.5286 130.9 74.7086 130.71 74.842 130.47C74.9753 130.223 75.042 129.94 75.042 129.62C75.042 129.307 74.9753 129.027 74.842 128.78C74.7086 128.533 74.5286 128.343 74.302 128.21C74.0753 128.07 73.8153 128 73.522 128C73.222 128 72.9586 128.07 72.732 128.21C72.5053 128.343 72.3286 128.533 72.202 128.78C72.0753 129.027 72.012 129.31 72.012 129.63C72.012 129.943 72.072 130.223 72.192 130.47C72.3186 130.71 72.4953 130.9 72.722 131.04C72.9553 131.18 73.2186 131.25 73.512 131.25ZM79.1823 132.1C78.7089 132.1 78.2823 131.993 77.9023 131.78C77.5223 131.56 77.2223 131.263 77.0023 130.89C76.7823 130.517 76.6723 130.093 76.6723 129.62C76.6723 129.153 76.7789 128.733 76.9923 128.36C77.2123 127.987 77.5056 127.693 77.8723 127.48C78.2456 127.26 78.6623 127.15 79.1223 127.15C79.5623 127.15 79.9489 127.25 80.2823 127.45C80.6223 127.65 80.8856 127.927 81.0723 128.28C81.2656 128.633 81.3623 129.033 81.3623 129.48C81.3623 129.547 81.3589 129.62 81.3523 129.7C81.3456 129.773 81.3323 129.86 81.3123 129.96H77.3023V129.21H80.8323L80.5023 129.5C80.5023 129.18 80.4456 128.91 80.3323 128.69C80.2189 128.463 80.0589 128.29 79.8523 128.17C79.6456 128.043 79.3956 127.98 79.1023 127.98C78.7956 127.98 78.5256 128.047 78.2923 128.18C78.0589 128.313 77.8789 128.5 77.7523 128.74C77.6256 128.98 77.5623 129.263 77.5623 129.59C77.5623 129.923 77.6289 130.217 77.7623 130.47C77.8956 130.717 78.0856 130.91 78.3323 131.05C78.5789 131.183 78.8623 131.25 79.1823 131.25C79.4489 131.25 79.6923 131.203 79.9123 131.11C80.1389 131.017 80.3323 130.877 80.4923 130.69L81.0723 131.28C80.8456 131.547 80.5656 131.75 80.2323 131.89C79.9056 132.03 79.5556 132.1 79.1823 132.1ZM84.5136 132.1C84.0469 132.1 83.6236 131.99 83.2436 131.77C82.8703 131.55 82.5736 131.253 82.3536 130.88C82.1403 130.5 82.0336 130.08 82.0336 129.62C82.0336 129.153 82.1403 128.733 82.3536 128.36C82.5736 127.987 82.8703 127.693 83.2436 127.48C83.6236 127.26 84.0469 127.15 84.5136 127.15C84.8803 127.15 85.2203 127.22 85.5336 127.36C85.8469 127.493 86.1169 127.69 86.3436 127.95L85.7436 128.55C85.5969 128.377 85.4169 128.247 85.2036 128.16C84.9969 128.067 84.7669 128.02 84.5136 128.02C84.2136 128.02 83.9469 128.09 83.7136 128.23C83.4803 128.363 83.2969 128.55 83.1636 128.79C83.0303 129.03 82.9636 129.307 82.9636 129.62C82.9636 129.933 83.0303 130.21 83.1636 130.45C83.2969 130.69 83.4803 130.88 83.7136 131.02C83.9469 131.16 84.2136 131.23 84.5136 131.23C84.7669 131.23 84.9969 131.187 85.2036 131.1C85.4169 131.007 85.6003 130.873 85.7536 130.7L86.3436 131.3C86.1236 131.553 85.8536 131.75 85.5336 131.89C85.2203 132.03 84.8803 132.1 84.5136 132.1ZM87.2462 132V127.25H88.1462V132H87.2462ZM87.6962 126.3C87.5295 126.3 87.3928 126.247 87.2862 126.14C87.1795 126.027 87.1262 125.887 87.1262 125.72C87.1262 125.56 87.1795 125.427 87.2862 125.32C87.3928 125.207 87.5295 125.15 87.6962 125.15C87.8628 125.15 87.9995 125.207 88.1062 125.32C88.2128 125.427 88.2662 125.56 88.2662 125.72C88.2662 125.887 88.2128 126.027 88.1062 126.14C87.9995 126.247 87.8628 126.3 87.6962 126.3ZM90.1525 132V126.39C90.1525 126.077 90.2192 125.8 90.3525 125.56C90.4925 125.313 90.6858 125.12 90.9325 124.98C91.1792 124.833 91.4625 124.76 91.7825 124.76C92.0292 124.76 92.2458 124.803 92.4325 124.89C92.6192 124.97 92.7925 125.083 92.9525 125.23L92.3625 125.82C92.2758 125.747 92.1858 125.693 92.0925 125.66C91.9992 125.62 91.8958 125.6 91.7825 125.6C91.5492 125.6 91.3692 125.673 91.2425 125.82C91.1158 125.96 91.0525 126.15 91.0525 126.39V132H90.1525ZM88.9825 128.07V127.25H93.4925V128.07H88.9825ZM92.9725 132V127.25H93.8825V132H92.9725ZM93.4225 126.75C93.2625 126.75 93.1292 126.697 93.0225 126.59C92.9158 126.477 92.8625 126.337 92.8625 126.17C92.8625 126.01 92.9158 125.877 93.0225 125.77C93.1292 125.657 93.2625 125.6 93.4225 125.6C93.5958 125.6 93.7325 125.657 93.8325 125.77C93.9392 125.877 93.9925 126.01 93.9925 126.17C93.9925 126.337 93.9392 126.477 93.8325 126.59C93.7325 126.697 93.5958 126.75 93.4225 126.75ZM97.3749 132.1C96.9083 132.1 96.4849 131.99 96.1049 131.77C95.7316 131.55 95.4349 131.253 95.2149 130.88C95.0016 130.5 94.8949 130.08 94.8949 129.62C94.8949 129.153 95.0016 128.733 95.2149 128.36C95.4349 127.987 95.7316 127.693 96.1049 127.48C96.4849 127.26 96.9083 127.15 97.3749 127.15C97.7416 127.15 98.0816 127.22 98.3949 127.36C98.7083 127.493 98.9783 127.69 99.2049 127.95L98.6049 128.55C98.4583 128.377 98.2783 128.247 98.0649 128.16C97.8583 128.067 97.6283 128.02 97.3749 128.02C97.0749 128.02 96.8083 128.09 96.5749 128.23C96.3416 128.363 96.1583 128.55 96.0249 128.79C95.8916 129.03 95.8249 129.307 95.8249 129.62C95.8249 129.933 95.8916 130.21 96.0249 130.45C96.1583 130.69 96.3416 130.88 96.5749 131.02C96.8083 131.16 97.0749 131.23 97.3749 131.23C97.6283 131.23 97.8583 131.187 98.0649 131.1C98.2783 131.007 98.4616 130.873 98.6149 130.7L99.2049 131.3C98.9849 131.553 98.7149 131.75 98.3949 131.89C98.0816 132.03 97.7416 132.1 97.3749 132.1ZM102.338 132V125.06H103.278V132H102.338ZM102.978 132V131.14H106.698V132H102.978ZM109.51 132.1C109.077 132.1 108.683 131.993 108.33 131.78C107.977 131.56 107.697 131.263 107.49 130.89C107.29 130.517 107.19 130.097 107.19 129.63C107.19 129.163 107.29 128.743 107.49 128.37C107.697 127.997 107.973 127.7 108.32 127.48C108.673 127.26 109.07 127.15 109.51 127.15C109.87 127.15 110.19 127.227 110.47 127.38C110.757 127.527 110.987 127.733 111.16 128C111.333 128.26 111.43 128.563 111.45 128.91V130.34C111.43 130.68 111.333 130.983 111.16 131.25C110.993 131.517 110.767 131.727 110.48 131.88C110.2 132.027 109.877 132.1 109.51 132.1ZM109.66 131.25C110.107 131.25 110.467 131.1 110.74 130.8C111.013 130.493 111.15 130.103 111.15 129.63C111.15 129.303 111.087 129.02 110.96 128.78C110.84 128.533 110.667 128.343 110.44 128.21C110.213 128.07 109.95 128 109.65 128C109.35 128 109.083 128.07 108.85 128.21C108.623 128.35 108.443 128.543 108.31 128.79C108.183 129.03 108.12 129.307 108.12 129.62C108.12 129.94 108.183 130.223 108.31 130.47C108.443 130.71 108.627 130.9 108.86 131.04C109.093 131.18 109.36 131.25 109.66 131.25ZM111.09 132V130.72L111.26 129.56L111.09 128.41V127.25H112V132H111.09ZM113.31 132V127.25H114.21V132H113.31ZM114.21 129.29L113.87 129.14C113.87 128.533 114.01 128.05 114.29 127.69C114.57 127.33 114.974 127.15 115.5 127.15C115.74 127.15 115.957 127.193 116.15 127.28C116.344 127.36 116.524 127.497 116.69 127.69L116.1 128.3C116 128.193 115.89 128.117 115.77 128.07C115.65 128.023 115.51 128 115.35 128C115.017 128 114.744 128.107 114.53 128.32C114.317 128.533 114.21 128.857 114.21 129.29ZM119.138 134.09C118.651 134.09 118.218 134 117.838 133.82C117.464 133.64 117.164 133.387 116.938 133.06L117.518 132.47C117.711 132.717 117.941 132.903 118.208 133.03C118.474 133.163 118.791 133.23 119.158 133.23C119.644 133.23 120.028 133.1 120.308 132.84C120.594 132.587 120.738 132.243 120.738 131.81V130.63L120.898 129.56L120.738 128.5V127.25H121.638V131.81C121.638 132.263 121.531 132.66 121.318 133C121.111 133.34 120.818 133.607 120.438 133.8C120.064 133.993 119.631 134.09 119.138 134.09ZM119.138 131.92C118.704 131.92 118.314 131.817 117.968 131.61C117.628 131.403 117.358 131.12 117.158 130.76C116.958 130.393 116.858 129.983 116.858 129.53C116.858 129.077 116.958 128.673 117.158 128.32C117.358 127.96 117.628 127.677 117.968 127.47C118.314 127.257 118.704 127.15 119.138 127.15C119.511 127.15 119.841 127.223 120.128 127.37C120.414 127.517 120.641 127.723 120.808 127.99C120.981 128.25 121.074 128.557 121.088 128.91V130.17C121.068 130.517 120.971 130.823 120.798 131.09C120.631 131.35 120.404 131.553 120.118 131.7C119.831 131.847 119.504 131.92 119.138 131.92ZM119.318 131.07C119.611 131.07 119.868 131.007 120.088 130.88C120.314 130.753 120.488 130.577 120.608 130.35C120.728 130.117 120.788 129.847 120.788 129.54C120.788 129.233 120.724 128.967 120.598 128.74C120.478 128.507 120.308 128.327 120.088 128.2C119.868 128.067 119.608 128 119.308 128C119.008 128 118.744 128.067 118.518 128.2C118.291 128.327 118.111 128.507 117.978 128.74C117.851 128.967 117.788 129.23 117.788 129.53C117.788 129.83 117.851 130.097 117.978 130.33C118.111 130.563 118.291 130.747 118.518 130.88C118.751 131.007 119.018 131.07 119.318 131.07ZM125.159 132.1C124.685 132.1 124.259 131.993 123.879 131.78C123.499 131.56 123.199 131.263 122.979 130.89C122.759 130.517 122.649 130.093 122.649 129.62C122.649 129.153 122.755 128.733 122.969 128.36C123.189 127.987 123.482 127.693 123.849 127.48C124.222 127.26 124.639 127.15 125.099 127.15C125.539 127.15 125.925 127.25 126.259 127.45C126.599 127.65 126.862 127.927 127.049 128.28C127.242 128.633 127.339 129.033 127.339 129.48C127.339 129.547 127.335 129.62 127.329 129.7C127.322 129.773 127.309 129.86 127.289 129.96H123.279V129.21H126.809L126.479 129.5C126.479 129.18 126.422 128.91 126.309 128.69C126.195 128.463 126.035 128.29 125.829 128.17C125.622 128.043 125.372 127.98 125.079 127.98C124.772 127.98 124.502 128.047 124.269 128.18C124.035 128.313 123.855 128.5 123.729 128.74C123.602 128.98 123.539 129.263 123.539 129.59C123.539 129.923 123.605 130.217 123.739 130.47C123.872 130.717 124.062 130.91 124.309 131.05C124.555 131.183 124.839 131.25 125.159 131.25C125.425 131.25 125.669 131.203 125.889 131.11C126.115 131.017 126.309 130.877 126.469 130.69L127.049 131.28C126.822 131.547 126.542 131.75 126.209 131.89C125.882 132.03 125.532 132.1 125.159 132.1ZM130.56 132V125.06H131.5V132H130.56ZM131.2 132V131.14H134.92V132H131.2ZM137.733 132.1C137.299 132.1 136.906 131.993 136.553 131.78C136.199 131.56 135.919 131.263 135.713 130.89C135.513 130.517 135.413 130.097 135.413 129.63C135.413 129.163 135.513 128.743 135.713 128.37C135.919 127.997 136.196 127.7 136.543 127.48C136.896 127.26 137.293 127.15 137.733 127.15C138.093 127.15 138.413 127.227 138.693 127.38C138.979 127.527 139.209 127.733 139.383 128C139.556 128.26 139.653 128.563 139.673 128.91V130.34C139.653 130.68 139.556 130.983 139.383 131.25C139.216 131.517 138.989 131.727 138.703 131.88C138.423 132.027 138.099 132.1 137.733 132.1ZM137.883 131.25C138.329 131.25 138.689 131.1 138.963 130.8C139.236 130.493 139.373 130.103 139.373 129.63C139.373 129.303 139.309 129.02 139.183 128.78C139.063 128.533 138.889 128.343 138.663 128.21C138.436 128.07 138.173 128 137.873 128C137.573 128 137.306 128.07 137.073 128.21C136.846 128.35 136.666 128.543 136.533 128.79C136.406 129.03 136.343 129.307 136.343 129.62C136.343 129.94 136.406 130.223 136.533 130.47C136.666 130.71 136.849 130.9 137.083 131.04C137.316 131.18 137.583 131.25 137.883 131.25ZM139.313 132V130.72L139.483 129.56L139.313 128.41V127.25H140.223V132H139.313ZM144.893 132V129.23C144.893 128.87 144.78 128.573 144.553 128.34C144.326 128.107 144.033 127.99 143.673 127.99C143.433 127.99 143.22 128.043 143.033 128.15C142.846 128.257 142.7 128.403 142.593 128.59C142.486 128.777 142.433 128.99 142.433 129.23L142.063 129.02C142.063 128.66 142.143 128.34 142.303 128.06C142.463 127.78 142.686 127.56 142.973 127.4C143.26 127.233 143.583 127.15 143.943 127.15C144.303 127.15 144.62 127.24 144.893 127.42C145.173 127.6 145.393 127.837 145.553 128.13C145.713 128.417 145.793 128.723 145.793 129.05V132H144.893ZM141.533 132V127.25H142.433V132H141.533ZM148.982 134.09C148.495 134.09 148.062 134 147.682 133.82C147.308 133.64 147.008 133.387 146.782 133.06L147.362 132.47C147.555 132.717 147.785 132.903 148.052 133.03C148.318 133.163 148.635 133.23 149.002 133.23C149.488 133.23 149.872 133.1 150.152 132.84C150.438 132.587 150.582 132.243 150.582 131.81V130.63L150.742 129.56L150.582 128.5V127.25H151.482V131.81C151.482 132.263 151.375 132.66 151.162 133C150.955 133.34 150.662 133.607 150.282 133.8C149.908 133.993 149.475 134.09 148.982 134.09ZM148.982 131.92C148.548 131.92 148.158 131.817 147.812 131.61C147.472 131.403 147.202 131.12 147.002 130.76C146.802 130.393 146.702 129.983 146.702 129.53C146.702 129.077 146.802 128.673 147.002 128.32C147.202 127.96 147.472 127.677 147.812 127.47C148.158 127.257 148.548 127.15 148.982 127.15C149.355 127.15 149.685 127.223 149.972 127.37C150.258 127.517 150.485 127.723 150.652 127.99C150.825 128.25 150.918 128.557 150.932 128.91V130.17C150.912 130.517 150.815 130.823 150.642 131.09C150.475 131.35 150.248 131.553 149.962 131.7C149.675 131.847 149.348 131.92 148.982 131.92ZM149.162 131.07C149.455 131.07 149.712 131.007 149.932 130.88C150.158 130.753 150.332 130.577 150.452 130.35C150.572 130.117 150.632 129.847 150.632 129.54C150.632 129.233 150.568 128.967 150.442 128.74C150.322 128.507 150.152 128.327 149.932 128.2C149.712 128.067 149.452 128 149.152 128C148.852 128 148.588 128.067 148.362 128.2C148.135 128.327 147.955 128.507 147.822 128.74C147.695 128.967 147.632 129.23 147.632 129.53C147.632 129.83 147.695 130.097 147.822 130.33C147.955 130.563 148.135 130.747 148.362 130.88C148.595 131.007 148.862 131.07 149.162 131.07ZM154.713 132.1C154.326 132.1 153.976 132.013 153.663 131.84C153.356 131.66 153.116 131.413 152.943 131.1C152.769 130.787 152.683 130.423 152.683 130.01V127.25H153.583V129.97C153.583 130.23 153.626 130.457 153.713 130.65C153.806 130.837 153.939 130.98 154.113 131.08C154.286 131.18 154.489 131.23 154.723 131.23C155.076 131.23 155.353 131.12 155.553 130.9C155.753 130.673 155.853 130.363 155.853 129.97V127.25H156.753V130.01C156.753 130.423 156.666 130.787 156.493 131.1C156.319 131.413 156.079 131.66 155.773 131.84C155.473 132.013 155.119 132.1 154.713 132.1ZM159.979 132.1C159.545 132.1 159.152 131.993 158.799 131.78C158.445 131.56 158.165 131.263 157.959 130.89C157.759 130.517 157.659 130.097 157.659 129.63C157.659 129.163 157.759 128.743 157.959 128.37C158.165 127.997 158.442 127.7 158.789 127.48C159.142 127.26 159.539 127.15 159.979 127.15C160.339 127.15 160.659 127.227 160.939 127.38C161.225 127.527 161.455 127.733 161.629 128C161.802 128.26 161.899 128.563 161.919 128.91V130.34C161.899 130.68 161.802 130.983 161.629 131.25C161.462 131.517 161.235 131.727 160.949 131.88C160.669 132.027 160.345 132.1 159.979 132.1ZM160.129 131.25C160.575 131.25 160.935 131.1 161.209 130.8C161.482 130.493 161.619 130.103 161.619 129.63C161.619 129.303 161.555 129.02 161.429 128.78C161.309 128.533 161.135 128.343 160.909 128.21C160.682 128.07 160.419 128 160.119 128C159.819 128 159.552 128.07 159.319 128.21C159.092 128.35 158.912 128.543 158.779 128.79C158.652 129.03 158.589 129.307 158.589 129.62C158.589 129.94 158.652 130.223 158.779 130.47C158.912 130.71 159.095 130.9 159.329 131.04C159.562 131.18 159.829 131.25 160.129 131.25ZM161.559 132V130.72L161.729 129.56L161.559 128.41V127.25H162.469V132H161.559ZM165.749 134.09C165.262 134.09 164.829 134 164.449 133.82C164.076 133.64 163.776 133.387 163.549 133.06L164.129 132.47C164.322 132.717 164.552 132.903 164.819 133.03C165.086 133.163 165.402 133.23 165.769 133.23C166.256 133.23 166.639 133.1 166.919 132.84C167.206 132.587 167.349 132.243 167.349 131.81V130.63L167.509 129.56L167.349 128.5V127.25H168.249V131.81C168.249 132.263 168.142 132.66 167.929 133C167.722 133.34 167.429 133.607 167.049 133.8C166.676 133.993 166.242 134.09 165.749 134.09ZM165.749 131.92C165.316 131.92 164.926 131.817 164.579 131.61C164.239 131.403 163.969 131.12 163.769 130.76C163.569 130.393 163.469 129.983 163.469 129.53C163.469 129.077 163.569 128.673 163.769 128.32C163.969 127.96 164.239 127.677 164.579 127.47C164.926 127.257 165.316 127.15 165.749 127.15C166.122 127.15 166.452 127.223 166.739 127.37C167.026 127.517 167.252 127.723 167.419 127.99C167.592 128.25 167.686 128.557 167.699 128.91V130.17C167.679 130.517 167.582 130.823 167.409 131.09C167.242 131.35 167.016 131.553 166.729 131.7C166.442 131.847 166.116 131.92 165.749 131.92ZM165.929 131.07C166.222 131.07 166.479 131.007 166.699 130.88C166.926 130.753 167.099 130.577 167.219 130.35C167.339 130.117 167.399 129.847 167.399 129.54C167.399 129.233 167.336 128.967 167.209 128.74C167.089 128.507 166.919 128.327 166.699 128.2C166.479 128.067 166.219 128 165.919 128C165.619 128 165.356 128.067 165.129 128.2C164.902 128.327 164.722 128.507 164.589 128.74C164.462 128.967 164.399 129.23 164.399 129.53C164.399 129.83 164.462 130.097 164.589 130.33C164.722 130.563 164.902 130.747 165.129 130.88C165.362 131.007 165.629 131.07 165.929 131.07ZM171.77 132.1C171.297 132.1 170.87 131.993 170.49 131.78C170.11 131.56 169.81 131.263 169.59 130.89C169.37 130.517 169.26 130.093 169.26 129.62C169.26 129.153 169.367 128.733 169.58 128.36C169.8 127.987 170.093 127.693 170.46 127.48C170.833 127.26 171.25 127.15 171.71 127.15C172.15 127.15 172.537 127.25 172.87 127.45C173.21 127.65 173.473 127.927 173.66 128.28C173.853 128.633 173.95 129.033 173.95 129.48C173.95 129.547 173.947 129.62 173.94 129.7C173.933 129.773 173.92 129.86 173.9 129.96H169.89V129.21H173.42L173.09 129.5C173.09 129.18 173.033 128.91 172.92 128.69C172.807 128.463 172.647 128.29 172.44 128.17C172.233 128.043 171.983 127.98 171.69 127.98C171.383 127.98 171.113 128.047 170.88 128.18C170.647 128.313 170.467 128.5 170.34 128.74C170.213 128.98 170.15 129.263 170.15 129.59C170.15 129.923 170.217 130.217 170.35 130.47C170.483 130.717 170.673 130.91 170.92 131.05C171.167 131.183 171.45 131.25 171.77 131.25C172.037 131.25 172.28 131.203 172.5 131.11C172.727 131.017 172.92 130.877 173.08 130.69L173.66 131.28C173.433 131.547 173.153 131.75 172.82 131.89C172.493 132.03 172.143 132.1 171.77 132.1ZM177.172 132V125.06H177.832L180.772 129.89H180.322L183.262 125.06H183.922V132H182.982V126.71L183.202 126.77L180.882 130.58H180.222L177.902 126.77L178.112 126.71V132H177.172ZM187.57 132.1C187.104 132.1 186.684 131.99 186.31 131.77C185.937 131.55 185.64 131.253 185.42 130.88C185.2 130.5 185.09 130.077 185.09 129.61C185.09 129.15 185.2 128.737 185.42 128.37C185.64 127.997 185.937 127.7 186.31 127.48C186.684 127.26 187.104 127.15 187.57 127.15C188.03 127.15 188.447 127.26 188.82 127.48C189.2 127.693 189.5 127.987 189.72 128.36C189.94 128.733 190.05 129.15 190.05 129.61C190.05 130.077 189.94 130.5 189.72 130.88C189.5 131.253 189.2 131.55 188.82 131.77C188.447 131.99 188.03 132.1 187.57 132.1ZM187.57 131.23C187.87 131.23 188.137 131.16 188.37 131.02C188.604 130.88 188.787 130.69 188.92 130.45C189.054 130.203 189.12 129.923 189.12 129.61C189.12 129.303 189.05 129.03 188.91 128.79C188.777 128.55 188.594 128.363 188.36 128.23C188.134 128.09 187.87 128.02 187.57 128.02C187.27 128.02 187.004 128.09 186.77 128.23C186.537 128.363 186.354 128.55 186.22 128.79C186.087 129.03 186.02 129.303 186.02 129.61C186.02 129.923 186.087 130.203 186.22 130.45C186.354 130.69 186.537 130.88 186.77 131.02C187.004 131.16 187.27 131.23 187.57 131.23ZM193.074 132.1C192.634 132.1 192.241 131.993 191.894 131.78C191.548 131.56 191.271 131.263 191.064 130.89C190.864 130.517 190.764 130.097 190.764 129.63C190.764 129.163 190.864 128.743 191.064 128.37C191.271 127.997 191.548 127.7 191.894 127.48C192.241 127.26 192.634 127.15 193.074 127.15C193.428 127.15 193.748 127.227 194.034 127.38C194.321 127.527 194.551 127.733 194.724 128C194.904 128.26 195.004 128.563 195.024 128.91V130.34C195.004 130.68 194.908 130.983 194.734 131.25C194.561 131.517 194.331 131.727 194.044 131.88C193.758 132.027 193.434 132.1 193.074 132.1ZM193.224 131.25C193.524 131.25 193.784 131.18 194.004 131.04C194.231 130.9 194.408 130.71 194.534 130.47C194.661 130.223 194.724 129.943 194.724 129.63C194.724 129.303 194.658 129.02 194.524 128.78C194.398 128.54 194.221 128.35 193.994 128.21C193.774 128.07 193.514 128 193.214 128C192.914 128 192.651 128.07 192.424 128.21C192.198 128.35 192.018 128.543 191.884 128.79C191.758 129.03 191.694 129.307 191.694 129.62C191.694 129.94 191.758 130.223 191.884 130.47C192.018 130.71 192.198 130.9 192.424 131.04C192.658 131.18 192.924 131.25 193.224 131.25ZM195.574 132H194.664V130.72L194.834 129.56L194.664 128.41V124.86H195.574V132ZM199.085 132.1C198.611 132.1 198.185 131.993 197.805 131.78C197.425 131.56 197.125 131.263 196.905 130.89C196.685 130.517 196.575 130.093 196.575 129.62C196.575 129.153 196.681 128.733 196.895 128.36C197.115 127.987 197.408 127.693 197.775 127.48C198.148 127.26 198.565 127.15 199.025 127.15C199.465 127.15 199.851 127.25 200.185 127.45C200.525 127.65 200.788 127.927 200.975 128.28C201.168 128.633 201.265 129.033 201.265 129.48C201.265 129.547 201.261 129.62 201.255 129.7C201.248 129.773 201.235 129.86 201.215 129.96H197.205V129.21H200.735L200.405 129.5C200.405 129.18 200.348 128.91 200.235 128.69C200.121 128.463 199.961 128.29 199.755 128.17C199.548 128.043 199.298 127.98 199.005 127.98C198.698 127.98 198.428 128.047 198.195 128.18C197.961 128.313 197.781 128.5 197.655 128.74C197.528 128.98 197.465 129.263 197.465 129.59C197.465 129.923 197.531 130.217 197.665 130.47C197.798 130.717 197.988 130.91 198.235 131.05C198.481 131.183 198.765 131.25 199.085 131.25C199.351 131.25 199.595 131.203 199.815 131.11C200.041 131.017 200.235 130.877 200.395 130.69L200.975 131.28C200.748 131.547 200.468 131.75 200.135 131.89C199.808 132.03 199.458 132.1 199.085 132.1ZM202.246 132V124.86H203.146V132H202.246ZM208.093 133.16C207.726 132.853 207.413 132.473 207.153 132.02C206.893 131.573 206.693 131.083 206.553 130.55C206.413 130.017 206.343 129.463 206.343 128.89C206.343 128.317 206.413 127.763 206.553 127.23C206.693 126.697 206.893 126.207 207.153 125.76C207.413 125.307 207.726 124.927 208.093 124.62L208.613 125.09C208.139 125.503 207.773 126.037 207.513 126.69C207.259 127.343 207.133 128.077 207.133 128.89C207.133 129.697 207.259 130.427 207.513 131.08C207.773 131.733 208.139 132.27 208.613 132.69L208.093 133.16ZM209.73 132V125.06H210.67V132H209.73ZM210.37 132V131.14H214.09V132H210.37ZM215.248 132V125.06H216.188V132H215.248ZM215.888 132V131.14H219.608V132H215.888ZM220.765 132V125.06H221.425L224.365 129.89H223.915L226.855 125.06H227.515V132H226.575V126.71L226.795 126.77L224.475 130.58H223.815L221.495 126.77L221.705 126.71V132H220.765ZM229.154 133.16L228.634 132.69C229.107 132.27 229.471 131.733 229.724 131.08C229.977 130.427 230.104 129.697 230.104 128.89C230.104 128.077 229.977 127.343 229.724 126.69C229.471 126.037 229.107 125.503 228.634 125.09L229.154 124.62C229.521 124.927 229.834 125.307 230.094 125.76C230.354 126.207 230.554 126.697 230.694 127.23C230.834 127.763 230.904 128.317 230.904 128.89C230.904 129.463 230.834 130.017 230.694 130.55C230.554 131.083 230.354 131.573 230.094 132.02C229.834 132.473 229.521 132.853 229.154 133.16ZM38.67 148.1C38.23 148.1 37.8367 147.993 37.49 147.78C37.1433 147.56 36.8667 147.263 36.66 146.89C36.46 146.517 36.36 146.097 36.36 145.63C36.36 145.163 36.46 144.743 36.66 144.37C36.8667 143.997 37.1433 143.7 37.49 143.48C37.8367 143.26 38.23 143.15 38.67 143.15C39.0233 143.15 39.3433 143.227 39.63 143.38C39.9167 143.527 40.1467 143.733 40.32 144C40.5 144.26 40.6 144.563 40.62 144.91V146.34C40.6 146.68 40.5033 146.983 40.33 147.25C40.1567 147.517 39.9267 147.727 39.64 147.88C39.3533 148.027 39.03 148.1 38.67 148.1ZM38.82 147.25C39.12 147.25 39.38 147.18 39.6 147.04C39.8267 146.9 40.0033 146.71 40.13 146.47C40.2567 146.223 40.32 145.943 40.32 145.63C40.32 145.303 40.2533 145.02 40.12 144.78C39.9933 144.54 39.8167 144.35 39.59 144.21C39.37 144.07 39.11 144 38.81 144C38.51 144 38.2467 144.07 38.02 144.21C37.7933 144.35 37.6133 144.543 37.48 144.79C37.3533 145.03 37.29 145.307 37.29 145.62C37.29 145.94 37.3533 146.223 37.48 146.47C37.6133 146.71 37.7933 146.9 38.02 147.04C38.2533 147.18 38.52 147.25 38.82 147.25ZM41.17 148H40.26V146.72L40.43 145.56L40.26 144.41V140.86H41.17V148ZM44.6803 148.1C44.207 148.1 43.7803 147.993 43.4003 147.78C43.0203 147.56 42.7203 147.263 42.5003 146.89C42.2803 146.517 42.1703 146.093 42.1703 145.62C42.1703 145.153 42.277 144.733 42.4903 144.36C42.7103 143.987 43.0036 143.693 43.3703 143.48C43.7436 143.26 44.1603 143.15 44.6203 143.15C45.0603 143.15 45.447 143.25 45.7803 143.45C46.1203 143.65 46.3836 143.927 46.5703 144.28C46.7636 144.633 46.8603 145.033 46.8603 145.48C46.8603 145.547 46.857 145.62 46.8503 145.7C46.8436 145.773 46.8303 145.86 46.8103 145.96H42.8003V145.21H46.3303L46.0003 145.5C46.0003 145.18 45.9436 144.91 45.8303 144.69C45.717 144.463 45.557 144.29 45.3503 144.17C45.1436 144.043 44.8936 143.98 44.6003 143.98C44.2936 143.98 44.0236 144.047 43.7903 144.18C43.557 144.313 43.377 144.5 43.2503 144.74C43.1236 144.98 43.0603 145.263 43.0603 145.59C43.0603 145.923 43.127 146.217 43.2603 146.47C43.3936 146.717 43.5836 146.91 43.8303 147.05C44.077 147.183 44.3603 147.25 44.6803 147.25C44.947 147.25 45.1903 147.203 45.4103 147.11C45.637 147.017 45.8303 146.877 45.9903 146.69L46.5703 147.28C46.3436 147.547 46.0636 147.75 45.7303 147.89C45.4036 148.03 45.0536 148.1 44.6803 148.1ZM49.3935 148L47.2135 143.25H48.2135L49.9635 147.26H49.3835L51.1435 143.25H52.1035L49.9235 148H49.3935ZM54.8854 148.1C54.4121 148.1 53.9854 147.993 53.6054 147.78C53.2254 147.56 52.9254 147.263 52.7054 146.89C52.4854 146.517 52.3754 146.093 52.3754 145.62C52.3754 145.153 52.4821 144.733 52.6954 144.36C52.9154 143.987 53.2087 143.693 53.5754 143.48C53.9487 143.26 54.3654 143.15 54.8254 143.15C55.2654 143.15 55.6521 143.25 55.9854 143.45C56.3254 143.65 56.5887 143.927 56.7754 144.28C56.9687 144.633 57.0654 145.033 57.0654 145.48C57.0654 145.547 57.0621 145.62 57.0554 145.7C57.0487 145.773 57.0354 145.86 57.0154 145.96H53.0054V145.21H56.5354L56.2054 145.5C56.2054 145.18 56.1487 144.91 56.0354 144.69C55.9221 144.463 55.7621 144.29 55.5554 144.17C55.3487 144.043 55.0987 143.98 54.8054 143.98C54.4987 143.98 54.2287 144.047 53.9954 144.18C53.7621 144.313 53.5821 144.5 53.4554 144.74C53.3287 144.98 53.2654 145.263 53.2654 145.59C53.2654 145.923 53.3321 146.217 53.4654 146.47C53.5987 146.717 53.7887 146.91 54.0354 147.05C54.2821 147.183 54.5654 147.25 54.8854 147.25C55.1521 147.25 55.3954 147.203 55.6154 147.11C55.8421 147.017 56.0354 146.877 56.1954 146.69L56.7754 147.28C56.5487 147.547 56.2687 147.75 55.9354 147.89C55.6087 148.03 55.2587 148.1 54.8854 148.1ZM58.0467 148V140.86H58.9467V148H58.0467ZM62.4335 148.1C61.9668 148.1 61.5468 147.99 61.1735 147.77C60.8002 147.55 60.5035 147.253 60.2835 146.88C60.0635 146.5 59.9535 146.077 59.9535 145.61C59.9535 145.15 60.0635 144.737 60.2835 144.37C60.5035 143.997 60.8002 143.7 61.1735 143.48C61.5468 143.26 61.9668 143.15 62.4335 143.15C62.8935 143.15 63.3102 143.26 63.6835 143.48C64.0635 143.693 64.3635 143.987 64.5835 144.36C64.8035 144.733 64.9135 145.15 64.9135 145.61C64.9135 146.077 64.8035 146.5 64.5835 146.88C64.3635 147.253 64.0635 147.55 63.6835 147.77C63.3102 147.99 62.8935 148.1 62.4335 148.1ZM62.4335 147.23C62.7335 147.23 63.0002 147.16 63.2335 147.02C63.4668 146.88 63.6502 146.69 63.7835 146.45C63.9168 146.203 63.9835 145.923 63.9835 145.61C63.9835 145.303 63.9135 145.03 63.7735 144.79C63.6402 144.55 63.4568 144.363 63.2235 144.23C62.9968 144.09 62.7335 144.02 62.4335 144.02C62.1335 144.02 61.8668 144.09 61.6335 144.23C61.4002 144.363 61.2168 144.55 61.0835 144.79C60.9502 145.03 60.8835 145.303 60.8835 145.61C60.8835 145.923 60.9502 146.203 61.0835 146.45C61.2168 146.69 61.4002 146.88 61.6335 147.02C61.8668 147.16 62.1335 147.23 62.4335 147.23ZM68.4276 148.1C68.0676 148.1 67.7409 148.027 67.4476 147.88C67.1609 147.727 66.9309 147.517 66.7576 147.25C66.5842 146.983 66.4876 146.68 66.4676 146.34V144.91C66.4876 144.563 66.5842 144.26 66.7576 144C66.9376 143.733 67.1709 143.527 67.4576 143.38C67.7509 143.227 68.0742 143.15 68.4276 143.15C68.8609 143.15 69.2509 143.26 69.5976 143.48C69.9509 143.7 70.2276 143.997 70.4276 144.37C70.6276 144.743 70.7276 145.163 70.7276 145.63C70.7276 146.097 70.6276 146.517 70.4276 146.89C70.2276 147.263 69.9509 147.56 69.5976 147.78C69.2509 147.993 68.8609 148.1 68.4276 148.1ZM65.9276 149.99V143.25H66.8276V144.5L66.6576 145.65L66.8276 146.81V149.99H65.9276ZM68.2776 147.25C68.5776 147.25 68.8409 147.18 69.0676 147.04C69.2942 146.9 69.4742 146.71 69.6076 146.47C69.7409 146.223 69.8076 145.94 69.8076 145.62C69.8076 145.307 69.7409 145.027 69.6076 144.78C69.4742 144.533 69.2942 144.343 69.0676 144.21C68.8409 144.07 68.5809 144 68.2876 144C67.9876 144 67.7242 144.07 67.4976 144.21C67.2709 144.343 67.0942 144.533 66.9676 144.78C66.8409 145.027 66.7776 145.31 66.7776 145.63C66.7776 145.943 66.8376 146.223 66.9576 146.47C67.0842 146.71 67.2609 146.9 67.4876 147.04C67.7209 147.18 67.9842 147.25 68.2776 147.25ZM73.9479 148.1C73.4746 148.1 73.0479 147.993 72.6679 147.78C72.2879 147.56 71.9879 147.263 71.7679 146.89C71.5479 146.517 71.4379 146.093 71.4379 145.62C71.4379 145.153 71.5446 144.733 71.7579 144.36C71.9779 143.987 72.2712 143.693 72.6379 143.48C73.0112 143.26 73.4279 143.15 73.8879 143.15C74.3279 143.15 74.7146 143.25 75.0479 143.45C75.3879 143.65 75.6512 143.927 75.8379 144.28C76.0312 144.633 76.1279 145.033 76.1279 145.48C76.1279 145.547 76.1246 145.62 76.1179 145.7C76.1112 145.773 76.0979 145.86 76.0779 145.96H72.0679V145.21H75.5979L75.2679 145.5C75.2679 145.18 75.2112 144.91 75.0979 144.69C74.9846 144.463 74.8246 144.29 74.6179 144.17C74.4112 144.043 74.1612 143.98 73.8679 143.98C73.5612 143.98 73.2912 144.047 73.0579 144.18C72.8246 144.313 72.6446 144.5 72.5179 144.74C72.3912 144.98 72.3279 145.263 72.3279 145.59C72.3279 145.923 72.3946 146.217 72.5279 146.47C72.6612 146.717 72.8512 146.91 73.0979 147.05C73.3446 147.183 73.6279 147.25 73.9479 147.25C74.2146 147.25 74.4579 147.203 74.6779 147.11C74.9046 147.017 75.0979 146.877 75.2579 146.69L75.8379 147.28C75.6112 147.547 75.3312 147.75 74.9979 147.89C74.6712 148.03 74.3212 148.1 73.9479 148.1ZM79.1192 148.1C78.6792 148.1 78.2859 147.993 77.9392 147.78C77.5926 147.56 77.3159 147.263 77.1092 146.89C76.9092 146.517 76.8092 146.097 76.8092 145.63C76.8092 145.163 76.9092 144.743 77.1092 144.37C77.3159 143.997 77.5926 143.7 77.9392 143.48C78.2859 143.26 78.6792 143.15 79.1192 143.15C79.4726 143.15 79.7926 143.227 80.0792 143.38C80.3659 143.527 80.5959 143.733 80.7692 144C80.9492 144.26 81.0492 144.563 81.0692 144.91V146.34C81.0492 146.68 80.9526 146.983 80.7792 147.25C80.6059 147.517 80.3759 147.727 80.0892 147.88C79.8026 148.027 79.4792 148.1 79.1192 148.1ZM79.2692 147.25C79.5692 147.25 79.8292 147.18 80.0492 147.04C80.2759 146.9 80.4526 146.71 80.5792 146.47C80.7059 146.223 80.7692 145.943 80.7692 145.63C80.7692 145.303 80.7026 145.02 80.5692 144.78C80.4426 144.54 80.2659 144.35 80.0392 144.21C79.8192 144.07 79.5592 144 79.2592 144C78.9592 144 78.6959 144.07 78.4692 144.21C78.2426 144.35 78.0626 144.543 77.9292 144.79C77.8026 145.03 77.7392 145.307 77.7392 145.62C77.7392 145.94 77.8026 146.223 77.9292 146.47C78.0626 146.71 78.2426 146.9 78.4692 147.04C78.7026 147.18 78.9692 147.25 79.2692 147.25ZM81.6192 148H80.7092V146.72L80.8792 145.56L80.7092 144.41V140.86H81.6192V148ZM87.5096 148.1C87.1496 148.1 86.8229 148.027 86.5296 147.88C86.2429 147.727 86.0129 147.517 85.8396 147.25C85.6663 146.983 85.5696 146.68 85.5496 146.34V144.91C85.5696 144.563 85.6663 144.26 85.8396 144C86.0196 143.733 86.2529 143.527 86.5396 143.38C86.8329 143.227 87.1563 143.15 87.5096 143.15C87.9429 143.15 88.3329 143.26 88.6796 143.48C89.0329 143.7 89.3096 143.997 89.5096 144.37C89.7096 144.743 89.8096 145.163 89.8096 145.63C89.8096 146.097 89.7096 146.517 89.5096 146.89C89.3096 147.263 89.0329 147.56 88.6796 147.78C88.3329 147.993 87.9429 148.1 87.5096 148.1ZM85.0096 148V140.86H85.9096V144.41L85.7396 145.56L85.9096 146.72V148H85.0096ZM87.3596 147.25C87.6596 147.25 87.9229 147.18 88.1496 147.04C88.3763 146.9 88.5563 146.71 88.6896 146.47C88.8229 146.223 88.8896 145.94 88.8896 145.62C88.8896 145.307 88.8229 145.027 88.6896 144.78C88.5563 144.533 88.3763 144.343 88.1496 144.21C87.9229 144.07 87.6629 144 87.3696 144C87.0696 144 86.8063 144.07 86.5796 144.21C86.3529 144.343 86.1763 144.533 86.0496 144.78C85.9229 145.027 85.8596 145.31 85.8596 145.63C85.8596 145.943 85.9196 146.223 86.0396 146.47C86.1663 146.71 86.3429 146.9 86.5696 147.04C86.8029 147.18 87.0663 147.25 87.3596 147.25ZM92.2044 148.04L90.1444 143.25H91.1444L92.6744 147H92.3544L93.9644 143.25H94.9644L92.7444 148.04H92.2044ZM90.8444 149.99L92.2444 147.12L92.7444 148.04L91.8444 149.99H90.8444ZM101.181 148.1C100.688 148.1 100.228 148.01 99.8012 147.83C99.3745 147.643 99.0012 147.387 98.6812 147.06C98.3612 146.727 98.1112 146.343 97.9312 145.91C97.7578 145.477 97.6712 145.013 97.6712 144.52C97.6712 144.02 97.7578 143.557 97.9312 143.13C98.1112 142.697 98.3578 142.317 98.6712 141.99C98.9912 141.663 99.3612 141.41 99.7812 141.23C100.208 141.05 100.668 140.96 101.161 140.96C101.655 140.96 102.111 141.05 102.531 141.23C102.958 141.41 103.331 141.663 103.651 141.99C103.971 142.317 104.221 142.697 104.401 143.13C104.581 143.563 104.671 144.03 104.671 144.53C104.671 145.023 104.581 145.487 104.401 145.92C104.221 146.353 103.971 146.733 103.651 147.06C103.338 147.387 102.968 147.643 102.541 147.83C102.121 148.01 101.668 148.1 101.181 148.1ZM101.161 147.2C101.661 147.2 102.098 147.087 102.471 146.86C102.851 146.627 103.151 146.31 103.371 145.91C103.591 145.503 103.701 145.04 103.701 144.52C103.701 144.133 103.638 143.78 103.511 143.46C103.385 143.133 103.208 142.85 102.981 142.61C102.755 142.37 102.488 142.187 102.181 142.06C101.875 141.927 101.535 141.86 101.161 141.86C100.668 141.86 100.231 141.973 99.8512 142.2C99.4778 142.427 99.1812 142.74 98.9612 143.14C98.7478 143.54 98.6412 144 98.6412 144.52C98.6412 144.907 98.7012 145.267 98.8212 145.6C98.9478 145.927 99.1212 146.21 99.3412 146.45C99.5678 146.683 99.8345 146.867 100.141 147C100.455 147.133 100.795 147.2 101.161 147.2ZM108.301 148.1C107.941 148.1 107.614 148.027 107.321 147.88C107.034 147.727 106.804 147.517 106.631 147.25C106.457 146.983 106.361 146.68 106.341 146.34V144.91C106.361 144.563 106.457 144.26 106.631 144C106.811 143.733 107.044 143.527 107.331 143.38C107.624 143.227 107.947 143.15 108.301 143.15C108.734 143.15 109.124 143.26 109.471 143.48C109.824 143.7 110.101 143.997 110.301 144.37C110.501 144.743 110.601 145.163 110.601 145.63C110.601 146.097 110.501 146.517 110.301 146.89C110.101 147.263 109.824 147.56 109.471 147.78C109.124 147.993 108.734 148.1 108.301 148.1ZM105.801 149.99V143.25H106.701V144.5L106.531 145.65L106.701 146.81V149.99H105.801ZM108.151 147.25C108.451 147.25 108.714 147.18 108.941 147.04C109.167 146.9 109.347 146.71 109.481 146.47C109.614 146.223 109.681 145.94 109.681 145.62C109.681 145.307 109.614 145.027 109.481 144.78C109.347 144.533 109.167 144.343 108.941 144.21C108.714 144.07 108.454 144 108.161 144C107.861 144 107.597 144.07 107.371 144.21C107.144 144.343 106.967 144.533 106.841 144.78C106.714 145.027 106.651 145.31 106.651 145.63C106.651 145.943 106.711 146.223 106.831 146.47C106.957 146.71 107.134 146.9 107.361 147.04C107.594 147.18 107.857 147.25 108.151 147.25ZM113.821 148.1C113.348 148.1 112.921 147.993 112.541 147.78C112.161 147.56 111.861 147.263 111.641 146.89C111.421 146.517 111.311 146.093 111.311 145.62C111.311 145.153 111.418 144.733 111.631 144.36C111.851 143.987 112.144 143.693 112.511 143.48C112.884 143.26 113.301 143.15 113.761 143.15C114.201 143.15 114.588 143.25 114.921 143.45C115.261 143.65 115.524 143.927 115.711 144.28C115.904 144.633 116.001 145.033 116.001 145.48C116.001 145.547 115.998 145.62 115.991 145.7C115.984 145.773 115.971 145.86 115.951 145.96H111.941V145.21H115.471L115.141 145.5C115.141 145.18 115.084 144.91 114.971 144.69C114.858 144.463 114.698 144.29 114.491 144.17C114.284 144.043 114.034 143.98 113.741 143.98C113.434 143.98 113.164 144.047 112.931 144.18C112.698 144.313 112.518 144.5 112.391 144.74C112.264 144.98 112.201 145.263 112.201 145.59C112.201 145.923 112.268 146.217 112.401 146.47C112.534 146.717 112.724 146.91 112.971 147.05C113.218 147.183 113.501 147.25 113.821 147.25C114.088 147.25 114.331 147.203 114.551 147.11C114.778 147.017 114.971 146.877 115.131 146.69L115.711 147.28C115.484 147.547 115.204 147.75 114.871 147.89C114.544 148.03 114.194 148.1 113.821 148.1ZM120.342 148V145.23C120.342 144.87 120.229 144.573 120.002 144.34C119.776 144.107 119.482 143.99 119.122 143.99C118.882 143.99 118.669 144.043 118.482 144.15C118.296 144.257 118.149 144.403 118.042 144.59C117.936 144.777 117.882 144.99 117.882 145.23L117.512 145.02C117.512 144.66 117.592 144.34 117.752 144.06C117.912 143.78 118.136 143.56 118.422 143.4C118.709 143.233 119.032 143.15 119.392 143.15C119.752 143.15 120.069 143.24 120.342 143.42C120.622 143.6 120.842 143.837 121.002 144.13C121.162 144.417 121.242 144.723 121.242 145.05V148H120.342ZM116.982 148V143.25H117.882V148H116.982ZM122.111 148L124.951 141.06H125.631L128.461 148H127.441L125.111 142.13H125.461L123.111 148H122.111ZM123.461 146.43V145.61H127.111V146.43H123.461ZM129.506 148V141.06H130.446V148H129.506ZM132.714 148.1C132.527 148.1 132.37 148.037 132.244 147.91C132.124 147.777 132.064 147.62 132.064 147.44C132.064 147.253 132.124 147.1 132.244 146.98C132.37 146.853 132.527 146.79 132.714 146.79C132.9 146.79 133.054 146.853 133.174 146.98C133.3 147.1 133.364 147.253 133.364 147.44C133.364 147.62 133.3 147.777 133.174 147.91C133.054 148.037 132.9 148.1 132.714 148.1Z" fill="#BCBDBF"/>
<defs>
<linearGradient id="paint0_linear_7173_13892" x1="24" y1="66" x2="287" y2="66" gradientUnits="userSpaceOnUse">
<stop stop-color="#343842"/>
<stop offset="1" stop-color="#101217"/>
</linearGradient>
<linearGradient id="paint1_linear_7173_13892" x1="36" y1="97.4307" x2="57.4459" y2="100.019" gradientUnits="userSpaceOnUse">
<stop stop-color="#30C5D2"/>
<stop offset="1" stop-color="#471069"/>
</linearGradient>
</defs>
</svg>
