<svg width="311" height="186" viewBox="0 0 311 186" fill="none" xmlns="http://www.w3.org/2000/svg">
<rect width="311" height="186" rx="12" fill="#101217"/>
<circle cx="14" cy="14" r="4" fill="#D95A57"/>
<circle cx="26" cy="14" r="4" fill="#585A5D"/>
<circle cx="38" cy="14" r="4" fill="#52BE80"/>
<rect x="24" y="42" width="263" height="10" rx="5" fill="url(#paint0_linear_7173_13908)"/>
<rect x="24" y="60" width="141" height="10" rx="5" fill="url(#paint1_linear_7173_13908)"/>
<rect x="24" y="78" width="141" height="10" rx="5" fill="url(#paint2_linear_7173_13908)"/>
<rect x="24" y="96" width="67" height="10" rx="5" fill="url(#paint3_linear_7173_13908)"/>
<rect x="24" y="126" width="94" height="36" rx="6" fill="url(#paint4_linear_7173_13908)"/>
<path d="M50.0002 137.333C48.2535 137.333 46.8335 138.753 46.8335 140.5C46.8335 142.213 48.1735 143.6 49.9202 143.66C49.9735 143.653 50.0268 143.653 50.0668 143.66C50.0802 143.66 50.0868 143.66 50.1002 143.66C50.1068 143.66 50.1068 143.66 50.1135 143.66C51.8202 143.6 53.1602 142.213 53.1668 140.5C53.1668 138.753 51.7468 137.333 50.0002 137.333Z" fill="white"/>
<path d="M53.3866 145.433C51.5266 144.193 48.4933 144.193 46.62 145.433C45.7733 146 45.3066 146.766 45.3066 147.586C45.3066 148.406 45.7733 149.166 46.6133 149.726C47.5466 150.353 48.7733 150.666 50 150.666C51.2266 150.666 52.4533 150.353 53.3866 149.726C54.2266 149.16 54.6933 148.4 54.6933 147.573C54.6866 146.753 54.2266 145.993 53.3866 145.433Z" fill="white"/>
<path d="M64.82 147.5V140.56H65.76V147.5H64.82ZM65.46 147.5V146.64H69.44V147.5H65.46ZM65.46 144.36V143.54H69.11V144.36H65.46ZM65.46 141.42V140.56H69.39V141.42H65.46ZM73.6784 147.5L72.1984 145.42L72.0284 145.26L70.1584 142.75H71.2484L72.5984 144.6L72.7684 144.74L74.7684 147.5H73.6784ZM70.0684 147.5L72.0284 144.86L72.5384 145.52L71.1284 147.5H70.0684ZM72.8384 145.25L72.3184 144.61L73.6284 142.75H74.6784L72.8384 145.25ZM78.0975 147.6C77.7375 147.6 77.4108 147.527 77.1175 147.38C76.8308 147.227 76.6008 147.017 76.4275 146.75C76.2542 146.483 76.1575 146.18 76.1375 145.84V144.41C76.1575 144.063 76.2542 143.76 76.4275 143.5C76.6075 143.233 76.8408 143.027 77.1275 142.88C77.4208 142.727 77.7442 142.65 78.0975 142.65C78.5308 142.65 78.9208 142.76 79.2675 142.98C79.6208 143.2 79.8975 143.497 80.0975 143.87C80.2975 144.243 80.3975 144.663 80.3975 145.13C80.3975 145.597 80.2975 146.017 80.0975 146.39C79.8975 146.763 79.6208 147.06 79.2675 147.28C78.9208 147.493 78.5308 147.6 78.0975 147.6ZM75.5975 149.49V142.75H76.4975V144L76.3275 145.15L76.4975 146.31V149.49H75.5975ZM77.9475 146.75C78.2475 146.75 78.5108 146.68 78.7375 146.54C78.9642 146.4 79.1442 146.21 79.2775 145.97C79.4108 145.723 79.4775 145.44 79.4775 145.12C79.4775 144.807 79.4108 144.527 79.2775 144.28C79.1442 144.033 78.9642 143.843 78.7375 143.71C78.5108 143.57 78.2508 143.5 77.9575 143.5C77.6575 143.5 77.3942 143.57 77.1675 143.71C76.9408 143.843 76.7642 144.033 76.6375 144.28C76.5108 144.527 76.4475 144.81 76.4475 145.13C76.4475 145.443 76.5075 145.723 76.6275 145.97C76.7542 146.21 76.9308 146.4 77.1575 146.54C77.3908 146.68 77.6542 146.75 77.9475 146.75ZM81.4178 147.5V140.36H82.3178V147.5H81.4178ZM85.8046 147.6C85.3379 147.6 84.9179 147.49 84.5446 147.27C84.1713 147.05 83.8746 146.753 83.6546 146.38C83.4346 146 83.3246 145.577 83.3246 145.11C83.3246 144.65 83.4346 144.237 83.6546 143.87C83.8746 143.497 84.1713 143.2 84.5446 142.98C84.9179 142.76 85.3379 142.65 85.8046 142.65C86.2646 142.65 86.6813 142.76 87.0546 142.98C87.4346 143.193 87.7346 143.487 87.9546 143.86C88.1746 144.233 88.2846 144.65 88.2846 145.11C88.2846 145.577 88.1746 146 87.9546 146.38C87.7346 146.753 87.4346 147.05 87.0546 147.27C86.6813 147.49 86.2646 147.6 85.8046 147.6ZM85.8046 146.73C86.1046 146.73 86.3713 146.66 86.6046 146.52C86.8379 146.38 87.0213 146.19 87.1546 145.95C87.2879 145.703 87.3546 145.423 87.3546 145.11C87.3546 144.803 87.2846 144.53 87.1446 144.29C87.0113 144.05 86.8279 143.863 86.5946 143.73C86.3679 143.59 86.1046 143.52 85.8046 143.52C85.5046 143.52 85.2379 143.59 85.0046 143.73C84.7713 143.863 84.5879 144.05 84.4546 144.29C84.3213 144.53 84.2546 144.803 84.2546 145.11C84.2546 145.423 84.3213 145.703 84.4546 145.95C84.5879 146.19 84.7713 146.38 85.0046 146.52C85.2379 146.66 85.5046 146.73 85.8046 146.73ZM89.2987 147.5V142.75H90.1987V147.5H89.2987ZM90.1987 144.79L89.8587 144.64C89.8587 144.033 89.9987 143.55 90.2787 143.19C90.5587 142.83 90.962 142.65 91.4887 142.65C91.7287 142.65 91.9453 142.693 92.1387 142.78C92.332 142.86 92.512 142.997 92.6787 143.19L92.0887 143.8C91.9887 143.693 91.8787 143.617 91.7587 143.57C91.6387 143.523 91.4987 143.5 91.3387 143.5C91.0053 143.5 90.732 143.607 90.5187 143.82C90.3053 144.033 90.1987 144.357 90.1987 144.79ZM95.3561 147.6C94.8828 147.6 94.4561 147.493 94.0761 147.28C93.6961 147.06 93.3961 146.763 93.1761 146.39C92.9561 146.017 92.8461 145.593 92.8461 145.12C92.8461 144.653 92.9528 144.233 93.1661 143.86C93.3861 143.487 93.6794 143.193 94.0461 142.98C94.4194 142.76 94.8361 142.65 95.2961 142.65C95.7361 142.65 96.1228 142.75 96.4561 142.95C96.7961 143.15 97.0594 143.427 97.2461 143.78C97.4394 144.133 97.5361 144.533 97.5361 144.98C97.5361 145.047 97.5328 145.12 97.5261 145.2C97.5194 145.273 97.5061 145.36 97.4861 145.46H93.4761V144.71H97.0061L96.6761 145C96.6761 144.68 96.6194 144.41 96.5061 144.19C96.3928 143.963 96.2328 143.79 96.0261 143.67C95.8194 143.543 95.5694 143.48 95.2761 143.48C94.9694 143.48 94.6994 143.547 94.4661 143.68C94.2328 143.813 94.0528 144 93.9261 144.24C93.7994 144.48 93.7361 144.763 93.7361 145.09C93.7361 145.423 93.8028 145.717 93.9361 145.97C94.0694 146.217 94.2594 146.41 94.5061 146.55C94.7528 146.683 95.0361 146.75 95.3561 146.75C95.6228 146.75 95.8661 146.703 96.0861 146.61C96.3128 146.517 96.5061 146.377 96.6661 146.19L97.2461 146.78C97.0194 147.047 96.7394 147.25 96.4061 147.39C96.0794 147.53 95.7294 147.6 95.3561 147.6Z" fill="white"/>
<path d="M208.608 138.749L208.606 138.748C207.225 137.733 205.943 136.07 205.005 134.198C204.067 132.327 203.5 130.301 203.5 128.586V92.3265C203.5 89.9194 204.424 87.3649 205.941 85.187C207.459 83.0095 209.542 81.2482 211.814 80.395C211.815 80.3949 211.815 80.3948 211.815 80.3947L236.56 71.1745C236.56 71.1744 236.561 71.1742 236.561 71.1741C237.771 70.7306 239.396 70.5 241.045 70.5C242.694 70.5 244.318 70.7306 245.529 71.1741C245.529 71.1742 245.529 71.1744 245.53 71.1745L270.273 80.3942C270.274 80.3944 270.274 80.3946 270.275 80.3948C272.524 81.2477 274.596 83.0085 276.102 85.1856C277.609 87.3633 278.521 89.9166 278.5 92.3221V92.3265V128.586C278.5 130.3 277.932 132.315 276.995 134.181C276.057 136.046 274.775 137.712 273.391 138.75C273.39 138.75 273.39 138.751 273.39 138.751L248.643 157.148L248.642 157.149C246.561 158.707 243.792 159.5 241 159.5C238.207 159.5 235.438 158.707 233.358 157.149L233.356 157.148L208.608 138.749ZM244.897 130.645V119.233C249.458 117.639 252.771 113.378 252.771 108.263C252.771 101.807 247.506 96.5716 241.022 96.5716C234.539 96.5716 229.273 101.807 229.273 108.263C229.273 113.333 232.586 117.637 237.148 119.233V130.645C237.148 132.759 238.904 134.503 241.022 134.503C243.141 134.503 244.897 132.759 244.897 130.645Z" fill="#333741" stroke="#404145"/>
<defs>
<linearGradient id="paint0_linear_7173_13908" x1="24" y1="47" x2="287" y2="47" gradientUnits="userSpaceOnUse">
<stop stop-color="#343842"/>
<stop offset="1" stop-color="#101217"/>
</linearGradient>
<linearGradient id="paint1_linear_7173_13908" x1="24" y1="65" x2="165" y2="65" gradientUnits="userSpaceOnUse">
<stop stop-color="#343842"/>
<stop offset="1" stop-color="#101217"/>
</linearGradient>
<linearGradient id="paint2_linear_7173_13908" x1="24" y1="83" x2="165" y2="83" gradientUnits="userSpaceOnUse">
<stop stop-color="#343842"/>
<stop offset="1" stop-color="#101217"/>
</linearGradient>
<linearGradient id="paint3_linear_7173_13908" x1="24" y1="101" x2="91" y2="101" gradientUnits="userSpaceOnUse">
<stop stop-color="#343842"/>
<stop offset="1" stop-color="#101217"/>
</linearGradient>
<linearGradient id="paint4_linear_7173_13908" x1="24" y1="135.775" x2="117.027" y2="165.088" gradientUnits="userSpaceOnUse">
<stop stop-color="#30C5D2"/>
<stop offset="1" stop-color="#471069"/>
</linearGradient>
</defs>
</svg>
