<svg xmlns="http://www.w3.org/2000/svg" xmlns:xlink="http://www.w3.org/1999/xlink" xmlns:inkscape="http://www.inkscape.org/namespaces/inkscape" version="1.1" width="73.013" height="73.0374" viewBox="0 0 73.013 73.0374">
<defs>
<clipPath id="clip_0">
<path transform="matrix(1,0,0,-1,1,72.0374)" d="M35.5062 0H35.5068C55.0352 0 71.013 15.9775 71.013 35.5062V35.5311C71.013 55.0593 55.0352 71.0374 35.5068 71.0374H35.5062C15.9778 71.0374 0 55.0593 0 35.5311V35.5062C0 15.9775 15.9778 0 35.5062 0" clip-rule="evenodd"/>
</clipPath>
</defs>
<g inkscape:groupmode="layer" inkscape:label="Layer 1">
<g clip-path="url(#clip_0)">
<path transform="matrix(1,0,0,-1,1,72.0374)" d="M0 71.0374H.4161V0H0Z" fill="#30c5d2" fill-rule="evenodd"/>
<path transform="matrix(1,0,0,-1,1,72.0374)" d="M.2775 71.0374H.6936V0H.2775Z" fill="#30c5d2" fill-rule="evenodd"/>
<path transform="matrix(1,0,0,-1,1,72.0374)" d="M.555 71.0374H.9709V0H.555Z" fill="#30c5d2" fill-rule="evenodd"/>
<path transform="matrix(1,0,0,-1,1,72.0374)" d="M.8323 71.0374H1.2484V0H.8323Z" fill="#31c5d2" fill-rule="evenodd"/>
<path transform="matrix(1,0,0,-1,1,72.0374)" d="M1.1098 71.0374H1.5259V0H1.1098Z" fill="#32c5d2" fill-rule="evenodd"/>
<path transform="matrix(1,0,0,-1,1,72.0374)" d="M1.387 71.0374H1.8031V0H1.387Z" fill="#32c5d2" fill-rule="evenodd"/>
<path transform="matrix(1,0,0,-1,1,72.0374)" d="M1.6645 71.0374H2.0806V0H1.6645Z" fill="#34c5d2" fill-rule="evenodd"/>
<path transform="matrix(1,0,0,-1,1,72.0374)" d="M1.942 71.0374H2.3579V0H1.942Z" fill="#35c5d2" fill-rule="evenodd"/>
<path transform="matrix(1,0,0,-1,1,72.0374)" d="M2.2192 71.0374H2.6354V0H2.2192Z" fill="#36c5d2" fill-rule="evenodd"/>
<path transform="matrix(1,0,0,-1,1,72.0374)" d="M2.4968 71.0374H2.9129V0H2.4968Z" fill="#38c5d2" fill-rule="evenodd"/>
<path transform="matrix(1,0,0,-1,1,72.0374)" d="M2.774 71.0374H3.1901V0H2.774Z" fill="#39c5d2" fill-rule="evenodd"/>
<path transform="matrix(1,0,0,-1,1,72.0374)" d="M3.0515 71.0374H3.4676V0H3.0515Z" fill="#3bc5d2" fill-rule="evenodd"/>
<path transform="matrix(1,0,0,-1,1,72.0374)" d="M3.3287 71.0374H3.7449V0H3.3287Z" fill="#3dc5d2" fill-rule="evenodd"/>
<path transform="matrix(1,0,0,-1,1,72.0374)" d="M3.6062 71.0374H4.0224V0H3.6062Z" fill="#3fc4d2" fill-rule="evenodd"/>
<path transform="matrix(1,0,0,-1,1,72.0374)" d="M3.8837 71.0374H4.2996V0H3.8837Z" fill="#41c4d2" fill-rule="evenodd"/>
<path transform="matrix(1,0,0,-1,1,72.0374)" d="M4.161 71.0374H4.5771V0H4.161Z" fill="#43c4d2" fill-rule="evenodd"/>
<path transform="matrix(1,0,0,-1,1,72.0374)" d="M4.4385 71.0374H4.8546V0H4.4385Z" fill="#45c4d3" fill-rule="evenodd"/>
<path transform="matrix(1,0,0,-1,1,72.0374)" d="M4.7157 71.0374H5.1318V0H4.7157Z" fill="#48c4d3" fill-rule="evenodd"/>
<path transform="matrix(1,0,0,-1,1,72.0374)" d="M4.9932 71.0374H5.4094V0H4.9932Z" fill="#4ac4d3" fill-rule="evenodd"/>
<path transform="matrix(1,0,0,-1,1,72.0374)" d="M5.2707 71.0374H5.6866V0H5.2707Z" fill="#4dc4d3" fill-rule="evenodd"/>
<path transform="matrix(1,0,0,-1,1,72.0374)" d="M5.548 71.0374H5.9641V0H5.548Z" fill="#4fc4d3" fill-rule="evenodd"/>
<path transform="matrix(1,0,0,-1,1,72.0374)" d="M5.8255 71.0374H6.2416V0H5.8255Z" fill="#52c4d3" fill-rule="evenodd"/>
<path transform="matrix(1,0,0,-1,1,72.0374)" d="M6.1027 71.0374H6.5188V0H6.1027Z" fill="#54c4d3" fill-rule="evenodd"/>
<path transform="matrix(1,0,0,-1,1,72.0374)" d="M6.3802 71.0374H6.7963V0H6.3802Z" fill="#57c3d3" fill-rule="evenodd"/>
<path transform="matrix(1,0,0,-1,1,72.0374)" d="M6.6574 71.0374H7.0736V0H6.6574Z" fill="#5ac3d3" fill-rule="evenodd"/>
<path transform="matrix(1,0,0,-1,1,72.0374)" d="M6.935 71.0374H7.3511V0H6.935Z" fill="#5cc3d3" fill-rule="evenodd"/>
<path transform="matrix(1,0,0,-1,1,72.0374)" d="M7.2125 71.0374H7.6283V0H7.2125Z" fill="#5fc3d3" fill-rule="evenodd"/>
<path transform="matrix(1,0,0,-1,1,72.0374)" d="M7.4897 71.0374H7.9058V0H7.4897Z" fill="#62c3d3" fill-rule="evenodd"/>
<path transform="matrix(1,0,0,-1,1,72.0374)" d="M7.7672 71.0374H8.1833V0H7.7672Z" fill="#64c3d3" fill-rule="evenodd"/>
<path transform="matrix(1,0,0,-1,1,72.0374)" d="M8.0444 71.0374H8.4606V0H8.0444Z" fill="#67c3d3" fill-rule="evenodd"/>
<path transform="matrix(1,0,0,-1,1,72.0374)" d="M8.322 71.0374H8.7381V0H8.322Z" fill="#6ac3d3" fill-rule="evenodd"/>
<path transform="matrix(1,0,0,-1,1,72.0374)" d="M8.5995 71.0374H9.0153V0H8.5995Z" fill="#6cc3d4" fill-rule="evenodd"/>
<path transform="matrix(1,0,0,-1,1,72.0374)" d="M8.8767 71.0374H9.2928V0H8.8767Z" fill="#6fc3d4" fill-rule="evenodd"/>
<path transform="matrix(1,0,0,-1,1,72.0374)" d="M9.1542 71.0374H9.5703V0H9.1542Z" fill="#71c2d4" fill-rule="evenodd"/>
<path transform="matrix(1,0,0,-1,1,72.0374)" d="M9.4314 71.0374H9.8476V0H9.4314Z" fill="#74c2d4" fill-rule="evenodd"/>
<path transform="matrix(1,0,0,-1,1,72.0374)" d="M9.7089 71.0374H10.1251V0H9.7089Z" fill="#76c2d4" fill-rule="evenodd"/>
<path transform="matrix(1,0,0,-1,1,72.0374)" d="M9.9862 71.0374H10.4023V0H9.9862Z" fill="#78c2d4" fill-rule="evenodd"/>
<path transform="matrix(1,0,0,-1,1,72.0374)" d="M10.2637 71.0374H10.6798V0H10.2637Z" fill="#7ac2d4" fill-rule="evenodd"/>
<path transform="matrix(1,0,0,-1,1,72.0374)" d="M10.5412 71.0374H10.957V0H10.5412Z" fill="#7cc2d4" fill-rule="evenodd"/>
<path transform="matrix(1,0,0,-1,1,72.0374)" d="M10.8184 71.0374H11.2346V0H10.8184Z" fill="#7dc2d4" fill-rule="evenodd"/>
<path transform="matrix(1,0,0,-1,1,72.0374)" d="M11.0959 71.0374H11.5121V0H11.0959Z" fill="#7ec2d4" fill-rule="evenodd"/>
<path transform="matrix(1,0,0,-1,1,72.0374)" d="M11.3732 71.0374H11.7893V0H11.3732Z" fill="#7ec2d4" fill-rule="evenodd"/>
<path transform="matrix(1,0,0,-1,1,72.0374)" d="M11.6507 71.0374H12.0668V0H11.6507Z" fill="#7ec2d4" fill-rule="evenodd"/>
<path transform="matrix(1,0,0,-1,1,72.0374)" d="M11.9279 71.0374H12.344V0H11.9279Z" fill="#7fc2d4" fill-rule="evenodd"/>
<path transform="matrix(1,0,0,-1,1,72.0374)" d="M12.2054 71.0374H12.6215V0H12.2054Z" fill="#7fc2d4" fill-rule="evenodd"/>
<path transform="matrix(1,0,0,-1,1,72.0374)" d="M12.4829 71.0374H12.8991V0H12.4829Z" fill="#7fc2d4" fill-rule="evenodd"/>
<path transform="matrix(1,0,0,-1,1,72.0374)" d="M12.7602 71.0374H13.1763V0H12.7602Z" fill="#80c2d4" fill-rule="evenodd"/>
<path transform="matrix(1,0,0,-1,1,72.0374)" d="M13.0377 71.0374H13.4538V0H13.0377Z" fill="#80c2d4" fill-rule="evenodd"/>
<path transform="matrix(1,0,0,-1,1,72.0374)" d="M13.3149 71.0374H13.731V0H13.3149Z" fill="#81c2d4" fill-rule="evenodd"/>
<path transform="matrix(1,0,0,-1,1,72.0374)" d="M13.5924 71.0374H14.0085V0H13.5924Z" fill="#81c2d4" fill-rule="evenodd"/>
<path transform="matrix(1,0,0,-1,1,72.0374)" d="M13.8699 71.0374H14.2858V0H13.8699Z" fill="#81c2d4" fill-rule="evenodd"/>
<path transform="matrix(1,0,0,-1,1,72.0374)" d="M14.1471 71.0374H14.5633V0H14.1471Z" fill="#82c2d4" fill-rule="evenodd"/>
<path transform="matrix(1,0,0,-1,1,72.0374)" d="M14.4247 71.0374H14.8408V0H14.4247Z" fill="#82c2d4" fill-rule="evenodd"/>
<path transform="matrix(1,0,0,-1,1,72.0374)" d="M14.7019 71.0374H15.118V0H14.7019Z" fill="#83c2d4" fill-rule="evenodd"/>
<path transform="matrix(1,0,0,-1,1,72.0374)" d="M14.9794 71.0374H15.3955V0H14.9794Z" fill="#83c2d4" fill-rule="evenodd"/>
<path transform="matrix(1,0,0,-1,1,72.0374)" d="M15.2566 71.0374H15.6728V0H15.2566Z" fill="#83c2d4" fill-rule="evenodd"/>
<path transform="matrix(1,0,0,-1,1,72.0374)" d="M15.5341 71.0374H15.9503V0H15.5341Z" fill="#84c2d4" fill-rule="evenodd"/>
<path transform="matrix(1,0,0,-1,1,72.0374)" d="M15.8117 71.0374H16.2278V0H15.8117Z" fill="#84c2d4" fill-rule="evenodd"/>
<path transform="matrix(1,0,0,-1,1,72.0374)" d="M16.0889 71.0374H16.505V0H16.0889Z" fill="#85c2d4" fill-rule="evenodd"/>
<path transform="matrix(1,0,0,-1,1,72.0374)" d="M16.3664 71.0374H16.7825V0H16.3664Z" fill="#85c2d4" fill-rule="evenodd"/>
<path transform="matrix(1,0,0,-1,1,72.0374)" d="M16.6436 71.0374H17.0597V0H16.6436Z" fill="#85c2d4" fill-rule="evenodd"/>
<path transform="matrix(1,0,0,-1,1,72.0374)" d="M16.9211 71.0374H17.3373V0H16.9211Z" fill="#86c2d4" fill-rule="evenodd"/>
<path transform="matrix(1,0,0,-1,1,72.0374)" d="M17.1986 71.0374H17.6145V0H17.1986Z" fill="#86c2d4" fill-rule="evenodd"/>
<path transform="matrix(1,0,0,-1,1,72.0374)" d="M17.4759 71.0374H17.892V0H17.4759Z" fill="#87c2d4" fill-rule="evenodd"/>
<path transform="matrix(1,0,0,-1,1,72.0374)" d="M17.7534 71.0374H18.1695V0H17.7534Z" fill="#87c2d4" fill-rule="evenodd"/>
<path transform="matrix(1,0,0,-1,1,72.0374)" d="M18.0306 71.0374H18.4467V0H18.0306Z" fill="#87c2d4" fill-rule="evenodd"/>
<path transform="matrix(1,0,0,-1,1,72.0374)" d="M18.3081 71.0374H18.7243V0H18.3081Z" fill="#88c2d4" fill-rule="evenodd"/>
<path transform="matrix(1,0,0,-1,1,72.0374)" d="M18.5854 71.0374H19.0015V0H18.5854Z" fill="#88c2d4" fill-rule="evenodd"/>
<path transform="matrix(1,0,0,-1,1,72.0374)" d="M18.8629 71.0374H19.279V0H18.8629Z" fill="#89c2d4" fill-rule="evenodd"/>
<path transform="matrix(1,0,0,-1,1,72.0374)" d="M19.1404 71.0374H19.5565V0H19.1404Z" fill="#89c2d4" fill-rule="evenodd"/>
<path transform="matrix(1,0,0,-1,1,72.0374)" d="M19.4176 71.0374H19.8337V0H19.4176Z" fill="#8ac2d4" fill-rule="evenodd"/>
<path transform="matrix(1,0,0,-1,1,72.0374)" d="M19.6951 71.0374H20.1112V0H19.6951Z" fill="#8ac1d4" fill-rule="evenodd"/>
<path transform="matrix(1,0,0,-1,1,72.0374)" d="M19.9723 71.0374H20.3885V0H19.9723Z" fill="#8ac1d4" fill-rule="evenodd"/>
<path transform="matrix(1,0,0,-1,1,72.0374)" d="M20.2499 71.0374H20.666V0H20.2499Z" fill="#8bc1d4" fill-rule="evenodd"/>
<path transform="matrix(1,0,0,-1,1,72.0374)" d="M20.5274 71.0374H20.9432V0H20.5274Z" fill="#8bc1d4" fill-rule="evenodd"/>
<path transform="matrix(1,0,0,-1,1,72.0374)" d="M20.8046 71.0374H21.2207V0H20.8046Z" fill="#8cc1d4" fill-rule="evenodd"/>
<path transform="matrix(1,0,0,-1,1,72.0374)" d="M21.0821 71.0374H21.4982V0H21.0821Z" fill="#8cc1d4" fill-rule="evenodd"/>
<path transform="matrix(1,0,0,-1,1,72.0374)" d="M21.3593 71.0374H21.7755V0H21.3593Z" fill="#8dc1d4" fill-rule="evenodd"/>
<path transform="matrix(1,0,0,-1,1,72.0374)" d="M21.6369 71.0374H22.053V0H21.6369Z" fill="#8dc1d4" fill-rule="evenodd"/>
<path transform="matrix(1,0,0,-1,1,72.0374)" d="M21.9141 71.0374H22.3302V0H21.9141Z" fill="#8ec1d4" fill-rule="evenodd"/>
<path transform="matrix(1,0,0,-1,1,72.0374)" d="M22.1916 71.0374H22.6077V0H22.1916Z" fill="#8ec1d4" fill-rule="evenodd"/>
<path transform="matrix(1,0,0,-1,1,72.0374)" d="M22.4691 71.0374H22.8852V0H22.4691Z" fill="#8ec1d4" fill-rule="evenodd"/>
<path transform="matrix(1,0,0,-1,1,72.0374)" d="M22.7463 71.0374H23.1625V0H22.7463Z" fill="#8fc1d4" fill-rule="evenodd"/>
<path transform="matrix(1,0,0,-1,1,72.0374)" d="M23.0238 71.0374H23.44V0H23.0238Z" fill="#8fc1d4" fill-rule="evenodd"/>
<path transform="matrix(1,0,0,-1,1,72.0374)" d="M23.3011 71.0374H23.7172V0H23.3011Z" fill="#90c1d4" fill-rule="evenodd"/>
<path transform="matrix(1,0,0,-1,1,72.0374)" d="M23.5786 71.0374H23.9947V0H23.5786Z" fill="#90c1d5" fill-rule="evenodd"/>
<path transform="matrix(1,0,0,-1,1,72.0374)" d="M23.8561 71.0374H24.2719V0H23.8561Z" fill="#91c1d5" fill-rule="evenodd"/>
<path transform="matrix(1,0,0,-1,1,72.0374)" d="M24.1333 71.0374H24.5494V0H24.1333Z" fill="#91c1d5" fill-rule="evenodd"/>
<path transform="matrix(1,0,0,-1,1,72.0374)" d="M24.4108 71.0374H24.827V0H24.4108Z" fill="#92c1d5" fill-rule="evenodd"/>
<path transform="matrix(1,0,0,-1,1,72.0374)" d="M24.6881 71.0374H25.1042V0H24.6881Z" fill="#92c1d5" fill-rule="evenodd"/>
<path transform="matrix(1,0,0,-1,1,72.0374)" d="M24.9656 71.0374H25.3817V0H24.9656Z" fill="#93c1d5" fill-rule="evenodd"/>
<path transform="matrix(1,0,0,-1,1,72.0374)" d="M25.2428 71.0374H25.6589V0H25.2428Z" fill="#93c1d5" fill-rule="evenodd"/>
<path transform="matrix(1,0,0,-1,1,72.0374)" d="M25.5203 71.0374H25.9364V0H25.5203Z" fill="#93c1d5" fill-rule="evenodd"/>
<path transform="matrix(1,0,0,-1,1,72.0374)" d="M25.7978 71.0374H26.2137V0H25.7978Z" fill="#94c1d5" fill-rule="evenodd"/>
<path transform="matrix(1,0,0,-1,1,72.0374)" d="M26.0751 71.0374H26.4912V0H26.0751Z" fill="#94c1d5" fill-rule="evenodd"/>
<path transform="matrix(1,0,0,-1,1,72.0374)" d="M26.3526 71.0374H26.7687V0H26.3526Z" fill="#95c1d5" fill-rule="evenodd"/>
<path transform="matrix(1,0,0,-1,1,72.0374)" d="M26.6298 71.0374H27.0459V0H26.6298Z" fill="#95c1d5" fill-rule="evenodd"/>
<path transform="matrix(1,0,0,-1,1,72.0374)" d="M26.9073 71.0374H27.3234V0H26.9073Z" fill="#96c1d5" fill-rule="evenodd"/>
<path transform="matrix(1,0,0,-1,1,72.0374)" d="M27.1848 71.0374H27.6007V0H27.1848Z" fill="#96c1d5" fill-rule="evenodd"/>
<path transform="matrix(1,0,0,-1,1,72.0374)" d="M27.462 71.0374H27.8782V0H27.462Z" fill="#97c1d5" fill-rule="evenodd"/>
<path transform="matrix(1,0,0,-1,1,72.0374)" d="M27.7396 71.0374H28.1557V0H27.7396Z" fill="#97c1d5" fill-rule="evenodd"/>
<path transform="matrix(1,0,0,-1,1,72.0374)" d="M28.0168 71.0374H28.4329V0H28.0168Z" fill="#98c1d5" fill-rule="evenodd"/>
<path transform="matrix(1,0,0,-1,1,72.0374)" d="M28.2943 71.0374H28.7104V0H28.2943Z" fill="#98c1d5" fill-rule="evenodd"/>
<path transform="matrix(1,0,0,-1,1,72.0374)" d="M28.5715 71.0374H28.9877V0H28.5715Z" fill="#99c1d5" fill-rule="evenodd"/>
<path transform="matrix(1,0,0,-1,1,72.0374)" d="M28.849 71.0374H29.2652V0H28.849Z" fill="#99c1d5" fill-rule="evenodd"/>
<path transform="matrix(1,0,0,-1,1,72.0374)" d="M29.1266 71.0374H29.5424V0H29.1266Z" fill="#99c1d5" fill-rule="evenodd"/>
<path transform="matrix(1,0,0,-1,1,72.0374)" d="M29.4038 71.0374H29.8199V0H29.4038Z" fill="#9ac1d5" fill-rule="evenodd"/>
<path transform="matrix(1,0,0,-1,1,72.0374)" d="M29.6813 71.0374H30.0974V0H29.6813Z" fill="#9ac1d5" fill-rule="evenodd"/>
<path transform="matrix(1,0,0,-1,1,72.0374)" d="M29.9585 71.0374H30.3746V0H29.9585Z" fill="#9bc1d5" fill-rule="evenodd"/>
<path transform="matrix(1,0,0,-1,1,72.0374)" d="M30.236 71.0374H30.6522V0H30.236Z" fill="#9bc1d5" fill-rule="evenodd"/>
<path transform="matrix(1,0,0,-1,1,72.0374)" d="M30.5135 71.0374H30.9294V0H30.5135Z" fill="#9cc1d5" fill-rule="evenodd"/>
<path transform="matrix(1,0,0,-1,1,72.0374)" d="M30.7908 71.0374H31.2069V0H30.7908Z" fill="#9cc1d5" fill-rule="evenodd"/>
<path transform="matrix(1,0,0,-1,1,72.0374)" d="M31.0683 71.0374H31.4844V0H31.0683Z" fill="#9dc1d5" fill-rule="evenodd"/>
<path transform="matrix(1,0,0,-1,1,72.0374)" d="M31.3455 71.0374H31.7616V0H31.3455Z" fill="#9dc1d5" fill-rule="evenodd"/>
<path transform="matrix(1,0,0,-1,1,72.0374)" d="M31.623 71.0374H32.0391V0H31.623Z" fill="#9ec1d5" fill-rule="evenodd"/>
<path transform="matrix(1,0,0,-1,1,72.0374)" d="M31.9003 71.0374H32.3164V0H31.9003Z" fill="#9ec1d5" fill-rule="evenodd"/>
<path transform="matrix(1,0,0,-1,1,72.0374)" d="M32.1778 71.0374H32.5939V0H32.1778Z" fill="#9fc1d5" fill-rule="evenodd"/>
<path transform="matrix(1,0,0,-1,1,72.0374)" d="M32.4553 71.0374H32.8711V0H32.4553Z" fill="#9fc1d5" fill-rule="evenodd"/>
<path transform="matrix(1,0,0,-1,1,72.0374)" d="M32.7325 71.0374H33.1486V0H32.7325Z" fill="#a0c1d5" fill-rule="evenodd"/>
<path transform="matrix(1,0,0,-1,1,72.0374)" d="M33.01 71.0374H33.4261V0H33.01Z" fill="#a0c1d5" fill-rule="evenodd"/>
<path transform="matrix(1,0,0,-1,1,72.0374)" d="M33.2872 71.0374H33.7034V0H33.2872Z" fill="#a0c1d5" fill-rule="evenodd"/>
<path transform="matrix(1,0,0,-1,1,72.0374)" d="M33.5648 71.0374H33.9809V0H33.5648Z" fill="#a1c1d5" fill-rule="evenodd"/>
<path transform="matrix(1,0,0,-1,1,72.0374)" d="M33.8423 71.0374H34.2581V0H33.8423Z" fill="#a1c1d5" fill-rule="evenodd"/>
<path transform="matrix(1,0,0,-1,1,72.0374)" d="M34.1195 71.0374H34.5356V0H34.1195Z" fill="#a2c1d5" fill-rule="evenodd"/>
<path transform="matrix(1,0,0,-1,1,72.0374)" d="M34.397 71.0374H34.8131V0H34.397Z" fill="#a2c1d5" fill-rule="evenodd"/>
<path transform="matrix(1,0,0,-1,1,72.0374)" d="M34.6742 71.0374H35.0904V0H34.6742Z" fill="#a3c1d5" fill-rule="evenodd"/>
<path transform="matrix(1,0,0,-1,1,72.0374)" d="M34.9517 71.0374H35.3679V0H34.9517Z" fill="#a3c0d5" fill-rule="evenodd"/>
<path transform="matrix(1,0,0,-1,1,72.0374)" d="M35.229 71.0374H35.6451V0H35.229Z" fill="#a4c0d5" fill-rule="evenodd"/>
<path transform="matrix(1,0,0,-1,1,72.0374)" d="M35.5065 71.0374H35.9226V0H35.5065Z" fill="#a4c0d5" fill-rule="evenodd"/>
<path transform="matrix(1,0,0,-1,1,72.0374)" d="M35.784 71.0374H36.1998V0H35.784Z" fill="#a5c0d5" fill-rule="evenodd"/>
<path transform="matrix(1,0,0,-1,1,72.0374)" d="M36.0612 71.0374H36.4774V0H36.0612Z" fill="#a5c0d5" fill-rule="evenodd"/>
<path transform="matrix(1,0,0,-1,1,72.0374)" d="M36.3387 71.0374H36.7549V0H36.3387Z" fill="#a6c0d5" fill-rule="evenodd"/>
<path transform="matrix(1,0,0,-1,1,72.0374)" d="M36.616 71.0374H37.0321V0H36.616Z" fill="#a6c0d5" fill-rule="evenodd"/>
<path transform="matrix(1,0,0,-1,1,72.0374)" d="M36.8935 71.0374H37.3096V0H36.8935Z" fill="#a6c0d5" fill-rule="evenodd"/>
<path transform="matrix(1,0,0,-1,1,72.0374)" d="M37.1707 71.0374H37.5868V0H37.1707Z" fill="#a7c0d5" fill-rule="evenodd"/>
<path transform="matrix(1,0,0,-1,1,72.0374)" d="M37.4482 71.0374H37.8643V0H37.4482Z" fill="#a7c0d5" fill-rule="evenodd"/>
<path transform="matrix(1,0,0,-1,1,72.0374)" d="M37.7257 71.0374H38.1419V0H37.7257Z" fill="#a8c0d5" fill-rule="evenodd"/>
<path transform="matrix(1,0,0,-1,1,72.0374)" d="M38.003 71.0374H38.4191V0H38.003Z" fill="#a8c0d5" fill-rule="evenodd"/>
<path transform="matrix(1,0,0,-1,1,72.0374)" d="M38.2805 71.0374H38.6966V0H38.2805Z" fill="#a9c0d5" fill-rule="evenodd"/>
<path transform="matrix(1,0,0,-1,1,72.0374)" d="M38.5577 71.0374H38.9738V0H38.5577Z" fill="#a9c0d5" fill-rule="evenodd"/>
<path transform="matrix(1,0,0,-1,1,72.0374)" d="M38.8352 71.0374H39.2513V0H38.8352Z" fill="#aac0d5" fill-rule="evenodd"/>
<path transform="matrix(1,0,0,-1,1,72.0374)" d="M39.1127 71.0374H39.5286V0H39.1127Z" fill="#aac0d5" fill-rule="evenodd"/>
<path transform="matrix(1,0,0,-1,1,72.0374)" d="M39.39 71.0374H39.8061V0H39.39Z" fill="#abc0d5" fill-rule="evenodd"/>
<path transform="matrix(1,0,0,-1,1,72.0374)" d="M39.6675 71.0374H40.0836V0H39.6675Z" fill="#abc0d5" fill-rule="evenodd"/>
<path transform="matrix(1,0,0,-1,1,72.0374)" d="M39.9447 71.0374H40.3608V0H39.9447Z" fill="#abc0d5" fill-rule="evenodd"/>
<path transform="matrix(1,0,0,-1,1,72.0374)" d="M40.2222 71.0374H40.6383V0H40.2222Z" fill="#acc0d5" fill-rule="evenodd"/>
<path transform="matrix(1,0,0,-1,1,72.0374)" d="M40.4994 71.0374H40.9156V0H40.4994Z" fill="#acc0d5" fill-rule="evenodd"/>
<path transform="matrix(1,0,0,-1,1,72.0374)" d="M40.7769 71.0374H41.1931V0H40.7769Z" fill="#adc0d5" fill-rule="evenodd"/>
<path transform="matrix(1,0,0,-1,1,72.0374)" d="M41.0545 71.0374H41.4706V0H41.0545Z" fill="#adc0d5" fill-rule="evenodd"/>
<path transform="matrix(1,0,0,-1,1,72.0374)" d="M41.3317 71.0374H41.7478V0H41.3317Z" fill="#aec0d5" fill-rule="evenodd"/>
<path transform="matrix(1,0,0,-1,1,72.0374)" d="M41.6092 71.0374H42.0253V0H41.6092Z" fill="#aec0d5" fill-rule="evenodd"/>
<path transform="matrix(1,0,0,-1,1,72.0374)" d="M41.8864 71.0374H42.3026V0H41.8864Z" fill="#aec0d5" fill-rule="evenodd"/>
<path transform="matrix(1,0,0,-1,1,72.0374)" d="M42.1639 71.0374H42.5801V0H42.1639Z" fill="#afc0d5" fill-rule="evenodd"/>
<path transform="matrix(1,0,0,-1,1,72.0374)" d="M42.4414 71.0374H42.8573V0H42.4414Z" fill="#afc0d5" fill-rule="evenodd"/>
<path transform="matrix(1,0,0,-1,1,72.0374)" d="M42.7187 71.0374H43.1348V0H42.7187Z" fill="#b0c0d5" fill-rule="evenodd"/>
<path transform="matrix(1,0,0,-1,1,72.0374)" d="M42.9962 71.0374H43.4123V0H42.9962Z" fill="#b0c0d5" fill-rule="evenodd"/>
<path transform="matrix(1,0,0,-1,1,72.0374)" d="M43.2734 71.0374H43.6895V0H43.2734Z" fill="#b1c0d5" fill-rule="evenodd"/>
<path transform="matrix(1,0,0,-1,1,72.0374)" d="M43.5509 71.0374H43.9671V0H43.5509Z" fill="#b1c0d5" fill-rule="evenodd"/>
<path transform="matrix(1,0,0,-1,1,72.0374)" d="M43.8282 71.0374H44.2443V0H43.8282Z" fill="#b1c0d5" fill-rule="evenodd"/>
<path transform="matrix(1,0,0,-1,1,72.0374)" d="M44.1057 71.0374H44.5218V0H44.1057Z" fill="#b2c0d5" fill-rule="evenodd"/>
<path transform="matrix(1,0,0,-1,1,72.0374)" d="M44.3832 71.0374H44.7993V0H44.3832Z" fill="#b2c0d5" fill-rule="evenodd"/>
<path transform="matrix(1,0,0,-1,1,72.0374)" d="M44.6604 71.0374H45.0765V0H44.6604Z" fill="#b3c0d5" fill-rule="evenodd"/>
<path transform="matrix(1,0,0,-1,1,72.0374)" d="M44.9379 71.0374H45.354V0H44.9379Z" fill="#b3c0d5" fill-rule="evenodd"/>
<path transform="matrix(1,0,0,-1,1,72.0374)" d="M45.2151 71.0374H45.6313V0H45.2151Z" fill="#b3c0d5" fill-rule="evenodd"/>
<path transform="matrix(1,0,0,-1,1,72.0374)" d="M45.4927 71.0374H45.9088V0H45.4927Z" fill="#b4c0d5" fill-rule="evenodd"/>
<path transform="matrix(1,0,0,-1,1,72.0374)" d="M45.7702 71.0374H46.186V0H45.7702Z" fill="#b4c0d5" fill-rule="evenodd"/>
<path transform="matrix(1,0,0,-1,1,72.0374)" d="M46.0474 71.0374H46.4635V0H46.0474Z" fill="#b5c0d5" fill-rule="evenodd"/>
<path transform="matrix(1,0,0,-1,1,72.0374)" d="M46.3249 71.0374H46.741V0H46.3249Z" fill="#b5c0d5" fill-rule="evenodd"/>
<path transform="matrix(1,0,0,-1,1,72.0374)" d="M46.6021 71.0374H47.0183V0H46.6021Z" fill="#b5c0d5" fill-rule="evenodd"/>
<path transform="matrix(1,0,0,-1,1,72.0374)" d="M46.8797 71.0374H47.2958V0H46.8797Z" fill="#b6c0d5" fill-rule="evenodd"/>
<path transform="matrix(1,0,0,-1,1,72.0374)" d="M47.1569 71.0374H47.573V0H47.1569Z" fill="#b6c0d6" fill-rule="evenodd"/>
<path transform="matrix(1,0,0,-1,1,72.0374)" d="M47.4344 71.0374H47.8505V0H47.4344Z" fill="#b7c0d6" fill-rule="evenodd"/>
<path transform="matrix(1,0,0,-1,1,72.0374)" d="M47.7119 71.0374H48.128V0H47.7119Z" fill="#b7c0d6" fill-rule="evenodd"/>
<path transform="matrix(1,0,0,-1,1,72.0374)" d="M47.9891 71.0374H48.4053V0H47.9891Z" fill="#b7c0d6" fill-rule="evenodd"/>
<path transform="matrix(1,0,0,-1,1,72.0374)" d="M48.2666 71.0374H48.6828V0H48.2666Z" fill="#b8c0d6" fill-rule="evenodd"/>
<path transform="matrix(1,0,0,-1,1,72.0374)" d="M48.5439 71.0374H48.96V0H48.5439Z" fill="#b8c0d6" fill-rule="evenodd"/>
<path transform="matrix(1,0,0,-1,1,72.0374)" d="M48.8214 71.0374H49.2375V0H48.8214Z" fill="#b9c0d6" fill-rule="evenodd"/>
<path transform="matrix(1,0,0,-1,1,72.0374)" d="M49.0989 71.0374H49.5147V0H49.0989Z" fill="#b9c0d6" fill-rule="evenodd"/>
<path transform="matrix(1,0,0,-1,1,72.0374)" d="M49.3761 71.0374H49.7923V0H49.3761Z" fill="#b9c0d6" fill-rule="evenodd"/>
<path transform="matrix(1,0,0,-1,1,72.0374)" d="M49.6536 71.0374H50.0698V0H49.6536Z" fill="#bac0d6" fill-rule="evenodd"/>
<path transform="matrix(1,0,0,-1,1,72.0374)" d="M49.9309 71.0374H50.347V0H49.9309Z" fill="#bac0d6" fill-rule="evenodd"/>
<path transform="matrix(1,0,0,-1,1,72.0374)" d="M50.2084 71.0374H50.6245V0H50.2084Z" fill="#bac0d6" fill-rule="evenodd"/>
<path transform="matrix(1,0,0,-1,1,72.0374)" d="M50.4856 71.0374H50.9017V0H50.4856Z" fill="#bbc0d6" fill-rule="evenodd"/>
<path transform="matrix(1,0,0,-1,1,72.0374)" d="M50.7631 71.0374H51.1792V0H50.7631Z" fill="#bbc0d6" fill-rule="evenodd"/>
<path transform="matrix(1,0,0,-1,1,72.0374)" d="M51.0406 71.0374H51.4565V0H51.0406Z" fill="#bbc0d6" fill-rule="evenodd"/>
<path transform="matrix(1,0,0,-1,1,72.0374)" d="M51.3179 71.0374H51.734V0H51.3179Z" fill="#bcc0d6" fill-rule="evenodd"/>
<path transform="matrix(1,0,0,-1,1,72.0374)" d="M51.5954 71.0374H52.0115V0H51.5954Z" fill="#bcc0d6" fill-rule="evenodd"/>
<path transform="matrix(1,0,0,-1,1,72.0374)" d="M51.8726 71.0374H52.2887V0H51.8726Z" fill="#bcbfd6" fill-rule="evenodd"/>
<path transform="matrix(1,0,0,-1,1,72.0374)" d="M52.1501 71.0374H52.5662V0H52.1501Z" fill="#bdbfd6" fill-rule="evenodd"/>
<path transform="matrix(1,0,0,-1,1,72.0374)" d="M52.4276 71.0374H52.8435V0H52.4276Z" fill="#bdbfd6" fill-rule="evenodd"/>
<path transform="matrix(1,0,0,-1,1,72.0374)" d="M52.7049 71.0374H53.121V0H52.7049Z" fill="#bdbfd6" fill-rule="evenodd"/>
<path transform="matrix(1,0,0,-1,1,72.0374)" d="M52.9824 71.0374H53.3985V0H52.9824Z" fill="#bebfd6" fill-rule="evenodd"/>
<path transform="matrix(1,0,0,-1,1,72.0374)" d="M53.2596 71.0374H53.6757V0H53.2596Z" fill="#bebfd6" fill-rule="evenodd"/>
<path transform="matrix(1,0,0,-1,1,72.0374)" d="M53.5371 71.0374H53.9532V0H53.5371Z" fill="#bebfd6" fill-rule="evenodd"/>
<path transform="matrix(1,0,0,-1,1,72.0374)" d="M53.8143 71.0374H54.2305V0H53.8143Z" fill="#bfbfd6" fill-rule="evenodd"/>
<path transform="matrix(1,0,0,-1,1,72.0374)" d="M54.0918 71.0374H54.508V0H54.0918Z" fill="#bfbfd6" fill-rule="evenodd"/>
<path transform="matrix(1,0,0,-1,1,72.0374)" d="M54.3694 71.0374H54.7852V0H54.3694Z" fill="#bfbfd6" fill-rule="evenodd"/>
<path transform="matrix(1,0,0,-1,1,72.0374)" d="M54.6466 71.0374H55.0627V0H54.6466Z" fill="#c0bfd6" fill-rule="evenodd"/>
<path transform="matrix(1,0,0,-1,1,72.0374)" d="M54.9241 71.0374H55.3402V0H54.9241Z" fill="#c0bfd6" fill-rule="evenodd"/>
<path transform="matrix(1,0,0,-1,1,72.0374)" d="M55.2013 71.0374H55.6174V0H55.2013Z" fill="#c0bfd6" fill-rule="evenodd"/>
<path transform="matrix(1,0,0,-1,1,72.0374)" d="M55.4788 71.0374H55.895V0H55.4788Z" fill="#c0bfd6" fill-rule="evenodd"/>
<path transform="matrix(1,0,0,-1,1,72.0374)" d="M55.7563 71.0374H56.1722V0H55.7563Z" fill="#c1bfd6" fill-rule="evenodd"/>
<path transform="matrix(1,0,0,-1,1,72.0374)" d="M56.0336 71.0374H56.4497V0H56.0336Z" fill="#c1bfd6" fill-rule="evenodd"/>
<path transform="matrix(1,0,0,-1,1,72.0374)" d="M56.3111 71.0374H56.7272V0H56.3111Z" fill="#c1bfd6" fill-rule="evenodd"/>
<path transform="matrix(1,0,0,-1,1,72.0374)" d="M56.5883 71.0374H57.0044V0H56.5883Z" fill="#c2bfd6" fill-rule="evenodd"/>
<path transform="matrix(1,0,0,-1,1,72.0374)" d="M56.8658 71.0374H57.282V0H56.8658Z" fill="#c2bfd6" fill-rule="evenodd"/>
<path transform="matrix(1,0,0,-1,1,72.0374)" d="M57.1431 71.0374H57.5592V0H57.1431Z" fill="#c2bfd6" fill-rule="evenodd"/>
<path transform="matrix(1,0,0,-1,1,72.0374)" d="M57.4206 71.0374H57.8367V0H57.4206Z" fill="#c2bfd6" fill-rule="evenodd"/>
<path transform="matrix(1,0,0,-1,1,72.0374)" d="M57.6981 71.0374H58.1139V0H57.6981Z" fill="#c3bfd6" fill-rule="evenodd"/>
<path transform="matrix(1,0,0,-1,1,72.0374)" d="M57.9753 71.0374H58.3914V0H57.9753Z" fill="#c3bfd6" fill-rule="evenodd"/>
<path transform="matrix(1,0,0,-1,1,72.0374)" d="M58.2528 71.0374H58.6689V0H58.2528Z" fill="#c3bfd6" fill-rule="evenodd"/>
<path transform="matrix(1,0,0,-1,1,72.0374)" d="M58.53 71.0374H58.9462V0H58.53Z" fill="#c3bfd6" fill-rule="evenodd"/>
<path transform="matrix(1,0,0,-1,1,72.0374)" d="M58.8076 71.0374H59.2237V0H58.8076Z" fill="#c4bfd6" fill-rule="evenodd"/>
<path transform="matrix(1,0,0,-1,1,72.0374)" d="M59.0851 71.0374H59.5009V0H59.0851Z" fill="#c4bfd6" fill-rule="evenodd"/>
<path transform="matrix(1,0,0,-1,1,72.0374)" d="M59.3623 71.0374H59.7784V0H59.3623Z" fill="#c4bfd6" fill-rule="evenodd"/>
<path transform="matrix(1,0,0,-1,1,72.0374)" d="M59.6398 71.0374H60.0559V0H59.6398Z" fill="#c4bfd6" fill-rule="evenodd"/>
<path transform="matrix(1,0,0,-1,1,72.0374)" d="M59.917 71.0374H60.3332V0H59.917Z" fill="#c5bfd6" fill-rule="evenodd"/>
<path transform="matrix(1,0,0,-1,1,72.0374)" d="M60.1946 71.0374H60.6107V0H60.1946Z" fill="#c5bfd6" fill-rule="evenodd"/>
<path transform="matrix(1,0,0,-1,1,72.0374)" d="M60.4718 71.0374H60.8879V0H60.4718Z" fill="#c5bfd6" fill-rule="evenodd"/>
<path transform="matrix(1,0,0,-1,1,72.0374)" d="M60.7493 71.0374H61.1654V0H60.7493Z" fill="#c5bfd6" fill-rule="evenodd"/>
<path transform="matrix(1,0,0,-1,1,72.0374)" d="M61.0268 71.0374H61.4426V0H61.0268Z" fill="#c5bfd6" fill-rule="evenodd"/>
<path transform="matrix(1,0,0,-1,1,72.0374)" d="M61.304 71.0374H61.7202V0H61.304Z" fill="#c6bfd6" fill-rule="evenodd"/>
<path transform="matrix(1,0,0,-1,1,72.0374)" d="M61.5815 71.0374H61.9977V0H61.5815Z" fill="#c6bfd6" fill-rule="evenodd"/>
<path transform="matrix(1,0,0,-1,1,72.0374)" d="M61.8588 71.0374H62.2749V0H61.8588Z" fill="#c6bfd6" fill-rule="evenodd"/>
<path transform="matrix(1,0,0,-1,1,72.0374)" d="M62.1363 71.0374H62.5524V0H62.1363Z" fill="#c6bfd6" fill-rule="evenodd"/>
<path transform="matrix(1,0,0,-1,1,72.0374)" d="M62.4138 71.0374H62.8296V0H62.4138Z" fill="#c6bfd6" fill-rule="evenodd"/>
<path transform="matrix(1,0,0,-1,1,72.0374)" d="M62.691 71.0374H63.1071V0H62.691Z" fill="#c6bfd6" fill-rule="evenodd"/>
<path transform="matrix(1,0,0,-1,1,72.0374)" d="M62.9685 71.0374H63.3847V0H62.9685Z" fill="#c7bfd6" fill-rule="evenodd"/>
<path transform="matrix(1,0,0,-1,1,72.0374)" d="M63.2458 71.0374H63.6619V0H63.2458Z" fill="#c7bfd6" fill-rule="evenodd"/>
<path transform="matrix(1,0,0,-1,1,72.0374)" d="M63.5233 71.0374H63.9394V0H63.5233Z" fill="#c7bfd6" fill-rule="evenodd"/>
<path transform="matrix(1,0,0,-1,1,72.0374)" d="M63.8005 71.0374H64.2166V0H63.8005Z" fill="#c7bfd6" fill-rule="evenodd"/>
<path transform="matrix(1,0,0,-1,1,72.0374)" d="M64.078 71.0374H64.4941V0H64.078Z" fill="#c7bfd6" fill-rule="evenodd"/>
<path transform="matrix(1,0,0,-1,1,72.0374)" d="M64.3555 71.0374H64.7714V0H64.3555Z" fill="#c7bfd6" fill-rule="evenodd"/>
<path transform="matrix(1,0,0,-1,1,72.0374)" d="M64.6328 71.0374H65.0489V0H64.6328Z" fill="#c8bfd6" fill-rule="evenodd"/>
<path transform="matrix(1,0,0,-1,1,72.0374)" d="M64.9103 71.0374H65.3264V0H64.9103Z" fill="#c8bfd6" fill-rule="evenodd"/>
<path transform="matrix(1,0,0,-1,1,72.0374)" d="M65.1875 71.0374H65.6036V0H65.1875Z" fill="#c8bfd6" fill-rule="evenodd"/>
<path transform="matrix(1,0,0,-1,1,72.0374)" d="M65.465 71.0374H65.8811V0H65.465Z" fill="#c8bfd6" fill-rule="evenodd"/>
<path transform="matrix(1,0,0,-1,1,72.0374)" d="M65.7422 71.0374H66.1584V0H65.7422Z" fill="#c8bfd6" fill-rule="evenodd"/>
<path transform="matrix(1,0,0,-1,1,72.0374)" d="M66.0197 71.0374H66.4359V0H66.0197Z" fill="#c8bfd6" fill-rule="evenodd"/>
<path transform="matrix(1,0,0,-1,1,72.0374)" d="M66.2973 71.0374H66.7134V0H66.2973Z" fill="#c8bfd6" fill-rule="evenodd"/>
<path transform="matrix(1,0,0,-1,1,72.0374)" d="M66.5745 71.0374H66.9906V0H66.5745Z" fill="#c8bfd6" fill-rule="evenodd"/>
<path transform="matrix(1,0,0,-1,1,72.0374)" d="M66.852 71.0374H67.2681V0H66.852Z" fill="#c8bfd6" fill-rule="evenodd"/>
<path transform="matrix(1,0,0,-1,1,72.0374)" d="M67.1292 71.0374H67.5454V0H67.1292Z" fill="#c8bfd6" fill-rule="evenodd"/>
<path transform="matrix(1,0,0,-1,1,72.0374)" d="M67.4067 71.0374H67.8229V0H67.4067Z" fill="#c9bfd6" fill-rule="evenodd"/>
<path transform="matrix(1,0,0,-1,1,72.0374)" d="M67.6843 71.0374H68.1001V0H67.6843Z" fill="#c9bfd6" fill-rule="evenodd"/>
<path transform="matrix(1,0,0,-1,1,72.0374)" d="M67.9615 71.0374H68.3776V0H67.9615Z" fill="#c9bfd6" fill-rule="evenodd"/>
<path transform="matrix(1,0,0,-1,1,72.0374)" d="M68.239 71.0374H68.6551V0H68.239Z" fill="#c9bfd6" fill-rule="evenodd"/>
<path transform="matrix(1,0,0,-1,1,72.0374)" d="M68.5162 71.0374H68.9323V0H68.5162Z" fill="#c9bfd6" fill-rule="evenodd"/>
<path transform="matrix(1,0,0,-1,1,72.0374)" d="M68.7937 71.0374H69.2099V0H68.7937Z" fill="#c9bfd6" fill-rule="evenodd"/>
<path transform="matrix(1,0,0,-1,1,72.0374)" d="M69.071 71.0374H69.4871V0H69.071Z" fill="#c9bfd6" fill-rule="evenodd"/>
<path transform="matrix(1,0,0,-1,1,72.0374)" d="M69.3485 71.0374H69.7646V0H69.3485Z" fill="#c9bfd6" fill-rule="evenodd"/>
<path transform="matrix(1,0,0,-1,1,72.0374)" d="M69.626 71.0374H70.0421V0H69.626Z" fill="#c9bfd6" fill-rule="evenodd"/>
<path transform="matrix(1,0,0,-1,1,72.0374)" d="M69.9032 71.0374H70.3193V0H69.9032Z" fill="#c9bfd6" fill-rule="evenodd"/>
<path transform="matrix(1,0,0,-1,1,72.0374)" d="M70.1807 71.0374H70.5969V0H70.1807Z" fill="#c9bfd6" fill-rule="evenodd"/>
<path transform="matrix(1,0,0,-1,1,72.0374)" d="M70.458 71.0374H70.8741V0H70.458Z" fill="#c9bfd6" fill-rule="evenodd"/>
<path transform="matrix(1,0,0,-1,1,72.0374)" d="M70.7355 71.0374H71.013V0H70.7355Z" fill="#c9bfd6" fill-rule="evenodd"/>
</g>
<path transform="matrix(1,0,0,-1,1,72.0374)" d="M31.8906 20.8619C32.7815 20.8619 33.5038 20.1396 33.5038 19.2487 33.5038 18.3577 32.7815 17.6355 31.8906 17.6355 30.9997 17.6355 30.2774 18.3577 30.2774 19.2487 30.2774 20.1396 30.9997 20.8619 31.8906 20.8619" fill="#101217" fill-rule="evenodd"/>
<path transform="matrix(1,0,0,-1,1,72.0374)" d="M35.8118 20.5447H39.4396C40.1522 20.5447 40.735 19.9619 40.735 19.2492 40.735 18.5355 40.1522 17.9527 39.4396 17.9527H35.8118C35.0986 17.9527 34.5158 18.5355 34.5158 19.2492 34.5158 19.9619 35.0986 20.5447 35.8118 20.5447" fill="#101217" fill-rule="evenodd"/>
<path transform="matrix(1,0,0,-1,1,72.0374)" d="M43.0432 20.5447H46.6707C47.3834 20.5447 47.9665 19.9619 47.9665 19.2492 47.9665 18.5355 47.3834 17.9527 46.6707 17.9527H43.0432C42.33 17.9527 41.747 18.5355 41.747 19.2492 41.747 19.9619 42.33 20.5447 43.0432 20.5447" fill="#101217" fill-rule="evenodd"/>
<path transform="matrix(1,0,0,-1,1,72.0374)" d="M24.3428 20.5447H27.9703C28.6829 20.5447 29.266 19.9619 29.266 19.2492 29.266 18.5355 28.6829 17.9527 27.9703 17.9527H24.3428C23.6296 17.9527 23.0465 18.5355 23.0465 19.2492 23.0465 19.9619 23.6296 20.5447 24.3428 20.5447" fill="#101217" fill-rule="evenodd"/>
<path transform="matrix(1,0,0,-1,1,72.0374)" d="M33.359 53.4195C34.2499 53.4195 34.9722 52.6972 34.9722 51.8063 34.9722 50.9153 34.2499 50.1931 33.359 50.1931 32.468 50.1931 31.7458 50.9153 31.7458 51.8063 31.7458 52.6972 32.468 53.4195 33.359 53.4195" fill="#101217" fill-rule="evenodd"/>
<path transform="matrix(1,0,0,-1,1,72.0374)" d="M46.353 53.4195C47.2439 53.4195 47.9662 52.6972 47.9662 51.8063 47.9662 50.9153 47.2439 50.1931 46.353 50.1931 45.462 50.1931 44.7398 50.9153 44.7398 51.8063 44.7398 52.6972 45.462 53.4195 46.353 53.4195" fill="#101217" fill-rule="evenodd"/>
<path transform="matrix(1,0,0,-1,1,72.0374)" d="M24.3425 53.1023H29.3825C30.0951 53.1023 30.6785 52.5195 30.6785 51.8068 30.6785 51.0931 30.0951 50.5103 29.3825 50.5103H24.3425C23.6299 50.5103 23.0465 51.0931 23.0465 51.8068 23.0465 52.5195 23.6299 53.1023 24.3425 53.1023" fill="#101217" fill-rule="evenodd"/>
<path transform="matrix(1,0,0,-1,1,72.0374)" d="M37.3354 53.1023H42.3754C43.088 53.1023 43.6714 52.5195 43.6714 51.8068 43.6714 51.0931 43.088 50.5103 42.3754 50.5103H37.3354C36.6228 50.5103 36.0394 51.0931 36.0394 51.8068 36.0394 52.5195 36.6228 53.1023 37.3354 53.1023" fill="#101217" fill-rule="evenodd"/>
<path transform="matrix(1,0,0,-1,1,72.0374)" d="M33.359 37.1412C34.2499 37.1412 34.9722 36.419 34.9722 35.528 34.9722 34.6371 34.2499 33.9148 33.359 33.9148 32.468 33.9148 31.7458 34.6371 31.7458 35.528 31.7458 36.419 32.468 37.1412 33.359 37.1412" fill="#101217" fill-rule="evenodd"/>
<path transform="matrix(1,0,0,-1,1,72.0374)" d="M37.3354 36.824H42.3754C43.088 36.824 43.6714 36.2412 43.6714 35.5286 43.6714 34.8148 43.088 34.232 42.3754 34.232H37.3354C36.6228 34.232 36.0394 34.8148 36.0394 35.5286 36.0394 36.2412 36.6228 36.824 37.3354 36.824" fill="#101217" fill-rule="evenodd"/>
<path transform="matrix(1,0,0,-1,1,72.0374)" d="M46.353 37.1412C47.2439 37.1412 47.9662 36.419 47.9662 35.528 47.9662 34.6371 47.2439 33.9148 46.353 33.9148 45.462 33.9148 44.7398 34.6371 44.7398 35.528 44.7398 36.419 45.462 37.1412 46.353 37.1412" fill="#101217" fill-rule="evenodd"/>
<path transform="matrix(1,0,0,-1,1,72.0374)" d="M24.66 37.1412C25.5509 37.1412 26.2732 36.419 26.2732 35.528 26.2732 34.6371 25.5509 33.9148 24.66 33.9148 23.7691 33.9148 23.0468 34.6371 23.0468 35.528 23.0468 36.419 23.7691 37.1412 24.66 37.1412" fill="#101217" fill-rule="evenodd"/>
<path transform="matrix(1,0,0,-1,1,72.0374)" d="M42.0585 26.2894C41.1673 26.2894 40.445 25.5671 40.445 24.6759 40.445 23.7847 41.1673 23.0624 42.0585 23.0624 42.9497 23.0624 43.672 23.7847 43.672 24.6759 43.672 25.5671 42.9497 26.2894 42.0585 26.2894ZM24.3425 47.6762H29.3825C30.0957 47.6762 30.6785 47.0934 30.6785 46.3808 30.6785 45.667 30.0957 45.0842 29.3825 45.0842H24.3425C23.6293 45.0842 23.0465 45.667 23.0465 46.3808 23.0465 47.0934 23.6293 47.6762 24.3425 47.6762ZM32.9865 47.6762H38.0265C38.7397 47.6762 39.3225 47.0934 39.3225 46.3808 39.3225 45.667 38.7397 45.0842 38.0265 45.0842H32.9865C32.2733 45.0842 31.6905 45.667 31.6905 46.3808 31.6905 47.0934 32.2733 47.6762 32.9865 47.6762ZM41.6305 47.6762H46.6705C47.3837 47.6762 47.9665 47.0934 47.9665 46.3808 47.9665 45.667 47.3837 45.0842 46.6705 45.0842H41.6305C40.9173 45.0842 40.3345 45.667 40.3345 46.3808 40.3345 47.0934 40.9173 47.6762 41.6305 47.6762ZM24.66 42.5676C25.5512 42.5676 26.2735 41.8453 26.2735 40.9541 26.2735 40.0629 25.5512 39.3406 24.66 39.3406 23.7688 39.3406 23.0465 40.0629 23.0465 40.9541 23.0465 41.8453 23.7688 42.5676 24.66 42.5676ZM28.9908 42.5676C29.882 42.5676 30.6043 41.8453 30.6043 40.9541 30.6043 40.0629 29.882 39.3406 28.9908 39.3406 28.0996 39.3406 27.3773 40.0629 27.3773 40.9541 27.3773 41.8453 28.0996 42.5676 28.9908 42.5676ZM33.3215 42.5676C34.2128 42.5676 34.935 41.8453 34.935 40.9541 34.935 40.0629 34.2128 39.3406 33.3215 39.3406 32.4303 39.3406 31.7081 40.0629 31.7081 40.9541 31.7081 41.8453 32.4303 42.5676 33.3215 42.5676ZM37.3354 42.2501H42.3754C43.0886 42.2501 43.6714 41.6673 43.6714 40.9547 43.6714 40.2409 43.0886 39.6581 42.3754 39.6581H37.3354C36.6222 39.6581 36.0394 40.2409 36.0394 40.9547 36.0394 41.6673 36.6222 42.2501 37.3354 42.2501ZM24.3425 31.398H29.3825C30.0957 31.398 30.6785 30.8151 30.6785 30.1025 30.6785 29.3888 30.0957 28.806 29.3825 28.806H24.3425C23.6293 28.806 23.0465 29.3888 23.0465 30.1025 23.0465 30.8151 23.6293 31.398 24.3425 31.398ZM24.66 26.2894C25.5512 26.2894 26.2735 25.5671 26.2735 24.6759 26.2735 23.7847 25.5512 23.0624 24.66 23.0624 23.7688 23.0624 23.0465 23.7847 23.0465 24.6759 23.0465 25.5671 23.7688 26.2894 24.66 26.2894ZM33.7139 25.9719H28.6739C27.9607 25.9719 27.3779 25.3891 27.3779 24.6764 27.3779 23.9627 27.9607 23.3799 28.6739 23.3799H33.7139C34.4271 23.3799 35.0099 23.9627 35.0099 24.6764 35.0099 25.3891 34.4271 25.9719 33.7139 25.9719ZM37.7277 26.2894C36.8365 26.2894 36.1142 25.5671 36.1142 24.6759 36.1142 23.7847 36.8365 23.0624 37.7277 23.0624 38.6189 23.0624 39.3412 23.7847 39.3412 24.6759 39.3412 25.5671 38.6189 26.2894 37.7277 26.2894" fill="#ffffff" fill-rule="evenodd"/>
</g>
</svg>
