<svg width="72" height="73" viewBox="0 0 72 73" fill="none" xmlns="http://www.w3.org/2000/svg">
<path fill-rule="evenodd" clip-rule="evenodd" d="M35.774 0.897232C55.5318 0.897232 71.5484 16.9139 71.5484 36.6713C71.5484 56.4289 55.5318 72.4453 35.774 72.4453C16.0168 72.4453 0 56.4289 0 36.6713C0 16.9139 16.0168 0.897232 35.774 0.897232Z" fill="#FFFFFF"/>
<mask id="mask0_3_43411" style="mask-type:luminance" maskUnits="userSpaceOnUse" x="18" y="36" width="36" height="17">
<path fill-rule="evenodd" clip-rule="evenodd" d="M18.4922 52.5117H53.0518V48.9116L43.6917 39.5517L37.9318 45.3116L29.2922 36.672L18.4922 47.4716V52.5117Z" fill="white"/>
</mask>
<g mask="url(#mask0_3_43411)">
<rect x="18.4492" y="36.5977" width="34.8" height="16.8" fill="url(#paint0_linear_3_43411)"/>
</g>
<path d="M18.4922 55.3926H53.0518V51.7928L43.6916 42.433L37.9319 48.1928L29.2921 39.5529L18.4922 50.3526V55.3926Z" stroke="#101217" stroke-width="1.03678" stroke-linecap="round" stroke-linejoin="round"/>
<path d="M55.2102 14.3516H16.3309C15.5352 14.3516 14.8906 14.9959 14.8906 15.7916V57.5507C14.8906 58.3464 15.5352 58.9905 16.3309 58.9905H55.2102C56.0058 58.9905 56.6501 58.3464 56.6501 57.5507V15.7916C56.6501 14.9959 56.0058 14.3516 55.2102 14.3516Z" stroke="#101217" stroke-width="1.03678" stroke-linecap="round" stroke-linejoin="round"/>
<path d="M18.4922 55.3926H53.0518V25.8733H18.4922V55.3926Z" stroke="#101217" stroke-width="1.03678" stroke-linecap="round" stroke-linejoin="round"/>
<path d="M26.5894 46.3289L24.5508 48.3672" stroke="#101217" stroke-width="1.03678" stroke-linecap="round" stroke-linejoin="round"/>
<path d="M28.3883 44.5298L28.1484 44.7695" stroke="#101217" stroke-width="1.03678" stroke-linecap="round" stroke-linejoin="round"/>
<path d="M41.5318 35.2321C41.5318 37.2199 39.9198 38.832 37.932 38.832C35.9439 38.832 34.332 37.2199 34.332 35.2321C34.332 33.2442 35.9439 31.6323 37.932 31.6323C39.9198 31.6323 41.5318 33.2442 41.5318 35.2321Z" stroke="#101217" stroke-width="1.03678" stroke-linecap="round" stroke-linejoin="round"/>
<path d="M37.9297 28.7527V29.4727" stroke="#101217" stroke-width="1.03678" stroke-linecap="round" stroke-linejoin="round"/>
<path d="M37.9297 40.9927V41.7129" stroke="#101217" stroke-width="1.03678" stroke-linecap="round" stroke-linejoin="round"/>
<path d="M44.4116 35.2324H43.6914" stroke="#101217" stroke-width="1.03678" stroke-linecap="round" stroke-linejoin="round"/>
<path d="M32.1695 35.2324H31.4492" stroke="#101217" stroke-width="1.03678" stroke-linecap="round" stroke-linejoin="round"/>
<path d="M42.5132 29.9302L42.0039 30.4395" stroke="#101217" stroke-width="1.03678" stroke-linecap="round" stroke-linejoin="round"/>
<path d="M33.8567 38.5865L33.3477 39.0957" stroke="#101217" stroke-width="1.03678" stroke-linecap="round" stroke-linejoin="round"/>
<path d="M42.5132 39.0957L42.0039 38.5865" stroke="#101217" stroke-width="1.03678" stroke-linecap="round" stroke-linejoin="round"/>
<path d="M33.8567 30.4395L33.3477 29.9302" stroke="#101217" stroke-width="1.03678" stroke-linecap="round" stroke-linejoin="round"/>
<path d="M18.4922 20.1113H30.0119" stroke="#101217" stroke-width="1.03678" stroke-linecap="round" stroke-linejoin="round"/>
<path d="M18.4922 22.9922H38.6519" stroke="#101217" stroke-width="1.03678" stroke-linecap="round" stroke-linejoin="round"/>
<path d="M33.6121 20.1123C33.6121 20.5085 33.2886 20.832 32.892 20.832C32.4954 20.832 32.1719 20.5085 32.1719 20.1123C32.1719 19.7156 32.4954 19.3922 32.892 19.3922C33.2886 19.3922 33.6121 19.7156 33.6121 20.1123Z" fill="#101217"/>
<path d="M36.491 20.1123C36.491 20.5085 36.1675 20.832 35.7709 20.832C35.3743 20.832 35.0508 20.5085 35.0508 20.1123C35.0508 19.7156 35.3743 19.3922 35.7709 19.3922C36.1675 19.3922 36.491 19.7156 36.491 20.1123Z" fill="#101217"/>
<path d="M39.3735 20.1123C39.3735 20.5085 39.05 20.832 38.6537 20.832C38.257 20.832 37.9336 20.5085 37.9336 20.1123C37.9336 19.7156 38.257 19.3922 38.6537 19.3922C39.05 19.3922 39.3735 19.7156 39.3735 20.1123Z" fill="#101217"/>
<defs>
<linearGradient id="paint0_linear_3_43411" x1="18.4492" y1="44.9977" x2="53.2492" y2="44.9977" gradientUnits="userSpaceOnUse">
<stop stop-color="#30C5D2"/>
<stop offset="1" stop-color="#471069"/>
</linearGradient>
</defs>
</svg>
