<svg width="72" height="73" viewBox="0 0 72 73" fill="none" xmlns="http://www.w3.org/2000/svg">
<path fill-rule="evenodd" clip-rule="evenodd" d="M35.9999 0.896481C55.8822 0.896481 72 17.0143 72 36.8962C72 56.7787 55.8822 72.8965 35.9999 72.8965C16.1178 72.8965 0 56.7787 0 36.8962C0 17.0143 16.1178 0.896481 35.9999 0.896481Z" fill="#FFFFFF"/>
<rect x="20.5273" y="21.4258" width="19.3208" height="19.3208" rx="9.66041" fill="url(#paint0_linear_3_43441)"/>
<path d="M29.4798 40.1602C23.8862 40.1602 19.3359 35.61 19.3359 30.0167C19.3359 24.4236 23.8862 19.8735 29.4798 19.8735C35.0734 19.8735 39.6236 24.4236 39.6236 30.0167C39.6236 35.61 35.0734 40.1602 29.4798 40.1602Z" stroke="#101217" stroke-width="1.04333" stroke-linecap="round" stroke-linejoin="round"/>
<path d="M29.7065 34.9512C27.309 34.9512 25.3594 33.0015 25.3594 30.6037C25.3594 28.2065 27.309 26.2564 29.7065 26.2564C32.1039 26.2564 34.0536 28.2065 34.0536 30.6037C34.0536 33.0015 32.1039 34.9512 29.7065 34.9512Z" stroke="#101217" stroke-width="1.04333" stroke-linecap="round" stroke-linejoin="round"/>
<path d="M29.1836 13.9794L29.1836 21.0234" stroke="#101217" stroke-width="1.04333" stroke-linecap="round" stroke-linejoin="round"/>
<path d="M29.1836 39.1376L29.1836 46.1816" stroke="#101217" stroke-width="1.04333" stroke-linecap="round" stroke-linejoin="round"/>
<path d="M45.2823 30.0801H38.2383" stroke="#101217" stroke-width="1.04333" stroke-linecap="round" stroke-linejoin="round"/>
<path d="M21.1324 30.0801L13.082 30.0801" stroke="#101217" stroke-width="1.04333" stroke-linecap="round" stroke-linejoin="round"/>
<path d="M37.5767 42.0334C37.8673 41.8373 38.2534 41.8646 38.5013 42.1126L54.7514 58.3623C55.1715 58.7827 55.7291 59 56.2876 59C56.8105 59 57.3336 58.8086 57.7429 58.4383C58.6748 57.5967 58.6106 56.0779 57.7234 55.1903L56.418 53.8847L57.9902 52.3055C58.3016 51.9939 58.4607 51.5879 58.4607 51.1749C58.4607 50.7693 58.3016 50.3637 57.9902 50.052C57.3669 49.4216 56.3597 49.4216 55.7367 50.052L54.1572 51.6243L52.0705 49.5376L55.0918 46.5093C55.4034 46.1975 55.5628 45.7915 55.5628 45.3787C55.5628 44.9731 55.4034 44.5674 55.0918 44.2556C54.4685 43.6254 53.4615 43.6254 52.8386 44.2556L49.8098 47.2768L41.5734 39.0405C41.3255 38.7926 41.2978 38.4065 41.4943 38.1159C43.3914 35.3083 44.3311 31.8044 43.8418 28.0667C42.9796 21.4773 37.5585 16.2483 30.9443 15.5998C21.786 14.7029 14.1631 22.3256 15.0602 31.4836C15.7086 38.0978 20.9374 43.5196 27.5275 44.3809C31.2655 44.8703 34.7691 43.9301 37.5767 42.0334Z" stroke="#101217" stroke-width="1.04333" stroke-linecap="round" stroke-linejoin="round"/>
<defs>
<linearGradient id="paint0_linear_3_43441" x1="20.5273" y1="31.0862" x2="39.8482" y2="31.0862" gradientUnits="userSpaceOnUse">
<stop stop-color="#30C5D2"/>
<stop offset="1" stop-color="#471069"/>
</linearGradient>
</defs>
</svg>
