<svg width="72" height="73" viewBox="0 0 72 73" fill="none" xmlns="http://www.w3.org/2000/svg">
<path fill-rule="evenodd" clip-rule="evenodd" d="M36 0.0722656C55.8824 0.0722656 72 16.1899 72 36.0723C72 55.9546 55.8824 72.0723 36 72.0723C16.1177 72.0723 0 55.9546 0 36.0723C0 16.1899 16.1177 0.0722656 36 0.0722656Z" fill="#FFFFFF"/>
<path d="M40.3464 41.8685V31.725C40.3464 30.5245 39.3733 29.5514 38.1729 29.5514C36.9722 29.5514 35.9993 30.5245 35.9993 31.725V38.9704V28.8268C35.9993 27.6265 35.0262 26.6533 33.8255 26.6533C32.6251 26.6533 31.652 27.6265 31.652 28.8268V46.2158V38.2458C31.652 37.0454 30.679 36.0723 29.4785 36.0723C28.2778 36.0723 27.3047 37.0454 27.3047 38.2458V50.5632C27.3047 53.764 29.9002 56.3594 33.101 56.3594H43.2445C46.4456 56.3594 49.041 53.764 49.041 50.5632V40.4196C49.041 39.2189 48.0679 38.2458 46.8672 38.2458C45.6668 38.2458 44.6937 39.2189 44.6937 40.4196V44.7667V36.0723C44.6937 34.8718 43.7207 33.8988 42.5202 33.8988C41.3195 33.8988 40.3464 34.8718 40.3464 36.0723V41.8685Z" fill="url(#paint0_linear_3_39744)"/>
<path d="M49.0404 40.4199V16.51C49.0404 14.9087 47.7434 13.6119 46.1421 13.6119H25.8552C24.2538 13.6119 22.957 14.9087 22.957 16.51V55.6351C22.957 57.2364 24.2538 58.5332 25.8552 58.5332H35.2742" stroke="#101217" stroke-width="1.04334" stroke-linecap="round" stroke-linejoin="round"/>
<path d="M49.0404 19.4082H22.957" stroke="#101217" stroke-width="1.04334" stroke-linecap="round" stroke-linejoin="round"/>
<path d="M29.4779 49.8379H22.957" stroke="#101217" stroke-width="1.04334" stroke-linecap="round" stroke-linejoin="round"/>
<path d="M34.5508 16.5098H38.8981" stroke="#101217" stroke-width="1.04334" stroke-linecap="round" stroke-linejoin="round"/>
<path d="M33.1014 16.5097C33.1014 16.1107 32.7759 15.7851 32.3769 15.7851C31.9778 15.7851 31.6523 16.1107 31.6523 16.5097C31.6523 16.9088 31.9778 17.2344 32.3769 17.2344C32.7759 17.2344 33.1014 16.9088 33.1014 16.5097Z" fill="#101217"/>
<path d="M42.5183 44.0426V33.8991C42.5183 32.6983 41.5452 31.7253 40.3445 31.7253C39.1441 31.7253 38.1709 32.6983 38.1709 33.8991V41.1444V31.0009C38.1709 29.8003 37.1979 28.8271 35.9974 28.8271C34.7968 28.8271 33.8236 29.8003 33.8236 31.0009V48.3897V40.4199C33.8236 39.2192 32.8506 38.2461 31.6501 38.2461C30.4495 38.2461 29.4766 39.2192 29.4766 40.4199V52.737C29.4766 55.9381 32.0718 58.5332 35.2729 58.5332H45.4164C48.6174 58.5332 51.2126 55.9381 51.2126 52.737V42.5934C51.2126 41.3929 50.2396 40.4199 49.0391 40.4199C47.8385 40.4199 46.8653 41.3929 46.8653 42.5934V46.9408V38.2461C46.8653 37.0457 45.8923 36.0726 44.6918 36.0726C43.4912 36.0726 42.5183 37.0457 42.5183 38.2461V44.0426Z" stroke="#101217" stroke-width="1.04334" stroke-linecap="round" stroke-linejoin="round"/>
<path d="M33.8236 38.666C30.4835 37.7243 28.0273 34.6375 28.0273 31.0004C28.0273 26.6024 31.5994 23.0304 35.9974 23.0304C40.3953 23.0304 43.9672 26.6024 43.9672 31.0004C43.9672 32.7029 43.4311 34.2826 42.5182 35.5724" stroke="#101217" stroke-width="1.04334" stroke-linecap="round" stroke-linejoin="round"/>
<path d="M33.8238 35.5801C32.1067 34.7687 30.9258 33.0222 30.9258 31.0011C30.9258 28.1972 33.1936 25.9292 35.9976 25.9292C38.8015 25.9292 41.0693 28.1972 41.0693 31.0011C41.0693 31.2835 41.0476 31.559 41.0041 31.8344" stroke="#101217" stroke-width="1.04334" stroke-linecap="round" stroke-linejoin="round"/>
<path d="M39.621 55.6347C39.621 55.2357 39.2954 54.9101 38.8964 54.9101C38.4973 54.9101 38.1719 55.2357 38.1719 55.6347C38.1719 56.0338 38.4973 56.3594 38.8964 56.3594C39.2954 56.3594 39.621 56.0338 39.621 55.6347Z" fill="#101217"/>
<path d="M42.5194 55.6347C42.5194 55.2357 42.1939 54.9101 41.7949 54.9101C41.3958 54.9101 41.0703 55.2357 41.0703 55.6347C41.0703 56.0338 41.3958 56.3594 41.7949 56.3594C42.1939 56.3594 42.5194 56.0338 42.5194 55.6347Z" fill="#101217"/>
<path d="M36.7226 55.6347C36.7226 55.2357 36.3971 54.9101 35.998 54.9101C35.5989 54.9101 35.2734 55.2357 35.2734 55.6347C35.2734 56.0338 35.5989 56.3594 35.998 56.3594C36.3971 56.3594 36.7226 56.0338 36.7226 55.6347Z" fill="#101217"/>
<path d="M39.621 52.7363C39.621 52.3372 39.2954 52.0118 38.8964 52.0118C38.4973 52.0118 38.1719 52.3372 38.1719 52.7363C38.1719 53.1354 38.4973 53.4609 38.8964 53.4609C39.2954 53.4609 39.621 53.1354 39.621 52.7363Z" fill="#101217"/>
<path d="M42.5194 52.7363C42.5194 52.3372 42.1939 52.0118 41.7949 52.0118C41.3958 52.0118 41.0703 52.3372 41.0703 52.7363C41.0703 53.1354 41.3958 53.4609 41.7949 53.4609C42.1939 53.4609 42.5194 53.1354 42.5194 52.7363Z" fill="#101217"/>
<path d="M33.8242 52.7363C33.8242 52.3372 33.4986 52.0118 33.0996 52.0118C32.7006 52.0118 32.375 52.3372 32.375 52.7363C32.375 53.1354 32.7006 53.4609 33.0996 53.4609C33.4986 53.4609 33.8242 53.1354 33.8242 52.7363Z" fill="#101217"/>
<path d="M36.7226 52.7363C36.7226 52.3372 36.3971 52.0118 35.998 52.0118C35.5989 52.0118 35.2734 52.3372 35.2734 52.7363C35.2734 53.1354 35.5989 53.4609 35.998 53.4609C36.3971 53.4609 36.7226 53.1354 36.7226 52.7363Z" fill="#101217"/>
<path d="M45.4178 55.6347C45.4178 55.2357 45.0923 54.9101 44.6933 54.9101C44.2941 54.9101 43.9688 55.2357 43.9688 55.6347C43.9688 56.0338 44.2941 56.3594 44.6933 56.3594C45.0923 56.3594 45.4178 56.0338 45.4178 55.6347Z" fill="#101217"/>
<path d="M45.4178 52.7363C45.4178 52.3372 45.0923 52.0118 44.6933 52.0118C44.2941 52.0118 43.9688 52.3372 43.9688 52.7363C43.9688 53.1354 44.2941 53.4609 44.6933 53.4609C45.0923 53.4609 45.4178 53.1354 45.4178 52.7363Z" fill="#101217"/>
<path d="M48.3164 52.7363C48.3164 52.3372 47.9908 52.0118 47.5918 52.0118C47.1927 52.0118 46.8672 52.3372 46.8672 52.7363C46.8672 53.1354 47.1927 53.4609 47.5918 53.4609C47.9908 53.4609 48.3164 53.1354 48.3164 52.7363Z" fill="#101217"/>
<defs>
<linearGradient id="paint0_linear_3_39744" x1="27.3047" y1="41.5063" x2="49.041" y2="41.5063" gradientUnits="userSpaceOnUse">
<stop stop-color="#30C5D2"/>
<stop offset="1" stop-color="#C9BFD6"/>
</linearGradient>
</defs>
</svg>
