<svg width="73" height="73" viewBox="0 0 73 73" fill="none" xmlns="http://www.w3.org/2000/svg">
<path fill-rule="evenodd" clip-rule="evenodd" d="M36.668 0.0722656C56.5503 0.0722656 72.668 16.1901 72.668 36.0723C72.668 55.9546 56.5503 72.0723 36.668 72.0723C16.7856 72.0723 0.667969 55.9546 0.667969 36.0723C0.667969 16.1901 16.7856 0.0722656 36.668 0.0722656Z" fill="#FFFFFF"/>
<path d="M41.737 56.7227H28.6953V51.6507C28.6953 50.8501 29.344 50.2018 30.1446 50.2018H40.2881C41.0887 50.2018 41.737 50.8501 41.737 51.6507V56.7227Z" fill="url(#paint0_linear_3_39772)"/>
<path d="M50.433 34.9863H52.5486L54.9977 29.19H18.3359L20.7848 34.9863H50.433Z" fill="url(#paint1_linear_3_39772)"/>
<path d="M22.9016 32.8125H17.8298L14.265 25.118C14.0619 24.6471 14.4172 24.1182 14.9462 24.1182H58.3895C58.9184 24.1182 59.2736 24.6471 59.0705 25.118L55.5058 32.8125H50.4341" stroke="#101217" stroke-width="1.04334" stroke-linecap="round" stroke-linejoin="round"/>
<path d="M43.1862 32.8125H30.1445" stroke="#101217" stroke-width="1.04334" stroke-linecap="round" stroke-linejoin="round"/>
<path d="M43.1862 32.8125H30.1445" stroke="#101217" stroke-width="1.04334" stroke-linecap="round" stroke-linejoin="round"/>
<path d="M50.433 32.8125H52.5486L54.9977 27.0164H18.3359L20.7848 32.8125H22.9006" stroke="#101217" stroke-width="1.04334" stroke-linecap="round" stroke-linejoin="round"/>
<path d="M43.1862 32.8125H30.1445" stroke="#101217" stroke-width="1.04334" stroke-linecap="round" stroke-linejoin="round"/>
<path d="M50.4324 32.813H55.5041V56.723C55.5041 57.5235 54.8556 58.1719 54.0551 58.1719H19.2772C18.4766 58.1719 17.8281 57.5235 17.8281 56.723V32.813H22.8999" stroke="#101217" stroke-width="1.04334" stroke-linecap="round" stroke-linejoin="round"/>
<path d="M29.4193 34.2617H23.623C23.223 34.2617 22.8984 33.9369 22.8984 33.5372V32.0879C22.8984 31.688 23.223 31.3634 23.623 31.3634H29.4193C29.8189 31.3634 30.1438 31.688 30.1438 32.0879V33.5372C30.1438 33.9369 29.8189 34.2617 29.4193 34.2617Z" stroke="#101217" stroke-width="1.04334" stroke-linecap="round" stroke-linejoin="round"/>
<path d="M49.7084 34.2617H43.912C43.5118 34.2617 43.1875 33.9369 43.1875 33.5372V32.0879C43.1875 31.688 43.5118 31.3634 43.912 31.3634H49.7084C50.1083 31.3634 50.4329 31.688 50.4329 32.0879V33.5372C50.4329 33.9369 50.1083 34.2617 49.7084 34.2617Z" stroke="#101217" stroke-width="1.04334" stroke-linecap="round" stroke-linejoin="round"/>
<path d="M37.3905 37.1602C37.3905 36.7612 37.0649 36.4355 36.6659 36.4355C36.2669 36.4355 35.9414 36.7612 35.9414 37.1602C35.9414 37.5593 36.2669 37.8848 36.6659 37.8848C37.0649 37.8848 37.3905 37.5593 37.3905 37.1602Z" fill="#101217"/>
<path d="M40.2889 37.1602C40.2889 36.7612 39.9633 36.4355 39.5644 36.4355C39.1653 36.4355 38.8398 36.7612 38.8398 37.1602C38.8398 37.5593 39.1653 37.8848 39.5644 37.8848C39.9633 37.8848 40.2889 37.5593 40.2889 37.1602Z" fill="#101217"/>
<path d="M34.492 37.1602C34.492 36.7612 34.1664 36.4355 33.7675 36.4355C33.3684 36.4355 33.043 36.7612 33.043 37.1602C33.043 37.5593 33.3684 37.8848 33.7675 37.8848C34.1664 37.8848 34.492 37.5593 34.492 37.1602Z" fill="#101217"/>
<path d="M46.086 37.1602C46.086 36.7612 45.7603 36.4355 45.3614 36.4355C44.9624 36.4355 44.6367 36.7612 44.6367 37.1602C44.6367 37.5593 44.9624 37.8848 45.3614 37.8848C45.7603 37.8848 46.086 37.5593 46.086 37.1602Z" fill="#101217"/>
<path d="M48.9844 37.1602C48.9844 36.7612 48.6588 36.4355 48.2597 36.4355C47.8609 36.4355 47.5352 36.7612 47.5352 37.1602C47.5352 37.5593 47.8609 37.8848 48.2597 37.8848C48.6588 37.8848 48.9844 37.5593 48.9844 37.1602Z" fill="#101217"/>
<path d="M43.1875 37.1602C43.1875 36.7612 42.8619 36.4355 42.463 36.4355C42.0639 36.4355 41.7383 36.7612 41.7383 37.1602C41.7383 37.5593 42.0639 37.8848 42.463 37.8848C42.8619 37.8848 43.1875 37.5593 43.1875 37.1602Z" fill="#101217"/>
<path d="M28.6952 37.1602C28.6952 36.7612 28.3696 36.4355 27.9706 36.4355C27.5716 36.4355 27.2461 36.7612 27.2461 37.1602C27.2461 37.5593 27.5716 37.8848 27.9706 37.8848C28.3696 37.8848 28.6952 37.5593 28.6952 37.1602Z" fill="#101217"/>
<path d="M31.5936 37.1602C31.5936 36.7612 31.268 36.4355 30.8691 36.4355C30.47 36.4355 30.1445 36.7612 30.1445 37.1602C30.1445 37.5593 30.47 37.8848 30.8691 37.8848C31.268 37.8848 31.5936 37.5593 31.5936 37.1602Z" fill="#101217"/>
<path d="M25.7969 37.1602C25.7969 36.7612 25.4713 36.4355 25.0722 36.4355C24.6732 36.4355 24.3477 36.7612 24.3477 37.1602C24.3477 37.5593 24.6732 37.8848 25.0722 37.8848C25.4713 37.8848 25.7969 37.5593 25.7969 37.1602Z" fill="#101217"/>
<path d="M22.9024 37.1602C22.9024 36.7612 22.5768 36.4355 22.1777 36.4355C21.7789 36.4355 21.4531 36.7612 21.4531 37.1602C21.4531 37.5593 21.7789 37.8848 22.1777 37.8848C22.5768 37.8848 22.9024 37.5593 22.9024 37.1602Z" fill="#101217"/>
<path d="M51.8828 37.1602C51.8828 36.7612 51.5573 36.4355 51.1581 36.4355C50.7591 36.4355 50.4336 36.7612 50.4336 37.1602C50.4336 37.5593 50.7591 37.8848 51.1581 37.8848C51.5573 37.8848 51.8828 37.5593 51.8828 37.1602Z" fill="#101217"/>
<path d="M37.3905 40.0567C37.3905 39.6576 37.0649 39.332 36.6659 39.332C36.2669 39.332 35.9414 39.6576 35.9414 40.0567C35.9414 40.4557 36.2669 40.7812 36.6659 40.7812C37.0649 40.7812 37.3905 40.4557 37.3905 40.0567Z" fill="#101217"/>
<path d="M40.2889 40.0567C40.2889 39.6576 39.9633 39.332 39.5644 39.332C39.1653 39.332 38.8398 39.6576 38.8398 40.0567C38.8398 40.4557 39.1653 40.7812 39.5644 40.7812C39.9633 40.7812 40.2889 40.4557 40.2889 40.0567Z" fill="#101217"/>
<path d="M34.492 40.0567C34.492 39.6576 34.1664 39.332 33.7675 39.332C33.3684 39.332 33.043 39.6576 33.043 40.0567C33.043 40.4557 33.3684 40.7812 33.7675 40.7812C34.1664 40.7812 34.492 40.4557 34.492 40.0567Z" fill="#101217"/>
<path d="M46.086 40.0567C46.086 39.6576 45.7603 39.332 45.3614 39.332C44.9624 39.332 44.6367 39.6576 44.6367 40.0567C44.6367 40.4557 44.9624 40.7812 45.3614 40.7812C45.7603 40.7812 46.086 40.4557 46.086 40.0567Z" fill="#101217"/>
<path d="M48.9844 40.0567C48.9844 39.6576 48.6588 39.332 48.2597 39.332C47.8609 39.332 47.5352 39.6576 47.5352 40.0567C47.5352 40.4557 47.8609 40.7812 48.2597 40.7812C48.6588 40.7812 48.9844 40.4557 48.9844 40.0567Z" fill="#101217"/>
<path d="M43.1875 40.0567C43.1875 39.6576 42.8619 39.332 42.463 39.332C42.0639 39.332 41.7383 39.6576 41.7383 40.0567C41.7383 40.4557 42.0639 40.7812 42.463 40.7812C42.8619 40.7812 43.1875 40.4557 43.1875 40.0567Z" fill="#101217"/>
<path d="M28.6952 40.0567C28.6952 39.6576 28.3696 39.332 27.9706 39.332C27.5716 39.332 27.2461 39.6576 27.2461 40.0567C27.2461 40.4557 27.5716 40.7812 27.9706 40.7812C28.3696 40.7812 28.6952 40.4557 28.6952 40.0567Z" fill="#101217"/>
<path d="M31.5936 40.0567C31.5936 39.6576 31.268 39.332 30.8691 39.332C30.47 39.332 30.1445 39.6576 30.1445 40.0567C30.1445 40.4557 30.47 40.7812 30.8691 40.7812C31.268 40.7812 31.5936 40.4557 31.5936 40.0567Z" fill="#101217"/>
<path d="M25.7969 40.0567C25.7969 39.6576 25.4713 39.332 25.0722 39.332C24.6732 39.332 24.3477 39.6576 24.3477 40.0567C24.3477 40.4557 24.6732 40.7812 25.0722 40.7812C25.4713 40.7812 25.7969 40.4557 25.7969 40.0567Z" fill="#101217"/>
<path d="M22.9024 40.0567C22.9024 39.6576 22.5768 39.332 22.1777 39.332C21.7789 39.332 21.4531 39.6576 21.4531 40.0567C21.4531 40.4557 21.7789 40.7812 22.1777 40.7812C22.5768 40.7812 22.9024 40.4557 22.9024 40.0567Z" fill="#101217"/>
<path d="M51.8828 40.0567C51.8828 39.6576 51.5573 39.332 51.1581 39.332C50.7591 39.332 50.4336 39.6576 50.4336 40.0567C50.4336 40.4557 50.7591 40.7812 51.1581 40.7812C51.5573 40.7812 51.8828 40.4557 51.8828 40.0567Z" fill="#101217"/>
<path d="M37.3905 42.955C37.3905 42.556 37.0649 42.2304 36.6659 42.2304C36.2669 42.2304 35.9414 42.556 35.9414 42.955C35.9414 43.3541 36.2669 43.6797 36.6659 43.6797C37.0649 43.6797 37.3905 43.3541 37.3905 42.955Z" fill="#101217"/>
<path d="M40.2889 42.955C40.2889 42.556 39.9633 42.2304 39.5644 42.2304C39.1653 42.2304 38.8398 42.556 38.8398 42.955C38.8398 43.3541 39.1653 43.6797 39.5644 43.6797C39.9633 43.6797 40.2889 43.3541 40.2889 42.955Z" fill="#101217"/>
<path d="M34.492 42.955C34.492 42.556 34.1664 42.2304 33.7675 42.2304C33.3684 42.2304 33.043 42.556 33.043 42.955C33.043 43.3541 33.3684 43.6797 33.7675 43.6797C34.1664 43.6797 34.492 43.3541 34.492 42.955Z" fill="#101217"/>
<path d="M46.086 42.955C46.086 42.556 45.7603 42.2304 45.3614 42.2304C44.9624 42.2304 44.6367 42.556 44.6367 42.955C44.6367 43.3541 44.9624 43.6797 45.3614 43.6797C45.7603 43.6797 46.086 43.3541 46.086 42.955Z" fill="#101217"/>
<path d="M48.9844 42.955C48.9844 42.556 48.6588 42.2304 48.2597 42.2304C47.8609 42.2304 47.5352 42.556 47.5352 42.955C47.5352 43.3541 47.8609 43.6797 48.2597 43.6797C48.6588 43.6797 48.9844 43.3541 48.9844 42.955Z" fill="#101217"/>
<path d="M43.1875 42.955C43.1875 42.556 42.8619 42.2304 42.463 42.2304C42.0639 42.2304 41.7383 42.556 41.7383 42.955C41.7383 43.3541 42.0639 43.6797 42.463 43.6797C42.8619 43.6797 43.1875 43.3541 43.1875 42.955Z" fill="#101217"/>
<path d="M28.6952 42.955C28.6952 42.556 28.3696 42.2304 27.9706 42.2304C27.5716 42.2304 27.2461 42.556 27.2461 42.955C27.2461 43.3541 27.5716 43.6797 27.9706 43.6797C28.3696 43.6797 28.6952 43.3541 28.6952 42.955Z" fill="#101217"/>
<path d="M31.5936 42.955C31.5936 42.556 31.268 42.2304 30.8691 42.2304C30.47 42.2304 30.1445 42.556 30.1445 42.955C30.1445 43.3541 30.47 43.6797 30.8691 43.6797C31.268 43.6797 31.5936 43.3541 31.5936 42.955Z" fill="#101217"/>
<path d="M25.7969 42.955C25.7969 42.556 25.4713 42.2304 25.0722 42.2304C24.6732 42.2304 24.3477 42.556 24.3477 42.955C24.3477 43.3541 24.6732 43.6797 25.0722 43.6797C25.4713 43.6797 25.7969 43.3541 25.7969 42.955Z" fill="#101217"/>
<path d="M22.9024 42.955C22.9024 42.556 22.5768 42.2304 22.1777 42.2304C21.7789 42.2304 21.4531 42.556 21.4531 42.955C21.4531 43.3541 21.7789 43.6797 22.1777 43.6797C22.5768 43.6797 22.9024 43.3541 22.9024 42.955Z" fill="#101217"/>
<path d="M51.8828 42.955C51.8828 42.556 51.5573 42.2304 51.1581 42.2304C50.7591 42.2304 50.4336 42.556 50.4336 42.955C50.4336 43.3541 50.7591 43.6797 51.1581 43.6797C51.5573 43.6797 51.8828 43.3541 51.8828 42.955Z" fill="#101217"/>
<path d="M37.3905 45.8534C37.3905 45.4543 37.0649 45.1289 36.6659 45.1289C36.2669 45.1289 35.9414 45.4543 35.9414 45.8534C35.9414 46.2526 36.2669 46.5781 36.6659 46.5781C37.0649 46.5781 37.3905 46.2526 37.3905 45.8534Z" fill="#101217"/>
<path d="M40.2889 45.8534C40.2889 45.4543 39.9633 45.1289 39.5644 45.1289C39.1653 45.1289 38.8398 45.4543 38.8398 45.8534C38.8398 46.2526 39.1653 46.5781 39.5644 46.5781C39.9633 46.5781 40.2889 46.2526 40.2889 45.8534Z" fill="#101217"/>
<path d="M34.492 45.8534C34.492 45.4543 34.1664 45.1289 33.7675 45.1289C33.3684 45.1289 33.043 45.4543 33.043 45.8534C33.043 46.2526 33.3684 46.5781 33.7675 46.5781C34.1664 46.5781 34.492 46.2526 34.492 45.8534Z" fill="#101217"/>
<path d="M46.086 45.8534C46.086 45.4543 45.7603 45.1289 45.3614 45.1289C44.9624 45.1289 44.6367 45.4543 44.6367 45.8534C44.6367 46.2526 44.9624 46.5781 45.3614 46.5781C45.7603 46.5781 46.086 46.2526 46.086 45.8534Z" fill="#101217"/>
<path d="M48.9844 45.8534C48.9844 45.4543 48.6588 45.1289 48.2597 45.1289C47.8609 45.1289 47.5352 45.4543 47.5352 45.8534C47.5352 46.2526 47.8609 46.5781 48.2597 46.5781C48.6588 46.5781 48.9844 46.2526 48.9844 45.8534Z" fill="#101217"/>
<path d="M43.1875 45.8534C43.1875 45.4543 42.8619 45.1289 42.463 45.1289C42.0639 45.1289 41.7383 45.4543 41.7383 45.8534C41.7383 46.2526 42.0639 46.5781 42.463 46.5781C42.8619 46.5781 43.1875 46.2526 43.1875 45.8534Z" fill="#101217"/>
<path d="M28.6952 45.8534C28.6952 45.4543 28.3696 45.1289 27.9706 45.1289C27.5716 45.1289 27.2461 45.4543 27.2461 45.8534C27.2461 46.2526 27.5716 46.5781 27.9706 46.5781C28.3696 46.5781 28.6952 46.2526 28.6952 45.8534Z" fill="#101217"/>
<path d="M31.5936 45.8534C31.5936 45.4543 31.268 45.1289 30.8691 45.1289C30.47 45.1289 30.1445 45.4543 30.1445 45.8534C30.1445 46.2526 30.47 46.5781 30.8691 46.5781C31.268 46.5781 31.5936 46.2526 31.5936 45.8534Z" fill="#101217"/>
<path d="M25.7969 45.8534C25.7969 45.4543 25.4713 45.1289 25.0722 45.1289C24.6732 45.1289 24.3477 45.4543 24.3477 45.8534C24.3477 46.2526 24.6732 46.5781 25.0722 46.5781C25.4713 46.5781 25.7969 46.2526 25.7969 45.8534Z" fill="#101217"/>
<path d="M22.9024 45.8534C22.9024 45.4543 22.5768 45.1289 22.1777 45.1289C21.7789 45.1289 21.4531 45.4543 21.4531 45.8534C21.4531 46.2526 21.7789 46.5781 22.1777 46.5781C22.5768 46.5781 22.9024 46.2526 22.9024 45.8534Z" fill="#101217"/>
<path d="M51.8828 45.8534C51.8828 45.4543 51.5573 45.1289 51.1581 45.1289C50.7591 45.1289 50.4336 45.4543 50.4336 45.8534C50.4336 46.2526 50.7591 46.5781 51.1581 46.5781C51.5573 46.5781 51.8828 46.2526 51.8828 45.8534Z" fill="#101217"/>
<path d="M46.086 48.752C46.086 48.3529 45.7603 48.0275 45.3614 48.0275C44.9624 48.0275 44.6367 48.3529 44.6367 48.752C44.6367 49.1512 44.9624 49.4766 45.3614 49.4766C45.7603 49.4766 46.086 49.1512 46.086 48.752Z" fill="#101217"/>
<path d="M48.9844 48.752C48.9844 48.3529 48.6588 48.0275 48.2597 48.0275C47.8609 48.0275 47.5352 48.3529 47.5352 48.752C47.5352 49.1512 47.8609 49.4766 48.2597 49.4766C48.6588 49.4766 48.9844 49.1512 48.9844 48.752Z" fill="#101217"/>
<path d="M28.6952 48.752C28.6952 48.3529 28.3696 48.0275 27.9706 48.0275C27.5716 48.0275 27.2461 48.3529 27.2461 48.752C27.2461 49.1512 27.5716 49.4766 27.9706 49.4766C28.3696 49.4766 28.6952 49.1512 28.6952 48.752Z" fill="#101217"/>
<path d="M25.7969 48.752C25.7969 48.3529 25.4713 48.0275 25.0722 48.0275C24.6732 48.0275 24.3477 48.3529 24.3477 48.752C24.3477 49.1512 24.6732 49.4766 25.0722 49.4766C25.4713 49.4766 25.7969 49.1512 25.7969 48.752Z" fill="#101217"/>
<path d="M22.9024 48.752C22.9024 48.3529 22.5768 48.0275 22.1777 48.0275C21.7789 48.0275 21.4531 48.3529 21.4531 48.752C21.4531 49.1512 21.7789 49.4766 22.1777 49.4766C22.5768 49.4766 22.9024 49.1512 22.9024 48.752Z" fill="#101217"/>
<path d="M51.8828 48.752C51.8828 48.3529 51.5573 48.0275 51.1581 48.0275C50.7591 48.0275 50.4336 48.3529 50.4336 48.752C50.4336 49.1512 50.7591 49.4766 51.1581 49.4766C51.5573 49.4766 51.8828 49.1512 51.8828 48.752Z" fill="#101217"/>
<path d="M43.1862 58.1719H30.1445V53.1003C30.1445 52.2994 30.7931 51.651 31.5934 51.651H41.737C42.538 51.651 43.1862 52.2994 43.1862 53.1003V58.1719Z" stroke="#101217" stroke-width="1.04334" stroke-linecap="round" stroke-linejoin="round"/>
<path d="M36.668 51.651V58.1719" stroke="#101217" stroke-width="1.04334" stroke-linecap="round" stroke-linejoin="round"/>
<path d="M30.8711 48.752H42.4637" stroke="#101217" stroke-width="1.04334" stroke-linecap="round" stroke-linejoin="round"/>
<path d="M20.0039 20.4941H22.9021V16.1467H20.0039V20.4941Z" stroke="#101217" stroke-width="1.04334" stroke-linecap="round" stroke-linejoin="round"/>
<path d="M25.7969 16.8713H27.246V21.2188" stroke="#101217" stroke-width="1.04334" stroke-linecap="round" stroke-linejoin="round"/>
<path d="M30.1445 17.5977H33.0427V13.2502H30.1445V17.5977Z" stroke="#101217" stroke-width="1.04334" stroke-linecap="round" stroke-linejoin="round"/>
<path d="M35.9414 16.8713H37.3905V21.2188" stroke="#101217" stroke-width="1.04334" stroke-linecap="round" stroke-linejoin="round"/>
<path d="M40.2891 19.0469H43.1872V14.6998H40.2891V19.0469Z" stroke="#101217" stroke-width="1.04334" stroke-linecap="round" stroke-linejoin="round"/>
<path d="M46.0859 13.2502H47.535V17.5977" stroke="#101217" stroke-width="1.04334" stroke-linecap="round" stroke-linejoin="round"/>
<path d="M50.4336 20.4941H53.3317V16.1467H50.4336V20.4941Z" stroke="#101217" stroke-width="1.04334" stroke-linecap="round" stroke-linejoin="round"/>
<defs>
<linearGradient id="paint0_linear_3_39772" x1="28.6953" y1="53.4622" x2="41.737" y2="53.4622" gradientUnits="userSpaceOnUse">
<stop stop-color="#30C5D2"/>
<stop offset="1" stop-color="#471069"/>
</linearGradient>
<linearGradient id="paint1_linear_3_39772" x1="18.3359" y1="32.0882" x2="54.9977" y2="32.0882" gradientUnits="userSpaceOnUse">
<stop stop-color="#30C5D2"/>
<stop offset="1" stop-color="#471069"/>
</linearGradient>
</defs>
</svg>
