<svg width="72" height="73" viewBox="0 0 72 73" fill="none" xmlns="http://www.w3.org/2000/svg">
<path fill-rule="evenodd" clip-rule="evenodd" d="M36 0.720792C55.8823 0.720792 72 16.8384 72 36.7207C72 56.6031 55.8823 72.7207 36 72.7207C16.1177 72.7207 0 56.6031 0 36.7207C0 16.8384 16.1177 0.720792 36 0.720792Z" fill="#101217"/>
<path d="M19.3359 22.9547C19.3359 26.9563 26.5813 38.8945 26.5813 38.8945C26.5813 38.8945 33.8267 26.9563 33.8267 22.9547C33.8267 18.953 30.5829 15.7093 26.5813 15.7093C22.5796 15.7093 19.3359 18.953 19.3359 22.9547Z" fill="url(#paint0_linear_3_40113)"/>
<path d="M21.7992 32.8809C20.2342 35.4893 19.3359 38.5395 19.3359 41.7927C19.3359 51.3928 27.1247 59.1816 36.7249 59.1816C46.325 59.1816 54.1137 51.3928 54.1137 41.7927C54.1137 36.3152 51.5777 31.4245 47.6073 28.2365C44.6295 25.8383 40.8401 24.4038 36.7249 24.4038C34.5657 24.4038 32.5008 24.8023 30.5879 25.5269H30.5807" stroke="#E9EBF1" stroke-width="1.04333" stroke-linecap="round" stroke-linejoin="round"/>
<path d="M36.7227 24.4038V59.1816" stroke="#E9EBF1" stroke-width="1.04333" stroke-linecap="round" stroke-linejoin="round"/>
<path d="M54.1137 41.793H19.3359" stroke="#E9EBF1" stroke-width="1.04333" stroke-linecap="round" stroke-linejoin="round"/>
<path d="M28.7695 29.5183C29.6535 29.8442 30.552 30.1122 31.4576 30.3152C33.1892 30.7209 34.9643 30.9238 36.725 30.9238C38.4855 30.9238 40.2606 30.7209 41.9924 30.3152C43.9123 29.8731 45.8034 29.1777 47.6075 28.2356C47.6075 28.2284 47.6148 28.2284 47.6148 28.2284" stroke="#E9EBF1" stroke-width="1.04333" stroke-linecap="round" stroke-linejoin="round"/>
<path d="M25.832 55.3574C29.2773 53.5533 33.0049 52.6622 36.7219 52.6622C40.4387 52.6622 44.1666 53.5533 47.6117 55.3574" stroke="#E9EBF1" stroke-width="1.04333" stroke-linecap="round" stroke-linejoin="round"/>
<path d="M36.7227 59.1816C48.3151 49.5698 48.3151 34.0155 36.7227 24.4038" stroke="#E9EBF1" stroke-width="1.04333" stroke-linecap="round" stroke-linejoin="round"/>
<path d="M36.7219 59.1816C25.1292 49.5698 25.1292 34.0155 36.7219 24.4038" stroke="#E9EBF1" stroke-width="1.04333" stroke-linecap="round" stroke-linejoin="round"/>
<path d="M17.1602 21.5053C17.1602 25.5069 24.4054 37.4453 24.4054 37.4453C24.4054 37.4453 31.6508 25.5069 31.6508 21.5053C31.6508 17.5038 28.407 14.2601 24.4054 14.2601C20.404 14.2601 17.1602 17.5038 17.1602 21.5053Z" stroke="#E9EBF1" stroke-width="1.04333" stroke-linecap="round" stroke-linejoin="round"/>
<path d="M20.7852 21.5062C20.7852 23.5067 22.4074 25.1289 24.4077 25.1289C26.4083 25.1289 28.0304 23.5067 28.0304 21.5062C28.0304 19.5058 26.4083 17.8837 24.4077 17.8837C22.4074 17.8837 20.7852 19.5058 20.7852 21.5062Z" stroke="#E9EBF1" stroke-width="1.04333" stroke-linecap="round" stroke-linejoin="round"/>
<defs>
<linearGradient id="paint0_linear_3_40113" x1="19.3359" y1="27.3019" x2="33.8267" y2="27.3019" gradientUnits="userSpaceOnUse">
<stop stop-color="#30C5D2"/>
<stop offset="1" stop-color="#471069"/>
</linearGradient>
</defs>
</svg>
