<svg width="73" height="73" viewBox="0 0 73 73" fill="none" xmlns="http://www.w3.org/2000/svg">
<path fill-rule="evenodd" clip-rule="evenodd" d="M36.7738 0.650391C56.656 0.650391 72.7738 16.7682 72.7738 36.6504C72.7738 56.5326 56.656 72.6504 36.7738 72.6504C16.8914 72.6504 0.773438 56.5326 0.773438 36.6504C0.773438 16.7682 16.8914 0.650391 36.7738 0.650391Z" fill="#E9EBF1"/>
<mask id="mask0_3_40932" style="mask-type:luminance" maskUnits="userSpaceOnUse" x="31" y="13" width="17" height="46">
<path fill-rule="evenodd" clip-rule="evenodd" d="M35.695 26.8674V41.2672L33.535 45.5869V58.5469H45.0548V45.5869L42.8948 41.2672V26.8674H47.2148L39.2949 13.9074L31.375 26.8674H35.695Z" fill="white"/>
</mask>
<g mask="url(#mask0_3_40932)">
<rect x="30.25" y="13.3223" width="18" height="45.6" fill="url(#paint0_linear_3_40932)"/>
</g>
<path d="M32.8122 26.8714V41.2712L30.6521 45.5908V58.5508H42.1722V45.5908L40.0124 41.2712V26.8714H44.3319L36.4123 13.9114L28.4922 26.8714H32.8122Z" stroke="#101217" stroke-width="1.03678" stroke-linecap="round" stroke-linejoin="round"/>
<path d="M44.3316 34.7911V41.2712L47.2116 45.5908V58.5508H58.7312V45.5908L51.5315 41.2712V34.7911H53.6915L47.9317 26.1513L42.1719 34.7911H44.3316Z" stroke="#101217" stroke-width="1.03678" stroke-linecap="round" stroke-linejoin="round"/>
<path d="M21.2934 34.7911V41.2712L14.0938 45.5908V58.5508H25.6134V45.5908L28.4931 41.2712V34.7911H30.653L24.8934 26.1513L19.1335 34.7911H21.2934Z" stroke="#101217" stroke-width="1.03678" stroke-linecap="round" stroke-linejoin="round"/>
<path d="M17.6938 55.6686C17.6938 55.272 17.3703 54.9484 16.974 54.9484C16.5774 54.9484 16.2539 55.272 16.2539 55.6686C16.2539 56.0652 16.5774 56.3887 16.974 56.3887C17.3703 56.3887 17.6938 56.0652 17.6938 55.6686Z" fill="#101217"/>
<path d="M20.573 55.6686C20.573 55.272 20.2495 54.9484 19.8529 54.9484C19.4563 54.9484 19.1328 55.272 19.1328 55.6686C19.1328 56.0652 19.4563 56.3887 19.8529 56.3887C20.2495 56.3887 20.573 56.0652 20.573 55.6686Z" fill="#101217"/>
<path d="M23.4516 55.6686C23.4516 55.272 23.1281 54.9484 22.7318 54.9484C22.3352 54.9484 22.0117 55.272 22.0117 55.6686C22.0117 56.0652 22.3352 56.3887 22.7318 56.3887C23.1281 56.3887 23.4516 56.0652 23.4516 55.6686Z" fill="#101217"/>
<path d="M17.6938 52.7896C17.6938 52.393 17.3703 52.0695 16.974 52.0695C16.5774 52.0695 16.2539 52.393 16.2539 52.7896C16.2539 53.1862 16.5774 53.5098 16.974 53.5098C17.3703 53.5098 17.6938 53.1862 17.6938 52.7896Z" fill="#101217"/>
<path d="M20.573 52.7896C20.573 52.393 20.2495 52.0695 19.8529 52.0695C19.4563 52.0695 19.1328 52.393 19.1328 52.7896C19.1328 53.1862 19.4563 53.5098 19.8529 53.5098C20.2495 53.5098 20.573 53.1862 20.573 52.7896Z" fill="#101217"/>
<path d="M23.4516 52.7896C23.4516 52.393 23.1281 52.0695 22.7318 52.0695C22.3352 52.0695 22.0117 52.393 22.0117 52.7896C22.0117 53.1862 22.3352 53.5098 22.7318 53.5098C23.1281 53.5098 23.4516 53.1862 23.4516 52.7896Z" fill="#101217"/>
<path d="M17.6938 49.9088C17.6938 49.5122 17.3703 49.1887 16.974 49.1887C16.5774 49.1887 16.2539 49.5122 16.2539 49.9088C16.2539 50.3054 16.5774 50.6289 16.974 50.6289C17.3703 50.6289 17.6938 50.3054 17.6938 49.9088Z" fill="#101217"/>
<path d="M20.573 49.9088C20.573 49.5122 20.2495 49.1887 19.8529 49.1887C19.4563 49.1887 19.1328 49.5122 19.1328 49.9088C19.1328 50.3054 19.4563 50.6289 19.8529 50.6289C20.2495 50.6289 20.573 50.3054 20.573 49.9088Z" fill="#101217"/>
<path d="M23.4516 49.9088C23.4516 49.5122 23.1281 49.1887 22.7318 49.1887C22.3352 49.1887 22.0117 49.5122 22.0117 49.9088C22.0117 50.3054 22.3352 50.6289 22.7318 50.6289C23.1281 50.6289 23.4516 50.3054 23.4516 49.9088Z" fill="#101217"/>
<path d="M17.6938 47.0299C17.6938 46.6333 17.3703 46.3098 16.974 46.3098C16.5774 46.3098 16.2539 46.6333 16.2539 47.0299C16.2539 47.4265 16.5774 47.75 16.974 47.75C17.3703 47.75 17.6938 47.4265 17.6938 47.0299Z" fill="#101217"/>
<path d="M20.573 47.0299C20.573 46.6333 20.2495 46.3098 19.8529 46.3098C19.4563 46.3098 19.1328 46.6333 19.1328 47.0299C19.1328 47.4265 19.4563 47.75 19.8529 47.75C20.2495 47.75 20.573 47.4265 20.573 47.0299Z" fill="#101217"/>
<path d="M23.4516 47.0299C23.4516 46.6333 23.1281 46.3098 22.7318 46.3098C22.3352 46.3098 22.0117 46.6333 22.0117 47.0299C22.0117 47.4265 22.3352 47.75 22.7318 47.75C23.1281 47.75 23.4516 47.4265 23.4516 47.0299Z" fill="#101217"/>
<path d="M34.2524 55.6686C34.2524 55.272 33.9289 54.9484 33.5326 54.9484C33.136 54.9484 32.8125 55.272 32.8125 55.6686C32.8125 56.0652 33.136 56.3887 33.5326 56.3887C33.9289 56.3887 34.2524 56.0652 34.2524 55.6686Z" fill="#101217"/>
<path d="M37.1316 55.6686C37.1316 55.272 36.8081 54.9484 36.4115 54.9484C36.0149 54.9484 35.6914 55.272 35.6914 55.6686C35.6914 56.0652 36.0149 56.3887 36.4115 56.3887C36.8081 56.3887 37.1316 56.0652 37.1316 55.6686Z" fill="#101217"/>
<path d="M40.0141 55.6686C40.0141 55.272 39.6906 54.9484 39.2943 54.9484C38.8977 54.9484 38.5742 55.272 38.5742 55.6686C38.5742 56.0652 38.8977 56.3887 39.2943 56.3887C39.6906 56.3887 40.0141 56.0652 40.0141 55.6686Z" fill="#101217"/>
<path d="M34.2524 52.7896C34.2524 52.393 33.9289 52.0695 33.5326 52.0695C33.136 52.0695 32.8125 52.393 32.8125 52.7896C32.8125 53.1862 33.136 53.5098 33.5326 53.5098C33.9289 53.5098 34.2524 53.1862 34.2524 52.7896Z" fill="#101217"/>
<path d="M37.1316 52.7896C37.1316 52.393 36.8081 52.0695 36.4115 52.0695C36.0149 52.0695 35.6914 52.393 35.6914 52.7896C35.6914 53.1862 36.0149 53.5098 36.4115 53.5098C36.8081 53.5098 37.1316 53.1862 37.1316 52.7896Z" fill="#101217"/>
<path d="M40.0141 52.7896C40.0141 52.393 39.6906 52.0695 39.2943 52.0695C38.8977 52.0695 38.5742 52.393 38.5742 52.7896C38.5742 53.1862 38.8977 53.5098 39.2943 53.5098C39.6906 53.5098 40.0141 53.1862 40.0141 52.7896Z" fill="#101217"/>
<path d="M34.2524 49.9088C34.2524 49.5122 33.9289 49.1887 33.5326 49.1887C33.136 49.1887 32.8125 49.5122 32.8125 49.9088C32.8125 50.3054 33.136 50.6289 33.5326 50.6289C33.9289 50.6289 34.2524 50.3054 34.2524 49.9088Z" fill="#101217"/>
<path d="M37.1316 49.9088C37.1316 49.5122 36.8081 49.1887 36.4115 49.1887C36.0149 49.1887 35.6914 49.5122 35.6914 49.9088C35.6914 50.3054 36.0149 50.6289 36.4115 50.6289C36.8081 50.6289 37.1316 50.3054 37.1316 49.9088Z" fill="#101217"/>
<path d="M40.0141 49.9088C40.0141 49.5122 39.6906 49.1887 39.2943 49.1887C38.8977 49.1887 38.5742 49.5122 38.5742 49.9088C38.5742 50.3054 38.8977 50.6289 39.2943 50.6289C39.6906 50.6289 40.0141 50.3054 40.0141 49.9088Z" fill="#101217"/>
<path d="M34.2524 47.0299C34.2524 46.6333 33.9289 46.3098 33.5326 46.3098C33.136 46.3098 32.8125 46.6333 32.8125 47.0299C32.8125 47.4265 33.136 47.75 33.5326 47.75C33.9289 47.75 34.2524 47.4265 34.2524 47.0299Z" fill="#101217"/>
<path d="M37.1316 47.0299C37.1316 46.6333 36.8081 46.3098 36.4115 46.3098C36.0149 46.3098 35.6914 46.6333 35.6914 47.0299C35.6914 47.4265 36.0149 47.75 36.4115 47.75C36.8081 47.75 37.1316 47.4265 37.1316 47.0299Z" fill="#101217"/>
<path d="M40.0141 47.0299C40.0141 46.6333 39.6906 46.3098 39.2943 46.3098C38.8977 46.3098 38.5742 46.6333 38.5742 47.0299C38.5742 47.4265 38.8977 47.75 39.2943 47.75C39.6906 47.75 40.0141 47.4265 40.0141 47.0299Z" fill="#101217"/>
<path d="M50.8149 55.6686C50.8149 55.272 50.4914 54.9484 50.0951 54.9484C49.6985 54.9484 49.375 55.272 49.375 55.6686C49.375 56.0652 49.6985 56.3887 50.0951 56.3887C50.4914 56.3887 50.8149 56.0652 50.8149 55.6686Z" fill="#101217"/>
<path d="M53.6941 55.6686C53.6941 55.272 53.3706 54.9484 52.974 54.9484C52.5774 54.9484 52.2539 55.272 52.2539 55.6686C52.2539 56.0652 52.5774 56.3887 52.974 56.3887C53.3706 56.3887 53.6941 56.0652 53.6941 55.6686Z" fill="#101217"/>
<path d="M56.5727 55.6686C56.5727 55.272 56.2492 54.9484 55.8529 54.9484C55.4563 54.9484 55.1328 55.272 55.1328 55.6686C55.1328 56.0652 55.4563 56.3887 55.8529 56.3887C56.2492 56.3887 56.5727 56.0652 56.5727 55.6686Z" fill="#101217"/>
<path d="M50.8149 52.7896C50.8149 52.393 50.4914 52.0695 50.0951 52.0695C49.6985 52.0695 49.375 52.393 49.375 52.7896C49.375 53.1862 49.6985 53.5098 50.0951 53.5098C50.4914 53.5098 50.8149 53.1862 50.8149 52.7896Z" fill="#101217"/>
<path d="M53.6941 52.7896C53.6941 52.393 53.3706 52.0695 52.974 52.0695C52.5774 52.0695 52.2539 52.393 52.2539 52.7896C52.2539 53.1862 52.5774 53.5098 52.974 53.5098C53.3706 53.5098 53.6941 53.1862 53.6941 52.7896Z" fill="#101217"/>
<path d="M56.5727 52.7896C56.5727 52.393 56.2492 52.0695 55.8529 52.0695C55.4563 52.0695 55.1328 52.393 55.1328 52.7896C55.1328 53.1862 55.4563 53.5098 55.8529 53.5098C56.2492 53.5098 56.5727 53.1862 56.5727 52.7896Z" fill="#101217"/>
<path d="M50.8149 49.9088C50.8149 49.5122 50.4914 49.1887 50.0951 49.1887C49.6985 49.1887 49.375 49.5122 49.375 49.9088C49.375 50.3054 49.6985 50.6289 50.0951 50.6289C50.4914 50.6289 50.8149 50.3054 50.8149 49.9088Z" fill="#101217"/>
<path d="M53.6941 49.9088C53.6941 49.5122 53.3706 49.1887 52.974 49.1887C52.5774 49.1887 52.2539 49.5122 52.2539 49.9088C52.2539 50.3054 52.5774 50.6289 52.974 50.6289C53.3706 50.6289 53.6941 50.3054 53.6941 49.9088Z" fill="#101217"/>
<path d="M56.5727 49.9088C56.5727 49.5122 56.2492 49.1887 55.8529 49.1887C55.4563 49.1887 55.1328 49.5122 55.1328 49.9088C55.1328 50.3054 55.4563 50.6289 55.8529 50.6289C56.2492 50.6289 56.5727 50.3054 56.5727 49.9088Z" fill="#101217"/>
<path d="M50.8149 47.0299C50.8149 46.6333 50.4914 46.3098 50.0951 46.3098C49.6985 46.3098 49.375 46.6333 49.375 47.0299C49.375 47.4265 49.6985 47.75 50.0951 47.75C50.4914 47.75 50.8149 47.4265 50.8149 47.0299Z" fill="#101217"/>
<path d="M53.6941 47.0299C53.6941 46.6333 53.3706 46.3098 52.974 46.3098C52.5774 46.3098 52.2539 46.6333 52.2539 47.0299C52.2539 47.4265 52.5774 47.75 52.974 47.75C53.3706 47.75 53.6941 47.4265 53.6941 47.0299Z" fill="#101217"/>
<path d="M56.5727 47.0299C56.5727 46.6333 56.2492 46.3098 55.8529 46.3098C55.4563 46.3098 55.1328 46.6333 55.1328 47.0299C55.1328 47.4265 55.4563 47.75 55.8529 47.75C56.2492 47.75 56.5727 47.4265 56.5727 47.0299Z" fill="#101217"/>
<defs>
<linearGradient id="paint0_linear_3_40932" x1="30.25" y1="36.1223" x2="48.25" y2="36.1223" gradientUnits="userSpaceOnUse">
<stop stop-color="#30C5D2"/>
<stop offset="1" stop-color="#C9BFD6"/>
</linearGradient>
</defs>
</svg>
