<svg width="70" height="93" viewBox="0 0 70 93" fill="none" xmlns="http://www.w3.org/2000/svg">
<path fill-rule="evenodd" clip-rule="evenodd" d="M24.5599 83.8398C27.0606 83.8398 29.0611 85.6936 29.0611 88.0109C29.0611 90.3281 27.0606 92.1819 24.5599 92.1819C22.0591 92.1819 20.0586 90.3281 20.0586 88.0109C20.0586 85.6936 22.0591 83.8398 24.5599 83.8398Z" fill="white"/>
<path fill-rule="evenodd" clip-rule="evenodd" d="M35.452 84.6582H45.5104C47.511 84.6582 49.1225 86.1515 49.1225 88.0053C49.1225 89.8591 47.511 91.3525 45.5104 91.3525H35.452C33.4514 91.3525 31.8398 89.8591 31.8398 88.0053C31.8398 86.1515 33.4514 84.6582 35.452 84.6582Z" fill="white"/>
<path fill-rule="evenodd" clip-rule="evenodd" d="M55.5692 84.6582H65.6276C67.6281 84.6582 69.2397 86.1515 69.2397 88.0053C69.2397 89.8591 67.6281 91.3525 65.6276 91.3525H55.5692C53.5686 91.3525 51.957 89.8591 51.957 88.0053C51.957 86.1515 53.5686 84.6582 55.5692 84.6582Z" fill="white"/>
<path fill-rule="evenodd" clip-rule="evenodd" d="M3.61214 84.6582H13.6705C15.6711 84.6582 17.2827 86.1515 17.2827 88.0053C17.2827 89.8591 15.6711 91.3525 13.6705 91.3525H3.61214C1.61158 91.3525 0 89.8591 0 88.0053C0 86.1515 1.61158 84.6582 3.61214 84.6582Z" fill="white"/>
<path fill-rule="evenodd" clip-rule="evenodd" d="M28.677 0C31.1778 0 33.1783 1.8538 33.1783 4.17105C33.1783 6.4883 31.1778 8.34209 28.677 8.34209C26.1763 8.34209 24.1758 6.4883 24.1758 4.17105C24.1758 1.8538 26.1763 0 28.677 0Z" fill="white"/>
<path fill-rule="evenodd" clip-rule="evenodd" d="M64.7435 0C67.2442 0 69.2448 1.8538 69.2448 4.17105C69.2448 6.4883 67.2442 8.34209 64.7435 8.34209C62.2428 8.34209 60.2422 6.4883 60.2422 4.17105C60.2422 1.8538 62.2428 0 64.7435 0Z" fill="white"/>
<path fill-rule="evenodd" clip-rule="evenodd" d="M3.61214 0.830078H17.6161C19.6166 0.830078 21.2282 2.32342 21.2282 4.17722C21.2282 6.03102 19.6166 7.52435 17.6161 7.52435H3.61214C1.61158 7.52435 0 6.03102 0 4.17722C0 2.32342 1.61158 0.830078 3.61214 0.830078Z" fill="white"/>
<path fill-rule="evenodd" clip-rule="evenodd" d="M39.7332 0.830078H53.7372C55.7377 0.830078 57.3493 2.32342 57.3493 4.17722C57.3493 6.03102 55.7377 7.52435 53.7372 7.52435H39.7332C37.7327 7.52435 36.1211 6.03102 36.1211 4.17722C36.1211 2.32342 37.7327 0.830078 39.7332 0.830078Z" fill="white"/>
<path fill-rule="evenodd" clip-rule="evenodd" d="M28.677 41.918C31.1778 41.918 33.1783 43.7718 33.1783 46.089C33.1783 48.4062 31.1778 50.2601 28.677 50.2601C26.1763 50.2601 24.1758 48.4062 24.1758 46.089C24.1758 43.7718 26.1763 41.918 28.677 41.918Z" fill="white"/>
<path fill-rule="evenodd" clip-rule="evenodd" d="M39.7332 42.7461H53.7372C55.7377 42.7461 57.3493 44.2394 57.3493 46.0932C57.3493 47.947 55.7377 49.4404 53.7372 49.4404H39.7332C37.7327 49.4404 36.1211 47.947 36.1211 46.0932C36.1211 44.2394 37.7327 42.7461 39.7332 42.7461Z" fill="white"/>
<path fill-rule="evenodd" clip-rule="evenodd" d="M64.7435 41.918C67.2442 41.918 69.2448 43.7718 69.2448 46.089C69.2448 48.4062 67.2442 50.2601 64.7435 50.2601C62.2428 50.2601 60.2422 48.4062 60.2422 46.089C60.2422 43.7718 62.2428 41.918 64.7435 41.918Z" fill="white"/>
<path fill-rule="evenodd" clip-rule="evenodd" d="M4.50126 41.918C7.00197 41.918 9.00256 43.7718 9.00256 46.089C9.00256 48.4062 7.00197 50.2601 4.50126 50.2601C2.00055 50.2601 0 48.4062 0 46.089C0 43.7718 2.00055 41.918 4.50126 41.918Z" fill="white"/>
<mask id="mask0_3_41639" style="mask-type:luminance" maskUnits="userSpaceOnUse" x="0" y="14" width="70" height="64">
<path d="M40.8831 69.3822C38.3823 69.3822 36.3818 71.236 36.3818 73.5532C36.3818 75.8705 38.3823 77.7243 40.8831 77.7243C43.3838 77.7243 45.3844 75.8705 45.3844 73.5532C45.3844 71.236 43.3838 69.3822 40.8831 69.3822ZM29.7133 70.2061H15.7093C13.7087 70.2061 12.0971 71.6994 12.0971 73.5532C12.0971 75.407 13.7087 76.9004 15.7093 76.9004H29.7133C31.7138 76.9004 33.3254 75.407 33.3254 73.5532C33.3254 71.6994 31.7138 70.2061 29.7133 70.2061ZM4.59501 69.3822C7.09572 69.3822 9.09631 71.236 9.09631 73.5532C9.09631 75.8705 7.09572 77.7243 4.59501 77.7243C2.0943 77.7243 0.09375 75.8705 0.09375 73.5532C0.09375 71.236 2.0943 69.3822 4.59501 69.3822ZM3.70589 56.1996H17.7098C19.7104 56.1996 21.322 57.693 21.322 59.5468C21.322 61.4006 19.7104 62.8939 17.7098 62.8939H3.70589C1.70533 62.8939 0.09375 61.4006 0.09375 59.5468C0.09375 57.693 1.70533 56.1996 3.70589 56.1996ZM39.8272 28.2897H53.8312C55.8317 28.2897 57.4433 29.783 57.4433 31.6368C57.4433 33.4906 55.8317 34.9839 53.8312 34.9839H39.8272C37.8267 34.9839 36.2151 33.4906 36.2151 31.6368C36.2151 29.783 37.8267 28.2897 39.8272 28.2897ZM28.6574 27.4658C31.1581 27.4658 33.1586 29.3196 33.1586 31.6368C33.1586 33.9541 31.1581 35.8079 28.6574 35.8079C26.1567 35.8079 24.1561 33.9541 24.1561 31.6368C24.1561 29.3196 26.1567 27.4658 28.6574 27.4658ZM16.5984 27.4658C19.0991 27.4658 21.0997 29.3196 21.0997 31.6368C21.0997 33.9541 19.0991 35.8079 16.5984 35.8079C14.0977 35.8079 12.0971 33.9541 12.0971 31.6368C12.0971 29.3196 14.0977 27.4658 16.5984 27.4658ZM4.59501 27.4658C7.09572 27.4658 9.09631 29.3196 9.09631 31.6368C9.09631 33.9541 7.09572 35.8079 4.59501 35.8079C2.0943 35.8079 0.09375 33.9541 0.09375 31.6368C0.09375 29.3196 2.0943 27.4658 4.59501 27.4658ZM51.7195 14.2832H65.7234C67.724 14.2832 69.3356 15.7765 69.3356 17.6303C69.3356 19.4841 67.724 20.9775 65.7234 20.9775H51.7195C49.7189 20.9775 48.1073 19.4841 48.1073 17.6303C48.1073 15.7765 49.7189 14.2832 51.7195 14.2832ZM27.7127 14.2832H41.7166C43.7172 14.2832 45.3288 15.7765 45.3288 17.6303C45.3288 19.4841 43.7172 20.9775 41.7166 20.9775H27.7127C25.7121 20.9775 24.1005 19.4841 24.1005 17.6303C24.1005 15.7765 25.7121 14.2832 27.7127 14.2832ZM3.70589 14.2832H17.7098C19.7104 14.2832 21.322 15.7765 21.322 17.6303C21.322 19.4841 19.7104 20.9775 17.7098 20.9775H3.70589C1.70533 20.9775 0.09375 19.4841 0.09375 17.6303C0.09375 15.7765 1.70533 14.2832 3.70589 14.2832ZM52.9421 69.3822C50.4413 69.3822 48.4408 71.236 48.4408 73.5532C48.4408 75.8705 50.4413 77.7243 52.9421 77.7243C55.4428 77.7243 57.4433 75.8705 57.4433 73.5532C57.4433 71.236 55.4428 69.3822 52.9421 69.3822Z" fill="white"/>
</mask>
<g mask="url(#mask0_3_41639)">
<path d="M69.3356 14.2832H0.09375V77.6728H69.3356V14.2832Z" fill="url(#paint0_linear_3_41639)"/>
</g>
<defs>
<linearGradient id="paint0_linear_3_41639" x1="0.09375" y1="46.0037" x2="69.3356" y2="46.0037" gradientUnits="userSpaceOnUse">
<stop stop-color="#30C4D2"/>
<stop offset="1" stop-color="#461068"/>
</linearGradient>
</defs>
</svg>
