<svg width="72" height="73" viewBox="0 0 72 73" fill="none" xmlns="http://www.w3.org/2000/svg">
<path fill-rule="evenodd" clip-rule="evenodd" d="M36 0.96875C55.8824 0.96875 72 17.0864 72 36.9688C72 56.8511 55.8824 72.9688 36 72.9688C16.1177 72.9688 0 56.8511 0 36.9688C0 17.0864 16.1177 0.96875 36 0.96875Z" fill="#101217"/>
<path d="M45.6985 45.94L45.7031 55.5371L29.9981 55.5425L29.9934 45.9454L45.6985 45.94Z" fill="url(#paint0_linear_3_41668)"/>
<path d="M53.9546 26.7411C55.5446 26.7405 56.8341 28.0287 56.8348 29.6192C56.8354 31.209 55.547 32.4986 53.957 32.4992C52.3666 32.4999 51.0774 31.2114 51.0768 29.6216C51.0761 28.0311 52.3642 26.7418 53.9546 26.7411Z" fill="#30C5D2"/>
<path d="M22.0835 26.7528C23.6738 26.7522 24.963 28.0404 24.9637 29.6309C24.9643 31.2208 23.6762 32.5103 22.0859 32.5109C20.4958 32.5116 19.2064 31.2231 19.2058 29.6333C19.2051 28.0428 20.4934 26.7535 22.0835 26.7528Z" fill="#30C5D2"/>
<path d="M36.5558 11.3913C38.1463 11.3906 39.4357 12.6789 39.4363 14.2691C39.437 15.8592 38.1487 17.149 36.5582 17.1496C34.9683 17.1503 33.6787 15.8616 33.6781 14.2715C33.6774 12.6813 34.9659 11.3919 36.5558 11.3913Z" fill="#30C5D2"/>
<path d="M44.0723 47.8584L44.0781 57.4551L28.0781 57.4595L28.0723 47.8629L44.0723 47.8584Z" stroke="#E9EBF1" stroke-width="1.04" stroke-linecap="round" stroke-linejoin="round"/>
<path d="M52.0363 28.6627C53.6267 28.6621 54.9161 29.9504 54.9168 31.5406C54.9174 33.1307 53.6291 34.4204 52.0387 34.4211C50.4486 34.4218 49.1592 33.1331 49.1585 31.543C49.1579 29.9528 50.4462 28.6634 52.0363 28.6627Z" stroke="#E9EBF1" stroke-width="1.04" stroke-linecap="round" stroke-linejoin="round"/>
<path d="M20.1656 28.6745C21.7556 28.6738 23.045 29.9621 23.0457 31.5523C23.0463 33.1425 21.7579 34.4322 20.1679 34.4328C18.5776 34.4335 17.2881 33.1448 17.2875 31.5547C17.2868 29.9645 18.5753 28.6751 20.1656 28.6745Z" stroke="#E9EBF1" stroke-width="1.04" stroke-linecap="round" stroke-linejoin="round"/>
<path d="M35.1187 13.3136C36.7087 13.313 37.9982 14.601 37.9988 16.1913C37.9995 17.7814 36.7111 19.0708 35.1211 19.0715C33.5308 19.0721 32.2412 17.7837 32.2406 16.1936C32.2399 14.6034 33.5284 13.3143 35.1187 13.3136Z" stroke="#E9EBF1" stroke-width="1.04" stroke-linecap="round" stroke-linejoin="round"/>
<path d="M36 47.8613L35.9929 30.587" stroke="#E9EBF1" stroke-width="1.04" stroke-linecap="round" stroke-linejoin="round"/>
<path d="M27.8516 52.6602L20.1741 52.6633L20.1713 45.9455" stroke="#E9EBF1" stroke-width="1.04" stroke-linecap="round" stroke-linejoin="round"/>
<path d="M52.0441 45.9365L52.0469 52.6543L44.3669 52.6574" stroke="#E9EBF1" stroke-width="1.04" stroke-linecap="round" stroke-linejoin="round"/>
<path d="M20.1722 41.1491C19.6437 41.1494 19.2127 41.5807 19.2129 42.1092C19.2131 42.6377 19.6445 43.069 20.173 43.0688C20.7016 43.0685 21.1326 42.6369 21.1324 42.1084C21.1322 41.5799 20.7008 41.1489 20.1722 41.1491Z" fill="#E9EBF1"/>
<path d="M20.1683 37.3093C19.6398 37.3095 19.2088 37.7409 19.209 38.2696C19.2092 38.7978 19.6406 39.2291 20.1691 39.2289C20.6977 39.2287 21.1287 38.797 21.1285 38.2688C21.1283 37.7401 20.6969 37.3091 20.1683 37.3093Z" fill="#E9EBF1"/>
<path d="M36.0394 25.7878C35.5108 25.788 35.0798 26.2196 35.08 26.7481C35.0802 27.2766 35.5116 27.7076 36.0402 27.7074C36.5688 27.7072 36.9998 27.2758 36.9996 26.7473C36.9994 26.2188 36.568 25.7876 36.0394 25.7878Z" fill="#E9EBF1"/>
<path d="M36.0394 21.9499C35.5108 21.9501 35.0798 22.3817 35.08 22.9102C35.0802 23.4387 35.5116 23.8698 36.0402 23.8695C36.5688 23.8693 36.9998 23.438 36.9996 22.9095C36.9994 22.381 36.568 21.9497 36.0394 21.9499Z" fill="#E9EBF1"/>
<path d="M52.0433 41.1374C51.5149 41.1376 51.0838 41.569 51.084 42.0975C51.0842 42.626 51.5157 43.0573 52.0441 43.057C52.5728 43.0568 53.0037 42.6252 53.0035 42.0967C53.0033 41.5682 52.572 41.1372 52.0433 41.1374Z" fill="#E9EBF1"/>
<path d="M52.0394 37.2976C51.511 37.2978 51.0799 37.7292 51.0801 38.2579C51.0803 38.7861 51.5118 39.2174 52.0402 39.2172C52.5689 39.217 52.9998 38.7853 52.9996 38.2571C52.9994 37.7284 52.5681 37.2974 52.0394 37.2976Z" fill="#E9EBF1"/>
<defs>
<linearGradient id="paint0_linear_3_41668" x1="37.8506" y1="55.5398" x2="37.8473" y2="45.9427" gradientUnits="userSpaceOnUse">
<stop stop-color="#30C5D2"/>
<stop offset="1" stop-color="#471069"/>
</linearGradient>
</defs>
</svg>
