<svg width="97" height="97" viewBox="0 0 97 97" fill="none" xmlns="http://www.w3.org/2000/svg">
<path fill-rule="evenodd" clip-rule="evenodd" d="M48.5001 0.967033C75.0097 0.967033 96.5 22.4572 96.5 48.9669C96.5 75.4767 75.0097 96.9668 48.5001 96.9668C21.9904 96.9668 0.5 75.4767 0.5 48.9669C0.5 22.4572 21.9904 0.967033 48.5001 0.967033Z" fill="#E9EBF1"/>
<path d="M44.6328 74.084H74.5804V30.6118H44.6328V74.084Z" fill="url(#paint0_linear_3_41849)"/>
<path d="M18.5508 71.1855H78.4459V27.7133H18.5508V71.1855Z" stroke="#101217" stroke-width="1.39111" stroke-linecap="round" stroke-linejoin="round"/>
<path d="M61.0547 44.1348H70.7152V34.4743H61.0547V44.1348Z" stroke="#101217" stroke-width="1.39111" stroke-linecap="round" stroke-linejoin="round"/>
<path d="M48.4961 34.4761V64.4238" stroke="#101217" stroke-width="1.39111" stroke-linecap="round" stroke-linejoin="round"/>
<path d="M54.293 58.627H60.089" stroke="#101217" stroke-width="1.39111" stroke-linecap="round" stroke-linejoin="round"/>
<path d="M54.293 53.7969H71.6819" stroke="#101217" stroke-width="1.39111" stroke-linecap="round" stroke-linejoin="round"/>
<path d="M54.293 48.9668H71.6819" stroke="#101217" stroke-width="1.39111" stroke-linecap="round" stroke-linejoin="round"/>
<path d="M24.3477 64.4238H42.6106" stroke="#101217" stroke-width="1.39111" stroke-linecap="round" stroke-linejoin="round"/>
<path d="M24.3477 59.5938H42.6106" stroke="#101217" stroke-width="1.39111" stroke-linecap="round" stroke-linejoin="round"/>
<path d="M68.7837 58.6277C68.7837 58.0954 68.3496 57.6617 67.8176 57.6617C67.2856 57.6617 66.8516 58.0954 66.8516 58.6277C66.8516 59.1596 67.2856 59.5938 67.8176 59.5938C68.3496 59.5938 68.7837 59.1596 68.7837 58.6277Z" fill="#101217"/>
<path d="M72.6508 58.6277C72.6508 58.0954 72.2169 57.6617 71.6848 57.6617C71.1527 57.6617 70.7188 58.0954 70.7188 58.6277C70.7188 59.1596 71.1527 59.5938 71.6848 59.5938C72.2169 59.5938 72.6508 59.1596 72.6508 58.6277Z" fill="#101217"/>
<path d="M64.9204 58.6277C64.9204 58.0954 64.4863 57.6617 63.9543 57.6617C63.4223 57.6617 62.9883 58.0954 62.9883 58.6277C62.9883 59.1596 63.4223 59.5938 63.9543 59.5938C64.4863 59.5938 64.9204 59.1596 64.9204 58.6277Z" fill="#101217"/>
<path d="M43.6667 38.3406C43.6667 37.8085 43.2324 37.3743 42.7004 37.3743C42.1684 37.3743 41.7344 37.8085 41.7344 38.3406C41.7344 38.8724 42.1684 39.3066 42.7004 39.3066C43.2324 39.3066 43.6667 38.8724 43.6667 38.3406Z" fill="#101217"/>
<path d="M39.8034 38.3406C39.8034 37.8085 39.3691 37.3743 38.8371 37.3743C38.3051 37.3743 37.8711 37.8085 37.8711 38.3406C37.8711 38.8724 38.3051 39.3066 38.8371 39.3066C39.3691 39.3066 39.8034 38.8724 39.8034 38.3406Z" fill="#101217"/>
<path d="M35.9401 38.3406C35.9401 37.8085 35.5058 37.3743 34.9741 37.3743C34.4418 37.3743 34.0078 37.8085 34.0078 38.3406C34.0078 38.8724 34.4418 39.3066 34.9741 39.3066C35.5058 39.3066 35.9401 38.8724 35.9401 38.3406Z" fill="#101217"/>
<path d="M32.073 38.3406C32.073 37.8085 31.639 37.3743 31.1069 37.3743C30.5746 37.3743 30.1406 37.8085 30.1406 38.3406C30.1406 38.8724 30.5746 39.3066 31.1069 39.3066C31.639 39.3066 32.073 38.8724 32.073 38.3406Z" fill="#101217"/>
<path d="M24.3477 38.3418H27.2458" stroke="#101217" stroke-width="1.39111" stroke-linecap="round" stroke-linejoin="round"/>
<defs>
<linearGradient id="paint0_linear_3_41849" x1="44.6328" y1="52.3479" x2="74.5804" y2="52.3479" gradientUnits="userSpaceOnUse">
<stop stop-color="#30C5D2"/>
<stop offset="1" stop-color="#C9BFD6"/>
</linearGradient>
</defs>
</svg>
