<svg width="97" height="97" viewBox="0 0 97 97" fill="none" xmlns="http://www.w3.org/2000/svg">
<path fill-rule="evenodd" clip-rule="evenodd" d="M48.5001 0.966797C75.0098 0.966797 96.5 22.457 96.5 48.9668C96.5 75.4766 75.0098 96.9668 48.5001 96.9668C21.9903 96.9668 0.5 75.4766 0.5 48.9668C0.5 22.457 21.9903 0.966797 48.5001 0.966797Z" fill="#E9EBF1"/>
<path d="M67.3378 33.0254C64.675 33.0254 62.5078 30.8587 62.5078 28.1951C62.5078 25.5318 64.675 23.3651 67.3378 23.3651C70.001 23.3651 72.1681 25.5318 72.1681 28.1951C72.1681 30.8587 70.001 33.0254 67.3378 33.0254Z" fill="#30C5D2"/>
<path d="M30.6297 35.9238C28.4984 35.9238 26.7656 34.1907 26.7656 32.0596C26.7656 29.9283 28.4984 28.1952 30.6297 28.1952C32.761 28.1952 34.4939 29.9283 34.4939 32.0596C34.4939 34.1907 32.761 35.9238 30.6297 35.9238Z" fill="#30C5D2"/>
<path d="M49.9498 68.7715C44.6233 68.7715 40.2891 64.4372 40.2891 59.1106C40.2891 53.784 44.6233 49.4504 49.9498 49.4504C55.276 49.4504 59.6101 53.784 59.6101 59.1106C59.6101 64.4372 55.276 68.7715 49.9498 68.7715Z" fill="url(#paint0_linear_3_41873)"/>
<path d="M30.6289 45.5859V42.4349C31.336 42.2523 32.0029 41.974 32.6164 41.6117L34.8447 43.8393L37.5774 41.1076L35.3488 38.8798C35.7116 38.2653 35.9894 37.5989 36.172 36.8915H39.3233V33.0273H36.172C35.9894 32.3203 35.7116 31.6538 35.3488 31.0393L37.5774 28.8115L34.8447 26.0796L32.6164 28.3074C32.0029 27.9451 31.336 27.6669 30.6289 27.4843V24.3328H26.7648V27.4843C26.0575 27.6669 25.3906 27.9451 24.7773 28.3074L22.5486 26.0796L19.8162 28.8115L22.0445 31.0393C21.682 31.6538 21.4042 32.3203 21.2217 33.0273H18.0703V36.8915H21.2217C21.4042 37.5989 21.682 38.2653 22.0445 38.8798L19.8162 41.1076L22.5486 43.8393L24.7773 41.6117C25.3906 41.974 26.0575 42.2523 26.7648 42.4349V45.5859H30.6289Z" stroke="#24272E" stroke-width="1.39111" stroke-linecap="round" stroke-linejoin="round"/>
<path d="M63.4746 64.9068V59.1104H58.2645C57.9909 58.0498 57.5739 57.0489 57.0299 56.1293L60.714 52.4451L56.6154 48.3471L52.9314 52.0304C52.011 51.4866 51.0106 51.0704 49.9498 50.7961V45.5859H44.1538V50.7961C43.0928 51.0704 42.0925 51.4866 41.1721 52.0304L37.4883 48.3471L33.3898 52.4451L37.0736 56.1293C36.5296 57.0489 36.1128 58.0498 35.8392 59.1104H30.6289V64.9068H35.8392C36.1128 65.9674 36.5296 66.9682 37.0736 67.8881L33.3898 71.5726L37.4883 75.6704L41.1721 71.987C42.0925 72.5309 43.0928 72.9473 44.1538 73.2217V78.4316H49.9498V73.2217C51.0106 72.9473 52.011 72.5309 52.9314 71.987L56.6154 75.6704L60.714 71.5726L57.0299 67.8881C57.5739 66.9682 57.9909 65.9674 58.2645 64.9068H63.4746Z" stroke="#24272E" stroke-width="1.39111" stroke-linecap="round" stroke-linejoin="round"/>
<path d="M77.9649 33.0276V29.1634H73.8776C73.6576 28.1946 73.2751 27.2893 72.761 26.473L75.6528 23.5818L72.9201 20.8489L70.0287 23.7411C69.2125 23.2271 68.3073 22.8446 67.3382 22.6244V18.5371H63.474V22.6244C62.5051 22.8446 61.6002 23.2271 60.7837 23.7411L57.8921 20.8489L55.1597 23.5818L58.0514 26.473C57.5375 27.2893 57.1549 28.1946 56.9347 29.1634H52.8477V33.0276H56.9347C57.1549 33.9968 57.5375 34.9018 58.0514 35.7182L55.1597 38.6096L57.8921 41.3426L60.7837 38.4503C61.6 38.9643 62.5051 39.3468 63.474 39.567V43.6543H67.3382V39.567C68.3073 39.3468 69.2127 38.9643 70.0287 38.4503L72.9201 41.3426L75.6528 38.6096L72.761 35.7182C73.2751 34.9018 73.6576 33.9968 73.8776 33.0276H77.9649Z" stroke="#24272E" stroke-width="1.39111" stroke-linecap="round" stroke-linejoin="round"/>
<path d="M65.4045 35.9238C62.7414 35.9238 60.5742 33.7569 60.5742 31.0936C60.5742 28.4302 62.7414 26.2632 65.4045 26.2632C68.0676 26.2632 70.2349 28.4302 70.2349 31.0936C70.2349 33.7569 68.0676 35.9238 65.4045 35.9238Z" stroke="#24272E" stroke-width="1.39111" stroke-linecap="round" stroke-linejoin="round"/>
<path d="M28.6962 38.8223C26.5649 38.8223 24.832 37.0892 24.832 34.9581C24.832 32.8269 26.5649 31.094 28.6962 31.094C30.8278 31.094 32.5604 32.8269 32.5604 34.9581C32.5604 37.0892 30.8278 38.8223 28.6962 38.8223Z" stroke="#24272E" stroke-width="1.39111" stroke-linecap="round" stroke-linejoin="round"/>
<path d="M47.0526 69.7363C42.7914 69.7363 39.3242 66.2692 39.3242 62.0079C39.3242 57.7467 42.7914 54.2793 47.0526 54.2793C51.3139 54.2793 54.7809 57.7467 54.7809 62.0079C54.7809 66.2692 51.3139 69.7363 47.0526 69.7363Z" stroke="#24272E" stroke-width="1.39111" stroke-linecap="round" stroke-linejoin="round"/>
<path d="M44.1548 62.0084C44.1548 61.4764 43.7209 61.0424 43.1887 61.0424C42.6566 61.0424 42.2227 61.4764 42.2227 62.0084C42.2227 62.5405 42.6566 62.9746 43.1887 62.9746C43.7209 62.9746 44.1548 62.5405 44.1548 62.0084Z" fill="#24272E"/>
<path d="M48.018 62.0084C48.018 61.4764 47.584 61.0424 47.052 61.0424C46.5199 61.0424 46.0859 61.4764 46.0859 62.0084C46.0859 62.5405 46.5199 62.9746 47.052 62.9746C47.584 62.9746 48.018 62.5405 48.018 62.0084Z" fill="#24272E"/>
<path d="M51.8813 62.0084C51.8813 61.4764 51.4473 61.0424 50.9153 61.0424C50.3831 61.0424 49.9492 61.4764 49.9492 62.0084C49.9492 62.5405 50.3831 62.9746 50.9153 62.9746C51.4473 62.9746 51.8813 62.5405 51.8813 62.0084Z" fill="#24272E"/>
<defs>
<linearGradient id="paint0_linear_3_41873" x1="40.2891" y1="59.111" x2="59.6101" y2="59.111" gradientUnits="userSpaceOnUse">
<stop stop-color="#30C5D2"/>
<stop offset="1" stop-color="#C9BFD6"/>
</linearGradient>
</defs>
</svg>
