<svg width="97" height="97" viewBox="0 0 97 97" fill="none" xmlns="http://www.w3.org/2000/svg">
  <path fill-rule="evenodd" clip-rule="evenodd" d="M48.4999 96.8965C21.9902 96.8965 0.500002 75.4063 0.500002 48.8966C0.500002 22.3872 21.9902 0.896484 48.4999 0.896484C75.0093 0.896484 96.5 22.3872 96.5 48.8966C96.5 75.4063 75.0093 96.8965 48.4999 96.8965Z" fill="#FFFFFF"/>
  <mask id="mask0_3_43024" style="mask-type:luminance" maskUnits="userSpaceOnUse" x="39" y="40" width="23" height="22">
    <path fill-rule="evenodd" clip-rule="evenodd" d="M39.8057 50.8315C39.8057 44.9631 44.5632 40.2051 50.4321 40.2051C56.3009 40.2051 61.0586 44.9631 61.0586 50.8315C61.0586 56.7003 56.3009 61.458 50.4321 61.458C44.5632 61.458 39.8057 56.7003 39.8057 50.8315Z" fill="white"/>
  </mask>
  <g mask="url(#mask0_3_43024)">
    <rect x="61.0781" y="62.8789" width="22.5413" height="24.1514" transform="rotate(180 61.0781 62.8789)" fill="url(#paint0_linear_3_43024)"/>
  </g>
  <path d="M69.757 20.8828C73.4848 20.8828 76.5195 23.9162 76.5195 27.645C76.5195 31.3739 73.4848 34.4076 69.757 34.4076C66.029 34.4076 62.9949 31.3739 62.9949 27.645C62.9949 23.9162 66.029 20.8828 69.757 20.8828Z" fill="#30C5D2"/>
  <path d="M27.2492 63.3906C30.9775 63.3906 34.0117 66.4239 34.0117 70.1527C34.0117 73.882 30.9775 76.9152 27.2492 76.9152C23.5212 76.9152 20.4871 73.882 20.4871 70.1527C20.4871 66.4239 23.5212 63.3906 27.2492 63.3906Z" fill="#30C5D2"/>
  <path d="M39.8091 22.8145C43.0048 22.8145 45.6055 25.4141 45.6055 28.6108C45.6055 31.8073 43.0048 34.4071 39.8091 34.4071C36.6133 34.4071 34.0128 31.8073 34.0128 28.6108C34.0128 25.4141 36.6133 22.8145 39.8091 22.8145Z" fill="#30C5D2"/>
  <path d="M72.6551 69.1855C74.7866 69.1855 76.5195 70.918 76.5195 73.0494C76.5195 75.1804 74.7866 76.9138 72.6551 76.9138C70.5242 76.9138 68.7908 75.1804 68.7908 73.0494C68.7908 70.918 70.5242 69.1855 72.6551 69.1855Z" fill="#30C5D2"/>
  <path d="M25.3153 41.1699C27.4466 41.1699 29.1797 42.9033 29.1797 45.0343C29.1797 47.1653 27.4466 48.8987 25.3153 48.8987C23.1843 48.8987 21.4509 47.1653 21.4509 45.0343C21.4509 42.9033 23.1843 41.1699 25.3153 41.1699Z" fill="#30C5D2"/>
  <path d="M37.8758 48.898C37.8758 43.029 42.6335 38.2715 48.5022 38.2715C54.3709 38.2715 59.1289 43.029 59.1289 48.898C59.1289 54.7664 54.3709 59.5244 48.5022 59.5244C42.6335 59.5244 37.8758 54.7664 37.8758 48.898Z" stroke="#101217" stroke-width="1.39112" stroke-linecap="round" stroke-linejoin="round"/>
  <path d="M71.6872 18.9512C75.4145 18.9512 78.4492 21.9848 78.4492 25.7138C78.4492 29.4426 75.4145 32.4762 71.6872 32.4762C67.9585 32.4762 64.9243 29.4426 64.9243 25.7138C64.9243 21.9848 67.9585 18.9512 71.6872 18.9512Z" stroke="#101217" stroke-width="1.39112" stroke-linecap="round" stroke-linejoin="round"/>
  <path d="M25.3153 65.3203C29.0435 65.3203 32.0781 68.3539 32.0781 72.0829C32.0781 75.8121 29.0435 78.8454 25.3153 78.8454C21.5875 78.8454 18.5528 75.8121 18.5528 72.0829C18.5528 68.3539 21.5875 65.3203 25.3153 65.3203Z" stroke="#101217" stroke-width="1.39112" stroke-linecap="round" stroke-linejoin="round"/>
  <path d="M38.8403 20.8828C42.0361 20.8828 44.6367 23.4828 44.6367 26.679C44.6367 29.8761 42.0361 32.4757 38.8403 32.4757C35.6446 32.4757 33.0444 29.8761 33.0444 26.679C33.0444 23.4828 35.6446 20.8828 38.8403 20.8828Z" stroke="#101217" stroke-width="1.39112" stroke-linecap="round" stroke-linejoin="round"/>
  <path d="M74.5847 71.1172C76.7163 71.1172 78.4492 72.8501 78.4492 74.9811C78.4492 77.1127 76.7163 78.8455 74.5847 78.8455C72.454 78.8455 70.7208 77.1127 70.7208 74.9811C70.7208 72.8501 72.454 71.1172 74.5847 71.1172Z" stroke="#101217" stroke-width="1.39112" stroke-linecap="round" stroke-linejoin="round"/>
  <path d="M22.4207 40.2031C24.5518 40.2031 26.2852 41.9359 26.2852 44.0671C26.2852 46.1984 24.5518 47.9315 22.4207 47.9315C20.2897 47.9315 18.5562 46.1984 18.5562 44.0671C18.5562 41.9359 20.2897 40.2031 22.4207 40.2031Z" stroke="#101217" stroke-width="1.39112" stroke-linecap="round" stroke-linejoin="round"/>
  <path d="M56.018 56.4141L71.8516 72.2479" stroke="#101217" stroke-width="1.39112" stroke-linecap="round" stroke-linejoin="round"/>
  <path d="M30.1011 67.3017L40.9883 56.4141" stroke="#101217" stroke-width="1.39112" stroke-linecap="round" stroke-linejoin="round"/>
  <path d="M26.2161 44.7715L38.0508 46.9644" stroke="#101217" stroke-width="1.39112" stroke-linecap="round" stroke-linejoin="round"/>
  <path d="M41.1508 31.9922L44.2617 39.1509" stroke="#101217" stroke-width="1.39112" stroke-linecap="round" stroke-linejoin="round"/>
  <path d="M56.0188 41.3816L66.9062 30.4941" stroke="#101217" stroke-width="1.39112" stroke-linecap="round" stroke-linejoin="round"/>
  <path d="M43.673 48.8979C43.673 49.4295 44.1071 49.8636 44.6393 49.8636C45.1714 49.8636 45.6055 49.4295 45.6055 48.8979C45.6055 48.3656 45.1714 47.9316 44.6393 47.9316C44.1071 47.9316 43.673 48.3656 43.673 48.8979Z" fill="#101217"/>
  <path d="M43.5676 52.433C43.5676 52.9652 44.0016 53.3992 44.5338 53.3992C45.0659 53.3992 45.5 52.9652 45.5 52.433C45.5 51.9007 45.0659 51.4668 44.5338 51.4668C44.0016 51.4668 43.5676 51.9007 43.5676 52.433Z" fill="#101217"/>
  <path d="M43.673 45.0346C43.673 45.5664 44.1071 46.0005 44.6393 46.0005C45.1714 46.0005 45.6055 45.5664 45.6055 45.0346C45.6055 44.5024 45.1714 44.0684 44.6393 44.0684C44.1071 44.0684 43.673 44.5024 43.673 45.0346Z" fill="#101217"/>
  <path d="M47.5363 48.8979C47.5363 49.4295 47.9702 49.8636 48.5025 49.8636C49.0347 49.8636 49.4688 49.4295 49.4688 48.8979C49.4688 48.3656 49.0347 47.9316 48.5025 47.9316C47.9702 47.9316 47.5363 48.3656 47.5363 48.8979Z" fill="#101217"/>
  <path d="M47.5363 52.7611C47.5363 53.2933 47.9702 53.7274 48.5025 53.7274C49.0347 53.7274 49.4688 53.2933 49.4688 52.7611C49.4688 52.2288 49.0347 51.7949 48.5025 51.7949C47.9702 51.7949 47.5363 52.2288 47.5363 52.7611Z" fill="#101217"/>
  <path d="M47.5363 45.0346C47.5363 45.5664 47.9702 46.0005 48.5025 46.0005C49.0347 46.0005 49.4688 45.5664 49.4688 45.0346C49.4688 44.5024 49.0347 44.0684 48.5025 44.0684C47.9702 44.0684 47.5363 44.5024 47.5363 45.0346Z" fill="#101217"/>
  <path d="M51.4001 48.8979C51.4001 49.4295 51.8337 49.8636 52.3658 49.8636C52.898 49.8636 53.332 49.4295 53.332 48.8979C53.332 48.3656 52.898 47.9316 52.3658 47.9316C51.8337 47.9316 51.4001 48.3656 51.4001 48.8979Z" fill="#101217"/>
  <path d="M51.4001 52.7611C51.4001 53.2933 51.8337 53.7274 52.3658 53.7274C52.898 53.7274 53.332 53.2933 53.332 52.7611C53.332 52.2288 52.898 51.7949 52.3658 51.7949C51.8337 51.7949 51.4001 52.2288 51.4001 52.7611Z" fill="#101217"/>
  <path d="M51.4001 45.0346C51.4001 45.5664 51.8337 46.0005 52.3658 46.0005C52.898 46.0005 53.332 45.5664 53.332 45.0346C53.332 44.5024 52.898 44.0684 52.3658 44.0684C51.8337 44.0684 51.4001 44.5024 51.4001 45.0346Z" fill="#101217"/>
  <defs>
    <linearGradient id="paint0_linear_3_43024" x1="61.0781" y1="74.9546" x2="83.6194" y2="74.9546" gradientUnits="userSpaceOnUse">
      <stop stop-color="#30C5D2"/>
      <stop offset="1" stop-color="#471069"/>
    </linearGradient>
  </defs>
</svg>
