<svg width="72" height="73" viewBox="0 0 72 73" fill="none" xmlns="http://www.w3.org/2000/svg">
  <path fill-rule="evenodd" clip-rule="evenodd" d="M36 0.896482C55.8823 0.896482 72 17.0141 72 36.8965C72 56.7788 55.8823 72.8965 36 72.8965C16.1177 72.8965 0 56.7788 0 36.8965C0 17.0141 16.1177 0.896482 36 0.896482Z" fill="#FFFFFF"/>
  <path d="M46.3716 50.8926H31.8808C31.4805 50.8926 31.1562 50.5681 31.1562 50.168V40.0244C31.1562 39.6246 31.4805 39.3 31.8808 39.3H46.3716C46.7717 39.3 47.0961 39.6246 47.0961 40.0244V50.168C47.0961 50.5681 46.7717 50.8926 46.3716 50.8926Z" fill="url(#paint0_linear_3_43114)"/>
  <path d="M36.9531 42.9219V45.0957" stroke="#101217" stroke-width="1.04334" stroke-linecap="round" stroke-linejoin="round"/>
  <path d="M44.1958 47.9922H29.7051C29.3048 47.9922 28.9805 47.6674 28.9805 47.2676V37.124C28.9805 36.7241 29.3048 36.3994 29.7051 36.3994H44.1958C44.5961 36.3994 44.9203 36.7241 44.9203 37.124V47.2676C44.9203 47.6674 44.5961 47.9922 44.1958 47.9922Z" stroke="#101217" stroke-width="1.04334" stroke-linecap="round" stroke-linejoin="round"/>
  <path d="M42.7489 36.4023H31.1562V32.7797C31.1562 29.5788 33.7511 26.9833 36.9526 26.9833C40.1537 26.9833 42.7489 29.5788 42.7489 32.7797V36.4023Z" stroke="#101217" stroke-width="1.04334" stroke-linecap="round" stroke-linejoin="round"/>
  <path d="M38.4492 41.4709C38.4492 42.2995 37.7776 42.9707 36.9492 42.9707C36.1206 42.9707 35.4492 42.2995 35.4492 41.4709C35.4492 40.6421 36.1206 39.9707 36.9492 39.9707C37.7776 39.9707 38.4492 40.6421 38.4492 41.4709Z" stroke="#101217" stroke-width="1.08" stroke-linecap="round" stroke-linejoin="round"/>
  <path d="M18.793 17.9482V35.8453C18.793 46.3568 24.3439 56.0253 33.2528 61.0336L36.6997 62.9688L40.1467 61.0336C49.0556 56.0253 54.6066 46.3568 54.6066 35.8453V17.9482C52.547 19.0166 50.1522 19.6204 47.6005 19.6204C43.7056 19.6204 40.1767 18.1961 37.6248 15.8968C37.3042 15.603 36.9905 15.3008 36.6997 14.9759C36.4089 15.3008 36.0953 15.603 35.7747 15.8968C33.2227 18.1961 29.6939 19.6204 25.7988 19.6204C23.2473 19.6204 20.8525 19.0166 18.793 17.9482Z" stroke="#101217" stroke-width="1.04334" stroke-linecap="round" stroke-linejoin="round"/>
  <path d="M34.6727 58.3094C26.719 53.8375 21.7773 45.229 21.7773 35.8443V22.2766C23.0861 22.5669 24.4369 22.7156 25.7986 22.7156C29.821 22.7156 33.6419 21.4369 36.7013 19.0903C39.7697 21.4415 43.5852 22.7156 47.6007 22.7156C48.9625 22.7156 50.3134 22.5669 51.6219 22.2766V35.8443C51.6219 45.229 46.6805 53.8375 38.7248 58.31L36.6998 59.4473L34.6727 58.3094Z" stroke="#101217" stroke-width="1.04334" stroke-linecap="round" stroke-linejoin="round"/>
  <path d="M24.7617 28.4257V32.0059" stroke="#101217" stroke-width="1.04334" stroke-linecap="round" stroke-linejoin="round"/>
  <path d="M24.7617 25.8132V26.1035" stroke="#101217" stroke-width="1.04334" stroke-linecap="round" stroke-linejoin="round"/>
  <defs>
    <linearGradient id="paint0_linear_3_43114" x1="31.1562" y1="45.0963" x2="47.0961" y2="45.0963" gradientUnits="userSpaceOnUse">
      <stop stop-color="#30C5D2"/>
      <stop offset="1" stop-color="#471069"/>
    </linearGradient>
  </defs>
</svg>
