<svg width="72" height="72" viewBox="0 0 72 72" fill="none" xmlns="http://www.w3.org/2000/svg">
<path fill-rule="evenodd" clip-rule="evenodd" d="M36.0001 -0.000350952C55.8824 -0.000350952 72 16.1176 72 35.9999C72 55.8822 55.8824 72 36.0001 72C16.1176 72 0 55.8822 0 35.9999C0 16.1176 16.1176 -0.000350952 36.0001 -0.000350952Z" fill="#101217"/>
<mask id="mask0_295_58045" style="mask-type:luminance" maskUnits="userSpaceOnUse" x="27" y="20" width="17" height="22">
<path fill-rule="evenodd" clip-rule="evenodd" d="M32.9817 38.3186V41.0742C32.9817 41.474 33.3066 41.7988 33.7063 41.7988H38.0536C38.4538 41.7988 38.7782 41.474 38.7782 41.0742V38.3159C38.7782 36.7379 39.5478 35.2841 40.7903 34.3113C42.9181 32.6471 44.176 29.9247 43.7762 26.9289C43.3014 23.3744 40.3881 20.5254 36.8247 20.1168C31.9959 19.5632 27.9102 23.3166 27.9102 28.0325C27.9102 30.571 29.0925 32.8275 30.9372 34.2867C32.1869 35.2742 32.9817 36.7256 32.9817 38.3186Z" fill="white"/>
</mask>
<g mask="url(#mask0_295_58045)">
<rect x="27.7773" y="19.0234" width="16.9059" height="22.9437" fill="url(#paint0_linear_295_58045)"/>
</g>
<path d="M32.9816 35.4187V38.1738C32.9816 38.5739 33.3065 38.8984 33.7064 38.8984H38.0535C38.4538 38.8984 38.7783 38.5739 38.7783 38.1738V35.4156C38.7783 33.8377 39.5476 32.3842 40.7902 31.4111C42.9179 29.7467 44.1759 27.0248 43.7762 24.0287C43.3014 20.4742 40.3881 17.6253 36.8247 17.2168C31.9958 16.6633 27.9102 20.416 27.9102 25.1321C27.9102 27.6711 29.0925 29.9272 30.9371 31.3866C32.1867 32.3739 32.9816 33.8253 32.9816 35.4187Z" stroke="#E9EBF1" stroke-width="1.04333" stroke-linecap="round" stroke-linejoin="round"/>
<path d="M32.9805 35.2773H38.7771" stroke="#E9EBF1" stroke-width="1.04333" stroke-linecap="round" stroke-linejoin="round"/>
<path d="M35.8789 35.2773V28.7565" stroke="#E9EBF1" stroke-width="1.04333" stroke-linecap="round" stroke-linejoin="round"/>
<path d="M38.7771 24.4103L35.8788 28.7578L32.9805 24.4103H38.7771Z" stroke="#E9EBF1" stroke-width="1.04333" stroke-linecap="round" stroke-linejoin="round"/>
<path d="M35.8789 14.2656V14.9902" stroke="#E9EBF1" stroke-width="1.04333" stroke-linecap="round" stroke-linejoin="round"/>
<path d="M46.7482 25.1328H46.0234" stroke="#E9EBF1" stroke-width="1.04333" stroke-linecap="round" stroke-linejoin="round"/>
<path d="M25.7359 25.1328H25.0117" stroke="#E9EBF1" stroke-width="1.04333" stroke-linecap="round" stroke-linejoin="round"/>
<path d="M43.5634 17.449L43.0508 17.9609" stroke="#E9EBF1" stroke-width="1.04333" stroke-linecap="round" stroke-linejoin="round"/>
<path d="M28.7038 32.3078L28.1914 32.8203" stroke="#E9EBF1" stroke-width="1.04333" stroke-linecap="round" stroke-linejoin="round"/>
<path d="M43.5634 32.8203L43.0508 32.3078" stroke="#E9EBF1" stroke-width="1.04333" stroke-linecap="round" stroke-linejoin="round"/>
<path d="M28.7038 17.9609L28.1914 17.449" stroke="#E9EBF1" stroke-width="1.04333" stroke-linecap="round" stroke-linejoin="round"/>
<path d="M40.0386 15.0922L39.7617 15.7617" stroke="#E9EBF1" stroke-width="1.04333" stroke-linecap="round" stroke-linejoin="round"/>
<path d="M45.9195 29.291L45.25 29.0134" stroke="#E9EBF1" stroke-width="1.04333" stroke-linecap="round" stroke-linejoin="round"/>
<path d="M26.5055 21.252L25.8359 20.9743" stroke="#E9EBF1" stroke-width="1.04333" stroke-linecap="round" stroke-linejoin="round"/>
<path d="M45.9195 20.9743L45.25 21.252" stroke="#E9EBF1" stroke-width="1.04333" stroke-linecap="round" stroke-linejoin="round"/>
<path d="M26.5055 29.0134L25.8359 29.291" stroke="#E9EBF1" stroke-width="1.04333" stroke-linecap="round" stroke-linejoin="round"/>
<path d="M31.9952 15.7617L31.7188 15.0922" stroke="#E9EBF1" stroke-width="1.04333" stroke-linecap="round" stroke-linejoin="round"/>
<path d="M14.65 54.1152L13.5274 39.6172C13.4547 38.7043 13.6358 37.7914 14.0419 36.973L19.3091 26.3367C19.5699 25.8222 20.2947 25.793 20.5843 26.2931L21.2725 27.4812C22.3522 29.0606 22.2509 30.8358 21.4174 32.7848L18.5845 38.9436C18.2729 39.6244 18.3308 40.4145 18.7441 41.0446L22.207 46.3338" stroke="#E9EBF1" stroke-width="1.04333" stroke-linecap="round" stroke-linejoin="round"/>
<path d="M13.418 57.7383H25.7349V54.1154H13.418V57.7383Z" stroke="#E9EBF1" stroke-width="1.04333" stroke-linecap="round" stroke-linejoin="round"/>
<path d="M20.8594 48.9565C21.3087 48.0799 21.7579 47.2031 22.2069 46.3338C23.4318 43.9358 24.6632 41.5375 25.8948 39.1465C26.1265 38.6827 26.757 38.603 27.0906 39.0014C28.7497 41.0159 28.9236 43.0518 27.6123 45.6164C26.2065 48.3626 25.1123 51.1085 24.7431 54.1152" stroke="#E9EBF1" stroke-width="1.04333" stroke-linecap="round" stroke-linejoin="round"/>
<path d="M49.5508 46.3338L53.0141 41.0446C53.4274 40.4145 53.4852 39.6244 53.1737 38.9436L50.3409 32.7848C49.5077 30.8358 49.406 29.0606 50.4857 27.4812L51.1739 26.2931C51.4639 25.793 52.1885 25.8222 52.4493 26.3367L57.7163 36.973C58.1224 37.7914 58.3035 38.7043 58.2307 39.6172L57.1081 54.1152" stroke="#E9EBF1" stroke-width="1.04333" stroke-linecap="round" stroke-linejoin="round"/>
<path d="M46.0234 57.7383H58.3407V54.1154H46.0234V57.7383Z" stroke="#E9EBF1" stroke-width="1.04333" stroke-linecap="round" stroke-linejoin="round"/>
<path d="M47.0149 54.1152C46.6455 51.1085 45.5516 48.3626 44.1457 45.6164C42.8344 43.0518 43.0082 41.0159 44.6674 39.0014C45.0008 38.603 45.6309 38.6827 45.863 39.1465C47.0946 41.5375 48.3263 43.9358 49.5506 46.3338C49.9999 47.2031 50.4495 48.0799 50.8985 48.9565" stroke="#E9EBF1" stroke-width="1.04333" stroke-linecap="round" stroke-linejoin="round"/>
<defs>
<linearGradient id="paint0_linear_295_58045" x1="27.7773" y1="30.4953" x2="44.6832" y2="30.4953" gradientUnits="userSpaceOnUse">
<stop stop-color="#30C5D2"/>
<stop offset="1" stop-color="#471069"/>
</linearGradient>
</defs>
</svg>
