<svg width="72" height="73" viewBox="0 0 72 73" fill="none" xmlns="http://www.w3.org/2000/svg">
<path fill-rule="evenodd" clip-rule="evenodd" d="M36 0.896484C55.8822 0.896484 72 17.0142 72 36.8965C72 56.7788 55.8822 72.8965 36 72.8965C16.1176 72.8965 0 56.7788 0 36.8965C0 17.0142 16.1176 0.896484 36 0.896484Z" fill="#FFFFFF"/>
<path d="M55.5987 26.3314V54.8145H14.2305L16.265 53.7972L18.9776 48.0328L24.403 50.7454L28.1329 42.6074L35.2537 51.4236L40.34 36.5039L48.1389 41.5902L50.1734 35.8257L53.2252 24.636L55.5987 26.3314Z" fill="url(#paint0_linear_3_43222)"/>
<path d="M15.3514 57.1856C15.3514 56.7865 15.0259 56.461 14.6269 56.461C14.2278 56.461 13.9023 56.7865 13.9023 57.1856C13.9023 57.5847 14.2278 57.9102 14.6269 57.9102C15.0259 57.9102 15.3514 57.5847 15.3514 57.1856Z" fill="#101217"/>
<path d="M18.2499 57.1856C18.2499 56.7865 17.9243 56.461 17.5253 56.461C17.1262 56.461 16.8008 56.7865 16.8008 57.1856C16.8008 57.5847 17.1262 57.9102 17.5253 57.9102C17.9243 57.9102 18.2499 57.5847 18.2499 57.1856Z" fill="#101217"/>
<path d="M21.1483 57.1856C21.1483 56.7865 20.8228 56.461 20.4238 56.461C20.0247 56.461 19.6992 56.7865 19.6992 57.1856C19.6992 57.5847 20.0247 57.9102 20.4238 57.9102C20.8228 57.9102 21.1483 57.5847 21.1483 57.1856Z" fill="#101217"/>
<path d="M24.0467 57.1856C24.0467 56.7865 23.7212 56.461 23.3222 56.461C22.9231 56.461 22.5977 56.7865 22.5977 57.1856C22.5977 57.5847 22.9231 57.9102 23.3222 57.9102C23.7212 57.9102 24.0467 57.5847 24.0467 57.1856Z" fill="#101217"/>
<path d="M26.9453 57.1856C26.9453 56.7865 26.6198 56.461 26.2208 56.461C25.8216 56.461 25.4961 56.7865 25.4961 57.1856C25.4961 57.5847 25.8216 57.9102 26.2208 57.9102C26.6198 57.9102 26.9453 57.5847 26.9453 57.1856Z" fill="#101217"/>
<path d="M29.8438 57.1856C29.8438 56.7865 29.5181 56.461 29.1192 56.461C28.72 56.461 28.3945 56.7865 28.3945 57.1856C28.3945 57.5847 28.72 57.9102 29.1192 57.9102C29.5181 57.9102 29.8438 57.5847 29.8438 57.1856Z" fill="#101217"/>
<path d="M32.7422 57.1856C32.7422 56.7865 32.4166 56.461 32.0175 56.461C31.6185 56.461 31.293 56.7865 31.293 57.1856C31.293 57.5847 31.6185 57.9102 32.0175 57.9102C32.4166 57.9102 32.7422 57.5847 32.7422 57.1856Z" fill="#101217"/>
<path d="M35.6368 57.1856C35.6368 56.7865 35.3111 56.461 34.912 56.461C34.513 56.461 34.1875 56.7865 34.1875 57.1856C34.1875 57.5847 34.513 57.9102 34.912 57.9102C35.3111 57.9102 35.6368 57.5847 35.6368 57.1856Z" fill="#101217"/>
<path d="M38.535 57.1856C38.535 56.7865 38.2096 56.461 37.8105 56.461C37.4115 56.461 37.0859 56.7865 37.0859 57.1856C37.0859 57.5847 37.4115 57.9102 37.8105 57.9102C38.2096 57.9102 38.535 57.5847 38.535 57.1856Z" fill="#101217"/>
<path d="M15.3514 54.2872C15.3514 53.888 15.0259 53.5626 14.6269 53.5626C14.2278 53.5626 13.9023 53.888 13.9023 54.2872C13.9023 54.6863 14.2278 55.0117 14.6269 55.0117C15.0259 55.0117 15.3514 54.6863 15.3514 54.2872Z" fill="#101217"/>
<path d="M18.2499 54.2872C18.2499 53.888 17.9243 53.5626 17.5253 53.5626C17.1262 53.5626 16.8008 53.888 16.8008 54.2872C16.8008 54.6863 17.1262 55.0117 17.5253 55.0117C17.9243 55.0117 18.2499 54.6863 18.2499 54.2872Z" fill="#101217"/>
<path d="M21.1483 54.2872C21.1483 53.888 20.8228 53.5626 20.4238 53.5626C20.0247 53.5626 19.6992 53.888 19.6992 54.2872C19.6992 54.6863 20.0247 55.0117 20.4238 55.0117C20.8228 55.0117 21.1483 54.6863 21.1483 54.2872Z" fill="#101217"/>
<path d="M24.0467 54.2872C24.0467 53.888 23.7212 53.5626 23.3222 53.5626C22.9231 53.5626 22.5977 53.888 22.5977 54.2872C22.5977 54.6863 22.9231 55.0117 23.3222 55.0117C23.7212 55.0117 24.0467 54.6863 24.0467 54.2872Z" fill="#101217"/>
<path d="M26.9453 54.2872C26.9453 53.888 26.6198 53.5626 26.2208 53.5626C25.8216 53.5626 25.4961 53.888 25.4961 54.2872C25.4961 54.6863 25.8216 55.0117 26.2208 55.0117C26.6198 55.0117 26.9453 54.6863 26.9453 54.2872Z" fill="#101217"/>
<path d="M29.8438 54.2872C29.8438 53.888 29.5181 53.5626 29.1192 53.5626C28.72 53.5626 28.3945 53.888 28.3945 54.2872C28.3945 54.6863 28.72 55.0117 29.1192 55.0117C29.5181 55.0117 29.8438 54.6863 29.8438 54.2872Z" fill="#101217"/>
<path d="M32.7422 54.2872C32.7422 53.888 32.4166 53.5626 32.0175 53.5626C31.6185 53.5626 31.293 53.888 31.293 54.2872C31.293 54.6863 31.6185 55.0117 32.0175 55.0117C32.4166 55.0117 32.7422 54.6863 32.7422 54.2872Z" fill="#101217"/>
<path d="M35.6368 54.2872C35.6368 53.888 35.3111 53.5626 34.912 53.5626C34.513 53.5626 34.1875 53.888 34.1875 54.2872C34.1875 54.6863 34.513 55.0117 34.912 55.0117C35.3111 55.0117 35.6368 54.6863 35.6368 54.2872Z" fill="#101217"/>
<path d="M38.535 54.2872C38.535 53.888 38.2096 53.5626 37.8105 53.5626C37.4115 53.5626 37.0859 53.888 37.0859 54.2872C37.0859 54.6863 37.4115 55.0117 37.8105 55.0117C38.2096 55.0117 38.535 54.6863 38.535 54.2872Z" fill="#101217"/>
<path d="M18.2499 51.3887C18.2499 50.9897 17.9243 50.6642 17.5253 50.6642C17.1262 50.6642 16.8008 50.9897 16.8008 51.3887C16.8008 51.7878 17.1262 52.1133 17.5253 52.1133C17.9243 52.1133 18.2499 51.7878 18.2499 51.3887Z" fill="#101217"/>
<path d="M21.1483 51.3887C21.1483 50.9897 20.8228 50.6642 20.4238 50.6642C20.0247 50.6642 19.6992 50.9897 19.6992 51.3887C19.6992 51.7878 20.0247 52.1133 20.4238 52.1133C20.8228 52.1133 21.1483 51.7878 21.1483 51.3887Z" fill="#101217"/>
<path d="M24.0467 51.3887C24.0467 50.9897 23.7212 50.6642 23.3222 50.6642C22.9231 50.6642 22.5977 50.9897 22.5977 51.3887C22.5977 51.7878 22.9231 52.1133 23.3222 52.1133C23.7212 52.1133 24.0467 51.7878 24.0467 51.3887Z" fill="#101217"/>
<path d="M26.9453 51.3887C26.9453 50.9897 26.6198 50.6642 26.2208 50.6642C25.8216 50.6642 25.4961 50.9897 25.4961 51.3887C25.4961 51.7878 25.8216 52.1133 26.2208 52.1133C26.6198 52.1133 26.9453 51.7878 26.9453 51.3887Z" fill="#101217"/>
<path d="M29.8438 51.3887C29.8438 50.9897 29.5181 50.6642 29.1192 50.6642C28.72 50.6642 28.3945 50.9897 28.3945 51.3887C28.3945 51.7878 28.72 52.1133 29.1192 52.1133C29.5181 52.1133 29.8438 51.7878 29.8438 51.3887Z" fill="#101217"/>
<path d="M32.7422 51.3887C32.7422 50.9897 32.4166 50.6642 32.0175 50.6642C31.6185 50.6642 31.293 50.9897 31.293 51.3887C31.293 51.7878 31.6185 52.1133 32.0175 52.1133C32.4166 52.1133 32.7422 51.7878 32.7422 51.3887Z" fill="#101217"/>
<path d="M35.6368 51.3887C35.6368 50.9897 35.3111 50.6642 34.912 50.6642C34.513 50.6642 34.1875 50.9897 34.1875 51.3887C34.1875 51.7878 34.513 52.1133 34.912 52.1133C35.3111 52.1133 35.6368 51.7878 35.6368 51.3887Z" fill="#101217"/>
<path d="M38.535 51.3887C38.535 50.9897 38.2096 50.6642 37.8105 50.6642C37.4115 50.6642 37.0859 50.9897 37.0859 51.3887C37.0859 51.7878 37.4115 52.1133 37.8105 52.1133C38.2096 52.1133 38.535 51.7878 38.535 51.3887Z" fill="#101217"/>
<path d="M21.1483 48.4903C21.1483 48.0913 20.8228 47.7658 20.4238 47.7658C20.0247 47.7658 19.6992 48.0913 19.6992 48.4903C19.6992 48.8895 20.0247 49.2148 20.4238 49.2148C20.8228 49.2148 21.1483 48.8895 21.1483 48.4903Z" fill="#101217"/>
<path d="M24.0467 48.4903C24.0467 48.0913 23.7212 47.7658 23.3222 47.7658C22.9231 47.7658 22.5977 48.0913 22.5977 48.4903C22.5977 48.8895 22.9231 49.2148 23.3222 49.2148C23.7212 49.2148 24.0467 48.8895 24.0467 48.4903Z" fill="#101217"/>
<path d="M26.9453 48.4903C26.9453 48.0913 26.6198 47.7658 26.2208 47.7658C25.8216 47.7658 25.4961 48.0913 25.4961 48.4903C25.4961 48.8895 25.8216 49.2148 26.2208 49.2148C26.6198 49.2148 26.9453 48.8895 26.9453 48.4903Z" fill="#101217"/>
<path d="M29.8438 48.4903C29.8438 48.0913 29.5181 47.7658 29.1192 47.7658C28.72 47.7658 28.3945 48.0913 28.3945 48.4903C28.3945 48.8895 28.72 49.2148 29.1192 49.2148C29.5181 49.2148 29.8438 48.8895 29.8438 48.4903Z" fill="#101217"/>
<path d="M32.7422 48.4903C32.7422 48.0913 32.4166 47.7658 32.0175 47.7658C31.6185 47.7658 31.293 48.0913 31.293 48.4903C31.293 48.8895 31.6185 49.2148 32.0175 49.2148C32.4166 49.2148 32.7422 48.8895 32.7422 48.4903Z" fill="#101217"/>
<path d="M35.6368 48.4903C35.6368 48.0913 35.3111 47.7658 34.912 47.7658C34.513 47.7658 34.1875 48.0913 34.1875 48.4903C34.1875 48.8895 34.513 49.2148 34.912 49.2148C35.3111 49.2148 35.6368 48.8895 35.6368 48.4903Z" fill="#101217"/>
<path d="M38.535 48.4903C38.535 48.0913 38.2096 47.7658 37.8105 47.7658C37.4115 47.7658 37.0859 48.0913 37.0859 48.4903C37.0859 48.8895 37.4115 49.2148 37.8105 49.2148C38.2096 49.2148 38.535 48.8895 38.535 48.4903Z" fill="#101217"/>
<path d="M26.9453 45.5918C26.9453 45.1928 26.6198 44.8672 26.2208 44.8672C25.8216 44.8672 25.4961 45.1928 25.4961 45.5918C25.4961 45.9909 25.8216 46.3164 26.2208 46.3164C26.6198 46.3164 26.9453 45.9909 26.9453 45.5918Z" fill="#101217"/>
<path d="M29.8438 45.5918C29.8438 45.1928 29.5181 44.8672 29.1192 44.8672C28.72 44.8672 28.3945 45.1928 28.3945 45.5918C28.3945 45.9909 28.72 46.3164 29.1192 46.3164C29.5181 46.3164 29.8438 45.9909 29.8438 45.5918Z" fill="#101217"/>
<path d="M32.7422 45.5918C32.7422 45.1928 32.4166 44.8672 32.0175 44.8672C31.6185 44.8672 31.293 45.1928 31.293 45.5918C31.293 45.9909 31.6185 46.3164 32.0175 46.3164C32.4166 46.3164 32.7422 45.9909 32.7422 45.5918Z" fill="#101217"/>
<path d="M35.6368 45.5918C35.6368 45.1928 35.3111 44.8672 34.912 44.8672C34.513 44.8672 34.1875 45.1928 34.1875 45.5918C34.1875 45.9909 34.513 46.3164 34.912 46.3164C35.3111 46.3164 35.6368 45.9909 35.6368 45.5918Z" fill="#101217"/>
<path d="M38.535 45.5918C38.535 45.1928 38.2096 44.8672 37.8105 44.8672C37.4115 44.8672 37.0859 45.1928 37.0859 45.5918C37.0859 45.9909 37.4115 46.3164 37.8105 46.3164C38.2096 46.3164 38.535 45.9909 38.535 45.5918Z" fill="#101217"/>
<path d="M29.8438 42.6954C29.8438 42.2963 29.5181 41.9708 29.1192 41.9708C28.72 41.9708 28.3945 42.2963 28.3945 42.6954C28.3945 43.0944 28.72 43.4199 29.1192 43.4199C29.5181 43.4199 29.8438 43.0944 29.8438 42.6954Z" fill="#101217"/>
<path d="M32.7422 42.6954C32.7422 42.2963 32.4166 41.9708 32.0175 41.9708C31.6185 41.9708 31.293 42.2963 31.293 42.6954C31.293 43.0944 31.6185 43.4199 32.0175 43.4199C32.4166 43.4199 32.7422 43.0944 32.7422 42.6954Z" fill="#101217"/>
<path d="M38.535 42.6954C38.535 42.2963 38.2096 41.9708 37.8105 41.9708C37.4115 41.9708 37.0859 42.2963 37.0859 42.6954C37.0859 43.0944 37.4115 43.4199 37.8105 43.4199C38.2096 43.4199 38.535 43.0944 38.535 42.6954Z" fill="#101217"/>
<path d="M41.4335 57.1856C41.4335 56.7865 41.1079 56.461 40.7089 56.461C40.3098 56.461 39.9844 56.7865 39.9844 57.1856C39.9844 57.5847 40.3098 57.9102 40.7089 57.9102C41.1079 57.9102 41.4335 57.5847 41.4335 57.1856Z" fill="#101217"/>
<path d="M44.3319 57.1856C44.3319 56.7865 44.0064 56.461 43.6074 56.461C43.2083 56.461 42.8828 56.7865 42.8828 57.1856C42.8828 57.5847 43.2083 57.9102 43.6074 57.9102C44.0064 57.9102 44.3319 57.5847 44.3319 57.1856Z" fill="#101217"/>
<path d="M47.2303 57.1856C47.2303 56.7865 46.9048 56.461 46.5058 56.461C46.1067 56.461 45.7812 56.7865 45.7812 57.1856C45.7812 57.5847 46.1067 57.9102 46.5058 57.9102C46.9048 57.9102 47.2303 57.5847 47.2303 57.1856Z" fill="#101217"/>
<path d="M50.1288 57.1856C50.1288 56.7865 49.8032 56.461 49.4042 56.461C49.0052 56.461 48.6797 56.7865 48.6797 57.1856C48.6797 57.5847 49.0052 57.9102 49.4042 57.9102C49.8032 57.9102 50.1288 57.5847 50.1288 57.1856Z" fill="#101217"/>
<path d="M53.0274 57.1856C53.0274 56.7865 52.7018 56.461 52.3028 56.461C51.9036 56.461 51.5781 56.7865 51.5781 57.1856C51.5781 57.5847 51.9036 57.9102 52.3028 57.9102C52.7018 57.9102 53.0274 57.5847 53.0274 57.1856Z" fill="#101217"/>
<path d="M55.9258 57.1856C55.9258 56.7865 55.6001 56.461 55.2013 56.461C54.8021 56.461 54.4766 56.7865 54.4766 57.1856C54.4766 57.5847 54.8021 57.9102 55.2013 57.9102C55.6001 57.9102 55.9258 57.5847 55.9258 57.1856Z" fill="#101217"/>
<path d="M58.8243 57.1856C58.8243 56.7865 58.4986 56.461 58.0995 56.461C57.7005 56.461 57.375 56.7865 57.375 57.1856C57.375 57.5847 57.7005 57.9102 58.0995 57.9102C58.4986 57.9102 58.8243 57.5847 58.8243 57.1856Z" fill="#101217"/>
<path d="M41.4335 54.2872C41.4335 53.888 41.1079 53.5626 40.7089 53.5626C40.3098 53.5626 39.9844 53.888 39.9844 54.2872C39.9844 54.6863 40.3098 55.0117 40.7089 55.0117C41.1079 55.0117 41.4335 54.6863 41.4335 54.2872Z" fill="#101217"/>
<path d="M44.3319 54.2872C44.3319 53.888 44.0064 53.5626 43.6074 53.5626C43.2083 53.5626 42.8828 53.888 42.8828 54.2872C42.8828 54.6863 43.2083 55.0117 43.6074 55.0117C44.0064 55.0117 44.3319 54.6863 44.3319 54.2872Z" fill="#101217"/>
<path d="M47.2303 54.2872C47.2303 53.888 46.9048 53.5626 46.5058 53.5626C46.1067 53.5626 45.7812 53.888 45.7812 54.2872C45.7812 54.6863 46.1067 55.0117 46.5058 55.0117C46.9048 55.0117 47.2303 54.6863 47.2303 54.2872Z" fill="#101217"/>
<path d="M50.1288 54.2872C50.1288 53.888 49.8032 53.5626 49.4042 53.5626C49.0052 53.5626 48.6797 53.888 48.6797 54.2872C48.6797 54.6863 49.0052 55.0117 49.4042 55.0117C49.8032 55.0117 50.1288 54.6863 50.1288 54.2872Z" fill="#101217"/>
<path d="M53.0274 54.2872C53.0274 53.888 52.7018 53.5626 52.3028 53.5626C51.9036 53.5626 51.5781 53.888 51.5781 54.2872C51.5781 54.6863 51.9036 55.0117 52.3028 55.0117C52.7018 55.0117 53.0274 54.6863 53.0274 54.2872Z" fill="#101217"/>
<path d="M55.9258 54.2872C55.9258 53.888 55.6001 53.5626 55.2013 53.5626C54.8021 53.5626 54.4766 53.888 54.4766 54.2872C54.4766 54.6863 54.8021 55.0117 55.2013 55.0117C55.6001 55.0117 55.9258 54.6863 55.9258 54.2872Z" fill="#101217"/>
<path d="M58.8243 54.2872C58.8243 53.888 58.4986 53.5626 58.0995 53.5626C57.7005 53.5626 57.375 53.888 57.375 54.2872C57.375 54.6863 57.7005 55.0117 58.0995 55.0117C58.4986 55.0117 58.8243 54.6863 58.8243 54.2872Z" fill="#101217"/>
<path d="M41.4335 51.3887C41.4335 50.9897 41.1079 50.6642 40.7089 50.6642C40.3098 50.6642 39.9844 50.9897 39.9844 51.3887C39.9844 51.7878 40.3098 52.1133 40.7089 52.1133C41.1079 52.1133 41.4335 51.7878 41.4335 51.3887Z" fill="#101217"/>
<path d="M44.3319 51.3887C44.3319 50.9897 44.0064 50.6642 43.6074 50.6642C43.2083 50.6642 42.8828 50.9897 42.8828 51.3887C42.8828 51.7878 43.2083 52.1133 43.6074 52.1133C44.0064 52.1133 44.3319 51.7878 44.3319 51.3887Z" fill="#101217"/>
<path d="M47.2303 51.3887C47.2303 50.9897 46.9048 50.6642 46.5058 50.6642C46.1067 50.6642 45.7812 50.9897 45.7812 51.3887C45.7812 51.7878 46.1067 52.1133 46.5058 52.1133C46.9048 52.1133 47.2303 51.7878 47.2303 51.3887Z" fill="#101217"/>
<path d="M50.1288 51.3887C50.1288 50.9897 49.8032 50.6642 49.4042 50.6642C49.0052 50.6642 48.6797 50.9897 48.6797 51.3887C48.6797 51.7878 49.0052 52.1133 49.4042 52.1133C49.8032 52.1133 50.1288 51.7878 50.1288 51.3887Z" fill="#101217"/>
<path d="M53.0274 51.3887C53.0274 50.9897 52.7018 50.6642 52.3028 50.6642C51.9036 50.6642 51.5781 50.9897 51.5781 51.3887C51.5781 51.7878 51.9036 52.1133 52.3028 52.1133C52.7018 52.1133 53.0274 51.7878 53.0274 51.3887Z" fill="#101217"/>
<path d="M55.9258 51.3887C55.9258 50.9897 55.6001 50.6642 55.2013 50.6642C54.8021 50.6642 54.4766 50.9897 54.4766 51.3887C54.4766 51.7878 54.8021 52.1133 55.2013 52.1133C55.6001 52.1133 55.9258 51.7878 55.9258 51.3887Z" fill="#101217"/>
<path d="M58.8243 51.3887C58.8243 50.9897 58.4986 50.6642 58.0995 50.6642C57.7005 50.6642 57.375 50.9897 57.375 51.3887C57.375 51.7878 57.7005 52.1133 58.0995 52.1133C58.4986 52.1133 58.8243 51.7878 58.8243 51.3887Z" fill="#101217"/>
<path d="M41.4335 48.4903C41.4335 48.0913 41.1079 47.7658 40.7089 47.7658C40.3098 47.7658 39.9844 48.0913 39.9844 48.4903C39.9844 48.8895 40.3098 49.2148 40.7089 49.2148C41.1079 49.2148 41.4335 48.8895 41.4335 48.4903Z" fill="#101217"/>
<path d="M44.3319 48.4903C44.3319 48.0913 44.0064 47.7658 43.6074 47.7658C43.2083 47.7658 42.8828 48.0913 42.8828 48.4903C42.8828 48.8895 43.2083 49.2148 43.6074 49.2148C44.0064 49.2148 44.3319 48.8895 44.3319 48.4903Z" fill="#101217"/>
<path d="M47.2303 48.4903C47.2303 48.0913 46.9048 47.7658 46.5058 47.7658C46.1067 47.7658 45.7812 48.0913 45.7812 48.4903C45.7812 48.8895 46.1067 49.2148 46.5058 49.2148C46.9048 49.2148 47.2303 48.8895 47.2303 48.4903Z" fill="#101217"/>
<path d="M50.1288 48.4903C50.1288 48.0913 49.8032 47.7658 49.4042 47.7658C49.0052 47.7658 48.6797 48.0913 48.6797 48.4903C48.6797 48.8895 49.0052 49.2148 49.4042 49.2148C49.8032 49.2148 50.1288 48.8895 50.1288 48.4903Z" fill="#101217"/>
<path d="M53.0274 48.4903C53.0274 48.0913 52.7018 47.7658 52.3028 47.7658C51.9036 47.7658 51.5781 48.0913 51.5781 48.4903C51.5781 48.8895 51.9036 49.2148 52.3028 49.2148C52.7018 49.2148 53.0274 48.8895 53.0274 48.4903Z" fill="#101217"/>
<path d="M55.9258 48.4903C55.9258 48.0913 55.6001 47.7658 55.2013 47.7658C54.8021 47.7658 54.4766 48.0913 54.4766 48.4903C54.4766 48.8895 54.8021 49.2148 55.2013 49.2148C55.6001 49.2148 55.9258 48.8895 55.9258 48.4903Z" fill="#101217"/>
<path d="M58.8243 48.4903C58.8243 48.0913 58.4986 47.7658 58.0995 47.7658C57.7005 47.7658 57.375 48.0913 57.375 48.4903C57.375 48.8895 57.7005 49.2148 58.0995 49.2148C58.4986 49.2148 58.8243 48.8895 58.8243 48.4903Z" fill="#101217"/>
<path d="M41.4335 45.5918C41.4335 45.1928 41.1079 44.8672 40.7089 44.8672C40.3098 44.8672 39.9844 45.1928 39.9844 45.5918C39.9844 45.9909 40.3098 46.3164 40.7089 46.3164C41.1079 46.3164 41.4335 45.9909 41.4335 45.5918Z" fill="#101217"/>
<path d="M44.3319 45.5918C44.3319 45.1928 44.0064 44.8672 43.6074 44.8672C43.2083 44.8672 42.8828 45.1928 42.8828 45.5918C42.8828 45.9909 43.2083 46.3164 43.6074 46.3164C44.0064 46.3164 44.3319 45.9909 44.3319 45.5918Z" fill="#101217"/>
<path d="M47.2303 45.5918C47.2303 45.1928 46.9048 44.8672 46.5058 44.8672C46.1067 44.8672 45.7812 45.1928 45.7812 45.5918C45.7812 45.9909 46.1067 46.3164 46.5058 46.3164C46.9048 46.3164 47.2303 45.9909 47.2303 45.5918Z" fill="#101217"/>
<path d="M50.1288 45.5918C50.1288 45.1928 49.8032 44.8672 49.4042 44.8672C49.0052 44.8672 48.6797 45.1928 48.6797 45.5918C48.6797 45.9909 49.0052 46.3164 49.4042 46.3164C49.8032 46.3164 50.1288 45.9909 50.1288 45.5918Z" fill="#101217"/>
<path d="M53.0274 45.5918C53.0274 45.1928 52.7018 44.8672 52.3028 44.8672C51.9036 44.8672 51.5781 45.1928 51.5781 45.5918C51.5781 45.9909 51.9036 46.3164 52.3028 46.3164C52.7018 46.3164 53.0274 45.9909 53.0274 45.5918Z" fill="#101217"/>
<path d="M55.9258 45.5918C55.9258 45.1928 55.6001 44.8672 55.2013 44.8672C54.8021 44.8672 54.4766 45.1928 54.4766 45.5918C54.4766 45.9909 54.8021 46.3164 55.2013 46.3164C55.6001 46.3164 55.9258 45.9909 55.9258 45.5918Z" fill="#101217"/>
<path d="M58.8243 45.5918C58.8243 45.1928 58.4986 44.8672 58.0995 44.8672C57.7005 44.8672 57.375 45.1928 57.375 45.5918C57.375 45.9909 57.7005 46.3164 58.0995 46.3164C58.4986 46.3164 58.8243 45.9909 58.8243 45.5918Z" fill="#101217"/>
<path d="M41.4335 42.6954C41.4335 42.2963 41.1079 41.9708 40.7089 41.9708C40.3098 41.9708 39.9844 42.2963 39.9844 42.6954C39.9844 43.0944 40.3098 43.4199 40.7089 43.4199C41.1079 43.4199 41.4335 43.0944 41.4335 42.6954Z" fill="#101217"/>
<path d="M44.3319 42.6954C44.3319 42.2963 44.0064 41.9708 43.6074 41.9708C43.2083 41.9708 42.8828 42.2963 42.8828 42.6954C42.8828 43.0944 43.2083 43.4199 43.6074 43.4199C44.0064 43.4199 44.3319 43.0944 44.3319 42.6954Z" fill="#101217"/>
<path d="M47.2303 42.6954C47.2303 42.2963 46.9048 41.9708 46.5058 41.9708C46.1067 41.9708 45.7812 42.2963 45.7812 42.6954C45.7812 43.0944 46.1067 43.4199 46.5058 43.4199C46.9048 43.4199 47.2303 43.0944 47.2303 42.6954Z" fill="#101217"/>
<path d="M50.1288 42.6954C50.1288 42.2963 49.8032 41.9708 49.4042 41.9708C49.0052 41.9708 48.6797 42.2963 48.6797 42.6954C48.6797 43.0944 49.0052 43.4199 49.4042 43.4199C49.8032 43.4199 50.1288 43.0944 50.1288 42.6954Z" fill="#101217"/>
<path d="M53.0274 42.6954C53.0274 42.2963 52.7018 41.9708 52.3028 41.9708C51.9036 41.9708 51.5781 42.2963 51.5781 42.6954C51.5781 43.0944 51.9036 43.4199 52.3028 43.4199C52.7018 43.4199 53.0274 43.0944 53.0274 42.6954Z" fill="#101217"/>
<path d="M55.9258 42.6954C55.9258 42.2963 55.6001 41.9708 55.2013 41.9708C54.8021 41.9708 54.4766 42.2963 54.4766 42.6954C54.4766 43.0944 54.8021 43.4199 55.2013 43.4199C55.6001 43.4199 55.9258 43.0944 55.9258 42.6954Z" fill="#101217"/>
<path d="M58.8243 42.6954C58.8243 42.2963 58.4986 41.9708 58.0995 41.9708C57.7005 41.9708 57.375 42.2963 57.375 42.6954C57.375 43.0944 57.7005 43.4199 58.0995 43.4199C58.4986 43.4199 58.8243 43.0944 58.8243 42.6954Z" fill="#101217"/>
<path d="M29.8438 39.7969C29.8438 39.3978 29.5181 39.0722 29.1192 39.0722C28.72 39.0722 28.3945 39.3978 28.3945 39.7969C28.3945 40.1959 28.72 40.5215 29.1192 40.5215C29.5181 40.5215 29.8438 40.1959 29.8438 39.7969Z" fill="#101217"/>
<path d="M41.4335 39.7969C41.4335 39.3978 41.1079 39.0722 40.7089 39.0722C40.3098 39.0722 39.9844 39.3978 39.9844 39.7969C39.9844 40.1959 40.3098 40.5215 40.7089 40.5215C41.1079 40.5215 41.4335 40.1959 41.4335 39.7969Z" fill="#101217"/>
<path d="M44.3319 39.7969C44.3319 39.3978 44.0064 39.0722 43.6074 39.0722C43.2083 39.0722 42.8828 39.3978 42.8828 39.7969C42.8828 40.1959 43.2083 40.5215 43.6074 40.5215C44.0064 40.5215 44.3319 40.1959 44.3319 39.7969Z" fill="#101217"/>
<path d="M47.2303 39.7969C47.2303 39.3978 46.9048 39.0722 46.5058 39.0722C46.1067 39.0722 45.7812 39.3978 45.7812 39.7969C45.7812 40.1959 46.1067 40.5215 46.5058 40.5215C46.9048 40.5215 47.2303 40.1959 47.2303 39.7969Z" fill="#101217"/>
<path d="M50.1288 39.7969C50.1288 39.3978 49.8032 39.0722 49.4042 39.0722C49.0052 39.0722 48.6797 39.3978 48.6797 39.7969C48.6797 40.1959 49.0052 40.5215 49.4042 40.5215C49.8032 40.5215 50.1288 40.1959 50.1288 39.7969Z" fill="#101217"/>
<path d="M53.0274 39.7969C53.0274 39.3978 52.7018 39.0722 52.3028 39.0722C51.9036 39.0722 51.5781 39.3978 51.5781 39.7969C51.5781 40.1959 51.9036 40.5215 52.3028 40.5215C52.7018 40.5215 53.0274 40.1959 53.0274 39.7969Z" fill="#101217"/>
<path d="M55.9258 39.7969C55.9258 39.3978 55.6001 39.0722 55.2013 39.0722C54.8021 39.0722 54.4766 39.3978 54.4766 39.7969C54.4766 40.1959 54.8021 40.5215 55.2013 40.5215C55.6001 40.5215 55.9258 40.1959 55.9258 39.7969Z" fill="#101217"/>
<path d="M58.8243 39.7969C58.8243 39.3978 58.4986 39.0722 58.0995 39.0722C57.7005 39.0722 57.375 39.3978 57.375 39.7969C57.375 40.1959 57.7005 40.5215 58.0995 40.5215C58.4986 40.5215 58.8243 40.1959 58.8243 39.7969Z" fill="#101217"/>
<path d="M41.4335 36.8984C41.4335 36.4993 41.1079 36.1739 40.7089 36.1739C40.3098 36.1739 39.9844 36.4993 39.9844 36.8984C39.9844 37.2975 40.3098 37.623 40.7089 37.623C41.1079 37.623 41.4335 37.2975 41.4335 36.8984Z" fill="#101217"/>
<path d="M44.3319 36.8984C44.3319 36.4993 44.0064 36.1739 43.6074 36.1739C43.2083 36.1739 42.8828 36.4993 42.8828 36.8984C42.8828 37.2975 43.2083 37.623 43.6074 37.623C44.0064 37.623 44.3319 37.2975 44.3319 36.8984Z" fill="#101217"/>
<path d="M47.2303 36.8984C47.2303 36.4993 46.9048 36.1739 46.5058 36.1739C46.1067 36.1739 45.7812 36.4993 45.7812 36.8984C45.7812 37.2975 46.1067 37.623 46.5058 37.623C46.9048 37.623 47.2303 37.2975 47.2303 36.8984Z" fill="#101217"/>
<path d="M50.1288 36.8984C50.1288 36.4993 49.8032 36.1739 49.4042 36.1739C49.0052 36.1739 48.6797 36.4993 48.6797 36.8984C48.6797 37.2975 49.0052 37.623 49.4042 37.623C49.8032 37.623 50.1288 37.2975 50.1288 36.8984Z" fill="#101217"/>
<path d="M53.0274 36.8984C53.0274 36.4993 52.7018 36.1739 52.3028 36.1739C51.9036 36.1739 51.5781 36.4993 51.5781 36.8984C51.5781 37.2975 51.9036 37.623 52.3028 37.623C52.7018 37.623 53.0274 37.2975 53.0274 36.8984Z" fill="#101217"/>
<path d="M55.9258 36.8984C55.9258 36.4993 55.6001 36.1739 55.2013 36.1739C54.8021 36.1739 54.4766 36.4993 54.4766 36.8984C54.4766 37.2975 54.8021 37.623 55.2013 37.623C55.6001 37.623 55.9258 37.2975 55.9258 36.8984Z" fill="#101217"/>
<path d="M58.8243 36.8984C58.8243 36.4993 58.4986 36.1739 58.0995 36.1739C57.7005 36.1739 57.375 36.4993 57.375 36.8984C57.375 37.2975 57.7005 37.623 58.0995 37.623C58.4986 37.623 58.8243 37.2975 58.8243 36.8984Z" fill="#101217"/>
<path d="M50.1288 34.0001C50.1288 33.6009 49.8032 33.2754 49.4042 33.2754C49.0052 33.2754 48.6797 33.6009 48.6797 34.0001C48.6797 34.3991 49.0052 34.7246 49.4042 34.7246C49.8032 34.7246 50.1288 34.3991 50.1288 34.0001Z" fill="#101217"/>
<path d="M53.0274 34.0001C53.0274 33.6009 52.7018 33.2754 52.3028 33.2754C51.9036 33.2754 51.5781 33.6009 51.5781 34.0001C51.5781 34.3991 51.9036 34.7246 52.3028 34.7246C52.7018 34.7246 53.0274 34.3991 53.0274 34.0001Z" fill="#101217"/>
<path d="M55.9258 34.0001C55.9258 33.6009 55.6001 33.2754 55.2013 33.2754C54.8021 33.2754 54.4766 33.6009 54.4766 34.0001C54.4766 34.3991 54.8021 34.7246 55.2013 34.7246C55.6001 34.7246 55.9258 34.3991 55.9258 34.0001Z" fill="#101217"/>
<path d="M58.8243 34.0001C58.8243 33.6009 58.4986 33.2754 58.0995 33.2754C57.7005 33.2754 57.375 33.6009 57.375 34.0001C57.375 34.3991 57.7005 34.7246 58.0995 34.7246C58.4986 34.7246 58.8243 34.3991 58.8243 34.0001Z" fill="#101217"/>
<path d="M53.0274 31.1016C53.0274 30.7025 52.7018 30.377 52.3028 30.377C51.9036 30.377 51.5781 30.7025 51.5781 31.1016C51.5781 31.5007 51.9036 31.8262 52.3028 31.8262C52.7018 31.8262 53.0274 31.5007 53.0274 31.1016Z" fill="#101217"/>
<path d="M55.9258 31.1016C55.9258 30.7025 55.6001 30.377 55.2013 30.377C54.8021 30.377 54.4766 30.7025 54.4766 31.1016C54.4766 31.5007 54.8021 31.8262 55.2013 31.8262C55.6001 31.8262 55.9258 31.5007 55.9258 31.1016Z" fill="#101217"/>
<path d="M58.8243 31.1016C58.8243 30.7025 58.4986 30.377 58.0995 30.377C57.7005 30.377 57.375 30.7025 57.375 31.1016C57.375 31.5007 57.7005 31.8262 58.0995 31.8262C58.4986 31.8262 58.8243 31.5007 58.8243 31.1016Z" fill="#101217"/>
<path d="M53.0274 28.2032C53.0274 27.804 52.7018 27.4787 52.3028 27.4787C51.9036 27.4787 51.5781 27.804 51.5781 28.2032C51.5781 28.6023 51.9036 28.9277 52.3028 28.9277C52.7018 28.9277 53.0274 28.6023 53.0274 28.2032Z" fill="#101217"/>
<path d="M55.9258 28.2032C55.9258 27.804 55.6001 27.4787 55.2013 27.4787C54.8021 27.4787 54.4766 27.804 54.4766 28.2032C54.4766 28.6023 54.8021 28.9277 55.2013 28.9277C55.6001 28.9277 55.9258 28.6023 55.9258 28.2032Z" fill="#101217"/>
<path d="M58.8243 28.2032C58.8243 27.804 58.4986 27.4787 58.0995 27.4787C57.7005 27.4787 57.375 27.804 57.375 28.2032C57.375 28.6023 57.7005 28.9277 58.0995 28.9277C58.4986 28.9277 58.8243 28.6023 58.8243 28.2032Z" fill="#101217"/>
<path d="M53.0274 25.3048C53.0274 24.9058 52.7018 24.5802 52.3028 24.5802C51.9036 24.5802 51.5781 24.9058 51.5781 25.3048C51.5781 25.7038 51.9036 26.0293 52.3028 26.0293C52.7018 26.0293 53.0274 25.7038 53.0274 25.3048Z" fill="#101217"/>
<path d="M55.9258 25.3048C55.9258 24.9058 55.6001 24.5802 55.2013 24.5802C54.8021 24.5802 54.4766 24.9058 54.4766 25.3048C54.4766 25.7038 54.8021 26.0293 55.2013 26.0293C55.6001 26.0293 55.9258 25.7038 55.9258 25.3048Z" fill="#101217"/>
<path d="M58.8243 25.3048C58.8243 24.9058 58.4986 24.5802 58.0995 24.5802C57.7005 24.5802 57.375 24.9058 57.375 25.3048C57.375 25.7038 57.7005 26.0293 58.0995 26.0293C58.4986 26.0293 58.8243 25.7038 58.8243 25.3048Z" fill="#101217"/>
<path d="M55.9258 22.4083C55.9258 22.0093 55.6001 21.6837 55.2013 21.6837C54.8021 21.6837 54.4766 22.0093 54.4766 22.4083C54.4766 22.8074 54.8021 23.1328 55.2013 23.1328C55.6001 23.1328 55.9258 22.8074 55.9258 22.4083Z" fill="#101217"/>
<path d="M58.0972 19.5088L52.3009 16.6106L46.5047 33.9996L39.2591 29.6523L34.9119 42.694L28.3911 33.9996L23.3195 45.5922L17.5232 42.694L14.625 51.3887" stroke="#101217" stroke-width="1.04334" stroke-linecap="round" stroke-linejoin="round"/>
<path d="M41.4335 34.0001C41.4335 33.6009 41.1079 33.2754 40.7089 33.2754C40.3098 33.2754 39.9844 33.6009 39.9844 34.0001C39.9844 34.3991 40.3098 34.7246 40.7089 34.7246C41.1079 34.7246 41.4335 34.3991 41.4335 34.0001Z" fill="#101217"/>
<path d="M14.625 51.3887L17.5232 42.694L23.3195 45.5922L28.3911 33.9996L34.9119 42.694L39.2591 29.6523L46.5047 33.9996L51.3373 19.5088L52.3009 16.6106L58.0972 19.5088" stroke="#101217" stroke-width="1.04334" stroke-linecap="round" stroke-linejoin="round"/>
<defs>
<linearGradient id="paint0_linear_3_43222" x1="14.2305" y1="39.7252" x2="55.5987" y2="39.7252" gradientUnits="userSpaceOnUse">
<stop stop-color="#30C5D2"/>
<stop offset="1" stop-color="#C9BFD6"/>
</linearGradient>
</defs>
</svg>
