<svg width="373" height="217" viewBox="0 0 373 217" fill="none" xmlns="http://www.w3.org/2000/svg">
<g clip-path="url(#clip0_2851_18003)">
<path d="M373 0H0V217H373V0Z" fill="#282A2F"/>
<g opacity="0.05">
<path d="M23 20C23 17.7909 21.2091 16 19 16C16.7909 16 15 17.7909 15 20C15 22.2091 16.7909 24 19 24C21.2091 24 23 22.2091 23 20Z" fill="#F2F4F7"/>
<path d="M47 20C47 17.7909 45.2091 16 43 16C40.7909 16 39 17.7909 39 20C39 22.2091 40.7909 24 43 24C45.2091 24 47 22.2091 47 20Z" fill="#F2F4F7"/>
<path d="M71 20C71 17.7909 69.2091 16 67 16C64.7909 16 63 17.7909 63 20C63 22.2091 64.7909 24 67 24C69.2091 24 71 22.2091 71 20Z" fill="#F2F4F7"/>
<path d="M95 20C95 17.7909 93.2091 16 91 16C88.7909 16 87 17.7909 87 20C87 22.2091 88.7909 24 91 24C93.2091 24 95 22.2091 95 20Z" fill="#F2F4F7"/>
<path d="M119 20C119 17.7909 117.209 16 115 16C112.791 16 111 17.7909 111 20C111 22.2091 112.791 24 115 24C117.209 24 119 22.2091 119 20Z" fill="#F2F4F7"/>
<path d="M143 20C143 17.7909 141.209 16 139 16C136.791 16 135 17.7909 135 20C135 22.2091 136.791 24 139 24C141.209 24 143 22.2091 143 20Z" fill="#F2F4F7"/>
<path d="M167 20C167 17.7909 165.209 16 163 16C160.791 16 159 17.7909 159 20C159 22.2091 160.791 24 163 24C165.209 24 167 22.2091 167 20Z" fill="#F2F4F7"/>
<path d="M191 20C191 17.7909 189.209 16 187 16C184.791 16 183 17.7909 183 20C183 22.2091 184.791 24 187 24C189.209 24 191 22.2091 191 20Z" fill="#F2F4F7"/>
<path d="M215 20C215 17.7909 213.209 16 211 16C208.791 16 207 17.7909 207 20C207 22.2091 208.791 24 211 24C213.209 24 215 22.2091 215 20Z" fill="#F2F4F7"/>
<path d="M239 20C239 17.7909 237.209 16 235 16C232.791 16 231 17.7909 231 20C231 22.2091 232.791 24 235 24C237.209 24 239 22.2091 239 20Z" fill="#F2F4F7"/>
<path d="M263 20C263 17.7909 261.209 16 259 16C256.791 16 255 17.7909 255 20C255 22.2091 256.791 24 259 24C261.209 24 263 22.2091 263 20Z" fill="#F2F4F7"/>
<path d="M287 20C287 17.7909 285.209 16 283 16C280.791 16 279 17.7909 279 20C279 22.2091 280.791 24 283 24C285.209 24 287 22.2091 287 20Z" fill="#F2F4F7"/>
<path d="M311 20C311 17.7909 309.209 16 307 16C304.791 16 303 17.7909 303 20C303 22.2091 304.791 24 307 24C309.209 24 311 22.2091 311 20Z" fill="#F2F4F7"/>
<path d="M335 20C335 17.7909 333.209 16 331 16C328.791 16 327 17.7909 327 20C327 22.2091 328.791 24 331 24C333.209 24 335 22.2091 335 20Z" fill="#F2F4F7"/>
<path d="M359 20C359 17.7909 357.209 16 355 16C352.791 16 351 17.7909 351 20C351 22.2091 352.791 24 355 24C357.209 24 359 22.2091 359 20Z" fill="#F2F4F7"/>
<path d="M23 44C23 41.7909 21.2091 40 19 40C16.7909 40 15 41.7909 15 44C15 46.2091 16.7909 48 19 48C21.2091 48 23 46.2091 23 44Z" fill="#F2F4F7"/>
<path d="M47 44C47 41.7909 45.2091 40 43 40C40.7909 40 39 41.7909 39 44C39 46.2091 40.7909 48 43 48C45.2091 48 47 46.2091 47 44Z" fill="#F2F4F7"/>
<path d="M71 44C71 41.7909 69.2091 40 67 40C64.7909 40 63 41.7909 63 44C63 46.2091 64.7909 48 67 48C69.2091 48 71 46.2091 71 44Z" fill="#F2F4F7"/>
<path d="M95 44C95 41.7909 93.2091 40 91 40C88.7909 40 87 41.7909 87 44C87 46.2091 88.7909 48 91 48C93.2091 48 95 46.2091 95 44Z" fill="#F2F4F7"/>
<path d="M119 44C119 41.7909 117.209 40 115 40C112.791 40 111 41.7909 111 44C111 46.2091 112.791 48 115 48C117.209 48 119 46.2091 119 44Z" fill="#F2F4F7"/>
<path d="M143 44C143 41.7909 141.209 40 139 40C136.791 40 135 41.7909 135 44C135 46.2091 136.791 48 139 48C141.209 48 143 46.2091 143 44Z" fill="#F2F4F7"/>
<path d="M167 44C167 41.7909 165.209 40 163 40C160.791 40 159 41.7909 159 44C159 46.2091 160.791 48 163 48C165.209 48 167 46.2091 167 44Z" fill="#F2F4F7"/>
<path d="M191 44C191 41.7909 189.209 40 187 40C184.791 40 183 41.7909 183 44C183 46.2091 184.791 48 187 48C189.209 48 191 46.2091 191 44Z" fill="#F2F4F7"/>
<path d="M215 44C215 41.7909 213.209 40 211 40C208.791 40 207 41.7909 207 44C207 46.2091 208.791 48 211 48C213.209 48 215 46.2091 215 44Z" fill="#F2F4F7"/>
<path d="M239 44C239 41.7909 237.209 40 235 40C232.791 40 231 41.7909 231 44C231 46.2091 232.791 48 235 48C237.209 48 239 46.2091 239 44Z" fill="#F2F4F7"/>
<path d="M263 44C263 41.7909 261.209 40 259 40C256.791 40 255 41.7909 255 44C255 46.2091 256.791 48 259 48C261.209 48 263 46.2091 263 44Z" fill="#F2F4F7"/>
<path d="M287 44C287 41.7909 285.209 40 283 40C280.791 40 279 41.7909 279 44C279 46.2091 280.791 48 283 48C285.209 48 287 46.2091 287 44Z" fill="#F2F4F7"/>
<path d="M311 44C311 41.7909 309.209 40 307 40C304.791 40 303 41.7909 303 44C303 46.2091 304.791 48 307 48C309.209 48 311 46.2091 311 44Z" fill="#F2F4F7"/>
<path d="M335 44C335 41.7909 333.209 40 331 40C328.791 40 327 41.7909 327 44C327 46.2091 328.791 48 331 48C333.209 48 335 46.2091 335 44Z" fill="#F2F4F7"/>
<path d="M359 44C359 41.7909 357.209 40 355 40C352.791 40 351 41.7909 351 44C351 46.2091 352.791 48 355 48C357.209 48 359 46.2091 359 44Z" fill="#F2F4F7"/>
<path d="M23 68C23 65.7909 21.2091 64 19 64C16.7909 64 15 65.7909 15 68C15 70.2091 16.7909 72 19 72C21.2091 72 23 70.2091 23 68Z" fill="#F2F4F7"/>
<path d="M47 68C47 65.7909 45.2091 64 43 64C40.7909 64 39 65.7909 39 68C39 70.2091 40.7909 72 43 72C45.2091 72 47 70.2091 47 68Z" fill="#F2F4F7"/>
<path d="M71 68C71 65.7909 69.2091 64 67 64C64.7909 64 63 65.7909 63 68C63 70.2091 64.7909 72 67 72C69.2091 72 71 70.2091 71 68Z" fill="#F2F4F7"/>
<path d="M95 68C95 65.7909 93.2091 64 91 64C88.7909 64 87 65.7909 87 68C87 70.2091 88.7909 72 91 72C93.2091 72 95 70.2091 95 68Z" fill="#F2F4F7"/>
<path d="M119 68C119 65.7909 117.209 64 115 64C112.791 64 111 65.7909 111 68C111 70.2091 112.791 72 115 72C117.209 72 119 70.2091 119 68Z" fill="#F2F4F7"/>
<path d="M143 68C143 65.7909 141.209 64 139 64C136.791 64 135 65.7909 135 68C135 70.2091 136.791 72 139 72C141.209 72 143 70.2091 143 68Z" fill="#F2F4F7"/>
<path d="M167 68C167 65.7909 165.209 64 163 64C160.791 64 159 65.7909 159 68C159 70.2091 160.791 72 163 72C165.209 72 167 70.2091 167 68Z" fill="#F2F4F7"/>
<path d="M191 68C191 65.7909 189.209 64 187 64C184.791 64 183 65.7909 183 68C183 70.2091 184.791 72 187 72C189.209 72 191 70.2091 191 68Z" fill="#F2F4F7"/>
<path d="M215 68C215 65.7909 213.209 64 211 64C208.791 64 207 65.7909 207 68C207 70.2091 208.791 72 211 72C213.209 72 215 70.2091 215 68Z" fill="#F2F4F7"/>
<path d="M239 68C239 65.7909 237.209 64 235 64C232.791 64 231 65.7909 231 68C231 70.2091 232.791 72 235 72C237.209 72 239 70.2091 239 68Z" fill="#F2F4F7"/>
<path d="M263 68C263 65.7909 261.209 64 259 64C256.791 64 255 65.7909 255 68C255 70.2091 256.791 72 259 72C261.209 72 263 70.2091 263 68Z" fill="#F2F4F7"/>
<path d="M287 68C287 65.7909 285.209 64 283 64C280.791 64 279 65.7909 279 68C279 70.2091 280.791 72 283 72C285.209 72 287 70.2091 287 68Z" fill="#F2F4F7"/>
<path d="M311 68C311 65.7909 309.209 64 307 64C304.791 64 303 65.7909 303 68C303 70.2091 304.791 72 307 72C309.209 72 311 70.2091 311 68Z" fill="#F2F4F7"/>
<path d="M335 68C335 65.7909 333.209 64 331 64C328.791 64 327 65.7909 327 68C327 70.2091 328.791 72 331 72C333.209 72 335 70.2091 335 68Z" fill="#F2F4F7"/>
<path d="M359 68C359 65.7909 357.209 64 355 64C352.791 64 351 65.7909 351 68C351 70.2091 352.791 72 355 72C357.209 72 359 70.2091 359 68Z" fill="#F2F4F7"/>
<path d="M23 92C23 89.7909 21.2091 88 19 88C16.7909 88 15 89.7909 15 92C15 94.2091 16.7909 96 19 96C21.2091 96 23 94.2091 23 92Z" fill="#F2F4F7"/>
<path d="M47 92C47 89.7909 45.2091 88 43 88C40.7909 88 39 89.7909 39 92C39 94.2091 40.7909 96 43 96C45.2091 96 47 94.2091 47 92Z" fill="#F2F4F7"/>
<path d="M71 92C71 89.7909 69.2091 88 67 88C64.7909 88 63 89.7909 63 92C63 94.2091 64.7909 96 67 96C69.2091 96 71 94.2091 71 92Z" fill="#F2F4F7"/>
<path d="M95 92C95 89.7909 93.2091 88 91 88C88.7909 88 87 89.7909 87 92C87 94.2091 88.7909 96 91 96C93.2091 96 95 94.2091 95 92Z" fill="#F2F4F7"/>
<path d="M119 92C119 89.7909 117.209 88 115 88C112.791 88 111 89.7909 111 92C111 94.2091 112.791 96 115 96C117.209 96 119 94.2091 119 92Z" fill="#F2F4F7"/>
<path d="M143 92C143 89.7909 141.209 88 139 88C136.791 88 135 89.7909 135 92C135 94.2091 136.791 96 139 96C141.209 96 143 94.2091 143 92Z" fill="#F2F4F7"/>
<path d="M167 92C167 89.7909 165.209 88 163 88C160.791 88 159 89.7909 159 92C159 94.2091 160.791 96 163 96C165.209 96 167 94.2091 167 92Z" fill="#F2F4F7"/>
<path d="M191 92C191 89.7909 189.209 88 187 88C184.791 88 183 89.7909 183 92C183 94.2091 184.791 96 187 96C189.209 96 191 94.2091 191 92Z" fill="#F2F4F7"/>
<path d="M215 92C215 89.7909 213.209 88 211 88C208.791 88 207 89.7909 207 92C207 94.2091 208.791 96 211 96C213.209 96 215 94.2091 215 92Z" fill="#F2F4F7"/>
<path d="M239 92C239 89.7909 237.209 88 235 88C232.791 88 231 89.7909 231 92C231 94.2091 232.791 96 235 96C237.209 96 239 94.2091 239 92Z" fill="#F2F4F7"/>
<path d="M263 92C263 89.7909 261.209 88 259 88C256.791 88 255 89.7909 255 92C255 94.2091 256.791 96 259 96C261.209 96 263 94.2091 263 92Z" fill="#F2F4F7"/>
<path d="M287 92C287 89.7909 285.209 88 283 88C280.791 88 279 89.7909 279 92C279 94.2091 280.791 96 283 96C285.209 96 287 94.2091 287 92Z" fill="#F2F4F7"/>
<path d="M311 92C311 89.7909 309.209 88 307 88C304.791 88 303 89.7909 303 92C303 94.2091 304.791 96 307 96C309.209 96 311 94.2091 311 92Z" fill="#F2F4F7"/>
<path d="M335 92C335 89.7909 333.209 88 331 88C328.791 88 327 89.7909 327 92C327 94.2091 328.791 96 331 96C333.209 96 335 94.2091 335 92Z" fill="#F2F4F7"/>
<path d="M359 92C359 89.7909 357.209 88 355 88C352.791 88 351 89.7909 351 92C351 94.2091 352.791 96 355 96C357.209 96 359 94.2091 359 92Z" fill="#F2F4F7"/>
<path d="M23 116C23 113.791 21.2091 112 19 112C16.7909 112 15 113.791 15 116C15 118.209 16.7909 120 19 120C21.2091 120 23 118.209 23 116Z" fill="#F2F4F7"/>
<path d="M47 116C47 113.791 45.2091 112 43 112C40.7909 112 39 113.791 39 116C39 118.209 40.7909 120 43 120C45.2091 120 47 118.209 47 116Z" fill="#F2F4F7"/>
<path d="M71 116C71 113.791 69.2091 112 67 112C64.7909 112 63 113.791 63 116C63 118.209 64.7909 120 67 120C69.2091 120 71 118.209 71 116Z" fill="#F2F4F7"/>
<path d="M95 116C95 113.791 93.2091 112 91 112C88.7909 112 87 113.791 87 116C87 118.209 88.7909 120 91 120C93.2091 120 95 118.209 95 116Z" fill="#F2F4F7"/>
<path d="M119 116C119 113.791 117.209 112 115 112C112.791 112 111 113.791 111 116C111 118.209 112.791 120 115 120C117.209 120 119 118.209 119 116Z" fill="#F2F4F7"/>
<path d="M143 116C143 113.791 141.209 112 139 112C136.791 112 135 113.791 135 116C135 118.209 136.791 120 139 120C141.209 120 143 118.209 143 116Z" fill="#F2F4F7"/>
<path d="M167 116C167 113.791 165.209 112 163 112C160.791 112 159 113.791 159 116C159 118.209 160.791 120 163 120C165.209 120 167 118.209 167 116Z" fill="#F2F4F7"/>
<path d="M191 116C191 113.791 189.209 112 187 112C184.791 112 183 113.791 183 116C183 118.209 184.791 120 187 120C189.209 120 191 118.209 191 116Z" fill="#F2F4F7"/>
<path d="M215 116C215 113.791 213.209 112 211 112C208.791 112 207 113.791 207 116C207 118.209 208.791 120 211 120C213.209 120 215 118.209 215 116Z" fill="#F2F4F7"/>
<path d="M239 116C239 113.791 237.209 112 235 112C232.791 112 231 113.791 231 116C231 118.209 232.791 120 235 120C237.209 120 239 118.209 239 116Z" fill="#F2F4F7"/>
<path d="M263 116C263 113.791 261.209 112 259 112C256.791 112 255 113.791 255 116C255 118.209 256.791 120 259 120C261.209 120 263 118.209 263 116Z" fill="#F2F4F7"/>
<path d="M287 116C287 113.791 285.209 112 283 112C280.791 112 279 113.791 279 116C279 118.209 280.791 120 283 120C285.209 120 287 118.209 287 116Z" fill="#F2F4F7"/>
<path d="M311 116C311 113.791 309.209 112 307 112C304.791 112 303 113.791 303 116C303 118.209 304.791 120 307 120C309.209 120 311 118.209 311 116Z" fill="#F2F4F7"/>
<path d="M335 116C335 113.791 333.209 112 331 112C328.791 112 327 113.791 327 116C327 118.209 328.791 120 331 120C333.209 120 335 118.209 335 116Z" fill="#F2F4F7"/>
<path d="M359 116C359 113.791 357.209 112 355 112C352.791 112 351 113.791 351 116C351 118.209 352.791 120 355 120C357.209 120 359 118.209 359 116Z" fill="#F2F4F7"/>
<path d="M23 140C23 137.791 21.2091 136 19 136C16.7909 136 15 137.791 15 140C15 142.209 16.7909 144 19 144C21.2091 144 23 142.209 23 140Z" fill="#F2F4F7"/>
<path d="M47 140C47 137.791 45.2091 136 43 136C40.7909 136 39 137.791 39 140C39 142.209 40.7909 144 43 144C45.2091 144 47 142.209 47 140Z" fill="#F2F4F7"/>
<path d="M71 140C71 137.791 69.2091 136 67 136C64.7909 136 63 137.791 63 140C63 142.209 64.7909 144 67 144C69.2091 144 71 142.209 71 140Z" fill="#F2F4F7"/>
<path d="M95 140C95 137.791 93.2091 136 91 136C88.7909 136 87 137.791 87 140C87 142.209 88.7909 144 91 144C93.2091 144 95 142.209 95 140Z" fill="#F2F4F7"/>
<path d="M119 140C119 137.791 117.209 136 115 136C112.791 136 111 137.791 111 140C111 142.209 112.791 144 115 144C117.209 144 119 142.209 119 140Z" fill="#F2F4F7"/>
<path d="M143 140C143 137.791 141.209 136 139 136C136.791 136 135 137.791 135 140C135 142.209 136.791 144 139 144C141.209 144 143 142.209 143 140Z" fill="#F2F4F7"/>
<path d="M167 140C167 137.791 165.209 136 163 136C160.791 136 159 137.791 159 140C159 142.209 160.791 144 163 144C165.209 144 167 142.209 167 140Z" fill="#F2F4F7"/>
<path d="M191 140C191 137.791 189.209 136 187 136C184.791 136 183 137.791 183 140C183 142.209 184.791 144 187 144C189.209 144 191 142.209 191 140Z" fill="#F2F4F7"/>
<path d="M215 140C215 137.791 213.209 136 211 136C208.791 136 207 137.791 207 140C207 142.209 208.791 144 211 144C213.209 144 215 142.209 215 140Z" fill="#F2F4F7"/>
<path d="M239 140C239 137.791 237.209 136 235 136C232.791 136 231 137.791 231 140C231 142.209 232.791 144 235 144C237.209 144 239 142.209 239 140Z" fill="#F2F4F7"/>
<path d="M263 140C263 137.791 261.209 136 259 136C256.791 136 255 137.791 255 140C255 142.209 256.791 144 259 144C261.209 144 263 142.209 263 140Z" fill="#F2F4F7"/>
<path d="M287 140C287 137.791 285.209 136 283 136C280.791 136 279 137.791 279 140C279 142.209 280.791 144 283 144C285.209 144 287 142.209 287 140Z" fill="#F2F4F7"/>
<path d="M311 140C311 137.791 309.209 136 307 136C304.791 136 303 137.791 303 140C303 142.209 304.791 144 307 144C309.209 144 311 142.209 311 140Z" fill="#F2F4F7"/>
<path d="M335 140C335 137.791 333.209 136 331 136C328.791 136 327 137.791 327 140C327 142.209 328.791 144 331 144C333.209 144 335 142.209 335 140Z" fill="#F2F4F7"/>
<path d="M359 140C359 137.791 357.209 136 355 136C352.791 136 351 137.791 351 140C351 142.209 352.791 144 355 144C357.209 144 359 142.209 359 140Z" fill="#F2F4F7"/>
<path d="M23 164C23 161.791 21.2091 160 19 160C16.7909 160 15 161.791 15 164C15 166.209 16.7909 168 19 168C21.2091 168 23 166.209 23 164Z" fill="#F2F4F7"/>
<path d="M47 164C47 161.791 45.2091 160 43 160C40.7909 160 39 161.791 39 164C39 166.209 40.7909 168 43 168C45.2091 168 47 166.209 47 164Z" fill="#F2F4F7"/>
<path d="M71 164C71 161.791 69.2091 160 67 160C64.7909 160 63 161.791 63 164C63 166.209 64.7909 168 67 168C69.2091 168 71 166.209 71 164Z" fill="#F2F4F7"/>
<path d="M95 164C95 161.791 93.2091 160 91 160C88.7909 160 87 161.791 87 164C87 166.209 88.7909 168 91 168C93.2091 168 95 166.209 95 164Z" fill="#F2F4F7"/>
<path d="M119 164C119 161.791 117.209 160 115 160C112.791 160 111 161.791 111 164C111 166.209 112.791 168 115 168C117.209 168 119 166.209 119 164Z" fill="#F2F4F7"/>
<path d="M143 164C143 161.791 141.209 160 139 160C136.791 160 135 161.791 135 164C135 166.209 136.791 168 139 168C141.209 168 143 166.209 143 164Z" fill="#F2F4F7"/>
<path d="M167 164C167 161.791 165.209 160 163 160C160.791 160 159 161.791 159 164C159 166.209 160.791 168 163 168C165.209 168 167 166.209 167 164Z" fill="#F2F4F7"/>
<path d="M191 164C191 161.791 189.209 160 187 160C184.791 160 183 161.791 183 164C183 166.209 184.791 168 187 168C189.209 168 191 166.209 191 164Z" fill="#F2F4F7"/>
<path d="M215 164C215 161.791 213.209 160 211 160C208.791 160 207 161.791 207 164C207 166.209 208.791 168 211 168C213.209 168 215 166.209 215 164Z" fill="#F2F4F7"/>
<path d="M239 164C239 161.791 237.209 160 235 160C232.791 160 231 161.791 231 164C231 166.209 232.791 168 235 168C237.209 168 239 166.209 239 164Z" fill="#F2F4F7"/>
<path d="M263 164C263 161.791 261.209 160 259 160C256.791 160 255 161.791 255 164C255 166.209 256.791 168 259 168C261.209 168 263 166.209 263 164Z" fill="#F2F4F7"/>
<path d="M287 164C287 161.791 285.209 160 283 160C280.791 160 279 161.791 279 164C279 166.209 280.791 168 283 168C285.209 168 287 166.209 287 164Z" fill="#F2F4F7"/>
<path d="M311 164C311 161.791 309.209 160 307 160C304.791 160 303 161.791 303 164C303 166.209 304.791 168 307 168C309.209 168 311 166.209 311 164Z" fill="#F2F4F7"/>
<path d="M335 164C335 161.791 333.209 160 331 160C328.791 160 327 161.791 327 164C327 166.209 328.791 168 331 168C333.209 168 335 166.209 335 164Z" fill="#F2F4F7"/>
<path d="M359 164C359 161.791 357.209 160 355 160C352.791 160 351 161.791 351 164C351 166.209 352.791 168 355 168C357.209 168 359 166.209 359 164Z" fill="#F2F4F7"/>
<path d="M23 188C23 185.791 21.2091 184 19 184C16.7909 184 15 185.791 15 188C15 190.209 16.7909 192 19 192C21.2091 192 23 190.209 23 188Z" fill="#F2F4F7"/>
<path d="M47 188C47 185.791 45.2091 184 43 184C40.7909 184 39 185.791 39 188C39 190.209 40.7909 192 43 192C45.2091 192 47 190.209 47 188Z" fill="#F2F4F7"/>
<path d="M71 188C71 185.791 69.2091 184 67 184C64.7909 184 63 185.791 63 188C63 190.209 64.7909 192 67 192C69.2091 192 71 190.209 71 188Z" fill="#F2F4F7"/>
<path d="M95 188C95 185.791 93.2091 184 91 184C88.7909 184 87 185.791 87 188C87 190.209 88.7909 192 91 192C93.2091 192 95 190.209 95 188Z" fill="#F2F4F7"/>
<path d="M119 188C119 185.791 117.209 184 115 184C112.791 184 111 185.791 111 188C111 190.209 112.791 192 115 192C117.209 192 119 190.209 119 188Z" fill="#F2F4F7"/>
<path d="M143 188C143 185.791 141.209 184 139 184C136.791 184 135 185.791 135 188C135 190.209 136.791 192 139 192C141.209 192 143 190.209 143 188Z" fill="#F2F4F7"/>
<path d="M167 188C167 185.791 165.209 184 163 184C160.791 184 159 185.791 159 188C159 190.209 160.791 192 163 192C165.209 192 167 190.209 167 188Z" fill="#F2F4F7"/>
<path d="M191 188C191 185.791 189.209 184 187 184C184.791 184 183 185.791 183 188C183 190.209 184.791 192 187 192C189.209 192 191 190.209 191 188Z" fill="#F2F4F7"/>
<path d="M215 188C215 185.791 213.209 184 211 184C208.791 184 207 185.791 207 188C207 190.209 208.791 192 211 192C213.209 192 215 190.209 215 188Z" fill="#F2F4F7"/>
<path d="M239 188C239 185.791 237.209 184 235 184C232.791 184 231 185.791 231 188C231 190.209 232.791 192 235 192C237.209 192 239 190.209 239 188Z" fill="#F2F4F7"/>
<path d="M263 188C263 185.791 261.209 184 259 184C256.791 184 255 185.791 255 188C255 190.209 256.791 192 259 192C261.209 192 263 190.209 263 188Z" fill="#F2F4F7"/>
<path d="M287 188C287 185.791 285.209 184 283 184C280.791 184 279 185.791 279 188C279 190.209 280.791 192 283 192C285.209 192 287 190.209 287 188Z" fill="#F2F4F7"/>
<path d="M311 188C311 185.791 309.209 184 307 184C304.791 184 303 185.791 303 188C303 190.209 304.791 192 307 192C309.209 192 311 190.209 311 188Z" fill="#F2F4F7"/>
<path d="M335 188C335 185.791 333.209 184 331 184C328.791 184 327 185.791 327 188C327 190.209 328.791 192 331 192C333.209 192 335 190.209 335 188Z" fill="#F2F4F7"/>
<path d="M359 188C359 185.791 357.209 184 355 184C352.791 184 351 185.791 351 188C351 190.209 352.791 192 355 192C357.209 192 359 190.209 359 188Z" fill="#F2F4F7"/>
<path d="M23 212C23 209.791 21.2091 208 19 208C16.7909 208 15 209.791 15 212C15 214.209 16.7909 216 19 216C21.2091 216 23 214.209 23 212Z" fill="#F2F4F7"/>
<path d="M47 212C47 209.791 45.2091 208 43 208C40.7909 208 39 209.791 39 212C39 214.209 40.7909 216 43 216C45.2091 216 47 214.209 47 212Z" fill="#F2F4F7"/>
<path d="M71 212C71 209.791 69.2091 208 67 208C64.7909 208 63 209.791 63 212C63 214.209 64.7909 216 67 216C69.2091 216 71 214.209 71 212Z" fill="#F2F4F7"/>
<path d="M95 212C95 209.791 93.2091 208 91 208C88.7909 208 87 209.791 87 212C87 214.209 88.7909 216 91 216C93.2091 216 95 214.209 95 212Z" fill="#F2F4F7"/>
<path d="M119 212C119 209.791 117.209 208 115 208C112.791 208 111 209.791 111 212C111 214.209 112.791 216 115 216C117.209 216 119 214.209 119 212Z" fill="#F2F4F7"/>
<path d="M143 212C143 209.791 141.209 208 139 208C136.791 208 135 209.791 135 212C135 214.209 136.791 216 139 216C141.209 216 143 214.209 143 212Z" fill="#F2F4F7"/>
<path d="M167 212C167 209.791 165.209 208 163 208C160.791 208 159 209.791 159 212C159 214.209 160.791 216 163 216C165.209 216 167 214.209 167 212Z" fill="#F2F4F7"/>
<path d="M191 212C191 209.791 189.209 208 187 208C184.791 208 183 209.791 183 212C183 214.209 184.791 216 187 216C189.209 216 191 214.209 191 212Z" fill="#F2F4F7"/>
<path d="M215 212C215 209.791 213.209 208 211 208C208.791 208 207 209.791 207 212C207 214.209 208.791 216 211 216C213.209 216 215 214.209 215 212Z" fill="#F2F4F7"/>
<path d="M239 212C239 209.791 237.209 208 235 208C232.791 208 231 209.791 231 212C231 214.209 232.791 216 235 216C237.209 216 239 214.209 239 212Z" fill="#F2F4F7"/>
<path d="M263 212C263 209.791 261.209 208 259 208C256.791 208 255 209.791 255 212C255 214.209 256.791 216 259 216C261.209 216 263 214.209 263 212Z" fill="#F2F4F7"/>
<path d="M287 212C287 209.791 285.209 208 283 208C280.791 208 279 209.791 279 212C279 214.209 280.791 216 283 216C285.209 216 287 214.209 287 212Z" fill="#F2F4F7"/>
<path d="M311 212C311 209.791 309.209 208 307 208C304.791 208 303 209.791 303 212C303 214.209 304.791 216 307 216C309.209 216 311 214.209 311 212Z" fill="#F2F4F7"/>
<path d="M335 212C335 209.791 333.209 208 331 208C328.791 208 327 209.791 327 212C327 214.209 328.791 216 331 216C333.209 216 335 214.209 335 212Z" fill="#F2F4F7"/>
<path d="M359 212C359 209.791 357.209 208 355 208C352.791 208 351 209.791 351 212C351 214.209 352.791 216 355 216C357.209 216 359 214.209 359 212Z" fill="#F2F4F7"/>
</g>
<path d="M373 17H0V217H373V17Z" fill="url(#paint0_linear_2851_18003)"/>
<path d="M291 28.5H83C74.4396 28.5 67.5 35.4396 67.5 44V200C67.5 208.56 74.4396 215.5 83 215.5H291C299.56 215.5 306.5 208.56 306.5 200V44C306.5 35.4396 299.56 28.5 291 28.5Z" fill="#111318"/>
<g filter="url(#filter0_f_2851_18003)">
<rect x="161" y="108" width="16" height="1" rx="0.5" fill="#35383F"/>
</g>
<g filter="url(#filter1_f_2851_18003)">
<rect width="16" height="1" rx="0.5" transform="matrix(1 0 0 -1 161 136)" fill="#35383F"/>
</g>
<g filter="url(#filter2_f_2851_18003)">
<rect width="16" height="1" rx="0.5" transform="matrix(1 0 0 -1 161 126)" fill="#35383F"/>
</g>
<g filter="url(#filter3_f_2851_18003)">
<rect x="181" y="110" width="10" height="1" rx="0.5" fill="#35383F"/>
</g>
<g filter="url(#filter4_f_2851_18003)">
<rect width="10" height="1" rx="0.5" transform="matrix(1 0 0 -1 181 131)" fill="#35383F"/>
</g>
<g filter="url(#filter5_f_2851_18003)">
<rect width="10" height="1" rx="0.5" transform="matrix(1 0 0 -1 192 136)" fill="#35383F"/>
</g>
<g filter="url(#filter6_f_2851_18003)">
<path d="M177 121.5C177 121.776 177.224 122 177.5 122H190.5C190.776 122 191 121.776 191 121.5C191 121.224 190.776 121 190.5 121H177.5C177.224 121 177 121.224 177 121.5Z" fill="#35383F"/>
</g>
<g filter="url(#filter7_f_2851_18003)">
<rect width="10" height="1" rx="0.5" transform="matrix(1 0 0 -1 166 116)" fill="#35383F"/>
</g>
<g filter="url(#filter8_f_2851_18003)">
<rect x="193" y="113" width="10" height="1" rx="0.5" fill="#35383F"/>
</g>
<g filter="url(#filter9_f_2851_18003)">
<rect width="10" height="1" rx="0.5" transform="matrix(1 0 0 -1 193 128)" fill="#35383F"/>
</g>
<g filter="url(#filter10_f_2851_18003)">
<rect width="10" height="1" rx="0.5" transform="matrix(1 0 0 -1 193 119)" fill="#35383F"/>
</g>
<g filter="url(#filter11_f_2851_18003)">
<rect width="6" height="1" rx="0.5" transform="matrix(1 0 0 -1 193 125)" fill="#35383F"/>
</g>
<g filter="url(#filter12_f_2851_18003)">
<rect width="6" height="1" rx="0.5" transform="matrix(1 0 0 -1 182 117)" fill="#35383F"/>
</g>
<g filter="url(#filter13_f_2851_18003)">
<rect width="6" height="1" rx="0.5" transform="matrix(1 0 0 -1 198 109)" fill="#35383F"/>
</g>
<g filter="url(#filter14_dd_2851_18003)">
<rect x="221" y="84" width="68" height="68" rx="13.25" fill="#222429" shape-rendering="crispEdges"/>
<path d="M267.75 116.548V112.333C267.75 111.582 267.451 110.861 266.92 110.33C266.388 109.799 265.668 109.5 264.916 109.5H256.416V107.641C256.848 107.253 257.125 106.695 257.125 106.069C257.125 105.505 256.901 104.965 256.502 104.566C256.104 104.168 255.563 103.944 255 103.944C254.436 103.944 253.896 104.168 253.497 104.566C253.099 104.965 252.875 105.505 252.875 106.069C252.875 106.695 253.151 107.253 253.583 107.641V109.5H245.083C244.332 109.5 243.611 109.799 243.08 110.33C242.548 110.861 242.25 111.582 242.25 112.333V116.581L242.148 116.588C241.791 116.613 241.457 116.773 241.213 117.036C240.969 117.298 240.833 117.642 240.833 118V120.833C240.833 121.209 240.982 121.57 241.248 121.835C241.514 122.101 241.874 122.25 242.25 122.25V129.333C242.25 130.085 242.548 130.806 243.08 131.337C243.611 131.868 244.332 132.167 245.083 132.167H264.916C265.668 132.167 266.388 131.868 266.92 131.337C267.451 130.806 267.75 130.085 267.75 129.333V122.25C268.125 122.25 268.486 122.101 268.751 121.835C269.017 121.57 269.166 121.209 269.166 120.833V118.088C269.183 117.868 269.148 117.647 269.064 117.443C268.778 116.752 268.165 116.586 267.75 116.548ZM247.916 118C247.916 116.436 248.868 115.167 250.041 115.167C251.214 115.167 252.166 116.436 252.166 118C252.166 119.564 251.214 120.833 250.041 120.833C248.868 120.833 247.916 119.564 247.916 118ZM260.664 126.5C259.245 126.496 249.333 126.5 249.333 126.5V123.667C249.333 123.667 259.251 123.664 260.669 123.667L260.664 126.5ZM259.958 120.833C258.785 120.833 257.833 119.564 257.833 118C257.833 116.436 258.785 115.167 259.958 115.167C261.131 115.167 262.083 116.436 262.083 118C262.083 119.564 261.131 120.833 259.958 120.833Z" fill="url(#paint1_linear_2851_18003)"/>
</g>
<g filter="url(#filter15_dd_2851_18003)">
<rect x="83" y="84" width="68" height="68" rx="13.25" fill="#222429" shape-rendering="crispEdges"/>
<path d="M122.865 105.193L110.072 109.443C101.473 112.319 101.473 117.008 110.072 119.87L113.869 121.131L115.13 124.928C117.992 133.527 122.695 133.527 125.557 124.928L129.821 112.149C131.719 106.412 128.602 103.281 122.865 105.193ZM123.318 112.815L117.935 118.227C117.722 118.439 117.453 118.538 117.184 118.538C116.915 118.538 116.646 118.439 116.433 118.227C116.022 117.816 116.022 117.136 116.433 116.725L121.817 111.313C122.227 110.903 122.907 110.903 123.318 111.313C123.729 111.724 123.729 112.404 123.318 112.815Z" fill="url(#paint2_linear_2851_18003)"/>
</g>
<path d="M67 28H307V56H67V28Z" fill="#1C1E23"/>
<mask id="mask0_2851_18003" style="mask-type:luminance" maskUnits="userSpaceOnUse" x="67" y="28" width="240" height="28">
<path d="M67 28H307V56H67V28Z" fill="#23252A"/>
<path d="M67.5 28.5H306.5V55.5H67.5V28.5Z" stroke="white" stroke-opacity="0.1"/>
</mask>
<g mask="url(#mask0_2851_18003)">
<path d="M307 55H67V57H307V55Z" fill="#23252A"/>
<path d="M67.5 56.5V55.5H306.5V56.5H67.5Z" stroke="white" stroke-opacity="0.1"/>
</g>
<path d="M85 42C85 40.3431 83.6569 39 82 39C80.3431 39 79 40.3431 79 42C79 43.6569 80.3431 45 82 45C83.6569 45 85 43.6569 85 42Z" fill="#F04438"/>
<path d="M95 42C95 40.3431 93.6569 39 92 39C90.3431 39 89 40.3431 89 42C89 43.6569 90.3431 45 92 45C93.6569 45 95 43.6569 95 42Z" fill="#FEC84B"/>
<path d="M105 42C105 40.3431 103.657 39 102 39C100.343 39 99 40.3431 99 42C99 43.6569 100.343 45 102 45C103.657 45 105 43.6569 105 42Z" fill="#17B26A"/>
<path d="M291 36H119C116.791 36 115 37.7909 115 40V44C115 46.2091 116.791 48 119 48H291C293.209 48 295 46.2091 295 44V40C295 37.7909 293.209 36 291 36Z" fill="#13151A"/>
</g>
<defs>
<filter id="filter0_f_2851_18003" x="160.4" y="107.4" width="17.2" height="2.2" filterUnits="userSpaceOnUse" color-interpolation-filters="sRGB">
<feFlood flood-opacity="0" result="BackgroundImageFix"/>
<feBlend mode="normal" in="SourceGraphic" in2="BackgroundImageFix" result="shape"/>
<feGaussianBlur stdDeviation="0.3" result="effect1_foregroundBlur_2851_18003"/>
</filter>
<filter id="filter1_f_2851_18003" x="160.4" y="134.4" width="17.2" height="2.2" filterUnits="userSpaceOnUse" color-interpolation-filters="sRGB">
<feFlood flood-opacity="0" result="BackgroundImageFix"/>
<feBlend mode="normal" in="SourceGraphic" in2="BackgroundImageFix" result="shape"/>
<feGaussianBlur stdDeviation="0.3" result="effect1_foregroundBlur_2851_18003"/>
</filter>
<filter id="filter2_f_2851_18003" x="160.4" y="124.4" width="17.2" height="2.2" filterUnits="userSpaceOnUse" color-interpolation-filters="sRGB">
<feFlood flood-opacity="0" result="BackgroundImageFix"/>
<feBlend mode="normal" in="SourceGraphic" in2="BackgroundImageFix" result="shape"/>
<feGaussianBlur stdDeviation="0.3" result="effect1_foregroundBlur_2851_18003"/>
</filter>
<filter id="filter3_f_2851_18003" x="180.4" y="109.4" width="11.2" height="2.2" filterUnits="userSpaceOnUse" color-interpolation-filters="sRGB">
<feFlood flood-opacity="0" result="BackgroundImageFix"/>
<feBlend mode="normal" in="SourceGraphic" in2="BackgroundImageFix" result="shape"/>
<feGaussianBlur stdDeviation="0.3" result="effect1_foregroundBlur_2851_18003"/>
</filter>
<filter id="filter4_f_2851_18003" x="180.4" y="129.4" width="11.2" height="2.2" filterUnits="userSpaceOnUse" color-interpolation-filters="sRGB">
<feFlood flood-opacity="0" result="BackgroundImageFix"/>
<feBlend mode="normal" in="SourceGraphic" in2="BackgroundImageFix" result="shape"/>
<feGaussianBlur stdDeviation="0.3" result="effect1_foregroundBlur_2851_18003"/>
</filter>
<filter id="filter5_f_2851_18003" x="191.4" y="134.4" width="11.2" height="2.2" filterUnits="userSpaceOnUse" color-interpolation-filters="sRGB">
<feFlood flood-opacity="0" result="BackgroundImageFix"/>
<feBlend mode="normal" in="SourceGraphic" in2="BackgroundImageFix" result="shape"/>
<feGaussianBlur stdDeviation="0.3" result="effect1_foregroundBlur_2851_18003"/>
</filter>
<filter id="filter6_f_2851_18003" x="176.4" y="120.4" width="15.2" height="2.2" filterUnits="userSpaceOnUse" color-interpolation-filters="sRGB">
<feFlood flood-opacity="0" result="BackgroundImageFix"/>
<feBlend mode="normal" in="SourceGraphic" in2="BackgroundImageFix" result="shape"/>
<feGaussianBlur stdDeviation="0.3" result="effect1_foregroundBlur_2851_18003"/>
</filter>
<filter id="filter7_f_2851_18003" x="165.4" y="114.4" width="11.2" height="2.2" filterUnits="userSpaceOnUse" color-interpolation-filters="sRGB">
<feFlood flood-opacity="0" result="BackgroundImageFix"/>
<feBlend mode="normal" in="SourceGraphic" in2="BackgroundImageFix" result="shape"/>
<feGaussianBlur stdDeviation="0.3" result="effect1_foregroundBlur_2851_18003"/>
</filter>
<filter id="filter8_f_2851_18003" x="192.4" y="112.4" width="11.2" height="2.2" filterUnits="userSpaceOnUse" color-interpolation-filters="sRGB">
<feFlood flood-opacity="0" result="BackgroundImageFix"/>
<feBlend mode="normal" in="SourceGraphic" in2="BackgroundImageFix" result="shape"/>
<feGaussianBlur stdDeviation="0.3" result="effect1_foregroundBlur_2851_18003"/>
</filter>
<filter id="filter9_f_2851_18003" x="192.4" y="126.4" width="11.2" height="2.2" filterUnits="userSpaceOnUse" color-interpolation-filters="sRGB">
<feFlood flood-opacity="0" result="BackgroundImageFix"/>
<feBlend mode="normal" in="SourceGraphic" in2="BackgroundImageFix" result="shape"/>
<feGaussianBlur stdDeviation="0.3" result="effect1_foregroundBlur_2851_18003"/>
</filter>
<filter id="filter10_f_2851_18003" x="192.4" y="117.4" width="11.2" height="2.2" filterUnits="userSpaceOnUse" color-interpolation-filters="sRGB">
<feFlood flood-opacity="0" result="BackgroundImageFix"/>
<feBlend mode="normal" in="SourceGraphic" in2="BackgroundImageFix" result="shape"/>
<feGaussianBlur stdDeviation="0.3" result="effect1_foregroundBlur_2851_18003"/>
</filter>
<filter id="filter11_f_2851_18003" x="192.4" y="123.4" width="7.2" height="2.2" filterUnits="userSpaceOnUse" color-interpolation-filters="sRGB">
<feFlood flood-opacity="0" result="BackgroundImageFix"/>
<feBlend mode="normal" in="SourceGraphic" in2="BackgroundImageFix" result="shape"/>
<feGaussianBlur stdDeviation="0.3" result="effect1_foregroundBlur_2851_18003"/>
</filter>
<filter id="filter12_f_2851_18003" x="181.4" y="115.4" width="7.2" height="2.2" filterUnits="userSpaceOnUse" color-interpolation-filters="sRGB">
<feFlood flood-opacity="0" result="BackgroundImageFix"/>
<feBlend mode="normal" in="SourceGraphic" in2="BackgroundImageFix" result="shape"/>
<feGaussianBlur stdDeviation="0.3" result="effect1_foregroundBlur_2851_18003"/>
</filter>
<filter id="filter13_f_2851_18003" x="197.4" y="107.4" width="7.2" height="2.2" filterUnits="userSpaceOnUse" color-interpolation-filters="sRGB">
<feFlood flood-opacity="0" result="BackgroundImageFix"/>
<feBlend mode="normal" in="SourceGraphic" in2="BackgroundImageFix" result="shape"/>
<feGaussianBlur stdDeviation="0.3" result="effect1_foregroundBlur_2851_18003"/>
</filter>
<filter id="filter14_dd_2851_18003" x="187" y="78.3333" width="136" height="136" filterUnits="userSpaceOnUse" color-interpolation-filters="sRGB">
<feFlood flood-opacity="0" result="BackgroundImageFix"/>
<feColorMatrix in="SourceAlpha" type="matrix" values="0 0 0 0 0 0 0 0 0 0 0 0 0 0 0 0 0 0 127 0" result="hardAlpha"/>
<feOffset dy="11.3333"/>
<feGaussianBlur stdDeviation="5.66667"/>
<feComposite in2="hardAlpha" operator="out"/>
<feColorMatrix type="matrix" values="0 0 0 0 0.0627451 0 0 0 0 0.0941176 0 0 0 0 0.156863 0 0 0 0.03 0"/>
<feBlend mode="normal" in2="BackgroundImageFix" result="effect1_dropShadow_2851_18003"/>
<feColorMatrix in="SourceAlpha" type="matrix" values="0 0 0 0 0 0 0 0 0 0 0 0 0 0 0 0 0 0 127 0" result="hardAlpha"/>
<feOffset dy="28.3333"/>
<feGaussianBlur stdDeviation="17"/>
<feComposite in2="hardAlpha" operator="out"/>
<feColorMatrix type="matrix" values="0 0 0 0 0 0 0 0 0 0 0 0 0 0 0 0 0 0 0.08 0"/>
<feBlend mode="normal" in2="effect1_dropShadow_2851_18003" result="effect2_dropShadow_2851_18003"/>
<feBlend mode="normal" in="SourceGraphic" in2="effect2_dropShadow_2851_18003" result="shape"/>
</filter>
<filter id="filter15_dd_2851_18003" x="49" y="78.3333" width="136" height="136" filterUnits="userSpaceOnUse" color-interpolation-filters="sRGB">
<feFlood flood-opacity="0" result="BackgroundImageFix"/>
<feColorMatrix in="SourceAlpha" type="matrix" values="0 0 0 0 0 0 0 0 0 0 0 0 0 0 0 0 0 0 127 0" result="hardAlpha"/>
<feOffset dy="11.3333"/>
<feGaussianBlur stdDeviation="5.66667"/>
<feComposite in2="hardAlpha" operator="out"/>
<feColorMatrix type="matrix" values="0 0 0 0 0.0627451 0 0 0 0 0.0941176 0 0 0 0 0.156863 0 0 0 0.03 0"/>
<feBlend mode="normal" in2="BackgroundImageFix" result="effect1_dropShadow_2851_18003"/>
<feColorMatrix in="SourceAlpha" type="matrix" values="0 0 0 0 0 0 0 0 0 0 0 0 0 0 0 0 0 0 127 0" result="hardAlpha"/>
<feOffset dy="28.3333"/>
<feGaussianBlur stdDeviation="17"/>
<feComposite in2="hardAlpha" operator="out"/>
<feColorMatrix type="matrix" values="0 0 0 0 0 0 0 0 0 0 0 0 0 0 0 0 0 0 0.08 0"/>
<feBlend mode="normal" in2="effect1_dropShadow_2851_18003" result="effect2_dropShadow_2851_18003"/>
<feBlend mode="normal" in="SourceGraphic" in2="effect2_dropShadow_2851_18003" result="shape"/>
</filter>
<linearGradient id="paint0_linear_2851_18003" x1="186.5" y1="17" x2="186.5" y2="217" gradientUnits="userSpaceOnUse">
<stop stop-color="#101217" stop-opacity="0"/>
<stop offset="1" stop-color="#101217"/>
</linearGradient>
<linearGradient id="paint1_linear_2851_18003" x1="240.833" y1="111.607" x2="271.215" y2="115.289" gradientUnits="userSpaceOnUse">
<stop stop-color="#30C5D2"/>
<stop offset="1" stop-color="#471069"/>
</linearGradient>
<linearGradient id="paint2_linear_2851_18003" x1="103.623" y1="111.894" x2="132.311" y2="115.357" gradientUnits="userSpaceOnUse">
<stop stop-color="#30C5D2"/>
<stop offset="1" stop-color="#471069"/>
</linearGradient>
<clipPath id="clip0_2851_18003">
<rect width="373" height="217" rx="12" fill="white"/>
</clipPath>
</defs>
</svg>
