<svg width="373" height="217" viewBox="0 0 373 217" fill="none" xmlns="http://www.w3.org/2000/svg">
<g clip-path="url(#clip0_2851_17495)">
<path d="M373 0H0V217H373V0Z" fill="#282A2F"/>
<g opacity="0.05">
<path d="M23 20C23 17.7909 21.2091 16 19 16C16.7909 16 15 17.7909 15 20C15 22.2091 16.7909 24 19 24C21.2091 24 23 22.2091 23 20Z" fill="#F2F4F7"/>
<path d="M47 20C47 17.7909 45.2091 16 43 16C40.7909 16 39 17.7909 39 20C39 22.2091 40.7909 24 43 24C45.2091 24 47 22.2091 47 20Z" fill="#F2F4F7"/>
<path d="M71 20C71 17.7909 69.2091 16 67 16C64.7909 16 63 17.7909 63 20C63 22.2091 64.7909 24 67 24C69.2091 24 71 22.2091 71 20Z" fill="#F2F4F7"/>
<path d="M95 20C95 17.7909 93.2091 16 91 16C88.7909 16 87 17.7909 87 20C87 22.2091 88.7909 24 91 24C93.2091 24 95 22.2091 95 20Z" fill="#F2F4F7"/>
<path d="M119 20C119 17.7909 117.209 16 115 16C112.791 16 111 17.7909 111 20C111 22.2091 112.791 24 115 24C117.209 24 119 22.2091 119 20Z" fill="#F2F4F7"/>
<path d="M143 20C143 17.7909 141.209 16 139 16C136.791 16 135 17.7909 135 20C135 22.2091 136.791 24 139 24C141.209 24 143 22.2091 143 20Z" fill="#F2F4F7"/>
<path d="M167 20C167 17.7909 165.209 16 163 16C160.791 16 159 17.7909 159 20C159 22.2091 160.791 24 163 24C165.209 24 167 22.2091 167 20Z" fill="#F2F4F7"/>
<path d="M191 20C191 17.7909 189.209 16 187 16C184.791 16 183 17.7909 183 20C183 22.2091 184.791 24 187 24C189.209 24 191 22.2091 191 20Z" fill="#F2F4F7"/>
<path d="M215 20C215 17.7909 213.209 16 211 16C208.791 16 207 17.7909 207 20C207 22.2091 208.791 24 211 24C213.209 24 215 22.2091 215 20Z" fill="#F2F4F7"/>
<path d="M239 20C239 17.7909 237.209 16 235 16C232.791 16 231 17.7909 231 20C231 22.2091 232.791 24 235 24C237.209 24 239 22.2091 239 20Z" fill="#F2F4F7"/>
<path d="M263 20C263 17.7909 261.209 16 259 16C256.791 16 255 17.7909 255 20C255 22.2091 256.791 24 259 24C261.209 24 263 22.2091 263 20Z" fill="#F2F4F7"/>
<path d="M287 20C287 17.7909 285.209 16 283 16C280.791 16 279 17.7909 279 20C279 22.2091 280.791 24 283 24C285.209 24 287 22.2091 287 20Z" fill="#F2F4F7"/>
<path d="M311 20C311 17.7909 309.209 16 307 16C304.791 16 303 17.7909 303 20C303 22.2091 304.791 24 307 24C309.209 24 311 22.2091 311 20Z" fill="#F2F4F7"/>
<path d="M335 20C335 17.7909 333.209 16 331 16C328.791 16 327 17.7909 327 20C327 22.2091 328.791 24 331 24C333.209 24 335 22.2091 335 20Z" fill="#F2F4F7"/>
<path d="M359 20C359 17.7909 357.209 16 355 16C352.791 16 351 17.7909 351 20C351 22.2091 352.791 24 355 24C357.209 24 359 22.2091 359 20Z" fill="#F2F4F7"/>
<path d="M23 44C23 41.7909 21.2091 40 19 40C16.7909 40 15 41.7909 15 44C15 46.2091 16.7909 48 19 48C21.2091 48 23 46.2091 23 44Z" fill="#F2F4F7"/>
<path d="M47 44C47 41.7909 45.2091 40 43 40C40.7909 40 39 41.7909 39 44C39 46.2091 40.7909 48 43 48C45.2091 48 47 46.2091 47 44Z" fill="#F2F4F7"/>
<path d="M71 44C71 41.7909 69.2091 40 67 40C64.7909 40 63 41.7909 63 44C63 46.2091 64.7909 48 67 48C69.2091 48 71 46.2091 71 44Z" fill="#F2F4F7"/>
<path d="M95 44C95 41.7909 93.2091 40 91 40C88.7909 40 87 41.7909 87 44C87 46.2091 88.7909 48 91 48C93.2091 48 95 46.2091 95 44Z" fill="#F2F4F7"/>
<path d="M119 44C119 41.7909 117.209 40 115 40C112.791 40 111 41.7909 111 44C111 46.2091 112.791 48 115 48C117.209 48 119 46.2091 119 44Z" fill="#F2F4F7"/>
<path d="M143 44C143 41.7909 141.209 40 139 40C136.791 40 135 41.7909 135 44C135 46.2091 136.791 48 139 48C141.209 48 143 46.2091 143 44Z" fill="#F2F4F7"/>
<path d="M167 44C167 41.7909 165.209 40 163 40C160.791 40 159 41.7909 159 44C159 46.2091 160.791 48 163 48C165.209 48 167 46.2091 167 44Z" fill="#F2F4F7"/>
<path d="M191 44C191 41.7909 189.209 40 187 40C184.791 40 183 41.7909 183 44C183 46.2091 184.791 48 187 48C189.209 48 191 46.2091 191 44Z" fill="#F2F4F7"/>
<path d="M215 44C215 41.7909 213.209 40 211 40C208.791 40 207 41.7909 207 44C207 46.2091 208.791 48 211 48C213.209 48 215 46.2091 215 44Z" fill="#F2F4F7"/>
<path d="M239 44C239 41.7909 237.209 40 235 40C232.791 40 231 41.7909 231 44C231 46.2091 232.791 48 235 48C237.209 48 239 46.2091 239 44Z" fill="#F2F4F7"/>
<path d="M263 44C263 41.7909 261.209 40 259 40C256.791 40 255 41.7909 255 44C255 46.2091 256.791 48 259 48C261.209 48 263 46.2091 263 44Z" fill="#F2F4F7"/>
<path d="M287 44C287 41.7909 285.209 40 283 40C280.791 40 279 41.7909 279 44C279 46.2091 280.791 48 283 48C285.209 48 287 46.2091 287 44Z" fill="#F2F4F7"/>
<path d="M311 44C311 41.7909 309.209 40 307 40C304.791 40 303 41.7909 303 44C303 46.2091 304.791 48 307 48C309.209 48 311 46.2091 311 44Z" fill="#F2F4F7"/>
<path d="M335 44C335 41.7909 333.209 40 331 40C328.791 40 327 41.7909 327 44C327 46.2091 328.791 48 331 48C333.209 48 335 46.2091 335 44Z" fill="#F2F4F7"/>
<path d="M359 44C359 41.7909 357.209 40 355 40C352.791 40 351 41.7909 351 44C351 46.2091 352.791 48 355 48C357.209 48 359 46.2091 359 44Z" fill="#F2F4F7"/>
<path d="M23 68C23 65.7909 21.2091 64 19 64C16.7909 64 15 65.7909 15 68C15 70.2091 16.7909 72 19 72C21.2091 72 23 70.2091 23 68Z" fill="#F2F4F7"/>
<path d="M47 68C47 65.7909 45.2091 64 43 64C40.7909 64 39 65.7909 39 68C39 70.2091 40.7909 72 43 72C45.2091 72 47 70.2091 47 68Z" fill="#F2F4F7"/>
<path d="M71 68C71 65.7909 69.2091 64 67 64C64.7909 64 63 65.7909 63 68C63 70.2091 64.7909 72 67 72C69.2091 72 71 70.2091 71 68Z" fill="#F2F4F7"/>
<path d="M95 68C95 65.7909 93.2091 64 91 64C88.7909 64 87 65.7909 87 68C87 70.2091 88.7909 72 91 72C93.2091 72 95 70.2091 95 68Z" fill="#F2F4F7"/>
<path d="M119 68C119 65.7909 117.209 64 115 64C112.791 64 111 65.7909 111 68C111 70.2091 112.791 72 115 72C117.209 72 119 70.2091 119 68Z" fill="#F2F4F7"/>
<path d="M143 68C143 65.7909 141.209 64 139 64C136.791 64 135 65.7909 135 68C135 70.2091 136.791 72 139 72C141.209 72 143 70.2091 143 68Z" fill="#F2F4F7"/>
<path d="M167 68C167 65.7909 165.209 64 163 64C160.791 64 159 65.7909 159 68C159 70.2091 160.791 72 163 72C165.209 72 167 70.2091 167 68Z" fill="#F2F4F7"/>
<path d="M191 68C191 65.7909 189.209 64 187 64C184.791 64 183 65.7909 183 68C183 70.2091 184.791 72 187 72C189.209 72 191 70.2091 191 68Z" fill="#F2F4F7"/>
<path d="M215 68C215 65.7909 213.209 64 211 64C208.791 64 207 65.7909 207 68C207 70.2091 208.791 72 211 72C213.209 72 215 70.2091 215 68Z" fill="#F2F4F7"/>
<path d="M239 68C239 65.7909 237.209 64 235 64C232.791 64 231 65.7909 231 68C231 70.2091 232.791 72 235 72C237.209 72 239 70.2091 239 68Z" fill="#F2F4F7"/>
<path d="M263 68C263 65.7909 261.209 64 259 64C256.791 64 255 65.7909 255 68C255 70.2091 256.791 72 259 72C261.209 72 263 70.2091 263 68Z" fill="#F2F4F7"/>
<path d="M287 68C287 65.7909 285.209 64 283 64C280.791 64 279 65.7909 279 68C279 70.2091 280.791 72 283 72C285.209 72 287 70.2091 287 68Z" fill="#F2F4F7"/>
<path d="M311 68C311 65.7909 309.209 64 307 64C304.791 64 303 65.7909 303 68C303 70.2091 304.791 72 307 72C309.209 72 311 70.2091 311 68Z" fill="#F2F4F7"/>
<path d="M335 68C335 65.7909 333.209 64 331 64C328.791 64 327 65.7909 327 68C327 70.2091 328.791 72 331 72C333.209 72 335 70.2091 335 68Z" fill="#F2F4F7"/>
<path d="M359 68C359 65.7909 357.209 64 355 64C352.791 64 351 65.7909 351 68C351 70.2091 352.791 72 355 72C357.209 72 359 70.2091 359 68Z" fill="#F2F4F7"/>
<path d="M23 92C23 89.7909 21.2091 88 19 88C16.7909 88 15 89.7909 15 92C15 94.2091 16.7909 96 19 96C21.2091 96 23 94.2091 23 92Z" fill="#F2F4F7"/>
<path d="M47 92C47 89.7909 45.2091 88 43 88C40.7909 88 39 89.7909 39 92C39 94.2091 40.7909 96 43 96C45.2091 96 47 94.2091 47 92Z" fill="#F2F4F7"/>
<path d="M71 92C71 89.7909 69.2091 88 67 88C64.7909 88 63 89.7909 63 92C63 94.2091 64.7909 96 67 96C69.2091 96 71 94.2091 71 92Z" fill="#F2F4F7"/>
<path d="M95 92C95 89.7909 93.2091 88 91 88C88.7909 88 87 89.7909 87 92C87 94.2091 88.7909 96 91 96C93.2091 96 95 94.2091 95 92Z" fill="#F2F4F7"/>
<path d="M119 92C119 89.7909 117.209 88 115 88C112.791 88 111 89.7909 111 92C111 94.2091 112.791 96 115 96C117.209 96 119 94.2091 119 92Z" fill="#F2F4F7"/>
<path d="M143 92C143 89.7909 141.209 88 139 88C136.791 88 135 89.7909 135 92C135 94.2091 136.791 96 139 96C141.209 96 143 94.2091 143 92Z" fill="#F2F4F7"/>
<path d="M167 92C167 89.7909 165.209 88 163 88C160.791 88 159 89.7909 159 92C159 94.2091 160.791 96 163 96C165.209 96 167 94.2091 167 92Z" fill="#F2F4F7"/>
<path d="M191 92C191 89.7909 189.209 88 187 88C184.791 88 183 89.7909 183 92C183 94.2091 184.791 96 187 96C189.209 96 191 94.2091 191 92Z" fill="#F2F4F7"/>
<path d="M215 92C215 89.7909 213.209 88 211 88C208.791 88 207 89.7909 207 92C207 94.2091 208.791 96 211 96C213.209 96 215 94.2091 215 92Z" fill="#F2F4F7"/>
<path d="M239 92C239 89.7909 237.209 88 235 88C232.791 88 231 89.7909 231 92C231 94.2091 232.791 96 235 96C237.209 96 239 94.2091 239 92Z" fill="#F2F4F7"/>
<path d="M263 92C263 89.7909 261.209 88 259 88C256.791 88 255 89.7909 255 92C255 94.2091 256.791 96 259 96C261.209 96 263 94.2091 263 92Z" fill="#F2F4F7"/>
<path d="M287 92C287 89.7909 285.209 88 283 88C280.791 88 279 89.7909 279 92C279 94.2091 280.791 96 283 96C285.209 96 287 94.2091 287 92Z" fill="#F2F4F7"/>
<path d="M311 92C311 89.7909 309.209 88 307 88C304.791 88 303 89.7909 303 92C303 94.2091 304.791 96 307 96C309.209 96 311 94.2091 311 92Z" fill="#F2F4F7"/>
<path d="M335 92C335 89.7909 333.209 88 331 88C328.791 88 327 89.7909 327 92C327 94.2091 328.791 96 331 96C333.209 96 335 94.2091 335 92Z" fill="#F2F4F7"/>
<path d="M359 92C359 89.7909 357.209 88 355 88C352.791 88 351 89.7909 351 92C351 94.2091 352.791 96 355 96C357.209 96 359 94.2091 359 92Z" fill="#F2F4F7"/>
<path d="M23 116C23 113.791 21.2091 112 19 112C16.7909 112 15 113.791 15 116C15 118.209 16.7909 120 19 120C21.2091 120 23 118.209 23 116Z" fill="#F2F4F7"/>
<path d="M47 116C47 113.791 45.2091 112 43 112C40.7909 112 39 113.791 39 116C39 118.209 40.7909 120 43 120C45.2091 120 47 118.209 47 116Z" fill="#F2F4F7"/>
<path d="M71 116C71 113.791 69.2091 112 67 112C64.7909 112 63 113.791 63 116C63 118.209 64.7909 120 67 120C69.2091 120 71 118.209 71 116Z" fill="#F2F4F7"/>
<path d="M95 116C95 113.791 93.2091 112 91 112C88.7909 112 87 113.791 87 116C87 118.209 88.7909 120 91 120C93.2091 120 95 118.209 95 116Z" fill="#F2F4F7"/>
<path d="M119 116C119 113.791 117.209 112 115 112C112.791 112 111 113.791 111 116C111 118.209 112.791 120 115 120C117.209 120 119 118.209 119 116Z" fill="#F2F4F7"/>
<path d="M143 116C143 113.791 141.209 112 139 112C136.791 112 135 113.791 135 116C135 118.209 136.791 120 139 120C141.209 120 143 118.209 143 116Z" fill="#F2F4F7"/>
<path d="M167 116C167 113.791 165.209 112 163 112C160.791 112 159 113.791 159 116C159 118.209 160.791 120 163 120C165.209 120 167 118.209 167 116Z" fill="#F2F4F7"/>
<path d="M191 116C191 113.791 189.209 112 187 112C184.791 112 183 113.791 183 116C183 118.209 184.791 120 187 120C189.209 120 191 118.209 191 116Z" fill="#F2F4F7"/>
<path d="M215 116C215 113.791 213.209 112 211 112C208.791 112 207 113.791 207 116C207 118.209 208.791 120 211 120C213.209 120 215 118.209 215 116Z" fill="#F2F4F7"/>
<path d="M239 116C239 113.791 237.209 112 235 112C232.791 112 231 113.791 231 116C231 118.209 232.791 120 235 120C237.209 120 239 118.209 239 116Z" fill="#F2F4F7"/>
<path d="M263 116C263 113.791 261.209 112 259 112C256.791 112 255 113.791 255 116C255 118.209 256.791 120 259 120C261.209 120 263 118.209 263 116Z" fill="#F2F4F7"/>
<path d="M287 116C287 113.791 285.209 112 283 112C280.791 112 279 113.791 279 116C279 118.209 280.791 120 283 120C285.209 120 287 118.209 287 116Z" fill="#F2F4F7"/>
<path d="M311 116C311 113.791 309.209 112 307 112C304.791 112 303 113.791 303 116C303 118.209 304.791 120 307 120C309.209 120 311 118.209 311 116Z" fill="#F2F4F7"/>
<path d="M335 116C335 113.791 333.209 112 331 112C328.791 112 327 113.791 327 116C327 118.209 328.791 120 331 120C333.209 120 335 118.209 335 116Z" fill="#F2F4F7"/>
<path d="M359 116C359 113.791 357.209 112 355 112C352.791 112 351 113.791 351 116C351 118.209 352.791 120 355 120C357.209 120 359 118.209 359 116Z" fill="#F2F4F7"/>
<path d="M23 140C23 137.791 21.2091 136 19 136C16.7909 136 15 137.791 15 140C15 142.209 16.7909 144 19 144C21.2091 144 23 142.209 23 140Z" fill="#F2F4F7"/>
<path d="M47 140C47 137.791 45.2091 136 43 136C40.7909 136 39 137.791 39 140C39 142.209 40.7909 144 43 144C45.2091 144 47 142.209 47 140Z" fill="#F2F4F7"/>
<path d="M71 140C71 137.791 69.2091 136 67 136C64.7909 136 63 137.791 63 140C63 142.209 64.7909 144 67 144C69.2091 144 71 142.209 71 140Z" fill="#F2F4F7"/>
<path d="M95 140C95 137.791 93.2091 136 91 136C88.7909 136 87 137.791 87 140C87 142.209 88.7909 144 91 144C93.2091 144 95 142.209 95 140Z" fill="#F2F4F7"/>
<path d="M119 140C119 137.791 117.209 136 115 136C112.791 136 111 137.791 111 140C111 142.209 112.791 144 115 144C117.209 144 119 142.209 119 140Z" fill="#F2F4F7"/>
<path d="M143 140C143 137.791 141.209 136 139 136C136.791 136 135 137.791 135 140C135 142.209 136.791 144 139 144C141.209 144 143 142.209 143 140Z" fill="#F2F4F7"/>
<path d="M167 140C167 137.791 165.209 136 163 136C160.791 136 159 137.791 159 140C159 142.209 160.791 144 163 144C165.209 144 167 142.209 167 140Z" fill="#F2F4F7"/>
<path d="M191 140C191 137.791 189.209 136 187 136C184.791 136 183 137.791 183 140C183 142.209 184.791 144 187 144C189.209 144 191 142.209 191 140Z" fill="#F2F4F7"/>
<path d="M215 140C215 137.791 213.209 136 211 136C208.791 136 207 137.791 207 140C207 142.209 208.791 144 211 144C213.209 144 215 142.209 215 140Z" fill="#F2F4F7"/>
<path d="M239 140C239 137.791 237.209 136 235 136C232.791 136 231 137.791 231 140C231 142.209 232.791 144 235 144C237.209 144 239 142.209 239 140Z" fill="#F2F4F7"/>
<path d="M263 140C263 137.791 261.209 136 259 136C256.791 136 255 137.791 255 140C255 142.209 256.791 144 259 144C261.209 144 263 142.209 263 140Z" fill="#F2F4F7"/>
<path d="M287 140C287 137.791 285.209 136 283 136C280.791 136 279 137.791 279 140C279 142.209 280.791 144 283 144C285.209 144 287 142.209 287 140Z" fill="#F2F4F7"/>
<path d="M311 140C311 137.791 309.209 136 307 136C304.791 136 303 137.791 303 140C303 142.209 304.791 144 307 144C309.209 144 311 142.209 311 140Z" fill="#F2F4F7"/>
<path d="M335 140C335 137.791 333.209 136 331 136C328.791 136 327 137.791 327 140C327 142.209 328.791 144 331 144C333.209 144 335 142.209 335 140Z" fill="#F2F4F7"/>
<path d="M359 140C359 137.791 357.209 136 355 136C352.791 136 351 137.791 351 140C351 142.209 352.791 144 355 144C357.209 144 359 142.209 359 140Z" fill="#F2F4F7"/>
<path d="M23 164C23 161.791 21.2091 160 19 160C16.7909 160 15 161.791 15 164C15 166.209 16.7909 168 19 168C21.2091 168 23 166.209 23 164Z" fill="#F2F4F7"/>
<path d="M47 164C47 161.791 45.2091 160 43 160C40.7909 160 39 161.791 39 164C39 166.209 40.7909 168 43 168C45.2091 168 47 166.209 47 164Z" fill="#F2F4F7"/>
<path d="M71 164C71 161.791 69.2091 160 67 160C64.7909 160 63 161.791 63 164C63 166.209 64.7909 168 67 168C69.2091 168 71 166.209 71 164Z" fill="#F2F4F7"/>
<path d="M95 164C95 161.791 93.2091 160 91 160C88.7909 160 87 161.791 87 164C87 166.209 88.7909 168 91 168C93.2091 168 95 166.209 95 164Z" fill="#F2F4F7"/>
<path d="M119 164C119 161.791 117.209 160 115 160C112.791 160 111 161.791 111 164C111 166.209 112.791 168 115 168C117.209 168 119 166.209 119 164Z" fill="#F2F4F7"/>
<path d="M143 164C143 161.791 141.209 160 139 160C136.791 160 135 161.791 135 164C135 166.209 136.791 168 139 168C141.209 168 143 166.209 143 164Z" fill="#F2F4F7"/>
<path d="M167 164C167 161.791 165.209 160 163 160C160.791 160 159 161.791 159 164C159 166.209 160.791 168 163 168C165.209 168 167 166.209 167 164Z" fill="#F2F4F7"/>
<path d="M191 164C191 161.791 189.209 160 187 160C184.791 160 183 161.791 183 164C183 166.209 184.791 168 187 168C189.209 168 191 166.209 191 164Z" fill="#F2F4F7"/>
<path d="M215 164C215 161.791 213.209 160 211 160C208.791 160 207 161.791 207 164C207 166.209 208.791 168 211 168C213.209 168 215 166.209 215 164Z" fill="#F2F4F7"/>
<path d="M239 164C239 161.791 237.209 160 235 160C232.791 160 231 161.791 231 164C231 166.209 232.791 168 235 168C237.209 168 239 166.209 239 164Z" fill="#F2F4F7"/>
<path d="M263 164C263 161.791 261.209 160 259 160C256.791 160 255 161.791 255 164C255 166.209 256.791 168 259 168C261.209 168 263 166.209 263 164Z" fill="#F2F4F7"/>
<path d="M287 164C287 161.791 285.209 160 283 160C280.791 160 279 161.791 279 164C279 166.209 280.791 168 283 168C285.209 168 287 166.209 287 164Z" fill="#F2F4F7"/>
<path d="M311 164C311 161.791 309.209 160 307 160C304.791 160 303 161.791 303 164C303 166.209 304.791 168 307 168C309.209 168 311 166.209 311 164Z" fill="#F2F4F7"/>
<path d="M335 164C335 161.791 333.209 160 331 160C328.791 160 327 161.791 327 164C327 166.209 328.791 168 331 168C333.209 168 335 166.209 335 164Z" fill="#F2F4F7"/>
<path d="M359 164C359 161.791 357.209 160 355 160C352.791 160 351 161.791 351 164C351 166.209 352.791 168 355 168C357.209 168 359 166.209 359 164Z" fill="#F2F4F7"/>
<path d="M23 188C23 185.791 21.2091 184 19 184C16.7909 184 15 185.791 15 188C15 190.209 16.7909 192 19 192C21.2091 192 23 190.209 23 188Z" fill="#F2F4F7"/>
<path d="M47 188C47 185.791 45.2091 184 43 184C40.7909 184 39 185.791 39 188C39 190.209 40.7909 192 43 192C45.2091 192 47 190.209 47 188Z" fill="#F2F4F7"/>
<path d="M71 188C71 185.791 69.2091 184 67 184C64.7909 184 63 185.791 63 188C63 190.209 64.7909 192 67 192C69.2091 192 71 190.209 71 188Z" fill="#F2F4F7"/>
<path d="M95 188C95 185.791 93.2091 184 91 184C88.7909 184 87 185.791 87 188C87 190.209 88.7909 192 91 192C93.2091 192 95 190.209 95 188Z" fill="#F2F4F7"/>
<path d="M119 188C119 185.791 117.209 184 115 184C112.791 184 111 185.791 111 188C111 190.209 112.791 192 115 192C117.209 192 119 190.209 119 188Z" fill="#F2F4F7"/>
<path d="M143 188C143 185.791 141.209 184 139 184C136.791 184 135 185.791 135 188C135 190.209 136.791 192 139 192C141.209 192 143 190.209 143 188Z" fill="#F2F4F7"/>
<path d="M167 188C167 185.791 165.209 184 163 184C160.791 184 159 185.791 159 188C159 190.209 160.791 192 163 192C165.209 192 167 190.209 167 188Z" fill="#F2F4F7"/>
<path d="M191 188C191 185.791 189.209 184 187 184C184.791 184 183 185.791 183 188C183 190.209 184.791 192 187 192C189.209 192 191 190.209 191 188Z" fill="#F2F4F7"/>
<path d="M215 188C215 185.791 213.209 184 211 184C208.791 184 207 185.791 207 188C207 190.209 208.791 192 211 192C213.209 192 215 190.209 215 188Z" fill="#F2F4F7"/>
<path d="M239 188C239 185.791 237.209 184 235 184C232.791 184 231 185.791 231 188C231 190.209 232.791 192 235 192C237.209 192 239 190.209 239 188Z" fill="#F2F4F7"/>
<path d="M263 188C263 185.791 261.209 184 259 184C256.791 184 255 185.791 255 188C255 190.209 256.791 192 259 192C261.209 192 263 190.209 263 188Z" fill="#F2F4F7"/>
<path d="M287 188C287 185.791 285.209 184 283 184C280.791 184 279 185.791 279 188C279 190.209 280.791 192 283 192C285.209 192 287 190.209 287 188Z" fill="#F2F4F7"/>
<path d="M311 188C311 185.791 309.209 184 307 184C304.791 184 303 185.791 303 188C303 190.209 304.791 192 307 192C309.209 192 311 190.209 311 188Z" fill="#F2F4F7"/>
<path d="M335 188C335 185.791 333.209 184 331 184C328.791 184 327 185.791 327 188C327 190.209 328.791 192 331 192C333.209 192 335 190.209 335 188Z" fill="#F2F4F7"/>
<path d="M359 188C359 185.791 357.209 184 355 184C352.791 184 351 185.791 351 188C351 190.209 352.791 192 355 192C357.209 192 359 190.209 359 188Z" fill="#F2F4F7"/>
<path d="M23 212C23 209.791 21.2091 208 19 208C16.7909 208 15 209.791 15 212C15 214.209 16.7909 216 19 216C21.2091 216 23 214.209 23 212Z" fill="#F2F4F7"/>
<path d="M47 212C47 209.791 45.2091 208 43 208C40.7909 208 39 209.791 39 212C39 214.209 40.7909 216 43 216C45.2091 216 47 214.209 47 212Z" fill="#F2F4F7"/>
<path d="M71 212C71 209.791 69.2091 208 67 208C64.7909 208 63 209.791 63 212C63 214.209 64.7909 216 67 216C69.2091 216 71 214.209 71 212Z" fill="#F2F4F7"/>
<path d="M95 212C95 209.791 93.2091 208 91 208C88.7909 208 87 209.791 87 212C87 214.209 88.7909 216 91 216C93.2091 216 95 214.209 95 212Z" fill="#F2F4F7"/>
<path d="M119 212C119 209.791 117.209 208 115 208C112.791 208 111 209.791 111 212C111 214.209 112.791 216 115 216C117.209 216 119 214.209 119 212Z" fill="#F2F4F7"/>
<path d="M143 212C143 209.791 141.209 208 139 208C136.791 208 135 209.791 135 212C135 214.209 136.791 216 139 216C141.209 216 143 214.209 143 212Z" fill="#F2F4F7"/>
<path d="M167 212C167 209.791 165.209 208 163 208C160.791 208 159 209.791 159 212C159 214.209 160.791 216 163 216C165.209 216 167 214.209 167 212Z" fill="#F2F4F7"/>
<path d="M191 212C191 209.791 189.209 208 187 208C184.791 208 183 209.791 183 212C183 214.209 184.791 216 187 216C189.209 216 191 214.209 191 212Z" fill="#F2F4F7"/>
<path d="M215 212C215 209.791 213.209 208 211 208C208.791 208 207 209.791 207 212C207 214.209 208.791 216 211 216C213.209 216 215 214.209 215 212Z" fill="#F2F4F7"/>
<path d="M239 212C239 209.791 237.209 208 235 208C232.791 208 231 209.791 231 212C231 214.209 232.791 216 235 216C237.209 216 239 214.209 239 212Z" fill="#F2F4F7"/>
<path d="M263 212C263 209.791 261.209 208 259 208C256.791 208 255 209.791 255 212C255 214.209 256.791 216 259 216C261.209 216 263 214.209 263 212Z" fill="#F2F4F7"/>
<path d="M287 212C287 209.791 285.209 208 283 208C280.791 208 279 209.791 279 212C279 214.209 280.791 216 283 216C285.209 216 287 214.209 287 212Z" fill="#F2F4F7"/>
<path d="M311 212C311 209.791 309.209 208 307 208C304.791 208 303 209.791 303 212C303 214.209 304.791 216 307 216C309.209 216 311 214.209 311 212Z" fill="#F2F4F7"/>
<path d="M335 212C335 209.791 333.209 208 331 208C328.791 208 327 209.791 327 212C327 214.209 328.791 216 331 216C333.209 216 335 214.209 335 212Z" fill="#F2F4F7"/>
<path d="M359 212C359 209.791 357.209 208 355 208C352.791 208 351 209.791 351 212C351 214.209 352.791 216 355 216C357.209 216 359 214.209 359 212Z" fill="#F2F4F7"/>
</g>
<path d="M373 17H0V217H373V17Z" fill="url(#paint0_linear_2851_17495)"/>
<path d="M291 28.5H83C74.4396 28.5 67.5 35.4396 67.5 44V200C67.5 208.56 74.4396 215.5 83 215.5H291C299.56 215.5 306.5 208.56 306.5 200V44C306.5 35.4396 299.56 28.5 291 28.5Z" fill="#111318"/>
<g filter="url(#filter0_dd_2851_17495)">
<rect x="122.6" y="68" width="68" height="68" rx="13.25" transform="rotate(15 122.6 68)" fill="#222429" shape-rendering="crispEdges"/>
<path d="M138.2 111.521L151.278 96.773C151.377 96.6611 151.56 96.7593 151.521 96.9037L149.014 106.261C148.884 106.745 149.284 107.207 149.782 107.147L154.468 106.588C155.115 106.511 155.514 107.274 155.082 107.762L142.004 122.51C141.905 122.621 141.723 122.523 141.762 122.379L144.269 113.022C144.398 112.538 143.998 112.076 143.501 112.135L138.814 112.694C138.167 112.771 137.768 112.008 138.2 111.521Z" fill="white" stroke="white" stroke-width="2.83333" stroke-linecap="round"/>
</g>
<g filter="url(#filter1_dd_2851_17495)">
<rect x="195.883" y="68" width="68" height="68" rx="13.25" transform="rotate(15 195.883 68)" fill="#222429" shape-rendering="crispEdges"/>
<path d="M231.917 105.936L229.283 115.768C228.524 118.6 225.609 120.283 222.776 119.524L212.513 116.774C212.041 116.648 211.606 116.465 211.198 116.224C210.608 115.879 208.103 113.982 208.69 111.79L223.372 102.931C223.659 102.766 225.69 106.555 225.992 106.702C226.304 106.852 226.688 106.856 227.01 106.678L230.357 104.737C231.581 104.031 232.286 104.561 231.917 105.936Z" fill="#F5C229"/>
<path d="M223.91 105.605L210.286 113.471C209.661 113.832 208.873 113.489 208.71 112.785C208.517 111.986 208.529 111.12 208.757 110.268L211.392 100.436C211.76 99.0608 212.636 98.9544 213.342 100.178L215.278 103.545C215.573 104.042 216.23 104.218 216.735 103.936L221.396 101.236C221.904 100.943 222.561 101.119 222.854 101.626L224.311 104.151C224.594 104.656 224.418 105.312 223.91 105.605Z" fill="#F5C229"/>
</g>
<g filter="url(#filter2_dd_2851_17495)">
<rect x="82" y="164" width="210" height="33" rx="8" fill="url(#paint1_linear_2851_17495)" shape-rendering="crispEdges"/>
<path d="M145.228 185.668C144.509 185.668 143.879 185.542 143.338 185.29C142.797 185.029 142.377 184.665 142.078 184.198C141.779 183.731 141.63 183.185 141.63 182.56H143.1C143.109 182.915 143.193 183.241 143.352 183.54C143.52 183.829 143.758 184.063 144.066 184.24C144.383 184.408 144.771 184.492 145.228 184.492C145.62 184.492 145.956 184.427 146.236 184.296C146.525 184.165 146.745 183.988 146.894 183.764C147.043 183.531 147.118 183.265 147.118 182.966C147.118 182.621 147.039 182.336 146.88 182.112C146.721 181.888 146.507 181.706 146.236 181.566C145.975 181.417 145.667 181.286 145.312 181.174C144.967 181.062 144.603 180.941 144.22 180.81C143.445 180.558 142.867 180.231 142.484 179.83C142.111 179.429 141.924 178.906 141.924 178.262C141.924 177.711 142.055 177.235 142.316 176.834C142.577 176.423 142.941 176.106 143.408 175.882C143.884 175.649 144.444 175.532 145.088 175.532C145.723 175.532 146.278 175.649 146.754 175.882C147.23 176.115 147.603 176.437 147.874 176.848C148.145 177.259 148.28 177.739 148.28 178.29H146.796C146.796 178.038 146.731 177.791 146.6 177.548C146.469 177.305 146.273 177.109 146.012 176.96C145.751 176.801 145.429 176.722 145.046 176.722C144.729 176.713 144.444 176.764 144.192 176.876C143.94 176.988 143.744 177.151 143.604 177.366C143.464 177.581 143.394 177.837 143.394 178.136C143.394 178.435 143.455 178.677 143.576 178.864C143.707 179.041 143.893 179.195 144.136 179.326C144.379 179.457 144.659 179.578 144.976 179.69C145.303 179.793 145.662 179.909 146.054 180.04C146.539 180.199 146.969 180.395 147.342 180.628C147.725 180.852 148.023 181.146 148.238 181.51C148.462 181.865 148.574 182.322 148.574 182.882C148.574 183.367 148.448 183.82 148.196 184.24C147.944 184.66 147.571 185.005 147.076 185.276C146.581 185.537 145.965 185.668 145.228 185.668ZM152.759 185.668C152.208 185.668 151.727 185.556 151.317 185.332C150.915 185.108 150.603 184.772 150.379 184.324C150.164 183.876 150.057 183.311 150.057 182.63V178.444H151.457V182.476C151.457 183.139 151.601 183.638 151.891 183.974C152.18 184.31 152.595 184.478 153.137 184.478C153.501 184.478 153.827 184.389 154.117 184.212C154.415 184.035 154.649 183.778 154.817 183.442C154.985 183.106 155.069 182.695 155.069 182.21V178.444H156.469V185.5H155.223L155.125 184.296C154.91 184.725 154.597 185.061 154.187 185.304C153.776 185.547 153.3 185.668 152.759 185.668ZM162.236 185.668C161.853 185.668 161.503 185.612 161.186 185.5C160.878 185.397 160.607 185.253 160.374 185.066C160.14 184.879 159.944 184.665 159.786 184.422L159.646 185.5H158.386V175.42H159.786V179.55C160.01 179.195 160.322 178.897 160.724 178.654C161.134 178.402 161.638 178.276 162.236 178.276C162.908 178.276 163.5 178.439 164.014 178.766C164.527 179.083 164.924 179.522 165.204 180.082C165.493 180.633 165.638 181.267 165.638 181.986C165.638 182.686 165.493 183.316 165.204 183.876C164.924 184.436 164.527 184.875 164.014 185.192C163.5 185.509 162.908 185.668 162.236 185.668ZM162.012 184.45C162.441 184.45 162.819 184.347 163.146 184.142C163.482 183.937 163.743 183.647 163.93 183.274C164.126 182.901 164.224 182.467 164.224 181.972C164.224 181.477 164.126 181.048 163.93 180.684C163.743 180.311 163.482 180.021 163.146 179.816C162.819 179.601 162.441 179.494 162.012 179.494C161.573 179.494 161.186 179.601 160.85 179.816C160.523 180.021 160.266 180.311 160.08 180.684C159.893 181.048 159.8 181.477 159.8 181.972C159.8 182.467 159.893 182.901 160.08 183.274C160.266 183.647 160.523 183.937 160.85 184.142C161.186 184.347 161.573 184.45 162.012 184.45ZM170.002 185.668C169.405 185.668 168.882 185.57 168.434 185.374C167.986 185.178 167.632 184.903 167.37 184.548C167.109 184.193 166.95 183.778 166.894 183.302H168.322C168.369 183.526 168.458 183.731 168.588 183.918C168.728 184.105 168.915 184.254 169.148 184.366C169.391 184.478 169.676 184.534 170.002 184.534C170.31 184.534 170.562 184.492 170.758 184.408C170.964 184.315 171.113 184.193 171.206 184.044C171.3 183.885 171.346 183.717 171.346 183.54C171.346 183.279 171.281 183.083 171.15 182.952C171.029 182.812 170.842 182.705 170.59 182.63C170.348 182.546 170.054 182.471 169.708 182.406C169.382 182.35 169.064 182.275 168.756 182.182C168.458 182.079 168.187 181.953 167.944 181.804C167.711 181.655 167.524 181.468 167.384 181.244C167.244 181.011 167.174 180.726 167.174 180.39C167.174 179.989 167.282 179.629 167.496 179.312C167.711 178.985 168.014 178.733 168.406 178.556C168.808 178.369 169.279 178.276 169.82 178.276C170.604 178.276 171.234 178.463 171.71 178.836C172.186 179.209 172.466 179.737 172.55 180.418H171.192C171.155 180.101 171.015 179.858 170.772 179.69C170.53 179.513 170.208 179.424 169.806 179.424C169.405 179.424 169.097 179.503 168.882 179.662C168.668 179.821 168.56 180.031 168.56 180.292C168.56 180.46 168.621 180.609 168.742 180.74C168.864 180.871 169.041 180.983 169.274 181.076C169.517 181.16 169.811 181.239 170.156 181.314C170.651 181.407 171.094 181.524 171.486 181.664C171.878 181.804 172.191 182.009 172.424 182.28C172.658 182.551 172.774 182.938 172.774 183.442C172.784 183.881 172.672 184.268 172.438 184.604C172.214 184.94 171.892 185.201 171.472 185.388C171.062 185.575 170.572 185.668 170.002 185.668ZM177.685 185.668C177.003 185.668 176.397 185.514 175.865 185.206C175.333 184.889 174.913 184.455 174.605 183.904C174.306 183.353 174.157 182.714 174.157 181.986C174.157 181.249 174.306 180.605 174.605 180.054C174.913 179.494 175.333 179.06 175.865 178.752C176.397 178.435 177.003 178.276 177.685 178.276C178.543 178.276 179.262 178.5 179.841 178.948C180.419 179.396 180.788 180.003 180.947 180.768H179.491C179.397 180.357 179.183 180.04 178.847 179.816C178.52 179.592 178.128 179.48 177.671 179.48C177.297 179.48 176.952 179.578 176.635 179.774C176.317 179.961 176.061 180.241 175.865 180.614C175.678 180.978 175.585 181.431 175.585 181.972C175.585 182.373 175.641 182.733 175.753 183.05C175.865 183.358 176.014 183.619 176.201 183.834C176.397 184.049 176.621 184.212 176.873 184.324C177.125 184.427 177.391 184.478 177.671 184.478C177.979 184.478 178.254 184.431 178.497 184.338C178.749 184.235 178.959 184.086 179.127 183.89C179.304 183.694 179.425 183.461 179.491 183.19H180.947C180.788 183.937 180.419 184.539 179.841 184.996C179.262 185.444 178.543 185.668 177.685 185.668ZM182.585 185.5V178.444H183.845L183.971 179.774C184.129 179.457 184.335 179.191 184.587 178.976C184.839 178.752 185.133 178.579 185.469 178.458C185.814 178.337 186.206 178.276 186.645 178.276V179.76H186.141C185.851 179.76 185.576 179.797 185.315 179.872C185.053 179.937 184.82 180.054 184.615 180.222C184.419 180.39 184.265 180.619 184.153 180.908C184.041 181.197 183.985 181.557 183.985 181.986V185.5H182.585ZM188.029 185.5V178.444H189.429V185.5H188.029ZM188.743 177.114C188.472 177.114 188.248 177.03 188.071 176.862C187.903 176.694 187.819 176.479 187.819 176.218C187.819 175.966 187.903 175.761 188.071 175.602C188.248 175.434 188.472 175.35 188.743 175.35C189.004 175.35 189.223 175.434 189.401 175.602C189.578 175.761 189.667 175.966 189.667 176.218C189.667 176.479 189.578 176.694 189.401 176.862C189.223 177.03 189.004 177.114 188.743 177.114ZM191.431 188.58V178.444H192.691L192.831 179.536C192.98 179.321 193.167 179.121 193.391 178.934C193.615 178.738 193.881 178.579 194.189 178.458C194.506 178.337 194.875 178.276 195.295 178.276C195.967 178.276 196.555 178.439 197.059 178.766C197.572 179.093 197.969 179.536 198.249 180.096C198.538 180.647 198.683 181.277 198.683 181.986C198.683 182.695 198.538 183.33 198.249 183.89C197.959 184.441 197.558 184.875 197.045 185.192C196.541 185.509 195.953 185.668 195.281 185.668C194.73 185.668 194.245 185.561 193.825 185.346C193.405 185.122 193.073 184.814 192.831 184.422V188.58H191.431ZM195.057 184.45C195.486 184.45 195.864 184.347 196.191 184.142C196.527 183.937 196.788 183.647 196.975 183.274C197.171 182.901 197.269 182.467 197.269 181.972C197.269 181.477 197.171 181.048 196.975 180.684C196.788 180.311 196.527 180.021 196.191 179.816C195.864 179.601 195.486 179.494 195.057 179.494C194.618 179.494 194.231 179.601 193.895 179.816C193.568 180.021 193.311 180.311 193.125 180.684C192.938 181.048 192.845 181.477 192.845 181.972C192.845 182.467 192.938 182.901 193.125 183.274C193.311 183.647 193.568 183.937 193.895 184.142C194.231 184.347 194.618 184.45 195.057 184.45ZM202.956 185.5C202.508 185.5 202.12 185.43 201.794 185.29C201.467 185.15 201.215 184.917 201.038 184.59C200.86 184.263 200.772 183.82 200.772 183.26V179.634H199.554V178.444H200.772L200.94 176.68H202.172V178.444H204.174V179.634H202.172V183.274C202.172 183.675 202.256 183.951 202.424 184.1C202.592 184.24 202.881 184.31 203.292 184.31H204.104V185.5H202.956ZM205.816 185.5V178.444H207.216V185.5H205.816ZM206.53 177.114C206.259 177.114 206.035 177.03 205.858 176.862C205.69 176.694 205.606 176.479 205.606 176.218C205.606 175.966 205.69 175.761 205.858 175.602C206.035 175.434 206.259 175.35 206.53 175.35C206.791 175.35 207.01 175.434 207.188 175.602C207.365 175.761 207.454 175.966 207.454 176.218C207.454 176.479 207.365 176.694 207.188 176.862C207.01 177.03 206.791 177.114 206.53 177.114ZM212.438 185.668C211.775 185.668 211.178 185.514 210.646 185.206C210.123 184.898 209.708 184.469 209.4 183.918C209.101 183.358 208.952 182.714 208.952 181.986C208.952 181.239 209.106 180.591 209.414 180.04C209.722 179.48 210.142 179.046 210.674 178.738C211.206 178.43 211.803 178.276 212.466 178.276C213.138 178.276 213.735 178.43 214.258 178.738C214.78 179.046 215.191 179.475 215.49 180.026C215.798 180.577 215.952 181.225 215.952 181.972C215.952 182.719 215.798 183.367 215.49 183.918C215.191 184.469 214.776 184.898 214.244 185.206C213.712 185.514 213.11 185.668 212.438 185.668ZM212.438 184.464C212.82 184.464 213.166 184.371 213.474 184.184C213.791 183.997 214.043 183.722 214.23 183.358C214.426 182.985 214.524 182.523 214.524 181.972C214.524 181.421 214.43 180.964 214.244 180.6C214.057 180.227 213.805 179.947 213.488 179.76C213.18 179.573 212.839 179.48 212.466 179.48C212.092 179.48 211.747 179.573 211.43 179.76C211.112 179.947 210.856 180.227 210.66 180.6C210.473 180.964 210.38 181.421 210.38 181.972C210.38 182.523 210.473 182.985 210.66 183.358C210.856 183.722 211.108 183.997 211.416 184.184C211.733 184.371 212.074 184.464 212.438 184.464ZM217.598 185.5V178.444H218.858L218.942 179.648C219.166 179.228 219.484 178.897 219.894 178.654C220.305 178.402 220.776 178.276 221.308 178.276C221.868 178.276 222.349 178.388 222.75 178.612C223.152 178.836 223.464 179.177 223.688 179.634C223.912 180.082 224.024 180.647 224.024 181.328V185.5H222.624V181.468C222.624 180.815 222.48 180.32 222.19 179.984C221.901 179.648 221.481 179.48 220.93 179.48C220.566 179.48 220.24 179.569 219.95 179.746C219.661 179.914 219.428 180.166 219.25 180.502C219.082 180.838 218.998 181.249 218.998 181.734V185.5H217.598ZM228.545 185.668C227.948 185.668 227.425 185.57 226.977 185.374C226.529 185.178 226.175 184.903 225.913 184.548C225.652 184.193 225.493 183.778 225.437 183.302H226.865C226.912 183.526 227.001 183.731 227.131 183.918C227.271 184.105 227.458 184.254 227.691 184.366C227.934 184.478 228.219 184.534 228.545 184.534C228.853 184.534 229.105 184.492 229.301 184.408C229.507 184.315 229.656 184.193 229.749 184.044C229.843 183.885 229.889 183.717 229.889 183.54C229.889 183.279 229.824 183.083 229.693 182.952C229.572 182.812 229.385 182.705 229.133 182.63C228.891 182.546 228.597 182.471 228.251 182.406C227.925 182.35 227.607 182.275 227.299 182.182C227.001 182.079 226.73 181.953 226.487 181.804C226.254 181.655 226.067 181.468 225.927 181.244C225.787 181.011 225.717 180.726 225.717 180.39C225.717 179.989 225.825 179.629 226.039 179.312C226.254 178.985 226.557 178.733 226.949 178.556C227.351 178.369 227.822 178.276 228.363 178.276C229.147 178.276 229.777 178.463 230.253 178.836C230.729 179.209 231.009 179.737 231.093 180.418H229.735C229.698 180.101 229.558 179.858 229.315 179.69C229.073 179.513 228.751 179.424 228.349 179.424C227.948 179.424 227.64 179.503 227.425 179.662C227.211 179.821 227.103 180.031 227.103 180.292C227.103 180.46 227.164 180.609 227.285 180.74C227.407 180.871 227.584 180.983 227.817 181.076C228.06 181.16 228.354 181.239 228.699 181.314C229.194 181.407 229.637 181.524 230.029 181.664C230.421 181.804 230.734 182.009 230.967 182.28C231.201 182.551 231.317 182.938 231.317 183.442C231.327 183.881 231.215 184.268 230.981 184.604C230.757 184.94 230.435 185.201 230.015 185.388C229.605 185.575 229.115 185.668 228.545 185.668Z" fill="white"/>
</g>
<path d="M67 28H307V56H67V28Z" fill="#1C1E23"/>
<mask id="mask0_2851_17495" style="mask-type:luminance" maskUnits="userSpaceOnUse" x="67" y="28" width="240" height="28">
<path d="M67 28H307V56H67V28Z" fill="#23252A"/>
<path d="M67.5 28.5H306.5V55.5H67.5V28.5Z" stroke="white" stroke-opacity="0.1"/>
</mask>
<g mask="url(#mask0_2851_17495)">
<path d="M307 55H67V57H307V55Z" fill="#23252A"/>
<path d="M67.5 56.5V55.5H306.5V56.5H67.5Z" stroke="white" stroke-opacity="0.1"/>
</g>
<g filter="url(#filter3_d_2851_17495)">
<path d="M250.296 196.987C249.642 196.147 248.826 194.443 247.402 192.32C246.586 191.153 244.579 188.937 243.972 187.793C243.535 187.099 243.408 186.253 243.622 185.46C243.989 183.953 245.418 182.954 246.959 183.127C248.151 183.366 249.246 183.95 250.109 184.807C250.711 185.374 251.266 185.991 251.766 186.65C252.139 187.117 252.232 187.303 252.652 187.84C253.072 188.377 253.352 188.913 253.142 188.12C252.979 186.953 252.699 184.993 252.302 183.243C251.999 181.913 251.929 181.703 251.649 180.7C251.369 179.697 251.206 178.857 250.902 177.713C250.625 176.59 250.407 175.453 250.249 174.307C249.955 172.841 250.169 171.318 250.856 169.99C251.671 169.223 252.867 169.021 253.889 169.477C254.917 170.236 255.684 171.296 256.082 172.51C256.694 174.004 257.102 175.574 257.296 177.177C257.669 179.51 258.392 182.917 258.416 183.617C258.416 182.753 258.252 180.933 258.416 180.117C258.578 179.265 259.169 178.559 259.979 178.25C260.674 178.037 261.409 177.989 262.126 178.11C262.849 178.261 263.49 178.677 263.922 179.277C264.463 180.638 264.763 182.083 264.809 183.547C264.872 182.265 265.091 180.995 265.462 179.767C265.852 179.217 266.422 178.821 267.072 178.647C267.844 178.506 268.634 178.506 269.406 178.647C270.038 178.858 270.592 179.257 270.992 179.79C271.487 181.028 271.786 182.334 271.879 183.663C271.879 183.99 272.042 182.753 272.556 181.937C272.822 181.145 273.491 180.555 274.311 180.39C275.13 180.225 275.975 180.51 276.527 181.137C277.08 181.764 277.256 182.638 276.989 183.43C276.989 184.947 276.989 184.877 276.989 185.903C276.989 186.93 276.989 187.84 276.989 188.703C276.904 190.069 276.717 191.426 276.429 192.763C276.023 193.947 275.458 195.069 274.749 196.1C273.616 197.36 272.68 198.784 271.972 200.323C271.797 201.088 271.718 201.872 271.739 202.657C271.737 203.382 271.831 204.103 272.019 204.803C271.065 204.904 270.103 204.904 269.149 204.803C268.239 204.663 267.119 202.843 266.816 202.283C266.666 201.983 266.358 201.793 266.022 201.793C265.686 201.793 265.379 201.983 265.229 202.283C264.716 203.17 263.572 204.78 262.779 204.873C261.216 205.06 257.996 204.873 255.452 204.873C255.452 204.873 255.872 202.54 254.916 201.7C253.959 200.86 252.979 199.88 252.256 199.227L250.296 196.987Z" fill="white"/>
<path fill-rule="evenodd" clip-rule="evenodd" d="M250.296 196.987C249.642 196.147 248.826 194.443 247.402 192.32C246.586 191.153 244.579 188.937 243.972 187.793C243.535 187.099 243.408 186.253 243.622 185.46C243.989 183.953 245.418 182.954 246.959 183.127C248.151 183.366 249.246 183.95 250.109 184.807C250.711 185.374 251.266 185.991 251.766 186.65C252.139 187.117 252.232 187.303 252.652 187.84C253.072 188.377 253.352 188.913 253.142 188.12C252.979 186.953 252.699 184.993 252.302 183.243C251.999 181.913 251.929 181.703 251.649 180.7C251.369 179.697 251.206 178.857 250.902 177.713C250.625 176.59 250.407 175.453 250.249 174.307C249.955 172.841 250.169 171.318 250.856 169.99C251.671 169.223 252.867 169.021 253.889 169.477C254.917 170.236 255.684 171.296 256.082 172.51C256.694 174.004 257.102 175.574 257.296 177.177C257.669 179.51 258.392 182.917 258.416 183.617C258.416 182.753 258.252 180.933 258.416 180.117C258.578 179.265 259.169 178.559 259.979 178.25C260.674 178.037 261.409 177.989 262.126 178.11C262.849 178.261 263.49 178.677 263.922 179.277C264.463 180.638 264.763 182.083 264.809 183.547C264.872 182.265 265.091 180.995 265.462 179.767C265.852 179.217 266.422 178.821 267.072 178.647C267.844 178.506 268.634 178.506 269.406 178.647C270.038 178.858 270.592 179.257 270.992 179.79C271.487 181.028 271.786 182.334 271.879 183.663C271.879 183.99 272.042 182.753 272.556 181.937C272.822 181.145 273.491 180.555 274.311 180.39C275.13 180.225 275.975 180.51 276.527 181.137C277.08 181.764 277.256 182.638 276.989 183.43C276.989 184.947 276.989 184.877 276.989 185.903C276.989 186.93 276.989 187.84 276.989 188.703C276.904 190.069 276.717 191.426 276.429 192.763C276.023 193.947 275.458 195.069 274.749 196.1C273.616 197.36 272.68 198.784 271.972 200.323C271.797 201.088 271.718 201.872 271.739 202.657C271.737 203.382 271.831 204.103 272.019 204.803C271.065 204.904 270.103 204.904 269.149 204.803C268.239 204.663 267.119 202.843 266.816 202.283C266.666 201.983 266.358 201.793 266.022 201.793C265.686 201.793 265.379 201.983 265.229 202.283C264.716 203.17 263.572 204.78 262.779 204.873C261.216 205.06 257.996 204.873 255.452 204.873C255.452 204.873 255.872 202.54 254.916 201.7C253.959 200.86 252.979 199.88 252.256 199.227L250.296 196.987Z" stroke="black" stroke-width="1.75" stroke-linecap="round" stroke-linejoin="round"/>
<path d="M270.083 198.26V190.206C270.083 189.724 269.691 189.333 269.208 189.333C268.725 189.333 268.333 189.724 268.333 190.206V198.26C268.333 198.743 268.725 199.133 269.208 199.133C269.691 199.133 270.083 198.743 270.083 198.26Z" fill="black"/>
<path d="M265.463 198.258L265.416 190.199C265.413 189.718 265.019 189.331 264.536 189.333C264.053 189.336 263.663 189.728 263.666 190.209L263.713 198.268C263.715 198.748 264.109 199.136 264.593 199.133C265.076 199.131 265.465 198.738 265.463 198.258Z" fill="black"/>
<path d="M258.999 190.218L259.046 198.259C259.049 198.745 259.443 199.136 259.926 199.133C260.409 199.131 260.798 198.735 260.796 198.249L260.749 190.207C260.746 189.722 260.352 189.331 259.869 189.333C259.386 189.336 258.996 189.732 258.999 190.218Z" fill="black"/>
</g>
<path d="M85 42C85 40.3431 83.6569 39 82 39C80.3431 39 79 40.3431 79 42C79 43.6569 80.3431 45 82 45C83.6569 45 85 43.6569 85 42Z" fill="#F04438"/>
<path d="M95 42C95 40.3431 93.6569 39 92 39C90.3431 39 89 40.3431 89 42C89 43.6569 90.3431 45 92 45C93.6569 45 95 43.6569 95 42Z" fill="#FEC84B"/>
<path d="M105 42C105 40.3431 103.657 39 102 39C100.343 39 99 40.3431 99 42C99 43.6569 100.343 45 102 45C103.657 45 105 43.6569 105 42Z" fill="#17B26A"/>
<path d="M291 36H119C116.791 36 115 37.7909 115 40V44C115 46.2091 116.791 48 119 48H291C293.209 48 295 46.2091 295 44V40C295 37.7909 293.209 36 291 36Z" fill="#13151A"/>
</g>
<defs>
<filter id="filter0_dd_2851_17495" x="71" y="62.3333" width="151.282" height="151.283" filterUnits="userSpaceOnUse" color-interpolation-filters="sRGB">
<feFlood flood-opacity="0" result="BackgroundImageFix"/>
<feColorMatrix in="SourceAlpha" type="matrix" values="0 0 0 0 0 0 0 0 0 0 0 0 0 0 0 0 0 0 127 0" result="hardAlpha"/>
<feOffset dy="11.3333"/>
<feGaussianBlur stdDeviation="5.66667"/>
<feComposite in2="hardAlpha" operator="out"/>
<feColorMatrix type="matrix" values="0 0 0 0 0.0627451 0 0 0 0 0.0941176 0 0 0 0 0.156863 0 0 0 0.03 0"/>
<feBlend mode="normal" in2="BackgroundImageFix" result="effect1_dropShadow_2851_17495"/>
<feColorMatrix in="SourceAlpha" type="matrix" values="0 0 0 0 0 0 0 0 0 0 0 0 0 0 0 0 0 0 127 0" result="hardAlpha"/>
<feOffset dy="28.3333"/>
<feGaussianBlur stdDeviation="17"/>
<feComposite in2="hardAlpha" operator="out"/>
<feColorMatrix type="matrix" values="0 0 0 0 0 0 0 0 0 0 0 0 0 0 0 0 0 0 0.08 0"/>
<feBlend mode="normal" in2="effect1_dropShadow_2851_17495" result="effect2_dropShadow_2851_17495"/>
<feBlend mode="normal" in="SourceGraphic" in2="effect2_dropShadow_2851_17495" result="shape"/>
</filter>
<filter id="filter1_dd_2851_17495" x="144.283" y="62.3333" width="151.282" height="151.283" filterUnits="userSpaceOnUse" color-interpolation-filters="sRGB">
<feFlood flood-opacity="0" result="BackgroundImageFix"/>
<feColorMatrix in="SourceAlpha" type="matrix" values="0 0 0 0 0 0 0 0 0 0 0 0 0 0 0 0 0 0 127 0" result="hardAlpha"/>
<feOffset dy="11.3333"/>
<feGaussianBlur stdDeviation="5.66667"/>
<feComposite in2="hardAlpha" operator="out"/>
<feColorMatrix type="matrix" values="0 0 0 0 0.0627451 0 0 0 0 0.0941176 0 0 0 0 0.156863 0 0 0 0.03 0"/>
<feBlend mode="normal" in2="BackgroundImageFix" result="effect1_dropShadow_2851_17495"/>
<feColorMatrix in="SourceAlpha" type="matrix" values="0 0 0 0 0 0 0 0 0 0 0 0 0 0 0 0 0 0 127 0" result="hardAlpha"/>
<feOffset dy="28.3333"/>
<feGaussianBlur stdDeviation="17"/>
<feComposite in2="hardAlpha" operator="out"/>
<feColorMatrix type="matrix" values="0 0 0 0 0 0 0 0 0 0 0 0 0 0 0 0 0 0 0.08 0"/>
<feBlend mode="normal" in2="effect1_dropShadow_2851_17495" result="effect2_dropShadow_2851_17495"/>
<feBlend mode="normal" in="SourceGraphic" in2="effect2_dropShadow_2851_17495" result="shape"/>
</filter>
<filter id="filter2_dd_2851_17495" x="58" y="160" width="258" height="81" filterUnits="userSpaceOnUse" color-interpolation-filters="sRGB">
<feFlood flood-opacity="0" result="BackgroundImageFix"/>
<feColorMatrix in="SourceAlpha" type="matrix" values="0 0 0 0 0 0 0 0 0 0 0 0 0 0 0 0 0 0 127 0" result="hardAlpha"/>
<feOffset dy="8"/>
<feGaussianBlur stdDeviation="4"/>
<feComposite in2="hardAlpha" operator="out"/>
<feColorMatrix type="matrix" values="0 0 0 0 0.0627451 0 0 0 0 0.0941176 0 0 0 0 0.156863 0 0 0 0.03 0"/>
<feBlend mode="normal" in2="BackgroundImageFix" result="effect1_dropShadow_2851_17495"/>
<feColorMatrix in="SourceAlpha" type="matrix" values="0 0 0 0 0 0 0 0 0 0 0 0 0 0 0 0 0 0 127 0" result="hardAlpha"/>
<feOffset dy="20"/>
<feGaussianBlur stdDeviation="12"/>
<feComposite in2="hardAlpha" operator="out"/>
<feColorMatrix type="matrix" values="0 0 0 0 0 0 0 0 0 0 0 0 0 0 0 0 0 0 0.08 0"/>
<feBlend mode="normal" in2="effect1_dropShadow_2851_17495" result="effect2_dropShadow_2851_17495"/>
<feBlend mode="normal" in="SourceGraphic" in2="effect2_dropShadow_2851_17495" result="shape"/>
</filter>
<filter id="filter3_d_2851_17495" x="240.779" y="168.361" width="39.0742" height="41.6705" filterUnits="userSpaceOnUse" color-interpolation-filters="sRGB">
<feFlood flood-opacity="0" result="BackgroundImageFix"/>
<feColorMatrix in="SourceAlpha" type="matrix" values="0 0 0 0 0 0 0 0 0 0 0 0 0 0 0 0 0 0 127 0" result="hardAlpha"/>
<feOffset dy="2.33333"/>
<feGaussianBlur stdDeviation="0.933333"/>
<feColorMatrix type="matrix" values="0 0 0 0 0 0 0 0 0 0 0 0 0 0 0 0 0 0 0.5 0"/>
<feBlend mode="normal" in2="BackgroundImageFix" result="effect1_dropShadow_2851_17495"/>
<feBlend mode="normal" in="SourceGraphic" in2="effect1_dropShadow_2851_17495" result="shape"/>
</filter>
<linearGradient id="paint0_linear_2851_17495" x1="186.5" y1="17" x2="186.5" y2="217" gradientUnits="userSpaceOnUse">
<stop stop-color="#101217" stop-opacity="0"/>
<stop offset="1" stop-color="#101217"/>
</linearGradient>
<linearGradient id="paint1_linear_2851_17495" x1="82" y1="172.961" x2="225.71" y2="283.322" gradientUnits="userSpaceOnUse">
<stop stop-color="#30C5D2"/>
<stop offset="1" stop-color="#471069"/>
</linearGradient>
<clipPath id="clip0_2851_17495">
<rect width="373" height="217" rx="12" fill="white"/>
</clipPath>
</defs>
</svg>
