<svg width="672" height="391" viewBox="0 0 672 391" fill="none" xmlns="http://www.w3.org/2000/svg">
<g clipPath="url(#clip0_2967_6280)">
<path d="M672 0H0V390.949H672V0Z" fill="#282A2F"/>
<g opacity="0.05">
<path d="M41.437 36.0321C41.437 32.0521 38.2106 28.8257 34.2306 28.8257C30.2506 28.8257 27.0242 32.0521 27.0242 36.0321C27.0242 40.0121 30.2506 43.2386 34.2306 43.2386C38.2106 43.2386 41.437 40.0121 41.437 36.0321Z" fill="#F2F4F7"/>
<path d="M84.6756 36.0321C84.6756 32.0521 81.4491 28.8257 77.4691 28.8257C73.4891 28.8257 70.2627 32.0521 70.2627 36.0321C70.2627 40.0121 73.4891 43.2386 77.4691 43.2386C81.4491 43.2386 84.6756 40.0121 84.6756 36.0321Z" fill="#F2F4F7"/>
<path d="M127.914 36.0321C127.914 32.0521 124.688 28.8257 120.708 28.8257C116.728 28.8257 113.501 32.0521 113.501 36.0321C113.501 40.0121 116.728 43.2386 120.708 43.2386C124.688 43.2386 127.914 40.0121 127.914 36.0321Z" fill="#F2F4F7"/>
<path d="M171.153 36.0321C171.153 32.0521 167.926 28.8257 163.946 28.8257C159.966 28.8257 156.74 32.0521 156.74 36.0321C156.74 40.0121 159.966 43.2386 163.946 43.2386C167.926 43.2386 171.153 40.0121 171.153 36.0321Z" fill="#F2F4F7"/>
<path d="M214.391 36.0321C214.391 32.0521 211.165 28.8257 207.185 28.8257C203.205 28.8257 199.979 32.0521 199.979 36.0321C199.979 40.0121 203.205 43.2386 207.185 43.2386C211.165 43.2386 214.391 40.0121 214.391 36.0321Z" fill="#F2F4F7"/>
<path d="M257.63 36.0321C257.63 32.0521 254.404 28.8257 250.424 28.8257C246.444 28.8257 243.217 32.0521 243.217 36.0321C243.217 40.0121 246.444 43.2386 250.424 43.2386C254.404 43.2386 257.63 40.0121 257.63 36.0321Z" fill="#F2F4F7"/>
<path d="M300.869 36.0321C300.869 32.0521 297.642 28.8257 293.662 28.8257C289.682 28.8257 286.456 32.0521 286.456 36.0321C286.456 40.0121 289.682 43.2386 293.662 43.2386C297.642 43.2386 300.869 40.0121 300.869 36.0321Z" fill="#F2F4F7"/>
<path d="M344.107 36.0321C344.107 32.0521 340.881 28.8257 336.901 28.8257C332.921 28.8257 329.694 32.0521 329.694 36.0321C329.694 40.0121 332.921 43.2386 336.901 43.2386C340.881 43.2386 344.107 40.0121 344.107 36.0321Z" fill="#F2F4F7"/>
<path d="M387.346 36.0321C387.346 32.0521 384.12 28.8257 380.14 28.8257C376.16 28.8257 372.933 32.0521 372.933 36.0321C372.933 40.0121 376.16 43.2386 380.14 43.2386C384.12 43.2386 387.346 40.0121 387.346 36.0321Z" fill="#F2F4F7"/>
<path d="M430.584 36.0321C430.584 32.0521 427.358 28.8257 423.378 28.8257C419.398 28.8257 416.172 32.0521 416.172 36.0321C416.172 40.0121 419.398 43.2386 423.378 43.2386C427.358 43.2386 430.584 40.0121 430.584 36.0321Z" fill="#F2F4F7"/>
<path d="M473.823 36.0321C473.823 32.0521 470.597 28.8257 466.617 28.8257C462.637 28.8257 459.41 32.0521 459.41 36.0321C459.41 40.0121 462.637 43.2386 466.617 43.2386C470.597 43.2386 473.823 40.0121 473.823 36.0321Z" fill="#F2F4F7"/>
<path d="M517.062 36.0321C517.062 32.0521 513.835 28.8257 509.855 28.8257C505.875 28.8257 502.649 32.0521 502.649 36.0321C502.649 40.0121 505.875 43.2386 509.855 43.2386C513.835 43.2386 517.062 40.0121 517.062 36.0321Z" fill="#F2F4F7"/>
<path d="M560.3 36.0321C560.3 32.0521 557.074 28.8257 553.094 28.8257C549.114 28.8257 545.887 32.0521 545.887 36.0321C545.887 40.0121 549.114 43.2386 553.094 43.2386C557.074 43.2386 560.3 40.0121 560.3 36.0321Z" fill="#F2F4F7"/>
<path d="M603.539 36.0321C603.539 32.0521 600.312 28.8257 596.332 28.8257C592.352 28.8257 589.126 32.0521 589.126 36.0321C589.126 40.0121 592.352 43.2386 596.332 43.2386C600.312 43.2386 603.539 40.0121 603.539 36.0321Z" fill="#F2F4F7"/>
<path d="M646.778 36.0321C646.778 32.0521 643.551 28.8257 639.571 28.8257C635.591 28.8257 632.365 32.0521 632.365 36.0321C632.365 40.0121 635.591 43.2386 639.571 43.2386C643.551 43.2386 646.778 40.0121 646.778 36.0321Z" fill="#F2F4F7"/>
<path d="M41.437 79.2706C41.437 75.2906 38.2106 72.0642 34.2306 72.0642C30.2506 72.0642 27.0242 75.2906 27.0242 79.2706C27.0242 83.2506 30.2506 86.4771 34.2306 86.4771C38.2106 86.4771 41.437 83.2506 41.437 79.2706Z" fill="#F2F4F7"/>
<path d="M84.6756 79.2706C84.6756 75.2906 81.4491 72.0642 77.4691 72.0642C73.4891 72.0642 70.2627 75.2906 70.2627 79.2706C70.2627 83.2506 73.4891 86.4771 77.4691 86.4771C81.4491 86.4771 84.6756 83.2506 84.6756 79.2706Z" fill="#F2F4F7"/>
<path d="M127.914 79.2706C127.914 75.2906 124.688 72.0642 120.708 72.0642C116.728 72.0642 113.501 75.2906 113.501 79.2706C113.501 83.2506 116.728 86.4771 120.708 86.4771C124.688 86.4771 127.914 83.2506 127.914 79.2706Z" fill="#F2F4F7"/>
<path d="M171.153 79.2706C171.153 75.2906 167.926 72.0642 163.946 72.0642C159.966 72.0642 156.74 75.2906 156.74 79.2706C156.74 83.2506 159.966 86.4771 163.946 86.4771C167.926 86.4771 171.153 83.2506 171.153 79.2706Z" fill="#F2F4F7"/>
<path d="M214.391 79.2706C214.391 75.2906 211.165 72.0642 207.185 72.0642C203.205 72.0642 199.979 75.2906 199.979 79.2706C199.979 83.2506 203.205 86.4771 207.185 86.4771C211.165 86.4771 214.391 83.2506 214.391 79.2706Z" fill="#F2F4F7"/>
<path d="M257.63 79.2706C257.63 75.2906 254.404 72.0642 250.424 72.0642C246.444 72.0642 243.217 75.2906 243.217 79.2706C243.217 83.2506 246.444 86.4771 250.424 86.4771C254.404 86.4771 257.63 83.2506 257.63 79.2706Z" fill="#F2F4F7"/>
<path d="M300.869 79.2706C300.869 75.2906 297.642 72.0642 293.662 72.0642C289.682 72.0642 286.456 75.2906 286.456 79.2706C286.456 83.2506 289.682 86.4771 293.662 86.4771C297.642 86.4771 300.869 83.2506 300.869 79.2706Z" fill="#F2F4F7"/>
<path d="M344.107 79.2706C344.107 75.2906 340.881 72.0642 336.901 72.0642C332.921 72.0642 329.694 75.2906 329.694 79.2706C329.694 83.2506 332.921 86.4771 336.901 86.4771C340.881 86.4771 344.107 83.2506 344.107 79.2706Z" fill="#F2F4F7"/>
<path d="M387.346 79.2706C387.346 75.2906 384.12 72.0642 380.14 72.0642C376.16 72.0642 372.933 75.2906 372.933 79.2706C372.933 83.2506 376.16 86.4771 380.14 86.4771C384.12 86.4771 387.346 83.2506 387.346 79.2706Z" fill="#F2F4F7"/>
<path d="M430.584 79.2706C430.584 75.2906 427.358 72.0642 423.378 72.0642C419.398 72.0642 416.172 75.2906 416.172 79.2706C416.172 83.2506 419.398 86.4771 423.378 86.4771C427.358 86.4771 430.584 83.2506 430.584 79.2706Z" fill="#F2F4F7"/>
<path d="M473.823 79.2706C473.823 75.2906 470.597 72.0642 466.617 72.0642C462.637 72.0642 459.41 75.2906 459.41 79.2706C459.41 83.2506 462.637 86.4771 466.617 86.4771C470.597 86.4771 473.823 83.2506 473.823 79.2706Z" fill="#F2F4F7"/>
<path d="M517.062 79.2706C517.062 75.2906 513.835 72.0642 509.855 72.0642C505.875 72.0642 502.649 75.2906 502.649 79.2706C502.649 83.2506 505.875 86.4771 509.855 86.4771C513.835 86.4771 517.062 83.2506 517.062 79.2706Z" fill="#F2F4F7"/>
<path d="M560.3 79.2706C560.3 75.2906 557.074 72.0642 553.094 72.0642C549.114 72.0642 545.887 75.2906 545.887 79.2706C545.887 83.2506 549.114 86.4771 553.094 86.4771C557.074 86.4771 560.3 83.2506 560.3 79.2706Z" fill="#F2F4F7"/>
<path d="M603.539 79.2706C603.539 75.2906 600.312 72.0642 596.332 72.0642C592.352 72.0642 589.126 75.2906 589.126 79.2706C589.126 83.2506 592.352 86.4771 596.332 86.4771C600.312 86.4771 603.539 83.2506 603.539 79.2706Z" fill="#F2F4F7"/>
<path d="M646.778 79.2706C646.778 75.2906 643.551 72.0642 639.571 72.0642C635.591 72.0642 632.365 75.2906 632.365 79.2706C632.365 83.2506 635.591 86.4771 639.571 86.4771C643.551 86.4771 646.778 83.2506 646.778 79.2706Z" fill="#F2F4F7"/>
<path d="M41.437 122.509C41.437 118.529 38.2106 115.303 34.2306 115.303C30.2506 115.303 27.0242 118.529 27.0242 122.509C27.0242 126.489 30.2506 129.716 34.2306 129.716C38.2106 129.716 41.437 126.489 41.437 122.509Z" fill="#F2F4F7"/>
<path d="M84.6756 122.509C84.6756 118.529 81.4491 115.303 77.4691 115.303C73.4891 115.303 70.2627 118.529 70.2627 122.509C70.2627 126.489 73.4891 129.716 77.4691 129.716C81.4491 129.716 84.6756 126.489 84.6756 122.509Z" fill="#F2F4F7"/>
<path d="M127.914 122.509C127.914 118.529 124.688 115.303 120.708 115.303C116.728 115.303 113.501 118.529 113.501 122.509C113.501 126.489 116.728 129.716 120.708 129.716C124.688 129.716 127.914 126.489 127.914 122.509Z" fill="#F2F4F7"/>
<path d="M171.153 122.509C171.153 118.529 167.926 115.303 163.946 115.303C159.966 115.303 156.74 118.529 156.74 122.509C156.74 126.489 159.966 129.716 163.946 129.716C167.926 129.716 171.153 126.489 171.153 122.509Z" fill="#F2F4F7"/>
<path d="M214.391 122.509C214.391 118.529 211.165 115.303 207.185 115.303C203.205 115.303 199.979 118.529 199.979 122.509C199.979 126.489 203.205 129.716 207.185 129.716C211.165 129.716 214.391 126.489 214.391 122.509Z" fill="#F2F4F7"/>
<path d="M257.63 122.509C257.63 118.529 254.404 115.303 250.424 115.303C246.444 115.303 243.217 118.529 243.217 122.509C243.217 126.489 246.444 129.716 250.424 129.716C254.404 129.716 257.63 126.489 257.63 122.509Z" fill="#F2F4F7"/>
<path d="M300.869 122.509C300.869 118.529 297.642 115.303 293.662 115.303C289.682 115.303 286.456 118.529 286.456 122.509C286.456 126.489 289.682 129.716 293.662 129.716C297.642 129.716 300.869 126.489 300.869 122.509Z" fill="#F2F4F7"/>
<path d="M344.107 122.509C344.107 118.529 340.881 115.303 336.901 115.303C332.921 115.303 329.694 118.529 329.694 122.509C329.694 126.489 332.921 129.716 336.901 129.716C340.881 129.716 344.107 126.489 344.107 122.509Z" fill="#F2F4F7"/>
<path d="M387.346 122.509C387.346 118.529 384.12 115.303 380.14 115.303C376.16 115.303 372.933 118.529 372.933 122.509C372.933 126.489 376.16 129.716 380.14 129.716C384.12 129.716 387.346 126.489 387.346 122.509Z" fill="#F2F4F7"/>
<path d="M430.584 122.509C430.584 118.529 427.358 115.303 423.378 115.303C419.398 115.303 416.172 118.529 416.172 122.509C416.172 126.489 419.398 129.716 423.378 129.716C427.358 129.716 430.584 126.489 430.584 122.509Z" fill="#F2F4F7"/>
<path d="M473.823 122.509C473.823 118.529 470.597 115.303 466.617 115.303C462.637 115.303 459.41 118.529 459.41 122.509C459.41 126.489 462.637 129.716 466.617 129.716C470.597 129.716 473.823 126.489 473.823 122.509Z" fill="#F2F4F7"/>
<path d="M517.062 122.509C517.062 118.529 513.835 115.303 509.855 115.303C505.875 115.303 502.649 118.529 502.649 122.509C502.649 126.489 505.875 129.716 509.855 129.716C513.835 129.716 517.062 126.489 517.062 122.509Z" fill="#F2F4F7"/>
<path d="M560.3 122.509C560.3 118.529 557.074 115.303 553.094 115.303C549.114 115.303 545.887 118.529 545.887 122.509C545.887 126.489 549.114 129.716 553.094 129.716C557.074 129.716 560.3 126.489 560.3 122.509Z" fill="#F2F4F7"/>
<path d="M603.539 122.509C603.539 118.529 600.312 115.303 596.332 115.303C592.352 115.303 589.126 118.529 589.126 122.509C589.126 126.489 592.352 129.716 596.332 129.716C600.312 129.716 603.539 126.489 603.539 122.509Z" fill="#F2F4F7"/>
<path d="M646.778 122.509C646.778 118.529 643.551 115.303 639.571 115.303C635.591 115.303 632.365 118.529 632.365 122.509C632.365 126.489 635.591 129.716 639.571 129.716C643.551 129.716 646.778 126.489 646.778 122.509Z" fill="#F2F4F7"/>
<path d="M41.437 165.748C41.437 161.768 38.2106 158.542 34.2306 158.542C30.2506 158.542 27.0242 161.768 27.0242 165.748C27.0242 169.728 30.2506 172.954 34.2306 172.954C38.2106 172.954 41.437 169.728 41.437 165.748Z" fill="#F2F4F7"/>
<path d="M84.6756 165.748C84.6756 161.768 81.4491 158.542 77.4691 158.542C73.4891 158.542 70.2627 161.768 70.2627 165.748C70.2627 169.728 73.4891 172.954 77.4691 172.954C81.4491 172.954 84.6756 169.728 84.6756 165.748Z" fill="#F2F4F7"/>
<path d="M127.914 165.748C127.914 161.768 124.688 158.542 120.708 158.542C116.728 158.542 113.501 161.768 113.501 165.748C113.501 169.728 116.728 172.954 120.708 172.954C124.688 172.954 127.914 169.728 127.914 165.748Z" fill="#F2F4F7"/>
<path d="M171.153 165.748C171.153 161.768 167.926 158.542 163.946 158.542C159.966 158.542 156.74 161.768 156.74 165.748C156.74 169.728 159.966 172.954 163.946 172.954C167.926 172.954 171.153 169.728 171.153 165.748Z" fill="#F2F4F7"/>
<path d="M214.391 165.748C214.391 161.768 211.165 158.542 207.185 158.542C203.205 158.542 199.979 161.768 199.979 165.748C199.979 169.728 203.205 172.954 207.185 172.954C211.165 172.954 214.391 169.728 214.391 165.748Z" fill="#F2F4F7"/>
<path d="M257.63 165.748C257.63 161.768 254.404 158.542 250.424 158.542C246.444 158.542 243.217 161.768 243.217 165.748C243.217 169.728 246.444 172.954 250.424 172.954C254.404 172.954 257.63 169.728 257.63 165.748Z" fill="#F2F4F7"/>
<path d="M300.869 165.748C300.869 161.768 297.642 158.542 293.662 158.542C289.682 158.542 286.456 161.768 286.456 165.748C286.456 169.728 289.682 172.954 293.662 172.954C297.642 172.954 300.869 169.728 300.869 165.748Z" fill="#F2F4F7"/>
<path d="M344.107 165.748C344.107 161.768 340.881 158.542 336.901 158.542C332.921 158.542 329.694 161.768 329.694 165.748C329.694 169.728 332.921 172.954 336.901 172.954C340.881 172.954 344.107 169.728 344.107 165.748Z" fill="#F2F4F7"/>
<path d="M387.346 165.748C387.346 161.768 384.12 158.542 380.14 158.542C376.16 158.542 372.933 161.768 372.933 165.748C372.933 169.728 376.16 172.954 380.14 172.954C384.12 172.954 387.346 169.728 387.346 165.748Z" fill="#F2F4F7"/>
<path d="M430.584 165.748C430.584 161.768 427.358 158.542 423.378 158.542C419.398 158.542 416.172 161.768 416.172 165.748C416.172 169.728 419.398 172.954 423.378 172.954C427.358 172.954 430.584 169.728 430.584 165.748Z" fill="#F2F4F7"/>
<path d="M473.823 165.748C473.823 161.768 470.597 158.542 466.617 158.542C462.637 158.542 459.41 161.768 459.41 165.748C459.41 169.728 462.637 172.954 466.617 172.954C470.597 172.954 473.823 169.728 473.823 165.748Z" fill="#F2F4F7"/>
<path d="M517.062 165.748C517.062 161.768 513.835 158.542 509.855 158.542C505.875 158.542 502.649 161.768 502.649 165.748C502.649 169.728 505.875 172.954 509.855 172.954C513.835 172.954 517.062 169.728 517.062 165.748Z" fill="#F2F4F7"/>
<path d="M560.3 165.748C560.3 161.768 557.074 158.542 553.094 158.542C549.114 158.542 545.887 161.768 545.887 165.748C545.887 169.728 549.114 172.954 553.094 172.954C557.074 172.954 560.3 169.728 560.3 165.748Z" fill="#F2F4F7"/>
<path d="M603.539 165.748C603.539 161.768 600.312 158.542 596.332 158.542C592.352 158.542 589.126 161.768 589.126 165.748C589.126 169.728 592.352 172.954 596.332 172.954C600.312 172.954 603.539 169.728 603.539 165.748Z" fill="#F2F4F7"/>
<path d="M646.778 165.748C646.778 161.768 643.551 158.542 639.571 158.542C635.591 158.542 632.365 161.768 632.365 165.748C632.365 169.728 635.591 172.954 639.571 172.954C643.551 172.954 646.778 169.728 646.778 165.748Z" fill="#F2F4F7"/>
<path d="M41.437 208.986C41.437 205.006 38.2106 201.78 34.2306 201.78C30.2506 201.78 27.0242 205.006 27.0242 208.986C27.0242 212.966 30.2506 216.193 34.2306 216.193C38.2106 216.193 41.437 212.966 41.437 208.986Z" fill="#F2F4F7"/>
<path d="M84.6756 208.986C84.6756 205.006 81.4491 201.78 77.4691 201.78C73.4891 201.78 70.2627 205.006 70.2627 208.986C70.2627 212.966 73.4891 216.193 77.4691 216.193C81.4491 216.193 84.6756 212.966 84.6756 208.986Z" fill="#F2F4F7"/>
<path d="M127.914 208.986C127.914 205.006 124.688 201.78 120.708 201.78C116.728 201.78 113.501 205.006 113.501 208.986C113.501 212.966 116.728 216.193 120.708 216.193C124.688 216.193 127.914 212.966 127.914 208.986Z" fill="#F2F4F7"/>
<path d="M171.153 208.986C171.153 205.006 167.926 201.78 163.946 201.78C159.966 201.78 156.74 205.006 156.74 208.986C156.74 212.966 159.966 216.193 163.946 216.193C167.926 216.193 171.153 212.966 171.153 208.986Z" fill="#F2F4F7"/>
<path d="M214.391 208.986C214.391 205.006 211.165 201.78 207.185 201.78C203.205 201.78 199.979 205.006 199.979 208.986C199.979 212.966 203.205 216.193 207.185 216.193C211.165 216.193 214.391 212.966 214.391 208.986Z" fill="#F2F4F7"/>
<path d="M257.63 208.986C257.63 205.006 254.404 201.78 250.424 201.78C246.444 201.78 243.217 205.006 243.217 208.986C243.217 212.966 246.444 216.193 250.424 216.193C254.404 216.193 257.63 212.966 257.63 208.986Z" fill="#F2F4F7"/>
<path d="M300.869 208.986C300.869 205.006 297.642 201.78 293.662 201.78C289.682 201.78 286.456 205.006 286.456 208.986C286.456 212.966 289.682 216.193 293.662 216.193C297.642 216.193 300.869 212.966 300.869 208.986Z" fill="#F2F4F7"/>
<path d="M344.107 208.986C344.107 205.006 340.881 201.78 336.901 201.78C332.921 201.78 329.694 205.006 329.694 208.986C329.694 212.966 332.921 216.193 336.901 216.193C340.881 216.193 344.107 212.966 344.107 208.986Z" fill="#F2F4F7"/>
<path d="M387.346 208.986C387.346 205.006 384.12 201.78 380.14 201.78C376.16 201.78 372.933 205.006 372.933 208.986C372.933 212.966 376.16 216.193 380.14 216.193C384.12 216.193 387.346 212.966 387.346 208.986Z" fill="#F2F4F7"/>
<path d="M430.584 208.986C430.584 205.006 427.358 201.78 423.378 201.78C419.398 201.78 416.172 205.006 416.172 208.986C416.172 212.966 419.398 216.193 423.378 216.193C427.358 216.193 430.584 212.966 430.584 208.986Z" fill="#F2F4F7"/>
<path d="M473.823 208.986C473.823 205.006 470.597 201.78 466.617 201.78C462.637 201.78 459.41 205.006 459.41 208.986C459.41 212.966 462.637 216.193 466.617 216.193C470.597 216.193 473.823 212.966 473.823 208.986Z" fill="#F2F4F7"/>
<path d="M517.062 208.986C517.062 205.006 513.835 201.78 509.855 201.78C505.875 201.78 502.649 205.006 502.649 208.986C502.649 212.966 505.875 216.193 509.855 216.193C513.835 216.193 517.062 212.966 517.062 208.986Z" fill="#F2F4F7"/>
<path d="M560.3 208.986C560.3 205.006 557.074 201.78 553.094 201.78C549.114 201.78 545.887 205.006 545.887 208.986C545.887 212.966 549.114 216.193 553.094 216.193C557.074 216.193 560.3 212.966 560.3 208.986Z" fill="#F2F4F7"/>
<path d="M603.539 208.986C603.539 205.006 600.312 201.78 596.332 201.78C592.352 201.78 589.126 205.006 589.126 208.986C589.126 212.966 592.352 216.193 596.332 216.193C600.312 216.193 603.539 212.966 603.539 208.986Z" fill="#F2F4F7"/>
<path d="M646.778 208.986C646.778 205.006 643.551 201.78 639.571 201.78C635.591 201.78 632.365 205.006 632.365 208.986C632.365 212.966 635.591 216.193 639.571 216.193C643.551 216.193 646.778 212.966 646.778 208.986Z" fill="#F2F4F7"/>
<path d="M41.437 252.225C41.437 248.245 38.2106 245.019 34.2306 245.019C30.2506 245.019 27.0242 248.245 27.0242 252.225C27.0242 256.205 30.2506 259.432 34.2306 259.432C38.2106 259.432 41.437 256.205 41.437 252.225Z" fill="#F2F4F7"/>
<path d="M84.6756 252.225C84.6756 248.245 81.4491 245.019 77.4691 245.019C73.4891 245.019 70.2627 248.245 70.2627 252.225C70.2627 256.205 73.4891 259.432 77.4691 259.432C81.4491 259.432 84.6756 256.205 84.6756 252.225Z" fill="#F2F4F7"/>
<path d="M127.914 252.225C127.914 248.245 124.688 245.019 120.708 245.019C116.728 245.019 113.501 248.245 113.501 252.225C113.501 256.205 116.728 259.432 120.708 259.432C124.688 259.432 127.914 256.205 127.914 252.225Z" fill="#F2F4F7"/>
<path d="M171.153 252.225C171.153 248.245 167.926 245.019 163.946 245.019C159.966 245.019 156.74 248.245 156.74 252.225C156.74 256.205 159.966 259.432 163.946 259.432C167.926 259.432 171.153 256.205 171.153 252.225Z" fill="#F2F4F7"/>
<path d="M214.391 252.225C214.391 248.245 211.165 245.019 207.185 245.019C203.205 245.019 199.979 248.245 199.979 252.225C199.979 256.205 203.205 259.432 207.185 259.432C211.165 259.432 214.391 256.205 214.391 252.225Z" fill="#F2F4F7"/>
<path d="M257.63 252.225C257.63 248.245 254.404 245.019 250.424 245.019C246.444 245.019 243.217 248.245 243.217 252.225C243.217 256.205 246.444 259.432 250.424 259.432C254.404 259.432 257.63 256.205 257.63 252.225Z" fill="#F2F4F7"/>
<path d="M300.869 252.225C300.869 248.245 297.642 245.019 293.662 245.019C289.682 245.019 286.456 248.245 286.456 252.225C286.456 256.205 289.682 259.432 293.662 259.432C297.642 259.432 300.869 256.205 300.869 252.225Z" fill="#F2F4F7"/>
<path d="M344.107 252.225C344.107 248.245 340.881 245.019 336.901 245.019C332.921 245.019 329.694 248.245 329.694 252.225C329.694 256.205 332.921 259.432 336.901 259.432C340.881 259.432 344.107 256.205 344.107 252.225Z" fill="#F2F4F7"/>
<path d="M387.346 252.225C387.346 248.245 384.12 245.019 380.14 245.019C376.16 245.019 372.933 248.245 372.933 252.225C372.933 256.205 376.16 259.432 380.14 259.432C384.12 259.432 387.346 256.205 387.346 252.225Z" fill="#F2F4F7"/>
<path d="M430.584 252.225C430.584 248.245 427.358 245.019 423.378 245.019C419.398 245.019 416.172 248.245 416.172 252.225C416.172 256.205 419.398 259.432 423.378 259.432C427.358 259.432 430.584 256.205 430.584 252.225Z" fill="#F2F4F7"/>
<path d="M473.823 252.225C473.823 248.245 470.597 245.019 466.617 245.019C462.637 245.019 459.41 248.245 459.41 252.225C459.41 256.205 462.637 259.432 466.617 259.432C470.597 259.432 473.823 256.205 473.823 252.225Z" fill="#F2F4F7"/>
<path d="M517.062 252.225C517.062 248.245 513.835 245.019 509.855 245.019C505.875 245.019 502.649 248.245 502.649 252.225C502.649 256.205 505.875 259.432 509.855 259.432C513.835 259.432 517.062 256.205 517.062 252.225Z" fill="#F2F4F7"/>
<path d="M560.3 252.225C560.3 248.245 557.074 245.019 553.094 245.019C549.114 245.019 545.887 248.245 545.887 252.225C545.887 256.205 549.114 259.432 553.094 259.432C557.074 259.432 560.3 256.205 560.3 252.225Z" fill="#F2F4F7"/>
<path d="M603.539 252.225C603.539 248.245 600.312 245.019 596.332 245.019C592.352 245.019 589.126 248.245 589.126 252.225C589.126 256.205 592.352 259.432 596.332 259.432C600.312 259.432 603.539 256.205 603.539 252.225Z" fill="#F2F4F7"/>
<path d="M646.778 252.225C646.778 248.245 643.551 245.019 639.571 245.019C635.591 245.019 632.365 248.245 632.365 252.225C632.365 256.205 635.591 259.432 639.571 259.432C643.551 259.432 646.778 256.205 646.778 252.225Z" fill="#F2F4F7"/>
<path d="M41.437 295.464C41.437 291.484 38.2106 288.257 34.2306 288.257C30.2506 288.257 27.0242 291.484 27.0242 295.464C27.0242 299.444 30.2506 302.67 34.2306 302.67C38.2106 302.67 41.437 299.444 41.437 295.464Z" fill="#F2F4F7"/>
<path d="M84.6756 295.464C84.6756 291.484 81.4491 288.257 77.4691 288.257C73.4891 288.257 70.2627 291.484 70.2627 295.464C70.2627 299.444 73.4891 302.67 77.4691 302.67C81.4491 302.67 84.6756 299.444 84.6756 295.464Z" fill="#F2F4F7"/>
<path d="M127.914 295.464C127.914 291.484 124.688 288.257 120.708 288.257C116.728 288.257 113.501 291.484 113.501 295.464C113.501 299.444 116.728 302.67 120.708 302.67C124.688 302.67 127.914 299.444 127.914 295.464Z" fill="#F2F4F7"/>
<path d="M171.153 295.464C171.153 291.484 167.926 288.257 163.946 288.257C159.966 288.257 156.74 291.484 156.74 295.464C156.74 299.444 159.966 302.67 163.946 302.67C167.926 302.67 171.153 299.444 171.153 295.464Z" fill="#F2F4F7"/>
<path d="M214.391 295.464C214.391 291.484 211.165 288.257 207.185 288.257C203.205 288.257 199.979 291.484 199.979 295.464C199.979 299.444 203.205 302.67 207.185 302.67C211.165 302.67 214.391 299.444 214.391 295.464Z" fill="#F2F4F7"/>
<path d="M257.63 295.464C257.63 291.484 254.404 288.257 250.424 288.257C246.444 288.257 243.217 291.484 243.217 295.464C243.217 299.444 246.444 302.67 250.424 302.67C254.404 302.67 257.63 299.444 257.63 295.464Z" fill="#F2F4F7"/>
<path d="M300.869 295.464C300.869 291.484 297.642 288.257 293.662 288.257C289.682 288.257 286.456 291.484 286.456 295.464C286.456 299.444 289.682 302.67 293.662 302.67C297.642 302.67 300.869 299.444 300.869 295.464Z" fill="#F2F4F7"/>
<path d="M344.107 295.464C344.107 291.484 340.881 288.257 336.901 288.257C332.921 288.257 329.694 291.484 329.694 295.464C329.694 299.444 332.921 302.67 336.901 302.67C340.881 302.67 344.107 299.444 344.107 295.464Z" fill="#F2F4F7"/>
<path d="M387.346 295.464C387.346 291.484 384.12 288.257 380.14 288.257C376.16 288.257 372.933 291.484 372.933 295.464C372.933 299.444 376.16 302.67 380.14 302.67C384.12 302.67 387.346 299.444 387.346 295.464Z" fill="#F2F4F7"/>
<path d="M430.584 295.464C430.584 291.484 427.358 288.257 423.378 288.257C419.398 288.257 416.172 291.484 416.172 295.464C416.172 299.444 419.398 302.67 423.378 302.67C427.358 302.67 430.584 299.444 430.584 295.464Z" fill="#F2F4F7"/>
<path d="M473.823 295.464C473.823 291.484 470.597 288.257 466.617 288.257C462.637 288.257 459.41 291.484 459.41 295.464C459.41 299.444 462.637 302.67 466.617 302.67C470.597 302.67 473.823 299.444 473.823 295.464Z" fill="#F2F4F7"/>
<path d="M517.062 295.464C517.062 291.484 513.835 288.257 509.855 288.257C505.875 288.257 502.649 291.484 502.649 295.464C502.649 299.444 505.875 302.67 509.855 302.67C513.835 302.67 517.062 299.444 517.062 295.464Z" fill="#F2F4F7"/>
<path d="M560.3 295.464C560.3 291.484 557.074 288.257 553.094 288.257C549.114 288.257 545.887 291.484 545.887 295.464C545.887 299.444 549.114 302.67 553.094 302.67C557.074 302.67 560.3 299.444 560.3 295.464Z" fill="#F2F4F7"/>
<path d="M603.539 295.464C603.539 291.484 600.312 288.257 596.332 288.257C592.352 288.257 589.126 291.484 589.126 295.464C589.126 299.444 592.352 302.67 596.332 302.67C600.312 302.67 603.539 299.444 603.539 295.464Z" fill="#F2F4F7"/>
<path d="M646.778 295.464C646.778 291.484 643.551 288.257 639.571 288.257C635.591 288.257 632.365 291.484 632.365 295.464C632.365 299.444 635.591 302.67 639.571 302.67C643.551 302.67 646.778 299.444 646.778 295.464Z" fill="#F2F4F7"/>
<path d="M41.437 338.702C41.437 334.722 38.2106 331.496 34.2306 331.496C30.2506 331.496 27.0242 334.722 27.0242 338.702C27.0242 342.682 30.2506 345.909 34.2306 345.909C38.2106 345.909 41.437 342.682 41.437 338.702Z" fill="#F2F4F7"/>
<path d="M84.6756 338.702C84.6756 334.722 81.4491 331.496 77.4691 331.496C73.4891 331.496 70.2627 334.722 70.2627 338.702C70.2627 342.682 73.4891 345.909 77.4691 345.909C81.4491 345.909 84.6756 342.682 84.6756 338.702Z" fill="#F2F4F7"/>
<path d="M127.914 338.702C127.914 334.722 124.688 331.496 120.708 331.496C116.728 331.496 113.501 334.722 113.501 338.702C113.501 342.682 116.728 345.909 120.708 345.909C124.688 345.909 127.914 342.682 127.914 338.702Z" fill="#F2F4F7"/>
<path d="M171.153 338.702C171.153 334.722 167.926 331.496 163.946 331.496C159.966 331.496 156.74 334.722 156.74 338.702C156.74 342.682 159.966 345.909 163.946 345.909C167.926 345.909 171.153 342.682 171.153 338.702Z" fill="#F2F4F7"/>
<path d="M214.391 338.702C214.391 334.722 211.165 331.496 207.185 331.496C203.205 331.496 199.979 334.722 199.979 338.702C199.979 342.682 203.205 345.909 207.185 345.909C211.165 345.909 214.391 342.682 214.391 338.702Z" fill="#F2F4F7"/>
<path d="M257.63 338.702C257.63 334.722 254.404 331.496 250.424 331.496C246.444 331.496 243.217 334.722 243.217 338.702C243.217 342.682 246.444 345.909 250.424 345.909C254.404 345.909 257.63 342.682 257.63 338.702Z" fill="#F2F4F7"/>
<path d="M300.869 338.702C300.869 334.722 297.642 331.496 293.662 331.496C289.682 331.496 286.456 334.722 286.456 338.702C286.456 342.682 289.682 345.909 293.662 345.909C297.642 345.909 300.869 342.682 300.869 338.702Z" fill="#F2F4F7"/>
<path d="M344.107 338.702C344.107 334.722 340.881 331.496 336.901 331.496C332.921 331.496 329.694 334.722 329.694 338.702C329.694 342.682 332.921 345.909 336.901 345.909C340.881 345.909 344.107 342.682 344.107 338.702Z" fill="#F2F4F7"/>
<path d="M387.346 338.702C387.346 334.722 384.12 331.496 380.14 331.496C376.16 331.496 372.933 334.722 372.933 338.702C372.933 342.682 376.16 345.909 380.14 345.909C384.12 345.909 387.346 342.682 387.346 338.702Z" fill="#F2F4F7"/>
<path d="M430.584 338.702C430.584 334.722 427.358 331.496 423.378 331.496C419.398 331.496 416.172 334.722 416.172 338.702C416.172 342.682 419.398 345.909 423.378 345.909C427.358 345.909 430.584 342.682 430.584 338.702Z" fill="#F2F4F7"/>
<path d="M473.823 338.702C473.823 334.722 470.597 331.496 466.617 331.496C462.637 331.496 459.41 334.722 459.41 338.702C459.41 342.682 462.637 345.909 466.617 345.909C470.597 345.909 473.823 342.682 473.823 338.702Z" fill="#F2F4F7"/>
<path d="M517.062 338.702C517.062 334.722 513.835 331.496 509.855 331.496C505.875 331.496 502.649 334.722 502.649 338.702C502.649 342.682 505.875 345.909 509.855 345.909C513.835 345.909 517.062 342.682 517.062 338.702Z" fill="#F2F4F7"/>
<path d="M560.3 338.702C560.3 334.722 557.074 331.496 553.094 331.496C549.114 331.496 545.887 334.722 545.887 338.702C545.887 342.682 549.114 345.909 553.094 345.909C557.074 345.909 560.3 342.682 560.3 338.702Z" fill="#F2F4F7"/>
<path d="M603.539 338.702C603.539 334.722 600.312 331.496 596.332 331.496C592.352 331.496 589.126 334.722 589.126 338.702C589.126 342.682 592.352 345.909 596.332 345.909C600.312 345.909 603.539 342.682 603.539 338.702Z" fill="#F2F4F7"/>
<path d="M646.778 338.702C646.778 334.722 643.551 331.496 639.571 331.496C635.591 331.496 632.365 334.722 632.365 338.702C632.365 342.682 635.591 345.909 639.571 345.909C643.551 345.909 646.778 342.682 646.778 338.702Z" fill="#F2F4F7"/>
<path d="M41.437 381.941C41.437 377.961 38.2106 374.735 34.2306 374.735C30.2506 374.735 27.0242 377.961 27.0242 381.941C27.0242 385.921 30.2506 389.147 34.2306 389.147C38.2106 389.147 41.437 385.921 41.437 381.941Z" fill="#F2F4F7"/>
<path d="M84.6756 381.941C84.6756 377.961 81.4491 374.735 77.4691 374.735C73.4891 374.735 70.2627 377.961 70.2627 381.941C70.2627 385.921 73.4891 389.147 77.4691 389.147C81.4491 389.147 84.6756 385.921 84.6756 381.941Z" fill="#F2F4F7"/>
<path d="M127.914 381.941C127.914 377.961 124.688 374.735 120.708 374.735C116.728 374.735 113.501 377.961 113.501 381.941C113.501 385.921 116.728 389.147 120.708 389.147C124.688 389.147 127.914 385.921 127.914 381.941Z" fill="#F2F4F7"/>
<path d="M171.153 381.941C171.153 377.961 167.926 374.735 163.946 374.735C159.966 374.735 156.74 377.961 156.74 381.941C156.74 385.921 159.966 389.147 163.946 389.147C167.926 389.147 171.153 385.921 171.153 381.941Z" fill="#F2F4F7"/>
<path d="M214.391 381.941C214.391 377.961 211.165 374.735 207.185 374.735C203.205 374.735 199.979 377.961 199.979 381.941C199.979 385.921 203.205 389.147 207.185 389.147C211.165 389.147 214.391 385.921 214.391 381.941Z" fill="#F2F4F7"/>
<path d="M257.63 381.941C257.63 377.961 254.404 374.735 250.424 374.735C246.444 374.735 243.217 377.961 243.217 381.941C243.217 385.921 246.444 389.147 250.424 389.147C254.404 389.147 257.63 385.921 257.63 381.941Z" fill="#F2F4F7"/>
<path d="M300.869 381.941C300.869 377.961 297.642 374.735 293.662 374.735C289.682 374.735 286.456 377.961 286.456 381.941C286.456 385.921 289.682 389.147 293.662 389.147C297.642 389.147 300.869 385.921 300.869 381.941Z" fill="#F2F4F7"/>
<path d="M344.107 381.941C344.107 377.961 340.881 374.735 336.901 374.735C332.921 374.735 329.694 377.961 329.694 381.941C329.694 385.921 332.921 389.147 336.901 389.147C340.881 389.147 344.107 385.921 344.107 381.941Z" fill="#F2F4F7"/>
<path d="M387.346 381.941C387.346 377.961 384.12 374.735 380.14 374.735C376.16 374.735 372.933 377.961 372.933 381.941C372.933 385.921 376.16 389.147 380.14 389.147C384.12 389.147 387.346 385.921 387.346 381.941Z" fill="#F2F4F7"/>
<path d="M430.584 381.941C430.584 377.961 427.358 374.735 423.378 374.735C419.398 374.735 416.172 377.961 416.172 381.941C416.172 385.921 419.398 389.147 423.378 389.147C427.358 389.147 430.584 385.921 430.584 381.941Z" fill="#F2F4F7"/>
<path d="M473.823 381.941C473.823 377.961 470.597 374.735 466.617 374.735C462.637 374.735 459.41 377.961 459.41 381.941C459.41 385.921 462.637 389.147 466.617 389.147C470.597 389.147 473.823 385.921 473.823 381.941Z" fill="#F2F4F7"/>
<path d="M517.062 381.941C517.062 377.961 513.835 374.735 509.855 374.735C505.875 374.735 502.649 377.961 502.649 381.941C502.649 385.921 505.875 389.147 509.855 389.147C513.835 389.147 517.062 385.921 517.062 381.941Z" fill="#F2F4F7"/>
<path d="M560.3 381.941C560.3 377.961 557.074 374.735 553.094 374.735C549.114 374.735 545.887 377.961 545.887 381.941C545.887 385.921 549.114 389.147 553.094 389.147C557.074 389.147 560.3 385.921 560.3 381.941Z" fill="#F2F4F7"/>
<path d="M603.539 381.941C603.539 377.961 600.312 374.735 596.332 374.735C592.352 374.735 589.126 377.961 589.126 381.941C589.126 385.921 592.352 389.147 596.332 389.147C600.312 389.147 603.539 385.921 603.539 381.941Z" fill="#F2F4F7"/>
<path d="M646.778 381.941C646.778 377.961 643.551 374.735 639.571 374.735C635.591 374.735 632.365 377.961 632.365 381.941C632.365 385.921 635.591 389.147 639.571 389.147C643.551 389.147 646.778 385.921 646.778 381.941Z" fill="#F2F4F7"/>
</g>
<path d="M672 30.6274H0V390.949H672V30.6274Z" fill="url(#paint0_linear_2967_6280)"/>
<path d="M524.268 51.3459H149.534C134.111 51.3459 121.609 63.8484 121.609 79.2709V360.322C121.609 375.744 134.111 388.247 149.534 388.247H524.268C539.691 388.247 552.193 375.744 552.193 360.322V79.2709C552.193 63.8484 539.691 51.3459 524.268 51.3459Z" fill="#111318"/>
<g filter="url(#filter0_dd_2967_6280)">
<rect x="288" y="167" width="96" height="96" rx="14.4129" fill="#222429" shape-rendering="crispEdges"/>
<path fillRule="evenodd" clipRule="evenodd" d="M322.944 190.872L319.376 203.948L319.32 204.18C312.452 205.272 308 207.024 308 209C308 212.312 320.536 215 336 215C351.464 215 364 212.312 364 209C364 207.024 359.548 205.272 352.68 204.18L352.624 203.948L349.056 190.868C348.472 188.736 346.264 187.472 344.1 187.932C341.644 188.452 338.48 189 336 189C333.52 189 330.356 188.456 327.9 187.932C325.736 187.472 323.528 188.732 322.944 190.872ZM323.004 206.34C323.017 206.209 323.056 206.082 323.118 205.967C323.18 205.851 323.265 205.748 323.367 205.665C323.468 205.582 323.586 205.519 323.712 205.482C323.838 205.444 323.97 205.431 324.1 205.444C327.7 205.812 331.74 206.016 336 206.016C339.974 206.023 343.946 205.832 347.9 205.444C348.165 205.418 348.429 205.497 348.634 205.665C348.84 205.833 348.97 206.076 348.996 206.34C349.023 206.604 348.944 206.868 348.775 207.074C348.607 207.279 348.365 207.41 348.1 207.436C344.428 207.808 340.324 208.016 336 208.016C331.676 208.016 327.572 207.808 323.9 207.436C323.77 207.423 323.643 207.385 323.527 207.322C323.411 207.26 323.308 207.176 323.225 207.074C323.142 206.972 323.08 206.855 323.042 206.729C323.004 206.603 322.991 206.471 323.004 206.34ZM318 223H326C326.531 223 327.04 223.211 327.415 223.586C327.79 223.961 328 224.47 328 225V229C328 230.592 327.368 232.118 326.243 233.243C325.118 234.368 323.592 235 322 235C320.409 235 318.883 234.368 317.758 233.243C316.633 232.118 316 230.592 316 229V225C316 224.47 316.211 223.961 316.586 223.586C316.961 223.211 317.47 223 318 223ZM312 225C312.003 224.296 312.116 223.63 312.34 223H312C311.47 223 310.961 222.79 310.586 222.414C310.211 222.039 310 221.531 310 221C310 220.47 310.211 219.961 310.586 219.586C310.961 219.211 311.47 219 312 219H326C327.461 219 328.872 219.534 329.968 220.5C331.064 221.466 331.769 222.799 331.952 224.248C334.592 223.451 337.409 223.451 340.048 224.248C340.232 222.799 340.937 221.466 342.033 220.5C343.129 219.534 344.54 219 346 219H360C360.531 219 361.04 219.211 361.415 219.586C361.79 219.961 362 220.47 362 221C362 221.531 361.79 222.039 361.415 222.414C361.04 222.79 360.531 223 360 223H359.66C359.884 223.63 359.998 224.296 360 225V229C360 231.652 358.947 234.196 357.072 236.071C355.196 237.947 352.653 239 350 239C347.348 239 344.805 237.947 342.929 236.071C341.054 234.196 340 231.652 340 229V228.44L339.16 228.16C337.109 227.477 334.892 227.477 332.84 228.16L332 228.44V229C332 231.652 330.947 234.196 329.072 236.071C327.196 237.947 324.653 239 322 239C319.348 239 316.805 237.947 314.929 236.071C313.054 234.196 312 231.652 312 229V225ZM346 223H354C354.531 223 355.04 223.211 355.415 223.586C355.79 223.961 356 224.47 356 225V229C356 230.592 355.368 232.118 354.243 233.243C353.118 234.368 351.592 235 350 235C348.409 235 346.883 234.368 345.758 233.243C344.633 232.118 344 230.592 344 229V225C344 224.47 344.211 223.961 344.586 223.586C344.961 223.211 345.47 223 346 223Z" fill="white"/>
</g>
<path d="M120.708 50.4451H553.094V100.89H120.708V50.4451Z" fill="#1C1E23"/>
<mask id="mask0_2967_6280" style="mask-type:luminance" maskUnits="userSpaceOnUse" x="120" y="50" width="434" height="51">
<path d="M120.708 50.4451H553.094V100.89H120.708V50.4451Z" fill="#23252A"/>
<path d="M121.609 51.3459H552.193V99.9893H121.609V51.3459Z" stroke="white" stroke-opacity="0.1" strokeWidth="1.80161"/>
</mask>
<g mask="url(#mask0_2967_6280)">
<path d="M553.094 99.0886H120.708V102.692H553.094V99.0886Z" fill="#23252A"/>
<path d="M121.609 101.791V99.9894H552.193V101.791H121.609Z" stroke="white" stroke-opacity="0.1" strokeWidth="1.80161"/>
</g>
<path d="M153.137 75.6675C153.137 72.6825 150.717 70.2627 147.732 70.2627C144.747 70.2627 142.327 72.6825 142.327 75.6675C142.327 78.6525 144.747 81.0723 147.732 81.0723C150.717 81.0723 153.137 78.6525 153.137 75.6675Z" fill="#F04438"/>
<path d="M171.153 75.6675C171.153 72.6825 168.733 70.2627 165.748 70.2627C162.763 70.2627 160.343 72.6825 160.343 75.6675C160.343 78.6525 162.763 81.0723 165.748 81.0723C168.733 81.0723 171.153 78.6525 171.153 75.6675Z" fill="#FEC84B"/>
<path d="M189.169 75.6675C189.169 72.6825 186.749 70.2627 183.764 70.2627C180.779 70.2627 178.359 72.6825 178.359 75.6675C178.359 78.6525 180.779 81.0723 183.764 81.0723C186.749 81.0723 189.169 78.6525 189.169 75.6675Z" fill="#17B26A"/>
<path d="M524.268 64.8579H214.391C210.411 64.8579 207.185 68.0843 207.185 72.0643V79.2708C207.185 83.2508 210.411 86.4772 214.391 86.4772H524.268C528.248 86.4772 531.475 83.2508 531.475 79.2708V72.0643C531.475 68.0843 528.248 64.8579 524.268 64.8579Z" fill="#13151A"/>
</g>
<defs>
<filter id="filter0_dd_2967_6280" x="244.761" y="159.794" width="182.477" height="182.477" filterUnits="userSpaceOnUse" color-interpolation-filters="sRGB">
<feFlood flood-opacity="0" result="BackgroundImageFix"/>
<feColorMatrix in="SourceAlpha" type="matrix" values="0 0 0 0 0 0 0 0 0 0 0 0 0 0 0 0 0 0 127 0" result="hardAlpha"/>
<feOffset dy="14.4129"/>
<feGaussianBlur stdDeviation="7.20643"/>
<feComposite in2="hardAlpha" operator="out"/>
<feColorMatrix type="matrix" values="0 0 0 0 0.0627451 0 0 0 0 0.0941176 0 0 0 0 0.156863 0 0 0 0.03 0"/>
<feBlend mode="normal" in2="BackgroundImageFix" result="effect1_dropShadow_2967_6280"/>
<feColorMatrix in="SourceAlpha" type="matrix" values="0 0 0 0 0 0 0 0 0 0 0 0 0 0 0 0 0 0 127 0" result="hardAlpha"/>
<feOffset dy="36.0322"/>
<feGaussianBlur stdDeviation="21.6193"/>
<feComposite in2="hardAlpha" operator="out"/>
<feColorMatrix type="matrix" values="0 0 0 0 0 0 0 0 0 0 0 0 0 0 0 0 0 0 0.08 0"/>
<feBlend mode="normal" in2="effect1_dropShadow_2967_6280" result="effect2_dropShadow_2967_6280"/>
<feBlend mode="normal" in="SourceGraphic" in2="effect2_dropShadow_2967_6280" result="shape"/>
</filter>
<linearGradient id="paint0_linear_2967_6280" x1="336" y1="30.6274" x2="336" y2="390.949" gradientUnits="userSpaceOnUse">
<stop stopColor="#101217" stop-opacity="0"/>
<stop offset="1" stopColor="#101217"/>
</linearGradient>
<clipPath id="clip0_2967_6280">
<rect width="672" height="390.949" fill="white"/>
</clipPath>
</defs>
</svg>
