<svg width="32" height="32" viewBox="0 0 32 32" fill="none" xmlns="http://www.w3.org/2000/svg">
<rect width="32" height="32" rx="16" fill="url(#paint0_linear_3363_20072)"/>
<path d="M17.8498 14.9334V15.4334H18.3498H20.9248C21.45 15.4334 21.5508 15.5963 21.5555 15.6068C21.56 15.6167 21.616 15.7996 21.2671 16.1936L21.2659 16.1949L15.6243 22.6116L15.6242 22.6116L14.9579 23.3696C14.9579 23.3696 14.9579 23.3696 14.9579 23.3696C14.7523 23.6029 14.5815 23.7319 14.4587 23.7925C14.3745 23.834 14.3327 23.8349 14.3205 23.8337C14.3105 23.8265 14.2801 23.7985 14.2448 23.713C14.1928 23.5871 14.1498 23.3778 14.1498 23.0667V17.0667V16.5667H13.6498H11.0748C10.5496 16.5667 10.4488 16.4038 10.4441 16.3934C10.4396 16.3834 10.3835 16.2005 10.7324 15.8066L10.7336 15.8052L16.3753 9.38856L16.3753 9.38854L17.0416 8.63059C17.0417 8.63047 17.0418 8.63035 17.0419 8.63023C17.0419 8.63022 17.0419 8.63021 17.042 8.63021C17.2474 8.3971 17.4181 8.26818 17.5409 8.20762C17.625 8.16611 17.6669 8.16521 17.6791 8.16644C17.6891 8.17361 17.7194 8.20169 17.7547 8.28712C17.8068 8.41308 17.8498 8.62231 17.8498 8.93341V14.9334ZM14.3166 23.833C14.3166 23.833 14.3173 23.8331 14.3186 23.8335L14.3166 23.833ZM14.322 23.8347C14.3233 23.8353 14.324 23.8357 14.3239 23.8358C14.3239 23.8359 14.3232 23.8356 14.322 23.8347ZM17.683 8.16715C17.6829 8.1672 17.6822 8.1671 17.6809 8.16667L17.683 8.16715ZM17.6776 8.16542C17.6762 8.16483 17.6756 8.16442 17.6756 8.16436C17.6756 8.1643 17.6763 8.1646 17.6776 8.16542Z" fill="white" stroke="white"/>
<defs>
<linearGradient id="paint0_linear_3363_20072" x1="-2.7711e-07" y1="8.68914" x2="34.3134" y2="12.83" gradientUnits="userSpaceOnUse">
<stop stopColor="#30C5D2"/>
<stop offset="1" stopColor="#471069"/>
</linearGradient>
</defs>
</svg>
