<svg width="20" height="20" viewBox="0 0 20 20" fill="none" xmlns="http://www.w3.org/2000/svg">
<circle cx="10.5" cy="9.5" r="7.5" fill="white"/>
<path d="M10 1.25C8.26942 1.25 6.57769 1.76318 5.13876 2.72464C3.69983 3.6861 2.57832 5.05267 1.91606 6.65152C1.25379 8.25037 1.08051 10.0097 1.41813 11.707C1.75575 13.4044 2.58911 14.9635 3.81282 16.1872C5.03653 17.4109 6.59563 18.2442 8.29296 18.5819C9.9903 18.9195 11.7496 18.7462 13.3485 18.0839C14.9473 17.4217 16.3139 16.3002 17.2754 14.8612C18.2368 13.4223 18.75 11.7306 18.75 10C18.75 7.67936 17.8281 5.45376 16.1872 3.81282C14.5462 2.17187 12.3206 1.25 10 1.25ZM13.75 7.5H11.25V12.5C11.25 12.9945 11.1034 13.4778 10.8287 13.8889C10.554 14.3 10.1635 14.6205 9.70671 14.8097C9.2499 14.9989 8.74723 15.0484 8.26228 14.952C7.77733 14.8555 7.33187 14.6174 6.98224 14.2678C6.63261 13.9181 6.3945 13.4727 6.29804 12.9877C6.20158 12.5028 6.25109 12.0001 6.44031 11.5433C6.62952 11.0865 6.94996 10.696 7.36108 10.4213C7.7722 10.1466 8.25555 10 8.75 10C9.1901 10.0024 9.62159 10.1222 10 10.3469V5H13.75V7.5Z" fill="url(#paint0_linear_9666_17394)"/>
<defs>
<linearGradient id="paint0_linear_9666_17394" x1="1.25" y1="6.00187" x2="20.0151" y2="8.26639" gradientUnits="userSpaceOnUse">
<stop stop-color="#7EF29D"/>
<stop offset="1" stop-color="#0F68A9"/>
</linearGradient>
</defs>
</svg>
