<svg width="494" height="449" viewBox="0 0 494 449" fill="none" xmlns="http://www.w3.org/2000/svg">
<g clip-path="url(#clip0_5950_33613)">
<rect width="494" height="449" rx="30" fill="#1E2129"/>
<rect x="56" y="56" width="382" height="260" rx="30" fill="#101217"/>
<rect x="56.5" y="56.5" width="381" height="259" rx="29.5" stroke="white" stroke-opacity="0.08" stroke-dasharray="8 8"/>
<path d="M247 124.667C234.144 124.667 223.667 135.144 223.667 148C223.667 160.857 234.144 171.334 247 171.334C259.857 171.334 270.334 160.857 270.334 148C270.334 135.144 259.857 124.667 247 124.667ZM256.334 149.75H248.75V157.334C248.75 158.29 247.957 159.084 247 159.084C246.044 159.084 245.25 158.29 245.25 157.334V149.75H237.667C236.71 149.75 235.917 148.957 235.917 148C235.917 147.044 236.71 146.25 237.667 146.25H245.25V138.667C245.25 137.71 246.044 136.917 247 136.917C247.957 136.917 248.75 137.71 248.75 138.667V146.25H256.334C257.29 146.25 258.084 147.044 258.084 148C258.084 148.957 257.29 149.75 256.334 149.75Z" fill="#30C5D2"/>
<path d="M134.496 190.912H133.866L129.906 202H128.07L132.606 189.4H135.72L140.256 202H138.42L134.496 190.912ZM130.392 197.284H137.736V198.796H130.392V197.284ZM142.693 199.156C142.777 199.516 142.921 199.798 143.125 200.002C143.329 200.206 143.569 200.356 143.845 200.452C144.133 200.536 144.433 200.578 144.745 200.578C145.285 200.578 145.705 200.47 146.005 200.254C146.305 200.038 146.455 199.768 146.455 199.444C146.455 199.168 146.359 198.952 146.167 198.796C145.987 198.628 145.741 198.496 145.429 198.4C145.129 198.304 144.805 198.214 144.457 198.13C144.145 198.046 143.803 197.95 143.431 197.842C143.071 197.734 142.729 197.59 142.405 197.41C142.093 197.218 141.835 196.978 141.631 196.69C141.427 196.39 141.325 196.012 141.325 195.556C141.325 195.016 141.469 194.548 141.757 194.152C142.057 193.744 142.465 193.432 142.981 193.216C143.509 192.988 144.103 192.874 144.763 192.874C145.531 192.874 146.203 193.042 146.779 193.378C147.367 193.702 147.793 194.194 148.057 194.854L146.527 195.358C146.443 195.13 146.305 194.944 146.113 194.8C145.921 194.656 145.699 194.56 145.447 194.512C145.207 194.452 144.967 194.422 144.727 194.422C144.271 194.422 143.893 194.512 143.593 194.692C143.293 194.872 143.143 195.136 143.143 195.484C143.143 195.676 143.191 195.838 143.287 195.97C143.383 196.09 143.515 196.192 143.683 196.276C143.863 196.348 144.073 196.414 144.313 196.474C144.553 196.534 144.811 196.6 145.087 196.672C145.447 196.78 145.813 196.9 146.185 197.032C146.557 197.152 146.899 197.308 147.211 197.5C147.523 197.692 147.775 197.944 147.967 198.256C148.159 198.568 148.261 198.952 148.273 199.408C148.273 199.936 148.123 200.404 147.823 200.812C147.535 201.22 147.121 201.544 146.581 201.784C146.053 202.012 145.423 202.126 144.691 202.126C143.803 202.126 143.047 201.928 142.423 201.532C141.799 201.136 141.379 200.524 141.163 199.696L142.693 199.156ZM150.333 189.04H152.043V196.762H152.781L156.147 193H158.451L154.275 197.5L158.469 202H156.147L152.781 198.22H152.043V202H150.333V189.04ZM170.338 190.912H169.708L165.748 202H163.912L168.448 189.4H171.562L176.098 202H174.262L170.338 190.912ZM166.234 197.284H173.578V198.796H166.234V197.284ZM177.526 193H179.074L179.182 194.044C179.47 193.672 179.836 193.384 180.28 193.18C180.724 192.976 181.216 192.874 181.756 192.874C182.452 192.874 183.052 193.024 183.556 193.324C184.072 193.612 184.468 194.044 184.744 194.62C185.032 195.196 185.176 195.916 185.176 196.78V202H183.484V196.996C183.484 196.156 183.304 195.52 182.944 195.088C182.596 194.644 182.086 194.422 181.414 194.422C180.718 194.422 180.178 194.65 179.794 195.106C179.41 195.55 179.218 196.21 179.218 197.086V202H177.526V193ZM193.508 193H195.272L190.052 205.6H188.378L189.962 201.82L186.398 193H188.27L190.88 199.822L193.508 193ZM197.474 193V190.48H199.184V193H201.434V194.512H199.184V198.94C199.184 199.492 199.292 199.882 199.508 200.11C199.736 200.338 200.018 200.47 200.354 200.506C200.702 200.53 201.062 200.518 201.434 200.47V201.928C200.942 202.036 200.456 202.066 199.976 202.018C199.508 201.982 199.082 201.85 198.698 201.622C198.326 201.394 198.026 201.064 197.798 200.632C197.582 200.188 197.474 199.624 197.474 198.94V194.512H196.178V193H197.474ZM203.331 189.04H205.023V193.99C205.311 193.642 205.683 193.372 206.139 193.18C206.595 192.976 207.099 192.874 207.651 192.874C208.323 192.874 208.911 193.024 209.415 193.324C209.931 193.612 210.333 194.05 210.621 194.638C210.909 195.214 211.053 195.934 211.053 196.798V202H209.271V197.014C209.271 196.174 209.097 195.532 208.749 195.088C208.401 194.644 207.891 194.422 207.219 194.422C206.523 194.422 205.983 194.65 205.599 195.106C205.215 195.562 205.023 196.228 205.023 197.104V202H203.331V189.04ZM213.779 193H215.489V202H213.779V193ZM214.643 191.416C214.319 191.416 214.049 191.308 213.833 191.092C213.617 190.876 213.509 190.612 213.509 190.3C213.509 189.976 213.617 189.706 213.833 189.49C214.049 189.262 214.319 189.148 214.643 189.148C214.955 189.148 215.219 189.262 215.435 189.49C215.663 189.706 215.777 189.976 215.777 190.3C215.777 190.612 215.663 190.876 215.435 191.092C215.219 191.308 214.955 191.416 214.643 191.416ZM218.325 193H219.873L219.981 194.044C220.269 193.672 220.635 193.384 221.079 193.18C221.523 192.976 222.015 192.874 222.555 192.874C223.251 192.874 223.851 193.024 224.355 193.324C224.871 193.612 225.267 194.044 225.543 194.62C225.831 195.196 225.975 195.916 225.975 196.78V202H224.283V196.996C224.283 196.156 224.103 195.52 223.743 195.088C223.395 194.644 222.885 194.422 222.213 194.422C221.517 194.422 220.977 194.65 220.593 195.106C220.209 195.55 220.017 196.21 220.017 197.086V202H218.325V193ZM235.165 193H236.713V200.524C236.713 201.58 236.461 202.486 235.957 203.242C235.453 203.998 234.727 204.58 233.779 204.988C232.843 205.396 231.709 205.6 230.377 205.6L230.107 204.106C231.715 204.07 232.933 203.746 233.761 203.134C234.589 202.534 235.003 201.664 235.003 200.524V200.434L235.201 200.452C234.913 200.908 234.499 201.304 233.959 201.64C233.431 201.964 232.771 202.126 231.979 202.126C231.175 202.126 230.461 201.934 229.837 201.55C229.225 201.166 228.745 200.626 228.397 199.93C228.061 199.234 227.893 198.424 227.893 197.5C227.893 196.576 228.061 195.766 228.397 195.07C228.745 194.374 229.225 193.834 229.837 193.45C230.461 193.066 231.175 192.874 231.979 192.874C232.471 192.874 232.909 192.94 233.293 193.072C233.689 193.204 234.031 193.384 234.319 193.612C234.607 193.828 234.847 194.074 235.039 194.35L235.165 193ZM229.711 197.5C229.711 198.424 229.951 199.168 230.431 199.732C230.923 200.296 231.577 200.578 232.393 200.578C232.873 200.578 233.311 200.458 233.707 200.218C234.103 199.966 234.415 199.612 234.643 199.156C234.883 198.688 235.003 198.136 235.003 197.5C235.003 196.852 234.883 196.3 234.643 195.844C234.415 195.388 234.097 195.04 233.689 194.8C233.293 194.548 232.861 194.422 232.393 194.422C231.577 194.422 230.923 194.704 230.431 195.268C229.951 195.832 229.711 196.576 229.711 197.5ZM244.899 193V190.48H246.609V193H248.859V194.512H246.609V198.94C246.609 199.492 246.717 199.882 246.933 200.11C247.161 200.338 247.443 200.47 247.779 200.506C248.127 200.53 248.487 200.518 248.859 200.47V201.928C248.367 202.036 247.881 202.066 247.401 202.018C246.933 201.982 246.507 201.85 246.123 201.622C245.751 201.394 245.451 201.064 245.223 200.632C245.007 200.188 244.899 199.624 244.899 198.94V194.512H243.603V193H244.899ZM254.699 202.126C253.847 202.126 253.079 201.94 252.395 201.568C251.723 201.184 251.195 200.65 250.811 199.966C250.427 199.27 250.235 198.454 250.235 197.518C250.235 196.57 250.433 195.748 250.829 195.052C251.225 194.356 251.765 193.822 252.449 193.45C253.133 193.066 253.901 192.874 254.753 192.874C255.605 192.874 256.373 193.066 257.057 193.45C257.753 193.822 258.299 194.356 258.695 195.052C259.091 195.736 259.289 196.546 259.289 197.482C259.289 198.43 259.085 199.252 258.677 199.948C258.281 200.644 257.735 201.184 257.039 201.568C256.343 201.94 255.563 202.126 254.699 202.126ZM254.681 200.578C255.161 200.578 255.611 200.47 256.031 200.254C256.451 200.026 256.793 199.684 257.057 199.228C257.333 198.772 257.471 198.19 257.471 197.482C257.471 196.786 257.339 196.216 257.075 195.772C256.823 195.316 256.487 194.98 256.067 194.764C255.647 194.536 255.197 194.422 254.717 194.422C254.249 194.422 253.811 194.536 253.403 194.764C253.007 194.98 252.683 195.316 252.431 195.772C252.179 196.228 252.053 196.81 252.053 197.518C252.053 198.214 252.173 198.79 252.413 199.246C252.665 199.69 252.989 200.026 253.385 200.254C253.781 200.47 254.213 200.578 254.681 200.578ZM271.891 202L271.747 200.686C271.471 201.142 271.111 201.496 270.667 201.748C270.235 201.988 269.671 202.108 268.975 202.108C268.327 202.108 267.775 202.006 267.319 201.802C266.863 201.586 266.509 201.292 266.257 200.92C266.017 200.536 265.897 200.092 265.897 199.588C265.897 198.832 266.179 198.208 266.743 197.716C267.307 197.212 268.123 196.9 269.191 196.78L271.747 196.492V195.79C271.747 195.406 271.591 195.082 271.279 194.818C270.967 194.542 270.517 194.404 269.929 194.404C269.377 194.404 268.909 194.536 268.525 194.8C268.141 195.052 267.883 195.43 267.751 195.934L266.239 195.394C266.467 194.602 266.911 193.984 267.571 193.54C268.243 193.096 269.053 192.874 270.001 192.874C271.129 192.874 271.987 193.156 272.575 193.72C273.163 194.284 273.457 195.028 273.457 195.952V202H271.891ZM271.747 197.878L269.281 198.184C268.753 198.256 268.357 198.406 268.093 198.634C267.829 198.85 267.697 199.138 267.697 199.498C267.697 199.834 267.823 200.116 268.075 200.344C268.339 200.56 268.705 200.668 269.173 200.668C269.749 200.668 270.229 200.56 270.613 200.344C270.997 200.128 271.279 199.828 271.459 199.444C271.651 199.048 271.747 198.592 271.747 198.076V197.878ZM285.385 189.4C286.753 189.4 287.929 189.658 288.913 190.174C289.909 190.69 290.677 191.422 291.217 192.37C291.769 193.318 292.045 194.446 292.045 195.754C292.045 197.05 291.769 198.166 291.217 199.102C290.677 200.026 289.909 200.74 288.913 201.244C287.929 201.748 286.753 202 285.385 202H281.065V189.4H285.385ZM285.385 200.488C286.969 200.488 288.169 200.074 288.985 199.246C289.813 198.406 290.227 197.242 290.227 195.754C290.227 194.242 289.813 193.06 288.985 192.208C288.169 191.344 286.969 190.912 285.385 190.912H282.865V200.488H285.385ZM297.994 202.126C297.142 202.126 296.374 201.94 295.69 201.568C295.018 201.184 294.49 200.65 294.106 199.966C293.722 199.27 293.53 198.454 293.53 197.518C293.53 196.57 293.728 195.748 294.124 195.052C294.52 194.356 295.06 193.822 295.744 193.45C296.428 193.066 297.196 192.874 298.048 192.874C298.9 192.874 299.668 193.066 300.352 193.45C301.048 193.822 301.594 194.356 301.99 195.052C302.386 195.736 302.584 196.546 302.584 197.482C302.584 198.43 302.38 199.252 301.972 199.948C301.576 200.644 301.03 201.184 300.334 201.568C299.638 201.94 298.858 202.126 297.994 202.126ZM297.976 200.578C298.456 200.578 298.906 200.47 299.326 200.254C299.746 200.026 300.088 199.684 300.352 199.228C300.628 198.772 300.766 198.19 300.766 197.482C300.766 196.786 300.634 196.216 300.37 195.772C300.118 195.316 299.782 194.98 299.362 194.764C298.942 194.536 298.492 194.422 298.012 194.422C297.544 194.422 297.106 194.536 296.698 194.764C296.302 194.98 295.978 195.316 295.726 195.772C295.474 196.228 295.348 196.81 295.348 197.518C295.348 198.214 295.468 198.79 295.708 199.246C295.96 199.69 296.284 200.026 296.68 200.254C297.076 200.47 297.508 200.578 297.976 200.578ZM308.503 202.126C307.639 202.126 306.877 201.934 306.217 201.55C305.557 201.154 305.041 200.614 304.669 199.93C304.309 199.246 304.129 198.448 304.129 197.536C304.129 196.612 304.315 195.802 304.687 195.106C305.059 194.41 305.575 193.864 306.235 193.468C306.895 193.072 307.663 192.874 308.539 192.874C309.463 192.874 310.273 193.09 310.969 193.522C311.677 193.954 312.187 194.536 312.499 195.268L310.969 195.808C310.789 195.388 310.483 195.052 310.051 194.8C309.631 194.548 309.151 194.422 308.611 194.422C308.059 194.422 307.585 194.554 307.189 194.818C306.793 195.07 306.487 195.43 306.271 195.898C306.055 196.354 305.947 196.894 305.947 197.518C305.947 198.454 306.187 199.198 306.667 199.75C307.147 200.302 307.795 200.578 308.611 200.578C309.151 200.578 309.631 200.458 310.051 200.218C310.483 199.978 310.807 199.648 311.023 199.228L312.535 199.768C312.199 200.488 311.671 201.064 310.951 201.496C310.231 201.916 309.415 202.126 308.503 202.126ZM322.125 202H320.577L320.451 200.938C320.163 201.322 319.797 201.616 319.353 201.82C318.921 202.024 318.435 202.126 317.895 202.126C317.199 202.126 316.593 201.982 316.077 201.694C315.561 201.394 315.159 200.962 314.871 200.398C314.595 199.822 314.457 199.108 314.457 198.256V193H316.167V198.04C316.167 198.868 316.335 199.498 316.671 199.93C317.019 200.362 317.541 200.578 318.237 200.578C318.921 200.578 319.455 200.356 319.839 199.912C320.235 199.468 320.433 198.808 320.433 197.932V193H322.125V202ZM324.691 193H326.239L326.347 194.044C326.635 193.684 326.995 193.402 327.427 193.198C327.859 192.982 328.345 192.874 328.885 192.874C329.497 192.874 330.049 193.012 330.541 193.288C331.045 193.552 331.441 193.948 331.729 194.476C332.029 193.948 332.455 193.552 333.007 193.288C333.559 193.012 334.165 192.874 334.825 192.874C335.509 192.874 336.109 193.024 336.625 193.324C337.153 193.612 337.561 194.044 337.849 194.62C338.137 195.196 338.281 195.916 338.281 196.78V202H336.571V196.996C336.571 196.156 336.391 195.52 336.031 195.088C335.671 194.644 335.155 194.422 334.483 194.422C333.799 194.422 333.259 194.65 332.863 195.106C332.467 195.562 332.269 196.228 332.269 197.104V202H330.559V196.996C330.559 196.156 330.391 195.52 330.055 195.088C329.719 194.644 329.215 194.422 328.543 194.422C327.859 194.422 327.325 194.65 326.941 195.106C326.569 195.562 326.383 196.228 326.383 197.104V202H324.691V193ZM344.61 202.126C343.746 202.126 342.978 201.928 342.306 201.532C341.646 201.124 341.124 200.566 340.74 199.858C340.368 199.15 340.182 198.34 340.182 197.428C340.182 196.552 340.368 195.772 340.74 195.088C341.112 194.404 341.622 193.864 342.27 193.468C342.93 193.072 343.674 192.874 344.502 192.874C345.342 192.874 346.086 193.06 346.734 193.432C347.382 193.792 347.886 194.302 348.246 194.962C348.606 195.61 348.78 196.36 348.768 197.212C348.768 197.356 348.762 197.506 348.75 197.662C348.738 197.806 348.72 197.968 348.696 198.148H342.036C342.072 198.628 342.204 199.054 342.432 199.426C342.672 199.786 342.972 200.068 343.332 200.272C343.704 200.476 344.124 200.578 344.592 200.578C345.192 200.578 345.714 200.464 346.158 200.236C346.602 199.996 346.914 199.678 347.094 199.282L348.57 199.804C348.21 200.536 347.682 201.106 346.986 201.514C346.302 201.922 345.51 202.126 344.61 202.126ZM346.914 196.69C346.914 196.258 346.806 195.868 346.59 195.52C346.374 195.172 346.08 194.902 345.708 194.71C345.348 194.506 344.94 194.404 344.484 194.404C344.076 194.404 343.698 194.506 343.35 194.71C343.014 194.902 342.726 195.172 342.486 195.52C342.258 195.856 342.114 196.246 342.054 196.69H346.914ZM350.847 193H352.395L352.503 194.044C352.791 193.672 353.157 193.384 353.601 193.18C354.045 192.976 354.537 192.874 355.077 192.874C355.773 192.874 356.373 193.024 356.877 193.324C357.393 193.612 357.789 194.044 358.065 194.62C358.353 195.196 358.497 195.916 358.497 196.78V202H356.805V196.996C356.805 196.156 356.625 195.52 356.265 195.088C355.917 194.644 355.407 194.422 354.735 194.422C354.039 194.422 353.499 194.65 353.115 195.106C352.731 195.55 352.539 196.21 352.539 197.086V202H350.847V193ZM361.513 193V190.48H363.223V193H365.473V194.512H363.223V198.94C363.223 199.492 363.331 199.882 363.547 200.11C363.775 200.338 364.057 200.47 364.393 200.506C364.741 200.53 365.101 200.518 365.473 200.47V201.928C364.981 202.036 364.495 202.066 364.015 202.018C363.547 201.982 363.121 201.85 362.737 201.622C362.365 201.394 362.065 201.064 361.837 200.632C361.621 200.188 361.513 199.624 361.513 198.94V194.512H360.217V193H361.513Z" fill="white"/>
<path d="M151.061 220.2H152.307L148.723 226.234V230H147.603V226.248L144.019 220.2H145.265L148.163 225.17L151.061 220.2ZM155.836 230.098C155.174 230.098 154.581 229.953 154.058 229.664C153.536 229.375 153.125 228.964 152.826 228.432C152.528 227.891 152.378 227.251 152.378 226.514C152.378 225.767 152.528 225.123 152.826 224.582C153.134 224.041 153.55 223.625 154.072 223.336C154.604 223.047 155.202 222.902 155.864 222.902C156.527 222.902 157.12 223.047 157.642 223.336C158.174 223.625 158.59 224.041 158.888 224.582C159.196 225.114 159.35 225.749 159.35 226.486C159.35 227.233 159.196 227.877 158.888 228.418C158.58 228.959 158.16 229.375 157.628 229.664C157.096 229.953 156.499 230.098 155.836 230.098ZM155.822 229.104C156.233 229.104 156.62 229.015 156.984 228.838C157.348 228.651 157.642 228.367 157.866 227.984C158.1 227.592 158.216 227.097 158.216 226.5C158.216 225.893 158.104 225.399 157.88 225.016C157.656 224.633 157.362 224.353 156.998 224.176C156.644 223.989 156.261 223.896 155.85 223.896C155.44 223.896 155.057 223.989 154.702 224.176C154.348 224.353 154.058 224.638 153.834 225.03C153.62 225.413 153.512 225.903 153.512 226.5C153.512 227.107 153.62 227.601 153.834 227.984C154.049 228.367 154.329 228.651 154.674 228.838C155.029 229.015 155.412 229.104 155.822 229.104ZM166.796 230H165.844L165.774 228.992C165.56 229.347 165.27 229.622 164.906 229.818C164.542 230.005 164.118 230.098 163.632 230.098C163.091 230.098 162.62 229.986 162.218 229.762C161.817 229.538 161.504 229.202 161.28 228.754C161.066 228.306 160.958 227.741 160.958 227.06V223H161.994V226.948C161.994 227.667 162.148 228.213 162.456 228.586C162.774 228.95 163.226 229.132 163.814 229.132C164.412 229.132 164.883 228.941 165.228 228.558C165.583 228.166 165.76 227.578 165.76 226.794V223H166.796V230ZM175.837 230.098C175.156 230.098 174.559 229.949 174.045 229.65C173.532 229.351 173.131 228.936 172.841 228.404C172.561 227.863 172.421 227.237 172.421 226.528C172.421 225.809 172.561 225.179 172.841 224.638C173.131 224.087 173.532 223.663 174.045 223.364C174.559 223.056 175.156 222.902 175.837 222.902C176.556 222.902 177.186 223.07 177.727 223.406C178.269 223.733 178.661 224.19 178.903 224.778L177.937 225.114C177.797 224.741 177.541 224.447 177.167 224.232C176.803 224.008 176.379 223.896 175.893 223.896C175.417 223.896 175.002 224.003 174.647 224.218C174.302 224.433 174.031 224.736 173.835 225.128C173.649 225.52 173.555 225.982 173.555 226.514C173.555 227.298 173.765 227.928 174.185 228.404C174.605 228.871 175.165 229.104 175.865 229.104C176.341 229.104 176.766 228.997 177.139 228.782C177.513 228.567 177.788 228.278 177.965 227.914L178.917 228.25C178.665 228.829 178.269 229.281 177.727 229.608C177.186 229.935 176.556 230.098 175.837 230.098ZM185.017 230L184.933 228.74C184.737 229.169 184.447 229.505 184.065 229.748C183.682 229.981 183.197 230.098 182.609 230.098C182.105 230.098 181.675 230.019 181.321 229.86C180.966 229.701 180.691 229.477 180.495 229.188C180.308 228.889 180.215 228.539 180.215 228.138C180.215 227.55 180.434 227.069 180.873 226.696C181.311 226.313 181.946 226.08 182.777 225.996L184.933 225.758V225.198C184.933 224.806 184.788 224.493 184.499 224.26C184.209 224.017 183.817 223.896 183.323 223.896C182.837 223.896 182.431 224.008 182.105 224.232C181.787 224.456 181.568 224.778 181.447 225.198L180.495 224.862C180.681 224.246 181.022 223.765 181.517 223.42C182.021 223.075 182.632 222.902 183.351 222.902C184.181 222.902 184.825 223.117 185.283 223.546C185.749 223.966 185.983 224.54 185.983 225.268V230H185.017ZM184.933 226.654L182.763 226.906C182.296 226.962 181.941 227.093 181.699 227.298C181.456 227.494 181.335 227.755 181.335 228.082C181.335 228.409 181.451 228.67 181.685 228.866C181.927 229.062 182.273 229.16 182.721 229.16C183.234 229.16 183.654 229.057 183.981 228.852C184.307 228.647 184.545 228.371 184.695 228.026C184.853 227.671 184.933 227.289 184.933 226.878V226.654ZM188.031 223H188.997L189.053 223.994C189.277 223.649 189.571 223.383 189.935 223.196C190.299 223 190.724 222.902 191.209 222.902C191.741 222.902 192.208 223.019 192.609 223.252C193.01 223.476 193.323 223.817 193.547 224.274C193.771 224.722 193.883 225.287 193.883 225.968V230H192.833V226.094C192.833 225.366 192.674 224.815 192.357 224.442C192.049 224.059 191.601 223.868 191.013 223.868C190.406 223.868 189.93 224.069 189.585 224.47C189.249 224.871 189.081 225.464 189.081 226.248V230H188.031V223ZM200.054 223H201.09V230H200.054V223ZM200.586 221.6C200.371 221.6 200.194 221.53 200.054 221.39C199.914 221.25 199.844 221.077 199.844 220.872C199.844 220.657 199.914 220.48 200.054 220.34C200.194 220.2 200.371 220.13 200.586 220.13C200.782 220.13 200.95 220.2 201.09 220.34C201.239 220.48 201.314 220.657 201.314 220.872C201.314 221.077 201.239 221.25 201.09 221.39C200.95 221.53 200.782 221.6 200.586 221.6ZM203.453 223H204.419L204.475 223.994C204.699 223.649 204.993 223.383 205.357 223.196C205.721 223 206.146 222.902 206.631 222.902C207.163 222.902 207.63 223.019 208.031 223.252C208.432 223.476 208.745 223.817 208.969 224.274C209.193 224.722 209.305 225.287 209.305 225.968V230H208.255V226.094C208.255 225.366 208.096 224.815 207.779 224.442C207.471 224.059 207.023 223.868 206.435 223.868C205.828 223.868 205.352 224.069 205.007 224.47C204.671 224.871 204.503 225.464 204.503 226.248V230H203.453V223ZM216.746 228.586C216.531 229.015 216.204 229.375 215.766 229.664C215.327 229.953 214.776 230.098 214.114 230.098C213.47 230.098 212.905 229.949 212.42 229.65C211.944 229.351 211.57 228.936 211.3 228.404C211.038 227.863 210.908 227.228 210.908 226.5C210.908 225.763 211.038 225.128 211.3 224.596C211.57 224.055 211.944 223.639 212.42 223.35C212.905 223.051 213.47 222.902 214.114 222.902C214.739 222.902 215.262 223.037 215.682 223.308C216.111 223.579 216.433 223.91 216.648 224.302L216.718 223H217.684V232.8H216.634V228.572L216.746 228.586ZM212.042 226.5C212.042 227.303 212.247 227.942 212.658 228.418C213.078 228.885 213.638 229.118 214.338 229.118C214.776 229.118 215.168 229.015 215.514 228.81C215.859 228.595 216.13 228.292 216.326 227.9C216.531 227.508 216.634 227.041 216.634 226.5C216.634 225.949 216.531 225.478 216.326 225.086C216.13 224.694 215.859 224.395 215.514 224.19C215.168 223.985 214.776 223.882 214.338 223.882C213.628 223.882 213.068 224.12 212.658 224.596C212.247 225.063 212.042 225.697 212.042 226.5ZM225.558 230H224.606L224.536 228.992C224.321 229.347 224.032 229.622 223.668 229.818C223.304 230.005 222.879 230.098 222.394 230.098C221.853 230.098 221.381 229.986 220.98 229.762C220.579 229.538 220.266 229.202 220.042 228.754C219.827 228.306 219.72 227.741 219.72 227.06V223H220.756V226.948C220.756 227.667 220.91 228.213 221.218 228.586C221.535 228.95 221.988 229.132 222.576 229.132C223.173 229.132 223.645 228.941 223.99 228.558C224.345 228.166 224.522 227.578 224.522 226.794V223H225.558V230ZM227.903 223H228.939V230H227.903V223ZM228.435 221.6C228.221 221.6 228.043 221.53 227.903 221.39C227.763 221.25 227.693 221.077 227.693 220.872C227.693 220.657 227.763 220.48 227.903 220.34C228.043 220.2 228.221 220.13 228.435 220.13C228.631 220.13 228.799 220.2 228.939 220.34C229.089 220.48 229.163 220.657 229.163 220.872C229.163 221.077 229.089 221.25 228.939 221.39C228.799 221.53 228.631 221.6 228.435 221.6ZM231.303 223H232.269L232.325 224.022C232.511 223.77 232.735 223.555 232.997 223.378C233.267 223.201 233.561 223.079 233.879 223.014C234.205 222.939 234.551 222.935 234.915 223V224.05C234.523 223.975 234.168 223.975 233.851 224.05C233.543 224.125 233.277 224.265 233.053 224.47C232.829 224.675 232.656 224.937 232.535 225.254C232.413 225.562 232.353 225.921 232.353 226.332V230H231.303V223ZM239.151 230.098C238.497 230.098 237.914 229.939 237.401 229.622C236.897 229.305 236.5 228.871 236.211 228.32C235.921 227.769 235.777 227.139 235.777 226.43C235.777 225.749 235.921 225.142 236.211 224.61C236.5 224.078 236.897 223.663 237.401 223.364C237.905 223.056 238.479 222.902 239.123 222.902C239.757 222.902 240.322 223.042 240.817 223.322C241.321 223.602 241.713 223.989 241.993 224.484C242.273 224.979 242.403 225.543 242.385 226.178C242.385 226.281 242.38 226.388 242.371 226.5C242.361 226.612 242.352 226.733 242.343 226.864H236.925C236.943 227.303 237.051 227.69 237.247 228.026C237.443 228.362 237.699 228.628 238.017 228.824C238.343 229.011 238.712 229.104 239.123 229.104C239.664 229.104 240.121 229.001 240.495 228.796C240.877 228.591 241.153 228.297 241.321 227.914L242.231 228.278C241.951 228.866 241.545 229.319 241.013 229.636C240.481 229.944 239.86 230.098 239.151 230.098ZM241.237 225.954C241.246 225.553 241.157 225.198 240.971 224.89C240.793 224.582 240.541 224.339 240.215 224.162C239.888 223.985 239.51 223.896 239.081 223.896C238.707 223.896 238.367 223.985 238.059 224.162C237.751 224.339 237.494 224.587 237.289 224.904C237.093 225.212 236.976 225.562 236.939 225.954H241.237ZM252.419 230L252.335 228.74C252.139 229.169 251.85 229.505 251.467 229.748C251.084 229.981 250.599 230.098 250.011 230.098C249.507 230.098 249.078 230.019 248.723 229.86C248.368 229.701 248.093 229.477 247.897 229.188C247.71 228.889 247.617 228.539 247.617 228.138C247.617 227.55 247.836 227.069 248.275 226.696C248.714 226.313 249.348 226.08 250.179 225.996L252.335 225.758V225.198C252.335 224.806 252.19 224.493 251.901 224.26C251.612 224.017 251.22 223.896 250.725 223.896C250.24 223.896 249.834 224.008 249.507 224.232C249.19 224.456 248.97 224.778 248.849 225.198L247.897 224.862C248.084 224.246 248.424 223.765 248.919 223.42C249.423 223.075 250.034 222.902 250.753 222.902C251.584 222.902 252.228 223.117 252.685 223.546C253.152 223.966 253.385 224.54 253.385 225.268V230H252.419ZM252.335 226.654L250.165 226.906C249.698 226.962 249.344 227.093 249.101 227.298C248.858 227.494 248.737 227.755 248.737 228.082C248.737 228.409 248.854 228.67 249.087 228.866C249.33 229.062 249.675 229.16 250.123 229.16C250.636 229.16 251.056 229.057 251.383 228.852C251.71 228.647 251.948 228.371 252.097 228.026C252.256 227.671 252.335 227.289 252.335 226.878V226.654ZM256.371 224.414C256.577 223.985 256.899 223.625 257.337 223.336C257.776 223.047 258.331 222.902 259.003 222.902C259.647 222.902 260.207 223.051 260.683 223.35C261.169 223.649 261.542 224.069 261.803 224.61C262.074 225.142 262.209 225.772 262.209 226.5C262.209 227.228 262.074 227.863 261.803 228.404C261.533 228.945 261.155 229.365 260.669 229.664C260.193 229.953 259.638 230.098 259.003 230.098C258.369 230.098 257.841 229.963 257.421 229.692C257.001 229.421 256.684 229.09 256.469 228.698L256.399 230H255.433V219.92H256.483V224.428L256.371 224.414ZM261.075 226.5C261.075 225.697 260.865 225.063 260.445 224.596C260.035 224.12 259.479 223.882 258.779 223.882C258.341 223.882 257.944 223.989 257.589 224.204C257.244 224.409 256.973 224.708 256.777 225.1C256.581 225.483 256.483 225.949 256.483 226.5C256.483 227.051 256.581 227.522 256.777 227.914C256.973 228.306 257.244 228.605 257.589 228.81C257.944 229.015 258.341 229.118 258.779 229.118C259.479 229.118 260.035 228.885 260.445 228.418C260.865 227.942 261.075 227.303 261.075 226.5ZM266.948 230.098C266.285 230.098 265.692 229.953 265.17 229.664C264.647 229.375 264.236 228.964 263.938 228.432C263.639 227.891 263.49 227.251 263.49 226.514C263.49 225.767 263.639 225.123 263.938 224.582C264.246 224.041 264.661 223.625 265.184 223.336C265.716 223.047 266.313 222.902 266.976 222.902C267.638 222.902 268.231 223.047 268.754 223.336C269.286 223.625 269.701 224.041 270 224.582C270.308 225.114 270.462 225.749 270.462 226.486C270.462 227.233 270.308 227.877 270 228.418C269.692 228.959 269.272 229.375 268.74 229.664C268.208 229.953 267.61 230.098 266.948 230.098ZM266.934 229.104C267.344 229.104 267.732 229.015 268.096 228.838C268.46 228.651 268.754 228.367 268.978 227.984C269.211 227.592 269.328 227.097 269.328 226.5C269.328 225.893 269.216 225.399 268.992 225.016C268.768 224.633 268.474 224.353 268.11 224.176C267.755 223.989 267.372 223.896 266.962 223.896C266.551 223.896 266.168 223.989 265.814 224.176C265.459 224.353 265.17 224.638 264.946 225.03C264.731 225.413 264.624 225.903 264.624 226.5C264.624 227.107 264.731 227.601 264.946 227.984C265.16 228.367 265.44 228.651 265.786 228.838C266.14 229.015 266.523 229.104 266.934 229.104ZM277.908 230H276.956L276.886 228.992C276.671 229.347 276.382 229.622 276.018 229.818C275.654 230.005 275.229 230.098 274.744 230.098C274.202 230.098 273.731 229.986 273.33 229.762C272.928 229.538 272.616 229.202 272.392 228.754C272.177 228.306 272.07 227.741 272.07 227.06V223H273.106V226.948C273.106 227.667 273.26 228.213 273.568 228.586C273.885 228.95 274.338 229.132 274.926 229.132C275.523 229.132 275.994 228.941 276.34 228.558C276.694 228.166 276.872 227.578 276.872 226.794V223H277.908V230ZM280.491 223V221.04H281.541V223H283.403V223.98H281.541V227.746C281.541 228.175 281.63 228.488 281.807 228.684C281.994 228.88 282.227 228.997 282.507 229.034C282.796 229.071 283.095 229.071 283.403 229.034V229.944C283.039 230.028 282.68 230.051 282.325 230.014C281.98 229.977 281.667 229.874 281.387 229.706C281.116 229.529 280.897 229.281 280.729 228.964C280.57 228.647 280.491 228.241 280.491 227.746V223.98H279.441V223H280.491ZM289.463 227.858C289.519 228.138 289.621 228.371 289.771 228.558C289.92 228.735 290.111 228.871 290.345 228.964C290.587 229.057 290.867 229.104 291.185 229.104C291.679 229.104 292.053 229.011 292.305 228.824C292.566 228.628 292.697 228.385 292.697 228.096C292.697 227.853 292.617 227.657 292.459 227.508C292.309 227.359 292.109 227.237 291.857 227.144C291.605 227.041 291.325 226.953 291.017 226.878C290.774 226.822 290.513 226.757 290.233 226.682C289.953 226.598 289.687 226.486 289.435 226.346C289.183 226.206 288.977 226.024 288.819 225.8C288.66 225.576 288.581 225.282 288.581 224.918C288.581 224.517 288.688 224.167 288.903 223.868C289.127 223.56 289.43 223.322 289.813 223.154C290.205 222.986 290.653 222.902 291.157 222.902C291.735 222.902 292.249 223.028 292.697 223.28C293.154 223.532 293.471 223.924 293.649 224.456L292.669 224.792C292.603 224.549 292.482 224.363 292.305 224.232C292.137 224.101 291.945 224.013 291.731 223.966C291.525 223.919 291.32 223.896 291.115 223.896C290.695 223.896 290.354 223.98 290.093 224.148C289.841 224.307 289.715 224.549 289.715 224.876C289.715 225.053 289.757 225.203 289.841 225.324C289.925 225.436 290.041 225.529 290.191 225.604C290.34 225.679 290.517 225.744 290.723 225.8C290.928 225.847 291.152 225.903 291.395 225.968C291.665 226.033 291.941 226.117 292.221 226.22C292.501 226.313 292.762 226.439 293.005 226.598C293.247 226.747 293.443 226.943 293.593 227.186C293.751 227.419 293.831 227.713 293.831 228.068C293.831 228.479 293.719 228.838 293.495 229.146C293.271 229.445 292.958 229.678 292.557 229.846C292.165 230.014 291.707 230.098 291.185 230.098C290.466 230.098 289.869 229.939 289.393 229.622C288.926 229.295 288.613 228.819 288.455 228.194L289.463 227.858ZM298.473 230.098C297.82 230.098 297.236 229.939 296.723 229.622C296.219 229.305 295.822 228.871 295.533 228.32C295.244 227.769 295.099 227.139 295.099 226.43C295.099 225.749 295.244 225.142 295.533 224.61C295.822 224.078 296.219 223.663 296.723 223.364C297.227 223.056 297.801 222.902 298.445 222.902C299.08 222.902 299.644 223.042 300.139 223.322C300.643 223.602 301.035 223.989 301.315 224.484C301.595 224.979 301.726 225.543 301.707 226.178C301.707 226.281 301.702 226.388 301.693 226.5C301.684 226.612 301.674 226.733 301.665 226.864H296.247C296.266 227.303 296.373 227.69 296.569 228.026C296.765 228.362 297.022 228.628 297.339 228.824C297.666 229.011 298.034 229.104 298.445 229.104C298.986 229.104 299.444 229.001 299.817 228.796C300.2 228.591 300.475 228.297 300.643 227.914L301.553 228.278C301.273 228.866 300.867 229.319 300.335 229.636C299.803 229.944 299.182 230.098 298.473 230.098ZM300.559 225.954C300.568 225.553 300.48 225.198 300.293 224.89C300.116 224.582 299.864 224.339 299.537 224.162C299.21 223.985 298.832 223.896 298.403 223.896C298.03 223.896 297.689 223.985 297.381 224.162C297.073 224.339 296.816 224.587 296.611 224.904C296.415 225.212 296.298 225.562 296.261 225.954H300.559ZM307.817 230L307.733 228.74C307.537 229.169 307.248 229.505 306.865 229.748C306.483 229.981 305.997 230.098 305.409 230.098C304.905 230.098 304.476 230.019 304.121 229.86C303.767 229.701 303.491 229.477 303.295 229.188C303.109 228.889 303.015 228.539 303.015 228.138C303.015 227.55 303.235 227.069 303.673 226.696C304.112 226.313 304.747 226.08 305.577 225.996L307.733 225.758V225.198C307.733 224.806 307.589 224.493 307.299 224.26C307.01 224.017 306.618 223.896 306.123 223.896C305.638 223.896 305.232 224.008 304.905 224.232C304.588 224.456 304.369 224.778 304.247 225.198L303.295 224.862C303.482 224.246 303.823 223.765 304.317 223.42C304.821 223.075 305.433 222.902 306.151 222.902C306.982 222.902 307.626 223.117 308.083 223.546C308.55 223.966 308.783 224.54 308.783 225.268V230H307.817ZM307.733 226.654L305.563 226.906C305.097 226.962 304.742 227.093 304.499 227.298C304.257 227.494 304.135 227.755 304.135 228.082C304.135 228.409 304.252 228.67 304.485 228.866C304.728 229.062 305.073 229.16 305.521 229.16C306.035 229.16 306.455 229.057 306.781 228.852C307.108 228.647 307.346 228.371 307.495 228.026C307.654 227.671 307.733 227.289 307.733 226.878V226.654ZM310.832 223H311.798L311.854 224.022C312.041 223.77 312.265 223.555 312.526 223.378C312.797 223.201 313.091 223.079 313.408 223.014C313.735 222.939 314.08 222.935 314.444 223V224.05C314.052 223.975 313.697 223.975 313.38 224.05C313.072 224.125 312.806 224.265 312.582 224.47C312.358 224.675 312.185 224.937 312.064 225.254C311.943 225.562 311.882 225.921 311.882 226.332V230H310.832V223ZM318.722 230.098C318.041 230.098 317.443 229.949 316.93 229.65C316.417 229.351 316.015 228.936 315.726 228.404C315.446 227.863 315.306 227.237 315.306 226.528C315.306 225.809 315.446 225.179 315.726 224.638C316.015 224.087 316.417 223.663 316.93 223.364C317.443 223.056 318.041 222.902 318.722 222.902C319.441 222.902 320.071 223.07 320.612 223.406C321.153 223.733 321.545 224.19 321.788 224.778L320.822 225.114C320.682 224.741 320.425 224.447 320.052 224.232C319.688 224.008 319.263 223.896 318.778 223.896C318.302 223.896 317.887 224.003 317.532 224.218C317.187 224.433 316.916 224.736 316.72 225.128C316.533 225.52 316.44 225.982 316.44 226.514C316.44 227.298 316.65 227.928 317.07 228.404C317.49 228.871 318.05 229.104 318.75 229.104C319.226 229.104 319.651 228.997 320.024 228.782C320.397 228.567 320.673 228.278 320.85 227.914L321.802 228.25C321.55 228.829 321.153 229.281 320.612 229.608C320.071 229.935 319.441 230.098 318.722 230.098ZM323.519 219.92H324.569V223.952C324.793 223.616 325.097 223.359 325.479 223.182C325.862 222.995 326.291 222.902 326.767 222.902C327.281 222.902 327.738 223.019 328.139 223.252C328.541 223.485 328.853 223.831 329.077 224.288C329.311 224.745 329.427 225.315 329.427 225.996V230H328.307V226.122C328.307 225.394 328.153 224.839 327.845 224.456C327.537 224.064 327.089 223.868 326.501 223.868C325.895 223.868 325.419 224.073 325.073 224.484C324.737 224.895 324.569 225.492 324.569 226.276V230H323.519V219.92ZM331.673 223H332.709V230H331.673V223ZM332.205 221.6C331.99 221.6 331.813 221.53 331.673 221.39C331.533 221.25 331.463 221.077 331.463 220.872C331.463 220.657 331.533 220.48 331.673 220.34C331.813 220.2 331.99 220.13 332.205 220.13C332.401 220.13 332.569 220.2 332.709 220.34C332.858 220.48 332.933 220.657 332.933 220.872C332.933 221.077 332.858 221.25 332.709 221.39C332.569 221.53 332.401 221.6 332.205 221.6ZM335.072 223H336.038L336.094 223.994C336.318 223.649 336.612 223.383 336.976 223.196C337.34 223 337.765 222.902 338.25 222.902C338.782 222.902 339.249 223.019 339.65 223.252C340.051 223.476 340.364 223.817 340.588 224.274C340.812 224.722 340.924 225.287 340.924 225.968V230H339.874V226.094C339.874 225.366 339.715 224.815 339.398 224.442C339.09 224.059 338.642 223.868 338.054 223.868C337.447 223.868 336.971 224.069 336.626 224.47C336.29 224.871 336.122 225.464 336.122 226.248V230H335.072V223ZM348.337 223H349.303V228.712C349.303 229.571 349.111 230.303 348.729 230.91C348.346 231.526 347.791 231.993 347.063 232.31C346.335 232.637 345.448 232.8 344.403 232.8L344.235 231.834C345.551 231.815 346.549 231.54 347.231 231.008C347.912 230.485 348.253 229.72 348.253 228.712V228.558L348.365 228.586C348.15 228.997 347.828 229.351 347.399 229.65C346.969 229.939 346.414 230.089 345.733 230.098C345.089 230.098 344.524 229.953 344.039 229.664C343.563 229.365 343.189 228.945 342.919 228.404C342.657 227.863 342.527 227.228 342.527 226.5C342.527 225.772 342.657 225.142 342.919 224.61C343.189 224.069 343.563 223.649 344.039 223.35C344.524 223.051 345.089 222.902 345.733 222.902C346.153 222.902 346.526 222.967 346.853 223.098C347.179 223.219 347.459 223.387 347.693 223.602C347.926 223.807 348.117 224.041 348.267 224.302L348.337 223ZM343.661 226.5C343.661 227.303 343.866 227.942 344.277 228.418C344.697 228.885 345.261 229.118 345.971 229.118C346.4 229.118 346.787 229.015 347.133 228.81C347.478 228.605 347.749 228.306 347.945 227.914C348.15 227.522 348.253 227.051 348.253 226.5C348.253 225.949 348.15 225.483 347.945 225.1C347.749 224.708 347.478 224.409 347.133 224.204C346.787 223.989 346.4 223.882 345.971 223.882C345.271 223.882 344.711 224.12 344.291 224.596C343.871 225.072 343.661 225.707 343.661 226.5ZM161.563 248L161.479 246.74C161.283 247.169 160.993 247.505 160.611 247.748C160.228 247.981 159.743 248.098 159.155 248.098C158.651 248.098 158.221 248.019 157.867 247.86C157.512 247.701 157.237 247.477 157.041 247.188C156.854 246.889 156.761 246.539 156.761 246.138C156.761 245.55 156.98 245.069 157.419 244.696C157.857 244.313 158.492 244.08 159.323 243.996L161.479 243.758V243.198C161.479 242.806 161.334 242.493 161.045 242.26C160.755 242.017 160.363 241.896 159.869 241.896C159.383 241.896 158.977 242.008 158.651 242.232C158.333 242.456 158.114 242.778 157.993 243.198L157.041 242.862C157.227 242.246 157.568 241.765 158.063 241.42C158.567 241.075 159.178 240.902 159.897 240.902C160.727 240.902 161.371 241.117 161.829 241.546C162.295 241.966 162.529 242.54 162.529 243.268V248H161.563ZM161.479 244.654L159.309 244.906C158.842 244.962 158.487 245.093 158.245 245.298C158.002 245.494 157.881 245.755 157.881 246.082C157.881 246.409 157.997 246.67 158.231 246.866C158.473 247.062 158.819 247.16 159.267 247.16C159.78 247.16 160.2 247.057 160.527 246.852C160.853 246.647 161.091 246.371 161.241 246.026C161.399 245.671 161.479 245.289 161.479 244.878V244.654ZM164.577 241H165.543L165.599 241.994C165.823 241.649 166.117 241.383 166.481 241.196C166.845 241 167.27 240.902 167.755 240.902C168.287 240.902 168.754 241.019 169.155 241.252C169.556 241.476 169.869 241.817 170.093 242.274C170.317 242.722 170.429 243.287 170.429 243.968V248H169.379V244.094C169.379 243.366 169.22 242.815 168.903 242.442C168.595 242.059 168.147 241.868 167.559 241.868C166.952 241.868 166.476 242.069 166.131 242.47C165.795 242.871 165.627 243.464 165.627 244.248V248H164.577V241ZM177.048 241H178.14L174.136 250.8H173.128L174.318 247.902L171.49 241H172.638L174.878 246.656L177.048 241ZM179.927 241V239.04H180.977V241H182.839V241.98H180.977V245.746C180.977 246.175 181.066 246.488 181.243 246.684C181.43 246.88 181.663 246.997 181.943 247.034C182.233 247.071 182.531 247.071 182.839 247.034V247.944C182.475 248.028 182.116 248.051 181.761 248.014C181.416 247.977 181.103 247.874 180.823 247.706C180.553 247.529 180.333 247.281 180.165 246.964C180.007 246.647 179.927 246.241 179.927 245.746V241.98H178.877V241H179.927ZM184.401 237.92H185.451V241.952C185.675 241.616 185.979 241.359 186.361 241.182C186.744 240.995 187.173 240.902 187.649 240.902C188.163 240.902 188.62 241.019 189.021 241.252C189.423 241.485 189.735 241.831 189.959 242.288C190.193 242.745 190.309 243.315 190.309 243.996V248H189.189V244.122C189.189 243.394 189.035 242.839 188.727 242.456C188.419 242.064 187.971 241.868 187.383 241.868C186.777 241.868 186.301 242.073 185.955 242.484C185.619 242.895 185.451 243.492 185.451 244.276V248H184.401V237.92ZM192.555 241H193.591V248H192.555V241ZM193.087 239.6C192.872 239.6 192.695 239.53 192.555 239.39C192.415 239.25 192.345 239.077 192.345 238.872C192.345 238.657 192.415 238.48 192.555 238.34C192.695 238.2 192.872 238.13 193.087 238.13C193.283 238.13 193.451 238.2 193.591 238.34C193.74 238.48 193.815 238.657 193.815 238.872C193.815 239.077 193.74 239.25 193.591 239.39C193.451 239.53 193.283 239.6 193.087 239.6ZM195.954 241H196.92L196.976 241.994C197.2 241.649 197.494 241.383 197.858 241.196C198.222 241 198.647 240.902 199.132 240.902C199.664 240.902 200.131 241.019 200.532 241.252C200.933 241.476 201.246 241.817 201.47 242.274C201.694 242.722 201.806 243.287 201.806 243.968V248H200.756V244.094C200.756 243.366 200.597 242.815 200.28 242.442C199.972 242.059 199.524 241.868 198.936 241.868C198.329 241.868 197.853 242.069 197.508 242.47C197.172 242.871 197.004 243.464 197.004 244.248V248H195.954V241ZM209.219 241H210.185V246.712C210.185 247.571 209.993 248.303 209.611 248.91C209.228 249.526 208.673 249.993 207.945 250.31C207.217 250.637 206.33 250.8 205.285 250.8L205.117 249.834C206.433 249.815 207.431 249.54 208.113 249.008C208.794 248.485 209.135 247.72 209.135 246.712V246.558L209.247 246.586C209.032 246.997 208.71 247.351 208.281 247.65C207.851 247.939 207.296 248.089 206.615 248.098C205.971 248.098 205.406 247.953 204.921 247.664C204.445 247.365 204.071 246.945 203.801 246.404C203.539 245.863 203.409 245.228 203.409 244.5C203.409 243.772 203.539 243.142 203.801 242.61C204.071 242.069 204.445 241.649 204.921 241.35C205.406 241.051 205.971 240.902 206.615 240.902C207.035 240.902 207.408 240.967 207.735 241.098C208.061 241.219 208.341 241.387 208.575 241.602C208.808 241.807 208.999 242.041 209.149 242.302L209.219 241ZM204.543 244.5C204.543 245.303 204.748 245.942 205.159 246.418C205.579 246.885 206.143 247.118 206.853 247.118C207.282 247.118 207.669 247.015 208.015 246.81C208.36 246.605 208.631 246.306 208.827 245.914C209.032 245.522 209.135 245.051 209.135 244.5C209.135 243.949 209.032 243.483 208.827 243.1C208.631 242.708 208.36 242.409 208.015 242.204C207.669 241.989 207.282 241.882 206.853 241.882C206.153 241.882 205.593 242.12 205.173 242.596C204.753 243.072 204.543 243.707 204.543 244.5ZM218.693 248H217.741L215.543 241H216.607L218.217 246.698L220.023 241H220.975L222.753 246.684L224.349 241H225.385L223.201 248H222.235L220.471 242.568L218.693 248ZM227.021 241H228.057V248H227.021V241ZM227.553 239.6C227.339 239.6 227.161 239.53 227.021 239.39C226.881 239.25 226.811 239.077 226.811 238.872C226.811 238.657 226.881 238.48 227.021 238.34C227.161 238.2 227.339 238.13 227.553 238.13C227.749 238.13 227.917 238.2 228.057 238.34C228.207 238.48 228.281 238.657 228.281 238.872C228.281 239.077 228.207 239.25 228.057 239.39C227.917 239.53 227.749 239.6 227.553 239.6ZM230.869 241V239.04H231.919V241H233.781V241.98H231.919V245.746C231.919 246.175 232.007 246.488 232.185 246.684C232.371 246.88 232.605 246.997 232.885 247.034C233.174 247.071 233.473 247.071 233.781 247.034V247.944C233.417 248.028 233.057 248.051 232.703 248.014C232.357 247.977 232.045 247.874 231.765 247.706C231.494 247.529 231.275 247.281 231.107 246.964C230.948 246.647 230.869 246.241 230.869 245.746V241.98H229.819V241H230.869ZM235.343 237.92H236.393V241.952C236.617 241.616 236.92 241.359 237.303 241.182C237.685 240.995 238.115 240.902 238.591 240.902C239.104 240.902 239.561 241.019 239.963 241.252C240.364 241.485 240.677 241.831 240.901 242.288C241.134 242.745 241.251 243.315 241.251 243.996V248H240.131V244.122C240.131 243.394 239.977 242.839 239.669 242.456C239.361 242.064 238.913 241.868 238.325 241.868C237.718 241.868 237.242 242.073 236.897 242.484C236.561 242.895 236.393 243.492 236.393 244.276V248H235.343V237.92ZM243.496 241H244.532V248H243.496V241ZM244.028 239.6C243.813 239.6 243.636 239.53 243.496 239.39C243.356 239.25 243.286 239.077 243.286 238.872C243.286 238.657 243.356 238.48 243.496 238.34C243.636 238.2 243.813 238.13 244.028 238.13C244.224 238.13 244.392 238.2 244.532 238.34C244.681 238.48 244.756 238.657 244.756 238.872C244.756 239.077 244.681 239.25 244.532 239.39C244.392 239.53 244.224 239.6 244.028 239.6ZM246.895 241H247.861L247.917 241.994C248.141 241.649 248.435 241.383 248.799 241.196C249.163 241 249.588 240.902 250.073 240.902C250.605 240.902 251.072 241.019 251.473 241.252C251.875 241.476 252.187 241.817 252.411 242.274C252.635 242.722 252.747 243.287 252.747 243.968V248H251.697V244.094C251.697 243.366 251.539 242.815 251.221 242.442C250.913 242.059 250.465 241.868 249.877 241.868C249.271 241.868 248.795 242.069 248.449 242.47C248.113 242.871 247.945 243.464 247.945 244.248V248H246.895V241ZM263.09 248L263.006 246.74C262.81 247.169 262.521 247.505 262.138 247.748C261.755 247.981 261.27 248.098 260.682 248.098C260.178 248.098 259.749 248.019 259.394 247.86C259.039 247.701 258.764 247.477 258.568 247.188C258.381 246.889 258.288 246.539 258.288 246.138C258.288 245.55 258.507 245.069 258.946 244.696C259.385 244.313 260.019 244.08 260.85 243.996L263.006 243.758V243.198C263.006 242.806 262.861 242.493 262.572 242.26C262.283 242.017 261.891 241.896 261.396 241.896C260.911 241.896 260.505 242.008 260.178 242.232C259.861 242.456 259.641 242.778 259.52 243.198L258.568 242.862C258.755 242.246 259.095 241.765 259.59 241.42C260.094 241.075 260.705 240.902 261.424 240.902C262.255 240.902 262.899 241.117 263.356 241.546C263.823 241.966 264.056 242.54 264.056 243.268V248H263.09ZM263.006 244.654L260.836 244.906C260.369 244.962 260.015 245.093 259.772 245.298C259.529 245.494 259.408 245.755 259.408 246.082C259.408 246.409 259.525 246.67 259.758 246.866C260.001 247.062 260.346 247.16 260.794 247.16C261.307 247.16 261.727 247.057 262.054 246.852C262.381 246.647 262.619 246.371 262.768 246.026C262.927 245.671 263.006 245.289 263.006 244.878V244.654ZM275.432 242.414L275.32 242.428V237.92H276.37V248H275.404L275.334 246.698C275.12 247.09 274.798 247.421 274.368 247.692C273.948 247.963 273.426 248.098 272.8 248.098C272.156 248.098 271.592 247.953 271.106 247.664C270.63 247.365 270.257 246.945 269.986 246.404C269.725 245.863 269.594 245.228 269.594 244.5C269.594 243.772 269.725 243.142 269.986 242.61C270.257 242.069 270.63 241.649 271.106 241.35C271.592 241.051 272.156 240.902 272.8 240.902C273.463 240.902 274.014 241.047 274.452 241.336C274.891 241.625 275.218 241.985 275.432 242.414ZM270.728 244.5C270.728 245.303 270.934 245.942 271.344 246.418C271.755 246.885 272.315 247.118 273.024 247.118C273.463 247.118 273.855 247.015 274.2 246.81C274.546 246.605 274.816 246.306 275.012 245.914C275.218 245.522 275.32 245.051 275.32 244.5C275.32 243.949 275.218 243.483 275.012 243.1C274.816 242.708 274.546 242.409 274.2 242.204C273.855 241.989 273.463 241.882 273.024 241.882C272.324 241.882 271.764 242.12 271.344 242.596C270.934 243.063 270.728 243.697 270.728 244.5ZM281.542 248.098C280.88 248.098 280.287 247.953 279.764 247.664C279.242 247.375 278.831 246.964 278.532 246.432C278.234 245.891 278.084 245.251 278.084 244.514C278.084 243.767 278.234 243.123 278.532 242.582C278.84 242.041 279.256 241.625 279.778 241.336C280.31 241.047 280.908 240.902 281.57 240.902C282.233 240.902 282.826 241.047 283.348 241.336C283.88 241.625 284.296 242.041 284.594 242.582C284.902 243.114 285.056 243.749 285.056 244.486C285.056 245.233 284.902 245.877 284.594 246.418C284.286 246.959 283.866 247.375 283.334 247.664C282.802 247.953 282.205 248.098 281.542 248.098ZM281.528 247.104C281.939 247.104 282.326 247.015 282.69 246.838C283.054 246.651 283.348 246.367 283.572 245.984C283.806 245.592 283.922 245.097 283.922 244.5C283.922 243.893 283.81 243.399 283.586 243.016C283.362 242.633 283.068 242.353 282.704 242.176C282.35 241.989 281.967 241.896 281.556 241.896C281.146 241.896 280.763 241.989 280.408 242.176C280.054 242.353 279.764 242.638 279.54 243.03C279.326 243.413 279.218 243.903 279.218 244.5C279.218 245.107 279.326 245.601 279.54 245.984C279.755 246.367 280.035 246.651 280.38 246.838C280.735 247.015 281.118 247.104 281.528 247.104ZM289.758 248.098C289.077 248.098 288.48 247.949 287.966 247.65C287.453 247.351 287.052 246.936 286.762 246.404C286.482 245.863 286.342 245.237 286.342 244.528C286.342 243.809 286.482 243.179 286.762 242.638C287.052 242.087 287.453 241.663 287.966 241.364C288.48 241.056 289.077 240.902 289.758 240.902C290.477 240.902 291.107 241.07 291.648 241.406C292.19 241.733 292.582 242.19 292.824 242.778L291.858 243.114C291.718 242.741 291.462 242.447 291.088 242.232C290.724 242.008 290.3 241.896 289.814 241.896C289.338 241.896 288.923 242.003 288.568 242.218C288.223 242.433 287.952 242.736 287.756 243.128C287.57 243.52 287.476 243.982 287.476 244.514C287.476 245.298 287.686 245.928 288.106 246.404C288.526 246.871 289.086 247.104 289.786 247.104C290.262 247.104 290.687 246.997 291.06 246.782C291.434 246.567 291.709 246.278 291.886 245.914L292.838 246.25C292.586 246.829 292.19 247.281 291.648 247.608C291.107 247.935 290.477 248.098 289.758 248.098ZM300.282 248H299.33L299.26 246.992C299.045 247.347 298.756 247.622 298.392 247.818C298.028 248.005 297.603 248.098 297.118 248.098C296.576 248.098 296.105 247.986 295.704 247.762C295.302 247.538 294.99 247.202 294.766 246.754C294.551 246.306 294.444 245.741 294.444 245.06V241H295.48V244.948C295.48 245.667 295.634 246.213 295.942 246.586C296.259 246.95 296.712 247.132 297.3 247.132C297.897 247.132 298.368 246.941 298.714 246.558C299.068 246.166 299.246 245.578 299.246 244.794V241H300.282V248ZM302.417 241H303.383L303.453 242.008C303.658 241.672 303.934 241.406 304.279 241.21C304.634 241.005 305.054 240.902 305.539 240.902C306.034 240.902 306.482 241.023 306.883 241.266C307.294 241.499 307.611 241.849 307.835 242.316C308.05 241.84 308.376 241.485 308.815 241.252C309.254 241.019 309.739 240.902 310.271 240.902C310.794 240.902 311.256 241.019 311.657 241.252C312.058 241.476 312.371 241.817 312.595 242.274C312.819 242.722 312.931 243.287 312.931 243.968V248H311.881V244.094C311.881 243.366 311.722 242.815 311.405 242.442C311.097 242.059 310.654 241.868 310.075 241.868C309.487 241.868 309.02 242.073 308.675 242.484C308.33 242.885 308.157 243.483 308.157 244.276V248H307.107V244.094C307.107 243.366 306.958 242.815 306.659 242.442C306.36 242.059 305.922 241.868 305.343 241.868C304.755 241.868 304.293 242.073 303.957 242.484C303.63 242.885 303.467 243.483 303.467 244.276V248H302.417V241ZM317.908 248.098C317.254 248.098 316.671 247.939 316.158 247.622C315.654 247.305 315.257 246.871 314.968 246.32C314.678 245.769 314.534 245.139 314.534 244.43C314.534 243.749 314.678 243.142 314.968 242.61C315.257 242.078 315.654 241.663 316.158 241.364C316.662 241.056 317.236 240.902 317.88 240.902C318.514 240.902 319.079 241.042 319.574 241.322C320.078 241.602 320.47 241.989 320.75 242.484C321.03 242.979 321.16 243.543 321.142 244.178C321.142 244.281 321.137 244.388 321.128 244.5C321.118 244.612 321.109 244.733 321.1 244.864H315.682C315.7 245.303 315.808 245.69 316.004 246.026C316.2 246.362 316.456 246.628 316.774 246.824C317.1 247.011 317.469 247.104 317.88 247.104C318.421 247.104 318.878 247.001 319.252 246.796C319.634 246.591 319.91 246.297 320.078 245.914L320.988 246.278C320.708 246.866 320.302 247.319 319.77 247.636C319.238 247.944 318.617 248.098 317.908 248.098ZM319.994 243.954C320.003 243.553 319.914 243.198 319.728 242.89C319.55 242.582 319.298 242.339 318.972 242.162C318.645 241.985 318.267 241.896 317.838 241.896C317.464 241.896 317.124 241.985 316.816 242.162C316.508 242.339 316.251 242.587 316.046 242.904C315.85 243.212 315.733 243.562 315.696 243.954H319.994ZM322.87 241H323.836L323.892 241.994C324.116 241.649 324.41 241.383 324.774 241.196C325.138 241 325.563 240.902 326.048 240.902C326.58 240.902 327.047 241.019 327.448 241.252C327.849 241.476 328.162 241.817 328.386 242.274C328.61 242.722 328.722 243.287 328.722 243.968V248H327.672V244.094C327.672 243.366 327.513 242.815 327.196 242.442C326.888 242.059 326.44 241.868 325.852 241.868C325.245 241.868 324.769 242.069 324.424 242.47C324.088 242.871 323.92 243.464 323.92 244.248V248H322.87V241ZM331.207 241V239.04H332.257V241H334.119V241.98H332.257V245.746C332.257 246.175 332.345 246.488 332.523 246.684C332.709 246.88 332.943 246.997 333.223 247.034C333.512 247.071 333.811 247.071 334.119 247.034V247.944C333.755 248.028 333.395 248.051 333.041 248.014C332.695 247.977 332.383 247.874 332.103 247.706C331.832 247.529 331.613 247.281 331.445 246.964C331.286 246.647 331.207 246.241 331.207 245.746V241.98H330.157V241H331.207ZM336.255 248.07C336.04 248.07 335.858 247.995 335.709 247.846C335.569 247.697 335.499 247.515 335.499 247.3C335.499 247.085 335.569 246.903 335.709 246.754C335.858 246.605 336.04 246.53 336.255 246.53C336.46 246.53 336.637 246.605 336.787 246.754C336.936 246.903 337.011 247.085 337.011 247.3C337.011 247.515 336.936 247.697 336.787 247.846C336.637 247.995 336.46 248.07 336.255 248.07Z" fill="#A5A6A9"/>
<path d="M57.488 332.864C57.536 333.08 57.636 333.296 57.788 333.512C57.948 333.72 58.164 333.896 58.436 334.04C58.716 334.176 59.072 334.244 59.504 334.244C60.12 334.244 60.576 334.1 60.872 333.812C61.168 333.524 61.316 333.184 61.316 332.792C61.316 332.48 61.232 332.224 61.064 332.024C60.896 331.824 60.668 331.66 60.38 331.532C60.092 331.396 59.768 331.276 59.408 331.172C59.088 331.084 58.768 330.988 58.448 330.884C58.136 330.772 57.852 330.636 57.596 330.476C57.34 330.308 57.136 330.092 56.984 329.828C56.832 329.564 56.756 329.236 56.756 328.844C56.756 328.372 56.868 327.964 57.092 327.62C57.316 327.268 57.632 326.996 58.04 326.804C58.448 326.612 58.924 326.516 59.468 326.516C59.94 326.516 60.352 326.584 60.704 326.72C61.056 326.856 61.348 327.048 61.58 327.296C61.82 327.536 61.996 327.816 62.108 328.136L61.256 328.46C61.2 328.276 61.092 328.1 60.932 327.932C60.772 327.756 60.564 327.612 60.308 327.5C60.052 327.388 59.76 327.332 59.432 327.332C59.112 327.332 58.82 327.388 58.556 327.5C58.3 327.612 58.096 327.772 57.944 327.98C57.792 328.188 57.716 328.44 57.716 328.736C57.716 329.056 57.804 329.312 57.98 329.504C58.164 329.688 58.404 329.84 58.7 329.96C59.004 330.072 59.336 330.18 59.696 330.284C60.024 330.388 60.34 330.5 60.644 330.62C60.956 330.74 61.232 330.888 61.472 331.064C61.72 331.24 61.916 331.46 62.06 331.724C62.204 331.988 62.276 332.312 62.276 332.696C62.276 333.12 62.176 333.516 61.976 333.884C61.776 334.244 61.472 334.536 61.064 334.76C60.664 334.976 60.148 335.084 59.516 335.084C58.988 335.084 58.524 335.004 58.124 334.844C57.724 334.676 57.396 334.452 57.14 334.172C56.884 333.892 56.708 333.572 56.612 333.212L57.488 332.864ZM68.7226 335H67.9066L67.8466 334.136C67.6626 334.44 67.4146 334.676 67.1026 334.844C66.7906 335.004 66.4266 335.084 66.0106 335.084C65.5466 335.084 65.1426 334.988 64.7986 334.796C64.4546 334.604 64.1866 334.316 63.9946 333.932C63.8106 333.548 63.7186 333.064 63.7186 332.48V329H64.6066V332.384C64.6066 333 64.7386 333.468 65.0026 333.788C65.2746 334.1 65.6626 334.256 66.1666 334.256C66.6786 334.256 67.0826 334.092 67.3786 333.764C67.6826 333.428 67.8346 332.924 67.8346 332.252V329H68.7226V335ZM71.3569 333.788L71.4529 333.776V337.4H70.5529V329H71.3809L71.4409 330.116C71.6249 329.78 71.8969 329.496 72.2569 329.264C72.6169 329.032 73.0689 328.916 73.6129 328.916C74.1329 328.916 74.6009 329.044 75.0169 329.3C75.4329 329.548 75.7609 329.904 76.0009 330.368C76.2409 330.824 76.3609 331.368 76.3609 332C76.3609 332.624 76.2449 333.168 76.0129 333.632C75.7889 334.088 75.4689 334.444 75.0529 334.7C74.6449 334.956 74.1649 335.084 73.6129 335.084C73.0369 335.084 72.5609 334.96 72.1849 334.712C71.8089 334.464 71.5329 334.156 71.3569 333.788ZM75.3889 332C75.3889 331.312 75.2089 330.768 74.8489 330.368C74.4969 329.96 74.0209 329.756 73.4209 329.756C73.0449 329.756 72.7049 329.844 72.4009 330.02C72.1049 330.196 71.8729 330.452 71.7049 330.788C71.5369 331.124 71.4529 331.528 71.4529 332C71.4529 332.464 71.5369 332.864 71.7049 333.2C71.8729 333.536 72.1049 333.796 72.4009 333.98C72.7049 334.156 73.0449 334.244 73.4209 334.244C74.0209 334.244 74.4969 334.044 74.8489 333.644C75.2089 333.236 75.3889 332.688 75.3889 332ZM78.6343 333.788L78.7303 333.776V337.4H77.8303V329H78.6583L78.7183 330.116C78.9023 329.78 79.1743 329.496 79.5343 329.264C79.8943 329.032 80.3463 328.916 80.8903 328.916C81.4103 328.916 81.8783 329.044 82.2943 329.3C82.7103 329.548 83.0383 329.904 83.2783 330.368C83.5183 330.824 83.6383 331.368 83.6383 332C83.6383 332.624 83.5223 333.168 83.2903 333.632C83.0663 334.088 82.7463 334.444 82.3303 334.7C81.9223 334.956 81.4423 335.084 80.8903 335.084C80.3143 335.084 79.8383 334.96 79.4623 334.712C79.0863 334.464 78.8103 334.156 78.6343 333.788ZM82.6663 332C82.6663 331.312 82.4863 330.768 82.1263 330.368C81.7743 329.96 81.2983 329.756 80.6983 329.756C80.3223 329.756 79.9823 329.844 79.6783 330.02C79.3823 330.196 79.1503 330.452 78.9823 330.788C78.8143 331.124 78.7303 331.528 78.7303 332C78.7303 332.464 78.8143 332.864 78.9823 333.2C79.1503 333.536 79.3823 333.796 79.6783 333.98C79.9823 334.156 80.3223 334.244 80.6983 334.244C81.2983 334.244 81.7743 334.044 82.1263 333.644C82.4863 333.236 82.6663 332.688 82.6663 332ZM87.6996 335.084C87.1316 335.084 86.6236 334.96 86.1756 334.712C85.7276 334.464 85.3756 334.112 85.1196 333.656C84.8636 333.192 84.7356 332.644 84.7356 332.012C84.7356 331.372 84.8636 330.82 85.1196 330.356C85.3836 329.892 85.7396 329.536 86.1876 329.288C86.6436 329.04 87.1556 328.916 87.7236 328.916C88.2916 328.916 88.7996 329.04 89.2476 329.288C89.7036 329.536 90.0596 329.892 90.3156 330.356C90.5796 330.812 90.7116 331.356 90.7116 331.988C90.7116 332.628 90.5796 333.18 90.3156 333.644C90.0516 334.108 89.6916 334.464 89.2356 334.712C88.7796 334.96 88.2676 335.084 87.6996 335.084ZM87.6876 334.232C88.0396 334.232 88.3716 334.156 88.6836 334.004C88.9956 333.844 89.2476 333.6 89.4396 333.272C89.6396 332.936 89.7396 332.512 89.7396 332C89.7396 331.48 89.6436 331.056 89.4516 330.728C89.2596 330.4 89.0076 330.16 88.6956 330.008C88.3916 329.848 88.0636 329.768 87.7116 329.768C87.3596 329.768 87.0316 329.848 86.7276 330.008C86.4236 330.16 86.1756 330.404 85.9836 330.74C85.7996 331.068 85.7076 331.488 85.7076 332C85.7076 332.52 85.7996 332.944 85.9836 333.272C86.1676 333.6 86.4076 333.844 86.7036 334.004C87.0076 334.156 87.3356 334.232 87.6876 334.232ZM92.1857 329H93.0137L93.0617 329.876C93.2217 329.66 93.4137 329.476 93.6377 329.324C93.8697 329.172 94.1217 329.068 94.3937 329.012C94.6737 328.948 94.9697 328.944 95.2817 329V329.9C94.9457 329.836 94.6417 329.836 94.3697 329.9C94.1057 329.964 93.8777 330.084 93.6857 330.26C93.4937 330.436 93.3457 330.66 93.2417 330.932C93.1377 331.196 93.0857 331.504 93.0857 331.856V335H92.1857V329ZM96.8939 329V327.32H97.7939V329H99.3899V329.84H97.7939V333.068C97.7939 333.436 97.8699 333.704 98.0219 333.872C98.1819 334.04 98.3819 334.14 98.6219 334.172C98.8699 334.204 99.1259 334.204 99.3899 334.172V334.952C99.0779 335.024 98.7699 335.044 98.4659 335.012C98.1699 334.98 97.9019 334.892 97.6619 334.748C97.4299 334.596 97.2419 334.384 97.0979 334.112C96.9619 333.84 96.8939 333.492 96.8939 333.068V329.84H95.9939V329H96.8939ZM104.188 326.6H109.696V327.44H105.148V330.308H108.568V331.148H105.148V335H104.188V326.6ZM112.954 335.084C112.386 335.084 111.878 334.96 111.43 334.712C110.982 334.464 110.63 334.112 110.374 333.656C110.118 333.192 109.99 332.644 109.99 332.012C109.99 331.372 110.118 330.82 110.374 330.356C110.638 329.892 110.994 329.536 111.442 329.288C111.898 329.04 112.41 328.916 112.978 328.916C113.546 328.916 114.054 329.04 114.502 329.288C114.958 329.536 115.314 329.892 115.57 330.356C115.834 330.812 115.966 331.356 115.966 331.988C115.966 332.628 115.834 333.18 115.57 333.644C115.306 334.108 114.946 334.464 114.49 334.712C114.034 334.96 113.522 335.084 112.954 335.084ZM112.942 334.232C113.294 334.232 113.626 334.156 113.938 334.004C114.25 333.844 114.502 333.6 114.694 333.272C114.894 332.936 114.994 332.512 114.994 332C114.994 331.48 114.898 331.056 114.706 330.728C114.514 330.4 114.262 330.16 113.95 330.008C113.646 329.848 113.318 329.768 112.965 329.768C112.613 329.768 112.286 329.848 111.982 330.008C111.678 330.16 111.43 330.404 111.238 330.74C111.054 331.068 110.962 331.488 110.962 332C110.962 332.52 111.054 332.944 111.238 333.272C111.422 333.6 111.662 333.844 111.958 334.004C112.262 334.156 112.59 334.232 112.942 334.232ZM117.44 329H118.268L118.316 329.876C118.476 329.66 118.668 329.476 118.892 329.324C119.124 329.172 119.376 329.068 119.648 329.012C119.928 328.948 120.224 328.944 120.536 329V329.9C120.2 329.836 119.896 329.836 119.624 329.9C119.36 329.964 119.132 330.084 118.94 330.26C118.748 330.436 118.6 330.66 118.496 330.932C118.392 331.196 118.34 331.504 118.34 331.856V335H117.44V329ZM121.764 329H122.592L122.652 329.864C122.828 329.576 123.064 329.348 123.36 329.18C123.664 329.004 124.024 328.916 124.44 328.916C124.864 328.916 125.248 329.02 125.592 329.228C125.944 329.428 126.216 329.728 126.408 330.128C126.592 329.72 126.872 329.416 127.248 329.216C127.624 329.016 128.04 328.916 128.496 328.916C128.944 328.916 129.34 329.016 129.684 329.216C130.028 329.408 130.296 329.7 130.488 330.092C130.68 330.476 130.776 330.96 130.776 331.544V335H129.876V331.652C129.876 331.028 129.74 330.556 129.468 330.236C129.204 329.908 128.824 329.744 128.328 329.744C127.824 329.744 127.424 329.92 127.128 330.272C126.832 330.616 126.684 331.128 126.684 331.808V335H125.784V331.652C125.784 331.028 125.656 330.556 125.4 330.236C125.144 329.908 124.768 329.744 124.272 329.744C123.768 329.744 123.372 329.92 123.084 330.272C122.804 330.616 122.664 331.128 122.664 331.808V335H121.764V329ZM136.278 335L136.206 333.92C136.038 334.288 135.79 334.576 135.462 334.784C135.134 334.984 134.718 335.084 134.214 335.084C133.782 335.084 133.414 335.016 133.11 334.88C132.806 334.744 132.57 334.552 132.402 334.304C132.242 334.048 132.162 333.748 132.162 333.404C132.162 332.9 132.35 332.488 132.726 332.168C133.102 331.84 133.646 331.64 134.358 331.568L136.206 331.364V330.884C136.206 330.548 136.082 330.28 135.834 330.08C135.586 329.872 135.25 329.768 134.826 329.768C134.41 329.768 134.062 329.864 133.782 330.056C133.51 330.248 133.322 330.524 133.218 330.884L132.402 330.596C132.562 330.068 132.854 329.656 133.278 329.36C133.71 329.064 134.234 328.916 134.85 328.916C135.562 328.916 136.114 329.1 136.506 329.468C136.906 329.828 137.106 330.32 137.106 330.944V335H136.278ZM136.206 332.132L134.346 332.348C133.946 332.396 133.642 332.508 133.434 332.684C133.226 332.852 133.122 333.076 133.122 333.356C133.122 333.636 133.222 333.86 133.422 334.028C133.63 334.196 133.926 334.28 134.31 334.28C134.75 334.28 135.11 334.192 135.39 334.016C135.67 333.84 135.874 333.604 136.002 333.308C136.138 333.004 136.206 332.676 136.206 332.324V332.132ZM139.246 329V327.32H140.146V329H141.742V329.84H140.146V333.068C140.146 333.436 140.222 333.704 140.374 333.872C140.534 334.04 140.734 334.14 140.974 334.172C141.222 334.204 141.478 334.204 141.742 334.172V334.952C141.43 335.024 141.122 335.044 140.818 335.012C140.522 334.98 140.254 334.892 140.014 334.748C139.782 334.596 139.594 334.384 139.45 334.112C139.314 333.84 139.246 333.492 139.246 333.068V329.84H138.346V329H139.246ZM143.62 335.06C143.436 335.06 143.28 334.996 143.152 334.868C143.032 334.74 142.972 334.584 142.972 334.4C142.972 334.216 143.032 334.06 143.152 333.932C143.28 333.804 143.436 333.74 143.62 333.74C143.796 333.74 143.948 333.804 144.076 333.932C144.204 334.06 144.268 334.216 144.268 334.4C144.268 334.584 144.204 334.74 144.076 334.868C143.948 334.996 143.796 335.06 143.62 335.06ZM143.62 329.876C143.436 329.876 143.28 329.812 143.152 329.684C143.032 329.556 142.972 329.4 142.972 329.216C142.972 329.032 143.032 328.876 143.152 328.748C143.28 328.62 143.436 328.556 143.62 328.556C143.796 328.556 143.948 328.62 144.076 328.748C144.204 328.876 144.268 329.032 144.268 329.216C144.268 329.4 144.204 329.556 144.076 329.684C143.948 329.812 143.796 329.876 143.62 329.876ZM152.433 330.728C152.881 330.728 153.245 330.66 153.525 330.524C153.805 330.388 154.009 330.196 154.137 329.948C154.273 329.7 154.341 329.412 154.341 329.084C154.341 328.564 154.189 328.16 153.885 327.872C153.589 327.584 153.105 327.44 152.433 327.44H150.429V330.728H152.433ZM155.289 329.084C155.289 329.412 155.233 329.728 155.121 330.032C155.017 330.328 154.849 330.592 154.617 330.824C154.385 331.056 154.089 331.24 153.729 331.376C153.369 331.504 152.937 331.568 152.433 331.568H150.429V335H149.469V326.6H152.433C153.089 326.6 153.625 326.712 154.041 326.936C154.465 327.16 154.777 327.46 154.977 327.836C155.185 328.212 155.289 328.628 155.289 329.084ZM159.589 326.6C160.517 326.6 161.309 326.772 161.965 327.116C162.629 327.452 163.137 327.936 163.489 328.568C163.849 329.2 164.029 329.952 164.029 330.824C164.029 331.688 163.849 332.432 163.489 333.056C163.137 333.68 162.629 334.16 161.965 334.496C161.309 334.832 160.517 335 159.589 335H156.817V326.6H159.589ZM159.589 334.16C160.733 334.16 161.597 333.868 162.181 333.284C162.765 332.7 163.057 331.88 163.057 330.824C163.057 329.76 162.765 328.932 162.181 328.34C161.597 327.74 160.733 327.44 159.589 327.44H157.777V334.16H159.589ZM165.559 326.6H171.067V327.44H166.519V330.308H169.939V331.148H166.519V335H165.559V326.6Z" fill="#A5A6A9"/>
<rect x="56" y="362" width="382" height="56" rx="28" fill="#101217"/>
<rect x="56.5" y="362.5" width="381" height="55" rx="27.5" stroke="white" stroke-opacity="0.1"/>
<rect x="392" y="372" width="36" height="36" rx="18" fill="white"/>
<path d="M415.058 387.092L407.925 383.525C403.133 381.125 401.166 383.092 403.566 387.883L404.291 389.333C404.5 389.758 404.5 390.25 404.291 390.675L403.566 392.117C401.166 396.908 403.125 398.875 407.925 396.475L415.058 392.908C418.258 391.308 418.258 388.692 415.058 387.092ZM412.366 390.625H407.866C407.525 390.625 407.241 390.342 407.241 390C407.241 389.658 407.525 389.375 407.866 389.375H412.366C412.708 389.375 412.991 389.658 412.991 390C412.991 390.342 412.708 390.625 412.366 390.625Z" fill="#101217"/>
</g>
<rect x="0.5" y="0.5" width="493" height="448" rx="29.5" stroke="white" stroke-opacity="0.06"/>
<defs>
<clipPath id="clip0_5950_33613">
<rect width="494" height="449" rx="30" fill="white"/>
</clipPath>
</defs>
</svg>
