<svg width="140" height="28" viewBox="0 0 140 28" fill="none" xmlns="http://www.w3.org/2000/svg">
<path d="M41.7717 27.6873C41.4838 27.6873 41.3136 27.5439 41.2613 27.2571L35.6467 0.821368L35.6074 0.664943C35.6074 0.430306 35.7514 0.312988 36.0393 0.312988H40.0049C40.319 0.312988 40.4891 0.456378 40.5153 0.743157L43.7741 19.5532C43.8003 19.6314 43.8395 19.6705 43.8919 19.6705C43.9442 19.6705 43.9835 19.6314 44.0097 19.5532L47.19 0.743157C47.2161 0.456378 47.3863 0.312988 47.7004 0.312988H51.5481C51.8884 0.312988 52.0193 0.482448 51.9408 0.821368L46.2869 27.2571C46.2346 27.5439 46.0644 27.6873 45.7765 27.6873H41.7717Z" fill="white"/>
<path d="M25.4445 28C23.1934 28 21.3743 27.3222 19.987 25.9665C18.6259 24.6108 17.9453 22.8119 17.9453 20.5698V7.43017C17.9453 5.18808 18.6259 3.3892 19.987 2.03352C21.3743 0.67784 23.1934 0 25.4445 0C27.6956 0 29.5148 0.67784 30.902 2.03352C32.2893 3.3892 32.983 5.18808 32.983 7.43017V20.5698C32.983 22.8119 32.2893 24.6108 30.902 25.9665C29.5148 27.3222 27.6956 28 25.4445 28ZM25.4445 24.0894C26.3345 24.0894 27.0543 23.7896 27.604 23.1899C28.1536 22.5642 28.4285 21.756 28.4285 20.7654V7.23464C28.4285 6.24395 28.1536 5.44879 27.604 4.84916C27.0543 4.22346 26.3345 3.91061 25.4445 3.91061C24.5546 3.91061 23.8347 4.22346 23.2851 4.84916C22.7616 5.44879 22.4998 6.24395 22.4998 7.23464V20.7654C22.4998 21.756 22.7616 22.5642 23.2851 23.1899C23.8347 23.7896 24.5546 24.0894 25.4445 24.0894Z" fill="white"/>
<path d="M7.38141 28C5.15652 28 3.36352 27.3352 2.0024 26.0056C0.667468 24.6499 0 22.8641 0 20.648V7.31285C0 5.07076 0.667468 3.29795 2.0024 1.99441C3.36352 0.664804 5.15652 0 7.38141 0C9.63248 0 11.4386 0.664804 12.7997 1.99441C14.1608 3.29795 14.8413 5.07076 14.8413 7.31285V7.78212C14.8413 7.91247 14.789 8.02979 14.6843 8.13408C14.6058 8.23836 14.5011 8.2905 14.3702 8.2905L10.7188 8.44692C10.4047 8.44692 10.2476 8.2905 10.2476 7.97765V7C10.2476 6.08752 9.98585 5.3445 9.46234 4.77095C8.93884 4.19739 8.24519 3.91061 7.38141 3.91061C6.54381 3.91061 5.86325 4.19739 5.33975 4.77095C4.81624 5.3445 4.55449 6.08752 4.55449 7V21C4.55449 21.9125 4.81624 22.6555 5.33975 23.229C5.86325 23.8026 6.54381 24.0894 7.38141 24.0894C8.24519 24.0894 8.93884 23.8026 9.46234 23.229C9.98585 22.6555 10.2476 21.9125 10.2476 21V20.0223C10.2476 19.892 10.2869 19.7877 10.3654 19.7095C10.4701 19.6052 10.5879 19.5531 10.7188 19.5531L14.3702 19.7095C14.5011 19.7095 14.6058 19.7616 14.6843 19.8659C14.789 19.9441 14.8413 20.0484 14.8413 20.1788V20.648C14.8413 22.8641 14.1608 24.6499 12.7997 26.0056C11.4386 27.3352 9.63248 28 7.38141 28Z" fill="white"/>
<path d="M130.388 27.6482C130.257 27.6482 130.139 27.6091 130.035 27.5309C129.956 27.4266 129.917 27.3093 129.917 27.1789V16.5029L129.878 16.2683L124.42 0.860474C124.394 0.808333 124.381 0.743156 124.381 0.664943C124.381 0.430306 124.525 0.312988 124.813 0.312988H128.582C128.87 0.312988 129.053 0.443341 129.132 0.704048L132.076 10.7543C132.103 10.8325 132.142 10.8716 132.194 10.8716C132.247 10.8716 132.286 10.8325 132.312 10.7543L135.257 0.704048C135.335 0.443341 135.518 0.312988 135.806 0.312988H139.576C139.733 0.312988 139.85 0.36513 139.929 0.469413C140.007 0.547626 140.021 0.67798 139.968 0.860474L134.511 16.2683L134.471 16.5029V27.1789C134.471 27.3093 134.419 27.4266 134.314 27.5309C134.236 27.6091 134.131 27.6482 134 27.6482H130.388Z" fill="white"/>
<path d="M110.765 27.6873C110.634 27.6873 110.516 27.6482 110.412 27.57C110.333 27.4657 110.294 27.3484 110.294 27.218V0.782263C110.294 0.651909 110.333 0.547626 110.412 0.469413C110.516 0.36513 110.634 0.312988 110.765 0.312988H114.377C114.508 0.312988 114.613 0.36513 114.691 0.469413C114.796 0.547626 114.848 0.651909 114.848 0.782263V23.5811C114.848 23.7115 114.914 23.7767 115.045 23.7767H123.526C123.656 23.7767 123.761 23.8288 123.84 23.9331C123.944 24.0113 123.997 24.1156 123.997 24.2459V27.218C123.997 27.3484 123.944 27.4657 123.84 27.57C123.761 27.6482 123.656 27.6873 123.526 27.6873H110.765Z" fill="white"/>
<path d="M106.79 0.312988C106.921 0.312988 107.026 0.36513 107.104 0.469413C107.209 0.547626 107.261 0.651909 107.261 0.782263V3.75433C107.261 3.88468 107.209 4.002 107.104 4.10628C107.026 4.1845 106.921 4.2236 106.79 4.2236H101.804C101.673 4.2236 101.607 4.28878 101.607 4.41913V27.218C101.607 27.3484 101.555 27.4657 101.45 27.57C101.372 27.6482 101.267 27.6873 101.136 27.6873H97.524C97.3931 27.6873 97.2753 27.6482 97.1706 27.57C97.0921 27.4657 97.0528 27.3484 97.0528 27.218V4.41913C97.0528 4.28878 96.9874 4.2236 96.8565 4.2236H92.145C92.0141 4.2236 91.8963 4.1845 91.7916 4.10628C91.7131 4.002 91.6738 3.88468 91.6738 3.75433V0.782263C91.6738 0.651909 91.7131 0.547626 91.7916 0.469413C91.8963 0.36513 92.0141 0.312988 92.145 0.312988H106.79Z" fill="white"/>
<path d="M85.4725 27.6873C85.2107 27.6873 85.0406 27.5569 84.9621 27.2962L81.6247 16.0728C81.5724 15.9685 81.5069 15.9163 81.4284 15.9163H79.3475C79.2166 15.9163 79.1512 15.9815 79.1512 16.1119V27.218C79.1512 27.3484 79.0988 27.4657 78.9941 27.57C78.9156 27.6482 78.8109 27.6873 78.68 27.6873H75.0678C74.937 27.6873 74.8192 27.6482 74.7145 27.57C74.6359 27.4657 74.5967 27.3484 74.5967 27.218V0.782263C74.5967 0.651909 74.6359 0.547626 74.7145 0.469413C74.8192 0.36513 74.937 0.312988 75.0678 0.312988H82.4492C83.8365 0.312988 85.0537 0.651908 86.1007 1.32975C87.1739 1.98152 87.9984 2.92006 88.5742 4.14539C89.1763 5.34464 89.4773 6.72639 89.4773 8.29064C89.4773 9.90703 89.1632 11.3018 88.535 12.475C87.9068 13.6482 87.0299 14.5346 85.9044 15.1342C85.7997 15.1603 85.7604 15.2385 85.7866 15.3688L89.6343 27.1398C89.6605 27.1919 89.6736 27.2571 89.6736 27.3353C89.6736 27.57 89.5296 27.6873 89.2417 27.6873H85.4725ZM79.3475 4.2236C79.2166 4.2236 79.1512 4.28878 79.1512 4.41913V12.2013C79.1512 12.3316 79.2166 12.3968 79.3475 12.3968H81.7425C82.6848 12.3968 83.4439 12.0318 84.0198 11.3018C84.6218 10.5718 84.9228 9.58114 84.9228 8.32974C84.9228 7.07835 84.6218 6.08766 84.0198 5.35768C83.4439 4.60163 82.6848 4.2236 81.7425 4.2236H79.3475Z" fill="white"/>
<path d="M56.2246 0.0830078H59.801V1.73981H56.2246V0.0830078Z" fill="url(#paint0_linear_214_2019)"/>
<path d="M56.2246 3.23094H60.1337V4.97058H56.2246V3.23094Z" fill="url(#paint1_linear_214_2019)"/>
<path d="M61.2981 3.23094H65.2904V4.97058H61.2981V3.23094Z" fill="url(#paint2_linear_214_2019)"/>
<path d="M66.1221 3.23094H70.0312V4.97058H66.1221V3.23094Z" fill="url(#paint3_linear_214_2019)"/>
<path d="M65.9558 6.62738H69.8648V8.36703H65.9558V6.62738Z" fill="url(#paint4_linear_214_2019)"/>
<path d="M59.6347 9.85815H63.5438V11.7635H59.6347V9.85815Z" fill="url(#paint5_linear_214_2019)"/>
<path d="M60.6327 13.2546H65.7894V15.657H60.6327V13.2546Z" fill="url(#paint6_linear_214_2019)"/>
<path d="M56.89 17.8108H65.7894V20.7102H56.89V17.8108Z" fill="url(#paint7_linear_214_2019)"/>
<path d="M59.9674 22.2842H63.7101V23.941H59.9674V22.2842Z" fill="url(#paint8_linear_214_2019)"/>
<path d="M56.89 26.1777H59.801V27.5031H56.89V26.1777Z" fill="url(#paint9_linear_214_2019)"/>
<path d="M63.2111 26.1777H66.1221V27.5031H63.2111V26.1777Z" fill="url(#paint10_linear_214_2019)"/>
<path d="M66.9538 26.1777H69.8648V27.5031H66.9538V26.1777Z" fill="url(#paint11_linear_214_2019)"/>
<path d="M63.5438 0.0830078H67.1202V1.73981H63.5438V0.0830078Z" fill="url(#paint12_linear_214_2019)"/>
<path d="M62.712 0.99425C62.712 1.49752 62.2838 1.90549 61.7556 1.90549C61.2273 1.90549 60.7991 1.49752 60.7991 0.99425C60.7991 0.490985 61.2273 0.0830078 61.7556 0.0830078C62.2838 0.0830078 62.712 0.490985 62.712 0.99425Z" fill="url(#paint13_linear_214_2019)"/>
<path d="M70.0312 0.99425C70.0312 1.49752 69.603 1.90549 69.0747 1.90549C68.5465 1.90549 68.1182 1.49752 68.1182 0.99425C68.1182 0.490985 68.5465 0.0830078 69.0747 0.0830078C69.603 0.0830078 70.0312 0.490985 70.0312 0.99425Z" fill="url(#paint14_linear_214_2019)"/>
<path d="M58.3039 7.41437C58.3039 7.94051 57.8757 8.36703 57.3474 8.36703C56.8192 8.36703 56.391 7.94051 56.391 7.41437C56.391 6.88822 56.8192 6.4617 57.3474 6.4617C57.8757 6.4617 58.3039 6.88822 58.3039 7.41437Z" fill="url(#paint15_linear_214_2019)"/>
<path d="M61.4645 7.41437C61.4645 7.94051 61.0548 8.36703 60.5496 8.36703C60.0443 8.36703 59.6347 7.94051 59.6347 7.41437C59.6347 6.88822 60.0443 6.4617 60.5496 6.4617C61.0548 6.4617 61.4645 6.88822 61.4645 7.41437Z" fill="url(#paint16_linear_214_2019)"/>
<path d="M64.7082 7.41437C64.7082 7.94051 64.2986 8.36703 63.7933 8.36703C63.288 8.36703 62.8784 7.94051 62.8784 7.41437C62.8784 6.88822 63.288 6.4617 63.7933 6.4617C64.2986 6.4617 64.7082 6.88822 64.7082 7.41437Z" fill="url(#paint17_linear_214_2019)"/>
<path d="M58.3039 10.8108C58.3039 11.337 57.8757 11.7635 57.3474 11.7635C56.8192 11.7635 56.391 11.337 56.391 10.8108C56.391 10.2847 56.8192 9.85815 57.3474 9.85815C57.8757 9.85815 58.3039 10.2847 58.3039 10.8108Z" fill="url(#paint18_linear_214_2019)"/>
<path d="M66.7875 10.8108C66.7875 11.337 66.3592 11.7635 65.831 11.7635C65.3027 11.7635 64.8745 11.337 64.8745 10.8108C64.8745 10.2847 65.3027 9.85815 65.831 9.85815C66.3592 9.85815 66.7875 10.2847 66.7875 10.8108Z" fill="url(#paint19_linear_214_2019)"/>
<path d="M69.8648 10.8108C69.8648 11.337 69.4366 11.7635 68.9084 11.7635C68.3801 11.7635 67.9519 11.337 67.9519 10.8108C67.9519 10.2847 68.3801 9.85815 68.9084 9.85815C69.4366 9.85815 69.8648 10.2847 69.8648 10.8108Z" fill="url(#paint20_linear_214_2019)"/>
<path d="M58.8029 14.4558C58.8029 15.1192 58.263 15.657 57.5969 15.657C56.9309 15.657 56.391 15.1192 56.391 14.4558C56.391 13.7924 56.9309 13.2546 57.5969 13.2546C58.263 13.2546 58.8029 13.7924 58.8029 14.4558Z" fill="url(#paint21_linear_214_2019)"/>
<path d="M69.8648 14.4558C69.8648 15.1192 69.3249 15.657 68.6588 15.657C67.9928 15.657 67.4529 15.1192 67.4529 14.4558C67.4529 13.7924 67.9928 13.2546 68.6588 13.2546C69.3249 13.2546 69.8648 13.7924 69.8648 14.4558Z" fill="url(#paint22_linear_214_2019)"/>
<path d="M58.6366 23.1954C58.6366 23.6987 58.2084 24.1067 57.6801 24.1067C57.1519 24.1067 56.7236 23.6987 56.7236 23.1954C56.7236 22.6922 57.1519 22.2842 57.6801 22.2842C58.2084 22.2842 58.6366 22.6922 58.6366 23.1954Z" fill="url(#paint23_linear_214_2019)"/>
<path d="M66.7875 23.1954C66.7875 23.6987 66.3592 24.1067 65.831 24.1067C65.3027 24.1067 64.8745 23.6987 64.8745 23.1954C64.8745 22.6922 65.3027 22.2842 65.831 22.2842C66.3592 22.2842 66.7875 22.6922 66.7875 23.1954Z" fill="url(#paint24_linear_214_2019)"/>
<path d="M69.8648 23.1954C69.8648 23.6987 69.4366 24.1067 68.9084 24.1067C68.3801 24.1067 67.9519 23.6987 67.9519 23.1954C67.9519 22.6922 68.3801 22.2842 68.9084 22.2842C69.4366 22.2842 69.8648 22.6922 69.8648 23.1954Z" fill="url(#paint25_linear_214_2019)"/>
<path d="M62.213 26.9232C62.213 27.335 61.8592 27.6688 61.4229 27.6688C60.9865 27.6688 60.6327 27.335 60.6327 26.9232C60.6327 26.5115 60.9865 26.1777 61.4229 26.1777C61.8592 26.1777 62.213 26.5115 62.213 26.9232Z" fill="url(#paint26_linear_214_2019)"/>
<defs>
<linearGradient id="paint0_linear_214_2019" x1="56.2246" y1="13.8759" x2="70.0312" y2="13.8759" gradientUnits="userSpaceOnUse">
<stop stopColor="#F65468"/>
<stop offset="0.5" stopColor="#A851F5"/>
<stop offset="1" stopColor="#5989FD"/>
</linearGradient>
<linearGradient id="paint1_linear_214_2019" x1="56.2246" y1="13.8759" x2="70.0312" y2="13.8759" gradientUnits="userSpaceOnUse">
<stop stopColor="#F65468"/>
<stop offset="0.5" stopColor="#A851F5"/>
<stop offset="1" stopColor="#5989FD"/>
</linearGradient>
<linearGradient id="paint2_linear_214_2019" x1="56.2246" y1="13.8759" x2="70.0312" y2="13.8759" gradientUnits="userSpaceOnUse">
<stop stopColor="#F65468"/>
<stop offset="0.5" stopColor="#A851F5"/>
<stop offset="1" stopColor="#5989FD"/>
</linearGradient>
<linearGradient id="paint3_linear_214_2019" x1="56.2246" y1="13.8759" x2="70.0312" y2="13.8759" gradientUnits="userSpaceOnUse">
<stop stopColor="#F65468"/>
<stop offset="0.5" stopColor="#A851F5"/>
<stop offset="1" stopColor="#5989FD"/>
</linearGradient>
<linearGradient id="paint4_linear_214_2019" x1="56.2246" y1="13.8759" x2="70.0312" y2="13.8759" gradientUnits="userSpaceOnUse">
<stop stopColor="#F65468"/>
<stop offset="0.5" stopColor="#A851F5"/>
<stop offset="1" stopColor="#5989FD"/>
</linearGradient>
<linearGradient id="paint5_linear_214_2019" x1="56.2246" y1="13.8759" x2="70.0312" y2="13.8759" gradientUnits="userSpaceOnUse">
<stop stopColor="#F65468"/>
<stop offset="0.5" stopColor="#A851F5"/>
<stop offset="1" stopColor="#5989FD"/>
</linearGradient>
<linearGradient id="paint6_linear_214_2019" x1="56.2246" y1="13.8759" x2="70.0312" y2="13.8759" gradientUnits="userSpaceOnUse">
<stop stopColor="#F65468"/>
<stop offset="0.5" stopColor="#A851F5"/>
<stop offset="1" stopColor="#5989FD"/>
</linearGradient>
<linearGradient id="paint7_linear_214_2019" x1="56.2246" y1="13.8759" x2="70.0312" y2="13.8759" gradientUnits="userSpaceOnUse">
<stop stopColor="#F65468"/>
<stop offset="0.5" stopColor="#A851F5"/>
<stop offset="1" stopColor="#5989FD"/>
</linearGradient>
<linearGradient id="paint8_linear_214_2019" x1="56.2246" y1="13.8759" x2="70.0312" y2="13.8759" gradientUnits="userSpaceOnUse">
<stop stopColor="#F65468"/>
<stop offset="0.5" stopColor="#A851F5"/>
<stop offset="1" stopColor="#5989FD"/>
</linearGradient>
<linearGradient id="paint9_linear_214_2019" x1="56.2246" y1="13.8759" x2="70.0312" y2="13.8759" gradientUnits="userSpaceOnUse">
<stop stopColor="#F65468"/>
<stop offset="0.5" stopColor="#A851F5"/>
<stop offset="1" stopColor="#5989FD"/>
</linearGradient>
<linearGradient id="paint10_linear_214_2019" x1="56.2246" y1="13.8759" x2="70.0312" y2="13.8759" gradientUnits="userSpaceOnUse">
<stop stopColor="#F65468"/>
<stop offset="0.5" stopColor="#A851F5"/>
<stop offset="1" stopColor="#5989FD"/>
</linearGradient>
<linearGradient id="paint11_linear_214_2019" x1="56.2246" y1="13.8759" x2="70.0312" y2="13.8759" gradientUnits="userSpaceOnUse">
<stop stopColor="#F65468"/>
<stop offset="0.5" stopColor="#A851F5"/>
<stop offset="1" stopColor="#5989FD"/>
</linearGradient>
<linearGradient id="paint12_linear_214_2019" x1="56.2246" y1="13.8759" x2="70.0312" y2="13.8759" gradientUnits="userSpaceOnUse">
<stop stopColor="#F65468"/>
<stop offset="0.5" stopColor="#A851F5"/>
<stop offset="1" stopColor="#5989FD"/>
</linearGradient>
<linearGradient id="paint13_linear_214_2019" x1="56.2246" y1="13.8759" x2="70.0312" y2="13.8759" gradientUnits="userSpaceOnUse">
<stop stopColor="#F65468"/>
<stop offset="0.5" stopColor="#A851F5"/>
<stop offset="1" stopColor="#5989FD"/>
</linearGradient>
<linearGradient id="paint14_linear_214_2019" x1="56.2246" y1="13.8759" x2="70.0312" y2="13.8759" gradientUnits="userSpaceOnUse">
<stop stopColor="#F65468"/>
<stop offset="0.5" stopColor="#A851F5"/>
<stop offset="1" stopColor="#5989FD"/>
</linearGradient>
<linearGradient id="paint15_linear_214_2019" x1="56.2246" y1="13.8759" x2="70.0312" y2="13.8759" gradientUnits="userSpaceOnUse">
<stop stopColor="#F65468"/>
<stop offset="0.5" stopColor="#A851F5"/>
<stop offset="1" stopColor="#5989FD"/>
</linearGradient>
<linearGradient id="paint16_linear_214_2019" x1="56.2246" y1="13.8759" x2="70.0312" y2="13.8759" gradientUnits="userSpaceOnUse">
<stop stopColor="#F65468"/>
<stop offset="0.5" stopColor="#A851F5"/>
<stop offset="1" stopColor="#5989FD"/>
</linearGradient>
<linearGradient id="paint17_linear_214_2019" x1="56.2246" y1="13.8759" x2="70.0312" y2="13.8759" gradientUnits="userSpaceOnUse">
<stop stopColor="#F65468"/>
<stop offset="0.5" stopColor="#A851F5"/>
<stop offset="1" stopColor="#5989FD"/>
</linearGradient>
<linearGradient id="paint18_linear_214_2019" x1="56.2246" y1="13.8759" x2="70.0312" y2="13.8759" gradientUnits="userSpaceOnUse">
<stop stopColor="#F65468"/>
<stop offset="0.5" stopColor="#A851F5"/>
<stop offset="1" stopColor="#5989FD"/>
</linearGradient>
<linearGradient id="paint19_linear_214_2019" x1="56.2246" y1="13.8759" x2="70.0312" y2="13.8759" gradientUnits="userSpaceOnUse">
<stop stopColor="#F65468"/>
<stop offset="0.5" stopColor="#A851F5"/>
<stop offset="1" stopColor="#5989FD"/>
</linearGradient>
<linearGradient id="paint20_linear_214_2019" x1="56.2246" y1="13.8759" x2="70.0312" y2="13.8759" gradientUnits="userSpaceOnUse">
<stop stopColor="#F65468"/>
<stop offset="0.5" stopColor="#A851F5"/>
<stop offset="1" stopColor="#5989FD"/>
</linearGradient>
<linearGradient id="paint21_linear_214_2019" x1="56.2246" y1="13.8759" x2="70.0312" y2="13.8759" gradientUnits="userSpaceOnUse">
<stop stopColor="#F65468"/>
<stop offset="0.5" stopColor="#A851F5"/>
<stop offset="1" stopColor="#5989FD"/>
</linearGradient>
<linearGradient id="paint22_linear_214_2019" x1="56.2246" y1="13.8759" x2="70.0312" y2="13.8759" gradientUnits="userSpaceOnUse">
<stop stopColor="#F65468"/>
<stop offset="0.5" stopColor="#A851F5"/>
<stop offset="1" stopColor="#5989FD"/>
</linearGradient>
<linearGradient id="paint23_linear_214_2019" x1="56.2246" y1="13.8759" x2="70.0312" y2="13.8759" gradientUnits="userSpaceOnUse">
<stop stopColor="#F65468"/>
<stop offset="0.5" stopColor="#A851F5"/>
<stop offset="1" stopColor="#5989FD"/>
</linearGradient>
<linearGradient id="paint24_linear_214_2019" x1="56.2246" y1="13.8759" x2="70.0312" y2="13.8759" gradientUnits="userSpaceOnUse">
<stop stopColor="#F65468"/>
<stop offset="0.5" stopColor="#A851F5"/>
<stop offset="1" stopColor="#5989FD"/>
</linearGradient>
<linearGradient id="paint25_linear_214_2019" x1="56.2246" y1="13.8759" x2="70.0312" y2="13.8759" gradientUnits="userSpaceOnUse">
<stop stopColor="#F65468"/>
<stop offset="0.5" stopColor="#A851F5"/>
<stop offset="1" stopColor="#5989FD"/>
</linearGradient>
<linearGradient id="paint26_linear_214_2019" x1="56.2246" y1="13.8759" x2="70.0312" y2="13.8759" gradientUnits="userSpaceOnUse">
<stop stopColor="#F65468"/>
<stop offset="0.5" stopColor="#A851F5"/>
<stop offset="1" stopColor="#5989FD"/>
</linearGradient>
</defs>
</svg>
