<svg width="18" height="18" viewBox="0 0 18 18" fill="none" xmlns="http://www.w3.org/2000/svg">
<path d="M16.4999 4.28262V11.4676C16.4999 13.5376 14.8199 15.2176 12.7499 15.2176H5.24992C4.90492 15.2176 4.57492 15.1726 4.25242 15.0826C3.78742 14.9551 1.73242 14.1192 1.73242 12.5176L10.125 3.79512C10.29 3.63012 12.3674 5.84262 12.5999 5.88762C12.8399 5.93262 13.1024 5.86512 13.2899 5.68512L15.2174 3.75012C15.9224 3.04512 16.4999 3.27762 16.4999 4.28262Z" fill="#F5C229"/>
<path d="M10.98 5.51989L3.1275 13.3724C2.7675 13.7324 2.1675 13.6424 1.9275 13.1924C1.65 12.6824 1.5 12.0899 1.5 11.4674V4.28239C1.5 3.27739 2.0775 3.04489 2.7825 3.74989L4.7175 5.69239C5.01 5.97739 5.49 5.97739 5.7825 5.69239L8.4675 2.99989C8.76 2.70739 9.24 2.70739 9.5325 2.99989L10.9875 4.45489C11.2725 4.74739 11.2725 5.22739 10.98 5.51989Z" fill="#F5C229"/>
</svg>
