<svg width="25" height="24" viewBox="0 0 25 24" fill="none" xmlns="http://www.w3.org/2000/svg">
<g clip-path="url(#clip0_5630_2401)">
<path d="M23.0029 9.82561C23.3084 9.00002 23.3854 8.17443 23.3084 7.35004C23.2326 6.52565 22.9271 5.70005 22.5445 4.95006C21.8577 3.82567 20.864 2.92568 19.7188 2.40008C18.4967 1.87569 17.1975 1.72569 15.8995 2.02569C15.2884 1.42569 14.6003 0.900097 13.8365 0.525701C13.0726 0.151304 12.156 0.000105773 11.3163 0.000105773C10.0048 -0.00741187 8.72334 0.385971 7.64975 1.1257C6.58034 1.87449 5.81647 2.92568 5.43393 4.12567C4.51729 4.35007 3.75342 4.72566 2.98955 5.17566C2.30269 5.70005 1.76737 6.37565 1.30905 7.05004C0.62218 8.17563 0.392409 9.45002 0.545182 10.7256C0.698824 11.9974 1.23012 13.1968 2.07292 14.1744C1.78421 14.9668 1.67981 15.8127 1.76737 16.65C1.84437 17.4755 2.14991 18.2999 2.53123 19.0499C3.21933 20.1755 4.21174 21.0755 5.35815 21.5999C6.58034 22.1255 7.8783 22.2755 9.17749 21.9755C9.78858 22.5755 10.4754 23.0999 11.2393 23.4755C12.0032 23.8511 12.9198 23.9999 13.7607 23.9999C15.0721 24.0078 16.3535 23.6148 17.4272 22.8755C18.4967 22.1255 19.2605 21.0755 19.6418 19.8755C20.5049 19.7146 21.3167 19.3547 22.0104 18.8255C22.6973 18.2999 23.3084 17.6999 23.691 16.9499C24.3778 15.8256 24.6076 14.55 24.4548 13.2756C24.302 12 23.8437 10.8012 23.0029 9.82561ZM13.8365 22.4243C12.6143 22.4243 11.6976 22.0487 10.858 21.3743C10.858 21.3743 10.9338 21.2987 11.0108 21.2987L15.8995 18.5243C16.0352 18.4642 16.1438 18.3575 16.2051 18.2243C16.2662 18.1088 16.2925 17.9785 16.2808 17.8487V11.1L18.3439 12.3V17.8499C18.3649 18.4437 18.2638 19.0356 18.0467 19.5902C17.8296 20.1448 17.5008 20.6507 17.0801 21.0778C16.6594 21.5049 16.1553 21.8443 15.598 22.0759C15.0407 22.3074 14.4416 22.4251 13.8365 22.4243ZM3.98319 18.2999C3.44787 17.3999 3.21933 16.35 3.44787 15.3C3.44787 15.3 3.52487 15.3756 3.60065 15.3756L8.48939 18.1499C8.60674 18.211 8.73965 18.2373 8.87194 18.2255C9.02471 18.2255 9.17749 18.2255 9.25326 18.1499L15.2114 14.7756V17.0999L10.2469 19.9499C9.7322 20.2434 9.16355 20.4342 8.57358 20.5114C7.98361 20.5886 7.38391 20.5507 6.80889 20.3999C5.5867 20.0999 4.59429 19.3499 3.98319 18.2999ZM2.68401 7.87563C3.2234 6.97872 4.05928 6.29015 5.05261 5.92445V11.6256C5.05261 11.7744 5.05261 11.9256 5.12838 12C5.18962 12.1332 5.29827 12.2399 5.43393 12.3L11.3921 15.6756L9.33026 16.8755L4.44151 14.1C3.92089 13.8111 3.46379 13.4238 3.09666 12.9603C2.72953 12.4969 2.45967 11.9665 2.30269 11.4C1.99714 10.2756 2.07292 8.92562 2.68401 7.87563ZM19.5661 11.7L13.6079 8.32563L15.6697 7.12564L20.5585 9.90001C21.3224 10.35 21.9334 10.95 22.316 11.7C22.6985 12.45 22.9271 13.2756 22.8501 14.1756C22.7769 15.0204 22.4588 15.827 21.9334 16.5C21.3994 17.1755 20.7113 17.6999 19.8716 17.9999V12.3C19.8716 12.15 19.8716 12 19.7946 11.9256C19.7946 11.9256 19.7188 11.7744 19.5661 11.7ZM21.6279 8.70002C21.6279 8.70002 21.5521 8.62563 21.4751 8.62563L16.5864 5.85005C16.4336 5.77565 16.3578 5.77565 16.2051 5.77565C16.0523 5.77565 15.8995 5.77565 15.8225 5.85005L9.86436 9.22562V6.90004L14.8301 4.05007C15.594 3.60007 16.4336 3.45007 17.3502 3.45007C18.1911 3.45007 19.0308 3.75007 19.7946 4.27567C20.4827 4.80006 21.0938 5.47566 21.3994 6.22565C21.7049 6.97564 21.7807 7.87563 21.6279 8.70002ZM8.79494 12.9L6.73311 11.7V6.07565C6.73311 5.25006 6.96166 4.35007 7.41998 3.67567C7.8783 2.92568 8.56639 2.40008 9.33026 2.02569C10.1087 1.64199 10.991 1.5105 11.8504 1.65009C12.6913 1.72569 13.5309 2.10009 14.219 2.62568C14.219 2.62568 14.142 2.70008 14.0662 2.70008L9.17749 5.47566C9.04182 5.53578 8.93318 5.64246 8.87194 5.77565C8.79494 5.92565 8.79494 6.00005 8.79494 6.15005V12.9ZM9.86436 10.5L12.5385 9.00002L15.2114 10.5V13.5L12.5385 15L9.86436 13.5V10.5Z" fill="white"/>
</g>
<defs>
<clipPath id="clip0_5630_2401">
<rect width="24" height="24" fill="white" transform="translate(0.5)"/>
</clipPath>
</defs>
</svg>
