<svg width="164" height="164" viewBox="0 0 164 164" fill="none" xmlns="http://www.w3.org/2000/svg">
<path d="M78.3726 129.098C63.9325 129.098 49.4925 129.098 35.0524 129.098C34.347 129.098 33.6325 129.098 32.9241 129.025C29.309 128.686 27.8557 126.24 29.3972 122.933C30.735 120.078 32.1944 117.296 33.6113 114.472C40.3002 101.172 46.9892 87.875 53.6781 74.5797C53.8849 74.1736 54.1008 73.7674 54.341 73.3796C56.0254 70.668 58.7617 70.2863 60.9174 72.6254C62.4376 74.2621 63.7237 76.1004 65.0798 77.8745C71.9714 86.9192 78.8631 95.968 85.7547 105.021C88.7648 108.96 92.5562 109.174 96.0922 105.632C97.8466 103.873 99.5614 102.068 101.337 100.325C104.539 97.1793 108.172 97.3686 110.787 101.036C116.034 108.395 121.152 115.852 126.293 123.284C126.695 123.868 127.002 124.511 127.205 125.19C127.704 126.897 126.998 128.271 125.274 128.726C124.193 128.986 123.084 129.106 121.972 129.083C107.447 129.108 92.914 129.113 78.3726 129.098Z" fill="url(#paint0_linear_3674_4685)"/>
<path d="M110.756 56.2246C110.753 59.0632 109.91 61.8369 108.335 64.1939C106.759 66.5509 104.523 68.385 101.908 69.4639C99.2941 70.5427 96.4197 70.8177 93.6496 70.2538C90.8795 69.69 88.3384 68.3127 86.3486 66.2967C84.3588 64.2807 83.0098 61.7167 82.4727 58.9298C81.9356 56.1428 82.2345 53.2585 83.3315 50.6424C84.4286 48.0263 86.2744 45.7962 88.6349 44.235C90.9955 42.6737 93.7645 41.8515 96.5908 41.8727C100.354 41.9207 103.948 43.4522 106.598 46.1368C109.248 48.8215 110.741 52.4444 110.756 56.2246Z" fill="url(#paint1_linear_3674_4685)"/>
<defs>
<linearGradient id="paint0_linear_3674_4685" x1="28.7871" y1="65.5595" x2="134.069" y2="79.9162" gradientUnits="userSpaceOnUse">
<stop stop-color="#30C5D2"/>
<stop offset="0.535" stop-color="#3C649A"/>
</linearGradient>
<linearGradient id="paint1_linear_3674_4685" x1="28.7871" y1="65.5595" x2="134.069" y2="79.9162" gradientUnits="userSpaceOnUse">
<stop stop-color="#30C5D2"/>
<stop offset="0.535" stop-color="#3C649A"/>
</linearGradient>
</defs>
</svg>
