<svg width="20" height="20" viewBox="0 0 20 20" fill="none" xmlns="http://www.w3.org/2000/svg">
<path d="M2.14307 4.82115C2.14307 4.11075 2.42527 3.42944 2.9276 2.92711C3.42993 2.42478 4.11124 2.14258 4.82164 2.14258H15.1788C15.8892 2.14258 16.5705 2.42478 17.0728 2.92711C17.5751 3.42944 17.8574 4.11075 17.8574 4.82115V15.1783C17.8574 15.8887 17.5751 16.57 17.0728 17.0723C16.5705 17.5747 15.8892 17.8569 15.1788 17.8569H4.82164C4.11124 17.8569 3.42993 17.5747 2.9276 17.0723C2.42527 16.57 2.14307 15.8887 2.14307 15.1783V4.82115Z" fill="url(#paint0_radial_9666_17386)"/>
<path d="M17.4059 16.6672L10.9988 10.405C10.7319 10.1441 10.3734 9.99805 10.0002 9.99805C9.62696 9.99805 9.26854 10.1441 9.00163 10.405L2.59448 16.6672C2.83926 17.0333 3.17055 17.3335 3.55903 17.5411C3.9475 17.7486 4.38117 17.8572 4.82163 17.8572H15.1788C16.1073 17.8572 16.9252 17.385 17.4059 16.6672Z" fill="url(#paint1_linear_9666_17386)"/>
<path d="M13.5716 8.57199C13.9505 8.57199 14.3139 8.42148 14.5818 8.15357C14.8497 7.88566 15.0002 7.5223 15.0002 7.14342C15.0002 6.76453 14.8497 6.40117 14.5818 6.13326C14.3139 5.86535 13.9505 5.71484 13.5716 5.71484C13.1928 5.71484 12.8294 5.86535 12.5615 6.13326C12.2936 6.40117 12.1431 6.76453 12.1431 7.14342C12.1431 7.5223 12.2936 7.88566 12.5615 8.15357C12.8294 8.42148 13.1928 8.57199 13.5716 8.57199Z" fill="url(#paint2_linear_9666_17386)"/>
<defs>
<radialGradient id="paint0_radial_9666_17386" cx="0" cy="0" r="1" gradientUnits="userSpaceOnUse" gradientTransform="translate(-4.0305 -6.69671) rotate(51.6869) scale(43.4526 39.523)">
<stop offset="0.338" stop-color="#0FAFFF"/>
<stop offset="0.529" stop-color="#367AF2"/>
</radialGradient>
<linearGradient id="paint1_linear_9666_17386" x1="7.88448" y1="9.99859" x2="9.66163" y2="18.2707" gradientUnits="userSpaceOnUse">
<stop stop-color="#B3E0FF"/>
<stop offset="1" stop-color="#8CD0FF"/>
</linearGradient>
<linearGradient id="paint2_linear_9666_17386" x1="13.0002" y1="5.3977" x2="14.0438" y2="9.15484" gradientUnits="userSpaceOnUse">
<stop stop-color="#FDFDFD"/>
<stop offset="1" stop-color="#B3E0FF"/>
</linearGradient>
</defs>
</svg>
