<svg width="150" height="29" viewBox="0 0 150 29" fill="none" xmlns="http://www.w3.org/2000/svg">
<path d="M44.7815 27.8265C44.4728 27.8265 44.2904 27.6824 44.2343 27.3941L38.2154 0.825869L38.1733 0.66866C38.1733 0.432847 38.3277 0.314941 38.6363 0.314941H42.8874C43.2242 0.314941 43.4065 0.45905 43.4346 0.747267L46.9281 19.6516C46.9561 19.7302 46.9982 19.7695 47.0544 19.7695C47.1105 19.7695 47.1526 19.7302 47.1806 19.6516L50.5899 0.747267C50.618 0.45905 50.8004 0.314941 51.1371 0.314941H55.2619C55.6267 0.314941 55.767 0.48525 55.6828 0.825869L49.6219 27.3941C49.5657 27.6824 49.3833 27.8265 49.0747 27.8265H44.7815Z" fill="white"/>
<path d="M27.278 28.1404C24.8648 28.1404 22.9146 27.4591 21.4275 26.0966C19.9683 24.7342 19.2388 22.9263 19.2388 20.6729V7.46741C19.2388 5.21409 19.9683 3.40619 21.4275 2.04371C22.9146 0.681238 24.8648 0 27.278 0C29.6912 0 31.6413 0.681238 33.1285 2.04371C34.6157 3.40619 35.3593 5.21409 35.3593 7.46741V20.6729C35.3593 22.9263 34.6157 24.7342 33.1285 26.0966C31.6413 27.4591 29.6912 28.1404 27.278 28.1404ZM27.278 24.2101C28.232 24.2101 29.0037 23.9088 29.5929 23.3062C30.1822 22.6773 30.4768 21.8651 30.4768 20.8695V7.2709C30.4768 6.27525 30.1822 5.4761 29.5929 4.87347C29.0037 4.24463 28.232 3.93022 27.278 3.93022C26.3239 3.93022 25.5523 4.24463 24.963 4.87347C24.4018 5.4761 24.1212 6.27525 24.1212 7.2709V20.8695C24.1212 21.8651 24.4018 22.6773 24.963 23.3062C25.5523 23.9088 26.3239 24.2101 27.278 24.2101Z" fill="white"/>
<path d="M7.91295 28.1404C5.52784 28.1404 3.60572 27.4722 2.1466 26.1359C0.715532 24.7735 0 22.9787 0 20.7515V7.3495C0 5.09618 0.715532 3.31448 2.1466 2.00441C3.60572 0.668137 5.52784 0 7.91295 0C10.3261 0 12.2623 0.668137 13.7214 2.00441C15.1805 3.31448 15.9101 5.09618 15.9101 7.3495V7.82113C15.9101 7.95214 15.854 8.07005 15.7417 8.17485C15.6575 8.27966 15.5453 8.33206 15.405 8.33206L11.4906 8.48927C11.1539 8.48927 10.9855 8.33206 10.9855 8.01764V7.03509C10.9855 6.11804 10.7049 5.3713 10.1437 4.79486C9.58252 4.21843 8.83893 3.93022 7.91295 3.93022C7.01502 3.93022 6.28546 4.21843 5.72426 4.79486C5.16306 5.3713 4.88246 6.11804 4.88246 7.03509V21.1053C4.88246 22.0223 5.16306 22.7691 5.72426 23.3455C6.28546 23.9219 7.01502 24.2101 7.91295 24.2101C8.83893 24.2101 9.58252 23.9219 10.1437 23.3455C10.7049 22.7691 10.9855 22.0223 10.9855 21.1053V20.1227C10.9855 19.9917 11.0276 19.8869 11.1118 19.8083C11.224 19.7035 11.3503 19.6511 11.4906 19.6511L15.405 19.8083C15.5453 19.8083 15.6575 19.8607 15.7417 19.9655C15.854 20.0441 15.9101 20.1489 15.9101 20.2799V20.7515C15.9101 22.9787 15.1805 24.7735 13.7214 26.1359C12.2623 27.4722 10.3261 28.1404 7.91295 28.1404Z" fill="white"/>
<path d="M60.3965 0H64.2304V1.66511H60.3965V0Z" fill="white"/>
<path d="M60.3965 3.16371H64.5871V4.91207H60.3965V3.16371Z" fill="url(#paint0_linear_2935_4993)"/>
<path d="M65.8353 3.16371H70.1151V4.91207H65.8353V3.16371Z" fill="url(#paint1_linear_2935_4993)"/>
<path d="M71.0067 3.16371H75.1973V4.91207H71.0067V3.16371Z" fill="url(#paint2_linear_2935_4993)"/>
<path d="M70.8284 6.57718H75.0189V8.32555H70.8284V6.57718Z" fill="url(#paint3_linear_2935_4993)"/>
<path d="M65.122 13.2376H70.65V15.652H65.122V13.2376Z" fill="white"/>
<path d="M61.1098 17.8167H70.65V20.7306H61.1098V17.8167Z" fill="url(#paint4_linear_2935_4993)"/>
<path d="M64.4087 22.3125H68.421V23.9776H64.4087V22.3125Z" fill="url(#paint5_linear_2935_4993)"/>
<path d="M61.1098 26.2255H64.2304V27.5576H61.1098V26.2255Z" fill="white"/>
<path d="M67.886 26.2255H71.0067V27.5576H67.886V26.2255Z" fill="white"/>
<path d="M71.8983 26.2255H75.0189V27.5576H71.8983V26.2255Z" fill="white"/>
<path d="M68.2427 0H72.0766V1.66511H68.2427V0Z" fill="white"/>
<path d="M67.3511 0.91581C67.3511 1.4216 66.892 1.83162 66.3257 1.83162C65.7594 1.83162 65.3004 1.4216 65.3004 0.91581C65.3004 0.410022 65.7594 0 66.3257 0C66.892 0 67.3511 0.410022 67.3511 0.91581Z" fill="white"/>
<path d="M75.1973 0.91581C75.1973 1.4216 74.7382 1.83162 74.1719 1.83162C73.6056 1.83162 73.1466 1.4216 73.1466 0.91581C73.1466 0.410022 73.6056 0 74.1719 0C74.7382 0 75.1973 0.410022 75.1973 0.91581Z" fill="white"/>
<path d="M62.6255 7.36811C62.6255 7.89689 62.1665 8.32555 61.6002 8.32555C61.0339 8.32555 60.5748 7.89689 60.5748 7.36811C60.5748 6.83933 61.0339 6.41067 61.6002 6.41067C62.1665 6.41067 62.6255 6.83933 62.6255 7.36811Z" fill="url(#paint6_linear_2935_4993)"/>
<path d="M66.0136 7.36811C66.0136 7.89689 65.5745 8.32555 65.0329 8.32555C64.4912 8.32555 64.0521 7.89689 64.0521 7.36811C64.0521 6.83933 64.4912 6.41067 65.0329 6.41067C65.5745 6.41067 66.0136 6.83933 66.0136 7.36811Z" fill="url(#paint7_linear_2935_4993)"/>
<path d="M69.4909 7.36811C69.4909 7.89689 69.0518 8.32555 68.5102 8.32555C67.9685 8.32555 67.5294 7.89689 67.5294 7.36811C67.5294 6.83933 67.9685 6.41067 68.5102 6.41067C69.0518 6.41067 69.4909 6.83933 69.4909 7.36811Z" fill="url(#paint8_linear_2935_4993)"/>
<path d="M62.6255 10.7816C62.6255 11.3104 62.1665 11.739 61.6002 11.739C61.0339 11.739 60.5748 11.3104 60.5748 10.7816C60.5748 10.2528 61.0339 9.82415 61.6002 9.82415C62.1665 9.82415 62.6255 10.2528 62.6255 10.7816Z" fill="url(#paint9_linear_2935_4993)"/>
<path d="M63.1605 14.4448C63.1605 15.1115 62.5817 15.652 61.8676 15.652C61.1536 15.652 60.5748 15.1115 60.5748 14.4448C60.5748 13.7781 61.1536 13.2376 61.8676 13.2376C62.5817 13.2376 63.1605 13.7781 63.1605 14.4448Z" fill="white"/>
<path d="M75.0189 14.4448C75.0189 15.1115 74.4401 15.652 73.7261 15.652C73.0121 15.652 72.4333 15.1115 72.4333 14.4448C72.4333 13.7781 73.0121 13.2376 73.7261 13.2376C74.4401 13.2376 75.0189 13.7781 75.0189 14.4448Z" fill="white"/>
<path d="M62.9822 23.2283C62.9822 23.7341 62.5231 24.1441 61.9568 24.1441C61.3905 24.1441 60.9315 23.7341 60.9315 23.2283C60.9315 22.7225 61.3905 22.3125 61.9568 22.3125C62.5231 22.3125 62.9822 22.7225 62.9822 23.2283Z" fill="url(#paint10_linear_2935_4993)"/>
<path d="M71.72 23.2283C71.72 23.7341 71.2609 24.1441 70.6946 24.1441C70.1283 24.1441 69.6693 23.7341 69.6693 23.2283C69.6693 22.7225 70.1283 22.3125 70.6946 22.3125C71.2609 22.3125 71.72 22.7225 71.72 23.2283Z" fill="url(#paint11_linear_2935_4993)"/>
<path d="M75.0189 23.2283C75.0189 23.7341 74.5599 24.1441 73.9936 24.1441C73.4273 24.1441 72.9682 23.7341 72.9682 23.2283C72.9682 22.7225 73.4273 22.3125 73.9936 22.3125C74.5599 22.3125 75.0189 22.7225 75.0189 23.2283Z" fill="url(#paint12_linear_2935_4993)"/>
<path d="M66.8161 26.9748C66.8161 27.3886 66.4369 27.7241 65.9691 27.7241C65.5013 27.7241 65.122 27.3886 65.122 26.9748C65.122 26.5609 65.5013 26.2255 65.9691 26.2255C66.4369 26.2255 66.8161 26.5609 66.8161 26.9748Z" fill="white"/>
<path d="M63.1605 10.7816C63.1605 11.4483 62.5817 11.9888 61.8676 11.9888C61.1536 11.9888 60.5748 11.4483 60.5748 10.7816C60.5748 10.1149 61.1536 9.57438 61.8676 9.57438C62.5817 9.57438 63.1605 10.1149 63.1605 10.7816Z" fill="white"/>
<path d="M139.696 27.4722C139.556 27.4722 139.43 27.4329 139.318 27.3543C139.233 27.2495 139.191 27.1316 139.191 27.0006V16.2711L139.149 16.0353L133.299 0.550231C133.271 0.497828 133.257 0.432324 133.257 0.353719C133.257 0.117906 133.411 0 133.72 0H137.76C138.069 0 138.265 0.131006 138.349 0.39302L141.506 10.4937C141.534 10.5723 141.576 10.6116 141.633 10.6116C141.689 10.6116 141.731 10.5723 141.759 10.4937L144.916 0.39302C145 0.131006 145.196 0 145.505 0H149.545C149.714 0 149.84 0.0524029 149.924 0.157209C150.008 0.235814 150.022 0.366821 149.966 0.550231L144.116 16.0353L144.074 16.2711V27.0006C144.074 27.1316 144.018 27.2495 143.905 27.3543C143.821 27.4329 143.709 27.4722 143.569 27.4722H139.696Z" fill="white"/>
<path d="M118.661 27.5115C118.521 27.5115 118.395 27.4722 118.283 27.3936C118.198 27.2888 118.156 27.1709 118.156 27.0399V0.471627C118.156 0.34062 118.198 0.235814 118.283 0.157209C118.395 0.0524029 118.521 0 118.661 0H122.534C122.674 0 122.786 0.0524029 122.87 0.157209C122.983 0.235814 123.039 0.34062 123.039 0.471627V23.3848C123.039 23.5158 123.109 23.5813 123.249 23.5813H132.341C132.481 23.5813 132.593 23.6337 132.677 23.7385C132.79 23.8171 132.846 23.9219 132.846 24.0529V27.0399C132.846 27.1709 132.79 27.2888 132.677 27.3936C132.593 27.4722 132.481 27.5115 132.341 27.5115H118.661Z" fill="white"/>
<path d="M114.399 0C114.539 0 114.652 0.0524029 114.736 0.157209C114.848 0.235814 114.904 0.34062 114.904 0.471627V3.45859C114.904 3.5896 114.848 3.7075 114.736 3.81231C114.652 3.89091 114.539 3.93022 114.399 3.93022H109.054C108.913 3.93022 108.843 3.99572 108.843 4.12673V27.0399C108.843 27.1709 108.787 27.2888 108.675 27.3936C108.591 27.4722 108.478 27.5115 108.338 27.5115H104.466C104.325 27.5115 104.199 27.4722 104.087 27.3936C104.003 27.2888 103.961 27.1709 103.961 27.0399V4.12673C103.961 3.99572 103.891 3.93022 103.75 3.93022H98.6994C98.5591 3.93022 98.4328 3.89091 98.3206 3.81231C98.2364 3.7075 98.1943 3.5896 98.1943 3.45859V0.471627C98.1943 0.34062 98.2364 0.235814 98.3206 0.157209C98.4328 0.0524029 98.5591 0 98.6994 0H114.399Z" fill="white"/>
<path d="M91.5464 27.5115C91.2658 27.5115 91.0834 27.3805 90.9992 27.1185L87.4216 15.8388C87.3655 15.734 87.2953 15.6816 87.2111 15.6816H84.9804C84.8401 15.6816 84.7699 15.7471 84.7699 15.8781V27.0399C84.7699 27.1709 84.7138 27.2888 84.6015 27.3936C84.5174 27.4722 84.4051 27.5115 84.2648 27.5115H80.3925C80.2522 27.5115 80.126 27.4722 80.0137 27.3936C79.9295 27.2888 79.8875 27.1709 79.8875 27.0399V0.471627C79.8875 0.34062 79.9295 0.235814 80.0137 0.157209C80.126 0.0524029 80.2522 0 80.3925 0H88.3055C89.7927 0 91.0975 0.340619 92.2199 1.02186C93.3703 1.67689 94.2542 2.62014 94.8715 3.85161C95.5169 5.05688 95.8396 6.44556 95.8396 8.01764C95.8396 9.64213 95.5029 11.0439 94.8294 12.223C94.156 13.402 93.216 14.2929 92.0094 14.8955C91.8972 14.9217 91.8551 15.0003 91.8831 15.1313L96.008 26.9613C96.036 27.0137 96.0501 27.0792 96.0501 27.1578C96.0501 27.3936 95.8957 27.5115 95.5871 27.5115H91.5464ZM84.9804 3.93022C84.8401 3.93022 84.7699 3.99572 84.7699 4.12673V11.9479C84.7699 12.0789 84.8401 12.1444 84.9804 12.1444H87.5479C88.558 12.1444 89.3718 11.7775 89.9891 11.0439C90.6345 10.3103 90.9572 9.31461 90.9572 8.05694C90.9572 6.79927 90.6345 5.80362 89.9891 5.06998C89.3718 4.31014 88.558 3.93022 87.5479 3.93022H84.9804Z" fill="white"/>
<defs>
<linearGradient id="paint0_linear_2935_4993" x1="60.3965" y1="7.52807" x2="76.4318" y2="8.56114" gradientUnits="userSpaceOnUse">
<stop stopColor="#30C5D2"/>
<stop offset="1" stopColor="#471069"/>
</linearGradient>
<linearGradient id="paint1_linear_2935_4993" x1="60.3965" y1="7.52807" x2="76.4318" y2="8.56114" gradientUnits="userSpaceOnUse">
<stop stopColor="#30C5D2"/>
<stop offset="1" stopColor="#471069"/>
</linearGradient>
<linearGradient id="paint2_linear_2935_4993" x1="60.3965" y1="7.52807" x2="76.4318" y2="8.56114" gradientUnits="userSpaceOnUse">
<stop stopColor="#30C5D2"/>
<stop offset="1" stopColor="#471069"/>
</linearGradient>
<linearGradient id="paint3_linear_2935_4993" x1="60.3965" y1="7.52807" x2="76.4318" y2="8.56114" gradientUnits="userSpaceOnUse">
<stop stopColor="#30C5D2"/>
<stop offset="1" stopColor="#471069"/>
</linearGradient>
<linearGradient id="paint4_linear_2935_4993" x1="60.3965" y1="7.52807" x2="76.4318" y2="8.56114" gradientUnits="userSpaceOnUse">
<stop stopColor="#30C5D2"/>
<stop offset="1" stopColor="#471069"/>
</linearGradient>
<linearGradient id="paint5_linear_2935_4993" x1="60.3965" y1="7.52807" x2="76.4318" y2="8.56114" gradientUnits="userSpaceOnUse">
<stop stopColor="#30C5D2"/>
<stop offset="1" stopColor="#471069"/>
</linearGradient>
<linearGradient id="paint6_linear_2935_4993" x1="60.3965" y1="7.52807" x2="76.4318" y2="8.56114" gradientUnits="userSpaceOnUse">
<stop stopColor="#30C5D2"/>
<stop offset="1" stopColor="#471069"/>
</linearGradient>
<linearGradient id="paint7_linear_2935_4993" x1="60.3965" y1="7.52807" x2="76.4318" y2="8.56114" gradientUnits="userSpaceOnUse">
<stop stopColor="#30C5D2"/>
<stop offset="1" stopColor="#471069"/>
</linearGradient>
<linearGradient id="paint8_linear_2935_4993" x1="60.3965" y1="7.52807" x2="76.4318" y2="8.56114" gradientUnits="userSpaceOnUse">
<stop stopColor="#30C5D2"/>
<stop offset="1" stopColor="#471069"/>
</linearGradient>
<linearGradient id="paint9_linear_2935_4993" x1="60.3965" y1="7.52807" x2="76.4318" y2="8.56114" gradientUnits="userSpaceOnUse">
<stop stopColor="#30C5D2"/>
<stop offset="1" stopColor="#471069"/>
</linearGradient>
<linearGradient id="paint10_linear_2935_4993" x1="60.3965" y1="7.52807" x2="76.4318" y2="8.56114" gradientUnits="userSpaceOnUse">
<stop stopColor="#30C5D2"/>
<stop offset="1" stopColor="#471069"/>
</linearGradient>
<linearGradient id="paint11_linear_2935_4993" x1="60.3965" y1="7.52807" x2="76.4318" y2="8.56114" gradientUnits="userSpaceOnUse">
<stop stopColor="#30C5D2"/>
<stop offset="1" stopColor="#471069"/>
</linearGradient>
<linearGradient id="paint12_linear_2935_4993" x1="60.3965" y1="7.52807" x2="76.4318" y2="8.56114" gradientUnits="userSpaceOnUse">
<stop stopColor="#30C5D2"/>
<stop offset="1" stopColor="#471069"/>
</linearGradient>
</defs>
</svg>
