<svg width="40" height="40" viewBox="0 0 40 40" fill="none" xmlns="http://www.w3.org/2000/svg">
<g clip-path="url(#clip0_6083_6126)">
<path d="M20 40C31.0457 40 40 31.0457 40 20C40 8.9543 31.0457 0 20 0C8.9543 0 0 8.9543 0 20C0 31.0457 8.9543 40 20 40Z" fill="#F3F3F3"/>
<path d="M19.9993 10.6665C21.237 10.6665 22.424 11.1582 23.2992 12.0334C24.1743 12.9086 24.666 14.0955 24.666 15.3332C24.666 16.5709 24.1743 17.7579 23.2992 18.633C22.424 19.5082 21.237 19.9999 19.9993 19.9999C18.7617 19.9999 17.5747 19.5082 16.6995 18.633C15.8243 17.7579 15.3327 16.5709 15.3327 15.3332C15.3327 14.0955 15.8243 12.9086 16.6995 12.0334C17.5747 11.1582 18.7617 10.6665 19.9993 10.6665ZM19.9993 22.3332C25.156 22.3332 29.3327 24.4215 29.3327 26.9999V29.3332H10.666V26.9999C10.666 24.4215 14.8427 22.3332 19.9993 22.3332Z" fill="#1E2129"/>
</g>
<defs>
<clipPath id="clip0_6083_6126">
<rect width="40" height="40" fill="white"/>
</clipPath>
</defs>
</svg>
