<svg width="280" height="280" viewBox="0 0 280 280" fill="none" xmlns="http://www.w3.org/2000/svg">
<rect width="279.895" height="279.895" rx="13.4686" fill="#1E2129"/>
<path d="M125.611 114.688H132.685V117.805H125.611V114.688Z" fill="#585A5D"/>
<path d="M125.611 120.609H133.343V123.881H125.611V120.609Z" fill="#585A5D"/>
<path d="M135.646 120.609H143.542V123.881H135.646V120.609Z" fill="#585A5D"/>
<path d="M145.187 120.609H152.918V123.881H145.187V120.609Z" fill="#585A5D"/>
<path d="M144.858 126.997H152.589V130.269H144.858V126.997Z" fill="#585A5D"/>
<path d="M134.33 139.461H144.529V143.98H134.33V139.461Z" fill="#585A5D"/>
<path d="M126.927 148.031H144.529V153.484H126.927V148.031Z" fill="#585A5D"/>
<path d="M133.014 156.444H140.416V159.56H133.014V156.444Z" fill="#585A5D"/>
<path d="M126.927 163.767H132.685V166.26H126.927V163.767Z" fill="#585A5D"/>
<path d="M139.429 163.767H145.187V166.26H139.429V163.767Z" fill="#585A5D"/>
<path d="M146.832 163.767H152.589V166.26H146.832V163.767Z" fill="#585A5D"/>
<path d="M140.087 114.688H147.161V117.805H140.087V114.688Z" fill="#585A5D"/>
<path d="M138.442 116.402C138.442 117.349 137.595 118.116 136.55 118.116C135.506 118.116 134.659 117.349 134.659 116.402C134.659 115.456 135.506 114.688 136.55 114.688C137.595 114.688 138.442 115.456 138.442 116.402Z" fill="#585A5D"/>
<path d="M152.918 116.402C152.918 117.349 152.071 118.116 151.026 118.116C149.982 118.116 149.135 117.349 149.135 116.402C149.135 115.456 149.982 114.688 151.026 114.688C152.071 114.688 152.918 115.456 152.918 116.402Z" fill="#585A5D"/>
<path d="M129.724 128.477C129.724 129.467 128.877 130.269 127.832 130.269C126.787 130.269 125.94 129.467 125.94 128.477C125.94 127.488 126.787 126.685 127.832 126.685C128.877 126.685 129.724 127.488 129.724 128.477Z" fill="#585A5D"/>
<path d="M135.975 128.477C135.975 129.467 135.165 130.269 134.165 130.269C133.166 130.269 132.356 129.467 132.356 128.477C132.356 127.488 133.166 126.685 134.165 126.685C135.165 126.685 135.975 127.488 135.975 128.477Z" fill="#585A5D"/>
<path d="M142.39 128.477C142.39 129.467 141.58 130.269 140.581 130.269C139.581 130.269 138.771 129.467 138.771 128.477C138.771 127.488 139.581 126.685 140.581 126.685C141.58 126.685 142.39 127.488 142.39 128.477Z" fill="#585A5D"/>
<path d="M129.724 134.865C129.724 135.855 128.877 136.657 127.832 136.657C126.787 136.657 125.94 135.855 125.94 134.865C125.94 133.876 126.787 133.073 127.832 133.073C128.877 133.073 129.724 133.876 129.724 134.865Z" fill="#585A5D"/>
<path d="M130.711 141.721C130.711 142.968 129.643 143.98 128.326 143.98C127.008 143.98 125.94 142.968 125.94 141.721C125.94 140.473 127.008 139.461 128.326 139.461C129.643 139.461 130.711 140.473 130.711 141.721Z" fill="#585A5D"/>
<path d="M152.589 141.721C152.589 142.968 151.521 143.98 150.204 143.98C148.887 143.98 147.819 142.968 147.819 141.721C147.819 140.473 148.887 139.461 150.204 139.461C151.521 139.461 152.589 140.473 152.589 141.721Z" fill="#585A5D"/>
<path d="M130.382 158.158C130.382 159.104 129.535 159.872 128.49 159.872C127.445 159.872 126.598 159.104 126.598 158.158C126.598 157.211 127.445 156.444 128.49 156.444C129.535 156.444 130.382 157.211 130.382 158.158Z" fill="#585A5D"/>
<path d="M146.503 158.158C146.503 159.104 145.656 159.872 144.611 159.872C143.566 159.872 142.719 159.104 142.719 158.158C142.719 157.211 143.566 156.444 144.611 156.444C145.656 156.444 146.503 157.211 146.503 158.158Z" fill="#585A5D"/>
<path d="M152.589 158.158C152.589 159.104 151.742 159.872 150.697 159.872C149.653 159.872 148.806 159.104 148.806 158.158C148.806 157.211 149.653 156.444 150.697 156.444C151.742 156.444 152.589 157.211 152.589 158.158Z" fill="#585A5D"/>
<path d="M137.455 165.169C137.455 165.944 136.756 166.571 135.893 166.571C135.029 166.571 134.33 165.944 134.33 165.169C134.33 164.395 135.029 163.767 135.893 163.767C136.756 163.767 137.455 164.395 137.455 165.169Z" fill="#585A5D"/>
<path d="M130.711 134.865C130.711 136.113 129.643 137.124 128.326 137.124C127.008 137.124 125.94 136.113 125.94 134.865C125.94 133.617 127.008 132.606 128.326 132.606C129.643 132.606 130.711 133.617 130.711 134.865Z" fill="#585A5D"/>
</svg>
