<svg width="150" height="30" viewBox="0 0 150 30" fill="none" xmlns="http://www.w3.org/2000/svg">
<path d="M44.7815 28.764C44.4728 28.764 44.2904 28.6199 44.2343 28.3316L38.2154 1.76337L38.1733 1.60616C38.1733 1.37035 38.3277 1.25244 38.6363 1.25244H42.8874C43.2242 1.25244 43.4065 1.39655 43.4346 1.68477L46.9281 20.5891C46.9561 20.6677 46.9982 20.707 47.0544 20.707C47.1105 20.707 47.1526 20.6677 47.1806 20.5891L50.5899 1.68477C50.618 1.39655 50.8004 1.25244 51.1371 1.25244H55.2619C55.6267 1.25244 55.767 1.42275 55.6828 1.76337L49.6219 28.3316C49.5657 28.6199 49.3833 28.764 49.0747 28.764H44.7815Z" fill="white"/>
<path d="M27.278 29.0779C24.8648 29.0779 22.9146 28.3966 21.4275 27.0341C19.9683 25.6717 19.2388 23.8638 19.2388 21.6104V8.40491C19.2388 6.15159 19.9683 4.34369 21.4275 2.98121C22.9146 1.61874 24.8648 0.9375 27.278 0.9375C29.6912 0.9375 31.6413 1.61874 33.1285 2.98121C34.6157 4.34369 35.3593 6.15159 35.3593 8.40491V21.6104C35.3593 23.8638 34.6157 25.6717 33.1285 27.0341C31.6413 28.3966 29.6912 29.0779 27.278 29.0779ZM27.278 25.1476C28.232 25.1476 29.0037 24.8463 29.5929 24.2437C30.1822 23.6148 30.4768 22.8026 30.4768 21.807V8.2084C30.4768 7.21275 30.1822 6.4136 29.5929 5.81097C29.0037 5.18213 28.232 4.86772 27.278 4.86772C26.3239 4.86772 25.5523 5.18213 24.963 5.81097C24.4018 6.4136 24.1212 7.21275 24.1212 8.2084V21.807C24.1212 22.8026 24.4018 23.6148 24.963 24.2437C25.5523 24.8463 26.3239 25.1476 27.278 25.1476Z" fill="white"/>
<path d="M7.91295 29.0779C5.52784 29.0779 3.60572 28.4097 2.1466 27.0734C0.715532 25.711 0 23.9162 0 21.689V8.287C0 6.03368 0.715532 4.25198 2.1466 2.94191C3.60572 1.60564 5.52784 0.9375 7.91295 0.9375C10.3261 0.9375 12.2623 1.60564 13.7214 2.94191C15.1805 4.25198 15.9101 6.03368 15.9101 8.287V8.75863C15.9101 8.88964 15.854 9.00755 15.7417 9.11235C15.6575 9.21716 15.5453 9.26956 15.405 9.26956L11.4906 9.42677C11.1539 9.42677 10.9855 9.26956 10.9855 8.95514V7.97259C10.9855 7.05554 10.7049 6.3088 10.1437 5.73236C9.58252 5.15593 8.83893 4.86772 7.91295 4.86772C7.01502 4.86772 6.28546 5.15593 5.72426 5.73236C5.16306 6.3088 4.88246 7.05554 4.88246 7.97259V22.0428C4.88246 22.9598 5.16306 23.7066 5.72426 24.283C6.28546 24.8594 7.01502 25.1476 7.91295 25.1476C8.83893 25.1476 9.58252 24.8594 10.1437 24.283C10.7049 23.7066 10.9855 22.9598 10.9855 22.0428V21.0602C10.9855 20.9292 11.0276 20.8244 11.1118 20.7458C11.224 20.641 11.3503 20.5886 11.4906 20.5886L15.405 20.7458C15.5453 20.7458 15.6575 20.7982 15.7417 20.903C15.854 20.9816 15.9101 21.0864 15.9101 21.2174V21.689C15.9101 23.9162 15.1805 25.711 13.7214 27.0734C12.2623 28.4097 10.3261 29.0779 7.91295 29.0779Z" fill="white"/>
<path d="M60.3965 0.9375H64.2304V2.60261H60.3965V0.9375Z" fill="white"/>
<path d="M60.3965 4.10121H64.5871V5.84957H60.3965V4.10121Z" fill="url(#paint0_linear_4005_2685)"/>
<path d="M65.8353 4.10121H70.1151V5.84957H65.8353V4.10121Z" fill="url(#paint1_linear_4005_2685)"/>
<path d="M71.0067 4.10121H75.1973V5.84957H71.0067V4.10121Z" fill="url(#paint2_linear_4005_2685)"/>
<path d="M70.8284 7.51468H75.0189V9.26305H70.8284V7.51468Z" fill="url(#paint3_linear_4005_2685)"/>
<path d="M64.0521 10.7616H68.2427V12.6765H64.0521V10.7616Z" fill="url(#paint4_linear_4005_2685)"/>
<path d="M65.122 14.1751H70.65V16.5895H65.122V14.1751Z" fill="white"/>
<path d="M61.1098 18.7542H70.65V21.6681H61.1098V18.7542Z" fill="url(#paint5_linear_4005_2685)"/>
<path d="M64.4087 23.25H68.421V24.9151H64.4087V23.25Z" fill="url(#paint6_linear_4005_2685)"/>
<path d="M61.1098 27.163H64.2304V28.4951H61.1098V27.163Z" fill="white"/>
<path d="M67.886 27.163H71.0067V28.4951H67.886V27.163Z" fill="white"/>
<path d="M71.8983 27.163H75.0189V28.4951H71.8983V27.163Z" fill="white"/>
<path d="M68.2427 0.9375H72.0766V2.60261H68.2427V0.9375Z" fill="white"/>
<path d="M67.3511 1.85331C67.3511 2.3591 66.892 2.76912 66.3257 2.76912C65.7594 2.76912 65.3004 2.3591 65.3004 1.85331C65.3004 1.34752 65.7594 0.9375 66.3257 0.9375C66.892 0.9375 67.3511 1.34752 67.3511 1.85331Z" fill="white"/>
<path d="M75.1973 1.85331C75.1973 2.3591 74.7382 2.76912 74.1719 2.76912C73.6056 2.76912 73.1466 2.3591 73.1466 1.85331C73.1466 1.34752 73.6056 0.9375 74.1719 0.9375C74.7382 0.9375 75.1973 1.34752 75.1973 1.85331Z" fill="white"/>
<path d="M62.6255 8.30561C62.6255 8.83439 62.1665 9.26305 61.6002 9.26305C61.0339 9.26305 60.5748 8.83439 60.5748 8.30561C60.5748 7.77683 61.0339 7.34817 61.6002 7.34817C62.1665 7.34817 62.6255 7.77683 62.6255 8.30561Z" fill="url(#paint7_linear_4005_2685)"/>
<path d="M66.0136 8.30561C66.0136 8.83439 65.5745 9.26305 65.0329 9.26305C64.4912 9.26305 64.0521 8.83439 64.0521 8.30561C64.0521 7.77683 64.4912 7.34817 65.0329 7.34817C65.5745 7.34817 66.0136 7.77683 66.0136 8.30561Z" fill="url(#paint8_linear_4005_2685)"/>
<path d="M69.4909 8.30561C69.4909 8.83439 69.0518 9.26305 68.5102 9.26305C67.9685 9.26305 67.5294 8.83439 67.5294 8.30561C67.5294 7.77683 67.9685 7.34817 68.5102 7.34817C69.0518 7.34817 69.4909 7.77683 69.4909 8.30561Z" fill="url(#paint9_linear_4005_2685)"/>
<path d="M62.6255 11.7191C62.6255 12.2479 62.1665 12.6765 61.6002 12.6765C61.0339 12.6765 60.5748 12.2479 60.5748 11.7191C60.5748 11.1903 61.0339 10.7616 61.6002 10.7616C62.1665 10.7616 62.6255 11.1903 62.6255 11.7191Z" fill="url(#paint10_linear_4005_2685)"/>
<path d="M71.72 11.7191C71.72 12.2479 71.2609 12.6765 70.6946 12.6765C70.1283 12.6765 69.6693 12.2479 69.6693 11.7191C69.6693 11.1903 70.1283 10.7616 70.6946 10.7616C71.2609 10.7616 71.72 11.1903 71.72 11.7191Z" fill="url(#paint11_linear_4005_2685)"/>
<path d="M75.0189 11.7191C75.0189 12.2479 74.5599 12.6765 73.9936 12.6765C73.4273 12.6765 72.9682 12.2479 72.9682 11.7191C72.9682 11.1903 73.4273 10.7616 73.9936 10.7616C74.5599 10.7616 75.0189 11.1903 75.0189 11.7191Z" fill="url(#paint12_linear_4005_2685)"/>
<path d="M63.1605 15.3823C63.1605 16.049 62.5817 16.5895 61.8676 16.5895C61.1536 16.5895 60.5748 16.049 60.5748 15.3823C60.5748 14.7156 61.1536 14.1751 61.8676 14.1751C62.5817 14.1751 63.1605 14.7156 63.1605 15.3823Z" fill="white"/>
<path d="M75.0189 15.3823C75.0189 16.049 74.4401 16.5895 73.7261 16.5895C73.0121 16.5895 72.4333 16.049 72.4333 15.3823C72.4333 14.7156 73.0121 14.1751 73.7261 14.1751C74.4401 14.1751 75.0189 14.7156 75.0189 15.3823Z" fill="white"/>
<path d="M62.9822 24.1658C62.9822 24.6716 62.5231 25.0816 61.9568 25.0816C61.3905 25.0816 60.9315 24.6716 60.9315 24.1658C60.9315 23.66 61.3905 23.25 61.9568 23.25C62.5231 23.25 62.9822 23.66 62.9822 24.1658Z" fill="url(#paint13_linear_4005_2685)"/>
<path d="M71.72 24.1658C71.72 24.6716 71.2609 25.0816 70.6946 25.0816C70.1283 25.0816 69.6693 24.6716 69.6693 24.1658C69.6693 23.66 70.1283 23.25 70.6946 23.25C71.2609 23.25 71.72 23.66 71.72 24.1658Z" fill="url(#paint14_linear_4005_2685)"/>
<path d="M75.0189 24.1658C75.0189 24.6716 74.5599 25.0816 73.9936 25.0816C73.4273 25.0816 72.9682 24.6716 72.9682 24.1658C72.9682 23.66 73.4273 23.25 73.9936 23.25C74.5599 23.25 75.0189 23.66 75.0189 24.1658Z" fill="url(#paint15_linear_4005_2685)"/>
<path d="M66.8161 27.9123C66.8161 28.3261 66.4369 28.6616 65.9691 28.6616C65.5013 28.6616 65.122 28.3261 65.122 27.9123C65.122 27.4984 65.5013 27.163 65.9691 27.163C66.4369 27.163 66.8161 27.4984 66.8161 27.9123Z" fill="white"/>
<path d="M139.696 28.4097C139.556 28.4097 139.43 28.3704 139.318 28.2918C139.233 28.187 139.191 28.0691 139.191 27.9381V17.2086L139.149 16.9728L133.299 1.48773C133.271 1.43533 133.257 1.36982 133.257 1.29122C133.257 1.05541 133.411 0.9375 133.72 0.9375H137.76C138.069 0.9375 138.265 1.06851 138.349 1.33052L141.506 11.4312C141.534 11.5098 141.576 11.5491 141.633 11.5491C141.689 11.5491 141.731 11.5098 141.759 11.4312L144.916 1.33052C145 1.06851 145.196 0.9375 145.505 0.9375H149.545C149.714 0.9375 149.84 0.989903 149.924 1.09471C150.008 1.17331 150.022 1.30432 149.966 1.48773L144.116 16.9728L144.074 17.2086V27.9381C144.074 28.0691 144.018 28.187 143.905 28.2918C143.821 28.3704 143.709 28.4097 143.569 28.4097H139.696Z" fill="white"/>
<path d="M118.661 28.449C118.521 28.449 118.395 28.4097 118.283 28.3311C118.198 28.2263 118.156 28.1084 118.156 27.9774V1.40913C118.156 1.27812 118.198 1.17331 118.283 1.09471C118.395 0.989903 118.521 0.9375 118.661 0.9375H122.534C122.674 0.9375 122.786 0.989903 122.87 1.09471C122.983 1.17331 123.039 1.27812 123.039 1.40913V24.3223C123.039 24.4533 123.109 24.5188 123.249 24.5188H132.341C132.481 24.5188 132.593 24.5712 132.677 24.676C132.79 24.7546 132.846 24.8594 132.846 24.9904V27.9774C132.846 28.1084 132.79 28.2263 132.677 28.3311C132.593 28.4097 132.481 28.449 132.341 28.449H118.661Z" fill="white"/>
<path d="M114.399 0.9375C114.539 0.9375 114.652 0.989903 114.736 1.09471C114.848 1.17331 114.904 1.27812 114.904 1.40913V4.39609C114.904 4.5271 114.848 4.645 114.736 4.74981C114.652 4.82841 114.539 4.86772 114.399 4.86772H109.054C108.913 4.86772 108.843 4.93322 108.843 5.06423V27.9774C108.843 28.1084 108.787 28.2263 108.675 28.3311C108.591 28.4097 108.478 28.449 108.338 28.449H104.466C104.325 28.449 104.199 28.4097 104.087 28.3311C104.003 28.2263 103.961 28.1084 103.961 27.9774V5.06423C103.961 4.93322 103.891 4.86772 103.75 4.86772H98.6994C98.5591 4.86772 98.4328 4.82841 98.3206 4.74981C98.2364 4.645 98.1943 4.5271 98.1943 4.39609V1.40913C98.1943 1.27812 98.2364 1.17331 98.3206 1.09471C98.4328 0.989903 98.5591 0.9375 98.6994 0.9375H114.399Z" fill="white"/>
<path d="M91.5464 28.449C91.2658 28.449 91.0834 28.318 90.9992 28.056L87.4216 16.7763C87.3655 16.6715 87.2953 16.6191 87.2111 16.6191H84.9804C84.8401 16.6191 84.7699 16.6846 84.7699 16.8156V27.9774C84.7699 28.1084 84.7138 28.2263 84.6015 28.3311C84.5174 28.4097 84.4051 28.449 84.2648 28.449H80.3925C80.2522 28.449 80.126 28.4097 80.0137 28.3311C79.9295 28.2263 79.8875 28.1084 79.8875 27.9774V1.40913C79.8875 1.27812 79.9295 1.17331 80.0137 1.09471C80.126 0.989903 80.2522 0.9375 80.3925 0.9375H88.3055C89.7927 0.9375 91.0975 1.27812 92.2199 1.95936C93.3703 2.61439 94.2542 3.55764 94.8715 4.78911C95.5169 5.99438 95.8396 7.38306 95.8396 8.95514C95.8396 10.5796 95.5029 11.9814 94.8294 13.1605C94.156 14.3395 93.216 15.2304 92.0094 15.833C91.8972 15.8592 91.8551 15.9378 91.8831 16.0688L96.008 27.8988C96.036 27.9512 96.0501 28.0167 96.0501 28.0953C96.0501 28.3311 95.8957 28.449 95.5871 28.449H91.5464ZM84.9804 4.86772C84.8401 4.86772 84.7699 4.93322 84.7699 5.06423V12.8854C84.7699 13.0164 84.8401 13.0819 84.9804 13.0819H87.5479C88.558 13.0819 89.3718 12.715 89.9891 11.9814C90.6345 11.2478 90.9572 10.2521 90.9572 8.99444C90.9572 7.73677 90.6345 6.74112 89.9891 6.00748C89.3718 5.24764 88.558 4.86772 87.5479 4.86772H84.9804Z" fill="white"/>
<defs>
<linearGradient id="paint0_linear_4005_2685" x1="60.3965" y1="8.46557" x2="76.4318" y2="9.49864" gradientUnits="userSpaceOnUse">
<stop stopColor="#30C5D2"/>
<stop offset="1" stopColor="#471069"/>
</linearGradient>
<linearGradient id="paint1_linear_4005_2685" x1="60.3965" y1="8.46557" x2="76.4318" y2="9.49864" gradientUnits="userSpaceOnUse">
<stop stopColor="#30C5D2"/>
<stop offset="1" stopColor="#471069"/>
</linearGradient>
<linearGradient id="paint2_linear_4005_2685" x1="60.3965" y1="8.46557" x2="76.4318" y2="9.49864" gradientUnits="userSpaceOnUse">
<stop stopColor="#30C5D2"/>
<stop offset="1" stopColor="#471069"/>
</linearGradient>
<linearGradient id="paint3_linear_4005_2685" x1="60.3965" y1="8.46557" x2="76.4318" y2="9.49864" gradientUnits="userSpaceOnUse">
<stop stopColor="#30C5D2"/>
<stop offset="1" stopColor="#471069"/>
</linearGradient>
<linearGradient id="paint4_linear_4005_2685" x1="60.3965" y1="8.46557" x2="76.4318" y2="9.49864" gradientUnits="userSpaceOnUse">
<stop stopColor="#30C5D2"/>
<stop offset="1" stopColor="#471069"/>
</linearGradient>
<linearGradient id="paint5_linear_4005_2685" x1="60.3965" y1="8.46557" x2="76.4318" y2="9.49864" gradientUnits="userSpaceOnUse">
<stop stopColor="#30C5D2"/>
<stop offset="1" stopColor="#471069"/>
</linearGradient>
<linearGradient id="paint6_linear_4005_2685" x1="60.3965" y1="8.46557" x2="76.4318" y2="9.49864" gradientUnits="userSpaceOnUse">
<stop stopColor="#30C5D2"/>
<stop offset="1" stopColor="#471069"/>
</linearGradient>
<linearGradient id="paint7_linear_4005_2685" x1="60.3965" y1="8.46557" x2="76.4318" y2="9.49864" gradientUnits="userSpaceOnUse">
<stop stopColor="#30C5D2"/>
<stop offset="1" stopColor="#471069"/>
</linearGradient>
<linearGradient id="paint8_linear_4005_2685" x1="60.3965" y1="8.46557" x2="76.4318" y2="9.49864" gradientUnits="userSpaceOnUse">
<stop stopColor="#30C5D2"/>
<stop offset="1" stopColor="#471069"/>
</linearGradient>
<linearGradient id="paint9_linear_4005_2685" x1="60.3965" y1="8.46557" x2="76.4318" y2="9.49864" gradientUnits="userSpaceOnUse">
<stop stopColor="#30C5D2"/>
<stop offset="1" stopColor="#471069"/>
</linearGradient>
<linearGradient id="paint10_linear_4005_2685" x1="60.3965" y1="8.46557" x2="76.4318" y2="9.49864" gradientUnits="userSpaceOnUse">
<stop stopColor="#30C5D2"/>
<stop offset="1" stopColor="#471069"/>
</linearGradient>
<linearGradient id="paint11_linear_4005_2685" x1="60.3965" y1="8.46557" x2="76.4318" y2="9.49864" gradientUnits="userSpaceOnUse">
<stop stopColor="#30C5D2"/>
<stop offset="1" stopColor="#471069"/>
</linearGradient>
<linearGradient id="paint12_linear_4005_2685" x1="60.3965" y1="8.46557" x2="76.4318" y2="9.49864" gradientUnits="userSpaceOnUse">
<stop stopColor="#30C5D2"/>
<stop offset="1" stopColor="#471069"/>
</linearGradient>
<linearGradient id="paint13_linear_4005_2685" x1="60.3965" y1="8.46557" x2="76.4318" y2="9.49864" gradientUnits="userSpaceOnUse">
<stop stopColor="#30C5D2"/>
<stop offset="1" stopColor="#471069"/>
</linearGradient>
<linearGradient id="paint14_linear_4005_2685" x1="60.3965" y1="8.46557" x2="76.4318" y2="9.49864" gradientUnits="userSpaceOnUse">
<stop stopColor="#30C5D2"/>
<stop offset="1" stopColor="#471069"/>
</linearGradient>
<linearGradient id="paint15_linear_4005_2685" x1="60.3965" y1="8.46557" x2="76.4318" y2="9.49864" gradientUnits="userSpaceOnUse">
<stop stopColor="#30C5D2"/>
<stop offset="1" stopColor="#471069"/>
</linearGradient>
</defs>
</svg>
