<svg width="150" height="29" viewBox="0 0 150 29" fill="none" xmlns="http://www.w3.org/2000/svg">
<path d="M44.7815 27.8264C44.4728 27.8264 44.2904 27.6823 44.2343 27.3941L38.2154 0.825808L38.1733 0.668599C38.1733 0.432786 38.3277 0.31488 38.6363 0.31488H42.8874C43.2242 0.31488 43.4065 0.458989 43.4346 0.747206L46.9281 19.6515C46.9561 19.7302 46.9982 19.7695 47.0544 19.7695C47.1105 19.7695 47.1526 19.7302 47.1806 19.6515L50.5899 0.747206C50.618 0.458989 50.8004 0.31488 51.1371 0.31488H55.2619C55.6267 0.31488 55.767 0.485189 55.6828 0.825808L49.6219 27.3941C49.5657 27.6823 49.3833 27.8264 49.0747 27.8264H44.7815Z" fill="#324158"/>
<path d="M27.278 28.1403C24.8648 28.1403 22.9146 27.4591 21.4275 26.0966C19.9683 24.7341 19.2388 22.9262 19.2388 20.6729V7.46735C19.2388 5.21403 19.9683 3.40613 21.4275 2.04365C22.9146 0.681177 24.8648 -6.10352e-05 27.278 -6.10352e-05C29.6912 -6.10352e-05 31.6413 0.681177 33.1285 2.04365C34.6157 3.40613 35.3593 5.21403 35.3593 7.46735V20.6729C35.3593 22.9262 34.6157 24.7341 33.1285 26.0966C31.6413 27.4591 29.6912 28.1403 27.278 28.1403ZM27.278 24.2101C28.232 24.2101 29.0037 23.9088 29.5929 23.3061C30.1822 22.6773 30.4768 21.865 30.4768 20.8694V7.27084C30.4768 6.27518 30.1822 5.47604 29.5929 4.87341C29.0037 4.24457 28.232 3.93016 27.278 3.93016C26.3239 3.93016 25.5523 4.24457 24.963 4.87341C24.4018 5.47604 24.1212 6.27518 24.1212 7.27084V20.8694C24.1212 21.865 24.4018 22.6773 24.963 23.3061C25.5523 23.9088 26.3239 24.2101 27.278 24.2101Z" fill="#324158"/>
<path d="M7.91295 28.1404C5.52784 28.1404 3.60572 27.4722 2.1466 26.1359C0.715532 24.7735 0 22.9787 0 20.7515V7.3495C0 5.09618 0.715532 3.31448 2.1466 2.00441C3.60572 0.668137 5.52784 0 7.91295 0C10.3261 0 12.2623 0.668137 13.7214 2.00441C15.1805 3.31448 15.9101 5.09618 15.9101 7.3495V7.82113C15.9101 7.95214 15.854 8.07005 15.7417 8.17485C15.6575 8.27966 15.5453 8.33206 15.405 8.33206L11.4906 8.48927C11.1539 8.48927 10.9855 8.33206 10.9855 8.01764V7.03509C10.9855 6.11804 10.7049 5.3713 10.1437 4.79486C9.58252 4.21843 8.83893 3.93022 7.91295 3.93022C7.01502 3.93022 6.28546 4.21843 5.72426 4.79486C5.16306 5.3713 4.88246 6.11804 4.88246 7.03509V21.1053C4.88246 22.0223 5.16306 22.7691 5.72426 23.3455C6.28546 23.9219 7.01502 24.2101 7.91295 24.2101C8.83893 24.2101 9.58252 23.9219 10.1437 23.3455C10.7049 22.7691 10.9855 22.0223 10.9855 21.1053V20.1227C10.9855 19.9917 11.0276 19.8869 11.1118 19.8083C11.224 19.7035 11.3503 19.6511 11.4906 19.6511L15.405 19.8083C15.5453 19.8083 15.6575 19.8607 15.7417 19.9655C15.854 20.0441 15.9101 20.1489 15.9101 20.2799V20.7515C15.9101 22.9787 15.1805 24.7735 13.7214 26.1359C12.2623 27.4722 10.3261 28.1404 7.91295 28.1404Z" fill="#324158"/>
<path d="M60.3965 -6.10352e-05H64.2305V1.66505H60.3965V-6.10352e-05Z" fill="#324158"/>
<path d="M60.3965 3.16365H64.5871V4.91201H60.3965V3.16365Z" fill="url(#paint0_linear_3152_4869)"/>
<path d="M65.8354 3.16365H70.1151V4.91201H65.8354V3.16365Z" fill="url(#paint1_linear_3152_4869)"/>
<path d="M71.0067 3.16365H75.1973V4.91201H71.0067V3.16365Z" fill="url(#paint2_linear_3152_4869)"/>
<path d="M70.8284 6.57712H75.019V8.32549H70.8284V6.57712Z" fill="url(#paint3_linear_3152_4869)"/>
<path d="M65.1221 13.2376H70.6501V15.652H65.1221V13.2376Z" fill="#324158"/>
<path d="M61.1098 17.8166H70.6501V20.7306H61.1098V17.8166Z" fill="url(#paint4_linear_3152_4869)"/>
<path d="M64.4088 22.3124H68.4211V23.9775H64.4088V22.3124Z" fill="url(#paint5_linear_3152_4869)"/>
<path d="M61.1098 26.2254H64.2305V27.5575H61.1098V26.2254Z" fill="#324158"/>
<path d="M67.8861 26.2254H71.0067V27.5575H67.8861V26.2254Z" fill="#324158"/>
<path d="M71.8984 26.2254H75.019V27.5575H71.8984V26.2254Z" fill="#324158"/>
<path d="M68.2427 -6.10352e-05H72.0767V1.66505H68.2427V-6.10352e-05Z" fill="#324158"/>
<path d="M67.3511 0.915749C67.3511 1.42154 66.8921 1.83156 66.3258 1.83156C65.7595 1.83156 65.3004 1.42154 65.3004 0.915749C65.3004 0.409961 65.7595 -6.10352e-05 66.3258 -6.10352e-05C66.8921 -6.10352e-05 67.3511 0.409961 67.3511 0.915749Z" fill="#324158"/>
<path d="M75.1973 0.915749C75.1973 1.42154 74.7383 1.83156 74.172 1.83156C73.6057 1.83156 73.1466 1.42154 73.1466 0.915749C73.1466 0.409961 73.6057 -6.10352e-05 74.172 -6.10352e-05C74.7383 -6.10352e-05 75.1973 0.409961 75.1973 0.915749Z" fill="#324158"/>
<path d="M62.6256 7.36805C62.6256 7.89683 62.1665 8.32549 61.6002 8.32549C61.0339 8.32549 60.5749 7.89683 60.5749 7.36805C60.5749 6.83927 61.0339 6.41061 61.6002 6.41061C62.1665 6.41061 62.6256 6.83927 62.6256 7.36805Z" fill="url(#paint6_linear_3152_4869)"/>
<path d="M66.0137 7.36805C66.0137 7.89683 65.5746 8.32549 65.0329 8.32549C64.4913 8.32549 64.0522 7.89683 64.0522 7.36805C64.0522 6.83927 64.4913 6.41061 65.0329 6.41061C65.5746 6.41061 66.0137 6.83927 66.0137 7.36805Z" fill="url(#paint7_linear_3152_4869)"/>
<path d="M69.491 7.36805C69.491 7.89683 69.0519 8.32549 68.5102 8.32549C67.9686 8.32549 67.5295 7.89683 67.5295 7.36805C67.5295 6.83927 67.9686 6.41061 68.5102 6.41061C69.0519 6.41061 69.491 6.83927 69.491 7.36805Z" fill="url(#paint8_linear_3152_4869)"/>
<path d="M62.6256 10.7815C62.6256 11.3103 62.1665 11.739 61.6002 11.739C61.0339 11.739 60.5749 11.3103 60.5749 10.7815C60.5749 10.2527 61.0339 9.82408 61.6002 9.82408C62.1665 9.82408 62.6256 10.2527 62.6256 10.7815Z" fill="url(#paint9_linear_3152_4869)"/>
<path d="M63.1605 14.4448C63.1605 15.1115 62.5817 15.652 61.8677 15.652C61.1537 15.652 60.5749 15.1115 60.5749 14.4448C60.5749 13.778 61.1537 13.2376 61.8677 13.2376C62.5817 13.2376 63.1605 13.778 63.1605 14.4448Z" fill="#324158"/>
<path d="M75.019 14.4448C75.019 15.1115 74.4402 15.652 73.7262 15.652C73.0122 15.652 72.4333 15.1115 72.4333 14.4448C72.4333 13.778 73.0122 13.2376 73.7262 13.2376C74.4402 13.2376 75.019 13.778 75.019 14.4448Z" fill="#324158"/>
<path d="M62.9822 23.2282C62.9822 23.734 62.5232 24.144 61.9569 24.144C61.3906 24.144 60.9315 23.734 60.9315 23.2282C60.9315 22.7224 61.3906 22.3124 61.9569 22.3124C62.5232 22.3124 62.9822 22.7224 62.9822 23.2282Z" fill="url(#paint10_linear_3152_4869)"/>
<path d="M71.72 23.2282C71.72 23.734 71.261 24.144 70.6947 24.144C70.1284 24.144 69.6693 23.734 69.6693 23.2282C69.6693 22.7224 70.1284 22.3124 70.6947 22.3124C71.261 22.3124 71.72 22.7224 71.72 23.2282Z" fill="url(#paint11_linear_3152_4869)"/>
<path d="M75.019 23.2282C75.019 23.734 74.5599 24.144 73.9937 24.144C73.4274 24.144 72.9683 23.734 72.9683 23.2282C72.9683 22.7224 73.4274 22.3124 73.9937 22.3124C74.5599 22.3124 75.019 22.7224 75.019 23.2282Z" fill="url(#paint12_linear_3152_4869)"/>
<path d="M66.8162 26.9747C66.8162 27.3885 66.4369 27.724 65.9691 27.724C65.5013 27.724 65.1221 27.3885 65.1221 26.9747C65.1221 26.5609 65.5013 26.2254 65.9691 26.2254C66.4369 26.2254 66.8162 26.5609 66.8162 26.9747Z" fill="#324158"/>
<path d="M63.1605 10.7815C63.1605 11.4482 62.5817 11.9887 61.8677 11.9887C61.1537 11.9887 60.5749 11.4482 60.5749 10.7815C60.5749 10.1148 61.1537 9.57432 61.8677 9.57432C62.5817 9.57432 63.1605 10.1148 63.1605 10.7815Z" fill="#324158"/>
<path d="M139.696 27.4722C139.556 27.4722 139.43 27.4329 139.318 27.3542C139.233 27.2494 139.191 27.1315 139.191 27.0005V16.271L139.149 16.0352L133.299 0.550169C133.271 0.497767 133.257 0.432263 133.257 0.353658C133.257 0.117845 133.411 -6.10352e-05 133.72 -6.10352e-05H137.76C138.069 -6.10352e-05 138.265 0.130945 138.349 0.392959L141.506 10.4936C141.534 10.5722 141.576 10.6115 141.632 10.6115C141.689 10.6115 141.731 10.5722 141.759 10.4936L144.916 0.392959C145 0.130945 145.196 -6.10352e-05 145.505 -6.10352e-05H149.545C149.714 -6.10352e-05 149.84 0.0523419 149.924 0.157148C150.008 0.235753 150.022 0.36676 149.966 0.550169L144.116 16.0352L144.074 16.271V27.0005C144.074 27.1315 144.018 27.2494 143.905 27.3542C143.821 27.4329 143.709 27.4722 143.569 27.4722H139.696Z" fill="#324158"/>
<path d="M118.661 27.5115C118.521 27.5115 118.395 27.4722 118.282 27.3936C118.198 27.2887 118.156 27.1708 118.156 27.0398V0.471566C118.156 0.340559 118.198 0.235753 118.282 0.157148C118.395 0.0523419 118.521 -6.10352e-05 118.661 -6.10352e-05H122.534C122.674 -6.10352e-05 122.786 0.0523419 122.87 0.157148C122.982 0.235753 123.039 0.340559 123.039 0.471566V23.3847C123.039 23.5157 123.109 23.5812 123.249 23.5812H132.341C132.481 23.5812 132.593 23.6336 132.677 23.7384C132.789 23.8171 132.846 23.9219 132.846 24.0529V27.0398C132.846 27.1708 132.789 27.2887 132.677 27.3936C132.593 27.4722 132.481 27.5115 132.341 27.5115H118.661Z" fill="#324158"/>
<path d="M114.399 -6.10352e-05C114.539 -6.10352e-05 114.651 0.0523419 114.736 0.157148C114.848 0.235753 114.904 0.340559 114.904 0.471566V3.45853C114.904 3.58954 114.848 3.70744 114.736 3.81225C114.651 3.89085 114.539 3.93016 114.399 3.93016H109.053C108.913 3.93016 108.843 3.99566 108.843 4.12667V27.0398C108.843 27.1708 108.787 27.2887 108.675 27.3936C108.59 27.4722 108.478 27.5115 108.338 27.5115H104.466C104.325 27.5115 104.199 27.4722 104.087 27.3936C104.003 27.2887 103.961 27.1708 103.961 27.0398V4.12667C103.961 3.99566 103.89 3.93016 103.75 3.93016H98.6993C98.559 3.93016 98.4327 3.89085 98.3205 3.81225C98.2363 3.70744 98.1942 3.58954 98.1942 3.45853V0.471566C98.1942 0.340559 98.2363 0.235753 98.3205 0.157148C98.4327 0.0523419 98.559 -6.10352e-05 98.6993 -6.10352e-05H114.399Z" fill="#324158"/>
<path d="M91.5464 27.5115C91.2658 27.5115 91.0834 27.3804 90.9992 27.1184L87.4215 15.8387C87.3654 15.7339 87.2953 15.6815 87.2111 15.6815H84.9803C84.84 15.6815 84.7698 15.747 84.7698 15.878V27.0398C84.7698 27.1708 84.7137 27.2887 84.6015 27.3936C84.5173 27.4722 84.4051 27.5115 84.2648 27.5115H80.3925C80.2522 27.5115 80.1259 27.4722 80.0137 27.3936C79.9295 27.2887 79.8874 27.1708 79.8874 27.0398V0.471566C79.8874 0.340559 79.9295 0.235753 80.0137 0.157148C80.1259 0.0523419 80.2522 -6.10352e-05 80.3925 -6.10352e-05H88.3054C89.7926 -6.10352e-05 91.0974 0.340558 92.2198 1.0218C93.3703 1.67683 94.2542 2.62008 94.8715 3.85155C95.5169 5.05682 95.8396 6.44549 95.8396 8.01758C95.8396 9.64207 95.5028 11.0438 94.8294 12.2229C94.1559 13.402 93.2159 14.2928 92.0093 14.8955C91.8971 14.9217 91.855 15.0003 91.8831 15.1313L96.0079 26.9612C96.036 27.0136 96.05 27.0791 96.05 27.1577C96.05 27.3936 95.8957 27.5115 95.587 27.5115H91.5464ZM84.9803 3.93016C84.84 3.93016 84.7698 3.99566 84.7698 4.12667V11.9478C84.7698 12.0788 84.84 12.1443 84.9803 12.1443H87.5478C88.558 12.1443 89.3717 11.7775 89.989 11.0438C90.6344 10.3102 90.9571 9.31455 90.9571 8.05688C90.9571 6.79921 90.6344 5.80356 89.989 5.06992C89.3717 4.31008 88.558 3.93016 87.5478 3.93016H84.9803Z" fill="#324158"/>
<defs>
<linearGradient id="paint0_linear_3152_4869" x1="60.3965" y1="7.52801" x2="76.4319" y2="8.56108" gradientUnits="userSpaceOnUse">
<stop stopColor="#30C5D2"/>
<stop offset="1" stopColor="#471069"/>
</linearGradient>
<linearGradient id="paint1_linear_3152_4869" x1="60.3965" y1="7.52801" x2="76.4319" y2="8.56108" gradientUnits="userSpaceOnUse">
<stop stopColor="#30C5D2"/>
<stop offset="1" stopColor="#471069"/>
</linearGradient>
<linearGradient id="paint2_linear_3152_4869" x1="60.3965" y1="7.52801" x2="76.4319" y2="8.56108" gradientUnits="userSpaceOnUse">
<stop stopColor="#30C5D2"/>
<stop offset="1" stopColor="#471069"/>
</linearGradient>
<linearGradient id="paint3_linear_3152_4869" x1="60.3965" y1="7.52801" x2="76.4319" y2="8.56108" gradientUnits="userSpaceOnUse">
<stop stopColor="#30C5D2"/>
<stop offset="1" stopColor="#471069"/>
</linearGradient>
<linearGradient id="paint4_linear_3152_4869" x1="60.3965" y1="7.52801" x2="76.4319" y2="8.56108" gradientUnits="userSpaceOnUse">
<stop stopColor="#30C5D2"/>
<stop offset="1" stopColor="#471069"/>
</linearGradient>
<linearGradient id="paint5_linear_3152_4869" x1="60.3965" y1="7.52801" x2="76.4319" y2="8.56108" gradientUnits="userSpaceOnUse">
<stop stopColor="#30C5D2"/>
<stop offset="1" stopColor="#471069"/>
</linearGradient>
<linearGradient id="paint6_linear_3152_4869" x1="60.3965" y1="7.52801" x2="76.4319" y2="8.56108" gradientUnits="userSpaceOnUse">
<stop stopColor="#30C5D2"/>
<stop offset="1" stopColor="#471069"/>
</linearGradient>
<linearGradient id="paint7_linear_3152_4869" x1="60.3965" y1="7.52801" x2="76.4319" y2="8.56108" gradientUnits="userSpaceOnUse">
<stop stopColor="#30C5D2"/>
<stop offset="1" stopColor="#471069"/>
</linearGradient>
<linearGradient id="paint8_linear_3152_4869" x1="60.3965" y1="7.52801" x2="76.4319" y2="8.56108" gradientUnits="userSpaceOnUse">
<stop stopColor="#30C5D2"/>
<stop offset="1" stopColor="#471069"/>
</linearGradient>
<linearGradient id="paint9_linear_3152_4869" x1="60.3965" y1="7.52801" x2="76.4319" y2="8.56108" gradientUnits="userSpaceOnUse">
<stop stopColor="#30C5D2"/>
<stop offset="1" stopColor="#471069"/>
</linearGradient>
<linearGradient id="paint10_linear_3152_4869" x1="60.3965" y1="7.52801" x2="76.4319" y2="8.56108" gradientUnits="userSpaceOnUse">
<stop stopColor="#30C5D2"/>
<stop offset="1" stopColor="#471069"/>
</linearGradient>
<linearGradient id="paint11_linear_3152_4869" x1="60.3965" y1="7.52801" x2="76.4319" y2="8.56108" gradientUnits="userSpaceOnUse">
<stop stopColor="#30C5D2"/>
<stop offset="1" stopColor="#471069"/>
</linearGradient>
<linearGradient id="paint12_linear_3152_4869" x1="60.3965" y1="7.52801" x2="76.4319" y2="8.56108" gradientUnits="userSpaceOnUse">
<stop stopColor="#30C5D2"/>
<stop offset="1" stopColor="#471069"/>
</linearGradient>
</defs>
</svg>
