<svg width="106" height="21" viewBox="0 0 106 21" fill="none" xmlns="http://www.w3.org/2000/svg">
<path d="M31.6454 19.7891C31.4272 19.7891 31.2983 19.6873 31.2587 19.4836L27.0053 0.708712L26.9756 0.597618C26.9756 0.430976 27.0846 0.347656 27.3028 0.347656H30.3069C30.5448 0.347656 30.6737 0.449493 30.6936 0.653166L33.1623 14.0122C33.1821 14.0678 33.2119 14.0956 33.2515 14.0956C33.2912 14.0956 33.3209 14.0678 33.3408 14.0122L35.75 0.653166C35.7698 0.449493 35.8987 0.347656 36.1367 0.347656H39.0516C39.3093 0.347656 39.4085 0.468008 39.349 0.708712L35.0659 19.4836C35.0262 19.6873 34.8973 19.7891 34.6792 19.7891H31.6454Z" fill="white"/>
<path d="M19.2768 20.0108C17.5715 20.0108 16.1933 19.5294 15.1424 18.5666C14.1113 17.6038 13.5957 16.3262 13.5957 14.7339V5.40197C13.5957 3.80962 14.1113 2.53204 15.1424 1.56922C16.1933 0.606408 17.5715 0.125 19.2768 0.125C20.9821 0.125 22.3602 0.606408 23.4112 1.56922C24.4621 2.53204 24.9876 3.80962 24.9876 5.40197V14.7339C24.9876 16.3262 24.4621 17.6038 23.4112 18.5666C22.3602 19.5294 20.9821 20.0108 19.2768 20.0108ZM19.2768 17.2335C19.951 17.2335 20.4963 17.0206 20.9127 16.5947C21.3291 16.1503 21.5373 15.5763 21.5373 14.8727V5.2631C21.5373 4.55951 21.3291 3.99478 20.9127 3.56892C20.4963 3.12454 19.951 2.90235 19.2768 2.90235C18.6026 2.90235 18.0573 3.12454 17.6409 3.56892C17.2443 3.99478 17.046 4.55951 17.046 5.2631V14.8727C17.046 15.5763 17.2443 16.1503 17.6409 16.5947C18.0573 17.0206 18.6026 17.2335 19.2768 17.2335Z" fill="white"/>
<path d="M5.59183 20.0108C3.90635 20.0108 2.54805 19.5387 1.51693 18.5944C0.505644 17.6316 0 16.3633 0 14.7894V5.31865C0 3.7263 0.505644 2.46723 1.51693 1.54145C2.54805 0.59715 3.90635 0.125 5.59183 0.125C7.29714 0.125 8.66536 0.59715 9.69648 1.54145C10.7276 2.46723 11.2432 3.7263 11.2432 5.31865V5.65193C11.2432 5.74451 11.2035 5.82783 11.1242 5.9019C11.0647 5.97596 10.9854 6.01299 10.8862 6.01299L8.12006 6.12408C7.88211 6.12408 7.76313 6.01299 7.76313 5.7908V5.09646C7.76313 4.44841 7.56484 3.92072 7.16825 3.51337C6.77167 3.10603 6.2462 2.90235 5.59183 2.90235C4.9573 2.90235 4.44174 3.10603 4.04516 3.51337C3.64857 3.92072 3.45028 4.44841 3.45028 5.09646V15.0394C3.45028 15.6874 3.64857 16.2151 4.04516 16.6225C4.44174 17.0298 4.9573 17.2335 5.59183 17.2335C6.2462 17.2335 6.77167 17.0298 7.16825 16.6225C7.56484 16.2151 7.76313 15.6874 7.76313 15.0394V14.345C7.76313 14.2525 7.79287 14.1784 7.85236 14.1229C7.93168 14.0488 8.02091 14.0118 8.12006 14.0118L10.8862 14.1229C10.9854 14.1229 11.0647 14.1599 11.1242 14.234C11.2035 14.2895 11.2432 14.3636 11.2432 14.4561V14.7894C11.2432 16.3633 10.7276 17.6316 9.69648 18.5944C8.66536 19.5387 7.29714 20.0108 5.59183 20.0108Z" fill="white"/>
<path d="M42.6797 0.125H45.389V1.30168H42.6797V0.125Z" fill="white"/>
<path d="M42.6797 2.36069H45.641V3.5962H42.6797V2.36069Z" fill="url(#paint0_linear_4060_1352)"/>
<path d="M46.5231 2.36069H49.5475V3.5962H46.5231V2.36069Z" fill="url(#paint1_linear_4060_1352)"/>
<path d="M50.1776 2.36069H53.1389V3.5962H50.1776V2.36069Z" fill="url(#paint2_linear_4060_1352)"/>
<path d="M50.0516 4.77288H53.0129V6.00839H50.0516V4.77288Z" fill="url(#paint3_linear_4060_1352)"/>
<path d="M45.263 7.0674H48.2244V8.42058H45.263V7.0674Z" fill="url(#paint4_linear_4060_1352)"/>
<path d="M46.0191 9.47958H49.9256V11.1858H46.0191V9.47958Z" fill="white"/>
<path d="M43.1837 12.7154H49.9256V14.7746H43.1837V12.7154Z" fill="url(#paint5_linear_4060_1352)"/>
<path d="M45.515 15.8925H48.3504V17.0692H45.515V15.8925Z" fill="url(#paint6_linear_4060_1352)"/>
<path d="M43.1837 18.6577H45.389V19.599H43.1837V18.6577Z" fill="white"/>
<path d="M47.9723 18.6577H50.1776V19.599H47.9723V18.6577Z" fill="white"/>
<path d="M50.8077 18.6577H53.0129V19.599H50.8077V18.6577Z" fill="white"/>
<path d="M48.2244 0.125H50.9337V1.30168H48.2244V0.125Z" fill="white"/>
<path d="M47.5943 0.772173C47.5943 1.1296 47.2699 1.41935 46.8697 1.41935C46.4695 1.41935 46.1451 1.1296 46.1451 0.772173C46.1451 0.414749 46.4695 0.125 46.8697 0.125C47.2699 0.125 47.5943 0.414749 47.5943 0.772173Z" fill="white"/>
<path d="M53.1389 0.772173C53.1389 1.1296 52.8145 1.41935 52.4144 1.41935C52.0142 1.41935 51.6898 1.1296 51.6898 0.772173C51.6898 0.414749 52.0142 0.125 52.4144 0.125C52.8145 0.125 53.1389 0.414749 53.1389 0.772173Z" fill="white"/>
<path d="M44.2549 5.3318C44.2549 5.70547 43.9305 6.00839 43.5303 6.00839C43.1301 6.00839 42.8057 5.70547 42.8057 5.3318C42.8057 4.95813 43.1301 4.65521 43.5303 4.65521C43.9305 4.65521 44.2549 4.95813 44.2549 5.3318Z" fill="url(#paint7_linear_4060_1352)"/>
<path d="M46.6492 5.3318C46.6492 5.70547 46.3389 6.00839 45.9561 6.00839C45.5733 6.00839 45.263 5.70547 45.263 5.3318C45.263 4.95813 45.5733 4.65521 45.9561 4.65521C46.3389 4.65521 46.6492 4.95813 46.6492 5.3318Z" fill="url(#paint8_linear_4060_1352)"/>
<path d="M49.1065 5.3318C49.1065 5.70547 48.7962 6.00839 48.4134 6.00839C48.0306 6.00839 47.7203 5.70547 47.7203 5.3318C47.7203 4.95813 48.0306 4.65521 48.4134 4.65521C48.7962 4.65521 49.1065 4.95813 49.1065 5.3318Z" fill="url(#paint9_linear_4060_1352)"/>
<path d="M44.2549 7.74399C44.2549 8.11766 43.9305 8.42058 43.5303 8.42058C43.1301 8.42058 42.8057 8.11766 42.8057 7.74399C42.8057 7.37032 43.1301 7.0674 43.5303 7.0674C43.9305 7.0674 44.2549 7.37032 44.2549 7.74399Z" fill="url(#paint10_linear_4060_1352)"/>
<path d="M50.6816 7.74399C50.6816 8.11766 50.3572 8.42058 49.9571 8.42058C49.5569 8.42058 49.2325 8.11766 49.2325 7.74399C49.2325 7.37032 49.5569 7.0674 49.9571 7.0674C50.3572 7.0674 50.6816 7.37032 50.6816 7.74399Z" fill="url(#paint11_linear_4060_1352)"/>
<path d="M53.0129 7.74399C53.0129 8.11766 52.6885 8.42058 52.2883 8.42058C51.8882 8.42058 51.5638 8.11766 51.5638 7.74399C51.5638 7.37032 51.8882 7.0674 52.2883 7.0674C52.6885 7.0674 53.0129 7.37032 53.0129 7.74399Z" fill="url(#paint12_linear_4060_1352)"/>
<path d="M44.6329 10.3327C44.6329 10.8038 44.2239 11.1858 43.7193 11.1858C43.2147 11.1858 42.8057 10.8038 42.8057 10.3327C42.8057 9.86153 43.2147 9.47958 43.7193 9.47958C44.2239 9.47958 44.6329 9.86153 44.6329 10.3327Z" fill="white"/>
<path d="M53.0129 10.3327C53.0129 10.8038 52.6039 11.1858 52.0993 11.1858C51.5947 11.1858 51.1857 10.8038 51.1857 10.3327C51.1857 9.86153 51.5947 9.47958 52.0993 9.47958C52.6039 9.47958 53.0129 9.86153 53.0129 10.3327Z" fill="white"/>
<path d="M44.5069 16.5396C44.5069 16.8971 44.1825 17.1868 43.7823 17.1868C43.3821 17.1868 43.0577 16.8971 43.0577 16.5396C43.0577 16.1822 43.3821 15.8925 43.7823 15.8925C44.1825 15.8925 44.5069 16.1822 44.5069 16.5396Z" fill="url(#paint13_linear_4060_1352)"/>
<path d="M50.6816 16.5396C50.6816 16.8971 50.3572 17.1868 49.9571 17.1868C49.5569 17.1868 49.2325 16.8971 49.2325 16.5396C49.2325 16.1822 49.5569 15.8925 49.9571 15.8925C50.3572 15.8925 50.6816 16.1822 50.6816 16.5396Z" fill="url(#paint14_linear_4060_1352)"/>
<path d="M53.0129 16.5396C53.0129 16.8971 52.6885 17.1868 52.2883 17.1868C51.8882 17.1868 51.5638 16.8971 51.5638 16.5396C51.5638 16.1822 51.8882 15.8925 52.2883 15.8925C52.6885 15.8925 53.0129 16.1822 53.0129 16.5396Z" fill="url(#paint15_linear_4060_1352)"/>
<path d="M47.2162 19.1872C47.2162 19.4796 46.9482 19.7167 46.6177 19.7167C46.2871 19.7167 46.0191 19.4796 46.0191 19.1872C46.0191 18.8947 46.2871 18.6577 46.6177 18.6577C46.9482 18.6577 47.2162 18.8947 47.2162 19.1872Z" fill="white"/>
<path d="M98.7188 19.5387C98.6196 19.5387 98.5304 19.5109 98.4511 19.4554C98.3916 19.3813 98.3618 19.298 98.3618 19.2054V11.6232L98.3321 11.4566L94.1977 0.51383C94.1779 0.476799 94.168 0.430509 94.168 0.374961C94.168 0.20832 94.277 0.125 94.4952 0.125H97.3506C97.5687 0.125 97.7075 0.217578 97.767 0.402734L99.9978 7.54053C100.018 7.59608 100.047 7.62385 100.087 7.62385C100.127 7.62385 100.156 7.59608 100.176 7.54053L102.407 0.402734C102.466 0.217578 102.605 0.125 102.823 0.125H105.679C105.798 0.125 105.887 0.162031 105.947 0.236094C106.006 0.291642 106.016 0.38422 105.976 0.51383L101.842 11.4566L101.812 11.6232V19.2054C101.812 19.298 101.772 19.3813 101.693 19.4554C101.634 19.5109 101.554 19.5387 101.455 19.5387H98.7188Z" fill="white"/>
<path d="M83.854 19.5665C83.7548 19.5665 83.6656 19.5387 83.5863 19.4832C83.5268 19.4091 83.4971 19.3258 83.4971 19.2332V0.458283C83.4971 0.365705 83.5268 0.291642 83.5863 0.236094C83.6656 0.162031 83.7548 0.125 83.854 0.125H86.5904C86.6896 0.125 86.7689 0.162031 86.8284 0.236094C86.9077 0.291642 86.9473 0.365705 86.9473 0.458283V16.6503C86.9473 16.7428 86.9969 16.7891 87.0961 16.7891H93.5207C93.6199 16.7891 93.6992 16.8262 93.7587 16.9002C93.838 16.9558 93.8777 17.0298 93.8777 17.1224V19.2332C93.8777 19.3258 93.838 19.4091 93.7587 19.4832C93.6992 19.5387 93.6199 19.5665 93.5207 19.5665H83.854Z" fill="white"/>
<path d="M80.842 0.125C80.9411 0.125 81.0204 0.162031 81.0799 0.236094C81.1593 0.291642 81.1989 0.365705 81.1989 0.458283V2.56907C81.1989 2.66165 81.1593 2.74497 81.0799 2.81903C81.0204 2.87458 80.9411 2.90235 80.842 2.90235H77.0645C76.9654 2.90235 76.9158 2.94864 76.9158 3.04122V19.2332C76.9158 19.3258 76.8761 19.4091 76.7968 19.4832C76.7373 19.5387 76.658 19.5665 76.5589 19.5665H73.8224C73.7233 19.5665 73.6341 19.5387 73.5548 19.4832C73.4953 19.4091 73.4655 19.3258 73.4655 19.2332V3.04122C73.4655 2.94864 73.416 2.90235 73.3168 2.90235H69.7476C69.6484 2.90235 69.5592 2.87458 69.4799 2.81903C69.4204 2.74497 69.3906 2.66165 69.3906 2.56907V0.458283C69.3906 0.365705 69.4204 0.291642 69.4799 0.236094C69.5592 0.162031 69.6484 0.125 69.7476 0.125H80.842Z" fill="white"/>
<path d="M64.6926 19.5665C64.4944 19.5665 64.3655 19.4739 64.306 19.2887L61.7778 11.3177C61.7381 11.2437 61.6885 11.2066 61.629 11.2066H60.0526C59.9535 11.2066 59.9039 11.2529 59.9039 11.3455V19.2332C59.9039 19.3258 59.8642 19.4091 59.7849 19.4832C59.7254 19.5387 59.6461 19.5665 59.547 19.5665H56.8105C56.7114 19.5665 56.6222 19.5387 56.5428 19.4832C56.4834 19.4091 56.4536 19.3258 56.4536 19.2332V0.458283C56.4536 0.365705 56.4834 0.291642 56.5428 0.236094C56.6222 0.162031 56.7114 0.125 56.8105 0.125H62.4024C63.4533 0.125 64.3754 0.365704 65.1685 0.847112C65.9815 1.31 66.6062 1.97657 67.0424 2.84681C67.4985 3.69853 67.7265 4.67986 67.7265 5.7908C67.7265 6.93877 67.4886 7.92936 67.0127 8.76257C66.5368 9.59578 65.8725 10.2253 65.0198 10.6512C64.9405 10.6697 64.9108 10.7252 64.9306 10.8178L67.8455 19.1776C67.8653 19.2147 67.8752 19.261 67.8752 19.3165C67.8752 19.4832 67.7662 19.5665 67.548 19.5665H64.6926ZM60.0526 2.90235C59.9535 2.90235 59.9039 2.94864 59.9039 3.04122V8.56815C59.9039 8.66073 59.9535 8.70702 60.0526 8.70702H61.867C62.5808 8.70702 63.1559 8.4478 63.5921 7.92936C64.0482 7.41092 64.2762 6.70733 64.2762 5.81857C64.2762 4.92982 64.0482 4.22622 63.5921 3.70779C63.1559 3.17083 62.5808 2.90235 61.867 2.90235H60.0526Z" fill="white"/>
<defs>
<linearGradient id="paint0_linear_4060_1352" x1="42.6797" y1="5.44484" x2="54.0114" y2="6.17488" gradientUnits="userSpaceOnUse">
<stop stop-color="#30C5D2"/>
<stop offset="1" stop-color="#471069"/>
</linearGradient>
<linearGradient id="paint1_linear_4060_1352" x1="42.6797" y1="5.44484" x2="54.0114" y2="6.17488" gradientUnits="userSpaceOnUse">
<stop stop-color="#30C5D2"/>
<stop offset="1" stop-color="#471069"/>
</linearGradient>
<linearGradient id="paint2_linear_4060_1352" x1="42.6797" y1="5.44484" x2="54.0114" y2="6.17488" gradientUnits="userSpaceOnUse">
<stop stop-color="#30C5D2"/>
<stop offset="1" stop-color="#471069"/>
</linearGradient>
<linearGradient id="paint3_linear_4060_1352" x1="42.6797" y1="5.44484" x2="54.0114" y2="6.17488" gradientUnits="userSpaceOnUse">
<stop stop-color="#30C5D2"/>
<stop offset="1" stop-color="#471069"/>
</linearGradient>
<linearGradient id="paint4_linear_4060_1352" x1="42.6797" y1="5.44484" x2="54.0114" y2="6.17488" gradientUnits="userSpaceOnUse">
<stop stop-color="#30C5D2"/>
<stop offset="1" stop-color="#471069"/>
</linearGradient>
<linearGradient id="paint5_linear_4060_1352" x1="42.6797" y1="5.44484" x2="54.0114" y2="6.17488" gradientUnits="userSpaceOnUse">
<stop stop-color="#30C5D2"/>
<stop offset="1" stop-color="#471069"/>
</linearGradient>
<linearGradient id="paint6_linear_4060_1352" x1="42.6797" y1="5.44484" x2="54.0114" y2="6.17488" gradientUnits="userSpaceOnUse">
<stop stop-color="#30C5D2"/>
<stop offset="1" stop-color="#471069"/>
</linearGradient>
<linearGradient id="paint7_linear_4060_1352" x1="42.6797" y1="5.44484" x2="54.0114" y2="6.17488" gradientUnits="userSpaceOnUse">
<stop stop-color="#30C5D2"/>
<stop offset="1" stop-color="#471069"/>
</linearGradient>
<linearGradient id="paint8_linear_4060_1352" x1="42.6797" y1="5.44484" x2="54.0114" y2="6.17488" gradientUnits="userSpaceOnUse">
<stop stop-color="#30C5D2"/>
<stop offset="1" stop-color="#471069"/>
</linearGradient>
<linearGradient id="paint9_linear_4060_1352" x1="42.6797" y1="5.44484" x2="54.0114" y2="6.17488" gradientUnits="userSpaceOnUse">
<stop stop-color="#30C5D2"/>
<stop offset="1" stop-color="#471069"/>
</linearGradient>
<linearGradient id="paint10_linear_4060_1352" x1="42.6797" y1="5.44484" x2="54.0114" y2="6.17488" gradientUnits="userSpaceOnUse">
<stop stop-color="#30C5D2"/>
<stop offset="1" stop-color="#471069"/>
</linearGradient>
<linearGradient id="paint11_linear_4060_1352" x1="42.6797" y1="5.44484" x2="54.0114" y2="6.17488" gradientUnits="userSpaceOnUse">
<stop stop-color="#30C5D2"/>
<stop offset="1" stop-color="#471069"/>
</linearGradient>
<linearGradient id="paint12_linear_4060_1352" x1="42.6797" y1="5.44484" x2="54.0114" y2="6.17488" gradientUnits="userSpaceOnUse">
<stop stop-color="#30C5D2"/>
<stop offset="1" stop-color="#471069"/>
</linearGradient>
<linearGradient id="paint13_linear_4060_1352" x1="42.6797" y1="5.44484" x2="54.0114" y2="6.17488" gradientUnits="userSpaceOnUse">
<stop stop-color="#30C5D2"/>
<stop offset="1" stop-color="#471069"/>
</linearGradient>
<linearGradient id="paint14_linear_4060_1352" x1="42.6797" y1="5.44484" x2="54.0114" y2="6.17488" gradientUnits="userSpaceOnUse">
<stop stop-color="#30C5D2"/>
<stop offset="1" stop-color="#471069"/>
</linearGradient>
<linearGradient id="paint15_linear_4060_1352" x1="42.6797" y1="5.44484" x2="54.0114" y2="6.17488" gradientUnits="userSpaceOnUse">
<stop stop-color="#30C5D2"/>
<stop offset="1" stop-color="#471069"/>
</linearGradient>
</defs>
</svg>
