<svg width="74" height="73" viewBox="0 0 74 73" fill="none" xmlns="http://www.w3.org/2000/svg">
<path d="M22.0308 64.6503C26.638 67.1046 31.7797 68.384 36.9999 68.3751C54.604 68.3751 68.8749 54.1042 68.8749 36.5001C68.8749 18.896 54.604 4.6251 36.9999 4.6251C19.3958 4.6251 5.1249 18.896 5.1249 36.5001C5.1249 41.9189 6.47579 47.0158 8.85579 51.4783C9.41108 52.5179 9.54166 53.7323 9.22008 54.8662L5.47401 68.0321L18.6429 64.289C19.7764 63.9665 20.9908 64.096 22.0308 64.6503ZM36.9999 72.9287C31.032 72.9372 25.1543 71.4732 19.8876 68.6665L5.40722 72.786C4.7572 72.9706 4.06966 72.9784 3.41565 72.8084C2.76165 72.6384 2.1649 72.2968 1.68708 71.819C1.20926 71.3412 0.867699 70.7444 0.697699 70.0904C0.527698 69.4364 0.535424 68.7489 0.720076 68.0989L4.8365 53.6185C2.02783 48.3503 0.562782 42.4703 0.571326 36.5001C0.571326 16.3824 16.8822 0.0715332 36.9999 0.0715332C57.1176 0.0715332 73.4285 16.3824 73.4285 36.5001C73.4285 56.6178 57.1176 72.9287 36.9999 72.9287ZM23.3392 29.6697C23.3392 29.0659 23.5791 28.4868 24.006 28.0598C24.433 27.6328 25.0121 27.393 25.616 27.393H48.3838C48.9877 27.393 49.5668 27.6328 49.9938 28.0598C50.4207 28.4868 50.6606 29.0659 50.6606 29.6697C50.6606 30.2736 50.4207 30.8527 49.9938 31.2797C49.5668 31.7067 48.9877 31.9465 48.3838 31.9465H25.616C25.0121 31.9465 24.433 31.7067 24.006 31.2797C23.5791 30.8527 23.3392 30.2736 23.3392 29.6697ZM23.3392 43.3305C23.3392 42.7266 23.5791 42.1475 24.006 41.7205C24.433 41.2936 25.0121 41.0537 25.616 41.0537H39.2767C39.8805 41.0537 40.4596 41.2936 40.8866 41.7205C41.3136 42.1475 41.5535 42.7266 41.5535 43.3305C41.5535 43.9343 41.3136 44.5134 40.8866 44.9404C40.4596 45.3674 39.8805 45.6073 39.2767 45.6073H25.616C25.0121 45.6073 24.433 45.3674 24.006 44.9404C23.5791 44.5134 23.3392 43.9343 23.3392 43.3305Z" fill="#585A5D"/>
</svg>
