<svg width="343" height="248" viewBox="0 0 343 248" fill="none" xmlns="http://www.w3.org/2000/svg">
<circle cx="176" cy="120" r="120" fill="#EAECF0"/>
<circle cx="50" cy="30" r="12" fill="#F2F4F7"/>
<circle cx="308" cy="189" r="9" fill="#F2F4F7"/>
<circle cx="48.5" cy="207" r="15" fill="#F2F4F7"/>
<circle cx="326" cy="57" r="15" fill="#F2F4F7"/>
<circle cx="297.5" cy="16.5" r="10.5" fill="#F2F4F7"/>
<g filter="url(#filter0_dd_2824_6421)">
<path d="M95.1186 186.322L173.796 149.634C177.746 147.792 179.455 143.097 177.613 139.146L131.149 39.5055L99.6863 28.0538L35.3143 58.071C31.3641 59.913 29.655 64.6085 31.497 68.5587L84.6309 182.505C86.4729 186.455 91.1684 188.164 95.1186 186.322Z" fill="url(#paint0_linear_2824_6421)"/>
<path d="M99.6872 28.0547L131.15 39.5063L109.693 49.512L99.6872 28.0547Z" fill="#D0D5DD"/>
</g>
<g filter="url(#filter1_dd_2824_6421)">
<path d="M132.728 159.509H219.538C223.897 159.509 227.43 155.976 227.43 151.617V41.6756L203.754 18H132.728C128.369 18 124.836 21.5333 124.836 25.8918V151.617C124.836 155.976 128.369 159.509 132.728 159.509Z" fill="url(#paint1_linear_2824_6421)"/>
<path d="M203.756 18L227.431 41.6756H203.756V18Z" fill="#D0D5DD"/>
</g>
<g filter="url(#filter2_dd_2824_6421)">
<path d="M177.369 149.586L256.046 186.274C259.996 188.116 264.691 186.407 266.533 182.456L312.997 82.8155L301.545 51.3524L237.173 21.3352C233.223 19.4932 228.527 21.2022 226.685 25.1524L173.551 139.098C171.709 143.049 173.418 147.744 177.369 149.586Z" fill="url(#paint2_linear_2824_6421)"/>
<path d="M301.546 51.3516L312.998 82.8146L291.54 72.8089L301.546 51.3516Z" fill="#D0D5DD"/>
</g>
<g filter="url(#filter3_b_2824_6421)">
<rect x="134" y="132" width="84" height="84" rx="42" fill="#C29901"/>
<path d="M183.5 166.5L168.5 181.5M168.5 166.5L183.5 181.5" stroke="white" strokeWidth="2.5" strokeLinecap="round" strokeLinejoin="round"/>
</g>
<defs>
<filter id="filter0_dd_2824_6421" x="-1.83819" y="18.0488" width="212.786" height="231.607" filterUnits="userSpaceOnUse" color-interpolation-filters="sRGB">
<feFlood flood-opacity="0" result="BackgroundImageFix"/>
<feColorMatrix in="SourceAlpha" type="matrix" values="0 0 0 0 0 0 0 0 0 0 0 0 0 0 0 0 0 0 127 0" result="hardAlpha"/>
<feMorphology radius="6" operator="erode" in="SourceAlpha" result="effect1_dropShadow_2824_6421"/>
<feOffset dy="12"/>
<feGaussianBlur stdDeviation="6"/>
<feColorMatrix type="matrix" values="0 0 0 0 0.0627451 0 0 0 0 0.0941176 0 0 0 0 0.156863 0 0 0 0.03 0"/>
<feBlend mode="normal" in2="BackgroundImageFix" result="effect1_dropShadow_2824_6421"/>
<feColorMatrix in="SourceAlpha" type="matrix" values="0 0 0 0 0 0 0 0 0 0 0 0 0 0 0 0 0 0 127 0" result="hardAlpha"/>
<feMorphology radius="6" operator="erode" in="SourceAlpha" result="effect2_dropShadow_2824_6421"/>
<feOffset dy="30"/>
<feGaussianBlur stdDeviation="18"/>
<feColorMatrix type="matrix" values="0 0 0 0 0.0627451 0 0 0 0 0.0941176 0 0 0 0 0.156863 0 0 0 0.08 0"/>
<feBlend mode="normal" in2="effect1_dropShadow_2824_6421" result="effect2_dropShadow_2824_6421"/>
<feBlend mode="normal" in="SourceGraphic" in2="effect2_dropShadow_2824_6421" result="shape"/>
</filter>
<filter id="filter1_dd_2824_6421" x="94.8359" y="18" width="162.595" height="201.51" filterUnits="userSpaceOnUse" color-interpolation-filters="sRGB">
<feFlood flood-opacity="0" result="BackgroundImageFix"/>
<feColorMatrix in="SourceAlpha" type="matrix" values="0 0 0 0 0 0 0 0 0 0 0 0 0 0 0 0 0 0 127 0" result="hardAlpha"/>
<feMorphology radius="6" operator="erode" in="SourceAlpha" result="effect1_dropShadow_2824_6421"/>
<feOffset dy="12"/>
<feGaussianBlur stdDeviation="6"/>
<feColorMatrix type="matrix" values="0 0 0 0 0.0627451 0 0 0 0 0.0941176 0 0 0 0 0.156863 0 0 0 0.03 0"/>
<feBlend mode="normal" in2="BackgroundImageFix" result="effect1_dropShadow_2824_6421"/>
<feColorMatrix in="SourceAlpha" type="matrix" values="0 0 0 0 0 0 0 0 0 0 0 0 0 0 0 0 0 0 127 0" result="hardAlpha"/>
<feMorphology radius="6" operator="erode" in="SourceAlpha" result="effect2_dropShadow_2824_6421"/>
<feOffset dy="30"/>
<feGaussianBlur stdDeviation="18"/>
<feColorMatrix type="matrix" values="0 0 0 0 0.0627451 0 0 0 0 0.0941176 0 0 0 0 0.156863 0 0 0 0.08 0"/>
<feBlend mode="normal" in2="effect1_dropShadow_2824_6421" result="effect2_dropShadow_2824_6421"/>
<feBlend mode="normal" in="SourceGraphic" in2="effect2_dropShadow_2824_6421" result="shape"/>
</filter>
<filter id="filter2_dd_2824_6421" x="140.216" y="18" width="212.786" height="231.609" filterUnits="userSpaceOnUse" color-interpolation-filters="sRGB">
<feFlood flood-opacity="0" result="BackgroundImageFix"/>
<feColorMatrix in="SourceAlpha" type="matrix" values="0 0 0 0 0 0 0 0 0 0 0 0 0 0 0 0 0 0 127 0" result="hardAlpha"/>
<feMorphology radius="6" operator="erode" in="SourceAlpha" result="effect1_dropShadow_2824_6421"/>
<feOffset dy="12"/>
<feGaussianBlur stdDeviation="6"/>
<feColorMatrix type="matrix" values="0 0 0 0 0.0627451 0 0 0 0 0.0941176 0 0 0 0 0.156863 0 0 0 0.03 0"/>
<feBlend mode="normal" in2="BackgroundImageFix" result="effect1_dropShadow_2824_6421"/>
<feColorMatrix in="SourceAlpha" type="matrix" values="0 0 0 0 0 0 0 0 0 0 0 0 0 0 0 0 0 0 127 0" result="hardAlpha"/>
<feMorphology radius="6" operator="erode" in="SourceAlpha" result="effect2_dropShadow_2824_6421"/>
<feOffset dy="30"/>
<feGaussianBlur stdDeviation="18"/>
<feColorMatrix type="matrix" values="0 0 0 0 0.0627451 0 0 0 0 0.0941176 0 0 0 0 0.156863 0 0 0 0.08 0"/>
<feBlend mode="normal" in2="effect1_dropShadow_2824_6421" result="effect2_dropShadow_2824_6421"/>
<feBlend mode="normal" in="SourceGraphic" in2="effect2_dropShadow_2824_6421" result="shape"/>
</filter>
<filter id="filter3_b_2824_6421" x="122" y="120" width="108" height="108" filterUnits="userSpaceOnUse" color-interpolation-filters="sRGB">
<feFlood flood-opacity="0" result="BackgroundImageFix"/>
<feGaussianBlur in="BackgroundImageFix" stdDeviation="6"/>
<feComposite in2="SourceAlpha" operator="in" result="effect1_backgroundBlur_2824_6421"/>
<feBlend mode="normal" in="SourceGraphic" in2="effect1_backgroundBlur_2824_6421" result="shape"/>
</filter>
<linearGradient id="paint0_linear_2824_6421" x1="90.4963" y1="186.629" x2="27.797" y2="73.5146" gradientUnits="userSpaceOnUse">
<stop stopColor="#E4E7EC"/>
<stop offset="1" stopColor="#F9FAFB"/>
</linearGradient>
<linearGradient id="paint1_linear_2824_6421" x1="128.409" y1="157.834" x2="119.388" y2="28.8197" gradientUnits="userSpaceOnUse">
<stop stopColor="#E4E7EC"/>
<stop offset="1" stopColor="#F9FAFB"/>
</linearGradient>
<linearGradient id="paint2_linear_2824_6421" x1="174.162" y1="146.243" x2="220.51" y2="25.5036" gradientUnits="userSpaceOnUse">
<stop stopColor="#E4E7EC"/>
<stop offset="1" stopColor="#F9FAFB"/>
</linearGradient>
</defs>
</svg>
