<svg width="318" height="434" viewBox="0 0 318 434" fill="none" xmlns="http://www.w3.org/2000/svg">
<path d="M2.59844 375.3L169.398 205.5C177.398 196.7 183.998 188.9 189.198 182.1C194.398 174.9 197.998 168.3 199.998 162.3C202.398 155.9 203.598 149.3 203.598 142.5C203.598 127.3 198.598 115.3 188.598 106.5C178.998 97.7 166.198 93.3 150.198 93.3C134.998 93.3 121.198 97.7 108.798 106.5C96.3984 114.9 83.5984 129.1 70.3984 149.1L0.198438 86.7C17.3984 58.7 39.3984 37.5 66.1984 23.1C92.9984 8.29999 123.798 0.899991 158.598 0.899991C189.398 0.899991 215.998 6.49999 238.398 17.7C260.798 28.9 277.998 44.9 289.998 65.7C302.398 86.1 308.598 110.3 308.598 138.3C308.598 155.1 306.398 170.7 301.998 185.1C297.598 199.1 290.598 213.1 280.998 227.1C271.398 240.7 258.598 255.1 242.598 270.3L132.198 377.7L2.59844 375.3ZM2.59844 433.5V375.3L91.9984 344.1H317.598V433.5H2.59844Z" fill="#101217"/>
</svg>
