<svg width="20" height="20" viewBox="0 0 20 20" fill="none" xmlns="http://www.w3.org/2000/svg">
<path d="M4 3L12 2.5L16 6.5V17H4V3Z" fill="white"/>
<path d="M10.8333 7.50033H15.4166L10.8333 2.91699V7.50033ZM4.99992 1.66699H11.6666L16.6666 6.66699V16.667C16.6666 17.109 16.491 17.5329 16.1784 17.8455C15.8659 18.1581 15.4419 18.3337 14.9999 18.3337H4.99992C4.55789 18.3337 4.13397 18.1581 3.82141 17.8455C3.50885 17.5329 3.33325 17.109 3.33325 16.667V3.33366C3.33325 2.89163 3.50885 2.46771 3.82141 2.15515C4.13397 1.84259 4.55789 1.66699 4.99992 1.66699ZM9.10825 10.367C9.44992 11.117 9.88325 11.7337 10.3833 12.1587L10.7249 12.4253C9.99992 12.5587 8.99992 12.792 7.94159 13.2003L7.84992 13.2337L8.26659 12.367C8.64159 11.642 8.91659 10.9837 9.10825 10.367ZM14.5083 13.542C14.6583 13.392 14.7333 13.2003 14.7416 12.992C14.7666 12.8253 14.7249 12.667 14.6416 12.5337C14.3999 12.142 13.7749 11.9587 12.7416 11.9587L11.6666 12.017L10.9416 11.5337C10.4166 11.1003 9.94159 10.342 9.60825 9.40033L9.64158 9.28366C9.91658 8.17533 10.1749 6.83366 9.62492 6.28366C9.55764 6.21833 9.47807 6.16702 9.39081 6.13268C9.30355 6.09835 9.21034 6.08169 9.11658 6.08366H8.91658C8.60825 6.08366 8.33325 6.40866 8.25825 6.72533C7.94992 7.83366 8.13325 8.44199 8.44159 9.45033V9.45866C8.23325 10.192 7.96659 11.042 7.54159 11.9003L6.74159 13.4003L5.99992 13.8087C4.99992 14.4337 4.52492 15.1337 4.43325 15.5753C4.39992 15.7337 4.41659 15.8753 4.47492 16.0253L4.49992 16.067L4.89992 16.3253L5.26659 16.417C5.94159 16.417 6.70825 15.6253 7.74159 13.8587L7.89159 13.8003C8.74992 13.5253 9.81659 13.3337 11.2499 13.1753C12.1083 13.6003 13.1166 13.792 13.7499 13.792C14.1166 13.792 14.3666 13.7003 14.5083 13.542ZM14.1666 12.9503L14.2416 13.042C14.2333 13.1253 14.2083 13.1337 14.1666 13.1503H14.1333L13.9749 13.167C13.5916 13.167 12.9999 13.0087 12.3916 12.742C12.4666 12.6587 12.4999 12.6587 12.5833 12.6587C13.7499 12.6587 14.0833 12.867 14.1666 12.9503ZM6.52492 14.167C5.98325 15.1587 5.49159 15.7087 5.11659 15.8337C5.15825 15.517 5.53325 14.967 6.12492 14.4253L6.52492 14.167ZM9.04159 8.40866C8.84992 7.65866 8.84159 7.05033 8.98325 6.70033L9.04159 6.60033L9.16658 6.64199C9.30825 6.84199 9.32492 7.10866 9.24159 7.55866L9.21659 7.69199L9.08325 8.37533L9.04159 8.40866Z" fill="url(#paint0_linear_9666_17376)"/>
<defs>
<linearGradient id="paint0_linear_9666_17376" x1="3.33325" y1="10.0003" x2="16.6666" y2="10.0003" gradientUnits="userSpaceOnUse">
<stop stop-color="#F65468"/>
<stop offset="1" stop-color="#BC192D"/>
</linearGradient>
</defs>
</svg>
