<svg width="20" height="20" viewBox="0 0 20 20" fill="none" xmlns="http://www.w3.org/2000/svg">
<g filter="url(#filter0_ii_1794_10193)">
<path fillRule="evenodd" clipRule="evenodd" d="M4.85 1.6665C3.96634 1.6665 3.25 2.38285 3.25 3.2665V16.7332C3.25 17.6168 3.96634 18.3332 4.85 18.3332H15.15C16.0337 18.3332 16.75 17.6168 16.75 16.7332V3.2665C16.75 3.26297 16.75 3.25944 16.75 3.25591V5.83317L12.5833 1.6665H4.85Z" fill="#FA4E4E"/>
</g>
<path d="M12.7068 12.891C12.1444 12.8492 11.6029 12.6403 11.1655 12.2644C10.3116 12.4523 9.49917 12.7238 8.68687 13.058C8.04125 14.2067 7.43719 14.7915 6.91646 14.7915C6.81229 14.7915 6.6874 14.7706 6.60406 14.7079C6.3749 14.6036 6.25 14.3738 6.25 14.1441C6.25 13.9561 6.29167 13.434 8.27031 12.5776C8.72865 11.7422 9.0826 10.886 9.37427 9.98793C9.12427 9.48668 8.58281 8.25439 8.9576 7.62793C9.0826 7.39814 9.3326 7.27283 9.60344 7.29377C9.81167 7.29377 10.0199 7.39814 10.1449 7.56523C10.4157 7.94116 10.3949 8.73481 10.0407 9.90439C10.3741 10.5301 10.8107 11.0949 11.3321 11.5752C11.7696 11.4916 12.2069 11.429 12.6443 11.429C13.6232 11.4498 13.7691 11.9093 13.7482 12.1809C13.7482 12.891 13.0608 12.891 12.7068 12.891ZM6.8749 14.1857L6.9374 14.1649C7.22896 14.0605 7.45802 13.8517 7.62469 13.5801C7.31219 13.7054 7.06229 13.9143 6.8749 14.1859V14.1857ZM9.645 7.92033H9.5825C9.56167 7.92033 9.52 7.92033 9.49917 7.94116C9.41583 8.29616 9.47833 8.6721 9.62417 9.00627C9.74917 8.65127 9.74917 8.27533 9.645 7.92033ZM9.79083 10.9487L9.77 10.9903L9.74917 10.9695C9.56167 11.4499 9.35333 11.9302 9.12427 12.3897L9.16594 12.3689V12.4105C9.62911 12.2426 10.1021 12.1031 10.5823 11.9928L10.5615 11.972H10.624C10.3115 11.6587 10.0199 11.3037 9.79083 10.9487ZM12.6234 12.0555C12.4359 12.0555 12.2694 12.0555 12.0819 12.0972C12.2902 12.2017 12.4985 12.2435 12.7068 12.2644C12.8526 12.2852 12.9984 12.2644 13.1233 12.2226C13.1233 12.1599 13.04 12.0555 12.6234 12.0555Z" fill="white"/>
<path d="M16.3588 5.44287H12.9736L16.7497 9.21891V5.8335L16.3588 5.44287Z" fill="url(#paint0_linear_1794_10193)"/>
<path d="M14.1833 5.8335L16.75 5.8335L12.5833 1.66683L12.5833 4.2335C12.5833 5.11715 13.2997 5.8335 14.1833 5.8335Z" fill="#FDB8B8"/>
<defs>
<filter id="filter0_ii_1794_10193" x="3.25" y="1.5665" width="13.5" height="16.8665" filterUnits="userSpaceOnUse" color-interpolation-filters="sRGB">
<feFlood flood-opacity="0" result="BackgroundImageFix"/>
<feBlend mode="normal" in="SourceGraphic" in2="BackgroundImageFix" result="shape"/>
<feColorMatrix in="SourceAlpha" type="matrix" values="0 0 0 0 0 0 0 0 0 0 0 0 0 0 0 0 0 0 127 0" result="hardAlpha"/>
<feOffset dy="-0.2"/>
<feGaussianBlur stdDeviation="0.05"/>
<feComposite in2="hardAlpha" operator="arithmetic" k2="-1" k3="1"/>
<feColorMatrix type="matrix" values="0 0 0 0 0 0 0 0 0 0 0 0 0 0 0 0 0 0 0.3 0"/>
<feBlend mode="normal" in2="shape" result="effect1_innerShadow_1794_10193"/>
<feColorMatrix in="SourceAlpha" type="matrix" values="0 0 0 0 0 0 0 0 0 0 0 0 0 0 0 0 0 0 127 0" result="hardAlpha"/>
<feOffset dy="0.2"/>
<feGaussianBlur stdDeviation="0.05"/>
<feComposite in2="hardAlpha" operator="arithmetic" k2="-1" k3="1"/>
<feColorMatrix type="matrix" values="0 0 0 0 1 0 0 0 0 1 0 0 0 0 1 0 0 0 0.3 0"/>
<feBlend mode="normal" in2="effect1_innerShadow_1794_10193" result="effect2_innerShadow_1794_10193"/>
</filter>
<linearGradient id="paint0_linear_1794_10193" x1="13.82" y1="4.59652" x2="17.596" y2="8.37256" gradientUnits="userSpaceOnUse">
<stop stop-opacity="0.2"/>
<stop offset="1" stop-opacity="0"/>
</linearGradient>
</defs>
</svg>
