<svg width="236" height="236" viewBox="0 0 236 236" fill="none" xmlns="http://www.w3.org/2000/svg">
<path d="M112.476 200.517C110.525 200.386 108.599 200.189 106.699 199.929L103.012 226.926C102.377 226.839 101.744 226.747 101.113 226.65L105.267 199.721C101.409 199.125 97.6544 198.268 94.0177 197.17L86.1515 223.256C85.5389 223.072 84.9287 222.882 84.3209 222.687L92.6438 196.742C88.9564 195.559 85.3881 194.125 81.9561 192.462L70.0777 216.982C69.5021 216.703 68.9295 216.419 68.3598 216.131L80.6666 191.823C77.2214 190.078 73.9165 188.099 70.7714 185.906L55.1908 208.256C54.6656 207.89 54.1437 207.519 53.6254 207.144L69.5938 185.069C66.4661 182.806 63.5038 180.33 60.7275 177.662L41.8506 197.308C41.3891 196.864 40.9316 196.417 40.478 195.966L59.6932 176.651C56.9576 173.929 54.4132 171.02 52.0805 167.946L30.3774 184.416C29.9906 183.906 29.6082 183.393 29.2302 182.877L51.216 166.786C48.9419 163.679 46.8824 160.413 45.0567 157.012L21.0503 169.896C20.7477 169.333 20.4499 168.766 20.157 168.197L44.3848 155.734C42.6308 152.325 41.1098 148.786 39.8401 145.14L14.1084 154.095C13.8984 153.492 13.6935 152.887 13.4938 152.279L39.3788 143.777C38.1882 140.154 37.2434 136.427 36.5624 132.615L9.73991 137.403C9.62764 136.774 9.52075 136.144 9.41929 135.512L36.3219 131.197C35.7196 127.447 35.3711 123.612 35.2956 119.71L8.05336 120.232C8.04101 119.593 8.03416 118.954 8.03287 118.313L35.2802 118.264C35.2763 116.346 35.3384 114.411 35.469 112.461C35.5996 110.51 35.7961 108.584 36.0556 106.685L9.05901 102.991C9.14571 102.357 9.23777 101.724 9.33514 101.093L36.2638 105.253C36.859 101.396 37.7157 97.6424 38.8126 94.0066L12.7265 86.1314C12.9113 85.5189 13.1012 84.9087 13.2963 84.301L39.2402 92.633C40.4233 88.9467 41.8566 85.3794 43.5196 81.9485L19.0003 70.0595C19.2792 69.4841 19.563 68.9115 19.8515 68.3419L44.1585 80.6594C45.9031 77.2154 47.8823 73.9116 50.0752 70.7677L27.7263 55.1761C28.0925 54.6511 28.4632 54.1294 28.8383 53.6112L50.9116 69.5906C53.1745 66.4642 55.651 63.5032 58.319 60.7282L38.6758 41.8409C39.1193 41.3797 39.5667 40.9223 40.018 40.469L59.3304 59.6944C62.0521 56.9603 64.9616 54.4173 68.0357 52.0859L51.5682 30.3739C52.0778 29.9874 52.5909 29.6052 53.1074 29.2275L69.1956 51.222C72.3027 48.9494 75.5687 46.8913 78.9702 45.067L66.0884 21.0538C66.6521 20.7514 67.2187 20.4539 67.7881 20.1612L80.2488 44.3955C83.6581 42.643 87.1973 41.1234 90.8444 39.8549L81.8891 14.1188C82.4922 13.909 83.0975 13.7044 83.7051 13.5049L92.2075 39.3942C95.8305 38.2049 99.5581 37.2614 103.37 36.5815L98.5815 9.75661C99.2098 9.64455 99.8399 9.53787 100.472 9.43662L104.789 36.3414C108.539 35.7403 112.375 35.3928 116.278 35.3183L115.752 8.07518C116.39 8.06299 117.03 8.05631 117.67 8.05518L117.724 35.3032C119.642 35.2998 121.577 35.3623 123.528 35.4934C125.479 35.6244 127.405 35.8213 129.305 36.0812L132.992 9.08444C133.627 9.17126 134.26 9.26342 134.891 9.36088L130.737 36.2896C134.595 36.8855 138.35 37.7429 141.986 38.8402L149.852 12.7539C150.465 12.9388 151.075 13.1288 151.683 13.3239L143.36 39.268C147.048 40.4516 150.616 41.8853 154.048 43.5485L165.926 19.0284C166.502 19.3074 167.074 19.5911 167.644 19.8797L155.337 44.1875C158.783 45.9324 162.087 47.9118 165.233 50.1046L180.813 27.7541C181.338 28.1203 181.86 28.4909 182.379 28.866L166.41 50.9411C169.538 53.204 172.5 55.6805 175.276 58.3483L194.153 38.7027C194.615 39.1462 195.072 39.5936 195.526 40.0448L176.311 59.3597C179.046 62.0813 181.591 64.9907 183.923 68.0644L205.627 51.5943C206.013 52.104 206.396 52.6171 206.774 53.1335L184.788 69.2242C187.062 72.3312 189.122 75.597 190.947 78.998L214.954 66.1142C215.256 66.6779 215.554 67.2444 215.847 67.8138L191.619 80.2765C193.373 83.6855 194.894 87.2244 196.164 90.8709L221.896 81.915C222.106 82.518 222.31 83.1234 222.51 83.731L196.625 92.2339C197.816 95.8565 198.76 99.5836 199.441 103.395L226.264 98.6078C226.376 99.2362 226.483 99.8663 226.585 100.498L199.682 104.814C200.284 108.564 200.633 112.398 200.708 116.301L227.951 115.779C227.963 116.417 227.97 117.057 227.971 117.697L200.724 117.747C200.728 119.664 200.666 121.599 200.535 123.55C200.404 125.5 200.208 127.426 199.948 129.326L226.945 133.019C226.858 133.654 226.766 134.287 226.669 134.918L199.74 130.757C199.145 134.614 198.288 138.368 197.191 142.004L223.277 149.879C223.093 150.492 222.903 151.102 222.708 151.709L196.764 143.377C195.581 147.064 194.147 150.631 192.484 154.062L217.004 165.951C216.725 166.526 216.441 167.099 216.152 167.669L191.845 155.351C190.101 158.795 188.122 162.099 185.929 165.243L208.278 180.834C207.911 181.359 207.541 181.881 207.166 182.399L185.092 166.42C182.829 169.546 180.353 172.507 177.685 175.282L197.328 194.17C196.885 194.631 196.437 195.088 195.986 195.541L176.674 176.316C173.952 179.05 171.042 181.593 167.968 183.925L184.436 205.637C183.926 206.023 183.413 206.405 182.897 206.783L166.808 184.788C163.701 187.061 160.435 189.119 157.034 190.943L169.916 214.957C169.352 215.259 168.785 215.557 168.216 215.849L155.755 191.615C152.346 193.367 148.807 194.887 145.16 196.156L154.115 221.892C153.512 222.101 152.906 222.306 152.299 222.506L143.796 196.616C140.173 197.806 136.446 198.749 132.634 199.429L137.422 226.254C136.794 226.366 136.164 226.473 135.532 226.574L131.215 199.669C127.465 200.27 123.629 200.618 119.726 200.692L120.252 227.935C119.614 227.947 118.974 227.954 118.333 227.955L118.28 200.707C116.362 200.711 114.427 200.648 112.476 200.517Z" stroke="url(#paint0_angular_321_6801)" strokeWidth="54.4954" strokeDasharray="16.15 2.02"/>
<defs>
<radialGradient id="paint0_angular_321_6801" cx="0" cy="0" r="1" gradientUnits="userSpaceOnUse" gradientTransform="translate(118.002 118.005) rotate(3.84327) scale(109.967 109.944)">
<stop offset="0.32" stopColor="#A74859"/>
<stop offset="0.424549" stopColor="#1E2129"/>
<stop offset="0.4249" stopColor="#F65468"/>
<stop offset="0.424965" stopColor="#5989FD"/>
<stop offset="0.737474" stopColor="#5989FD"/>
<stop offset="0.737704" stopColor="#F65468"/>
<stop offset="0.737884" stopColor="#F65468"/>
<stop offset="0.738112" stopColor="#D44C5E"/>
<stop offset="0.898047" stopColor="#F65468"/>
</radialGradient>
</defs>
</svg>
