<svg width="25" height="24" viewBox="0 0 25 24" fill="none" xmlns="http://www.w3.org/2000/svg">
<circle cx="12.5" cy="12" r="12" fill="#006EB5"/>
<g filter="url(#filter0_d_5630_2406)">
<path fill-rule="evenodd" clip-rule="evenodd" d="M11.453 20.052C7.36599 19.5826 4.19238 16.1119 4.19238 11.8993C4.19238 7.36661 7.86661 3.69238 12.3993 3.69238C16.932 3.69238 20.6062 7.36661 20.6062 11.8993C20.6062 16.1316 17.9119 15.7836 15.6115 15.4857C14.2836 15.3142 13.0878 15.1599 12.6143 15.9108C12.2901 16.4246 12.6406 17.0647 13.0698 17.4939C13.1973 17.6214 13.2984 17.7728 13.3674 17.9394C13.4364 18.106 13.4719 18.2845 13.4719 18.4648C13.4719 18.6451 13.4364 18.8237 13.3674 18.9902C13.2984 19.1568 13.1973 19.3082 13.0698 19.4357C12.6406 19.8649 12.0562 20.1218 11.453 20.052ZM11.6484 7.79583C11.6484 8.12232 11.5187 8.43544 11.2878 8.66631C11.0569 8.89717 10.7438 9.02687 10.4173 9.02687C10.0908 9.02687 9.77771 8.89717 9.54684 8.66631C9.31598 8.43544 9.18628 8.12232 9.18628 7.79583C9.18628 7.46934 9.31598 7.15622 9.54684 6.92536C9.77771 6.6945 10.0908 6.5648 10.4173 6.5648C10.7438 6.5648 11.0569 6.6945 11.2878 6.92536C11.5187 7.15622 11.6484 7.46934 11.6484 7.79583ZM7.88549 12.72C8.21198 12.72 8.5251 12.5903 8.75596 12.3594C8.98682 12.1285 9.11652 11.8154 9.11652 11.4889C9.11652 11.1624 8.98682 10.8493 8.75596 10.6185C8.5251 10.3876 8.21198 10.2579 7.88549 10.2579C7.559 10.2579 7.24588 10.3876 7.01501 10.6185C6.78415 10.8493 6.65445 11.1624 6.65445 11.4889C6.65445 11.8154 6.78415 12.1285 7.01501 12.3594C7.24588 12.5903 7.559 12.72 7.88549 12.72ZM16.9131 12.72C17.2396 12.72 17.5527 12.5903 17.7836 12.3594C18.0144 12.1285 18.1441 11.8154 18.1441 11.4889C18.1441 11.1624 18.0144 10.8493 17.7836 10.6185C17.5527 10.3876 17.2396 10.2579 16.9131 10.2579C16.5866 10.2579 16.2735 10.3876 16.0426 10.6185C15.8117 10.8493 15.682 11.1624 15.682 11.4889C15.682 11.8154 15.8117 12.1285 16.0426 12.3594C16.2735 12.5903 16.5866 12.72 16.9131 12.72ZM14.451 9.02687C14.6127 9.02687 14.7727 8.99503 14.9221 8.93316C15.0715 8.8713 15.2072 8.78062 15.3215 8.66631C15.4358 8.55199 15.5265 8.41629 15.5883 8.26693C15.6502 8.11757 15.682 7.95749 15.682 7.79583C15.682 7.63417 15.6502 7.47409 15.5883 7.32474C15.5265 7.17538 15.4358 7.03967 15.3215 6.92536C15.2072 6.81105 15.0715 6.72037 14.9221 6.6585C14.7727 6.59664 14.6127 6.5648 14.451 6.5648C14.1245 6.5648 13.8114 6.6945 13.5805 6.92536C13.3497 7.15622 13.22 7.46934 13.22 7.79583C13.22 8.12232 13.3497 8.43544 13.5805 8.66631C13.8114 8.89717 14.1245 9.02687 14.451 9.02687Z" fill="white"/>
<circle cx="7.94156" cy="11.588" r="1.45133" fill="#F74239"/>
<circle cx="10.4298" cy="7.85562" r="1.45133" fill="#FAEB00"/>
<circle cx="14.3683" cy="7.64859" r="1.45133" fill="#1A9122"/>
<circle cx="16.8566" cy="11.381" r="1.45133" fill="#2362A5"/>
</g>
<defs>
<filter id="filter0_d_5630_2406" x="3.19238" y="2.69238" width="22.4141" height="22.3711" filterUnits="userSpaceOnUse" color-interpolation-filters="sRGB">
<feFlood flood-opacity="0" result="BackgroundImageFix"/>
<feColorMatrix in="SourceAlpha" type="matrix" values="0 0 0 0 0 0 0 0 0 0 0 0 0 0 0 0 0 0 127 0" result="hardAlpha"/>
<feOffset dx="2" dy="2"/>
<feGaussianBlur stdDeviation="1.5"/>
<feComposite in2="hardAlpha" operator="out"/>
<feColorMatrix type="matrix" values="0 0 0 0 0 0 0 0 0 0 0 0 0 0 0 0 0 0 0.25 0"/>
<feBlend mode="normal" in2="BackgroundImageFix" result="effect1_dropShadow_5630_2406"/>
<feBlend mode="normal" in="SourceGraphic" in2="effect1_dropShadow_5630_2406" result="shape"/>
</filter>
</defs>
</svg>
