<svg width="60" height="60" viewBox="0 0 60 60" fill="none" xmlns="http://www.w3.org/2000/svg">
<rect width="60" height="60" rx="30" fill="url(#paint0_linear_5397_6368)"/>
<path d="M38.5222 24.8861L36.829 26.5793L33.4199 23.1702L35.1131 21.477C35.5904 20.9997 36.204 20.7725 36.8176 20.7725C37.4313 20.7725 38.0449 20.9997 38.5222 21.477C39.4654 22.4202 39.4654 23.9429 38.5222 24.8861Z" fill="white"/>
<path d="M36.0344 27.3866L23.7503 39.6594C22.8071 40.6025 21.2844 40.6025 20.3412 39.6594C19.398 38.7162 19.398 37.1934 20.3412 36.2503L32.6253 23.9775L36.0344 27.3866Z" fill="white"/>
<path d="M27.6696 20.3402L28.1355 18.7607C28.181 18.613 28.1355 18.4539 28.0332 18.3402C27.931 18.2266 27.7492 18.1811 27.6014 18.2266L26.0219 18.6925L24.4423 18.2266C24.2946 18.1811 24.1355 18.2266 24.0219 18.3289C23.9082 18.4425 23.8742 18.6016 23.9196 18.7493L24.3742 20.3402L23.9082 21.9198C23.8628 22.0675 23.9082 22.2266 24.0105 22.3402C24.1242 22.4539 24.2832 22.488 24.431 22.4425L26.0219 21.988L27.6014 22.4539C27.6469 22.4652 27.681 22.4766 27.7264 22.4766C27.8401 22.4766 27.9423 22.4311 28.0332 22.3516C28.1469 22.238 28.181 22.0789 28.1355 21.9311L27.6696 20.3402Z" fill="white"/>
<path d="M23.1237 27.1586L23.5896 25.5791C23.6351 25.4313 23.5896 25.2722 23.4873 25.1586C23.3737 25.045 23.2146 25.0109 23.0669 25.0563L21.476 25.5109L19.8964 25.045C19.7487 24.9995 19.5896 25.045 19.476 25.1472C19.3623 25.2609 19.3283 25.42 19.3737 25.5677L19.8283 27.1586L19.3623 28.7381C19.3169 28.8859 19.3623 29.045 19.4646 29.1586C19.5783 29.2722 19.7373 29.3063 19.8851 29.2609L21.4646 28.795L23.0442 29.2609C23.0783 29.2722 23.1237 29.2722 23.1692 29.2722C23.2828 29.2722 23.3851 29.2268 23.476 29.1472C23.5896 29.0336 23.6237 28.8745 23.5783 28.7268L23.1237 27.1586Z" fill="white"/>
<path d="M40.1702 32.8405L40.6361 31.261C40.6816 31.1132 40.6361 30.9541 40.5339 30.8405C40.4202 30.7269 40.2611 30.6928 40.1134 30.7382L38.5339 31.2041L36.9543 30.7382C36.8066 30.6928 36.6475 30.7382 36.5339 30.8405C36.4202 30.9541 36.3861 31.1132 36.4316 31.261L36.8975 32.8405L36.4316 34.42C36.3861 34.5678 36.4316 34.7269 36.5339 34.8405C36.6475 34.9541 36.8066 34.9882 36.9543 34.9428L38.5339 34.4769L40.1134 34.9428C40.1475 34.9541 40.193 34.9541 40.2384 34.9541C40.352 34.9541 40.4543 34.9087 40.5452 34.8291C40.6589 34.7155 40.693 34.5564 40.6475 34.4087L40.1702 32.8405Z" fill="white"/>
<defs>
<linearGradient id="paint0_linear_5397_6368" x1="-5.19581e-07" y1="16.2921" x2="64.3376" y2="24.0562" gradientUnits="userSpaceOnUse">
<stop stop-color="#30C5D2"/>
<stop offset="1" stop-color="#471069"/>
</linearGradient>
</defs>
</svg>
