<svg width="209" height="30" viewBox="0 0 209 30" fill="none" xmlns="http://www.w3.org/2000/svg">
<path fill-rule="evenodd" clip-rule="evenodd" d="M96.3467 27.123C97.09 27.123 97.6847 27.7184 97.6847 28.4626C97.6847 29.2068 97.09 29.8022 96.3467 29.8022C95.6034 29.8022 95.0088 29.2068 95.0088 28.4626C95.0088 27.7184 95.6034 27.123 96.3467 27.123Z" fill="white"/>
<path fill-rule="evenodd" clip-rule="evenodd" d="M99.5849 27.3867H102.575C103.169 27.3867 103.648 27.8663 103.648 28.4617C103.648 29.0571 103.169 29.5367 102.575 29.5367H99.5849C98.9902 29.5367 98.5112 29.0571 98.5112 28.4617C98.5112 27.8663 98.9902 27.3867 99.5849 27.3867Z" fill="white"/>
<path fill-rule="evenodd" clip-rule="evenodd" d="M105.564 27.3867H108.554C109.149 27.3867 109.628 27.8663 109.628 28.4617C109.628 29.0571 109.149 29.5367 108.554 29.5367H105.564C104.97 29.5367 104.491 29.0571 104.491 28.4617C104.491 27.8663 104.97 27.3867 105.564 27.3867Z" fill="white"/>
<path fill-rule="evenodd" clip-rule="evenodd" d="M90.12 27.3867H93.1098C93.7044 27.3867 94.1834 27.8663 94.1834 28.4617C94.1834 29.0571 93.7044 29.5367 93.1098 29.5367H90.12C89.5254 29.5367 89.0464 29.0571 89.0464 28.4617C89.0464 27.8663 89.5254 27.3867 90.12 27.3867Z" fill="white"/>
<path fill-rule="evenodd" clip-rule="evenodd" d="M97.5704 0.199219C98.3137 0.199219 98.9083 0.79459 98.9083 1.5388C98.9083 2.28301 98.3137 2.87838 97.5704 2.87838C96.8271 2.87838 96.2324 2.28301 96.2324 1.5388C96.2324 0.79459 96.8271 0.199219 97.5704 0.199219Z" fill="white"/>
<path fill-rule="evenodd" clip-rule="evenodd" d="M108.291 0.199219C109.034 0.199219 109.629 0.79459 109.629 1.5388C109.629 2.28301 109.034 2.87838 108.291 2.87838C107.547 2.87838 106.953 2.28301 106.953 1.5388C106.953 0.79459 107.547 0.199219 108.291 0.199219Z" fill="white"/>
<path fill-rule="evenodd" clip-rule="evenodd" d="M90.12 0.464844H94.2825C94.8772 0.464844 95.3562 0.944449 95.3562 1.53982C95.3562 2.13519 94.8772 2.61479 94.2825 2.61479H90.12C89.5254 2.61479 89.0464 2.13519 89.0464 1.53982C89.0464 0.944449 89.5254 0.464844 90.12 0.464844Z" fill="white"/>
<path fill-rule="evenodd" clip-rule="evenodd" d="M100.857 0.464844H105.02C105.614 0.464844 106.093 0.944449 106.093 1.53982C106.093 2.13519 105.614 2.61479 105.02 2.61479H100.857C100.263 2.61479 99.7837 2.13519 99.7837 1.53982C99.7837 0.944449 100.263 0.464844 100.857 0.464844Z" fill="white"/>
<path fill-rule="evenodd" clip-rule="evenodd" d="M97.5704 13.6602C98.3137 13.6602 98.9083 14.2555 98.9083 14.9997C98.9083 15.7439 98.3137 16.3393 97.5704 16.3393C96.8271 16.3393 96.2324 15.7439 96.2324 14.9997C96.2324 14.2555 96.8271 13.6602 97.5704 13.6602Z" fill="white"/>
<path fill-rule="evenodd" clip-rule="evenodd" d="M100.857 13.9258H105.02C105.614 13.9258 106.093 14.4054 106.093 15.0007C106.093 15.5961 105.614 16.0757 105.02 16.0757H100.857C100.263 16.0757 99.7837 15.5961 99.7837 15.0007C99.7837 14.4054 100.263 13.9258 100.857 13.9258Z" fill="white"/>
<path fill-rule="evenodd" clip-rule="evenodd" d="M108.291 13.6602C109.034 13.6602 109.629 14.2555 109.629 14.9997C109.629 15.7439 109.034 16.3393 108.291 16.3393C107.547 16.3393 106.953 15.7439 106.953 14.9997C106.953 14.2555 107.547 13.6602 108.291 13.6602Z" fill="white"/>
<path fill-rule="evenodd" clip-rule="evenodd" d="M90.3843 13.6602C91.1276 13.6602 91.7223 14.2555 91.7223 14.9997C91.7223 15.7439 91.1276 16.3393 90.3843 16.3393C89.641 16.3393 89.0464 15.7439 89.0464 14.9997C89.0464 14.2555 89.641 13.6602 90.3843 13.6602Z" fill="white"/>
<mask id="mask0_14791_10842" style="mask-type:luminance" maskUnits="userSpaceOnUse" x="89" y="4" width="21" height="22">
<path d="M101.199 22.4809C100.455 22.4809 99.8608 23.0762 99.8608 23.8204C99.8608 24.5646 100.455 25.16 101.199 25.16C101.942 25.16 102.537 24.5646 102.537 23.8204C102.537 23.0762 101.942 22.4809 101.199 22.4809ZM97.8787 22.7455H93.7162C93.1216 22.7455 92.6425 23.2251 92.6425 23.8204C92.6425 24.4158 93.1216 24.8954 93.7162 24.8954H97.8787C98.4733 24.8954 98.9524 24.4158 98.9524 23.8204C98.9524 23.2251 98.4733 22.7455 97.8787 22.7455ZM90.4126 22.4809C91.1559 22.4809 91.7506 23.0762 91.7506 23.8204C91.7506 24.5646 91.1559 25.16 90.4126 25.16C89.6693 25.16 89.0747 24.5646 89.0747 23.8204C89.0747 23.0762 89.6693 22.4809 90.4126 22.4809ZM90.1484 18.2471H94.3109C94.9055 18.2471 95.3845 18.7267 95.3845 19.3221C95.3845 19.9175 94.9055 20.3971 94.3109 20.3971H90.1484C89.5537 20.3971 89.0747 19.9175 89.0747 19.3221C89.0747 18.7267 89.5537 18.2471 90.1484 18.2471ZM100.885 9.2835H105.047C105.642 9.2835 106.121 9.7631 106.121 10.3585C106.121 10.9538 105.642 11.4334 105.047 11.4334H100.885C100.29 11.4334 99.8113 10.9538 99.8113 10.3585C99.8113 9.7631 100.29 9.2835 100.885 9.2835ZM97.5649 9.0189C98.3082 9.0189 98.9028 9.61426 98.9028 10.3585C98.9028 11.1027 98.3082 11.6981 97.5649 11.6981C96.8216 11.6981 96.2269 11.1027 96.2269 10.3585C96.2269 9.61426 96.8216 9.0189 97.5649 9.0189ZM93.9805 9.0189C94.7238 9.0189 95.3184 9.61426 95.3184 10.3585C95.3184 11.1027 94.7238 11.6981 93.9805 11.6981C93.2372 11.6981 92.6425 11.1027 92.6425 10.3585C92.6425 9.61426 93.2372 9.0189 93.9805 9.0189ZM90.4126 9.0189C91.1559 9.0189 91.7506 9.61426 91.7506 10.3585C91.7506 11.1027 91.1559 11.6981 90.4126 11.6981C89.6693 11.6981 89.0747 11.1027 89.0747 10.3585C89.0747 9.61426 89.6693 9.0189 90.4126 9.0189ZM104.42 4.78516H108.582C109.177 4.78516 109.656 5.26476 109.656 5.86013C109.656 6.4555 109.177 6.9351 108.582 6.9351H104.42C103.825 6.9351 103.346 6.4555 103.346 5.86013C103.346 5.26476 103.825 4.78516 104.42 4.78516ZM97.2841 4.78516H101.447C102.041 4.78516 102.52 5.26476 102.52 5.86013C102.52 6.4555 102.041 6.9351 101.447 6.9351H97.2841C96.6894 6.9351 96.2104 6.4555 96.2104 5.86013C96.2104 5.26476 96.6894 4.78516 97.2841 4.78516ZM90.1484 4.78516H94.3109C94.9055 4.78516 95.3845 5.26476 95.3845 5.86013C95.3845 6.4555 94.9055 6.9351 94.3109 6.9351H90.1484C89.5537 6.9351 89.0747 6.4555 89.0747 5.86013C89.0747 5.26476 89.5537 4.78516 90.1484 4.78516ZM104.783 22.4809C104.04 22.4809 103.445 23.0762 103.445 23.8204C103.445 24.5646 104.04 25.16 104.783 25.16C105.526 25.16 106.121 24.5646 106.121 23.8204C106.121 23.0762 105.526 22.4809 104.783 22.4809Z" fill="white"/>
</mask>
<g mask="url(#mask0_14791_10842)">
<path d="M109.656 4.78516H89.0747V25.1435H109.656V4.78516Z" fill="url(#paint0_linear_14791_10842)"/>
</g>
<path fill-rule="evenodd" clip-rule="evenodd" d="M164.947 29.5369V0.479601H170.563V24.5424H183.86V29.5369H164.947ZM136.9 5.47409V0.479601H161.049V5.47409H151.799V29.5369H146.15V5.47409H136.9ZM119.936 5.06064V12.9989H125.188C126.559 12.9989 127.633 12.6516 128.393 11.9405C129.153 11.2459 129.533 10.2701 129.533 9.02977C129.533 7.90518 129.153 6.96251 128.393 6.20176C127.633 5.44101 126.576 5.06064 125.188 5.06064H119.936ZM114.32 29.5369V0.479601H125.668C127.534 0.479601 129.186 0.843438 130.606 1.57111C132.027 2.29878 133.117 3.30761 133.91 4.5645C134.703 5.83793 135.083 7.29327 135.083 8.94707C135.083 10.6009 134.686 12.1389 133.91 13.3958C133.117 14.6527 132.01 15.6284 130.59 16.3396C129.599 16.8192 128.492 17.1499 127.286 17.2988L136.999 29.5535H130.193L120.927 17.398H119.952V29.5535H114.336L114.32 29.5369ZM69.6391 29.5369L58.1922 0.479601H64.2543L71.9185 20.8875L79.6489 0.479601H85.6283L74.0659 29.5369H69.606H69.6391ZM42.1369 24.7409C44.0034 24.7409 45.6387 24.3275 47.0097 23.5006C48.3807 22.6736 49.4708 21.5325 50.2472 20.0606C51.0235 18.6053 51.4199 16.8853 51.4199 14.9338C51.4199 13.495 51.2052 12.1885 50.7592 10.9978C50.3133 9.80705 49.6856 8.7817 48.8597 7.92172C48.0338 7.0452 47.0592 6.38368 45.936 5.92062C44.8128 5.45755 43.5409 5.22602 42.1369 5.22602C40.32 5.22602 38.7177 5.63947 37.3302 6.44983C35.9428 7.2602 34.8526 8.40132 34.0597 9.85667C33.2834 11.312 32.887 13.0154 32.887 14.9504C32.887 16.4057 33.1182 17.7453 33.5642 18.9526C34.0267 20.1599 34.6544 21.2018 35.4637 22.0617C36.2731 22.9217 37.2477 23.5832 38.4039 24.0463C39.5436 24.5094 40.799 24.7409 42.1369 24.7409ZM42.2195 29.9835C40.1052 29.9835 38.1231 29.6031 36.2896 28.8258C34.4562 28.0485 32.8539 26.9901 31.4995 25.6174C30.145 24.2448 29.0713 22.6571 28.295 20.8214C27.5187 18.9857 27.1388 17.0176 27.1388 14.9338C27.1388 12.8501 27.5187 10.882 28.2785 9.07938C29.0383 7.27674 30.0954 5.68909 31.4664 4.33297C32.8374 2.96031 34.4231 1.90187 36.2401 1.14112C38.057 0.380373 40.0227 0 42.1369 0C44.2512 0 46.2664 0.380373 48.0833 1.14112C49.9003 1.90187 51.486 2.96031 52.857 4.33297C54.2115 5.68909 55.2851 7.29327 56.0614 9.11246C56.8378 10.9316 57.2177 12.8831 57.2177 14.9835C57.2177 17.0838 56.8378 19.0353 56.0614 20.8545C55.2851 22.6736 54.228 24.2613 52.857 25.634C51.486 26.9901 49.9168 28.065 48.0999 28.8423C46.2994 29.6196 44.3338 30 42.2195 30V29.9835ZM14.9156 29.9504C12.8013 29.9504 10.8192 29.57 9.00221 28.8093C7.18525 28.0485 5.59953 26.9901 4.22856 25.6174C2.87409 24.2448 1.81696 22.6571 1.09018 20.8379C0.363392 19.0187 0 17.0673 0 14.9669C0 12.8666 0.363392 10.9151 1.09018 9.09592C1.81696 7.27673 2.87409 5.68908 4.22856 4.3495C5.58302 2.99338 7.16873 1.93495 8.96917 1.1742C10.7696 0.396911 12.7518 0.0165384 14.8991 0.0165384C17.2116 0.0165384 19.2432 0.396911 21.0107 1.15766C22.7781 1.91841 24.3307 2.96031 25.6687 4.28335L21.8696 8.0871C21.0767 7.21059 20.1022 6.51599 18.9459 6.01985C17.7897 5.52371 16.4352 5.27563 14.8991 5.27563C13.5446 5.27563 12.3223 5.50717 11.1991 5.95369C10.0924 6.40022 9.11783 7.07828 8.29194 7.93826C7.46605 8.79824 6.83837 9.84013 6.39239 11.0309C5.94641 12.2381 5.73168 13.5447 5.73168 14.9835C5.73168 16.4223 5.94641 17.7619 6.39239 18.9526C6.83837 20.1433 7.46605 21.1687 8.29194 22.0287C9.11783 22.9052 10.0924 23.5667 11.1991 24.0298C12.3058 24.4928 13.5446 24.7244 14.8991 24.7244C16.5178 24.7244 17.9218 24.4763 19.0946 23.9801C20.2673 23.484 21.2419 22.7729 22.0513 21.8798L25.8504 25.6836C24.4959 27.0397 22.9267 28.0816 21.1428 28.8258C19.3589 29.57 17.2776 29.9338 14.8991 29.9338L14.9156 29.9504ZM192.284 29.5369V17.1499L181.795 0.463063H188.287L195.141 11.7255L201.996 0.463063H208.405L197.966 16.9019V29.5369H192.317H192.284Z" fill="white"/>
<defs>
<linearGradient id="paint0_linear_14791_10842" x1="89.0747" y1="14.9726" x2="109.656" y2="14.9726" gradientUnits="userSpaceOnUse">
<stop stop-color="#30C4D2"/>
<stop offset="1" stop-color="#461068"/>
</linearGradient>
</defs>
</svg>
