<svg width="102" height="84" viewBox="0 0 102 84" fill="none" xmlns="http://www.w3.org/2000/svg">
<g clipPath="url(#clip0_5141_3838)">
<path d="M11.0892 84C9.01024 84 6.99417 83.4307 5.25865 82.354C3.63193 81.3447 2.28363 79.9113 1.3588 78.2109C0.435034 76.5094 -0.0343143 74.5975 0.00195348 72.6813C0.0403547 70.638 0.657974 68.6332 1.78654 66.8847L41.6971 5.07029C43.7463 1.89589 47.2248 0 50.9998 0C54.7749 0 58.2534 1.89589 60.3025 5.07029L100.213 66.8858C101.342 68.6343 101.959 70.6391 101.998 72.6824C102.034 74.5985 101.565 76.5105 100.64 78.2109C99.7149 79.9124 98.3666 81.3447 96.7399 82.354C95.0055 83.4307 92.9894 84 90.9093 84H11.0892Z" fill="#333333"/>
<path d="M100.641 78.2109C99.7162 79.9113 98.3679 81.3447 96.7412 82.3551C95.0067 83.4318 92.9907 84.0011 90.9106 84.0011H51V0C54.7751 0 58.2536 1.89589 60.3038 5.07029L100.214 66.8847C101.343 68.6332 101.961 70.638 101.999 72.6813C102.035 74.5964 101.566 76.5094 100.641 78.2098V78.2109Z" fill="black"/>
<path d="M90.0739 79.3842H11.9274C6.28991 79.3842 2.8914 73.1326 5.95283 68.3924L45.0261 7.87357C47.8293 3.53173 54.173 3.53173 56.9763 7.87357L96.0495 68.3924C99.1099 73.1326 95.7114 79.3842 90.0749 79.3842H90.0739Z" fill="#FFBA1F"/>
<path d="M90.0743 79.3835H51V4.61621C53.287 4.61621 55.574 5.7014 56.9746 7.87286L96.0489 68.3917C99.1092 73.133 95.7107 79.3846 90.0743 79.3846V79.3835Z" fill="#F7A31C"/>
<path d="M54.6743 24.9227L53.3825 53.9142C53.3239 55.2312 52.2102 56.2512 50.895 56.1925C49.6544 56.1369 48.6773 55.1319 48.6197 53.9142L47.328 24.9227C47.2373 22.8911 48.8085 21.1704 50.8374 21.0807C52.9815 20.9739 54.7799 22.7779 54.6743 24.9227Z" fill="#333333"/>
<path d="M50.9994 68.7049C53.0507 68.7049 54.7137 67.0398 54.7137 64.9857C54.7137 62.9317 53.0507 61.2666 50.9994 61.2666C48.9481 61.2666 47.2852 62.9317 47.2852 64.9857C47.2852 67.0398 48.9481 68.7049 50.9994 68.7049Z" fill="#333333"/>
<path d="M54.6737 24.9235L53.3819 53.9151C53.3254 55.1957 52.2683 56.1966 51 56.1955V21.0762C53.0715 21.0655 54.7761 22.8322 54.6737 24.9235Z" fill="black"/>
<path d="M54.7143 64.9866C54.7143 67.0417 53.0513 68.7058 51 68.7058V61.2686C53.0513 61.2686 54.7143 62.9327 54.7143 64.9866Z" fill="black"/>
</g>
<defs>
<clipPath id="clip0_5141_3838">
<rect width="102" height="84" fill="white"/>
</clipPath>
</defs>
</svg>
