<svg width="139" height="44" viewBox="0 0 139 44" fill="none" xmlns="http://www.w3.org/2000/svg">
<path fillRule="evenodd" clipRule="evenodd" d="M14.6371 4.27078C12.2714 4.58173 11.5743 5.08283 11.5743 6.47129C11.5743 7.69556 12.5587 9.51721 13.6864 10.3795C14.2092 10.7793 15.6017 11.6076 16.7811 12.2203L18.9248 13.3341L18.7448 14.4734C18.5531 15.6873 18.9358 16.7737 19.5554 16.7737C19.7625 16.7737 20.2295 16.4527 20.5938 16.0606C20.9579 15.6681 21.5713 15.2671 21.9572 15.1691C22.3432 15.071 22.6588 14.7796 22.6588 14.5218C22.6588 14.1955 22.8143 14.114 23.1692 14.2537C24.5262 14.7873 29.6522 16.492 30.7225 16.7657C32.0751 17.1118 32.1459 17.2577 32.4426 20.3172C32.8233 24.2439 31.2157 28.9057 28.4052 32.0254C24.5256 36.3314 19.1316 38.148 13.5887 37.015C10.0659 36.2948 7.71598 35.0666 5.42061 32.7457C1.25419 28.5329 -0.216681 22.4308 1.39693 16.9812C1.98305 15.0018 3.19339 13.287 4.43316 11.6364L3.08566 12.9349L2.55147 13.5255C0.796036 15.5742 -0.271867 19.6796 0.0603767 23.1012C0.63823 29.0504 3.74248 34.396 8.3828 37.4322C17.1717 43.1824 29.7292 38.4078 33.8124 27.7629C34.7937 25.2045 35.198 20.8788 34.67 18.5844L34.3731 17.2943L35.8561 17.4936C36.6716 17.6032 38.5452 18.0839 40.0197 18.562C43.3603 19.6454 43.4801 19.6475 43.2672 18.6192C43.1747 18.1728 43.0166 17.395 42.9157 16.8915C42.79 16.2637 42.937 15.4942 43.3824 14.4462C43.7398 13.6052 44.1922 12.9652 43.9133 12.7964C43.759 12.6405 40.5781 13.7868 37.9729 14.937C36.8499 15.4331 35.478 15.8828 34.9241 15.9371C33.9577 16.0316 33.8958 15.977 33.3743 14.5682C33.0753 13.7608 32.3143 12.3175 31.6827 11.3601C31.0512 10.4028 30.5346 9.53375 30.5346 9.42892C30.5346 9.32409 30.7971 9.07221 31.118 8.86934C32.2536 8.15149 31.8429 7.40825 29.9171 6.69748C28.9358 6.33546 27.5923 5.58158 26.9316 5.02289C25.7423 4.01713 25.7094 4.00886 23.6841 4.20907C20.6773 4.50643 20.6819 4.50643 17.9916 4.32364C16.6279 4.23122 15.1184 4.2073 14.6371 4.27078ZM14.9375 5.31552C12.9934 5.68109 12.7058 5.95276 13.0879 7.06246C13.5152 8.30328 15.1584 9.982 15.9456 9.982C16.319 9.982 17.09 9.48768 17.7343 8.83568C19.1181 7.43453 19.245 7.80099 17.893 9.29427C17.1349 10.1317 16.691 10.4462 15.9495 10.4249C14.627 10.3868 15.007 10.5469 17.6273 11.4531L18.4656 11.7431C19.3078 12.0345 19.8556 12.8478 19.809 13.7378L19.7908 14.0857L19.6937 15.9365L20.3013 15.3953C21.2391 14.5599 21.8922 13.9088 22.3242 13.379C22.5657 13.0826 22.905 12.9748 23.1993 13.1009C24.6114 13.7065 29.934 15.5332 30.7338 15.6867L31.6623 15.8651L31.137 14.3195C30.8482 13.4694 30.2662 12.0839 29.8439 11.2402C28.8795 9.31376 28.8839 8.98451 29.8783 8.52444L30.6805 8.15297L28.7847 7.28068C27.7422 6.80084 26.5311 6.06113 26.0935 5.6365C25.3182 4.88469 25.2563 4.87436 23.6742 5.23284C22.2519 5.55501 19.3527 5.51278 16.9707 5.1354C16.6498 5.08431 15.735 5.16552 14.9375 5.31552ZM14.8938 6.27669C14.6884 6.81826 14.9871 7.32438 15.5122 7.32438C16.1125 7.32438 16.356 6.66248 15.9552 6.17348C15.6795 5.83709 15.0801 5.87819 14.8938 6.27669ZM7.63635 8.95202C6.99461 9.35451 6.10844 9.84676 5.66739 10.0455C5.22634 10.2442 4.86522 10.6434 4.86522 10.9325C4.86522 11.6566 5.22372 11.5913 6.03201 10.7202C6.92548 9.75758 7.12588 9.78918 6.96923 10.8679C6.80968 11.9696 7.16175 11.992 8.12961 10.9417C9.07646 9.91408 9.61085 8.87289 9.38274 8.49935C9.12955 8.08476 8.94053 8.13377 7.63635 8.95202ZM8.43852 8.99632C8.23812 9.07841 8.07389 9.39998 8.07389 9.71122C8.07389 10.0225 7.94263 10.2773 7.7822 10.2773C7.62176 10.2773 7.49458 10.4435 7.49983 10.6464C7.51004 11.0651 8.94899 9.50983 8.94899 9.07959C8.94899 8.92634 8.91603 8.81147 8.87606 8.82416C8.8361 8.83686 8.6392 8.91453 8.43852 8.99632Z" fill="white"/>
<path d="M57.7553 31V14.128H61.0193V31H57.7553ZM60.1553 24.088V21.184H68.6513V24.088H60.1553ZM60.1553 17.008V14.128H69.0593V17.008H60.1553ZM71.2943 31V19.408H74.4623V31H71.2943ZM72.8783 17.536C72.3663 17.536 71.9423 17.368 71.6063 17.032C71.2703 16.68 71.1023 16.248 71.1023 15.736C71.1023 15.24 71.2703 14.816 71.6063 14.464C71.9423 14.112 72.3663 13.936 72.8783 13.936C73.4063 13.936 73.8303 14.112 74.1503 14.464C74.4863 14.816 74.6543 15.24 74.6543 15.736C74.6543 16.248 74.4863 16.68 74.1503 17.032C73.8303 17.368 73.4063 17.536 72.8783 17.536ZM81.2315 31.264C80.5755 31.264 79.9275 31.176 79.2875 31C78.6635 30.824 78.0875 30.584 77.5595 30.28C77.0315 29.96 76.5755 29.576 76.1915 29.128L78.0635 27.232C78.4635 27.68 78.9275 28.016 79.4555 28.24C79.9835 28.464 80.5675 28.576 81.2075 28.576C81.7195 28.576 82.1035 28.504 82.3595 28.36C82.6315 28.216 82.7675 28 82.7675 27.712C82.7675 27.392 82.6235 27.144 82.3355 26.968C82.0635 26.792 81.7035 26.648 81.2555 26.536C80.8075 26.408 80.3355 26.272 79.8395 26.128C79.3595 25.968 78.8955 25.768 78.4475 25.528C77.9995 25.272 77.6315 24.928 77.3435 24.496C77.0715 24.048 76.9355 23.472 76.9355 22.768C76.9355 22.032 77.1115 21.392 77.4635 20.848C77.8315 20.304 78.3515 19.88 79.0235 19.576C79.6955 19.272 80.4875 19.12 81.3995 19.12C82.3595 19.12 83.2235 19.288 83.9915 19.624C84.7755 19.96 85.4235 20.464 85.9355 21.136L84.0395 23.032C83.6875 22.6 83.2875 22.288 82.8395 22.096C82.4075 21.904 81.9355 21.808 81.4235 21.808C80.9595 21.808 80.5995 21.88 80.3435 22.024C80.1035 22.168 79.9835 22.368 79.9835 22.624C79.9835 22.912 80.1195 23.136 80.3915 23.296C80.6795 23.456 81.0475 23.6 81.4955 23.728C81.9435 23.84 82.4075 23.976 82.8875 24.136C83.3835 24.28 83.8475 24.488 84.2795 24.76C84.7275 25.032 85.0875 25.392 85.3595 25.84C85.6475 26.288 85.7915 26.864 85.7915 27.568C85.7915 28.704 85.3835 29.608 84.5675 30.28C83.7515 30.936 82.6395 31.264 81.2315 31.264ZM95.7115 31V24.352C95.7115 23.664 95.4955 23.104 95.0635 22.672C94.6315 22.24 94.0715 22.024 93.3835 22.024C92.9355 22.024 92.5355 22.12 92.1835 22.312C91.8315 22.504 91.5515 22.776 91.3435 23.128C91.1515 23.48 91.0555 23.888 91.0555 24.352L89.8315 23.728C89.8315 22.816 90.0235 22.024 90.4075 21.352C90.7915 20.664 91.3195 20.128 91.9915 19.744C92.6795 19.36 93.4635 19.168 94.3435 19.168C95.2235 19.168 95.9995 19.36 96.6715 19.744C97.3595 20.128 97.8955 20.656 98.2795 21.328C98.6635 22 98.8555 22.776 98.8555 23.656V31H95.7115ZM87.9115 31V13.648H91.0555V31H87.9115ZM101.388 31V19.408H104.556V31H101.388ZM102.972 17.536C102.46 17.536 102.036 17.368 101.7 17.032C101.364 16.68 101.196 16.248 101.196 15.736C101.196 15.24 101.364 14.816 101.7 14.464C102.036 14.112 102.46 13.936 102.972 13.936C103.5 13.936 103.924 14.112 104.244 14.464C104.58 14.816 104.748 15.24 104.748 15.736C104.748 16.248 104.58 16.68 104.244 17.032C103.924 17.368 103.5 17.536 102.972 17.536ZM113.773 31.24C112.941 31.24 112.189 31.064 111.517 30.712C110.845 30.36 110.309 29.88 109.909 29.272C109.509 28.664 109.293 27.984 109.261 27.232V23.104C109.293 22.352 109.509 21.68 109.909 21.088C110.325 20.48 110.869 20.008 111.541 19.672C112.213 19.336 112.957 19.168 113.773 19.168C114.845 19.168 115.805 19.432 116.653 19.96C117.501 20.488 118.165 21.208 118.645 22.12C119.141 23.032 119.389 24.064 119.389 25.216C119.389 26.352 119.141 27.376 118.645 28.288C118.165 29.2 117.501 29.92 116.653 30.448C115.805 30.976 114.845 31.24 113.773 31.24ZM113.245 28.336C113.821 28.336 114.325 28.208 114.757 27.952C115.205 27.68 115.549 27.312 115.789 26.848C116.045 26.368 116.173 25.816 116.173 25.192C116.173 24.584 116.045 24.048 115.789 23.584C115.549 23.104 115.205 22.736 114.757 22.48C114.309 22.208 113.797 22.072 113.221 22.072C112.645 22.072 112.133 22.208 111.685 22.48C111.253 22.736 110.909 23.104 110.653 23.584C110.413 24.048 110.293 24.584 110.293 25.192C110.293 25.816 110.413 26.368 110.653 26.848C110.909 27.312 111.261 27.68 111.709 27.952C112.157 28.208 112.669 28.336 113.245 28.336ZM107.341 31V13.648H110.485V22.264L109.957 25.048L110.461 27.88V31H107.341ZM121.451 31V13.648H124.595V31H121.451ZM132.924 31.24C131.708 31.24 130.628 30.984 129.684 30.472C128.74 29.944 127.988 29.224 127.428 28.312C126.884 27.4 126.612 26.36 126.612 25.192C126.612 24.04 126.876 23.016 127.404 22.12C127.948 21.208 128.684 20.488 129.612 19.96C130.54 19.416 131.572 19.144 132.708 19.144C133.828 19.144 134.812 19.4 135.66 19.912C136.524 20.408 137.196 21.096 137.676 21.976C138.172 22.84 138.42 23.824 138.42 24.928C138.42 25.136 138.404 25.352 138.372 25.576C138.356 25.784 138.316 26.024 138.252 26.296L128.508 26.32V23.968L136.788 23.944L135.516 24.928C135.484 24.24 135.356 23.664 135.132 23.2C134.924 22.736 134.612 22.384 134.196 22.144C133.796 21.888 133.3 21.76 132.708 21.76C132.084 21.76 131.54 21.904 131.076 22.192C130.612 22.464 130.252 22.856 129.996 23.368C129.756 23.864 129.636 24.456 129.636 25.144C129.636 25.848 129.764 26.464 130.02 26.992C130.292 27.504 130.676 27.904 131.172 28.192C131.668 28.464 132.244 28.6 132.9 28.6C133.492 28.6 134.028 28.504 134.508 28.312C134.988 28.104 135.404 27.8 135.756 27.4L137.604 29.248C137.044 29.904 136.356 30.4 135.54 30.736C134.74 31.072 133.868 31.24 132.924 31.24Z" fill="white"/>
</svg>
