<svg width="203" height="138" viewBox="0 0 203 138" fill="none" xmlns="http://www.w3.org/2000/svg">
<rect width="203" height="137.727" rx="9.13826" fill="#101217"/>
<circle cx="11.0964" cy="11.0964" r="3.26367" fill="#D95A57"/>
<circle cx="22.1929" cy="11.0964" r="3.26367" fill="#585A5D"/>
<circle cx="33.2895" cy="11.0964" r="3.26367" fill="#52BE80"/>
<rect x="20.8875" y="61.3569" width="161.225" height="0.652733" rx="0.326367" fill="white" fill-opacity="0.05"/>
<rect x="20.8875" y="72.4534" width="90.7299" height="5.22187" rx="2.61093" fill="#404145"/>
<rect x="20.8875" y="85.5081" width="77.0225" height="5.22187" rx="2.61093" fill="#282A2F"/>
<rect x="20.8875" y="98.5626" width="90.7299" height="5.22187" rx="2.61093" fill="#404145"/>
<rect x="20.8875" y="111.617" width="39.164" height="5.22187" rx="2.61093" fill="#282A2F"/>
<rect x="20.8875" y="24.8038" width="161.225" height="26.1093" rx="13.0547" fill="#282A2F"/>
<rect x="133.81" y="27.4147" width="45.6913" height="20.8875" rx="10.4437" fill="#101217"/>
<path d="M145.289 38.9642C145.32 39.1052 145.386 39.2461 145.485 39.3871C145.589 39.5229 145.73 39.6378 145.908 39.7318C146.091 39.8205 146.323 39.8649 146.605 39.8649C147.007 39.8649 147.305 39.7709 147.498 39.583C147.691 39.395 147.788 39.173 147.788 38.9172C147.788 38.7135 147.733 38.5464 147.623 38.4159C147.514 38.2853 147.365 38.1783 147.177 38.0947C146.989 38.0059 146.777 37.9276 146.542 37.8597C146.333 37.8023 146.125 37.7396 145.916 37.6717C145.712 37.5986 145.527 37.5099 145.36 37.4054C145.192 37.2958 145.059 37.1548 144.96 36.9825C144.861 36.8101 144.811 36.596 144.811 36.3402C144.811 36.0321 144.884 35.7658 145.031 35.5412C145.177 35.3115 145.383 35.1339 145.649 35.0086C145.916 34.8833 146.226 34.8206 146.581 34.8206C146.89 34.8206 147.159 34.865 147.388 34.9538C147.618 35.0425 147.809 35.1679 147.96 35.3297C148.117 35.4864 148.232 35.6692 148.305 35.878L147.749 36.0895C147.712 35.9694 147.642 35.8545 147.537 35.7449C147.433 35.63 147.297 35.536 147.13 35.4629C146.963 35.3898 146.772 35.3532 146.558 35.3532C146.349 35.3532 146.159 35.3898 145.986 35.4629C145.819 35.536 145.686 35.6404 145.587 35.7762C145.488 35.912 145.438 36.0765 145.438 36.2697C145.438 36.4786 145.495 36.6457 145.61 36.771C145.73 36.8911 145.887 36.9903 146.08 37.0686C146.279 37.1417 146.495 37.2122 146.73 37.2801C146.944 37.348 147.151 37.4211 147.349 37.4994C147.553 37.5778 147.733 37.6744 147.89 37.7892C148.051 37.9041 148.179 38.0477 148.273 38.22C148.367 38.3924 148.414 38.6039 148.414 38.8545C148.414 39.1313 148.349 39.3897 148.219 39.6299C148.088 39.8649 147.89 40.0555 147.623 40.2017C147.362 40.3427 147.025 40.4132 146.613 40.4132C146.268 40.4132 145.965 40.361 145.704 40.2566C145.443 40.1469 145.229 40.0007 145.062 39.8179C144.895 39.6352 144.78 39.4263 144.717 39.1913L145.289 38.9642ZM151.064 40.4132C150.698 40.4132 150.372 40.3245 150.084 40.1469C149.802 39.9694 149.581 39.7266 149.419 39.4185C149.257 39.1104 149.176 38.7579 149.176 38.361C149.176 37.9798 149.257 37.6404 149.419 37.3428C149.581 37.0451 149.802 36.8128 150.084 36.6457C150.366 36.4733 150.688 36.3872 151.048 36.3872C151.403 36.3872 151.719 36.4655 151.996 36.6222C152.278 36.7788 152.497 36.9955 152.654 37.2723C152.81 37.549 152.883 37.865 152.873 38.22C152.873 38.2775 152.87 38.3375 152.865 38.4002C152.86 38.4629 152.855 38.5307 152.849 38.6039H149.818C149.829 38.8493 149.889 39.066 149.998 39.254C150.108 39.442 150.252 39.5908 150.429 39.7004C150.612 39.8049 150.818 39.8571 151.048 39.8571C151.351 39.8571 151.607 39.7997 151.816 39.6848C152.03 39.5699 152.184 39.4054 152.278 39.1913L152.787 39.395C152.63 39.7239 152.403 39.9772 152.105 40.1547C151.808 40.3271 151.46 40.4132 151.064 40.4132ZM152.231 38.0947C152.236 37.8702 152.186 37.6717 152.082 37.4994C151.983 37.3271 151.842 37.1913 151.659 37.0921C151.476 36.9929 151.265 36.9433 151.024 36.9433C150.816 36.9433 150.625 36.9929 150.453 37.0921C150.28 37.1913 150.137 37.3297 150.022 37.5073C149.912 37.6796 149.847 37.8754 149.826 38.0947H152.231ZM156.292 40.3584L156.245 39.6534C156.135 39.8937 155.973 40.0816 155.759 40.2174C155.545 40.348 155.273 40.4132 154.944 40.4132C154.662 40.4132 154.422 40.3688 154.224 40.2801C154.025 40.1913 153.871 40.066 153.762 39.9041C153.657 39.737 153.605 39.5412 153.605 39.3166C153.605 38.9877 153.728 38.7187 153.973 38.5099C154.219 38.2958 154.574 38.1652 155.038 38.1182L156.245 37.9851V37.6717C156.245 37.4524 156.164 37.2775 156.002 37.147C155.84 37.0112 155.621 36.9433 155.344 36.9433C155.072 36.9433 154.845 37.006 154.662 37.1313C154.485 37.2566 154.362 37.4368 154.294 37.6717L153.762 37.4838C153.866 37.1391 154.057 36.8702 154.333 36.677C154.615 36.4838 154.957 36.3872 155.359 36.3872C155.824 36.3872 156.185 36.5073 156.44 36.7475C156.702 36.9825 156.832 37.3036 156.832 37.7109V40.3584H156.292ZM156.245 38.4864L155.031 38.6274C154.769 38.6587 154.571 38.7318 154.435 38.8467C154.299 38.9563 154.232 39.1025 154.232 39.2853C154.232 39.4681 154.297 39.6143 154.427 39.7239C154.563 39.8336 154.756 39.8884 155.007 39.8884C155.294 39.8884 155.529 39.831 155.712 39.7161C155.895 39.6012 156.028 39.4472 156.111 39.254C156.2 39.0555 156.245 38.8414 156.245 38.6117V38.4864ZM157.978 36.442H158.519L158.55 37.0138C158.654 36.8728 158.78 36.7527 158.926 36.6535C159.077 36.5543 159.242 36.4864 159.419 36.4498C159.602 36.4081 159.795 36.4054 159.999 36.442V37.0295C159.78 36.9877 159.581 36.9877 159.404 37.0295C159.231 37.0712 159.083 37.1496 158.957 37.2644C158.832 37.3793 158.735 37.5255 158.667 37.7031C158.6 37.8754 158.566 38.0764 158.566 38.3062V40.3584H157.978V36.442ZM162.469 40.4132C162.088 40.4132 161.754 40.3297 161.467 40.1626C161.179 39.9955 160.955 39.7631 160.793 39.4655C160.636 39.1626 160.558 38.8127 160.558 38.4159C160.558 38.0138 160.636 37.6613 160.793 37.3584C160.955 37.0503 161.179 36.8128 161.467 36.6457C161.754 36.4733 162.088 36.3872 162.469 36.3872C162.871 36.3872 163.224 36.4812 163.527 36.6692C163.829 36.8519 164.049 37.1078 164.184 37.4368L163.644 37.6248C163.566 37.4159 163.422 37.2514 163.213 37.1313C163.01 37.006 162.772 36.9433 162.5 36.9433C162.234 36.9433 162.002 37.0034 161.803 37.1235C161.61 37.2436 161.459 37.4133 161.349 37.6326C161.245 37.8519 161.192 38.1104 161.192 38.408C161.192 38.8467 161.31 39.1991 161.545 39.4655C161.78 39.7266 162.093 39.8571 162.485 39.8571C162.751 39.8571 162.989 39.797 163.198 39.6769C163.406 39.5568 163.56 39.395 163.66 39.1913L164.192 39.3793C164.051 39.7031 163.829 39.9563 163.527 40.1391C163.224 40.3218 162.871 40.4132 162.469 40.4132ZM165.153 34.7188H165.741V36.9746C165.866 36.7866 166.036 36.643 166.25 36.5438C166.464 36.4394 166.704 36.3872 166.97 36.3872C167.258 36.3872 167.513 36.4524 167.738 36.583C167.962 36.7135 168.137 36.9067 168.263 37.1626C168.393 37.4185 168.459 37.737 168.459 38.1182V40.3584H167.832V38.1887C167.832 37.7814 167.746 37.4707 167.573 37.2566C167.401 37.0373 167.15 36.9276 166.822 36.9276C166.482 36.9276 166.216 37.0425 166.023 37.2723C165.835 37.502 165.741 37.8362 165.741 38.2749V40.3584H165.153V34.7188Z" fill="#D2D3D4"/>
<path d="M160.355 75.4994H173.41" stroke="url(#paint0_linear_4264_2803)" stroke-width="3.26367" stroke-linecap="round" stroke-linejoin="round"/>
<path d="M160.355 82.0267H166.883" stroke="url(#paint1_linear_4264_2803)" stroke-width="3.26367" stroke-linecap="round" stroke-linejoin="round"/>
<path d="M175.585 89.6419C175.585 101.065 166.338 110.312 154.916 110.312C143.493 110.312 134.246 101.065 134.246 89.6419C134.246 78.2191 143.493 68.972 154.916 68.972" stroke="#88898B" stroke-width="3.26367" stroke-linecap="round" stroke-linejoin="round"/>
<path d="M177.761 112.488L173.41 108.136" stroke="#88898B" stroke-width="3.26367" stroke-linecap="round" stroke-linejoin="round"/>
<defs>
<linearGradient id="paint0_linear_4264_2803" x1="160.355" y1="75.9994" x2="173.41" y2="75.9994" gradientUnits="userSpaceOnUse">
<stop stop-color="#30C5D2"/>
<stop offset="1" stop-color="#30C5D2" stop-opacity="0"/>
</linearGradient>
<linearGradient id="paint1_linear_4264_2803" x1="160.355" y1="82.5267" x2="166.883" y2="82.5267" gradientUnits="userSpaceOnUse">
<stop stop-color="#0C79FE"/>
<stop offset="1" stop-color="#0C79FE" stop-opacity="0"/>
</linearGradient>
</defs>
</svg>
