<svg width="203" height="170" viewBox="0 0 203 170" fill="none" xmlns="http://www.w3.org/2000/svg">
<g clip-path="url(#clip0_4233_4710)">
<path d="M2.89046 151.586C2.89046 153.295 4.47996 154.692 6.42197 154.692H197.372C199.314 154.692 200.903 153.295 200.903 151.586L202.493 54.9713C202.493 53.2626 200.207 49.9281 196.018 50.1791L9.39862 45.9269C6.96156 45.8708 4.60595 46.6966 2.88028 48.2115C1.15461 49.7253 0.21033 51.7959 0.267598 53.9393L2.89046 151.585V151.586Z" fill="#101217"/>
<path d="M6.11608 148.151C6.11608 149.759 7.6234 151.074 9.4664 151.074H193.048C194.891 151.074 196.398 149.759 196.398 148.151L197.902 60.9825C197.724 55.7365 192.453 53.8512 189.258 53.9626L9.88248 49.7644C8.16584 49.7243 6.50535 50.3012 5.28902 51.3602C4.0727 52.4192 3.40391 53.8668 3.4473 55.3646L6.1148 148.151H6.11608Z" fill="#1E2129"/>
<rect x="17.9407" y="87.8199" width="62.7679" height="5.04476" rx="2.52238" fill="url(#paint0_linear_4233_4710)"/>
<rect x="17.9414" y="97.6544" width="75.6714" height="4.32408" rx="2.16204" fill="url(#paint1_linear_4233_4710)"/>
<rect x="17.1846" y="61.2322" width="139.384" height="14.5024" rx="7.25118" fill="#35383F"/>
<rect x="17.1846" y="112.796" width="66.2275" height="29.7251" rx="14.8626" fill="#101217"/>
<path d="M38.8839 124.568H35.2197V126.879H37.9751V127.555H35.2197V129.982H38.8839V130.659H34.4462V123.891H38.8839V124.568ZM39.8157 125.825H40.6472L41.8847 127.671L43.1222 125.825H43.9634L42.2908 128.232L43.9634 130.659H43.1222L41.8847 128.793L40.6472 130.659H39.8157L41.4883 128.232L39.8157 125.825ZM45.6574 129.682L45.7347 129.673V132.592H45.0096V125.825H45.6767L45.725 126.724C45.8733 126.453 46.0924 126.224 46.3825 126.037C46.6725 125.85 47.0367 125.757 47.475 125.757C47.8939 125.757 48.271 125.86 48.6062 126.066C48.9413 126.266 49.2056 126.553 49.399 126.927C49.5923 127.294 49.689 127.733 49.689 128.242C49.689 128.745 49.5956 129.183 49.4086 129.557C49.2282 129.924 48.9703 130.211 48.6352 130.417C48.3065 130.623 47.9197 130.726 47.475 130.726C47.0109 130.726 46.6274 130.627 46.3245 130.427C46.0215 130.227 45.7992 129.979 45.6574 129.682ZM48.9059 128.242C48.9059 127.687 48.7609 127.249 48.4708 126.927C48.1872 126.598 47.8037 126.434 47.3203 126.434C47.0174 126.434 46.7434 126.505 46.4985 126.646C46.26 126.788 46.0731 126.995 45.9377 127.265C45.8024 127.536 45.7347 127.861 45.7347 128.242C45.7347 128.616 45.8024 128.938 45.9377 129.209C46.0731 129.479 46.26 129.689 46.4985 129.837C46.7434 129.979 47.0174 130.05 47.3203 130.05C47.8037 130.05 48.1872 129.889 48.4708 129.566C48.7609 129.238 48.9059 128.796 48.9059 128.242ZM50.8728 123.698H51.598V130.659H50.8728V123.698ZM55.1611 130.726C54.7035 130.726 54.2942 130.627 53.9332 130.427C53.5723 130.227 53.2887 129.943 53.0824 129.576C52.8762 129.202 52.773 128.761 52.773 128.251C52.773 127.736 52.8762 127.291 53.0824 126.917C53.2951 126.543 53.5819 126.257 53.9429 126.057C54.3103 125.857 54.7228 125.757 55.1804 125.757C55.6381 125.757 56.0473 125.857 56.4083 126.057C56.7757 126.257 57.0625 126.543 57.2688 126.917C57.4815 127.285 57.5878 127.723 57.5878 128.232C57.5878 128.748 57.4815 129.192 57.2688 129.566C57.0561 129.94 56.766 130.227 56.3986 130.427C56.0312 130.627 55.6187 130.726 55.1611 130.726ZM55.1514 130.04C55.435 130.04 55.7025 129.979 55.9539 129.856C56.2053 129.727 56.4083 129.531 56.563 129.267C56.7241 128.996 56.8047 128.654 56.8047 128.242C56.8047 127.823 56.7273 127.481 56.5727 127.217C56.418 126.953 56.2149 126.759 55.9636 126.637C55.7186 126.508 55.4544 126.443 55.1708 126.443C54.8872 126.443 54.6229 126.508 54.378 126.637C54.133 126.759 53.9332 126.956 53.7785 127.227C53.6303 127.491 53.5562 127.829 53.5562 128.242C53.5562 128.661 53.6303 129.002 53.7785 129.267C53.9268 129.531 54.1201 129.727 54.3586 129.856C54.6036 129.979 54.8678 130.04 55.1514 130.04ZM58.7755 125.825H59.4426L59.4813 126.53C59.6102 126.356 59.7649 126.208 59.9454 126.086C60.1323 125.963 60.3353 125.879 60.5545 125.834C60.7801 125.783 61.0185 125.78 61.2699 125.825V126.55C60.9992 126.498 60.7543 126.498 60.5351 126.55C60.3224 126.601 60.1387 126.698 59.984 126.84C59.8293 126.982 59.7101 127.162 59.6263 127.381C59.5425 127.594 59.5006 127.842 59.5006 128.126V130.659H58.7755V125.825ZM64.2898 130.726C63.8386 130.726 63.4358 130.617 63.0813 130.398C62.7332 130.179 62.4593 129.879 62.2595 129.499C62.0597 129.118 61.9598 128.683 61.9598 128.193C61.9598 127.723 62.0597 127.304 62.2595 126.937C62.4593 126.569 62.7332 126.282 63.0813 126.076C63.4293 125.863 63.8257 125.757 64.2705 125.757C64.7088 125.757 65.0987 125.854 65.4403 126.047C65.7884 126.24 66.0591 126.508 66.2525 126.85C66.4458 127.191 66.5361 127.581 66.5232 128.019C66.5232 128.09 66.5199 128.164 66.5135 128.242C66.5071 128.319 66.5006 128.403 66.4942 128.493H62.7526C62.7654 128.796 62.8396 129.064 62.9749 129.296C63.1103 129.528 63.2875 129.711 63.5067 129.847C63.7323 129.976 63.9869 130.04 64.2705 130.04C64.6443 130.04 64.9601 129.969 65.218 129.827C65.4822 129.686 65.6724 129.483 65.7884 129.218L66.4168 129.47C66.2235 129.876 65.9431 130.188 65.5757 130.407C65.2083 130.62 64.7797 130.726 64.2898 130.726ZM65.7304 127.865C65.7368 127.588 65.6756 127.343 65.5467 127.13C65.4242 126.917 65.2502 126.75 65.0246 126.627C64.799 126.505 64.538 126.443 64.2415 126.443C63.9836 126.443 63.7484 126.505 63.5357 126.627C63.323 126.75 63.1457 126.92 63.0039 127.14C62.8686 127.352 62.788 127.594 62.7622 127.865H65.7304Z" fill="#D2D3D4"/>
<path d="M189.285 36.0478C189.05 32.4177 186.858 29.201 183.571 27.6392L140.99 7.41652C138.263 6.12142 135.099 6.12142 132.371 7.41652L89.7908 27.6392C86.5039 29.1997 84.3118 32.4164 84.0771 36.0478C80.0833 97.7864 119.669 120.28 132.645 125.963C135.219 127.09 138.143 127.09 140.716 125.963C153.692 120.282 193.278 97.7864 189.284 36.0478H189.285Z" fill="url(#paint2_linear_4233_4710)"/>
<path d="M181.377 36.8614C181.328 35.895 180.751 35.0318 179.874 34.6162L137.961 14.7567C137.245 14.4175 136.415 14.4175 135.699 14.7567L93.7856 34.6162C92.9097 35.0318 92.3319 35.895 92.2822 36.8614C91.0421 61.0545 96.6433 81.2412 108.942 96.8865C118.319 108.815 129.287 115.207 135.713 118.19C136.421 118.518 137.237 118.518 137.945 118.19C144.372 115.207 155.341 108.815 164.716 96.8865C177.015 81.2412 182.616 61.0545 181.376 36.8614H181.377Z" fill="#1E2129"/>
<path d="M147.303 57.2038V60.5877C146.594 60.491 145.788 60.4427 144.886 60.4266V57.2038C144.886 52.128 143.452 48.7441 136.426 48.7441C129.401 48.7441 127.967 52.128 127.967 57.2038V60.4266C127.064 60.4427 126.259 60.491 125.55 60.5877V57.2038C125.55 52.5308 126.678 46.327 136.426 46.327C146.175 46.327 147.303 52.5308 147.303 57.2038Z" fill="#BCBDBF"/>
<path d="M147.303 60.5877C146.594 60.491 145.788 60.4426 144.886 60.4265H127.967C127.064 60.4426 126.258 60.491 125.549 60.5877C121.44 61.0872 120.312 63.1014 120.312 68.4834V71.7061C120.312 78.1516 121.924 79.763 128.369 79.763H144.483C150.929 79.763 152.54 78.1516 152.54 71.7061V68.4834C152.54 63.1014 151.412 61.0872 147.303 60.5877ZM131.125 71.2388C130.819 71.5289 130.4 71.7061 129.981 71.7061C129.771 71.7061 129.562 71.6578 129.368 71.5772C129.159 71.4967 128.998 71.3839 128.837 71.2388C128.547 70.9327 128.369 70.5137 128.369 70.0948C128.369 69.8853 128.418 69.6758 128.498 69.4824C128.579 69.2891 128.692 69.1118 128.837 68.9507C128.998 68.8057 129.159 68.6929 129.368 68.6123C129.965 68.3545 130.674 68.4995 131.125 68.9507C131.27 69.1118 131.383 69.2891 131.463 69.4824C131.544 69.6758 131.592 69.8853 131.592 70.0948C131.592 70.5137 131.415 70.9327 131.125 71.2388ZM137.909 70.7071C137.828 70.9004 137.715 71.0777 137.57 71.2388C137.264 71.5289 136.845 71.7061 136.426 71.7061C135.991 71.7061 135.588 71.5289 135.282 71.2388C135.137 71.0777 135.024 70.9004 134.944 70.7071C134.863 70.5137 134.815 70.3042 134.815 70.0948C134.815 69.6597 134.992 69.2568 135.282 68.9507C135.878 68.3545 136.958 68.3545 137.57 68.9507C137.86 69.2568 138.038 69.6597 138.038 70.0948C138.038 70.3042 137.989 70.5137 137.909 70.7071ZM144.016 71.2388C143.71 71.5289 143.291 71.7061 142.872 71.7061C142.453 71.7061 142.034 71.5289 141.728 71.2388C141.438 70.9327 141.26 70.5298 141.26 70.0948C141.26 69.6597 141.438 69.2568 141.728 68.9507C142.34 68.3545 143.42 68.3545 144.016 68.9507C144.08 69.0313 144.145 69.1118 144.209 69.2085C144.274 69.2891 144.322 69.3858 144.354 69.4824C144.403 69.5791 144.435 69.6758 144.451 69.7725C144.467 69.8853 144.483 69.9981 144.483 70.0948C144.483 70.5137 144.306 70.9327 144.016 71.2388Z" fill="#BCBDBF"/>
</g>
<defs>
<linearGradient id="paint0_linear_4233_4710" x1="17.9407" y1="90.3423" x2="80.7086" y2="90.3423" gradientUnits="userSpaceOnUse">
<stop stop-color="#0C79FE"/>
<stop offset="1" stop-color="#0C79FE" stop-opacity="0"/>
</linearGradient>
<linearGradient id="paint1_linear_4233_4710" x1="17.9414" y1="99.8165" x2="93.6128" y2="99.8165" gradientUnits="userSpaceOnUse">
<stop stop-color="#30C5D2"/>
<stop offset="1" stop-color="#30C5D2" stop-opacity="0"/>
</linearGradient>
<linearGradient id="paint2_linear_4233_4710" x1="83.7954" y1="39.1281" x2="197.584" y2="51.1949" gradientUnits="userSpaceOnUse">
<stop stop-color="#30C5D2"/>
<stop offset="1" stop-color="#471069"/>
</linearGradient>
<clipPath id="clip0_4233_4710">
<rect width="202.758" height="170" fill="white"/>
</clipPath>
</defs>
</svg>
