<svg width="223" height="605" viewBox="0 0 223 605" fill="none" xmlns="http://www.w3.org/2000/svg">
<rect width="223" height="605" rx="8.82464" fill="#101217"/>
<circle cx="12" cy="12" r="4" fill="#D95A57"/>
<circle cx="24" cy="12" r="4" fill="#585A5D"/>
<circle cx="36" cy="12" r="4" fill="#52BE80"/>
<rect x="20" y="28" width="183" height="32" rx="16" fill="#282A2F"/>
<path d="M35.76 47L34.224 41.4H34.944L36.152 46.2L37.52 41.4H38.272L39.608 46.216L40.832 41.4H41.552L39.984 47H39.216L37.88 42.368L36.512 47H35.76ZM42.193 47V42.792H42.801L42.849 43.56C42.945 43.368 43.0703 43.208 43.225 43.08C43.3797 42.952 43.5663 42.856 43.785 42.792C44.009 42.728 44.2597 42.696 44.537 42.696V43.4H44.121C43.961 43.4 43.8063 43.4213 43.657 43.464C43.5077 43.5067 43.3717 43.576 43.249 43.672C43.1317 43.768 43.0383 43.8987 42.969 44.064C42.8997 44.2293 42.865 44.4373 42.865 44.688V47H42.193ZM45.3742 47V42.792H46.0462V47H45.3742ZM45.7102 41.992C45.5769 41.992 45.4649 41.9493 45.3742 41.864C45.2889 41.7733 45.2462 41.6613 45.2462 41.528C45.2462 41.3947 45.2889 41.288 45.3742 41.208C45.4649 41.1227 45.5769 41.08 45.7102 41.08C45.8382 41.08 45.9475 41.1227 46.0382 41.208C46.1289 41.288 46.1742 41.3947 46.1742 41.528C46.1742 41.6613 46.1289 41.7733 46.0382 41.864C45.9475 41.9493 45.8382 41.992 45.7102 41.992ZM48.8719 47C48.6319 47 48.4239 46.9627 48.2479 46.888C48.0719 46.8133 47.9359 46.688 47.8399 46.512C47.7492 46.3307 47.7039 46.088 47.7039 45.784V43.36H46.9679V42.792H47.7039L47.7919 41.744H48.3759V42.792H49.5679V43.36H48.3759V45.784C48.3759 46.0347 48.4265 46.2053 48.5279 46.296C48.6292 46.3813 48.8079 46.424 49.0639 46.424H49.5519V47H48.8719ZM52.1245 47.096C51.7512 47.096 51.4205 47.0053 51.1325 46.824C50.8445 46.6427 50.6178 46.3867 50.4525 46.056C50.2925 45.7253 50.2125 45.3387 50.2125 44.896C50.2125 44.4533 50.2925 44.0667 50.4525 43.736C50.6178 43.4053 50.8445 43.1493 51.1325 42.968C51.4258 42.7867 51.7618 42.696 52.1405 42.696C52.5458 42.696 52.8845 42.7867 53.1565 42.968C53.4285 43.1493 53.6338 43.392 53.7725 43.696C53.9112 44 53.9805 44.3333 53.9805 44.696C53.9805 44.7493 53.9805 44.8027 53.9805 44.856C53.9805 44.9093 53.9778 44.9733 53.9725 45.048H50.7165V44.528H53.3245C53.3138 44.1173 53.1938 43.8053 52.9645 43.592C52.7405 43.3733 52.4605 43.264 52.1245 43.264C51.9005 43.264 51.6925 43.32 51.5005 43.432C51.3138 43.5387 51.1618 43.6987 51.0445 43.912C50.9272 44.1253 50.8685 44.392 50.8685 44.712V44.936C50.8685 45.288 50.9272 45.584 51.0445 45.824C51.1618 46.0587 51.3138 46.2347 51.5005 46.352C51.6925 46.4693 51.9005 46.528 52.1245 46.528C52.4232 46.528 52.6578 46.472 52.8285 46.36C52.9992 46.2427 53.1245 46.0773 53.2045 45.864H53.8685C53.8045 46.0987 53.6925 46.3093 53.5325 46.496C53.3778 46.6827 53.1805 46.8293 52.9405 46.936C52.7058 47.0427 52.4338 47.096 52.1245 47.096ZM57.5322 48.76L58.4842 46.552H58.2522L56.6762 42.792H57.4042L58.7082 46.032L60.0682 42.792H60.7642L58.2282 48.76H57.5322ZM62.9463 47.096C62.557 47.096 62.213 47.0053 61.9143 46.824C61.6156 46.6427 61.3836 46.3867 61.2183 46.056C61.053 45.7253 60.9703 45.3387 60.9703 44.896C60.9703 44.448 61.053 44.0613 61.2183 43.736C61.389 43.4053 61.6236 43.1493 61.9223 42.968C62.2263 42.7867 62.573 42.696 62.9623 42.696C63.357 42.696 63.701 42.7867 63.9943 42.968C64.293 43.1493 64.525 43.4053 64.6903 43.736C64.8556 44.0613 64.9383 44.448 64.9383 44.896C64.9383 45.3387 64.853 45.7253 64.6823 46.056C64.517 46.3867 64.285 46.6427 63.9863 46.824C63.6876 47.0053 63.341 47.096 62.9463 47.096ZM62.9463 46.52C63.1916 46.52 63.413 46.4613 63.6103 46.344C63.8076 46.2213 63.9623 46.04 64.0743 45.8C64.1916 45.5547 64.2503 45.2533 64.2503 44.896C64.2503 44.5333 64.1943 44.232 64.0823 43.992C63.9703 43.752 63.8156 43.5733 63.6183 43.456C63.4263 43.3333 63.2076 43.272 62.9623 43.272C62.7223 43.272 62.5036 43.3333 62.3063 43.456C62.109 43.5733 61.9516 43.752 61.8343 43.992C61.717 44.232 61.6583 44.5333 61.6583 44.896C61.6583 45.2533 61.7143 45.5547 61.8263 45.8C61.9436 46.04 62.0983 46.2213 62.2903 46.344C62.4876 46.4613 62.7063 46.52 62.9463 46.52ZM67.4238 47.096C67.1144 47.096 66.8451 47.0373 66.6158 46.92C66.3864 46.8027 66.2078 46.624 66.0798 46.384C65.9518 46.1387 65.8878 45.8347 65.8878 45.472V42.792H66.5598V45.4C66.5598 45.7733 66.6504 46.0533 66.8318 46.24C67.0184 46.4267 67.2664 46.52 67.5758 46.52C67.7891 46.52 67.9811 46.472 68.1518 46.376C68.3224 46.2747 68.4584 46.128 68.5598 45.936C68.6664 45.744 68.7198 45.5093 68.7198 45.232V42.792H69.3918V47H68.7838L68.7438 46.328C68.6318 46.5733 68.4584 46.7627 68.2238 46.896C67.9944 47.0293 67.7278 47.096 67.4238 47.096ZM70.5289 47V42.792H71.1369L71.1849 43.56C71.2809 43.368 71.4063 43.208 71.5609 43.08C71.7156 42.952 71.9023 42.856 72.1209 42.792C72.3449 42.728 72.5956 42.696 72.8729 42.696V43.4H72.4569C72.2969 43.4 72.1423 43.4213 71.9929 43.464C71.8436 43.5067 71.7076 43.576 71.5849 43.672C71.4676 43.768 71.3743 43.8987 71.3049 44.064C71.2356 44.2293 71.2009 44.4373 71.2009 44.688V47H70.5289ZM75.7946 48.76V42.792H76.4026L76.4586 43.448C76.5439 43.3093 76.6506 43.184 76.7786 43.072C76.9119 42.96 77.0692 42.8693 77.2506 42.8C77.4372 42.7307 77.6506 42.696 77.8906 42.696C78.2692 42.696 78.5999 42.792 78.8826 42.984C79.1706 43.176 79.3946 43.4373 79.5546 43.768C79.7146 44.0987 79.7946 44.4773 79.7946 44.904C79.7946 45.3253 79.7146 45.7013 79.5546 46.032C79.3946 46.3627 79.1706 46.624 78.8826 46.816C78.5946 47.0027 78.2612 47.096 77.8826 47.096C77.5572 47.096 77.2719 47.0293 77.0266 46.896C76.7812 46.7627 76.5946 46.576 76.4666 46.336V48.76H75.7946ZM77.8026 46.512C78.0532 46.512 78.2746 46.448 78.4666 46.32C78.6639 46.1867 78.8186 46 78.9306 45.76C79.0479 45.5147 79.1066 45.2267 79.1066 44.896C79.1066 44.5653 79.0479 44.28 78.9306 44.04C78.8186 43.7947 78.6639 43.608 78.4666 43.48C78.2746 43.3467 78.0532 43.28 77.8026 43.28C77.5359 43.28 77.3039 43.3467 77.1066 43.48C76.9092 43.608 76.7572 43.7947 76.6506 44.04C76.5439 44.28 76.4906 44.5653 76.4906 44.896C76.4906 45.2267 76.5439 45.5147 76.6506 45.76C76.7572 46 76.9092 46.1867 77.1066 46.32C77.3039 46.448 77.5359 46.512 77.8026 46.512ZM80.7711 47V42.792H81.3791L81.4271 43.56C81.5231 43.368 81.6485 43.208 81.8031 43.08C81.9578 42.952 82.1445 42.856 82.3631 42.792C82.5871 42.728 82.8378 42.696 83.1151 42.696V43.4H82.6991C82.5391 43.4 82.3845 43.4213 82.2351 43.464C82.0858 43.5067 81.9498 43.576 81.8271 43.672C81.7098 43.768 81.6165 43.8987 81.5471 44.064C81.4778 44.2293 81.4431 44.4373 81.4431 44.688V47H80.7711ZM85.5479 47.096C85.1585 47.096 84.8145 47.0053 84.5159 46.824C84.2172 46.6427 83.9852 46.3867 83.8199 46.056C83.6545 45.7253 83.5719 45.3387 83.5719 44.896C83.5719 44.448 83.6545 44.0613 83.8199 43.736C83.9905 43.4053 84.2252 43.1493 84.5239 42.968C84.8279 42.7867 85.1745 42.696 85.5639 42.696C85.9585 42.696 86.3025 42.7867 86.5959 42.968C86.8945 43.1493 87.1265 43.4053 87.2919 43.736C87.4572 44.0613 87.5399 44.448 87.5399 44.896C87.5399 45.3387 87.4545 45.7253 87.2839 46.056C87.1185 46.3867 86.8865 46.6427 86.5879 46.824C86.2892 47.0053 85.9425 47.096 85.5479 47.096ZM85.5479 46.52C85.7932 46.52 86.0145 46.4613 86.2119 46.344C86.4092 46.2213 86.5639 46.04 86.6759 45.8C86.7932 45.5547 86.8519 45.2533 86.8519 44.896C86.8519 44.5333 86.7959 44.232 86.6839 43.992C86.5719 43.752 86.4172 43.5733 86.2199 43.456C86.0279 43.3333 85.8092 43.272 85.5639 43.272C85.3239 43.272 85.1052 43.3333 84.9079 43.456C84.7105 43.5733 84.5532 43.752 84.4359 43.992C84.3185 44.232 84.2599 44.5333 84.2599 44.896C84.2599 45.2533 84.3159 45.5547 84.4279 45.8C84.5452 46.04 84.6999 46.2213 84.8919 46.344C85.0892 46.4613 85.3079 46.52 85.5479 46.52ZM88.5133 47V42.792H89.1213L89.1533 43.368C89.2813 43.16 89.4546 42.9973 89.6733 42.88C89.892 42.7573 90.1213 42.696 90.3613 42.696C90.564 42.696 90.7453 42.7253 90.9053 42.784C91.0706 42.8373 91.2146 42.9227 91.3373 43.04C91.46 43.152 91.5586 43.2933 91.6333 43.464C91.772 43.2133 91.9586 43.024 92.1933 42.896C92.4333 42.7627 92.684 42.696 92.9453 42.696C93.2546 42.696 93.5186 42.7573 93.7373 42.88C93.9613 42.9973 94.132 43.1787 94.2493 43.424C94.372 43.664 94.4333 43.9653 94.4333 44.328V47H93.7693V44.4C93.7693 44.0213 93.6866 43.7387 93.5213 43.552C93.356 43.3653 93.132 43.272 92.8493 43.272C92.6573 43.272 92.4813 43.3227 92.3213 43.424C92.1666 43.5253 92.0413 43.6747 91.9453 43.872C91.8546 44.0693 91.8093 44.3093 91.8093 44.592V47H91.1373V44.4C91.1373 44.0213 91.0546 43.7387 90.8893 43.552C90.724 43.3653 90.5026 43.272 90.2253 43.272C90.0386 43.272 89.8653 43.3227 89.7053 43.424C89.5506 43.5253 89.4253 43.6747 89.3293 43.872C89.2333 44.0693 89.1853 44.3093 89.1853 44.592V47H88.5133ZM95.5446 48.76V42.792H96.1526L96.2086 43.448C96.2939 43.3093 96.4006 43.184 96.5286 43.072C96.6619 42.96 96.8192 42.8693 97.0006 42.8C97.1872 42.7307 97.4006 42.696 97.6406 42.696C98.0192 42.696 98.3499 42.792 98.6326 42.984C98.9206 43.176 99.1446 43.4373 99.3046 43.768C99.4646 44.0987 99.5446 44.4773 99.5446 44.904C99.5446 45.3253 99.4646 45.7013 99.3046 46.032C99.1446 46.3627 98.9206 46.624 98.6326 46.816C98.3446 47.0027 98.0112 47.096 97.6326 47.096C97.3072 47.096 97.0219 47.0293 96.7766 46.896C96.5312 46.7627 96.3446 46.576 96.2166 46.336V48.76H95.5446ZM97.5526 46.512C97.8032 46.512 98.0246 46.448 98.2166 46.32C98.4139 46.1867 98.5686 46 98.6806 45.76C98.7979 45.5147 98.8566 45.2267 98.8566 44.896C98.8566 44.5653 98.7979 44.28 98.6806 44.04C98.5686 43.7947 98.4139 43.608 98.2166 43.48C98.0246 43.3467 97.8032 43.28 97.5526 43.28C97.2859 43.28 97.0539 43.3467 96.8566 43.48C96.6592 43.608 96.5072 43.7947 96.4006 44.04C96.2939 44.28 96.2406 44.5653 96.2406 44.896C96.2406 45.2267 96.2939 45.5147 96.4006 45.76C96.5072 46 96.6592 46.1867 96.8566 46.32C97.0539 46.448 97.2859 46.512 97.5526 46.512ZM101.997 47C101.757 47 101.549 46.9627 101.373 46.888C101.197 46.8133 101.061 46.688 100.965 46.512C100.874 46.3307 100.829 46.088 100.829 45.784V43.36H100.093V42.792H100.829L100.917 41.744H101.501V42.792H102.693V43.36H101.501V45.784C101.501 46.0347 101.552 46.2053 101.653 46.296C101.754 46.3813 101.933 46.424 102.189 46.424H102.677V47H101.997ZM103.879 47.04C103.751 47.04 103.642 46.9973 103.551 46.912C103.466 46.8213 103.423 46.712 103.423 46.584C103.423 46.456 103.466 46.3493 103.551 46.264C103.642 46.1733 103.751 46.128 103.879 46.128C104.018 46.128 104.127 46.1733 104.207 46.264C104.292 46.3493 104.335 46.456 104.335 46.584C104.335 46.712 104.292 46.8213 104.207 46.912C104.127 46.9973 104.018 47.04 103.879 47.04ZM105.543 47.04C105.415 47.04 105.306 46.9973 105.215 46.912C105.13 46.8213 105.087 46.712 105.087 46.584C105.087 46.456 105.13 46.3493 105.215 46.264C105.306 46.1733 105.415 46.128 105.543 46.128C105.682 46.128 105.791 46.1733 105.871 46.264C105.956 46.3493 105.999 46.456 105.999 46.584C105.999 46.712 105.956 46.8213 105.871 46.912C105.791 46.9973 105.682 47.04 105.543 47.04ZM107.207 47.04C107.079 47.04 106.97 46.9973 106.879 46.912C106.794 46.8213 106.751 46.712 106.751 46.584C106.751 46.456 106.794 46.3493 106.879 46.264C106.97 46.1733 107.079 46.128 107.207 46.128C107.346 46.128 107.455 46.1733 107.535 46.264C107.62 46.3493 107.663 46.456 107.663 46.584C107.663 46.712 107.62 46.8213 107.535 46.912C107.455 46.9973 107.346 47.04 107.207 47.04Z" fill="#62646A"/>
<rect x="161" y="31" width="39" height="26" rx="13" fill="#101217"/>
<path d="M172.258 45.576C172.29 45.72 172.356 45.864 172.458 46.008C172.564 46.1467 172.708 46.264 172.89 46.36C173.076 46.4507 173.314 46.496 173.602 46.496C174.012 46.496 174.316 46.4 174.514 46.208C174.711 46.016 174.81 45.7893 174.81 45.528C174.81 45.32 174.754 45.1493 174.642 45.016C174.53 44.8827 174.378 44.7733 174.186 44.688C173.994 44.5973 173.778 44.5173 173.538 44.448C173.324 44.3893 173.111 44.3253 172.898 44.256C172.69 44.1813 172.5 44.0907 172.33 43.984C172.159 43.872 172.023 43.728 171.922 43.552C171.82 43.376 171.77 43.1573 171.77 42.896C171.77 42.5813 171.844 42.3093 171.994 42.08C172.143 41.8453 172.354 41.664 172.626 41.536C172.898 41.408 173.215 41.344 173.578 41.344C173.892 41.344 174.167 41.3893 174.402 41.48C174.636 41.5707 174.831 41.6987 174.986 41.864C175.146 42.024 175.263 42.2107 175.338 42.424L174.77 42.64C174.732 42.5173 174.66 42.4 174.554 42.288C174.447 42.1707 174.308 42.0747 174.138 42C173.967 41.9253 173.772 41.888 173.554 41.888C173.34 41.888 173.146 41.9253 172.97 42C172.799 42.0747 172.663 42.1813 172.562 42.32C172.46 42.4587 172.41 42.6267 172.41 42.824C172.41 43.0373 172.468 43.208 172.586 43.336C172.708 43.4587 172.868 43.56 173.066 43.64C173.268 43.7147 173.49 43.7867 173.73 43.856C173.948 43.9253 174.159 44 174.362 44.08C174.57 44.16 174.754 44.2587 174.914 44.376C175.079 44.4933 175.21 44.64 175.306 44.816C175.402 44.992 175.45 45.208 175.45 45.464C175.45 45.7467 175.383 46.0107 175.25 46.256C175.116 46.496 174.914 46.6907 174.642 46.84C174.375 46.984 174.031 47.056 173.61 47.056C173.258 47.056 172.948 47.0027 172.682 46.896C172.415 46.784 172.196 46.6347 172.026 46.448C171.855 46.2613 171.738 46.048 171.674 45.808L172.258 45.576ZM178.155 47.056C177.782 47.056 177.449 46.9653 177.155 46.784C176.867 46.6027 176.641 46.3547 176.475 46.04C176.31 45.7253 176.227 45.3653 176.227 44.96C176.227 44.5707 176.31 44.224 176.475 43.92C176.641 43.616 176.867 43.3787 177.155 43.208C177.443 43.032 177.771 42.944 178.139 42.944C178.502 42.944 178.825 43.024 179.107 43.184C179.395 43.344 179.619 43.5653 179.779 43.848C179.939 44.1307 180.014 44.4533 180.003 44.816C180.003 44.8747 180.001 44.936 179.995 45C179.99 45.064 179.985 45.1333 179.979 45.208H176.883C176.894 45.4587 176.955 45.68 177.067 45.872C177.179 46.064 177.326 46.216 177.507 46.328C177.694 46.4347 177.905 46.488 178.139 46.488C178.449 46.488 178.71 46.4293 178.923 46.312C179.142 46.1947 179.299 46.0267 179.395 45.808L179.915 46.016C179.755 46.352 179.523 46.6107 179.219 46.792C178.915 46.968 178.561 47.056 178.155 47.056ZM179.347 44.688C179.353 44.4587 179.302 44.256 179.195 44.08C179.094 43.904 178.95 43.7653 178.763 43.664C178.577 43.5627 178.361 43.512 178.115 43.512C177.902 43.512 177.707 43.5627 177.531 43.664C177.355 43.7653 177.209 43.9067 177.091 44.088C176.979 44.264 176.913 44.464 176.891 44.688H179.347ZM180.991 43H181.543L181.575 43.568C181.703 43.3707 181.871 43.2187 182.079 43.112C182.287 43 182.53 42.944 182.807 42.944C183.111 42.944 183.378 43.0107 183.607 43.144C183.836 43.272 184.015 43.4667 184.143 43.728C184.271 43.984 184.335 44.3067 184.335 44.696V47H183.735V44.768C183.735 44.352 183.644 44.0373 183.463 43.824C183.287 43.6053 183.031 43.496 182.695 43.496C182.348 43.496 182.076 43.6107 181.879 43.84C181.687 44.0693 181.591 44.408 181.591 44.856V47H180.991V43ZM188.587 43.808L188.523 43.816V41.24H189.123V47H188.571L188.531 46.256C188.408 46.48 188.224 46.6693 187.979 46.824C187.739 46.9787 187.44 47.056 187.083 47.056C186.715 47.056 186.392 46.9733 186.115 46.808C185.843 46.6373 185.629 46.3973 185.475 46.088C185.325 45.7787 185.251 45.416 185.251 45C185.251 44.584 185.325 44.224 185.475 43.92C185.629 43.6107 185.843 43.3707 186.115 43.2C186.392 43.0293 186.715 42.944 187.083 42.944C187.461 42.944 187.776 43.0267 188.027 43.192C188.277 43.3573 188.464 43.5627 188.587 43.808ZM185.899 45C185.899 45.4587 186.016 45.824 186.251 46.096C186.485 46.3627 186.805 46.496 187.211 46.496C187.461 46.496 187.685 46.4373 187.883 46.32C188.08 46.2027 188.235 46.032 188.347 45.808C188.464 45.584 188.523 45.3147 188.523 45C188.523 44.6853 188.464 44.4187 188.347 44.2C188.235 43.976 188.08 43.8053 187.883 43.688C187.685 43.5653 187.461 43.504 187.211 43.504C186.811 43.504 186.491 43.64 186.251 43.912C186.016 44.1787 185.899 44.5413 185.899 45Z" fill="#D2D3D4"/>
<rect x="20" y="76" width="183" height="1" rx="0.5" fill="white" fill-opacity="0.05"/>
</svg>
