<svg width="154" height="156" viewBox="0 0 154 156" fill="none" xmlns="http://www.w3.org/2000/svg">
<rect width="154" height="156" rx="20" fill="#101217"/>
<path d="M16.344 21.2C16.344 20.7787 16.4133 20.3947 16.552 20.048C16.6907 19.696 16.8853 19.3947 17.136 19.144C17.392 18.888 17.6853 18.6907 18.016 18.552C18.352 18.4133 18.7173 18.344 19.112 18.344C19.688 18.344 20.192 18.4773 20.624 18.744C21.0613 19.0107 21.392 19.3893 21.616 19.88L21.096 20.072C20.9733 19.8107 20.8107 19.5973 20.608 19.432C20.4053 19.2613 20.176 19.1333 19.92 19.048C19.664 18.9627 19.3947 18.92 19.112 18.92C18.712 18.92 18.352 19.0107 18.032 19.192C17.712 19.3733 17.4587 19.6347 17.272 19.976C17.0907 20.3173 17 20.7253 17 21.2C17 21.6693 17.0907 22.0747 17.272 22.416C17.4587 22.7573 17.712 23.0213 18.032 23.208C18.352 23.3893 18.712 23.48 19.112 23.48C19.4 23.48 19.6747 23.4347 19.936 23.344C20.1973 23.2533 20.432 23.112 20.64 22.92C20.8533 22.728 21.024 22.488 21.152 22.2L21.672 22.392C21.4427 22.9413 21.1067 23.3573 20.664 23.64C20.2213 23.9173 19.704 24.056 19.112 24.056C18.7173 24.056 18.352 23.9867 18.016 23.848C17.6853 23.7093 17.392 23.512 17.136 23.256C16.8853 23 16.6907 22.6987 16.552 22.352C16.4133 22 16.344 21.616 16.344 21.2ZM24.4612 24.056C24.0825 24.056 23.7439 23.9733 23.4452 23.808C23.1465 23.6427 22.9119 23.408 22.7412 23.104C22.5705 22.7947 22.4852 22.4293 22.4852 22.008C22.4852 21.5813 22.5705 21.2133 22.7412 20.904C22.9172 20.5947 23.1545 20.3573 23.4532 20.192C23.7572 20.0267 24.0985 19.944 24.4772 19.944C24.8559 19.944 25.1945 20.0267 25.4932 20.192C25.7972 20.3573 26.0345 20.5947 26.2052 20.904C26.3812 21.208 26.4692 21.5707 26.4692 21.992C26.4692 22.4187 26.3812 22.7867 26.2052 23.096C26.0292 23.4053 25.7892 23.6427 25.4852 23.808C25.1812 23.9733 24.8399 24.056 24.4612 24.056ZM24.4532 23.488C24.6879 23.488 24.9092 23.4373 25.1172 23.336C25.3252 23.2293 25.4932 23.0667 25.6212 22.848C25.7545 22.624 25.8212 22.3413 25.8212 22C25.8212 21.6533 25.7572 21.3707 25.6292 21.152C25.5012 20.9333 25.3332 20.7733 25.1252 20.672C24.9225 20.5653 24.7039 20.512 24.4692 20.512C24.2345 20.512 24.0159 20.5653 23.8132 20.672C23.6105 20.7733 23.4452 20.936 23.3172 21.16C23.1945 21.3787 23.1332 21.6587 23.1332 22C23.1332 22.3467 23.1945 22.6293 23.3172 22.848C23.4399 23.0667 23.5999 23.2293 23.7972 23.336C23.9999 23.4373 24.2185 23.488 24.4532 23.488ZM27.6839 20L28.9479 23.328L30.2199 20H30.8519L29.2519 24H28.6279L27.0439 20H27.6839ZM33.3507 24.056C32.9774 24.056 32.644 23.9653 32.3507 23.784C32.0627 23.6027 31.836 23.3547 31.6707 23.04C31.5054 22.7253 31.4227 22.3653 31.4227 21.96C31.4227 21.5707 31.5054 21.224 31.6707 20.92C31.836 20.616 32.0627 20.3787 32.3507 20.208C32.6387 20.032 32.9667 19.944 33.3347 19.944C33.6974 19.944 34.02 20.024 34.3027 20.184C34.5907 20.344 34.8147 20.5653 34.9747 20.848C35.1347 21.1307 35.2094 21.4533 35.1987 21.816C35.1987 21.8747 35.196 21.936 35.1907 22C35.1854 22.064 35.18 22.1333 35.1747 22.208H32.0787C32.0894 22.4587 32.1507 22.68 32.2627 22.872C32.3747 23.064 32.5214 23.216 32.7027 23.328C32.8894 23.4347 33.1 23.488 33.3347 23.488C33.644 23.488 33.9054 23.4293 34.1187 23.312C34.3374 23.1947 34.4947 23.0267 34.5907 22.808L35.1107 23.016C34.9507 23.352 34.7187 23.6107 34.4147 23.792C34.1107 23.968 33.756 24.056 33.3507 24.056ZM34.5427 21.688C34.548 21.4587 34.4974 21.256 34.3907 21.08C34.2894 20.904 34.1454 20.7653 33.9587 20.664C33.772 20.5627 33.556 20.512 33.3107 20.512C33.0974 20.512 32.9027 20.5627 32.7267 20.664C32.5507 20.7653 32.404 20.9067 32.2867 21.088C32.1747 21.264 32.108 21.464 32.0867 21.688H34.5427ZM36.1863 20H36.7383L36.7703 20.584C36.877 20.44 37.005 20.3173 37.1543 20.216C37.309 20.1147 37.477 20.0453 37.6583 20.008C37.845 19.9653 38.0423 19.9627 38.2503 20V20.6C38.0263 20.5573 37.8236 20.5573 37.6423 20.6C37.4663 20.6427 37.3143 20.7227 37.1863 20.84C37.0583 20.9573 36.9596 21.1067 36.8903 21.288C36.821 21.464 36.7863 21.6693 36.7863 21.904V24H36.1863V20ZM39.3251 20V18.88H39.9251V20H40.9891V20.56H39.9251V22.712C39.9251 22.9573 39.9758 23.136 40.0771 23.248C40.1838 23.36 40.3171 23.4267 40.4771 23.448C40.6425 23.4693 40.8131 23.4693 40.9891 23.448V23.968C40.7811 24.016 40.5758 24.0293 40.3731 24.008C40.1758 23.9867 39.9971 23.928 39.8371 23.832C39.6825 23.7307 39.5571 23.5893 39.4611 23.408C39.3705 23.2267 39.3251 22.9947 39.3251 22.712V20.56H38.7251V20L39.3251 20ZM41.8816 18.24H42.4816V24H41.8816V18.24ZM46.4139 20H47.0379L44.7499 25.6H44.1739L44.8539 23.944L43.2379 20H43.8939L45.1739 23.232L46.4139 20ZM52.2617 18.96H51.9977L50.1497 24H49.5017L51.5497 18.4H52.7017L54.7417 24H54.0937L52.2617 18.96ZM50.5017 21.968H53.7657V22.528H50.5017V21.968ZM55.4847 18.4H56.1247V24H55.4847V18.4ZM59.7829 20H60.3749V24H59.7829V20ZM60.0869 19.2C59.9642 19.2 59.8629 19.16 59.7829 19.08C59.7029 19 59.6629 18.9013 59.6629 18.784C59.6629 18.6613 59.7029 18.56 59.7829 18.48C59.8629 18.4 59.9642 18.36 60.0869 18.36C60.1989 18.36 60.2949 18.4 60.3749 18.48C60.4602 18.56 60.5029 18.6613 60.5029 18.784C60.5029 18.9013 60.4602 19 60.3749 19.08C60.2949 19.16 60.1989 19.2 60.0869 19.2ZM62.0534 22.776C62.0854 22.936 62.144 23.0693 62.2294 23.176C62.3147 23.2773 62.424 23.3547 62.5574 23.408C62.696 23.4613 62.856 23.488 63.0374 23.488C63.32 23.488 63.5334 23.4347 63.6774 23.328C63.8267 23.216 63.9014 23.0773 63.9014 22.912C63.9014 22.7733 63.856 22.6613 63.7654 22.576C63.68 22.4907 63.5654 22.4213 63.4214 22.368C63.2774 22.3093 63.1174 22.2587 62.9414 22.216C62.8027 22.184 62.6534 22.1467 62.4934 22.104C62.3334 22.056 62.1814 21.992 62.0374 21.912C61.8934 21.832 61.776 21.728 61.6854 21.6C61.5947 21.472 61.5494 21.304 61.5494 21.096C61.5494 20.8667 61.6107 20.6667 61.7334 20.496C61.8614 20.32 62.0347 20.184 62.2534 20.088C62.4774 19.992 62.7334 19.944 63.0214 19.944C63.352 19.944 63.6454 20.016 63.9014 20.16C64.1627 20.304 64.344 20.528 64.4454 20.832L63.8854 21.024C63.848 20.8853 63.7787 20.7787 63.6774 20.704C63.5814 20.6293 63.472 20.5787 63.3494 20.552C63.232 20.5253 63.1147 20.512 62.9974 20.512C62.7574 20.512 62.5627 20.56 62.4134 20.656C62.2694 20.7467 62.1974 20.8853 62.1974 21.072C62.1974 21.1733 62.2214 21.2587 62.2694 21.328C62.3174 21.392 62.384 21.4453 62.4694 21.488C62.5547 21.5307 62.656 21.568 62.7734 21.6C62.8907 21.6267 63.0187 21.6587 63.1574 21.696C63.312 21.7333 63.4694 21.7813 63.6294 21.84C63.7894 21.8933 63.9387 21.9653 64.0774 22.056C64.216 22.1413 64.328 22.2533 64.4134 22.392C64.504 22.5253 64.5494 22.6933 64.5494 22.896C64.5494 23.1307 64.4854 23.336 64.3574 23.512C64.2294 23.6827 64.0507 23.816 63.8214 23.912C63.5974 24.008 63.336 24.056 63.0374 24.056C62.6267 24.056 62.2854 23.9653 62.0134 23.784C61.7467 23.5973 61.568 23.3253 61.4774 22.968L62.0534 22.776ZM67.4924 21.2C67.4924 20.7787 67.5618 20.3947 67.7004 20.048C67.8391 19.696 68.0338 19.3947 68.2844 19.144C68.5404 18.888 68.8338 18.6907 69.1644 18.552C69.5004 18.4133 69.8658 18.344 70.2604 18.344C70.8364 18.344 71.3404 18.4773 71.7724 18.744C72.2098 19.0107 72.5404 19.3893 72.7644 19.88L72.2444 20.072C72.1218 19.8107 71.9591 19.5973 71.7564 19.432C71.5538 19.2613 71.3244 19.1333 71.0684 19.048C70.8124 18.9627 70.5431 18.92 70.2604 18.92C69.8604 18.92 69.5004 19.0107 69.1804 19.192C68.8604 19.3733 68.6071 19.6347 68.4204 19.976C68.2391 20.3173 68.1484 20.7253 68.1484 21.2C68.1484 21.6693 68.2391 22.0747 68.4204 22.416C68.6071 22.7573 68.8604 23.0213 69.1804 23.208C69.5004 23.3893 69.8604 23.48 70.2604 23.48C70.5484 23.48 70.8231 23.4347 71.0844 23.344C71.3458 23.2533 71.5804 23.112 71.7884 22.92C72.0018 22.728 72.1724 22.488 72.3004 22.2L72.8204 22.392C72.5911 22.9413 72.2551 23.3573 71.8124 23.64C71.3698 23.9173 70.8524 24.056 70.2604 24.056C69.8658 24.056 69.5004 23.9867 69.1644 23.848C68.8338 23.7093 68.5404 23.512 68.2844 23.256C68.0338 23 67.8391 22.6987 67.7004 22.352C67.5618 22 67.4924 21.616 67.4924 21.2ZM75.6096 24.056C75.231 24.056 74.8923 23.9733 74.5936 23.808C74.295 23.6427 74.0603 23.408 73.8896 23.104C73.719 22.7947 73.6336 22.4293 73.6336 22.008C73.6336 21.5813 73.719 21.2133 73.8896 20.904C74.0656 20.5947 74.303 20.3573 74.6016 20.192C74.9056 20.0267 75.247 19.944 75.6256 19.944C76.0043 19.944 76.343 20.0267 76.6416 20.192C76.9456 20.3573 77.183 20.5947 77.3536 20.904C77.5296 21.208 77.6176 21.5707 77.6176 21.992C77.6176 22.4187 77.5296 22.7867 77.3536 23.096C77.1776 23.4053 76.9376 23.6427 76.6336 23.808C76.3296 23.9733 75.9883 24.056 75.6096 24.056ZM75.6016 23.488C75.8363 23.488 76.0576 23.4373 76.2656 23.336C76.4736 23.2293 76.6416 23.0667 76.7696 22.848C76.903 22.624 76.9696 22.3413 76.9696 22C76.9696 21.6533 76.9056 21.3707 76.7776 21.152C76.6496 20.9333 76.4816 20.7733 76.2736 20.672C76.071 20.5653 75.8523 20.512 75.6176 20.512C75.383 20.512 75.1643 20.5653 74.9616 20.672C74.759 20.7733 74.5936 20.936 74.4656 21.16C74.343 21.3787 74.2816 21.6587 74.2816 22C74.2816 22.3467 74.343 22.6293 74.4656 22.848C74.5883 23.0667 74.7483 23.2293 74.9456 23.336C75.1483 23.4373 75.367 23.488 75.6016 23.488ZM78.6004 20H79.1524L79.1924 20.576C79.3097 20.384 79.467 20.232 79.6644 20.12C79.867 20.0027 80.107 19.944 80.3844 19.944C80.667 19.944 80.923 20.0133 81.1524 20.152C81.387 20.2853 81.5684 20.4853 81.6964 20.752C81.819 20.48 82.0057 20.2773 82.2564 20.144C82.507 20.0107 82.7844 19.944 83.0884 19.944C83.387 19.944 83.651 20.0107 83.8804 20.144C84.1097 20.272 84.2884 20.4667 84.4164 20.728C84.5444 20.984 84.6084 21.3067 84.6084 21.696V24H84.0084V21.768C84.0084 21.352 83.9177 21.0373 83.7364 20.824C83.5604 20.6053 83.307 20.496 82.9764 20.496C82.6404 20.496 82.3737 20.6133 82.1764 20.848C81.979 21.0773 81.8804 21.4187 81.8804 21.872V24H81.2804V21.768C81.2804 21.352 81.195 21.0373 81.0244 20.824C80.8537 20.6053 80.603 20.496 80.2724 20.496C79.9364 20.496 79.6724 20.6133 79.4804 20.848C79.2937 21.0773 79.2004 21.4187 79.2004 21.872V24H78.6004V20ZM86.3083 23.192L86.3723 23.184V25.6H85.7723V20H86.3243L86.3643 20.744C86.4869 20.52 86.6683 20.3307 86.9083 20.176C87.1483 20.0213 87.4496 19.944 87.8123 19.944C88.1589 19.944 88.4709 20.0293 88.7483 20.2C89.0256 20.3653 89.2443 20.6027 89.4043 20.912C89.5643 21.216 89.6443 21.5787 89.6443 22C89.6443 22.416 89.5669 22.7787 89.4123 23.088C89.2629 23.392 89.0496 23.6293 88.7723 23.8C88.5003 23.9707 88.1803 24.056 87.8123 24.056C87.4283 24.056 87.1109 23.9733 86.8603 23.808C86.6096 23.6427 86.4256 23.4373 86.3083 23.192ZM88.9963 22C88.9963 21.5413 88.8763 21.1787 88.6363 20.912C88.4016 20.64 88.0843 20.504 87.6843 20.504C87.4336 20.504 87.2069 20.5627 87.0043 20.68C86.8069 20.7973 86.6523 20.968 86.5403 21.192C86.4283 21.416 86.3723 21.6853 86.3723 22C86.3723 22.3093 86.4283 22.576 86.5403 22.8C86.6523 23.024 86.8069 23.1973 87.0043 23.32C87.2069 23.4373 87.4336 23.496 87.6843 23.496C88.0843 23.496 88.4016 23.3627 88.6363 23.096C88.8763 22.824 88.9963 22.4587 88.9963 22ZM90.6238 18.24H91.2238V24H90.6238V18.24ZM94.1241 24.056C93.7508 24.056 93.4175 23.9653 93.1241 23.784C92.8361 23.6027 92.6095 23.3547 92.4441 23.04C92.2788 22.7253 92.1961 22.3653 92.1961 21.96C92.1961 21.5707 92.2788 21.224 92.4441 20.92C92.6095 20.616 92.8361 20.3787 93.1241 20.208C93.4121 20.032 93.7401 19.944 94.1081 19.944C94.4708 19.944 94.7935 20.024 95.0761 20.184C95.3641 20.344 95.5881 20.5653 95.7481 20.848C95.9081 21.1307 95.9828 21.4533 95.9721 21.816C95.9721 21.8747 95.9695 21.936 95.9641 22C95.9588 22.064 95.9535 22.1333 95.9481 22.208H92.8521C92.8628 22.4587 92.9241 22.68 93.0361 22.872C93.1481 23.064 93.2948 23.216 93.4761 23.328C93.6628 23.4347 93.8735 23.488 94.1081 23.488C94.4175 23.488 94.6788 23.4293 94.8921 23.312C95.1108 23.1947 95.2681 23.0267 95.3641 22.808L95.8841 23.016C95.7241 23.352 95.4921 23.6107 95.1881 23.792C94.8841 23.968 94.5295 24.056 94.1241 24.056ZM95.3161 21.688C95.3215 21.4587 95.2708 21.256 95.1641 21.08C95.0628 20.904 94.9188 20.7653 94.7321 20.664C94.5455 20.5627 94.3295 20.512 94.0841 20.512C93.8708 20.512 93.6761 20.5627 93.5001 20.664C93.3241 20.7653 93.1775 20.9067 93.0601 21.088C92.9481 21.264 92.8815 21.464 92.8601 21.688H95.3161ZM97.2158 20V18.88H97.8158V20H98.8798V20.56H97.8158V22.712C97.8158 22.9573 97.8664 23.136 97.9678 23.248C98.0744 23.36 98.2078 23.4267 98.3678 23.448C98.5331 23.4693 98.7038 23.4693 98.8798 23.448V23.968C98.6718 24.016 98.4664 24.0293 98.2638 24.008C98.0664 23.9867 97.8878 23.928 97.7278 23.832C97.5731 23.7307 97.4478 23.5893 97.3518 23.408C97.2611 23.2267 97.2158 22.9947 97.2158 22.712V20.56H96.6158V20H97.2158ZM101.452 24.056C101.079 24.056 100.746 23.9653 100.452 23.784C100.164 23.6027 99.9376 23.3547 99.7723 23.04C99.6069 22.7253 99.5243 22.3653 99.5243 21.96C99.5243 21.5707 99.6069 21.224 99.7723 20.92C99.9376 20.616 100.164 20.3787 100.452 20.208C100.74 20.032 101.068 19.944 101.436 19.944C101.799 19.944 102.122 20.024 102.404 20.184C102.692 20.344 102.916 20.5653 103.076 20.848C103.236 21.1307 103.311 21.4533 103.3 21.816C103.3 21.8747 103.298 21.936 103.292 22C103.287 22.064 103.282 22.1333 103.276 22.208H100.18C100.191 22.4587 100.252 22.68 100.364 22.872C100.476 23.064 100.623 23.216 100.804 23.328C100.991 23.4347 101.202 23.488 101.436 23.488C101.746 23.488 102.007 23.4293 102.22 23.312C102.439 23.1947 102.596 23.0267 102.692 22.808L103.212 23.016C103.052 23.352 102.82 23.6107 102.516 23.792C102.212 23.968 101.858 24.056 101.452 24.056ZM102.644 21.688C102.65 21.4587 102.599 21.256 102.492 21.08C102.391 20.904 102.247 20.7653 102.06 20.664C101.874 20.5627 101.658 20.512 101.412 20.512C101.199 20.512 101.004 20.5627 100.828 20.664C100.652 20.7653 100.506 20.9067 100.388 21.088C100.276 21.264 100.21 21.464 100.188 21.688H102.644ZM104.288 18.24H104.888V24H104.288V18.24ZM108.82 20H109.444L107.156 25.6H106.58L107.26 23.944L105.644 20H106.3L107.58 23.232L108.82 20Z" fill="white"/>
<rect x="16" y="34" width="122" height="18" rx="3.56118" fill="#404145"/>
<path d="M22.332 40.96H22.068L20.22 46H19.572L21.62 40.4H22.772L24.812 46H24.164L22.332 40.96ZM20.572 43.968H23.836L23.836 44.528H20.572L20.572 43.968ZM25.491 42H26.043L26.075 42.568C26.203 42.3707 26.371 42.2187 26.579 42.112C26.787 42 27.0297 41.944 27.307 41.944C27.611 41.944 27.8777 42.0107 28.107 42.144C28.3363 42.272 28.515 42.4667 28.643 42.728C28.771 42.984 28.835 43.3067 28.835 43.696L28.835 46H28.235L28.235 43.768C28.235 43.352 28.1443 43.0373 27.963 42.824C27.787 42.6053 27.531 42.496 27.195 42.496C26.8483 42.496 26.5763 42.6107 26.379 42.84C26.187 43.0693 26.091 43.408 26.091 43.856L26.091 46H25.491L25.491 42ZM31.7268 46.056C31.3481 46.056 31.0095 45.9733 30.7108 45.808C30.4121 45.6427 30.1775 45.408 30.0068 45.104C29.8361 44.7947 29.7508 44.4293 29.7508 44.008C29.7508 43.5813 29.8361 43.2133 30.0068 42.904C30.1828 42.5947 30.4201 42.3573 30.7188 42.192C31.0228 42.0267 31.3641 41.944 31.7428 41.944C32.1215 41.944 32.4601 42.0267 32.7588 42.192C33.0628 42.3573 33.3001 42.5947 33.4708 42.904C33.6468 43.208 33.7348 43.5707 33.7348 43.992C33.7348 44.4187 33.6468 44.7867 33.4708 45.096C33.2948 45.4053 33.0548 45.6427 32.7508 45.808C32.4468 45.9733 32.1055 46.056 31.7268 46.056ZM31.7188 45.488C31.9535 45.488 32.1748 45.4373 32.3828 45.336C32.5908 45.2293 32.7588 45.0667 32.8868 44.848C33.0201 44.624 33.0868 44.3413 33.0868 44C33.0868 43.6533 33.0228 43.3707 32.8948 43.152C32.7668 42.9333 32.5988 42.7733 32.3908 42.672C32.1881 42.5653 31.9695 42.512 31.7348 42.512C31.5001 42.512 31.2815 42.5653 31.0788 42.672C30.8761 42.7733 30.7108 42.936 30.5828 43.16C30.4601 43.3787 30.3988 43.6587 30.3988 44C30.3988 44.3467 30.4601 44.6293 30.5828 44.848C30.7055 45.0667 30.8655 45.2293 31.0628 45.336C31.2655 45.4373 31.4841 45.488 31.7188 45.488ZM34.7176 42H35.2696L35.3016 42.568C35.4296 42.3707 35.5976 42.2187 35.8056 42.112C36.0136 42 36.2562 41.944 36.5336 41.944C36.8376 41.944 37.1042 42.0107 37.3336 42.144C37.5629 42.272 37.7416 42.4667 37.8696 42.728C37.9976 42.984 38.0616 43.3067 38.0616 43.696L38.0616 46H37.4616L37.4616 43.768C37.4616 43.352 37.3709 43.0373 37.1896 42.824C37.0136 42.6053 36.7576 42.496 36.4216 42.496C36.0749 42.496 35.8029 42.6107 35.6056 42.84C35.4136 43.0693 35.3176 43.408 35.3176 43.856L35.3176 46H34.7176L34.7176 42ZM41.9374 42H42.5614L40.2734 47.6H39.6974L40.3774 45.944L38.7614 42H39.4174L40.6974 45.232L41.9374 42ZM43.3269 42H43.8789L43.9189 42.576C44.0363 42.384 44.1936 42.232 44.3909 42.12C44.5936 42.0027 44.8336 41.944 45.1109 41.944C45.3936 41.944 45.6496 42.0133 45.8789 42.152C46.1136 42.2853 46.2949 42.4853 46.4229 42.752C46.5456 42.48 46.7323 42.2773 46.9829 42.144C47.2336 42.0107 47.5109 41.944 47.8149 41.944C48.1136 41.944 48.3776 42.0107 48.6069 42.144C48.8363 42.272 49.0149 42.4667 49.1429 42.728C49.2709 42.984 49.3349 43.3067 49.3349 43.696L49.3349 46H48.7349L48.7349 43.768C48.7349 43.352 48.6443 43.0373 48.4629 42.824C48.2869 42.6053 48.0336 42.496 47.7029 42.496C47.3669 42.496 47.1003 42.6133 46.9029 42.848C46.7056 43.0773 46.6069 43.4187 46.6069 43.872L46.6069 46H46.0069L46.0069 43.768C46.0069 43.352 45.9216 43.0373 45.7509 42.824C45.5803 42.6053 45.3296 42.496 44.9989 42.496C44.6629 42.496 44.3989 42.6133 44.2069 42.848C44.0203 43.0773 43.9269 43.4187 43.9269 43.872L43.9269 46H43.3269L43.3269 42ZM52.2268 46.056C51.8481 46.056 51.5095 45.9733 51.2108 45.808C50.9121 45.6427 50.6775 45.408 50.5068 45.104C50.3361 44.7947 50.2508 44.4293 50.2508 44.008C50.2508 43.5813 50.3361 43.2133 50.5068 42.904C50.6828 42.5947 50.9201 42.3573 51.2188 42.192C51.5228 42.0267 51.8641 41.944 52.2428 41.944C52.6215 41.944 52.9601 42.0267 53.2588 42.192C53.5628 42.3573 53.8001 42.5947 53.9708 42.904C54.1468 43.208 54.2348 43.5707 54.2348 43.992C54.2348 44.4187 54.1468 44.7867 53.9708 45.096C53.7948 45.4053 53.5548 45.6427 53.2508 45.808C52.9468 45.9733 52.6055 46.056 52.2268 46.056ZM52.2188 45.488C52.4535 45.488 52.6748 45.4373 52.8828 45.336C53.0908 45.2293 53.2588 45.0667 53.3868 44.848C53.5201 44.624 53.5868 44.3413 53.5868 44C53.5868 43.6533 53.5228 43.3707 53.3948 43.152C53.2668 42.9333 53.0988 42.7733 52.8908 42.672C52.6881 42.5653 52.4695 42.512 52.2348 42.512C52.0001 42.512 51.7815 42.5653 51.5788 42.672C51.3761 42.7733 51.2108 42.936 51.0828 43.16C50.9601 43.3787 50.8988 43.6587 50.8988 44C50.8988 44.3467 50.9601 44.6293 51.0828 44.848C51.2055 45.0667 51.3655 45.2293 51.5628 45.336C51.7655 45.4373 51.9841 45.488 52.2188 45.488ZM58.4896 46H57.9456L57.9056 45.424C57.7829 45.6267 57.6176 45.784 57.4096 45.896C57.2016 46.0027 56.9589 46.056 56.6816 46.056C56.3722 46.056 56.1029 45.992 55.8736 45.864C55.6442 45.736 55.4656 45.544 55.3376 45.288C55.2149 45.032 55.1536 44.7093 55.1536 44.32L55.1536 42H55.7456L55.7456 44.256C55.7456 44.6667 55.8336 44.9787 56.0096 45.192C56.1909 45.4 56.4496 45.504 56.7856 45.504C57.1269 45.504 57.3962 45.3947 57.5936 45.176C57.7962 44.952 57.8976 44.616 57.8976 44.168L57.8976 42H58.4896L58.4896 46ZM60.0378 44.776C60.0698 44.936 60.1284 45.0693 60.2138 45.176C60.2991 45.2773 60.4084 45.3547 60.5418 45.408C60.6804 45.4613 60.8404 45.488 61.0218 45.488C61.3044 45.488 61.5178 45.4347 61.6618 45.328C61.8111 45.216 61.8858 45.0773 61.8858 44.912C61.8858 44.7733 61.8404 44.6613 61.7498 44.576C61.6644 44.4907 61.5498 44.4213 61.4058 44.368C61.2618 44.3093 61.1018 44.2587 60.9258 44.216C60.7871 44.184 60.6378 44.1467 60.4778 44.104C60.3178 44.056 60.1658 43.992 60.0218 43.912C59.8778 43.832 59.7604 43.728 59.6698 43.6C59.5791 43.472 59.5338 43.304 59.5338 43.096C59.5338 42.8667 59.5951 42.6667 59.7178 42.496C59.8458 42.32 60.0191 42.184 60.2378 42.088C60.4618 41.992 60.7178 41.944 61.0058 41.944C61.3364 41.944 61.6298 42.016 61.8858 42.16C62.1471 42.304 62.3284 42.528 62.4298 42.832L61.8698 43.024C61.8324 42.8853 61.7631 42.7787 61.6618 42.704C61.5658 42.6293 61.4564 42.5787 61.3338 42.552C61.2164 42.5253 61.0991 42.512 60.9818 42.512C60.7418 42.512 60.5471 42.56 60.3978 42.656C60.2538 42.7467 60.1818 42.8853 60.1818 43.072C60.1818 43.1733 60.2058 43.2587 60.2538 43.328C60.3018 43.392 60.3684 43.4453 60.4538 43.488C60.5391 43.5307 60.6404 43.568 60.7578 43.6C60.8751 43.6267 61.0031 43.6587 61.1418 43.696C61.2964 43.7333 61.4538 43.7813 61.6138 43.84C61.7738 43.8933 61.9231 43.9653 62.0618 44.056C62.2004 44.1413 62.3124 44.2533 62.3978 44.392C62.4884 44.5253 62.5338 44.6933 62.5338 44.896C62.5338 45.1307 62.4698 45.336 62.3418 45.512C62.2138 45.6827 62.0351 45.816 61.8058 45.912C61.5818 46.008 61.3204 46.056 61.0218 46.056C60.6111 46.056 60.2698 45.9653 59.9978 45.784C59.7311 45.5973 59.5524 45.3253 59.4618 44.968L60.0378 44.776ZM63.7866 45.032H64.4906L63.6266 47.16H63.1946L63.7866 45.032ZM67.8902 40.4H68.5302L68.5302 43.936C68.5302 44.304 68.5969 44.6027 68.7302 44.832C68.8635 45.0613 69.0422 45.2293 69.2662 45.336C69.4955 45.4427 69.7542 45.496 70.0422 45.496C70.3249 45.496 70.5782 45.4427 70.8022 45.336C71.0262 45.2293 71.2049 45.0613 71.3382 44.832C71.4715 44.6027 71.5382 44.304 71.5382 43.936L71.5382 40.4H72.1782L72.1782 43.928C72.1782 44.296 72.1195 44.6133 72.0022 44.88C71.8902 45.1467 71.7329 45.368 71.5302 45.544C71.3275 45.7147 71.0982 45.8427 70.8422 45.928C70.5862 46.0133 70.3169 46.056 70.0342 46.056C69.6502 46.056 69.2955 45.9813 68.9702 45.832C68.6449 45.6773 68.3835 45.4427 68.1862 45.128C67.9889 44.8133 67.8902 44.4133 67.8902 43.928L67.8902 40.4ZM73.4363 42H73.9883L74.0203 42.568C74.1483 42.3707 74.3163 42.2187 74.5243 42.112C74.7323 42 74.975 41.944 75.2523 41.944C75.5563 41.944 75.823 42.0107 76.0523 42.144C76.2816 42.272 76.4603 42.4667 76.5883 42.728C76.7163 42.984 76.7803 43.3067 76.7803 43.696L76.7803 46H76.1803L76.1803 43.768C76.1803 43.352 76.0896 43.0373 75.9083 42.824C75.7323 42.6053 75.4763 42.496 75.1403 42.496C74.7936 42.496 74.5216 42.6107 74.3243 42.84C74.1323 43.0693 74.0363 43.408 74.0363 43.856L74.0363 46H73.4363L73.4363 42ZM77.9441 42H78.4961L78.5361 42.576C78.6535 42.384 78.8108 42.232 79.0081 42.12C79.2108 42.0027 79.4508 41.944 79.7281 41.944C80.0108 41.944 80.2668 42.0133 80.4961 42.152C80.7308 42.2853 80.9121 42.4853 81.0401 42.752C81.1628 42.48 81.3495 42.2773 81.6001 42.144C81.8508 42.0107 82.1281 41.944 82.4321 41.944C82.7308 41.944 82.9948 42.0107 83.2241 42.144C83.4535 42.272 83.6321 42.4667 83.7601 42.728C83.8881 42.984 83.9521 43.3067 83.9521 43.696L83.9521 46H83.3521L83.3521 43.768C83.3521 43.352 83.2615 43.0373 83.0801 42.824C82.9041 42.6053 82.6508 42.496 82.3201 42.496C81.9841 42.496 81.7175 42.6133 81.5201 42.848C81.3228 43.0773 81.2241 43.4187 81.2241 43.872L81.2241 46H80.6241L80.6241 43.768C80.6241 43.352 80.5388 43.0373 80.3681 42.824C80.1975 42.6053 79.9468 42.496 79.6161 42.496C79.2801 42.496 79.0161 42.6133 78.8241 42.848C78.6375 43.0773 78.5441 43.4187 78.5441 43.872L78.5441 46H77.9441L77.9441 42ZM86.844 46.056C86.4653 46.056 86.1267 45.9733 85.828 45.808C85.5293 45.6427 85.2947 45.408 85.124 45.104C84.9533 44.7947 84.868 44.4293 84.868 44.008C84.868 43.5813 84.9533 43.2133 85.124 42.904C85.3 42.5947 85.5373 42.3573 85.836 42.192C86.14 42.0267 86.4813 41.944 86.86 41.944C87.2387 41.944 87.5773 42.0267 87.876 42.192C88.18 42.3573 88.4173 42.5947 88.588 42.904C88.764 43.208 88.852 43.5707 88.852 43.992C88.852 44.4187 88.764 44.7867 88.588 45.096C88.412 45.4053 88.172 45.6427 87.868 45.808C87.564 45.9733 87.2227 46.056 86.844 46.056ZM86.836 45.488C87.0707 45.488 87.292 45.4373 87.5 45.336C87.708 45.2293 87.876 45.0667 88.004 44.848C88.1373 44.624 88.204 44.3413 88.204 44C88.204 43.6533 88.14 43.3707 88.012 43.152C87.884 42.9333 87.716 42.7733 87.508 42.672C87.3053 42.5653 87.0867 42.512 86.852 42.512C86.6173 42.512 86.3987 42.5653 86.196 42.672C85.9933 42.7733 85.828 42.936 85.7 43.16C85.5773 43.3787 85.516 43.6587 85.516 44C85.516 44.3467 85.5773 44.6293 85.7 44.848C85.8227 45.0667 85.9827 45.2293 86.18 45.336C86.3827 45.4373 86.6013 45.488 86.836 45.488ZM92.9228 42.808L92.8588 42.816L92.8588 40.24H93.4588L93.4588 46H92.9068L92.8668 45.256C92.7441 45.48 92.5601 45.6693 92.3148 45.824C92.0748 45.9787 91.7761 46.056 91.4188 46.056C91.0508 46.056 90.7281 45.9733 90.4508 45.808C90.1788 45.6373 89.9654 45.3973 89.8108 45.088C89.6614 44.7787 89.5868 44.416 89.5868 44C89.5868 43.584 89.6614 43.224 89.8108 42.92C89.9654 42.6107 90.1788 42.3707 90.4508 42.2C90.7281 42.0293 91.0508 41.944 91.4188 41.944C91.7974 41.944 92.1121 42.0267 92.3628 42.192C92.6134 42.3573 92.8001 42.5627 92.9228 42.808ZM90.2348 44C90.2348 44.4587 90.3521 44.824 90.5868 45.096C90.8214 45.3627 91.1414 45.496 91.5468 45.496C91.7974 45.496 92.0214 45.4373 92.2188 45.32C92.4161 45.2027 92.5708 45.032 92.6828 44.808C92.8001 44.584 92.8588 44.3147 92.8588 44C92.8588 43.6853 92.8001 43.4187 92.6828 43.2C92.5708 42.976 92.4161 42.8053 92.2188 42.688C92.0214 42.5653 91.7974 42.504 91.5468 42.504C91.1468 42.504 90.8268 42.64 90.5868 42.912C90.3521 43.1787 90.2348 43.5413 90.2348 44ZM96.3663 46.056C95.993 46.056 95.6596 45.9653 95.3663 45.784C95.0783 45.6027 94.8516 45.3547 94.6863 45.04C94.521 44.7253 94.4383 44.3653 94.4383 43.96C94.4383 43.5707 94.521 43.224 94.6863 42.92C94.8516 42.616 95.0783 42.3787 95.3663 42.208C95.6543 42.032 95.9823 41.944 96.3503 41.944C96.713 41.944 97.0356 42.024 97.3183 42.184C97.6063 42.344 97.8303 42.5653 97.9903 42.848C98.1503 43.1307 98.225 43.4533 98.2143 43.816C98.2143 43.8747 98.2116 43.936 98.2063 44C98.201 44.064 98.1956 44.1333 98.1903 44.208H95.0943C95.105 44.4587 95.1663 44.68 95.2783 44.872C95.3903 45.064 95.537 45.216 95.7183 45.328C95.905 45.4347 96.1156 45.488 96.3503 45.488C96.6596 45.488 96.921 45.4293 97.1343 45.312C97.353 45.1947 97.5103 45.0267 97.6063 44.808L98.1263 45.016C97.9663 45.352 97.7343 45.6107 97.4303 45.792C97.1263 45.968 96.7716 46.056 96.3663 46.056ZM97.5583 43.688C97.5636 43.4587 97.513 43.256 97.4063 43.08C97.305 42.904 97.161 42.7653 96.9743 42.664C96.7876 42.5627 96.5716 42.512 96.3263 42.512C96.113 42.512 95.9183 42.5627 95.7423 42.664C95.5663 42.7653 95.4196 42.9067 95.3023 43.088C95.1903 43.264 95.1236 43.464 95.1023 43.688H97.5583ZM99.2019 42H99.7539L99.7859 42.584C99.8926 42.44 100.021 42.3173 100.17 42.216C100.325 42.1147 100.493 42.0453 100.674 42.008C100.861 41.9653 101.058 41.9627 101.266 42L101.266 42.6C101.042 42.5573 100.839 42.5573 100.658 42.6C100.482 42.6427 100.33 42.7227 100.202 42.84C100.074 42.9573 99.9753 43.1067 99.9059 43.288C99.8366 43.464 99.8019 43.6693 99.8019 43.904L99.8019 46H99.2019L99.2019 42ZM104.589 46L104.541 45.28C104.429 45.5253 104.263 45.7173 104.045 45.856C103.826 45.9893 103.549 46.056 103.213 46.056C102.925 46.056 102.679 46.0107 102.477 45.92C102.274 45.8293 102.117 45.7013 102.005 45.536C101.898 45.3653 101.845 45.1653 101.845 44.936C101.845 44.6 101.97 44.3253 102.221 44.112C102.471 43.8933 102.834 43.76 103.309 43.712L104.541 43.576L104.541 43.256C104.541 43.032 104.458 42.8533 104.293 42.72C104.127 42.5813 103.903 42.512 103.621 42.512C103.343 42.512 103.111 42.576 102.925 42.704C102.743 42.832 102.618 43.016 102.549 43.256L102.005 43.064C102.111 42.712 102.306 42.4373 102.589 42.24C102.877 42.0427 103.226 41.944 103.637 41.944C104.111 41.944 104.479 42.0667 104.741 42.312C105.007 42.552 105.141 42.88 105.141 43.296L105.141 46H104.589ZM104.541 44.088L103.301 44.232C103.034 44.264 102.831 44.3387 102.693 44.456C102.554 44.568 102.485 44.7173 102.485 44.904C102.485 45.0907 102.551 45.24 102.685 45.352C102.823 45.464 103.021 45.52 103.277 45.52C103.57 45.52 103.81 45.4613 103.997 45.344C104.183 45.2267 104.319 45.0693 104.405 44.872C104.495 44.6693 104.541 44.4507 104.541 44.216L104.541 44.088ZM106.567 42L106.567 40.88H107.167L107.167 42H108.231L108.231 42.56H107.167L107.167 44.712C107.167 44.9573 107.218 45.136 107.319 45.248C107.426 45.36 107.559 45.4267 107.719 45.448C107.885 45.4693 108.055 45.4693 108.231 45.448L108.231 45.968C108.023 46.016 107.818 46.0293 107.615 46.008C107.418 45.9867 107.239 45.928 107.079 45.832C106.925 45.7307 106.799 45.5893 106.703 45.408C106.613 45.2267 106.567 44.9947 106.567 44.712L106.567 42.56H105.967L105.967 42H106.567ZM110.804 46.056C110.43 46.056 110.097 45.9653 109.804 45.784C109.516 45.6027 109.289 45.3547 109.124 45.04C108.958 44.7253 108.876 44.3653 108.876 43.96C108.876 43.5707 108.958 43.224 109.124 42.92C109.289 42.616 109.516 42.3787 109.804 42.208C110.092 42.032 110.42 41.944 110.788 41.944C111.15 41.944 111.473 42.024 111.756 42.184C112.044 42.344 112.268 42.5653 112.428 42.848C112.588 43.1307 112.662 43.4533 112.652 43.816C112.652 43.8747 112.649 43.936 112.644 44C112.638 44.064 112.633 44.1333 112.628 44.208H109.532C109.542 44.4587 109.604 44.68 109.716 44.872C109.828 45.064 109.974 45.216 110.156 45.328C110.342 45.4347 110.553 45.488 110.788 45.488C111.097 45.488 111.358 45.4293 111.572 45.312C111.79 45.1947 111.948 45.0267 112.044 44.808L112.564 45.016C112.404 45.352 112.172 45.6107 111.868 45.792C111.564 45.968 111.209 46.056 110.804 46.056ZM111.996 43.688C112.001 43.4587 111.95 43.256 111.844 43.08C111.742 42.904 111.598 42.7653 111.412 42.664C111.225 42.5627 111.009 42.512 110.764 42.512C110.55 42.512 110.356 42.5627 110.18 42.664C110.004 42.7653 109.857 42.9067 109.74 43.088C109.628 43.264 109.561 43.464 109.54 43.688H111.996ZM116.727 42.808L116.663 42.816L116.663 40.24H117.263L117.263 46H116.711L116.671 45.256C116.549 45.48 116.365 45.6693 116.119 45.824C115.879 45.9787 115.581 46.056 115.223 46.056C114.855 46.056 114.533 45.9733 114.255 45.808C113.983 45.6373 113.77 45.3973 113.615 45.088C113.466 44.7787 113.391 44.416 113.391 44C113.391 43.584 113.466 43.224 113.615 42.92C113.77 42.6107 113.983 42.3707 114.255 42.2C114.533 42.0293 114.855 41.944 115.223 41.944C115.602 41.944 115.917 42.0267 116.167 42.192C116.418 42.3573 116.605 42.5627 116.727 42.808ZM114.039 44C114.039 44.4587 114.157 44.824 114.391 45.096C114.626 45.3627 114.946 45.496 115.351 45.496C115.602 45.496 115.826 45.4373 116.023 45.32C116.221 45.2027 116.375 45.032 116.487 44.808C116.605 44.584 116.663 44.3147 116.663 44C116.663 43.6853 116.605 43.4187 116.487 43.2C116.375 42.976 116.221 42.8053 116.023 42.688C115.826 42.5653 115.602 42.504 115.351 42.504C114.951 42.504 114.631 42.64 114.391 42.912C114.157 43.1787 114.039 43.5413 114.039 44ZM123.237 46L123.189 45.28C123.077 45.5253 122.912 45.7173 122.693 45.856C122.475 45.9893 122.197 46.056 121.861 46.056C121.573 46.056 121.328 46.0107 121.125 45.92C120.923 45.8293 120.765 45.7013 120.653 45.536C120.547 45.3653 120.493 45.1653 120.493 44.936C120.493 44.6 120.619 44.3253 120.869 44.112C121.12 43.8933 121.483 43.76 121.957 43.712L123.189 43.576L123.189 43.256C123.189 43.032 123.107 42.8533 122.941 42.72C122.776 42.5813 122.552 42.512 122.269 42.512C121.992 42.512 121.76 42.576 121.573 42.704C121.392 42.832 121.267 43.016 121.197 43.256L120.653 43.064C120.76 42.712 120.955 42.4373 121.237 42.24C121.525 42.0427 121.875 41.944 122.285 41.944C122.76 41.944 123.128 42.0667 123.389 42.312C123.656 42.552 123.789 42.88 123.789 43.296L123.789 46H123.237ZM123.189 44.088L121.949 44.232C121.683 44.264 121.48 44.3387 121.341 44.456C121.203 44.568 121.133 44.7173 121.133 44.904C121.133 45.0907 121.2 45.24 121.333 45.352C121.472 45.464 121.669 45.52 121.925 45.52C122.219 45.52 122.459 45.4613 122.645 45.344C122.832 45.2267 122.968 45.0693 123.053 44.872C123.144 44.6693 123.189 44.4507 123.189 44.216L123.189 44.088ZM124.96 42H125.512L125.544 42.568C125.672 42.3707 125.84 42.2187 126.048 42.112C126.256 42 126.498 41.944 126.776 41.944C127.08 41.944 127.346 42.0107 127.576 42.144C127.805 42.272 127.984 42.4667 128.112 42.728C128.24 42.984 128.304 43.3067 128.304 43.696L128.304 46H127.704L127.704 43.768C127.704 43.352 127.613 43.0373 127.432 42.824C127.256 42.6053 127 42.496 126.664 42.496C126.317 42.496 126.045 42.6107 125.848 42.84C125.656 43.0693 125.56 43.408 125.56 43.856L125.56 46H124.96L124.96 42ZM132.556 42.808L132.492 42.816L132.492 40.24H133.092L133.092 46H132.54L132.5 45.256C132.377 45.48 132.193 45.6693 131.948 45.824C131.708 45.9787 131.409 46.056 131.052 46.056C130.684 46.056 130.361 45.9733 130.084 45.808C129.812 45.6373 129.598 45.3973 129.444 45.088C129.294 44.7787 129.22 44.416 129.22 44C129.22 43.584 129.294 43.224 129.444 42.92C129.598 42.6107 129.812 42.3707 130.084 42.2C130.361 42.0293 130.684 41.944 131.052 41.944C131.43 41.944 131.745 42.0267 131.996 42.192C132.246 42.3573 132.433 42.5627 132.556 42.808ZM129.868 44C129.868 44.4587 129.985 44.824 130.22 45.096C130.454 45.3627 130.774 45.496 131.18 45.496C131.43 45.496 131.654 45.4373 131.852 45.32C132.049 45.2027 132.204 45.032 132.316 44.808C132.433 44.584 132.492 44.3147 132.492 44C132.492 43.6853 132.433 43.4187 132.316 43.2C132.204 42.976 132.049 42.8053 131.852 42.688C131.654 42.5653 131.43 42.504 131.18 42.504C130.78 42.504 130.46 42.64 130.22 42.912C129.985 43.1787 129.868 43.5413 129.868 44Z" fill="white"/>
<rect x="16" y="56" width="36" height="18" rx="3.56118" fill="#404145"/>
<path d="M20.992 66.576C21.024 66.72 21.0907 66.864 21.192 67.008C21.2987 67.1467 21.4427 67.264 21.624 67.36C21.8107 67.4507 22.048 67.496 22.336 67.496C22.7467 67.496 23.0507 67.4 23.248 67.208C23.4453 67.016 23.544 66.7893 23.544 66.528C23.544 66.32 23.488 66.1493 23.376 66.016C23.264 65.8827 23.112 65.7733 22.92 65.688C22.728 65.5973 22.512 65.5173 22.272 65.448C22.0587 65.3893 21.8453 65.3253 21.632 65.256C21.424 65.1813 21.2347 65.0907 21.064 64.984C20.8933 64.872 20.7573 64.728 20.656 64.552C20.5547 64.376 20.504 64.1573 20.504 63.896C20.504 63.5813 20.5787 63.3093 20.728 63.08C20.8773 62.8453 21.088 62.664 21.36 62.536C21.632 62.408 21.9493 62.344 22.312 62.344C22.6267 62.344 22.9013 62.3893 23.136 62.48C23.3707 62.5707 23.5653 62.6987 23.72 62.864C23.88 63.024 23.9973 63.2107 24.072 63.424L23.504 63.64C23.4667 63.5173 23.3947 63.4 23.288 63.288C23.1813 63.1707 23.0427 63.0747 22.872 63C22.7013 62.9253 22.5067 62.888 22.288 62.888C22.0747 62.888 21.88 62.9253 21.704 63C21.5333 63.0747 21.3973 63.1813 21.296 63.32C21.1947 63.4587 21.144 63.6267 21.144 63.824C21.144 64.0373 21.2027 64.208 21.32 64.336C21.4427 64.4587 21.6027 64.56 21.8 64.64C22.0027 64.7147 22.224 64.7867 22.464 64.856C22.6827 64.9253 22.8933 65 23.096 65.08C23.304 65.16 23.488 65.2587 23.648 65.376C23.8133 65.4933 23.944 65.64 24.04 65.816C24.136 65.992 24.184 66.208 24.184 66.464C24.184 66.7467 24.1173 67.0107 23.984 67.256C23.8507 67.496 23.648 67.6907 23.376 67.84C23.1093 67.984 22.7653 68.056 22.344 68.056C21.992 68.056 21.6827 68.0027 21.416 67.896C21.1493 67.784 20.9307 67.6347 20.76 67.448C20.5893 67.2613 20.472 67.048 20.408 66.808L20.992 66.576ZM26.8898 68.056C26.5164 68.056 26.1831 67.9653 25.8898 67.784C25.6018 67.6027 25.3751 67.3547 25.2098 67.04C25.0444 66.7253 24.9618 66.3653 24.9618 65.96C24.9618 65.5707 25.0444 65.224 25.2098 64.92C25.3751 64.616 25.6018 64.3787 25.8898 64.208C26.1778 64.032 26.5058 63.944 26.8738 63.944C27.2364 63.944 27.5591 64.024 27.8418 64.184C28.1298 64.344 28.3538 64.5653 28.5138 64.848C28.6738 65.1307 28.7484 65.4533 28.7378 65.816C28.7378 65.8747 28.7351 65.936 28.7298 66C28.7244 66.064 28.7191 66.1333 28.7138 66.208H25.6178C25.6284 66.4587 25.6898 66.68 25.8018 66.872C25.9138 67.064 26.0604 67.216 26.2418 67.328C26.4284 67.4347 26.6391 67.488 26.8738 67.488C27.1831 67.488 27.4444 67.4293 27.6578 67.312C27.8764 67.1947 28.0338 67.0267 28.1298 66.808L28.6498 67.016C28.4898 67.352 28.2578 67.6107 27.9538 67.792C27.6498 67.968 27.2951 68.056 26.8898 68.056ZM28.0818 65.688C28.0871 65.4587 28.0364 65.256 27.9298 65.08C27.8284 64.904 27.6844 64.7653 27.4978 64.664C27.3111 64.5627 27.0951 64.512 26.8498 64.512C26.6364 64.512 26.4418 64.5627 26.2658 64.664C26.0898 64.7653 25.9431 64.9067 25.8258 65.088C25.7138 65.264 25.6471 65.464 25.6258 65.688H28.0818ZM31.4294 68.056C31.04 68.056 30.6987 67.9707 30.4054 67.8C30.112 67.6293 29.8827 67.392 29.7174 67.088C29.5574 66.7787 29.4774 66.4213 29.4774 66.016C29.4774 65.6053 29.5574 65.2453 29.7174 64.936C29.8827 64.6213 30.112 64.3787 30.4054 64.208C30.6987 64.032 31.04 63.944 31.4294 63.944C31.84 63.944 32.2 64.04 32.5094 64.232C32.8187 64.4187 33.0427 64.68 33.1814 65.016L32.6294 65.208C32.5494 64.9947 32.4027 64.8267 32.1894 64.704C31.9814 64.576 31.7387 64.512 31.4614 64.512C31.1894 64.512 30.952 64.5733 30.7494 64.696C30.552 64.8187 30.3974 64.992 30.2854 65.216C30.1787 65.44 30.1254 65.704 30.1254 66.008C30.1254 66.456 30.2454 66.816 30.4854 67.088C30.7254 67.3547 31.0454 67.488 31.4454 67.488C31.7174 67.488 31.96 67.4267 32.1734 67.304C32.3867 67.1813 32.544 67.016 32.6454 66.808L33.1894 67C33.0454 67.3307 32.8187 67.5893 32.5094 67.776C32.2 67.9627 31.84 68.056 31.4294 68.056ZM37.4427 68H36.8987L36.8587 67.424C36.736 67.6267 36.5707 67.784 36.3627 67.896C36.1547 68.0027 35.912 68.056 35.6347 68.056C35.3254 68.056 35.056 67.992 34.8267 67.864C34.5974 67.736 34.4187 67.544 34.2907 67.288C34.168 67.032 34.1067 66.7093 34.1067 66.32L34.1067 64H34.6987L34.6987 66.256C34.6987 66.6667 34.7867 66.9787 34.9627 67.192C35.144 67.4 35.4027 67.504 35.7387 67.504C36.08 67.504 36.3494 67.3947 36.5467 67.176C36.7494 66.952 36.8507 66.616 36.8507 66.168L36.8507 64H37.4427L37.4427 68ZM38.6629 64H39.2149L39.2469 64.584C39.3535 64.44 39.4815 64.3173 39.6309 64.216C39.7855 64.1147 39.9535 64.0453 40.1349 64.008C40.3215 63.9653 40.5189 63.9627 40.7269 64L40.7269 64.6C40.5029 64.5573 40.3002 64.5573 40.1189 64.6C39.9429 64.6427 39.7909 64.7227 39.6629 64.84C39.5349 64.9573 39.4362 65.1067 39.3669 65.288C39.2975 65.464 39.2629 65.6693 39.2629 65.904L39.2629 68H38.6629L38.6629 64ZM43.2257 68.056C42.8524 68.056 42.519 67.9653 42.2257 67.784C41.9377 67.6027 41.711 67.3547 41.5457 67.04C41.3804 66.7253 41.2977 66.3653 41.2977 65.96C41.2977 65.5707 41.3804 65.224 41.5457 64.92C41.711 64.616 41.9377 64.3787 42.2257 64.208C42.5137 64.032 42.8417 63.944 43.2097 63.944C43.5724 63.944 43.895 64.024 44.1777 64.184C44.4657 64.344 44.6897 64.5653 44.8497 64.848C45.0097 65.1307 45.0844 65.4533 45.0737 65.816C45.0737 65.8747 45.071 65.936 45.0657 66C45.0604 66.064 45.055 66.1333 45.0497 66.208H41.9537C41.9644 66.4587 42.0257 66.68 42.1377 66.872C42.2497 67.064 42.3964 67.216 42.5777 67.328C42.7644 67.4347 42.975 67.488 43.2097 67.488C43.519 67.488 43.7804 67.4293 43.9937 67.312C44.2124 67.1947 44.3697 67.0267 44.4657 66.808L44.9857 67.016C44.8257 67.352 44.5937 67.6107 44.2897 67.792C43.9857 67.968 43.631 68.056 43.2257 68.056ZM44.4177 65.688C44.423 65.4587 44.3724 65.256 44.2657 65.08C44.1644 64.904 44.0204 64.7653 43.8337 64.664C43.647 64.5627 43.431 64.512 43.1857 64.512C42.9724 64.512 42.7777 64.5627 42.6017 64.664C42.4257 64.7653 42.279 64.9067 42.1617 65.088C42.0497 65.264 41.983 65.464 41.9617 65.688H44.4177ZM46.3893 68.04C46.2666 68.04 46.1626 67.9973 46.0773 67.912C45.9973 67.8267 45.9573 67.7227 45.9573 67.6C45.9573 67.4773 45.9973 67.3733 46.0773 67.288C46.1626 67.2027 46.2666 67.16 46.3893 67.16C46.5066 67.16 46.608 67.2027 46.6933 67.288C46.7786 67.3733 46.8213 67.4773 46.8213 67.6C46.8213 67.7227 46.7786 67.8267 46.6933 67.912C46.608 67.9973 46.5066 68.04 46.3893 68.04Z" fill="white"/>
<path d="M60.352 62.96H57.32V64.872H59.6V65.432H57.32V67.44H60.352V68H56.68V62.4H60.352V62.96ZM61.707 63.528C61.707 63.2347 61.755 62.9867 61.851 62.784C61.947 62.5813 62.099 62.4347 62.307 62.344C62.5203 62.248 62.803 62.2133 63.155 62.24V62.776C62.835 62.7493 62.6137 62.8027 62.491 62.936C62.3683 63.064 62.307 63.2613 62.307 63.528V64H63.187V64.56H62.307V68H61.707V64.56H61.147V64H61.707V63.528ZM64.3008 63.528C64.3008 63.2347 64.3488 62.9867 64.4448 62.784C64.5408 62.5813 64.6928 62.4347 64.9008 62.344C65.1141 62.248 65.3968 62.2133 65.7488 62.24V62.776C65.4288 62.7493 65.2074 62.8027 65.0848 62.936C64.9621 63.064 64.9008 63.2613 64.9008 63.528V64H65.7808V64.56H64.9008V68H64.3008V64.56H63.7408V64H64.3008V63.528ZM68.4065 68.056C68.0278 68.056 67.6892 67.9733 67.3905 67.808C67.0918 67.6427 66.8572 67.408 66.6865 67.104C66.5158 66.7947 66.4305 66.4293 66.4305 66.008C66.4305 65.5813 66.5158 65.2133 66.6865 64.904C66.8625 64.5947 67.0998 64.3573 67.3985 64.192C67.7025 64.0267 68.0438 63.944 68.4225 63.944C68.8012 63.944 69.1398 64.0267 69.4385 64.192C69.7425 64.3573 69.9798 64.5947 70.1505 64.904C70.3265 65.208 70.4145 65.5707 70.4145 65.992C70.4145 66.4187 70.3265 66.7867 70.1505 67.096C69.9745 67.4053 69.7345 67.6427 69.4305 67.808C69.1265 67.9733 68.7852 68.056 68.4065 68.056ZM68.3985 67.488C68.6332 67.488 68.8545 67.4373 69.0625 67.336C69.2705 67.2293 69.4385 67.0667 69.5665 66.848C69.6998 66.624 69.7665 66.3413 69.7665 66C69.7665 65.6533 69.7025 65.3707 69.5745 65.152C69.4465 64.9333 69.2785 64.7733 69.0705 64.672C68.8678 64.5653 68.6492 64.512 68.4145 64.512C68.1798 64.512 67.9612 64.5653 67.7585 64.672C67.5558 64.7733 67.3905 64.936 67.2625 65.16C67.1398 65.3787 67.0785 65.6587 67.0785 66C67.0785 66.3467 67.1398 66.6293 67.2625 66.848C67.3852 67.0667 67.5452 67.2293 67.7425 67.336C67.9452 67.4373 68.1638 67.488 68.3985 67.488ZM71.3973 64H71.9493L71.9813 64.584C72.0879 64.44 72.2159 64.3173 72.3653 64.216C72.5199 64.1147 72.6879 64.0453 72.8693 64.008C73.0559 63.9653 73.2533 63.9627 73.4613 64V64.6C73.2373 64.5573 73.0346 64.5573 72.8533 64.6C72.6773 64.6427 72.5253 64.7227 72.3973 64.84C72.2693 64.9573 72.1706 65.1067 72.1013 65.288C72.0319 65.464 71.9973 65.6693 71.9973 65.904V68H71.3973V64ZM74.5361 64V62.88H75.1361V64H76.2001V64.56H75.1361V66.712C75.1361 66.9573 75.1867 67.136 75.2881 67.248C75.3947 67.36 75.5281 67.4267 75.6881 67.448C75.8534 67.4693 76.0241 67.4693 76.2001 67.448V67.968C75.9921 68.016 75.7867 68.0293 75.5841 68.008C75.3867 67.9867 75.2081 67.928 75.0481 67.832C74.8934 67.7307 74.7681 67.5893 74.6721 67.408C74.5814 67.2267 74.5361 66.9947 74.5361 66.712V64.56H73.9361V64H74.5361ZM77.0926 62.24H77.6926V68H77.0926V62.24ZM80.5929 68.056C80.2195 68.056 79.8862 67.9653 79.5929 67.784C79.3049 67.6027 79.0782 67.3547 78.9129 67.04C78.7475 66.7253 78.6649 66.3653 78.6649 65.96C78.6649 65.5707 78.7475 65.224 78.9129 64.92C79.0782 64.616 79.3049 64.3787 79.5929 64.208C79.8809 64.032 80.2089 63.944 80.5769 63.944C80.9395 63.944 81.2622 64.024 81.5449 64.184C81.8329 64.344 82.0569 64.5653 82.2169 64.848C82.3769 65.1307 82.4515 65.4533 82.4409 65.816C82.4409 65.8747 82.4382 65.936 82.4329 66C82.4275 66.064 82.4222 66.1333 82.4169 66.208H79.3209C79.3315 66.4587 79.3929 66.68 79.5049 66.872C79.6169 67.064 79.7635 67.216 79.9449 67.328C80.1315 67.4347 80.3422 67.488 80.5769 67.488C80.8862 67.488 81.1475 67.4293 81.3609 67.312C81.5795 67.1947 81.7369 67.0267 81.8329 66.808L82.3529 67.016C82.1929 67.352 81.9609 67.6107 81.6569 67.792C81.3529 67.968 80.9982 68.056 80.5929 68.056ZM81.7849 65.688C81.7902 65.4587 81.7395 65.256 81.6329 65.08C81.5315 64.904 81.3875 64.7653 81.2009 64.664C81.0142 64.5627 80.7982 64.512 80.5529 64.512C80.3395 64.512 80.1449 64.5627 79.9689 64.664C79.7929 64.7653 79.6462 64.9067 79.5289 65.088C79.4169 65.264 79.3502 65.464 79.3289 65.688H81.7849ZM83.7565 66.776C83.7885 66.936 83.8472 67.0693 83.9325 67.176C84.0178 67.2773 84.1272 67.3547 84.2605 67.408C84.3992 67.4613 84.5592 67.488 84.7405 67.488C85.0232 67.488 85.2365 67.4347 85.3805 67.328C85.5298 67.216 85.6045 67.0773 85.6045 66.912C85.6045 66.7733 85.5592 66.6613 85.4685 66.576C85.3832 66.4907 85.2685 66.4213 85.1245 66.368C84.9805 66.3093 84.8205 66.2587 84.6445 66.216C84.5058 66.184 84.3565 66.1467 84.1965 66.104C84.0365 66.056 83.8845 65.992 83.7405 65.912C83.5965 65.832 83.4792 65.728 83.3885 65.6C83.2978 65.472 83.2525 65.304 83.2525 65.096C83.2525 64.8667 83.3138 64.6667 83.4365 64.496C83.5645 64.32 83.7378 64.184 83.9565 64.088C84.1805 63.992 84.4365 63.944 84.7245 63.944C85.0552 63.944 85.3485 64.016 85.6045 64.16C85.8658 64.304 86.0472 64.528 86.1485 64.832L85.5885 65.024C85.5512 64.8853 85.4818 64.7787 85.3805 64.704C85.2845 64.6293 85.1752 64.5787 85.0525 64.552C84.9352 64.5253 84.8178 64.512 84.7005 64.512C84.4605 64.512 84.2658 64.56 84.1165 64.656C83.9725 64.7467 83.9005 64.8853 83.9005 65.072C83.9005 65.1733 83.9245 65.2587 83.9725 65.328C84.0205 65.392 84.0872 65.4453 84.1725 65.488C84.2578 65.5307 84.3592 65.568 84.4765 65.6C84.5938 65.6267 84.7218 65.6587 84.8605 65.696C85.0152 65.7333 85.1725 65.7813 85.3325 65.84C85.4925 65.8933 85.6418 65.9653 85.7805 66.056C85.9192 66.1413 86.0312 66.2533 86.1165 66.392C86.2072 66.5253 86.2525 66.6933 86.2525 66.896C86.2525 67.1307 86.1885 67.336 86.0605 67.512C85.9325 67.6827 85.7538 67.816 85.5245 67.912C85.3005 68.008 85.0392 68.056 84.7405 68.056C84.3298 68.056 83.9885 67.9653 83.7165 67.784C83.4498 67.5973 83.2712 67.3253 83.1805 66.968L83.7565 66.776ZM87.5534 66.776C87.5854 66.936 87.644 67.0693 87.7294 67.176C87.8147 67.2773 87.924 67.3547 88.0574 67.408C88.196 67.4613 88.356 67.488 88.5374 67.488C88.82 67.488 89.0334 67.4347 89.1774 67.328C89.3267 67.216 89.4014 67.0773 89.4014 66.912C89.4014 66.7733 89.356 66.6613 89.2654 66.576C89.18 66.4907 89.0654 66.4213 88.9214 66.368C88.7774 66.3093 88.6174 66.2587 88.4414 66.216C88.3027 66.184 88.1534 66.1467 87.9934 66.104C87.8334 66.056 87.6814 65.992 87.5374 65.912C87.3934 65.832 87.276 65.728 87.1854 65.6C87.0947 65.472 87.0494 65.304 87.0494 65.096C87.0494 64.8667 87.1107 64.6667 87.2334 64.496C87.3614 64.32 87.5347 64.184 87.7534 64.088C87.9774 63.992 88.2334 63.944 88.5214 63.944C88.852 63.944 89.1454 64.016 89.4014 64.16C89.6627 64.304 89.844 64.528 89.9454 64.832L89.3854 65.024C89.348 64.8853 89.2787 64.7787 89.1774 64.704C89.0814 64.6293 88.972 64.5787 88.8494 64.552C88.732 64.5253 88.6147 64.512 88.4974 64.512C88.2574 64.512 88.0627 64.56 87.9134 64.656C87.7694 64.7467 87.6974 64.8853 87.6974 65.072C87.6974 65.1733 87.7214 65.2587 87.7694 65.328C87.8174 65.392 87.884 65.4453 87.9694 65.488C88.0547 65.5307 88.156 65.568 88.2734 65.6C88.3907 65.6267 88.5187 65.6587 88.6574 65.696C88.812 65.7333 88.9694 65.7813 89.1294 65.84C89.2894 65.8933 89.4387 65.9653 89.5774 66.056C89.716 66.1413 89.828 66.2533 89.9134 66.392C90.004 66.5253 90.0494 66.6933 90.0494 66.896C90.0494 67.1307 89.9854 67.336 89.8574 67.512C89.7294 67.6827 89.5507 67.816 89.3214 67.912C89.0974 68.008 88.836 68.056 88.5374 68.056C88.1267 68.056 87.7854 67.9653 87.5134 67.784C87.2467 67.5973 87.068 67.3253 86.9774 66.968L87.5534 66.776ZM91.0223 62.24H91.6223V68H91.0223V62.24ZM95.5546 64H96.1786L93.8906 69.6H93.3146L93.9946 67.944L92.3786 64H93.0346L94.3146 67.232L95.5546 64ZM99.5623 66.576C99.5943 66.72 99.661 66.864 99.7623 67.008C99.869 67.1467 100.013 67.264 100.194 67.36C100.381 67.4507 100.618 67.496 100.906 67.496C101.317 67.496 101.621 67.4 101.818 67.208C102.016 67.016 102.114 66.7893 102.114 66.528C102.114 66.32 102.058 66.1493 101.946 66.016C101.834 65.8827 101.682 65.7733 101.49 65.688C101.298 65.5973 101.082 65.5173 100.842 65.448C100.629 65.3893 100.416 65.3253 100.202 65.256C99.9943 65.1813 99.805 65.0907 99.6343 64.984C99.4636 64.872 99.3276 64.728 99.2263 64.552C99.125 64.376 99.0743 64.1573 99.0743 63.896C99.0743 63.5813 99.149 63.3093 99.2983 63.08C99.4476 62.8453 99.6583 62.664 99.9303 62.536C100.202 62.408 100.52 62.344 100.882 62.344C101.197 62.344 101.472 62.3893 101.706 62.48C101.941 62.5707 102.136 62.6987 102.29 62.864C102.45 63.024 102.568 63.2107 102.642 63.424L102.074 63.64C102.037 63.5173 101.965 63.4 101.858 63.288C101.752 63.1707 101.613 63.0747 101.442 63C101.272 62.9253 101.077 62.888 100.858 62.888C100.645 62.888 100.45 62.9253 100.274 63C100.104 63.0747 99.9676 63.1813 99.8663 63.32C99.765 63.4587 99.7143 63.6267 99.7143 63.824C99.7143 64.0373 99.773 64.208 99.8903 64.336C100.013 64.4587 100.173 64.56 100.37 64.64C100.573 64.7147 100.794 64.7867 101.034 64.856C101.253 64.9253 101.464 65 101.666 65.08C101.874 65.16 102.058 65.2587 102.218 65.376C102.384 65.4933 102.514 65.64 102.61 65.816C102.706 65.992 102.754 66.208 102.754 66.464C102.754 66.7467 102.688 67.0107 102.554 67.256C102.421 67.496 102.218 67.6907 101.946 67.84C101.68 67.984 101.336 68.056 100.914 68.056C100.562 68.056 100.253 68.0027 99.9863 67.896C99.7196 67.784 99.501 67.6347 99.3303 67.448C99.1596 67.2613 99.0423 67.048 98.9783 66.808L99.5623 66.576ZM104.036 64V62.88H104.636V64H105.7V64.56H104.636V66.712C104.636 66.9573 104.687 67.136 104.788 67.248C104.895 67.36 105.028 67.4267 105.188 67.448C105.353 67.4693 105.524 67.4693 105.7 67.448V67.968C105.492 68.016 105.287 68.0293 105.084 68.008C104.887 67.9867 104.708 67.928 104.548 67.832C104.393 67.7307 104.268 67.5893 104.172 67.408C104.081 67.2267 104.036 66.9947 104.036 66.712V64.56H103.436V64H104.036ZM106.593 64H107.145L107.177 64.584C107.283 64.44 107.411 64.3173 107.561 64.216C107.715 64.1147 107.883 64.0453 108.065 64.008C108.251 63.9653 108.449 63.9627 108.657 64V64.6C108.433 64.5573 108.23 64.5573 108.049 64.6C107.873 64.6427 107.721 64.7227 107.593 64.84C107.465 64.9573 107.366 65.1067 107.297 65.288C107.227 65.464 107.193 65.6693 107.193 65.904V68H106.593V64ZM111.155 68.056C110.782 68.056 110.449 67.9653 110.155 67.784C109.867 67.6027 109.641 67.3547 109.475 67.04C109.31 66.7253 109.227 66.3653 109.227 65.96C109.227 65.5707 109.31 65.224 109.475 64.92C109.641 64.616 109.867 64.3787 110.155 64.208C110.443 64.032 110.771 63.944 111.139 63.944C111.502 63.944 111.825 64.024 112.107 64.184C112.395 64.344 112.619 64.5653 112.779 64.848C112.939 65.1307 113.014 65.4533 113.003 65.816C113.003 65.8747 113.001 65.936 112.995 66C112.99 66.064 112.985 66.1333 112.979 66.208H109.883C109.894 66.4587 109.955 66.68 110.067 66.872C110.179 67.064 110.326 67.216 110.507 67.328C110.694 67.4347 110.905 67.488 111.139 67.488C111.449 67.488 111.71 67.4293 111.923 67.312C112.142 67.1947 112.299 67.0267 112.395 66.808L112.915 67.016C112.755 67.352 112.523 67.6107 112.219 67.792C111.915 67.968 111.561 68.056 111.155 68.056ZM112.347 65.688C112.353 65.4587 112.302 65.256 112.195 65.08C112.094 64.904 111.95 64.7653 111.763 64.664C111.577 64.5627 111.361 64.512 111.115 64.512C110.902 64.512 110.707 64.5627 110.531 64.664C110.355 64.7653 110.209 64.9067 110.091 65.088C109.979 65.264 109.913 65.464 109.891 65.688H112.347ZM116.495 68L116.447 67.28C116.335 67.5253 116.17 67.7173 115.951 67.856C115.732 67.9893 115.455 68.056 115.119 68.056C114.831 68.056 114.586 68.0107 114.383 67.92C114.18 67.8293 114.023 67.7013 113.911 67.536C113.804 67.3653 113.751 67.1653 113.751 66.936C113.751 66.6 113.876 66.3253 114.127 66.112C114.378 65.8933 114.74 65.76 115.215 65.712L116.447 65.576V65.256C116.447 65.032 116.364 64.8533 116.199 64.72C116.034 64.5813 115.81 64.512 115.527 64.512C115.25 64.512 115.018 64.576 114.831 64.704C114.65 64.832 114.524 65.016 114.455 65.256L113.911 65.064C114.018 64.712 114.212 64.4373 114.495 64.24C114.783 64.0427 115.132 63.944 115.543 63.944C116.018 63.944 116.386 64.0667 116.647 64.312C116.914 64.552 117.047 64.88 117.047 65.296V68H116.495ZM116.447 66.088L115.207 66.232C114.94 66.264 114.738 66.3387 114.599 66.456C114.46 66.568 114.391 66.7173 114.391 66.904C114.391 67.0907 114.458 67.24 114.591 67.352C114.73 67.464 114.927 67.52 115.183 67.52C115.476 67.52 115.716 67.4613 115.903 67.344C116.09 67.2267 116.226 67.0693 116.311 66.872C116.402 66.6693 116.447 66.4507 116.447 66.216V66.088ZM118.218 64H118.77L118.81 64.576C118.927 64.384 119.084 64.232 119.282 64.12C119.484 64.0027 119.724 63.944 120.002 63.944C120.284 63.944 120.54 64.0133 120.77 64.152C121.004 64.2853 121.186 64.4853 121.314 64.752C121.436 64.48 121.623 64.2773 121.874 64.144C122.124 64.0107 122.402 63.944 122.706 63.944C123.004 63.944 123.268 64.0107 123.498 64.144C123.727 64.272 123.906 64.4667 124.034 64.728C124.162 64.984 124.226 65.3067 124.226 65.696V68H123.626V65.768C123.626 65.352 123.535 65.0373 123.354 64.824C123.178 64.6053 122.924 64.496 122.594 64.496C122.258 64.496 121.991 64.6133 121.794 64.848C121.596 65.0773 121.498 65.4187 121.498 65.872V68H120.898V65.768C120.898 65.352 120.812 65.0373 120.642 64.824C120.471 64.6053 120.22 64.496 119.89 64.496C119.554 64.496 119.29 64.6133 119.098 64.848C118.911 65.0773 118.818 65.4187 118.818 65.872V68H118.218V64ZM125.389 62.24H125.989V68H125.389V62.24ZM127.33 64H127.922V68H127.33V64ZM127.634 63.2C127.511 63.2 127.41 63.16 127.33 63.08C127.25 63 127.21 62.9013 127.21 62.784C127.21 62.6613 127.25 62.56 127.33 62.48C127.41 62.4 127.511 62.36 127.634 62.36C127.746 62.36 127.842 62.4 127.922 62.48C128.007 62.56 128.05 62.6613 128.05 62.784C128.05 62.9013 128.007 63 127.922 63.08C127.842 63.16 127.746 63.2 127.634 63.2ZM129.272 64H129.824L129.856 64.568C129.984 64.3707 130.152 64.2187 130.36 64.112C130.568 64 130.811 63.944 131.088 63.944C131.392 63.944 131.659 64.0107 131.888 64.144C132.118 64.272 132.296 64.4667 132.424 64.728C132.552 64.984 132.616 65.3067 132.616 65.696V68H132.016V65.768C132.016 65.352 131.926 65.0373 131.744 64.824C131.568 64.6053 131.312 64.496 130.976 64.496C130.63 64.496 130.358 64.6107 130.16 64.84C129.968 65.0693 129.872 65.408 129.872 65.856V68H129.272V64ZM135.46 68.056C135.087 68.056 134.753 67.9653 134.46 67.784C134.172 67.6027 133.945 67.3547 133.78 67.04C133.615 66.7253 133.532 66.3653 133.532 65.96C133.532 65.5707 133.615 65.224 133.78 64.92C133.945 64.616 134.172 64.3787 134.46 64.208C134.748 64.032 135.076 63.944 135.444 63.944C135.807 63.944 136.129 64.024 136.412 64.184C136.7 64.344 136.924 64.5653 137.084 64.848C137.244 65.1307 137.319 65.4533 137.308 65.816C137.308 65.8747 137.305 65.936 137.3 66C137.295 66.064 137.289 66.1333 137.284 66.208H134.188C134.199 66.4587 134.26 66.68 134.372 66.872C134.484 67.064 134.631 67.216 134.812 67.328C134.999 67.4347 135.209 67.488 135.444 67.488C135.753 67.488 136.015 67.4293 136.228 67.312C136.447 67.1947 136.604 67.0267 136.7 66.808L137.22 67.016C137.06 67.352 136.828 67.6107 136.524 67.792C136.22 67.968 135.865 68.056 135.46 68.056ZM136.652 65.688C136.657 65.4587 136.607 65.256 136.5 65.08C136.399 64.904 136.255 64.7653 136.068 64.664C135.881 64.5627 135.665 64.512 135.42 64.512C135.207 64.512 135.012 64.5627 134.836 64.664C134.66 64.7653 134.513 64.9067 134.396 65.088C134.284 65.264 134.217 65.464 134.196 65.688H136.652Z" fill="white"/>
<path d="M20.248 84.4H20.96L18.912 87.848V90H18.272V87.856L16.224 84.4H16.936L18.592 87.24L20.248 84.4ZM23.5393 90.056C23.1606 90.056 22.822 89.9733 22.5233 89.808C22.2246 89.6427 21.99 89.408 21.8193 89.104C21.6486 88.7947 21.5633 88.4293 21.5633 88.008C21.5633 87.5813 21.6486 87.2133 21.8193 86.904C21.9953 86.5947 22.2326 86.3573 22.5313 86.192C22.8353 86.0267 23.1766 85.944 23.5553 85.944C23.934 85.944 24.2726 86.0267 24.5713 86.192C24.8753 86.3573 25.1126 86.5947 25.2833 86.904C25.4593 87.208 25.5473 87.5707 25.5473 87.992C25.5473 88.4187 25.4593 88.7867 25.2833 89.096C25.1073 89.4053 24.8673 89.6427 24.5633 89.808C24.2593 89.9733 23.918 90.056 23.5393 90.056ZM23.5313 89.488C23.766 89.488 23.9873 89.4373 24.1953 89.336C24.4033 89.2293 24.5713 89.0667 24.6993 88.848C24.8326 88.624 24.8993 88.3413 24.8993 88C24.8993 87.6533 24.8353 87.3707 24.7073 87.152C24.5793 86.9333 24.4113 86.7733 24.2033 86.672C24.0006 86.5653 23.782 86.512 23.5473 86.512C23.3126 86.512 23.094 86.5653 22.8913 86.672C22.6886 86.7733 22.5233 86.936 22.3953 87.16C22.2726 87.3787 22.2113 87.6587 22.2113 88C22.2113 88.3467 22.2726 88.6293 22.3953 88.848C22.518 89.0667 22.678 89.2293 22.8753 89.336C23.078 89.4373 23.2966 89.488 23.5313 89.488ZM29.8021 90H29.2581L29.2181 89.424C29.0954 89.6267 28.9301 89.784 28.7221 89.896C28.5141 90.0027 28.2714 90.056 27.9941 90.056C27.6847 90.056 27.4154 89.992 27.1861 89.864C26.9567 89.736 26.7781 89.544 26.6501 89.288C26.5274 89.032 26.4661 88.7093 26.4661 88.32V86H27.0581V88.256C27.0581 88.6667 27.1461 88.9787 27.3221 89.192C27.5034 89.4 27.7621 89.504 28.0981 89.504C28.4394 89.504 28.7087 89.3947 28.9061 89.176C29.1087 88.952 29.2101 88.616 29.2101 88.168V86H29.8021V90ZM31.0223 86H31.5743L31.6063 86.584C31.7129 86.44 31.8409 86.3173 31.9903 86.216C32.1449 86.1147 32.3129 86.0453 32.4943 86.008C32.6809 85.9653 32.8783 85.9627 33.0863 86V86.6C32.8623 86.5573 32.6596 86.5573 32.4783 86.6C32.3023 86.6427 32.1503 86.7227 32.0223 86.84C31.8943 86.9573 31.7956 87.1067 31.7263 87.288C31.6569 87.464 31.6223 87.6693 31.6223 87.904V90H31.0223V86ZM38.3633 84.96H38.0993L36.2513 90H35.6033L37.6513 84.4H38.8033L40.8433 90H40.1953L38.3633 84.96ZM36.6033 87.968H39.8673V88.528H36.6033V87.968ZM41.5863 84.4H42.2263V90H41.5863V84.4ZM47.6524 90H46.9484L45.3724 84.4H46.0524L47.3004 89.224L48.6764 84.4H49.3884L50.7564 89.216L52.0124 84.4H52.6844L51.1084 90H50.4044L49.0284 85.36L47.6524 90ZM55.2581 90.056C54.8794 90.056 54.5407 89.9733 54.2421 89.808C53.9434 89.6427 53.7087 89.408 53.5381 89.104C53.3674 88.7947 53.2821 88.4293 53.2821 88.008C53.2821 87.5813 53.3674 87.2133 53.5381 86.904C53.7141 86.5947 53.9514 86.3573 54.2501 86.192C54.5541 86.0267 54.8954 85.944 55.2741 85.944C55.6527 85.944 55.9914 86.0267 56.2901 86.192C56.5941 86.3573 56.8314 86.5947 57.0021 86.904C57.1781 87.208 57.2661 87.5707 57.2661 87.992C57.2661 88.4187 57.1781 88.7867 57.0021 89.096C56.8261 89.4053 56.5861 89.6427 56.2821 89.808C55.9781 89.9733 55.6367 90.056 55.2581 90.056ZM55.2501 89.488C55.4847 89.488 55.7061 89.4373 55.9141 89.336C56.1221 89.2293 56.2901 89.0667 56.4181 88.848C56.5514 88.624 56.6181 88.3413 56.6181 88C56.6181 87.6533 56.5541 87.3707 56.4261 87.152C56.2981 86.9333 56.1301 86.7733 55.9221 86.672C55.7194 86.5653 55.5007 86.512 55.2661 86.512C55.0314 86.512 54.8127 86.5653 54.6101 86.672C54.4074 86.7733 54.2421 86.936 54.1141 87.16C53.9914 87.3787 53.9301 87.6587 53.9301 88C53.9301 88.3467 53.9914 88.6293 54.1141 88.848C54.2367 89.0667 54.3967 89.2293 54.5941 89.336C54.7967 89.4373 55.0154 89.488 55.2501 89.488ZM58.2488 86H58.8008L58.8328 86.584C58.9395 86.44 59.0675 86.3173 59.2168 86.216C59.3715 86.1147 59.5395 86.0453 59.7208 86.008C59.9075 85.9653 60.1048 85.9627 60.3128 86V86.6C60.0888 86.5573 59.8861 86.5573 59.7048 86.6C59.5288 86.6427 59.3768 86.7227 59.2488 86.84C59.1208 86.9573 59.0221 87.1067 58.9528 87.288C58.8835 87.464 58.8488 87.6693 58.8488 87.904V90H58.2488V86ZM61.1316 84.24H61.7396V87.736H62.1076L63.6836 86H64.5316L62.6436 88L64.5396 90H63.6836L62.1076 88.256H61.7396V90H61.1316V84.24ZM65.4883 85.528C65.4883 85.2347 65.5363 84.9867 65.6323 84.784C65.7283 84.5813 65.8803 84.4347 66.0883 84.344C66.3016 84.248 66.5843 84.2133 66.9363 84.24V84.776C66.6163 84.7493 66.3949 84.8027 66.2723 84.936C66.1496 85.064 66.0883 85.2613 66.0883 85.528V86H66.9683V86.56H66.0883V90H65.4883V86.56H64.9283V86H65.4883V85.528ZM67.866 84.24H68.466V90H67.866V84.24ZM71.4143 90.056C71.0356 90.056 70.697 89.9733 70.3983 89.808C70.0996 89.6427 69.865 89.408 69.6943 89.104C69.5236 88.7947 69.4383 88.4293 69.4383 88.008C69.4383 87.5813 69.5236 87.2133 69.6943 86.904C69.8703 86.5947 70.1076 86.3573 70.4063 86.192C70.7103 86.0267 71.0516 85.944 71.4303 85.944C71.809 85.944 72.1476 86.0267 72.4463 86.192C72.7503 86.3573 72.9876 86.5947 73.1583 86.904C73.3343 87.208 73.4223 87.5707 73.4223 87.992C73.4223 88.4187 73.3343 88.7867 73.1583 89.096C72.9823 89.4053 72.7423 89.6427 72.4383 89.808C72.1343 89.9733 71.793 90.056 71.4143 90.056ZM71.4063 89.488C71.641 89.488 71.8623 89.4373 72.0703 89.336C72.2783 89.2293 72.4463 89.0667 72.5743 88.848C72.7076 88.624 72.7743 88.3413 72.7743 88C72.7743 87.6533 72.7103 87.3707 72.5823 87.152C72.4543 86.9333 72.2863 86.7733 72.0783 86.672C71.8756 86.5653 71.657 86.512 71.4223 86.512C71.1876 86.512 70.969 86.5653 70.7663 86.672C70.5636 86.7733 70.3983 86.936 70.2703 87.16C70.1476 87.3787 70.0863 87.6587 70.0863 88C70.0863 88.3467 70.1476 88.6293 70.2703 88.848C70.393 89.0667 70.553 89.2293 70.7503 89.336C70.953 89.4373 71.1716 89.488 71.4063 89.488ZM75.7971 90H75.2531L73.9971 86H74.6051L75.5251 89.256L76.5571 86H77.1011L78.1171 89.248L79.0291 86H79.6211L78.3731 90H77.8211L76.8131 86.896L75.7971 90ZM85.1825 90L85.1345 89.28C85.0225 89.5253 84.8572 89.7173 84.6385 89.856C84.4198 89.9893 84.1425 90.056 83.8065 90.056C83.5185 90.056 83.2732 90.0107 83.0705 89.92C82.8678 89.8293 82.7105 89.7013 82.5985 89.536C82.4918 89.3653 82.4385 89.1653 82.4385 88.936C82.4385 88.6 82.5638 88.3253 82.8145 88.112C83.0652 87.8933 83.4278 87.76 83.9025 87.712L85.1345 87.576V87.256C85.1345 87.032 85.0518 86.8533 84.8865 86.72C84.7212 86.5813 84.4972 86.512 84.2145 86.512C83.9372 86.512 83.7052 86.576 83.5185 86.704C83.3372 86.832 83.2118 87.016 83.1425 87.256L82.5985 87.064C82.7052 86.712 82.8998 86.4373 83.1825 86.24C83.4705 86.0427 83.8198 85.944 84.2305 85.944C84.7052 85.944 85.0732 86.0667 85.3345 86.312C85.6012 86.552 85.7345 86.88 85.7345 87.296V90H85.1825ZM85.1345 88.088L83.8945 88.232C83.6278 88.264 83.4252 88.3387 83.2865 88.456C83.1478 88.568 83.0785 88.7173 83.0785 88.904C83.0785 89.0907 83.1452 89.24 83.2785 89.352C83.4172 89.464 83.6145 89.52 83.8705 89.52C84.1638 89.52 84.4038 89.4613 84.5905 89.344C84.7772 89.2267 84.9132 89.0693 84.9985 88.872C85.0892 88.6693 85.1345 88.4507 85.1345 88.216V88.088ZM86.9051 86H87.4571L87.4891 86.568C87.6171 86.3707 87.7851 86.2187 87.9931 86.112C88.2011 86 88.4437 85.944 88.7211 85.944C89.0251 85.944 89.2917 86.0107 89.5211 86.144C89.7504 86.272 89.9291 86.4667 90.0571 86.728C90.1851 86.984 90.2491 87.3067 90.2491 87.696V90H89.6491V87.768C89.6491 87.352 89.5584 87.0373 89.3771 86.824C89.2011 86.6053 88.9451 86.496 88.6091 86.496C88.2624 86.496 87.9904 86.6107 87.7931 86.84C87.6011 87.0693 87.5051 87.408 87.5051 87.856V90H86.9051V86ZM94.5009 86.808L94.4369 86.816V84.24H95.0369V90H94.4849L94.4449 89.256C94.3222 89.48 94.1382 89.6693 93.8929 89.824C93.6529 89.9787 93.3542 90.056 92.9969 90.056C92.6289 90.056 92.3062 89.9733 92.0289 89.808C91.7569 89.6373 91.5435 89.3973 91.3889 89.088C91.2395 88.7787 91.1649 88.416 91.1649 88C91.1649 87.584 91.2395 87.224 91.3889 86.92C91.5435 86.6107 91.7569 86.3707 92.0289 86.2C92.3062 86.0293 92.6289 85.944 92.9969 85.944C93.3755 85.944 93.6902 86.0267 93.9409 86.192C94.1915 86.3573 94.3782 86.5627 94.5009 86.808ZM91.8129 88C91.8129 88.4587 91.9302 88.824 92.1649 89.096C92.3995 89.3627 92.7195 89.496 93.1249 89.496C93.3755 89.496 93.5995 89.4373 93.7969 89.32C93.9942 89.2027 94.1489 89.032 94.2609 88.808C94.3782 88.584 94.4369 88.3147 94.4369 88C94.4369 87.6853 94.3782 87.4187 94.2609 87.2C94.1489 86.976 93.9942 86.8053 93.7969 86.688C93.5995 86.5653 93.3755 86.504 93.1249 86.504C92.7249 86.504 92.4049 86.64 92.1649 86.912C91.9302 87.1787 91.8129 87.5413 91.8129 88ZM99.2106 90H98.5706V84.4H99.2746L101.355 89.12L103.427 84.4H104.123V90H103.483V85.664L101.579 90H101.123L99.2106 85.664V90ZM107.925 90L107.877 89.28C107.765 89.5253 107.599 89.7173 107.381 89.856C107.162 89.9893 106.885 90.056 106.549 90.056C106.261 90.056 106.015 90.0107 105.813 89.92C105.61 89.8293 105.453 89.7013 105.341 89.536C105.234 89.3653 105.181 89.1653 105.181 88.936C105.181 88.6 105.306 88.3253 105.557 88.112C105.807 87.8933 106.17 87.76 106.645 87.712L107.877 87.576V87.256C107.877 87.032 107.794 86.8533 107.629 86.72C107.463 86.5813 107.239 86.512 106.957 86.512C106.679 86.512 106.447 86.576 106.261 86.704C106.079 86.832 105.954 87.016 105.885 87.256L105.341 87.064C105.447 86.712 105.642 86.4373 105.925 86.24C106.213 86.0427 106.562 85.944 106.973 85.944C107.447 85.944 107.815 86.0667 108.077 86.312C108.343 86.552 108.477 86.88 108.477 87.296V90H107.925ZM107.877 88.088L106.637 88.232C106.37 88.264 106.167 88.3387 106.029 88.456C105.89 88.568 105.821 88.7173 105.821 88.904C105.821 89.0907 105.887 89.24 106.021 89.352C106.159 89.464 106.357 89.52 106.613 89.52C106.906 89.52 107.146 89.4613 107.333 89.344C107.519 89.2267 107.655 89.0693 107.741 88.872C107.831 88.6693 107.877 88.4507 107.877 88.216V88.088ZM109.279 86H109.967L110.991 87.528L112.015 86H112.711L111.327 87.992L112.711 90H112.015L110.991 88.456L109.967 90H109.279L110.663 87.992L109.279 86ZM113.697 86H114.289V90H113.697V86ZM114.001 85.2C113.878 85.2 113.777 85.16 113.697 85.08C113.617 85 113.577 84.9013 113.577 84.784C113.577 84.6613 113.617 84.56 113.697 84.48C113.777 84.4 113.878 84.36 114.001 84.36C114.113 84.36 114.209 84.4 114.289 84.48C114.374 84.56 114.417 84.6613 114.417 84.784C114.417 84.9013 114.374 85 114.289 85.08C114.209 85.16 114.113 85.2 114.001 85.2ZM115.639 86H116.191L116.231 86.576C116.349 86.384 116.506 86.232 116.703 86.12C116.906 86.0027 117.146 85.944 117.423 85.944C117.706 85.944 117.962 86.0133 118.191 86.152C118.426 86.2853 118.607 86.4853 118.735 86.752C118.858 86.48 119.045 86.2773 119.295 86.144C119.546 86.0107 119.823 85.944 120.127 85.944C120.426 85.944 120.69 86.0107 120.919 86.144C121.149 86.272 121.327 86.4667 121.455 86.728C121.583 86.984 121.647 87.3067 121.647 87.696V90H121.047V87.768C121.047 87.352 120.957 87.0373 120.775 86.824C120.599 86.6053 120.346 86.496 120.015 86.496C119.679 86.496 119.413 86.6133 119.215 86.848C119.018 87.0773 118.919 87.4187 118.919 87.872V90H118.319V87.768C118.319 87.352 118.234 87.0373 118.063 86.824C117.893 86.6053 117.642 86.496 117.311 86.496C116.975 86.496 116.711 86.6133 116.519 86.848C116.333 87.0773 116.239 87.4187 116.239 87.872V90H115.639V86ZM122.931 86H123.523V90H122.931V86ZM123.235 85.2C123.113 85.2 123.011 85.16 122.931 85.08C122.851 85 122.811 84.9013 122.811 84.784C122.811 84.6613 122.851 84.56 122.931 84.48C123.011 84.4 123.113 84.36 123.235 84.36C123.347 84.36 123.443 84.4 123.523 84.48C123.609 84.56 123.651 84.6613 123.651 84.784C123.651 84.9013 123.609 85 123.523 85.08C123.443 85.16 123.347 85.2 123.235 85.2ZM127.658 86.52L125.41 89.44H127.682V90H124.658V89.48L126.906 86.56H124.682V86H127.658V86.52ZM130.382 90.056C130.009 90.056 129.675 89.9653 129.382 89.784C129.094 89.6027 128.867 89.3547 128.702 89.04C128.537 88.7253 128.454 88.3653 128.454 87.96C128.454 87.5707 128.537 87.224 128.702 86.92C128.867 86.616 129.094 86.3787 129.382 86.208C129.67 86.032 129.998 85.944 130.366 85.944C130.729 85.944 131.051 86.024 131.334 86.184C131.622 86.344 131.846 86.5653 132.006 86.848C132.166 87.1307 132.241 87.4533 132.23 87.816C132.23 87.8747 132.227 87.936 132.222 88C132.217 88.064 132.211 88.1333 132.206 88.208H129.11C129.121 88.4587 129.182 88.68 129.294 88.872C129.406 89.064 129.553 89.216 129.734 89.328C129.921 89.4347 130.131 89.488 130.366 89.488C130.675 89.488 130.937 89.4293 131.15 89.312C131.369 89.1947 131.526 89.0267 131.622 88.808L132.142 89.016C131.982 89.352 131.75 89.6107 131.446 89.792C131.142 89.968 130.787 90.056 130.382 90.056ZM131.574 87.688C131.579 87.4587 131.529 87.256 131.422 87.08C131.321 86.904 131.177 86.7653 130.99 86.664C130.803 86.5627 130.587 86.512 130.342 86.512C130.129 86.512 129.934 86.5627 129.758 86.664C129.582 86.7653 129.435 86.9067 129.318 87.088C129.206 87.264 129.139 87.464 129.118 87.688H131.574Z" fill="white"/>
<path d="M17.152 111.192L17.216 111.184V113.6H16.616V108H17.168L17.208 108.744C17.3307 108.52 17.512 108.331 17.752 108.176C17.992 108.021 18.2933 107.944 18.656 107.944C19.0027 107.944 19.3147 108.029 19.592 108.2C19.8693 108.365 20.088 108.603 20.248 108.912C20.408 109.216 20.488 109.579 20.488 110C20.488 110.416 20.4107 110.779 20.256 111.088C20.1067 111.392 19.8933 111.629 19.616 111.8C19.344 111.971 19.024 112.056 18.656 112.056C18.272 112.056 17.9547 111.973 17.704 111.808C17.4533 111.643 17.2693 111.437 17.152 111.192ZM19.84 110C19.84 109.541 19.72 109.179 19.48 108.912C19.2453 108.64 18.928 108.504 18.528 108.504C18.2773 108.504 18.0507 108.563 17.848 108.68C17.6507 108.797 17.496 108.968 17.384 109.192C17.272 109.416 17.216 109.685 17.216 110C17.216 110.309 17.272 110.576 17.384 110.8C17.496 111.024 17.6507 111.197 17.848 111.32C18.0507 111.437 18.2773 111.496 18.528 111.496C18.928 111.496 19.2453 111.363 19.48 111.096C19.72 110.824 19.84 110.459 19.84 110ZM21.4676 108H22.0196L22.0516 108.584C22.1582 108.44 22.2862 108.317 22.4356 108.216C22.5902 108.115 22.7582 108.045 22.9396 108.008C23.1262 107.965 23.3236 107.963 23.5316 108V108.6C23.3076 108.557 23.1049 108.557 22.9236 108.6C22.7476 108.643 22.5956 108.723 22.4676 108.84C22.3396 108.957 22.2409 109.107 22.1716 109.288C22.1022 109.464 22.0676 109.669 22.0676 109.904V112H21.4676V108ZM26.0784 112.056C25.6997 112.056 25.361 111.973 25.0624 111.808C24.7637 111.643 24.529 111.408 24.3584 111.104C24.1877 110.795 24.1024 110.429 24.1024 110.008C24.1024 109.581 24.1877 109.213 24.3584 108.904C24.5344 108.595 24.7717 108.357 25.0704 108.192C25.3744 108.027 25.7157 107.944 26.0944 107.944C26.473 107.944 26.8117 108.027 27.1104 108.192C27.4144 108.357 27.6517 108.595 27.8224 108.904C27.9984 109.208 28.0864 109.571 28.0864 109.992C28.0864 110.419 27.9984 110.787 27.8224 111.096C27.6464 111.405 27.4064 111.643 27.1024 111.808C26.7984 111.973 26.457 112.056 26.0784 112.056ZM26.0704 111.488C26.305 111.488 26.5264 111.437 26.7344 111.336C26.9424 111.229 27.1104 111.067 27.2384 110.848C27.3717 110.624 27.4384 110.341 27.4384 110C27.4384 109.653 27.3744 109.371 27.2464 109.152C27.1184 108.933 26.9504 108.773 26.7424 108.672C26.5397 108.565 26.321 108.512 26.0864 108.512C25.8517 108.512 25.633 108.565 25.4304 108.672C25.2277 108.773 25.0624 108.936 24.9344 109.16C24.8117 109.379 24.7504 109.659 24.7504 110C24.7504 110.347 24.8117 110.629 24.9344 110.848C25.057 111.067 25.217 111.229 25.4144 111.336C25.617 111.437 25.8357 111.488 26.0704 111.488ZM32.1571 108.808L32.0931 108.816V106.24H32.6931V112H32.1411L32.1011 111.256C31.9785 111.48 31.7945 111.669 31.5491 111.824C31.3091 111.979 31.0105 112.056 30.6531 112.056C30.2851 112.056 29.9625 111.973 29.6851 111.808C29.4131 111.637 29.1998 111.397 29.0451 111.088C28.8958 110.779 28.8211 110.416 28.8211 110C28.8211 109.584 28.8958 109.224 29.0451 108.92C29.1998 108.611 29.4131 108.371 29.6851 108.2C29.9625 108.029 30.2851 107.944 30.6531 107.944C31.0318 107.944 31.3465 108.027 31.5971 108.192C31.8478 108.357 32.0345 108.563 32.1571 108.808ZM29.4691 110C29.4691 110.459 29.5865 110.824 29.8211 111.096C30.0558 111.363 30.3758 111.496 30.7811 111.496C31.0318 111.496 31.2558 111.437 31.4531 111.32C31.6505 111.203 31.8051 111.032 31.9171 110.808C32.0345 110.584 32.0931 110.315 32.0931 110C32.0931 109.685 32.0345 109.419 31.9171 109.2C31.8051 108.976 31.6505 108.805 31.4531 108.688C31.2558 108.565 31.0318 108.504 30.7811 108.504C30.3811 108.504 30.0611 108.64 29.8211 108.912C29.5865 109.179 29.4691 109.541 29.4691 110ZM37.1927 112H36.6487L36.6087 111.424C36.486 111.627 36.3207 111.784 36.1127 111.896C35.9047 112.003 35.662 112.056 35.3847 112.056C35.0754 112.056 34.806 111.992 34.5767 111.864C34.3474 111.736 34.1687 111.544 34.0407 111.288C33.918 111.032 33.8567 110.709 33.8567 110.32V108H34.4487V110.256C34.4487 110.667 34.5367 110.979 34.7127 111.192C34.894 111.4 35.1527 111.504 35.4887 111.504C35.83 111.504 36.0994 111.395 36.2967 111.176C36.4994 110.952 36.6007 110.616 36.6007 110.168V108H37.1927V112ZM40.1169 112.056C39.7275 112.056 39.3862 111.971 39.0929 111.8C38.7995 111.629 38.5702 111.392 38.4049 111.088C38.2449 110.779 38.1649 110.421 38.1649 110.016C38.1649 109.605 38.2449 109.245 38.4049 108.936C38.5702 108.621 38.7995 108.379 39.0929 108.208C39.3862 108.032 39.7275 107.944 40.1169 107.944C40.5275 107.944 40.8875 108.04 41.1969 108.232C41.5062 108.419 41.7302 108.68 41.8689 109.016L41.3169 109.208C41.2369 108.995 41.0902 108.827 40.8769 108.704C40.6689 108.576 40.4262 108.512 40.1489 108.512C39.8769 108.512 39.6395 108.573 39.4369 108.696C39.2395 108.819 39.0849 108.992 38.9729 109.216C38.8662 109.44 38.8129 109.704 38.8129 110.008C38.8129 110.456 38.9329 110.816 39.1729 111.088C39.4129 111.355 39.7329 111.488 40.1329 111.488C40.4049 111.488 40.6475 111.427 40.8609 111.304C41.0742 111.181 41.2315 111.016 41.3329 110.808L41.8769 111C41.7329 111.331 41.5062 111.589 41.1969 111.776C40.8875 111.963 40.5275 112.056 40.1169 112.056ZM43.1142 108V106.88H43.7142V108H44.7782V108.56H43.7142V110.712C43.7142 110.957 43.7649 111.136 43.8662 111.248C43.9729 111.36 44.1062 111.427 44.2662 111.448C44.4315 111.469 44.6022 111.469 44.7782 111.448V111.968C44.5702 112.016 44.3649 112.029 44.1622 112.008C43.9649 111.987 43.7862 111.928 43.6262 111.832C43.4715 111.731 43.3462 111.589 43.2502 111.408C43.1595 111.227 43.1142 110.995 43.1142 110.712V108.56H42.5142V108H43.1142ZM45.7907 108H46.3827V112H45.7907V108ZM46.0947 107.2C45.972 107.2 45.8707 107.16 45.7907 107.08C45.7107 107 45.6707 106.901 45.6707 106.784C45.6707 106.661 45.7107 106.56 45.7907 106.48C45.8707 106.4 45.972 106.36 46.0947 106.36C46.2067 106.36 46.3027 106.4 46.3827 106.48C46.468 106.56 46.5107 106.661 46.5107 106.784C46.5107 106.901 46.468 107 46.3827 107.08C46.3027 107.16 46.2067 107.2 46.0947 107.2ZM47.9652 108L49.2292 111.328L50.5012 108H51.1332L49.5332 112H48.9092L47.3252 108H47.9652ZM52.0719 108H52.6639V112H52.0719V108ZM52.3759 107.2C52.2533 107.2 52.1519 107.16 52.0719 107.08C51.9919 107 51.9519 106.901 51.9519 106.784C51.9519 106.661 51.9919 106.56 52.0719 106.48C52.1519 106.4 52.2533 106.36 52.3759 106.36C52.4879 106.36 52.5839 106.4 52.6639 106.48C52.7493 106.56 52.7919 106.661 52.7919 106.784C52.7919 106.901 52.7493 107 52.6639 107.08C52.5839 107.16 52.4879 107.2 52.3759 107.2ZM54.2704 108V106.88H54.8704V108H55.9344V108.56H54.8704V110.712C54.8704 110.957 54.9211 111.136 55.0224 111.248C55.1291 111.36 55.2624 111.427 55.4224 111.448C55.5878 111.469 55.7584 111.469 55.9344 111.448V111.968C55.7264 112.016 55.5211 112.029 55.3184 112.008C55.1211 111.987 54.9424 111.928 54.7824 111.832C54.6278 111.731 54.5024 111.589 54.4064 111.408C54.3158 111.227 54.2704 110.995 54.2704 110.712V108.56H53.6704V108H54.2704ZM59.5389 108H60.1629L57.8749 113.6H57.2989L57.9789 111.944L56.3629 108H57.0189L58.2989 111.232L59.5389 108ZM65.0587 112H64.3547L62.7787 106.4H63.4587L64.7067 111.224L66.0827 106.4H66.7947L68.1627 111.216L69.4187 106.4H70.0907L68.5147 112H67.8107L66.4347 107.36L65.0587 112ZM71.0563 108H71.6483V112H71.0563V108ZM71.3603 107.2C71.2376 107.2 71.1363 107.16 71.0563 107.08C70.9763 107 70.9363 106.901 70.9363 106.784C70.9363 106.661 70.9763 106.56 71.0563 106.48C71.1363 106.4 71.2376 106.36 71.3603 106.36C71.4723 106.36 71.5683 106.4 71.6483 106.48C71.7336 106.56 71.7763 106.661 71.7763 106.784C71.7763 106.901 71.7336 107 71.6483 107.08C71.5683 107.16 71.4723 107.2 71.3603 107.2ZM73.2548 108V106.88H73.8548V108H74.9188V108.56H73.8548V110.712C73.8548 110.957 73.9055 111.136 74.0068 111.248C74.1135 111.36 74.2468 111.427 74.4068 111.448C74.5721 111.469 74.7428 111.469 74.9188 111.448V111.968C74.7108 112.016 74.5055 112.029 74.3028 112.008C74.1055 111.987 73.9268 111.928 73.7668 111.832C73.6121 111.731 73.4868 111.589 73.3908 111.408C73.3001 111.227 73.2548 110.995 73.2548 110.712V108.56H72.6548V108H73.2548ZM75.8113 106.24H76.4113V108.544C76.5393 108.352 76.7126 108.205 76.9313 108.104C77.15 107.997 77.3953 107.944 77.6673 107.944C77.9606 107.944 78.222 108.011 78.4513 108.144C78.6806 108.277 78.8593 108.475 78.9873 108.736C79.1206 108.997 79.1873 109.323 79.1873 109.712V112H78.5473V109.784C78.5473 109.368 78.4593 109.051 78.2833 108.832C78.1073 108.608 77.8513 108.496 77.5153 108.496C77.1686 108.496 76.8966 108.613 76.6993 108.848C76.5073 109.083 76.4113 109.424 76.4113 109.872V112H75.8113V106.24ZM85.1126 112.056C84.7179 112.056 84.3499 111.987 84.0086 111.848C83.6726 111.709 83.3766 111.515 83.1206 111.264C82.8699 111.008 82.6726 110.707 82.5286 110.36C82.3899 110.008 82.3206 109.621 82.3206 109.2C82.3206 108.779 82.3899 108.395 82.5286 108.048C82.6726 107.696 82.8699 107.395 83.1206 107.144C83.3766 106.888 83.6726 106.691 84.0086 106.552C84.3499 106.413 84.7179 106.344 85.1126 106.344C85.5019 106.344 85.8646 106.413 86.2006 106.552C86.5419 106.691 86.8379 106.888 87.0886 107.144C87.3392 107.395 87.5339 107.696 87.6726 108.048C87.8166 108.395 87.8886 108.779 87.8886 109.2C87.8886 109.621 87.8166 110.008 87.6726 110.36C87.5339 110.707 87.3392 111.008 87.0886 111.264C86.8379 111.515 86.5419 111.709 86.2006 111.848C85.8646 111.987 85.5019 112.056 85.1126 112.056ZM85.1126 111.496C85.5126 111.496 85.8726 111.403 86.1926 111.216C86.5126 111.029 86.7659 110.765 86.9526 110.424C87.1392 110.077 87.2326 109.669 87.2326 109.2C87.2326 108.725 87.1392 108.317 86.9526 107.976C86.7659 107.629 86.5126 107.365 86.1926 107.184C85.8726 106.997 85.5126 106.904 85.1126 106.904C84.7072 106.904 84.3419 106.997 84.0166 107.184C83.6966 107.365 83.4432 107.629 83.2566 107.976C83.0699 108.317 82.9766 108.725 82.9766 109.2C82.9766 109.669 83.0699 110.077 83.2566 110.424C83.4432 110.765 83.6966 111.029 84.0166 111.216C84.3419 111.403 84.7072 111.496 85.1126 111.496ZM92.1146 112H91.5706L91.5306 111.424C91.4079 111.627 91.2426 111.784 91.0346 111.896C90.8266 112.003 90.5839 112.056 90.3066 112.056C89.9972 112.056 89.7279 111.992 89.4986 111.864C89.2692 111.736 89.0906 111.544 88.9626 111.288C88.8399 111.032 88.7786 110.709 88.7786 110.32V108H89.3706V110.256C89.3706 110.667 89.4586 110.979 89.6346 111.192C89.8159 111.4 90.0746 111.504 90.4106 111.504C90.7519 111.504 91.0212 111.395 91.2186 111.176C91.4212 110.952 91.5226 110.616 91.5226 110.168V108H92.1146V112ZM93.3348 108H93.8868L93.9188 108.584C94.0254 108.44 94.1534 108.317 94.3028 108.216C94.4574 108.115 94.6254 108.045 94.8068 108.008C94.9934 107.965 95.1908 107.963 95.3988 108V108.6C95.1748 108.557 94.9721 108.557 94.7908 108.6C94.6148 108.643 94.4628 108.723 94.3348 108.84C94.2068 108.957 94.1081 109.107 94.0388 109.288C93.9694 109.464 93.9348 109.669 93.9348 109.904V112H93.3348V108ZM100.5 109.152C100.798 109.152 101.041 109.107 101.228 109.016C101.414 108.925 101.55 108.797 101.636 108.632C101.726 108.467 101.772 108.275 101.772 108.056C101.772 107.709 101.67 107.44 101.468 107.248C101.27 107.056 100.948 106.96 100.5 106.96H99.1638V109.152H100.5ZM102.404 108.056C102.404 108.275 102.366 108.485 102.292 108.688C102.222 108.885 102.11 109.061 101.956 109.216C101.801 109.371 101.604 109.493 101.364 109.584C101.124 109.669 100.836 109.712 100.5 109.712H99.1638V112H98.5238V106.4H100.5C100.937 106.4 101.294 106.475 101.572 106.624C101.854 106.773 102.062 106.973 102.196 107.224C102.334 107.475 102.404 107.752 102.404 108.056ZM105.086 112.056C104.708 112.056 104.369 111.973 104.07 111.808C103.772 111.643 103.537 111.408 103.366 111.104C103.196 110.795 103.11 110.429 103.11 110.008C103.11 109.581 103.196 109.213 103.366 108.904C103.542 108.595 103.78 108.357 104.078 108.192C104.382 108.027 104.724 107.944 105.102 107.944C105.481 107.944 105.82 108.027 106.118 108.192C106.422 108.357 106.66 108.595 106.83 108.904C107.006 109.208 107.094 109.571 107.094 109.992C107.094 110.419 107.006 110.787 106.83 111.096C106.654 111.405 106.414 111.643 106.11 111.808C105.806 111.973 105.465 112.056 105.086 112.056ZM105.078 111.488C105.313 111.488 105.534 111.437 105.742 111.336C105.95 111.229 106.118 111.067 106.246 110.848C106.38 110.624 106.446 110.341 106.446 110C106.446 109.653 106.382 109.371 106.254 109.152C106.126 108.933 105.958 108.773 105.75 108.672C105.548 108.565 105.329 108.512 105.094 108.512C104.86 108.512 104.641 108.565 104.438 108.672C104.236 108.773 104.07 108.936 103.942 109.16C103.82 109.379 103.758 109.659 103.758 110C103.758 110.347 103.82 110.629 103.942 110.848C104.065 111.067 104.225 111.229 104.422 111.336C104.625 111.437 104.844 111.488 105.078 111.488ZM109.469 112H108.925L107.669 108H108.277L109.197 111.256L110.229 108H110.773L111.789 111.248L112.701 108H113.293L112.045 112H111.493L110.485 108.896L109.469 112ZM115.788 112.056C115.415 112.056 115.082 111.965 114.788 111.784C114.5 111.603 114.274 111.355 114.108 111.04C113.943 110.725 113.86 110.365 113.86 109.96C113.86 109.571 113.943 109.224 114.108 108.92C114.274 108.616 114.5 108.379 114.788 108.208C115.076 108.032 115.404 107.944 115.772 107.944C116.135 107.944 116.458 108.024 116.74 108.184C117.028 108.344 117.252 108.565 117.412 108.848C117.572 109.131 117.647 109.453 117.636 109.816C117.636 109.875 117.634 109.936 117.628 110C117.623 110.064 117.618 110.133 117.612 110.208H114.516C114.527 110.459 114.588 110.68 114.7 110.872C114.812 111.064 114.959 111.216 115.14 111.328C115.327 111.435 115.538 111.488 115.772 111.488C116.082 111.488 116.343 111.429 116.556 111.312C116.775 111.195 116.932 111.027 117.028 110.808L117.548 111.016C117.388 111.352 117.156 111.611 116.852 111.792C116.548 111.968 116.194 112.056 115.788 112.056ZM116.98 109.688C116.986 109.459 116.935 109.256 116.828 109.08C116.727 108.904 116.583 108.765 116.396 108.664C116.21 108.563 115.994 108.512 115.748 108.512C115.535 108.512 115.34 108.563 115.164 108.664C114.988 108.765 114.842 108.907 114.724 109.088C114.612 109.264 114.546 109.464 114.524 109.688H116.98ZM118.624 108H119.176L119.208 108.584C119.314 108.44 119.442 108.317 119.592 108.216C119.746 108.115 119.914 108.045 120.096 108.008C120.282 107.965 120.48 107.963 120.688 108V108.6C120.464 108.557 120.261 108.557 120.08 108.6C119.904 108.643 119.752 108.723 119.624 108.84C119.496 108.957 119.397 109.107 119.328 109.288C119.258 109.464 119.224 109.669 119.224 109.904V112H118.624V108ZM121.723 107.528C121.723 107.235 121.771 106.987 121.867 106.784C121.963 106.581 122.115 106.435 122.323 106.344C122.536 106.248 122.819 106.213 123.171 106.24V106.776C122.851 106.749 122.629 106.803 122.507 106.936C122.384 107.064 122.323 107.261 122.323 107.528V108H123.203V108.56H122.323V112H121.723V108.56H121.163V108H121.723V107.528ZM127.372 112H126.828L126.788 111.424C126.666 111.627 126.5 111.784 126.292 111.896C126.084 112.003 125.842 112.056 125.564 112.056C125.255 112.056 124.986 111.992 124.756 111.864C124.527 111.736 124.348 111.544 124.22 111.288C124.098 111.032 124.036 110.709 124.036 110.32V108H124.628V110.256C124.628 110.667 124.716 110.979 124.892 111.192C125.074 111.4 125.332 111.504 125.668 111.504C126.01 111.504 126.279 111.395 126.476 111.176C126.679 110.952 126.78 110.616 126.78 110.168V108H127.372V112ZM128.593 106.24H129.193V112H128.593V106.24Z" fill="white"/>
<rect x="16" y="122" width="29" height="18" rx="3.56118" fill="#404145"/>
<path d="M21.32 128.4L21.32 133.44H23.936L23.936 134H20.68L20.68 128.4H21.32ZM25.4763 128.4L25.4763 133.44H28.0923L28.0923 134H24.8363L24.8363 128.4H25.4763ZM29.6325 134H28.9925L28.9925 128.4H29.6965L31.7765 133.12L33.8485 128.4H34.5445L34.5445 134H33.9045L33.9045 129.664L32.0005 134H31.5445L29.6325 129.664L29.6325 134ZM36.1706 132.776C36.2026 132.936 36.2612 133.069 36.3466 133.176C36.4319 133.277 36.5412 133.355 36.6746 133.408C36.8132 133.461 36.9732 133.488 37.1546 133.488C37.4372 133.488 37.6506 133.435 37.7946 133.328C37.9439 133.216 38.0186 133.077 38.0186 132.912C38.0186 132.773 37.9732 132.661 37.8826 132.576C37.7972 132.491 37.6826 132.421 37.5386 132.368C37.3946 132.309 37.2346 132.259 37.0586 132.216C36.9199 132.184 36.7706 132.147 36.6106 132.104C36.4506 132.056 36.2986 131.992 36.1546 131.912C36.0106 131.832 35.8932 131.728 35.8026 131.6C35.7119 131.472 35.6666 131.304 35.6666 131.096C35.6666 130.867 35.7279 130.667 35.8506 130.496C35.9786 130.32 36.1519 130.184 36.3706 130.088C36.5946 129.992 36.8506 129.944 37.1386 129.944C37.4692 129.944 37.7626 130.016 38.0186 130.16C38.2799 130.304 38.4612 130.528 38.5626 130.832L38.0026 131.024C37.9652 130.885 37.8959 130.779 37.7946 130.704C37.6986 130.629 37.5892 130.579 37.4666 130.552C37.3492 130.525 37.2319 130.512 37.1146 130.512C36.8746 130.512 36.6799 130.56 36.5306 130.656C36.3866 130.747 36.3146 130.885 36.3146 131.072C36.3146 131.173 36.3386 131.259 36.3866 131.328C36.4346 131.392 36.5012 131.445 36.5866 131.488C36.6719 131.531 36.7732 131.568 36.8906 131.6C37.0079 131.627 37.1359 131.659 37.2746 131.696C37.4292 131.733 37.5866 131.781 37.7466 131.84C37.9066 131.893 38.0559 131.965 38.1946 132.056C38.3332 132.141 38.4452 132.253 38.5306 132.392C38.6212 132.525 38.6666 132.693 38.6666 132.896C38.6666 133.131 38.6026 133.336 38.4746 133.512C38.3466 133.683 38.1679 133.816 37.9386 133.912C37.7146 134.008 37.4532 134.056 37.1546 134.056C36.7439 134.056 36.4026 133.965 36.1306 133.784C35.8639 133.597 35.6852 133.325 35.5946 132.968L36.1706 132.776ZM39.9674 134.04C39.8448 134.04 39.7408 133.997 39.6554 133.912C39.5754 133.827 39.5354 133.723 39.5354 133.6C39.5354 133.477 39.5754 133.373 39.6554 133.288C39.7408 133.203 39.8448 133.16 39.9674 133.16C40.0848 133.16 40.1861 133.203 40.2714 133.288C40.3568 133.373 40.3994 133.477 40.3994 133.6C40.3994 133.723 40.3568 133.827 40.2714 133.912C40.1861 133.997 40.0848 134.04 39.9674 134.04Z" fill="white"/>
</svg>
