<svg width="204" height="148" viewBox="0 0 204 148" fill="none" xmlns="http://www.w3.org/2000/svg">
<rect width="204" height="148" rx="12" fill="#101217"/>
<circle cx="12" cy="12" r="4" fill="#D95A57"/>
<circle cx="24" cy="12" r="4" fill="#585A5D"/>
<circle cx="36" cy="12" r="4" fill="#52BE80"/>
<rect x="16" y="28" width="172" height="32" rx="16" fill="#282A2F"/>
<rect x="19" y="31" width="46" height="26" rx="13" fill="#101217"/>
<path d="M30.3904 45.576C30.4224 45.72 30.4891 45.864 30.5904 46.008C30.6971 46.1467 30.8411 46.264 31.0224 46.36C31.2091 46.4507 31.4464 46.496 31.7344 46.496C32.1451 46.496 32.4491 46.4 32.6464 46.208C32.8438 46.016 32.9424 45.7893 32.9424 45.528C32.9424 45.32 32.8864 45.1493 32.7744 45.016C32.6624 44.8827 32.5104 44.7733 32.3184 44.688C32.1264 44.5973 31.9104 44.5173 31.6704 44.448C31.4571 44.3893 31.2438 44.3253 31.0304 44.256C30.8224 44.1813 30.6331 44.0907 30.4624 43.984C30.2918 43.872 30.1558 43.728 30.0544 43.552C29.9531 43.376 29.9024 43.1573 29.9024 42.896C29.9024 42.5813 29.9771 42.3093 30.1264 42.08C30.2758 41.8453 30.4864 41.664 30.7584 41.536C31.0304 41.408 31.3478 41.344 31.7104 41.344C32.0251 41.344 32.2998 41.3893 32.5344 41.48C32.7691 41.5707 32.9638 41.6987 33.1184 41.864C33.2784 42.024 33.3958 42.2107 33.4704 42.424L32.9024 42.64C32.8651 42.5173 32.7931 42.4 32.6864 42.288C32.5798 42.1707 32.4411 42.0747 32.2704 42C32.0998 41.9253 31.9051 41.888 31.6864 41.888C31.4731 41.888 31.2784 41.9253 31.1024 42C30.9318 42.0747 30.7958 42.1813 30.6944 42.32C30.5931 42.4587 30.5424 42.6267 30.5424 42.824C30.5424 43.0373 30.6011 43.208 30.7184 43.336C30.8411 43.4587 31.0011 43.56 31.1984 43.64C31.4011 43.7147 31.6224 43.7867 31.8624 43.856C32.0811 43.9253 32.2918 44 32.4944 44.08C32.7024 44.16 32.8864 44.2587 33.0464 44.376C33.2118 44.4933 33.3424 44.64 33.4384 44.816C33.5344 44.992 33.5824 45.208 33.5824 45.464C33.5824 45.7467 33.5158 46.0107 33.3824 46.256C33.2491 46.496 33.0464 46.6907 32.7744 46.84C32.5078 46.984 32.1638 47.056 31.7424 47.056C31.3904 47.056 31.0811 47.0027 30.8144 46.896C30.5478 46.784 30.3291 46.6347 30.1584 46.448C29.9878 46.2613 29.8704 46.048 29.8064 45.808L30.3904 45.576ZM36.2882 47.056C35.9149 47.056 35.5815 46.9653 35.2882 46.784C35.0002 46.6027 34.7735 46.3547 34.6082 46.04C34.4429 45.7253 34.3602 45.3653 34.3602 44.96C34.3602 44.5707 34.4429 44.224 34.6082 43.92C34.7735 43.616 35.0002 43.3787 35.2882 43.208C35.5762 43.032 35.9042 42.944 36.2722 42.944C36.6349 42.944 36.9575 43.024 37.2402 43.184C37.5282 43.344 37.7522 43.5653 37.9122 43.848C38.0722 44.1307 38.1469 44.4533 38.1362 44.816C38.1362 44.8747 38.1335 44.936 38.1282 45C38.1229 45.064 38.1175 45.1333 38.1122 45.208H35.0162C35.0269 45.4587 35.0882 45.68 35.2002 45.872C35.3122 46.064 35.4589 46.216 35.6402 46.328C35.8269 46.4347 36.0375 46.488 36.2722 46.488C36.5815 46.488 36.8429 46.4293 37.0562 46.312C37.2749 46.1947 37.4322 46.0267 37.5282 45.808L38.0482 46.016C37.8882 46.352 37.6562 46.6107 37.3522 46.792C37.0482 46.968 36.6935 47.056 36.2882 47.056ZM37.4802 44.688C37.4855 44.4587 37.4349 44.256 37.3282 44.08C37.2269 43.904 37.0829 43.7653 36.8962 43.664C36.7095 43.5627 36.4935 43.512 36.2482 43.512C36.0349 43.512 35.8402 43.5627 35.6642 43.664C35.4882 43.7653 35.3415 43.9067 35.2242 44.088C35.1122 44.264 35.0455 44.464 35.0242 44.688H37.4802ZM41.6278 47L41.5798 46.28C41.4678 46.5253 41.3025 46.7173 41.0838 46.856C40.8651 46.9893 40.5878 47.056 40.2518 47.056C39.9638 47.056 39.7185 47.0107 39.5158 46.92C39.3131 46.8293 39.1558 46.7013 39.0438 46.536C38.9371 46.3653 38.8838 46.1653 38.8838 45.936C38.8838 45.6 39.0091 45.3253 39.2598 45.112C39.5105 44.8933 39.8731 44.76 40.3478 44.712L41.5798 44.576V44.256C41.5798 44.032 41.4971 43.8533 41.3318 43.72C41.1665 43.5813 40.9425 43.512 40.6598 43.512C40.3825 43.512 40.1505 43.576 39.9638 43.704C39.7825 43.832 39.6571 44.016 39.5878 44.256L39.0438 44.064C39.1505 43.712 39.3451 43.4373 39.6278 43.24C39.9158 43.0427 40.2651 42.944 40.6758 42.944C41.1505 42.944 41.5185 43.0667 41.7798 43.312C42.0465 43.552 42.1798 43.88 42.1798 44.296V47H41.6278ZM41.5798 45.088L40.3398 45.232C40.0731 45.264 39.8705 45.3387 39.7318 45.456C39.5931 45.568 39.5238 45.7173 39.5238 45.904C39.5238 46.0907 39.5905 46.24 39.7238 46.352C39.8625 46.464 40.0598 46.52 40.3158 46.52C40.6091 46.52 40.8491 46.4613 41.0358 46.344C41.2225 46.2267 41.3585 46.0693 41.4438 45.872C41.5345 45.6693 41.5798 45.4507 41.5798 45.216V45.088ZM43.3504 43H43.9024L43.9344 43.584C44.041 43.44 44.169 43.3173 44.3184 43.216C44.473 43.1147 44.641 43.0453 44.8224 43.008C45.009 42.9653 45.2064 42.9627 45.4144 43V43.6C45.1904 43.5573 44.9877 43.5573 44.8064 43.6C44.6304 43.6427 44.4784 43.7227 44.3504 43.84C44.2224 43.9573 44.1237 44.1067 44.0544 44.288C43.985 44.464 43.9504 44.6693 43.9504 44.904V47H43.3504V43ZM47.9372 47.056C47.5479 47.056 47.2065 46.9707 46.9132 46.8C46.6199 46.6293 46.3905 46.392 46.2252 46.088C46.0652 45.7787 45.9852 45.4213 45.9852 45.016C45.9852 44.6053 46.0652 44.2453 46.2252 43.936C46.3905 43.6213 46.6199 43.3787 46.9132 43.208C47.2065 43.032 47.5479 42.944 47.9372 42.944C48.3479 42.944 48.7079 43.04 49.0172 43.232C49.3265 43.4187 49.5505 43.68 49.6892 44.016L49.1372 44.208C49.0572 43.9947 48.9105 43.8267 48.6972 43.704C48.4892 43.576 48.2465 43.512 47.9692 43.512C47.6972 43.512 47.4599 43.5733 47.2572 43.696C47.0599 43.8187 46.9052 43.992 46.7932 44.216C46.6865 44.44 46.6332 44.704 46.6332 45.008C46.6332 45.456 46.7532 45.816 46.9932 46.088C47.2332 46.3547 47.5532 46.488 47.9532 46.488C48.2252 46.488 48.4679 46.4267 48.6812 46.304C48.8945 46.1813 49.0519 46.016 49.1532 45.808L49.6972 46C49.5532 46.3307 49.3265 46.5893 49.0172 46.776C48.7079 46.9627 48.3479 47.056 47.9372 47.056ZM50.6785 41.24H51.2785V43.544C51.4065 43.352 51.5798 43.2053 51.7985 43.104C52.0172 42.9973 52.2625 42.944 52.5345 42.944C52.8278 42.944 53.0892 43.0107 53.3185 43.144C53.5478 43.2773 53.7265 43.4747 53.8545 43.736C53.9878 43.9973 54.0545 44.3227 54.0545 44.712V47H53.4145V44.784C53.4145 44.368 53.3265 44.0507 53.1505 43.832C52.9745 43.608 52.7185 43.496 52.3825 43.496C52.0358 43.496 51.7638 43.6133 51.5665 43.848C51.3745 44.0827 51.2785 44.424 51.2785 44.872V47H50.6785V41.24Z" fill="#D2D3D4"/>
<rect x="16" y="68" width="172" height="1" rx="0.5" fill="white" fill-opacity="0.05"/>
<rect x="16" y="80" width="52" height="52" rx="8" fill="#1E2129"/>
<path d="M36.6099 96.1268H39.3366V97.328H36.6099V96.1268Z" fill="#585A5D"/>
<path d="M36.6099 98.4091H39.5902V99.6704H36.6099V98.4091Z" fill="#585A5D"/>
<path d="M40.478 98.4091H43.5217V99.6704H40.478V98.4091Z" fill="#585A5D"/>
<path d="M44.1558 98.4091H47.1362V99.6704H44.1558V98.4091Z" fill="#585A5D"/>
<path d="M44.029 100.872H47.0094V102.133H44.029V100.872Z" fill="#585A5D"/>
<path d="M39.9707 105.676H43.9022V107.418H39.9707V105.676Z" fill="#585A5D"/>
<path d="M37.1172 108.98H43.9022V111.082H37.1172V108.98Z" fill="#585A5D"/>
<path d="M39.4634 112.223H42.3169V113.424H39.4634V112.223Z" fill="#585A5D"/>
<path d="M37.1172 115.046H39.3366V116.007H37.1172V115.046Z" fill="#585A5D"/>
<path d="M41.9364 115.046H44.1558V116.007H41.9364V115.046Z" fill="#585A5D"/>
<path d="M44.79 115.046H47.0094V116.007H44.79V115.046Z" fill="#585A5D"/>
<path d="M42.1901 96.1268H44.9168V97.328H42.1901V96.1268Z" fill="#585A5D"/>
<path d="M41.556 96.7875C41.556 97.1524 41.2295 97.4482 40.8267 97.4482C40.424 97.4482 40.0975 97.1524 40.0975 96.7875C40.0975 96.4226 40.424 96.1268 40.8267 96.1268C41.2295 96.1268 41.556 96.4226 41.556 96.7875Z" fill="#585A5D"/>
<path d="M47.1362 96.7875C47.1362 97.1524 46.8097 97.4482 46.4069 97.4482C46.0042 97.4482 45.6777 97.1524 45.6777 96.7875C45.6777 96.4226 46.0042 96.1268 46.4069 96.1268C46.8097 96.1268 47.1362 96.4226 47.1362 96.7875Z" fill="#585A5D"/>
<path d="M38.1952 101.442C38.1952 101.824 37.8687 102.133 37.4659 102.133C37.0632 102.133 36.7367 101.824 36.7367 101.442C36.7367 101.061 37.0632 100.751 37.4659 100.751C37.8687 100.751 38.1952 101.061 38.1952 101.442Z" fill="#585A5D"/>
<path d="M40.6048 101.442C40.6048 101.824 40.2925 102.133 39.9073 102.133C39.522 102.133 39.2097 101.824 39.2097 101.442C39.2097 101.061 39.522 100.751 39.9073 100.751C40.2925 100.751 40.6048 101.061 40.6048 101.442Z" fill="#585A5D"/>
<path d="M43.0778 101.442C43.0778 101.824 42.7655 102.133 42.3803 102.133C41.9951 102.133 41.6828 101.824 41.6828 101.442C41.6828 101.061 41.9951 100.751 42.3803 100.751C42.7655 100.751 43.0778 101.061 43.0778 101.442Z" fill="#585A5D"/>
<path d="M38.1952 103.905C38.1952 104.286 37.8687 104.595 37.4659 104.595C37.0632 104.595 36.7367 104.286 36.7367 103.905C36.7367 103.523 37.0632 103.214 37.4659 103.214C37.8687 103.214 38.1952 103.523 38.1952 103.905Z" fill="#585A5D"/>
<path d="M38.5756 106.547C38.5756 107.028 38.164 107.418 37.6562 107.418C37.1483 107.418 36.7367 107.028 36.7367 106.547C36.7367 106.066 37.1483 105.676 37.6562 105.676C38.164 105.676 38.5756 106.066 38.5756 106.547Z" fill="#585A5D"/>
<path d="M47.0094 106.547C47.0094 107.028 46.5977 107.418 46.0899 107.418C45.5821 107.418 45.1704 107.028 45.1704 106.547C45.1704 106.066 45.5821 105.676 46.0899 105.676C46.5977 105.676 47.0094 106.066 47.0094 106.547Z" fill="#585A5D"/>
<path d="M38.4488 112.884C38.4488 113.248 38.1223 113.544 37.7196 113.544C37.3168 113.544 36.9903 113.248 36.9903 112.884C36.9903 112.519 37.3168 112.223 37.7196 112.223C38.1223 112.223 38.4488 112.519 38.4488 112.884Z" fill="#585A5D"/>
<path d="M44.6631 112.884C44.6631 113.248 44.3366 113.544 43.9339 113.544C43.5312 113.544 43.2047 113.248 43.2047 112.884C43.2047 112.519 43.5312 112.223 43.9339 112.223C44.3366 112.223 44.6631 112.519 44.6631 112.884Z" fill="#585A5D"/>
<path d="M47.0094 112.884C47.0094 113.248 46.6829 113.544 46.2801 113.544C45.8774 113.544 45.5509 113.248 45.5509 112.884C45.5509 112.519 45.8774 112.223 46.2801 112.223C46.6829 112.223 47.0094 112.519 47.0094 112.884Z" fill="#585A5D"/>
<path d="M41.1755 115.586C41.1755 115.885 40.9058 116.127 40.5731 116.127C40.2404 116.127 39.9707 115.885 39.9707 115.586C39.9707 115.288 40.2404 115.046 40.5731 115.046C40.9058 115.046 41.1755 115.288 41.1755 115.586Z" fill="#585A5D"/>
<path d="M38.5756 103.905C38.5756 104.386 38.164 104.775 37.6562 104.775C37.1483 104.775 36.7367 104.386 36.7367 103.905C36.7367 103.424 37.1483 103.034 37.6562 103.034C38.164 103.034 38.5756 103.424 38.5756 103.905Z" fill="#585A5D"/>
<g clip-path="url(#clip0_4528_5149)">
<path d="M21.9933 84.5002C21.6976 84.5002 21.4086 84.5882 21.1627 84.753C20.9169 84.9178 20.7252 85.1521 20.6121 85.4262C20.4989 85.7003 20.4693 86.0019 20.527 86.2928C20.5847 86.5838 20.7271 86.8511 20.9362 87.0609C21.1452 87.2707 21.4116 87.4135 21.7016 87.4714C21.9916 87.5293 22.2922 87.4996 22.5654 87.386C22.8386 87.2725 23.0721 87.0802 23.2363 86.8336C23.4006 86.5869 23.4883 86.2969 23.4883 86.0002" stroke="#919597" stroke-width="0.299748" stroke-linecap="round" stroke-linejoin="round"/>
</g>
<path d="M24.7096 87.272L25.7336 86.192C25.8376 86.0853 25.919 85.9933 25.9776 85.916C26.0363 85.836 26.0776 85.7627 26.1016 85.696C26.1283 85.6293 26.1416 85.56 26.1416 85.488C26.1416 85.3467 26.0963 85.236 26.0056 85.156C25.915 85.076 25.7976 85.036 25.6536 85.036C25.5123 85.036 25.3883 85.0707 25.2816 85.14C25.175 85.2067 25.0803 85.3107 24.9976 85.452L24.7336 85.232C24.843 85.0507 24.975 84.9147 25.1296 84.824C25.2843 84.7307 25.463 84.684 25.6656 84.684C25.8363 84.684 25.9843 84.7173 26.1096 84.784C26.2376 84.8507 26.3363 84.944 26.4056 85.064C26.475 85.184 26.5096 85.324 26.5096 85.484C26.5096 85.5987 26.495 85.7013 26.4656 85.792C26.439 85.8827 26.3896 85.976 26.3176 86.072C26.2483 86.1653 26.151 86.2773 26.0256 86.408L25.1976 87.26L24.7096 87.272ZM24.7096 87.5V87.272L25.0296 87.164H26.5736V87.5H24.7096ZM26.9897 87.5L28.7697 84.724H29.1337L27.3537 87.5H26.9897ZM28.6177 87.54C28.5137 87.54 28.419 87.5147 28.3337 87.464C28.2484 87.4133 28.1804 87.3467 28.1297 87.264C28.079 87.1787 28.0537 87.0827 28.0537 86.976C28.0537 86.872 28.079 86.7787 28.1297 86.696C28.1804 86.6107 28.2484 86.5427 28.3337 86.492C28.419 86.4413 28.5137 86.416 28.6177 86.416C28.7217 86.416 28.8164 86.4413 28.9017 86.492C28.9897 86.5427 29.059 86.6107 29.1097 86.696C29.1604 86.7787 29.1857 86.872 29.1857 86.976C29.1857 87.0827 29.1604 87.1787 29.1097 87.264C29.059 87.3467 28.991 87.4133 28.9057 87.464C28.8204 87.5147 28.7244 87.54 28.6177 87.54ZM28.6177 87.256C28.6977 87.256 28.763 87.2307 28.8137 87.18C28.8644 87.1267 28.8897 87.0587 28.8897 86.976C28.8897 86.896 28.863 86.8307 28.8097 86.78C28.759 86.7267 28.695 86.7 28.6177 86.7C28.5404 86.7 28.4764 86.7267 28.4257 86.78C28.375 86.8307 28.3497 86.896 28.3497 86.976C28.3497 87.0587 28.375 87.1267 28.4257 87.18C28.4764 87.2307 28.5404 87.256 28.6177 87.256ZM27.5017 85.808C27.4004 85.808 27.307 85.7827 27.2217 85.732C27.1364 85.6813 27.0684 85.6133 27.0177 85.528C26.967 85.4427 26.9417 85.348 26.9417 85.244C26.9417 85.1373 26.9657 85.0427 27.0137 84.96C27.0644 84.8773 27.1324 84.8107 27.2177 84.76C27.303 84.7093 27.3977 84.684 27.5017 84.684C27.6084 84.684 27.7044 84.7093 27.7897 84.76C27.875 84.8107 27.943 84.8773 27.9937 84.96C28.0444 85.0427 28.0697 85.1373 28.0697 85.244C28.0697 85.348 28.0444 85.4427 27.9937 85.528C27.943 85.6133 27.875 85.6813 27.7897 85.732C27.707 85.7827 27.611 85.808 27.5017 85.808ZM27.5017 85.524C27.5817 85.524 27.647 85.4987 27.6977 85.448C27.7484 85.3947 27.7737 85.3267 27.7737 85.244C27.7737 85.1613 27.747 85.0947 27.6937 85.044C27.643 84.9933 27.579 84.968 27.5017 84.968C27.4244 84.968 27.3604 84.9933 27.3097 85.044C27.2617 85.0947 27.2377 85.1613 27.2377 85.244C27.2377 85.3267 27.2617 85.3947 27.3097 85.448C27.3604 85.4987 27.4244 85.524 27.5017 85.524Z" fill="#919597"/>
<rect x="76" y="80" width="52" height="52" rx="8" fill="#1E2129"/>
<path d="M96.7368 96H99.4635V97.2012H96.7368V96Z" fill="#585A5D"/>
<path d="M96.7368 98.2823H99.7172V99.5435H96.7368V98.2823Z" fill="#585A5D"/>
<path d="M100.605 98.2823H103.649V99.5435H100.605V98.2823Z" fill="#585A5D"/>
<path d="M104.283 98.2823H107.263V99.5435H104.283V98.2823Z" fill="#585A5D"/>
<path d="M104.156 100.745H107.136V102.006H104.156V100.745Z" fill="#585A5D"/>
<path d="M100.098 105.55H104.029V107.291H100.098V105.55Z" fill="#585A5D"/>
<path d="M97.2441 108.853H104.029V110.955H97.2441V108.853Z" fill="#585A5D"/>
<path d="M99.5903 112.096H102.444V113.297H99.5903V112.096Z" fill="#585A5D"/>
<path d="M97.2441 114.919H99.4635V115.88H97.2441V114.919Z" fill="#585A5D"/>
<path d="M102.063 114.919H104.283V115.88H102.063V114.919Z" fill="#585A5D"/>
<path d="M104.917 114.919H107.136V115.88H104.917V114.919Z" fill="#585A5D"/>
<path d="M102.317 96H105.044V97.2012H102.317V96Z" fill="#585A5D"/>
<path d="M101.683 96.6607C101.683 97.0255 101.356 97.3213 100.954 97.3213C100.551 97.3213 100.224 97.0255 100.224 96.6607C100.224 96.2958 100.551 96 100.954 96C101.356 96 101.683 96.2958 101.683 96.6607Z" fill="#585A5D"/>
<path d="M107.263 96.6607C107.263 97.0255 106.937 97.3213 106.534 97.3213C106.131 97.3213 105.805 97.0255 105.805 96.6607C105.805 96.2958 106.131 96 106.534 96C106.937 96 107.263 96.2958 107.263 96.6607Z" fill="#585A5D"/>
<path d="M98.3221 101.315C98.3221 101.697 97.9956 102.006 97.5929 102.006C97.1901 102.006 96.8636 101.697 96.8636 101.315C96.8636 100.934 97.1901 100.625 97.5929 100.625C97.9956 100.625 98.3221 100.934 98.3221 101.315Z" fill="#585A5D"/>
<path d="M100.732 101.315C100.732 101.697 100.419 102.006 100.034 102.006C99.649 102.006 99.3367 101.697 99.3367 101.315C99.3367 100.934 99.649 100.625 100.034 100.625C100.419 100.625 100.732 100.934 100.732 101.315Z" fill="#585A5D"/>
<path d="M103.205 101.315C103.205 101.697 102.892 102.006 102.507 102.006C102.122 102.006 101.81 101.697 101.81 101.315C101.81 100.934 102.122 100.625 102.507 100.625C102.892 100.625 103.205 100.934 103.205 101.315Z" fill="#585A5D"/>
<path d="M98.3221 103.778C98.3221 104.159 97.9956 104.468 97.5929 104.468C97.1901 104.468 96.8636 104.159 96.8636 103.778C96.8636 103.396 97.1901 103.087 97.5929 103.087C97.9956 103.087 98.3221 103.396 98.3221 103.778Z" fill="#585A5D"/>
<path d="M98.7026 106.42C98.7026 106.901 98.2909 107.291 97.7831 107.291C97.2753 107.291 96.8636 106.901 96.8636 106.42C96.8636 105.939 97.2753 105.55 97.7831 105.55C98.2909 105.55 98.7026 105.939 98.7026 106.42Z" fill="#585A5D"/>
<path d="M107.136 106.42C107.136 106.901 106.725 107.291 106.217 107.291C105.709 107.291 105.297 106.901 105.297 106.42C105.297 105.939 105.709 105.55 106.217 105.55C106.725 105.55 107.136 105.939 107.136 106.42Z" fill="#585A5D"/>
<path d="M98.5758 112.757C98.5758 113.122 98.2493 113.417 97.8465 113.417C97.4438 113.417 97.1173 113.122 97.1173 112.757C97.1173 112.392 97.4438 112.096 97.8465 112.096C98.2493 112.096 98.5758 112.392 98.5758 112.757Z" fill="#585A5D"/>
<path d="M104.79 112.757C104.79 113.122 104.464 113.417 104.061 113.417C103.658 113.417 103.332 113.122 103.332 112.757C103.332 112.392 103.658 112.096 104.061 112.096C104.464 112.096 104.79 112.392 104.79 112.757Z" fill="#585A5D"/>
<path d="M107.136 112.757C107.136 113.122 106.81 113.417 106.407 113.417C106.004 113.417 105.678 113.122 105.678 112.757C105.678 112.392 106.004 112.096 106.407 112.096C106.81 112.096 107.136 112.392 107.136 112.757Z" fill="#585A5D"/>
<path d="M101.302 115.459C101.302 115.758 101.033 116 100.7 116C100.367 116 100.098 115.758 100.098 115.459C100.098 115.161 100.367 114.919 100.7 114.919C101.033 114.919 101.302 115.161 101.302 115.459Z" fill="#585A5D"/>
<path d="M98.7026 103.778C98.7026 104.259 98.2909 104.649 97.7831 104.649C97.2753 104.649 96.8636 104.259 96.8636 103.778C96.8636 103.297 97.2753 102.907 97.7831 102.907C98.2909 102.907 98.7026 103.297 98.7026 103.778Z" fill="#585A5D"/>
<g clip-path="url(#clip1_4528_5149)">
<path d="M81.9933 84.5002C81.6976 84.5002 81.4086 84.5882 81.1627 84.753C80.9169 84.9178 80.7252 85.1521 80.6121 85.4262C80.4989 85.7003 80.4693 86.0019 80.527 86.2928C80.5847 86.5838 80.7271 86.8511 80.9362 87.0609C81.1452 87.2707 81.4116 87.4135 81.7016 87.4714C81.9916 87.5293 82.2922 87.4996 82.5654 87.386C82.8386 87.2725 83.0721 87.0802 83.2363 86.8336C83.4006 86.5869 83.4883 86.2969 83.4883 86.0002" stroke="#919597" stroke-width="0.299748" stroke-linecap="round" stroke-linejoin="round"/>
</g>
<path d="M84.7096 87.272L85.7336 86.192C85.8376 86.0853 85.919 85.9933 85.9776 85.916C86.0363 85.836 86.0776 85.7627 86.1016 85.696C86.1283 85.6293 86.1416 85.56 86.1416 85.488C86.1416 85.3467 86.0963 85.236 86.0056 85.156C85.915 85.076 85.7976 85.036 85.6536 85.036C85.5123 85.036 85.3883 85.0707 85.2816 85.14C85.175 85.2067 85.0803 85.3107 84.9976 85.452L84.7336 85.232C84.843 85.0507 84.975 84.9147 85.1296 84.824C85.2843 84.7307 85.463 84.684 85.6656 84.684C85.8363 84.684 85.9843 84.7173 86.1096 84.784C86.2376 84.8507 86.3363 84.944 86.4056 85.064C86.475 85.184 86.5096 85.324 86.5096 85.484C86.5096 85.5987 86.495 85.7013 86.4656 85.792C86.439 85.8827 86.3896 85.976 86.3176 86.072C86.2483 86.1653 86.151 86.2773 86.0256 86.408L85.1976 87.26L84.7096 87.272ZM84.7096 87.5V87.272L85.0296 87.164H86.5736V87.5H84.7096ZM86.9897 87.5L88.7697 84.724H89.1337L87.3537 87.5H86.9897ZM88.6177 87.54C88.5137 87.54 88.419 87.5147 88.3337 87.464C88.2484 87.4133 88.1804 87.3467 88.1297 87.264C88.079 87.1787 88.0537 87.0827 88.0537 86.976C88.0537 86.872 88.079 86.7787 88.1297 86.696C88.1804 86.6107 88.2484 86.5427 88.3337 86.492C88.419 86.4413 88.5137 86.416 88.6177 86.416C88.7217 86.416 88.8164 86.4413 88.9017 86.492C88.9897 86.5427 89.059 86.6107 89.1097 86.696C89.1604 86.7787 89.1857 86.872 89.1857 86.976C89.1857 87.0827 89.1604 87.1787 89.1097 87.264C89.059 87.3467 88.991 87.4133 88.9057 87.464C88.8204 87.5147 88.7244 87.54 88.6177 87.54ZM88.6177 87.256C88.6977 87.256 88.763 87.2307 88.8137 87.18C88.8644 87.1267 88.8897 87.0587 88.8897 86.976C88.8897 86.896 88.863 86.8307 88.8097 86.78C88.759 86.7267 88.695 86.7 88.6177 86.7C88.5404 86.7 88.4764 86.7267 88.4257 86.78C88.375 86.8307 88.3497 86.896 88.3497 86.976C88.3497 87.0587 88.375 87.1267 88.4257 87.18C88.4764 87.2307 88.5404 87.256 88.6177 87.256ZM87.5017 85.808C87.4004 85.808 87.307 85.7827 87.2217 85.732C87.1364 85.6813 87.0684 85.6133 87.0177 85.528C86.967 85.4427 86.9417 85.348 86.9417 85.244C86.9417 85.1373 86.9657 85.0427 87.0137 84.96C87.0644 84.8773 87.1324 84.8107 87.2177 84.76C87.303 84.7093 87.3977 84.684 87.5017 84.684C87.6084 84.684 87.7044 84.7093 87.7897 84.76C87.875 84.8107 87.943 84.8773 87.9937 84.96C88.0444 85.0427 88.0697 85.1373 88.0697 85.244C88.0697 85.348 88.0444 85.4427 87.9937 85.528C87.943 85.6133 87.875 85.6813 87.7897 85.732C87.707 85.7827 87.611 85.808 87.5017 85.808ZM87.5017 85.524C87.5817 85.524 87.647 85.4987 87.6977 85.448C87.7484 85.3947 87.7737 85.3267 87.7737 85.244C87.7737 85.1613 87.747 85.0947 87.6937 85.044C87.643 84.9933 87.579 84.968 87.5017 84.968C87.4244 84.968 87.3604 84.9933 87.3097 85.044C87.2617 85.0947 87.2377 85.1613 87.2377 85.244C87.2377 85.3267 87.2617 85.3947 87.3097 85.448C87.3604 85.4987 87.4244 85.524 87.5017 85.524Z" fill="#919597"/>
<rect x="136" y="80" width="52" height="52" rx="8" fill="#1E2129"/>
<path d="M156.737 96H159.464V97.2012H156.737V96Z" fill="#585A5D"/>
<path d="M156.737 98.2823H159.717V99.5435H156.737V98.2823Z" fill="#585A5D"/>
<path d="M160.605 98.2823H163.649V99.5435H160.605V98.2823Z" fill="#585A5D"/>
<path d="M164.283 98.2823H167.263V99.5435H164.283V98.2823Z" fill="#585A5D"/>
<path d="M164.156 100.745H167.136V102.006H164.156V100.745Z" fill="#585A5D"/>
<path d="M160.098 105.55H164.029V107.291H160.098V105.55Z" fill="#585A5D"/>
<path d="M157.244 108.853H164.029V110.955H157.244V108.853Z" fill="#585A5D"/>
<path d="M159.59 112.096H162.444V113.297H159.59V112.096Z" fill="#585A5D"/>
<path d="M157.244 114.919H159.464V115.88H157.244V114.919Z" fill="#585A5D"/>
<path d="M162.063 114.919H164.283V115.88H162.063V114.919Z" fill="#585A5D"/>
<path d="M164.917 114.919H167.136V115.88H164.917V114.919Z" fill="#585A5D"/>
<path d="M162.317 96H165.044V97.2012H162.317V96Z" fill="#585A5D"/>
<path d="M161.683 96.6607C161.683 97.0255 161.356 97.3213 160.954 97.3213C160.551 97.3213 160.224 97.0255 160.224 96.6607C160.224 96.2958 160.551 96 160.954 96C161.356 96 161.683 96.2958 161.683 96.6607Z" fill="#585A5D"/>
<path d="M167.263 96.6607C167.263 97.0255 166.937 97.3213 166.534 97.3213C166.131 97.3213 165.805 97.0255 165.805 96.6607C165.805 96.2958 166.131 96 166.534 96C166.937 96 167.263 96.2958 167.263 96.6607Z" fill="#585A5D"/>
<path d="M158.322 101.315C158.322 101.697 157.996 102.006 157.593 102.006C157.19 102.006 156.864 101.697 156.864 101.315C156.864 100.934 157.19 100.625 157.593 100.625C157.996 100.625 158.322 100.934 158.322 101.315Z" fill="#585A5D"/>
<path d="M160.732 101.315C160.732 101.697 160.419 102.006 160.034 102.006C159.649 102.006 159.337 101.697 159.337 101.315C159.337 100.934 159.649 100.625 160.034 100.625C160.419 100.625 160.732 100.934 160.732 101.315Z" fill="#585A5D"/>
<path d="M163.205 101.315C163.205 101.697 162.892 102.006 162.507 102.006C162.122 102.006 161.81 101.697 161.81 101.315C161.81 100.934 162.122 100.625 162.507 100.625C162.892 100.625 163.205 100.934 163.205 101.315Z" fill="#585A5D"/>
<path d="M158.322 103.778C158.322 104.159 157.996 104.468 157.593 104.468C157.19 104.468 156.864 104.159 156.864 103.778C156.864 103.396 157.19 103.087 157.593 103.087C157.996 103.087 158.322 103.396 158.322 103.778Z" fill="#585A5D"/>
<path d="M158.703 106.42C158.703 106.901 158.291 107.291 157.783 107.291C157.275 107.291 156.864 106.901 156.864 106.42C156.864 105.939 157.275 105.55 157.783 105.55C158.291 105.55 158.703 105.939 158.703 106.42Z" fill="#585A5D"/>
<path d="M167.136 106.42C167.136 106.901 166.725 107.291 166.217 107.291C165.709 107.291 165.297 106.901 165.297 106.42C165.297 105.939 165.709 105.55 166.217 105.55C166.725 105.55 167.136 105.939 167.136 106.42Z" fill="#585A5D"/>
<path d="M158.576 112.757C158.576 113.122 158.249 113.417 157.847 113.417C157.444 113.417 157.117 113.122 157.117 112.757C157.117 112.392 157.444 112.096 157.847 112.096C158.249 112.096 158.576 112.392 158.576 112.757Z" fill="#585A5D"/>
<path d="M164.79 112.757C164.79 113.122 164.464 113.417 164.061 113.417C163.658 113.417 163.332 113.122 163.332 112.757C163.332 112.392 163.658 112.096 164.061 112.096C164.464 112.096 164.79 112.392 164.79 112.757Z" fill="#585A5D"/>
<path d="M167.136 112.757C167.136 113.122 166.81 113.417 166.407 113.417C166.004 113.417 165.678 113.122 165.678 112.757C165.678 112.392 166.004 112.096 166.407 112.096C166.81 112.096 167.136 112.392 167.136 112.757Z" fill="#585A5D"/>
<path d="M161.302 115.459C161.302 115.758 161.033 116 160.7 116C160.367 116 160.098 115.758 160.098 115.459C160.098 115.161 160.367 114.919 160.7 114.919C161.033 114.919 161.302 115.161 161.302 115.459Z" fill="#585A5D"/>
<path d="M158.703 103.778C158.703 104.259 158.291 104.649 157.783 104.649C157.275 104.649 156.864 104.259 156.864 103.778C156.864 103.297 157.275 102.907 157.783 102.907C158.291 102.907 158.703 103.297 158.703 103.778Z" fill="#585A5D"/>
<g clip-path="url(#clip2_4528_5149)">
<path d="M141.993 84.5002C141.698 84.5002 141.409 84.5882 141.163 84.753C140.917 84.9178 140.725 85.1521 140.612 85.4262C140.499 85.7003 140.469 86.0019 140.527 86.2928C140.585 86.5838 140.727 86.8511 140.936 87.0609C141.145 87.2707 141.412 87.4135 141.702 87.4714C141.992 87.5293 142.292 87.4996 142.565 87.386C142.839 87.2725 143.072 87.0802 143.236 86.8336C143.401 86.5869 143.488 86.2969 143.488 86.0002" stroke="#919597" stroke-width="0.299748" stroke-linecap="round" stroke-linejoin="round"/>
</g>
<path d="M144.71 87.272L145.734 86.192C145.838 86.0853 145.919 85.9933 145.978 85.916C146.036 85.836 146.078 85.7627 146.102 85.696C146.128 85.6293 146.142 85.56 146.142 85.488C146.142 85.3467 146.096 85.236 146.006 85.156C145.915 85.076 145.798 85.036 145.654 85.036C145.512 85.036 145.388 85.0707 145.282 85.14C145.175 85.2067 145.08 85.3107 144.998 85.452L144.734 85.232C144.843 85.0507 144.975 84.9147 145.13 84.824C145.284 84.7307 145.463 84.684 145.666 84.684C145.836 84.684 145.984 84.7173 146.11 84.784C146.238 84.8507 146.336 84.944 146.406 85.064C146.475 85.184 146.51 85.324 146.51 85.484C146.51 85.5987 146.495 85.7013 146.466 85.792C146.439 85.8827 146.39 85.976 146.318 86.072C146.248 86.1653 146.151 86.2773 146.026 86.408L145.198 87.26L144.71 87.272ZM144.71 87.5V87.272L145.03 87.164H146.574V87.5H144.71ZM146.99 87.5L148.77 84.724H149.134L147.354 87.5H146.99ZM148.618 87.54C148.514 87.54 148.419 87.5147 148.334 87.464C148.248 87.4133 148.18 87.3467 148.13 87.264C148.079 87.1787 148.054 87.0827 148.054 86.976C148.054 86.872 148.079 86.7787 148.13 86.696C148.18 86.6107 148.248 86.5427 148.334 86.492C148.419 86.4413 148.514 86.416 148.618 86.416C148.722 86.416 148.816 86.4413 148.902 86.492C148.99 86.5427 149.059 86.6107 149.11 86.696C149.16 86.7787 149.186 86.872 149.186 86.976C149.186 87.0827 149.16 87.1787 149.11 87.264C149.059 87.3467 148.991 87.4133 148.906 87.464C148.82 87.5147 148.724 87.54 148.618 87.54ZM148.618 87.256C148.698 87.256 148.763 87.2307 148.814 87.18C148.864 87.1267 148.89 87.0587 148.89 86.976C148.89 86.896 148.863 86.8307 148.81 86.78C148.759 86.7267 148.695 86.7 148.618 86.7C148.54 86.7 148.476 86.7267 148.426 86.78C148.375 86.8307 148.35 86.896 148.35 86.976C148.35 87.0587 148.375 87.1267 148.426 87.18C148.476 87.2307 148.54 87.256 148.618 87.256ZM147.502 85.808C147.4 85.808 147.307 85.7827 147.222 85.732C147.136 85.6813 147.068 85.6133 147.018 85.528C146.967 85.4427 146.942 85.348 146.942 85.244C146.942 85.1373 146.966 85.0427 147.014 84.96C147.064 84.8773 147.132 84.8107 147.218 84.76C147.303 84.7093 147.398 84.684 147.502 84.684C147.608 84.684 147.704 84.7093 147.79 84.76C147.875 84.8107 147.943 84.8773 147.994 84.96C148.044 85.0427 148.07 85.1373 148.07 85.244C148.07 85.348 148.044 85.4427 147.994 85.528C147.943 85.6133 147.875 85.6813 147.79 85.732C147.707 85.7827 147.611 85.808 147.502 85.808ZM147.502 85.524C147.582 85.524 147.647 85.4987 147.698 85.448C147.748 85.3947 147.774 85.3267 147.774 85.244C147.774 85.1613 147.747 85.0947 147.694 85.044C147.643 84.9933 147.579 84.968 147.502 84.968C147.424 84.968 147.36 84.9933 147.31 85.044C147.262 85.0947 147.238 85.1613 147.238 85.244C147.238 85.3267 147.262 85.3947 147.31 85.448C147.36 85.4987 147.424 85.524 147.502 85.524Z" fill="#919597"/>
<defs>
<clipPath id="clip0_4528_5149">
<rect width="3.98667" height="4" fill="white" transform="translate(20 84)"/>
</clipPath>
<clipPath id="clip1_4528_5149">
<rect width="3.98667" height="4" fill="white" transform="translate(80 84)"/>
</clipPath>
<clipPath id="clip2_4528_5149">
<rect width="3.98667" height="4" fill="white" transform="translate(140 84)"/>
</clipPath>
</defs>
</svg>
