<svg width="494" height="398" viewBox="0 0 494 398" fill="none" xmlns="http://www.w3.org/2000/svg">
<rect width="494" height="398" rx="30" fill="url(#paint0_linear_7699_9660)"/>
<rect x="0.75" y="0.75" width="492.5" height="396.5" rx="29.25" stroke="url(#paint1_linear_7699_9660)" stroke-opacity="0.44" stroke-width="1.5"/>
<path d="M70.4988 323.232C70.4988 326.276 73.3473 328.765 76.8276 328.765H419.028C422.509 328.765 425.357 326.276 425.357 323.232L428.206 151.117C428.206 148.073 424.11 142.133 416.602 142.58L82.162 135.005C77.7946 134.905 73.5731 136.376 70.4805 139.075C67.388 141.771 65.6957 145.46 65.7984 149.279L70.4988 323.23V323.232Z" fill="#101217"/>
<g clip-path="url(#clip0_7699_9660)">
<path d="M77.7511 316.412C77.7511 319.26 80.4491 321.589 83.7479 321.589H412.342C415.64 321.589 418.338 319.26 418.338 316.412L421.03 162.046C420.712 152.756 411.277 149.418 405.559 149.615L84.4926 142.18C81.42 142.109 78.4479 143.131 76.2708 145.006C74.0937 146.882 72.8966 149.445 72.9743 152.098L77.7488 316.412H77.7511Z" fill="#1E2129"/>
<rect x="94.5" y="253.412" width="113.029" height="50.2353" rx="25.1176" fill="#101217"/>
<path d="M129.436 273.462H122.636V277.75H127.749V279.006H122.636V283.509H129.436V284.765H121.201V272.206H129.436V273.462ZM131.165 275.794H132.708L135.004 279.221L137.301 275.794H138.862L135.758 280.261L138.862 284.765H137.301L135.004 281.302L132.708 284.765H131.165L134.269 280.261L131.165 275.794ZM142.005 282.953L142.149 282.935V288.353H140.803V275.794H142.041L142.131 277.463C142.406 276.96 142.812 276.536 143.351 276.189C143.889 275.842 144.565 275.668 145.378 275.668C146.155 275.668 146.855 275.86 147.477 276.243C148.099 276.613 148.589 277.146 148.948 277.839C149.307 278.521 149.486 279.334 149.486 280.279C149.486 281.212 149.313 282.026 148.966 282.719C148.631 283.401 148.153 283.933 147.531 284.316C146.921 284.699 146.203 284.89 145.378 284.89C144.517 284.89 143.805 284.705 143.243 284.334C142.681 283.963 142.268 283.503 142.005 282.953ZM148.033 280.279C148.033 279.251 147.764 278.437 147.226 277.839C146.7 277.229 145.988 276.924 145.091 276.924C144.529 276.924 144.02 277.056 143.566 277.319C143.123 277.582 142.776 277.965 142.525 278.467C142.274 278.97 142.149 279.574 142.149 280.279C142.149 280.973 142.274 281.571 142.525 282.073C142.776 282.576 143.123 282.965 143.566 283.24C144.02 283.503 144.529 283.634 145.091 283.634C145.988 283.634 146.7 283.335 147.226 282.737C147.764 282.127 148.033 281.308 148.033 280.279ZM151.683 271.847H153.029V284.765H151.683V271.847ZM159.641 284.89C158.792 284.89 158.032 284.705 157.362 284.334C156.693 283.963 156.166 283.437 155.784 282.755C155.401 282.062 155.209 281.242 155.209 280.297C155.209 279.34 155.401 278.515 155.784 277.821C156.178 277.128 156.711 276.595 157.38 276.225C158.062 275.854 158.828 275.668 159.677 275.668C160.526 275.668 161.286 275.854 161.955 276.225C162.637 276.595 163.169 277.128 163.552 277.821C163.947 278.503 164.144 279.317 164.144 280.261C164.144 281.218 163.947 282.044 163.552 282.737C163.157 283.431 162.619 283.963 161.937 284.334C161.256 284.705 160.49 284.89 159.641 284.89ZM159.623 283.616C160.149 283.616 160.646 283.503 161.112 283.276C161.579 283.036 161.955 282.672 162.242 282.181C162.541 281.679 162.691 281.045 162.691 280.279C162.691 279.502 162.547 278.868 162.26 278.378C161.973 277.887 161.596 277.528 161.13 277.301C160.676 277.062 160.185 276.942 159.659 276.942C159.133 276.942 158.642 277.062 158.188 277.301C157.733 277.528 157.362 277.893 157.075 278.396C156.8 278.886 156.663 279.514 156.663 280.279C156.663 281.057 156.8 281.691 157.075 282.181C157.35 282.672 157.709 283.036 158.152 283.276C158.606 283.503 159.097 283.616 159.623 283.616ZM166.348 275.794H167.586L167.658 277.104C167.897 276.781 168.184 276.506 168.519 276.278C168.866 276.051 169.243 275.896 169.649 275.812C170.068 275.716 170.51 275.71 170.977 275.794V277.14C170.475 277.044 170.02 277.044 169.613 277.14C169.219 277.235 168.878 277.415 168.591 277.678C168.304 277.941 168.082 278.276 167.927 278.683C167.771 279.077 167.694 279.538 167.694 280.064V284.765H166.348V275.794ZM176.581 284.89C175.744 284.89 174.996 284.687 174.338 284.28C173.692 283.874 173.184 283.317 172.813 282.612C172.442 281.906 172.257 281.099 172.257 280.19C172.257 279.317 172.442 278.539 172.813 277.857C173.184 277.176 173.692 276.643 174.338 276.261C174.984 275.866 175.72 275.668 176.545 275.668C177.358 275.668 178.082 275.848 178.716 276.207C179.362 276.566 179.864 277.062 180.223 277.696C180.582 278.33 180.749 279.053 180.725 279.867C180.725 279.998 180.719 280.136 180.707 280.279C180.695 280.423 180.683 280.578 180.671 280.746H173.728C173.752 281.308 173.89 281.804 174.141 282.235C174.392 282.666 174.721 283.006 175.128 283.258C175.546 283.497 176.019 283.616 176.545 283.616C177.239 283.616 177.825 283.485 178.303 283.222C178.794 282.959 179.146 282.582 179.362 282.091L180.528 282.558C180.169 283.311 179.649 283.892 178.967 284.298C178.285 284.693 177.49 284.89 176.581 284.89ZM179.254 279.58C179.266 279.065 179.152 278.611 178.913 278.216C178.686 277.821 178.363 277.51 177.944 277.283C177.526 277.056 177.041 276.942 176.491 276.942C176.013 276.942 175.576 277.056 175.181 277.283C174.787 277.51 174.458 277.827 174.195 278.234C173.944 278.629 173.794 279.077 173.746 279.58H179.254Z" fill="white"/>
</g>
<g clip-path="url(#clip1_7699_9660)">
<rect x="94.5" y="226.5" width="129.176" height="8.97059" rx="4.48529" fill="url(#paint2_linear_7699_9660)"/>
</g>
<rect x="94.5" y="210.353" width="100.471" height="8.97059" rx="4.48529" fill="url(#paint3_linear_7699_9660)"/>
<rect width="233.235" height="25.1176" rx="12.5588" transform="matrix(-1 0 0 1 327.735 163.706)" fill="#35383F"/>
<path d="M213.413 116.186C213.835 109.692 217.776 103.939 223.686 101.145L300.248 64.9728C305.151 62.6562 310.84 62.6562 315.745 64.9728L392.305 101.145C398.215 103.936 402.156 109.69 402.579 116.186C409.759 226.618 338.584 266.853 315.252 277.018C310.625 279.033 305.366 279.033 300.741 277.018C277.409 266.855 206.234 226.618 213.415 116.186H213.413Z" fill="url(#paint4_linear_7699_9660)"/>
<path d="M227.567 117.728C227.657 115.993 228.697 114.444 230.281 113.698L305.956 78.0445C307.249 77.4357 308.748 77.4357 310.041 78.0445L385.716 113.698C387.298 114.444 388.341 115.993 388.431 117.728C390.67 161.161 380.557 197.402 358.351 225.489C341.421 246.904 321.617 258.38 310.015 263.734C308.736 264.324 307.264 264.324 305.985 263.734C294.38 258.38 274.576 246.904 257.649 225.489C235.443 197.402 225.33 161.161 227.569 117.728H227.567Z" fill="#1E2129"/>
<path d="M288.827 155.93V161.896C290.077 161.725 291.498 161.64 293.089 161.612V155.93C293.089 146.982 295.617 141.017 308.002 141.017C320.388 141.017 322.916 146.982 322.916 155.93V161.612C324.507 161.64 325.927 161.725 327.177 161.896V155.93C327.177 147.693 325.188 136.756 308.002 136.756C290.816 136.756 288.827 147.693 288.827 155.93Z" fill="white"/>
<path d="M288.829 161.898C290.079 161.728 291.499 161.643 293.09 161.614H322.917C324.508 161.643 325.928 161.728 327.178 161.898C334.422 162.779 336.41 166.33 336.41 175.818V181.499C336.41 192.862 333.569 195.702 322.207 195.702H293.8C282.437 195.702 279.596 192.862 279.596 181.499V175.818C279.596 166.33 281.585 162.779 288.829 161.898ZM317.349 180.675C317.889 181.187 318.627 181.499 319.366 181.499C319.735 181.499 320.105 181.414 320.445 181.272C320.815 181.13 321.099 180.931 321.383 180.675C321.894 180.136 322.207 179.397 322.207 178.658C322.207 178.289 322.122 177.92 321.979 177.579C321.837 177.238 321.639 176.926 321.383 176.641C321.099 176.386 320.815 176.187 320.445 176.045C319.394 175.59 318.145 175.846 317.349 176.641C317.093 176.926 316.895 177.238 316.753 177.579C316.611 177.92 316.525 178.289 316.525 178.658C316.525 179.397 316.838 180.136 317.349 180.675ZM305.39 179.738C305.532 180.079 305.731 180.391 305.986 180.675C306.526 181.187 307.265 181.499 308.003 181.499C308.77 181.499 309.48 181.187 310.02 180.675C310.276 180.391 310.475 180.079 310.617 179.738C310.759 179.397 310.844 179.028 310.844 178.658C310.844 177.891 310.532 177.181 310.02 176.641C308.969 175.59 307.066 175.59 305.986 176.641C305.475 177.181 305.163 177.891 305.163 178.658C305.163 179.028 305.248 179.397 305.39 179.738ZM294.624 180.675C295.163 181.187 295.902 181.499 296.641 181.499C297.379 181.499 298.118 181.187 298.657 180.675C299.169 180.136 299.481 179.425 299.481 178.658C299.481 177.891 299.169 177.181 298.657 176.641C297.578 175.59 295.675 175.59 294.624 176.641C294.51 176.784 294.396 176.926 294.283 177.096C294.169 177.238 294.084 177.408 294.027 177.579C293.942 177.749 293.885 177.92 293.857 178.09C293.828 178.289 293.8 178.488 293.8 178.658C293.8 179.397 294.112 180.136 294.624 180.675Z" fill="white"/>
<defs>
<linearGradient id="paint0_linear_7699_9660" x1="24.6802" y1="4.29516e-05" x2="620.972" y2="312.787" gradientUnits="userSpaceOnUse">
<stop stop-color="#224664" stop-opacity="0.51"/>
<stop offset="1" stop-color="#75899A" stop-opacity="0"/>
</linearGradient>
<linearGradient id="paint1_linear_7699_9660" x1="0" y1="0" x2="758.916" y2="484.454" gradientUnits="userSpaceOnUse">
<stop stop-color="white" stop-opacity="0.16"/>
<stop offset="1" stop-color="white" stop-opacity="0"/>
</linearGradient>
<linearGradient id="paint2_linear_7699_9660" x1="94.5" y1="230.985" x2="223.676" y2="230.985" gradientUnits="userSpaceOnUse">
<stop stop-color="#30C5D2"/>
<stop offset="1" stop-color="#30C5D2" stop-opacity="0"/>
</linearGradient>
<linearGradient id="paint3_linear_7699_9660" x1="94.5" y1="214.838" x2="194.971" y2="214.838" gradientUnits="userSpaceOnUse">
<stop stop-color="#682990"/>
<stop offset="1" stop-color="#682990" stop-opacity="0"/>
</linearGradient>
<linearGradient id="paint4_linear_7699_9660" x1="403.085" y1="121.695" x2="198.515" y2="143.502" gradientUnits="userSpaceOnUse">
<stop stop-color="#30C5D2"/>
<stop offset="1" stop-color="#471069"/>
</linearGradient>
<clipPath id="clip0_7699_9660">
<rect width="348.059" height="179.412" fill="white" transform="translate(72.9707 142.177)"/>
</clipPath>
<clipPath id="clip1_7699_9660">
<rect width="129.176" height="8.97059" fill="white" transform="translate(94.5 226.5)"/>
</clipPath>
</defs>
</svg>
