<svg width="494" height="398" viewBox="0 0 494 398" fill="none" xmlns="http://www.w3.org/2000/svg">
<rect width="494" height="398" rx="30" fill="url(#paint0_linear_7699_9637)"/>
<rect x="0.75" y="0.75" width="492.5" height="396.5" rx="29.25" stroke="url(#paint1_linear_7699_9637)" stroke-opacity="0.44" stroke-width="1.5"/>
<path d="M76.643 80L85.859 57.6H88.419L97.571 80H93.603L86.435 61.856H87.779L80.547 80H76.643ZM81.187 75.68V72.48H93.059V75.68H81.187ZM110.824 80V71.136C110.824 70.112 110.493 69.2693 109.832 68.608C109.192 67.9467 108.36 67.616 107.336 67.616C106.653 67.616 106.045 67.7653 105.512 68.064C104.978 68.3627 104.562 68.7787 104.264 69.312C103.965 69.8453 103.816 70.4533 103.816 71.136L102.44 70.368C102.44 69.1947 102.696 68.16 103.208 67.264C103.72 66.3467 104.424 65.632 105.32 65.12C106.237 64.5867 107.261 64.32 108.392 64.32C109.544 64.32 110.568 64.6187 111.464 65.216C112.36 65.792 113.064 66.5493 113.576 67.488C114.088 68.4053 114.344 69.3653 114.344 70.368V80H110.824ZM100.296 80V64.64H103.816V80H100.296ZM124.961 80.32C123.467 80.32 122.113 79.968 120.897 79.264C119.681 78.5387 118.71 77.568 117.985 76.352C117.281 75.136 116.929 73.7813 116.929 72.288C116.929 70.7947 117.281 69.4507 117.985 68.256C118.71 67.0613 119.681 66.112 120.897 65.408C122.113 64.6827 123.467 64.32 124.961 64.32C126.475 64.32 127.841 64.672 129.057 65.376C130.273 66.08 131.233 67.04 131.937 68.256C132.662 69.4507 133.025 70.7947 133.025 72.288C133.025 73.7813 132.662 75.136 131.937 76.352C131.233 77.568 130.273 78.5387 129.057 79.264C127.841 79.968 126.475 80.32 124.961 80.32ZM124.961 76.928C125.835 76.928 126.603 76.736 127.265 76.352C127.947 75.9467 128.47 75.392 128.833 74.688C129.217 73.984 129.409 73.184 129.409 72.288C129.409 71.392 129.217 70.6027 128.833 69.92C128.449 69.2373 127.926 68.704 127.265 68.32C126.603 67.9147 125.835 67.712 124.961 67.712C124.107 67.712 123.339 67.9147 122.657 68.32C121.995 68.704 121.473 69.2373 121.089 69.92C120.726 70.6027 120.545 71.392 120.545 72.288C120.545 73.184 120.726 73.984 121.089 74.688C121.473 75.392 121.995 75.9467 122.657 76.352C123.339 76.736 124.107 76.928 124.961 76.928ZM146.48 80V71.136C146.48 70.112 146.149 69.2693 145.488 68.608C144.848 67.9467 144.016 67.616 142.992 67.616C142.309 67.616 141.701 67.7653 141.168 68.064C140.635 68.3627 140.219 68.7787 139.92 69.312C139.621 69.8453 139.472 70.4533 139.472 71.136L138.096 70.368C138.096 69.1947 138.352 68.16 138.864 67.264C139.376 66.3467 140.08 65.632 140.976 65.12C141.893 64.5867 142.917 64.32 144.048 64.32C145.2 64.32 146.224 64.6187 147.12 65.216C148.016 65.792 148.72 66.5493 149.232 67.488C149.744 68.4053 150 69.3653 150 70.368V80H146.48ZM135.952 80V64.64H139.472V80H135.952ZM158.537 80.16L151.977 64.64H155.849L160.329 76.032H159.209L163.945 64.64H167.849L160.713 80.16H158.537ZM153.961 86.4L158.729 76.576L160.713 80.16L157.865 86.4H153.961ZM169.765 80V64.64H173.285V80H169.765ZM179.973 80V70.848C179.973 69.824 179.653 69.0347 179.013 68.48C178.373 67.904 177.583 67.616 176.645 67.616C176.005 67.616 175.429 67.744 174.917 68C174.426 68.256 174.031 68.6293 173.733 69.12C173.434 69.5893 173.285 70.1653 173.285 70.848L171.909 70.08C171.909 68.9067 172.165 67.8933 172.677 67.04C173.189 66.1867 173.882 65.5253 174.757 65.056C175.631 64.5653 176.613 64.32 177.701 64.32C178.789 64.32 179.77 64.5547 180.645 65.024C181.519 65.4933 182.213 66.1547 182.725 67.008C183.237 67.8613 183.493 68.8853 183.493 70.08V80H179.973ZM190.181 80V70.848C190.181 69.824 189.861 69.0347 189.221 68.48C188.581 67.904 187.791 67.616 186.853 67.616C186.234 67.616 185.669 67.744 185.157 68C184.645 68.256 184.239 68.6293 183.941 69.12C183.642 69.5893 183.493 70.1653 183.493 70.848L181.509 70.08C181.615 68.9067 181.957 67.8933 182.533 67.04C183.109 66.1867 183.845 65.5253 184.741 65.056C185.658 64.5653 186.661 64.32 187.749 64.32C188.858 64.32 189.861 64.5547 190.757 65.024C191.653 65.4933 192.367 66.1547 192.901 67.008C193.434 67.8613 193.701 68.8853 193.701 70.08V80H190.181ZM197.359 80V64.64H200.879V80H197.359ZM199.119 61.824C198.522 61.824 198.02 61.6213 197.615 61.216C197.231 60.8107 197.039 60.3093 197.039 59.712C197.039 59.1147 197.231 58.6133 197.615 58.208C198.02 57.8027 198.522 57.6 199.119 57.6C199.738 57.6 200.239 57.8027 200.623 58.208C201.007 58.6133 201.199 59.1147 201.199 59.712C201.199 60.3093 201.007 60.8107 200.623 61.216C200.239 61.6213 199.738 61.824 199.119 61.824ZM207.163 80V58.24H210.683V80H207.163ZM203.483 67.84V64.64H214.363V67.84H203.483ZM221.881 80.16L215.321 64.64H219.193L223.673 76.032H222.553L227.289 64.64H231.193L224.057 80.16H221.881ZM217.305 86.4L222.073 76.576L224.057 80.16L221.209 86.4H217.305ZM246.61 80.32C244.839 80.32 243.335 80 242.098 79.36C240.86 78.72 239.751 77.7813 238.77 76.544L241.266 74.048C241.884 74.944 242.62 75.648 243.474 76.16C244.327 76.6507 245.415 76.896 246.738 76.896C247.975 76.896 248.956 76.64 249.682 76.128C250.428 75.616 250.802 74.912 250.802 74.016C250.802 73.2693 250.61 72.6613 250.226 72.192C249.842 71.7227 249.33 71.3387 248.69 71.04C248.071 70.72 247.378 70.4427 246.61 70.208C245.863 69.952 245.106 69.6747 244.338 69.376C243.591 69.056 242.898 68.6613 242.258 68.192C241.639 67.7227 241.138 67.1147 240.754 66.368C240.37 65.6213 240.178 64.672 240.178 63.52C240.178 62.1973 240.498 61.0773 241.138 60.16C241.799 59.2213 242.684 58.5067 243.794 58.016C244.903 57.5253 246.14 57.28 247.506 57.28C248.978 57.28 250.29 57.568 251.442 58.144C252.615 58.72 253.564 59.456 254.29 60.352L251.794 62.848C251.154 62.1227 250.482 61.5893 249.778 61.248C249.095 60.8853 248.306 60.704 247.41 60.704C246.3 60.704 245.426 60.928 244.786 61.376C244.167 61.824 243.858 62.4533 243.858 63.264C243.858 63.9467 244.05 64.5013 244.434 64.928C244.818 65.3333 245.319 65.6853 245.938 65.984C246.578 66.2613 247.271 66.528 248.018 66.784C248.786 67.04 249.543 67.328 250.29 67.648C251.058 67.968 251.751 68.384 252.37 68.896C253.01 69.3867 253.522 70.0267 253.906 70.816C254.29 71.6053 254.482 72.5973 254.482 73.792C254.482 75.7973 253.767 77.3867 252.338 78.56C250.93 79.7333 249.02 80.32 246.61 80.32ZM264.619 80.32C263.083 80.32 261.697 79.9787 260.459 79.296C259.243 78.592 258.273 77.632 257.547 76.416C256.843 75.2 256.491 73.8347 256.491 72.32C256.491 70.8053 256.843 69.4507 257.547 68.256C258.251 67.04 259.201 66.08 260.395 65.376C261.611 64.672 262.955 64.32 264.427 64.32C265.857 64.32 267.115 64.6507 268.203 65.312C269.313 65.9733 270.177 66.88 270.795 68.032C271.435 69.184 271.755 70.496 271.755 71.968C271.755 72.224 271.734 72.4907 271.691 72.768C271.67 73.024 271.627 73.312 271.563 73.632H258.955V70.752H269.739L268.427 71.904C268.385 70.9653 268.203 70.176 267.883 69.536C267.563 68.896 267.105 68.4053 266.507 68.064C265.931 67.7227 265.217 67.552 264.363 67.552C263.467 67.552 262.689 67.744 262.027 68.128C261.366 68.512 260.854 69.056 260.491 69.76C260.129 70.4427 259.947 71.264 259.947 72.224C259.947 73.184 260.139 74.0267 260.523 74.752C260.907 75.4773 261.451 76.0427 262.155 76.448C262.859 76.832 263.67 77.024 264.587 77.024C265.377 77.024 266.102 76.8853 266.763 76.608C267.446 76.3307 268.022 75.9253 268.491 75.392L270.731 77.664C269.985 78.5387 269.078 79.2 268.011 79.648C266.945 80.096 265.814 80.32 264.619 80.32ZM281.649 80.32C280.134 80.32 278.758 79.968 277.521 79.264C276.305 78.56 275.345 77.6 274.641 76.384C273.937 75.168 273.585 73.8133 273.585 72.32C273.585 70.8053 273.937 69.4507 274.641 68.256C275.345 67.04 276.305 66.08 277.521 65.376C278.758 64.672 280.134 64.32 281.649 64.32C282.844 64.32 283.953 64.5547 284.977 65.024C286.022 65.472 286.908 66.1227 287.633 66.976L285.329 69.312C284.881 68.7787 284.337 68.384 283.697 68.128C283.078 67.8507 282.396 67.712 281.649 67.712C280.774 67.712 279.996 67.9147 279.313 68.32C278.652 68.704 278.129 69.2373 277.745 69.92C277.382 70.6027 277.201 71.4027 277.201 72.32C277.201 73.216 277.382 74.016 277.745 74.72C278.129 75.4027 278.652 75.9467 279.313 76.352C279.996 76.736 280.774 76.928 281.649 76.928C282.396 76.928 283.078 76.8 283.697 76.544C284.337 76.2667 284.881 75.8613 285.329 75.328L287.633 77.664C286.908 78.5173 286.022 79.1787 284.977 79.648C283.953 80.096 282.844 80.32 281.649 80.32ZM296.475 80.32C295.173 80.32 294.011 80.032 292.987 79.456C291.984 78.88 291.195 78.0907 290.619 77.088C290.064 76.064 289.787 74.8907 289.787 73.568V64.64H293.307V73.408C293.307 74.1547 293.424 74.7947 293.659 75.328C293.915 75.84 294.277 76.2347 294.747 76.512C295.237 76.7893 295.813 76.928 296.475 76.928C297.499 76.928 298.277 76.6293 298.811 76.032C299.365 75.4133 299.643 74.5387 299.643 73.408V64.64H303.163V73.568C303.163 74.912 302.875 76.096 302.299 77.12C301.744 78.1227 300.965 78.912 299.963 79.488C298.96 80.0427 297.797 80.32 296.475 80.32ZM306.702 80V64.64H310.222V80H306.702ZM310.222 71.456L309.006 70.848C309.006 68.9067 309.433 67.3387 310.286 66.144C311.161 64.928 312.473 64.32 314.222 64.32C314.99 64.32 315.683 64.4587 316.302 64.736C316.921 65.0133 317.497 65.4613 318.03 66.08L315.726 68.448C315.449 68.1493 315.139 67.936 314.798 67.808C314.457 67.68 314.062 67.616 313.614 67.616C312.633 67.616 311.822 67.9253 311.182 68.544C310.542 69.1627 310.222 70.1333 310.222 71.456ZM319.765 80V64.64H323.285V80H319.765ZM321.525 61.824C320.928 61.824 320.427 61.6213 320.021 61.216C319.637 60.8107 319.445 60.3093 319.445 59.712C319.445 59.1147 319.637 58.6133 320.021 58.208C320.427 57.8027 320.928 57.6 321.525 57.6C322.144 57.6 322.645 57.8027 323.029 58.208C323.413 58.6133 323.605 59.1147 323.605 59.712C323.605 60.3093 323.413 60.8107 323.029 61.216C322.645 61.6213 322.144 61.824 321.525 61.824ZM329.569 80V58.24H333.089V80H329.569ZM325.889 67.84V64.64H336.769V67.84H325.889ZM344.287 80.16L337.727 64.64H341.599L346.079 76.032H344.959L349.695 64.64H353.599L346.463 80.16H344.287ZM339.711 86.4L344.479 76.576L346.463 80.16L343.615 86.4H339.711ZM382.718 80L372.35 68.32L382.494 57.6H387.198L375.998 69.248V67.232L387.518 80H382.718ZM369.182 80V57.6H372.862V80H369.182ZM395.807 80.32C394.271 80.32 392.884 79.9787 391.647 79.296C390.431 78.592 389.46 77.632 388.735 76.416C388.031 75.2 387.679 73.8347 387.679 72.32C387.679 70.8053 388.031 69.4507 388.735 68.256C389.439 67.04 390.388 66.08 391.583 65.376C392.799 64.672 394.143 64.32 395.615 64.32C397.044 64.32 398.303 64.6507 399.391 65.312C400.5 65.9733 401.364 66.88 401.983 68.032C402.623 69.184 402.943 70.496 402.943 71.968C402.943 72.224 402.921 72.4907 402.879 72.768C402.857 73.024 402.815 73.312 402.751 73.632H390.143V70.752H400.927L399.615 71.904C399.572 70.9653 399.391 70.176 399.071 69.536C398.751 68.896 398.292 68.4053 397.695 68.064C397.119 67.7227 396.404 67.552 395.551 67.552C394.655 67.552 393.876 67.744 393.215 68.128C392.553 68.512 392.041 69.056 391.679 69.76C391.316 70.4427 391.135 71.264 391.135 72.224C391.135 73.184 391.327 74.0267 391.711 74.752C392.095 75.4773 392.639 76.0427 393.343 76.448C394.047 76.832 394.857 77.024 395.775 77.024C396.564 77.024 397.289 76.8853 397.951 76.608C398.633 76.3307 399.209 75.9253 399.679 75.392L401.919 77.664C401.172 78.5387 400.265 79.2 399.199 79.648C398.132 80.096 397.001 80.32 395.807 80.32ZM410.475 80.16L403.915 64.64H407.786L412.267 76.032H411.147L415.883 64.64H419.787L412.651 80.16H410.475ZM405.899 86.4L410.667 76.576L412.651 80.16L409.803 86.4H405.899Z" fill="white"/>
<g filter="url(#filter0_d_7699_9637)">
<rect x="48" y="128" width="398" height="88" rx="44" fill="#101217"/>
<rect x="48.75" y="128.75" width="396.5" height="86.5" rx="43.25" stroke="url(#paint2_linear_7699_9637)" stroke-width="1.5"/>
<path d="M113.2 178.044V165.756C113.2 163.5 114.4 162.3 116.656 162.3H119.824C122.056 162.3 123.28 163.5 123.28 165.756V168.252C123.28 168.492 123.136 168.636 122.896 168.636H120.496C120.232 168.636 120.112 168.492 120.112 168.252V166.428C120.112 165.804 119.776 165.468 119.152 165.468H117.424C116.776 165.468 116.464 165.804 116.464 166.428V177.372C116.464 178.02 116.8 178.332 117.424 178.332H119.152C119.776 178.332 120.112 178.02 120.112 177.372V174.156H118.864C118.6 174.156 118.48 174.012 118.48 173.772V171.372C118.48 171.108 118.6 170.988 118.864 170.988H122.896C123.136 170.988 123.28 171.108 123.28 171.372V178.044C123.28 180.3 122.056 181.5 119.824 181.5H116.656C114.4 181.5 113.2 180.3 113.2 178.044ZM135.701 162.3H138.869C139.181 162.3 139.349 162.468 139.349 162.78V181.02C139.349 181.332 139.181 181.5 138.869 181.5H136.637C136.325 181.5 136.157 181.332 136.157 181.02V170.22H135.989L133.613 181.068C133.541 181.356 133.373 181.5 133.085 181.5H131.909C131.621 181.5 131.453 181.356 131.381 181.068L129.005 170.22H128.837V181.02C128.837 181.332 128.669 181.5 128.357 181.5H126.149C125.837 181.5 125.669 181.332 125.669 181.02V162.78C125.669 162.468 125.837 162.3 126.149 162.3H129.317C129.605 162.3 129.773 162.444 129.845 162.732L132.509 174.684L135.173 162.732C135.245 162.444 135.413 162.3 135.701 162.3ZM152.163 172.812H153.147C153.459 172.812 153.627 172.98 153.627 173.292V175.356C153.627 175.668 153.459 175.836 153.147 175.836H152.163V181.02C152.163 181.332 151.995 181.5 151.683 181.5H149.595C149.283 181.5 149.115 181.332 149.115 181.02V175.788H142.227C141.915 175.788 141.747 175.62 141.747 175.308V173.172C141.747 172.956 141.795 172.788 141.915 172.596L148.083 162.612C148.203 162.396 148.395 162.3 148.659 162.3H151.179C151.563 162.3 151.707 162.54 151.491 162.876L145.467 172.86H149.115V169.98C149.115 169.668 149.283 169.5 149.595 169.5H151.683C151.995 169.5 152.163 169.668 152.163 169.98V172.812ZM156.272 162.3H164.432C164.744 162.3 164.912 162.468 164.912 162.78V164.988C164.912 165.3 164.744 165.468 164.432 165.468H159.032V169.236L164.744 171.036C165.032 171.132 165.152 171.3 165.152 171.564V178.14C165.152 180.324 163.976 181.5 161.792 181.5H158.912C156.728 181.5 155.552 180.324 155.552 178.14V177.372C155.552 177.06 155.72 176.892 156.032 176.892H158.336C158.648 176.892 158.816 177.06 158.816 177.372V178.332H161.432C161.744 178.332 161.912 178.164 161.912 177.852V173.46L156.2 171.66C155.912 171.564 155.792 171.396 155.792 171.132V162.78C155.792 162.468 155.96 162.3 156.272 162.3ZM171.704 169.716H173.792C175.976 169.716 177.152 170.892 177.152 173.076V178.14C177.152 180.324 175.976 181.5 173.792 181.5H170.912C168.728 181.5 167.552 180.324 167.552 178.14V171.972C167.552 171.516 167.624 171.204 167.792 170.772L171.2 162.66C171.296 162.42 171.464 162.3 171.752 162.3H174.248C174.608 162.3 174.752 162.516 174.608 162.852L171.704 169.716ZM171.68 178.332H173.024C173.648 178.332 173.984 177.996 173.984 177.372V173.844C173.984 173.22 173.648 172.884 173.024 172.884H171.68C171.056 172.884 170.72 173.22 170.72 173.844V177.372C170.72 177.996 171.056 178.332 171.68 178.332ZM185.552 173.964V171.756C185.552 171.444 185.72 171.276 186.032 171.276H189.824C190.136 171.276 190.304 171.444 190.304 171.756V173.964C190.304 174.276 190.136 174.444 189.824 174.444H186.032C185.72 174.444 185.552 174.276 185.552 173.964ZM208.324 165.756V170.172C208.324 171.06 207.676 171.732 206.812 171.876V171.924C207.676 172.068 208.324 172.74 208.324 173.628V178.044C208.324 180.3 207.1 181.5 204.844 181.5H199.084C198.844 181.5 198.7 181.356 198.7 181.116V162.684C198.7 162.42 198.844 162.3 199.084 162.3H204.844C207.1 162.3 208.324 163.5 208.324 165.756ZM205.132 169.38V166.428C205.132 165.804 204.82 165.468 204.172 165.468H201.988V170.316H204.172C204.796 170.316 205.132 169.98 205.132 169.38ZM205.132 177.372V174.444C205.132 173.82 204.82 173.484 204.172 173.484H201.988V178.332H204.172C204.796 178.332 205.132 178.02 205.132 177.372ZM210.723 178.044V165.756C210.723 163.5 211.923 162.3 214.179 162.3H217.347C219.579 162.3 220.803 163.5 220.803 165.756V168.252C220.803 168.492 220.659 168.636 220.419 168.636H218.019C217.755 168.636 217.635 168.492 217.635 168.252V166.428C217.635 165.804 217.299 165.468 216.675 165.468H214.947C214.299 165.468 213.987 165.804 213.987 166.428V177.372C213.987 178.02 214.323 178.332 214.947 178.332H216.675C217.299 178.332 217.635 178.02 217.635 177.372V174.156H216.387C216.123 174.156 216.003 174.012 216.003 173.772V171.372C216.003 171.108 216.123 170.988 216.387 170.988H220.419C220.659 170.988 220.803 171.108 220.803 171.372V178.044C220.803 180.3 219.579 181.5 217.347 181.5H214.179C211.923 181.5 210.723 180.3 210.723 178.044ZM231.784 162.3H234.184C234.544 162.3 234.712 162.516 234.568 162.852L230.176 173.532V181.02C230.176 181.332 230.008 181.5 229.696 181.5H227.392C227.08 181.5 226.912 181.332 226.912 181.02V173.532L222.52 162.852C222.376 162.516 222.544 162.3 222.904 162.3H225.304C225.592 162.3 225.76 162.42 225.856 162.684L228.544 169.572L231.232 162.684C231.328 162.42 231.496 162.3 231.784 162.3ZM236.294 178.044V165.756C236.294 163.5 237.494 162.3 239.75 162.3H242.438C244.694 162.3 245.894 163.5 245.894 165.756V178.044C245.894 180.3 244.694 181.5 242.438 181.5H239.75C237.494 181.5 236.294 180.3 236.294 178.044ZM240.446 178.404H241.838C242.462 178.404 242.798 178.092 242.798 177.444V166.356C242.798 165.732 242.462 165.396 241.838 165.396H240.446C239.822 165.396 239.486 165.732 239.486 166.356V177.444C239.486 178.092 239.822 178.404 240.446 178.404ZM254.294 173.964V171.756C254.294 171.444 254.462 171.276 254.774 171.276H258.566C258.878 171.276 259.046 171.444 259.046 171.756V173.964C259.046 174.276 258.878 174.444 258.566 174.444H254.774C254.462 174.444 254.294 174.276 254.294 173.964ZM274.81 162.3H277.306C277.546 162.3 277.69 162.444 277.69 162.684V181.116C277.69 181.356 277.546 181.5 277.306 181.5H274.93C274.714 181.5 274.57 181.404 274.498 181.188L270.826 170.94H270.706V181.116C270.706 181.356 270.586 181.5 270.322 181.5H267.826C267.586 181.5 267.442 181.356 267.442 181.116V162.684C267.442 162.444 267.586 162.3 267.826 162.3H270.202C270.418 162.3 270.562 162.396 270.634 162.612L274.282 172.812H274.426V162.684C274.426 162.444 274.546 162.3 274.81 162.3ZM289.722 165.756V170.172C289.722 171.06 289.074 171.732 288.21 171.876V171.924C289.074 172.068 289.722 172.74 289.722 173.628V178.044C289.722 180.3 288.498 181.5 286.242 181.5H283.578C281.322 181.5 280.098 180.3 280.098 178.044V173.628C280.098 172.74 280.746 172.068 281.61 171.924V171.876C280.746 171.732 280.098 171.06 280.098 170.172V165.756C280.098 163.5 281.322 162.3 283.578 162.3H286.242C288.498 162.3 289.722 163.5 289.722 165.756ZM286.53 169.38V166.428C286.53 165.804 286.218 165.468 285.57 165.468H284.25C283.602 165.468 283.29 165.804 283.29 166.428V169.38C283.29 169.98 283.626 170.316 284.25 170.316H285.57C286.194 170.316 286.53 169.98 286.53 169.38ZM286.53 177.372V174.444C286.53 173.82 286.218 173.484 285.57 173.484H284.25C283.602 173.484 283.29 173.82 283.29 174.444V177.372C283.29 178.02 283.626 178.332 284.25 178.332H285.57C286.194 178.332 286.53 178.02 286.53 177.372ZM296.274 169.716H298.362C300.546 169.716 301.722 170.892 301.722 173.076V178.14C301.722 180.324 300.546 181.5 298.362 181.5H295.482C293.298 181.5 292.122 180.324 292.122 178.14V171.972C292.122 171.516 292.194 171.204 292.362 170.772L295.77 162.66C295.866 162.42 296.034 162.3 296.322 162.3H298.818C299.178 162.3 299.322 162.516 299.178 162.852L296.274 169.716ZM296.25 178.332H297.594C298.218 178.332 298.554 177.996 298.554 177.372V173.844C298.554 173.22 298.218 172.884 297.594 172.884H296.25C295.626 172.884 295.29 173.22 295.29 173.844V177.372C295.29 177.996 295.626 178.332 296.25 178.332ZM304.026 162.3H312.858C313.122 162.3 313.242 162.444 313.242 162.684V165.084C313.242 165.324 313.122 165.468 312.858 165.468H310.074V181.116C310.074 181.38 309.954 181.5 309.69 181.5H307.194C306.954 181.5 306.81 181.38 306.81 181.116V165.468H304.026C303.786 165.468 303.642 165.324 303.642 165.084V162.684C303.642 162.444 303.786 162.3 304.026 162.3ZM315.161 173.964V171.756C315.161 171.444 315.329 171.276 315.641 171.276H319.433C319.745 171.276 319.913 171.444 319.913 171.756V173.964C319.913 174.276 319.745 174.444 319.433 174.444H315.641C315.329 174.444 315.161 174.276 315.161 173.964ZM331.933 165.756V170.172C331.933 171.06 331.285 171.732 330.421 171.876V171.924C331.285 172.068 331.933 172.74 331.933 173.628V178.044C331.933 180.3 330.709 181.5 328.453 181.5H325.789C323.533 181.5 322.309 180.3 322.309 178.044V173.628C322.309 172.74 322.957 172.068 323.821 171.924V171.876C322.957 171.732 322.309 171.06 322.309 170.172V165.756C322.309 163.5 323.533 162.3 325.789 162.3H328.453C330.709 162.3 331.933 163.5 331.933 165.756ZM328.741 169.38V166.428C328.741 165.804 328.429 165.468 327.781 165.468H326.461C325.813 165.468 325.501 165.804 325.501 166.428V169.38C325.501 169.98 325.837 170.316 326.461 170.316H327.781C328.405 170.316 328.741 169.98 328.741 169.38ZM328.741 177.372V174.444C328.741 173.82 328.429 173.484 327.781 173.484H326.461C325.813 173.484 325.501 173.82 325.501 174.444V177.372C325.501 178.02 325.837 178.332 326.461 178.332H327.781C328.405 178.332 328.741 178.02 328.741 177.372ZM339.781 174.084H337.693C335.509 174.084 334.333 172.908 334.333 170.724V165.66C334.333 163.476 335.509 162.3 337.693 162.3H340.573C342.757 162.3 343.933 163.476 343.933 165.66V171.828C343.933 172.284 343.861 172.596 343.693 173.028L340.285 181.14C340.189 181.38 340.021 181.5 339.733 181.5H337.237C336.877 181.5 336.733 181.284 336.877 180.948L339.781 174.084ZM339.805 165.468H338.461C337.837 165.468 337.501 165.804 337.501 166.428V169.956C337.501 170.58 337.837 170.916 338.461 170.916H339.805C340.429 170.916 340.765 170.58 340.765 169.956V166.428C340.765 165.804 340.429 165.468 339.805 165.468ZM353.245 162.3H355.453C355.717 162.3 355.933 162.516 355.933 162.78V178.044C355.933 180.3 354.733 181.5 352.477 181.5H349.789C347.533 181.5 346.333 180.3 346.333 178.044V162.78C346.333 162.516 346.549 162.3 346.813 162.3H349.117C349.381 162.3 349.597 162.516 349.597 162.78V177.372C349.597 178.02 349.933 178.332 350.557 178.332H351.805C352.429 178.332 352.765 178.02 352.765 177.372V162.78C352.765 162.516 352.981 162.3 353.245 162.3ZM368.605 181.5H366.061C365.773 181.5 365.605 181.38 365.509 181.14L362.485 174.012L361.597 175.716V181.02C361.597 181.332 361.429 181.5 361.117 181.5H358.813C358.501 181.5 358.333 181.332 358.333 181.02V162.78C358.333 162.468 358.501 162.3 358.813 162.3H361.117C361.429 162.3 361.597 162.468 361.597 162.78V170.22L365.293 162.66C365.413 162.42 365.581 162.3 365.845 162.3H368.365C368.725 162.3 368.869 162.54 368.701 162.876L364.621 171.252L368.965 180.948C369.133 181.26 368.989 181.5 368.605 181.5ZM371.2 178.044V165.756C371.2 163.5 372.4 162.3 374.656 162.3H377.344C379.6 162.3 380.8 163.5 380.8 165.756V178.044C380.8 180.3 379.6 181.5 377.344 181.5H374.656C372.4 181.5 371.2 180.3 371.2 178.044ZM375.352 178.404H376.744C377.368 178.404 377.704 178.092 377.704 177.444V166.356C377.704 165.732 377.368 165.396 376.744 165.396H375.352C374.728 165.396 374.392 165.732 374.392 166.356V177.444C374.392 178.092 374.728 178.404 375.352 178.404Z" fill="#30C5D2"/>
</g>
<rect x="48" y="254" width="398" height="48" rx="6" fill="url(#paint3_linear_7699_9637)"/>
<path d="M197.425 278.925V279.033C197.425 282.758 195.933 284.25 192.208 284.25H186.783C183.058 284.25 181.566 282.758 181.566 279.033V278.925" stroke="white" stroke-width="1.25" stroke-linecap="round" stroke-linejoin="round"/>
<path d="M189.5 271.333V278.733" stroke="white" stroke-width="1.25" stroke-linecap="round" stroke-linejoin="round"/>
<path d="M192.291 276.875L189.5 279.667L186.708 276.875" stroke="white" stroke-width="1.25" stroke-linecap="round" stroke-linejoin="round"/>
<path d="M211.516 283V281.796H214.218C214.937 281.796 215.567 281.642 216.108 281.334C216.649 281.017 217.069 280.583 217.368 280.032C217.676 279.481 217.83 278.847 217.83 278.128C217.83 277.419 217.676 276.789 217.368 276.238C217.06 275.687 216.635 275.258 216.094 274.95C215.553 274.642 214.927 274.488 214.218 274.488H211.53V273.284H214.246C214.955 273.284 215.609 273.405 216.206 273.648C216.813 273.891 217.335 274.231 217.774 274.67C218.222 275.109 218.567 275.622 218.81 276.21C219.062 276.798 219.188 277.442 219.188 278.142C219.188 278.833 219.062 279.477 218.81 280.074C218.567 280.662 218.227 281.175 217.788 281.614C217.349 282.053 216.827 282.393 216.22 282.636C215.623 282.879 214.974 283 214.274 283H211.516ZM210.648 283V273.284H211.964V283H210.648ZM223.825 283.14C223.172 283.14 222.584 282.986 222.061 282.678C221.539 282.37 221.123 281.955 220.815 281.432C220.507 280.9 220.353 280.307 220.353 279.654C220.353 279.01 220.507 278.431 220.815 277.918C221.123 277.395 221.539 276.98 222.061 276.672C222.584 276.364 223.172 276.21 223.825 276.21C224.469 276.21 225.053 276.364 225.575 276.672C226.107 276.971 226.527 277.381 226.835 277.904C227.143 278.427 227.297 279.01 227.297 279.654C227.297 280.307 227.143 280.9 226.835 281.432C226.527 281.955 226.107 282.37 225.575 282.678C225.053 282.986 224.469 283.14 223.825 283.14ZM223.825 281.922C224.245 281.922 224.619 281.824 224.945 281.628C225.272 281.432 225.529 281.166 225.715 280.83C225.902 280.485 225.995 280.093 225.995 279.654C225.995 279.225 225.897 278.842 225.701 278.506C225.515 278.17 225.258 277.909 224.931 277.722C224.614 277.526 224.245 277.428 223.825 277.428C223.405 277.428 223.032 277.526 222.705 277.722C222.379 277.909 222.122 278.17 221.935 278.506C221.749 278.842 221.655 279.225 221.655 279.654C221.655 280.093 221.749 280.485 221.935 280.83C222.122 281.166 222.379 281.432 222.705 281.628C223.032 281.824 223.405 281.922 223.825 281.922ZM230.43 283L227.798 276.35H229.114L231.018 281.53H230.598L232.488 276.35H233.216L235.106 281.53H234.686L236.59 276.35H237.906L235.288 283H234.546L232.628 277.974H233.09L231.158 283H230.43ZM243.73 283V279.122C243.73 278.618 243.571 278.203 243.254 277.876C242.936 277.549 242.526 277.386 242.022 277.386C241.686 277.386 241.387 277.461 241.126 277.61C240.864 277.759 240.659 277.965 240.51 278.226C240.36 278.487 240.286 278.786 240.286 279.122L239.768 278.828C239.768 278.324 239.88 277.876 240.104 277.484C240.328 277.092 240.64 276.784 241.042 276.56C241.443 276.327 241.896 276.21 242.4 276.21C242.904 276.21 243.347 276.336 243.73 276.588C244.122 276.84 244.43 277.171 244.654 277.582C244.878 277.983 244.99 278.413 244.99 278.87V283H243.73ZM239.026 283V276.35H240.286V283H239.026ZM246.695 283V273.004H247.955V283H246.695ZM252.837 283.14C252.184 283.14 251.596 282.986 251.073 282.678C250.55 282.37 250.135 281.955 249.827 281.432C249.519 280.9 249.365 280.307 249.365 279.654C249.365 279.01 249.519 278.431 249.827 277.918C250.135 277.395 250.55 276.98 251.073 276.672C251.596 276.364 252.184 276.21 252.837 276.21C253.481 276.21 254.064 276.364 254.587 276.672C255.119 276.971 255.539 277.381 255.847 277.904C256.155 278.427 256.309 279.01 256.309 279.654C256.309 280.307 256.155 280.9 255.847 281.432C255.539 281.955 255.119 282.37 254.587 282.678C254.064 282.986 253.481 283.14 252.837 283.14ZM252.837 281.922C253.257 281.922 253.63 281.824 253.957 281.628C254.284 281.432 254.54 281.166 254.727 280.83C254.914 280.485 255.007 280.093 255.007 279.654C255.007 279.225 254.909 278.842 254.713 278.506C254.526 278.17 254.27 277.909 253.943 277.722C253.626 277.526 253.257 277.428 252.837 277.428C252.417 277.428 252.044 277.526 251.717 277.722C251.39 277.909 251.134 278.17 250.947 278.506C250.76 278.842 250.667 279.225 250.667 279.654C250.667 280.093 250.76 280.485 250.947 280.83C251.134 281.166 251.39 281.432 251.717 281.628C252.044 281.824 252.417 281.922 252.837 281.922ZM260.557 283.14C259.95 283.14 259.399 282.991 258.905 282.692C258.41 282.384 258.018 281.969 257.729 281.446C257.449 280.923 257.309 280.335 257.309 279.682C257.309 279.029 257.449 278.441 257.729 277.918C258.018 277.395 258.405 276.98 258.891 276.672C259.385 276.364 259.941 276.21 260.557 276.21C261.061 276.21 261.509 276.317 261.901 276.532C262.302 276.737 262.624 277.027 262.867 277.4C263.109 277.764 263.245 278.189 263.273 278.674V280.676C263.245 281.152 263.109 281.577 262.867 281.95C262.633 282.323 262.316 282.617 261.915 282.832C261.523 283.037 261.07 283.14 260.557 283.14ZM260.767 281.95C261.392 281.95 261.896 281.74 262.279 281.32C262.661 280.891 262.853 280.345 262.853 279.682C262.853 279.225 262.764 278.828 262.587 278.492C262.419 278.147 262.176 277.881 261.859 277.694C261.541 277.498 261.173 277.4 260.753 277.4C260.333 277.4 259.959 277.498 259.633 277.694C259.315 277.89 259.063 278.161 258.877 278.506C258.699 278.842 258.611 279.229 258.611 279.668C258.611 280.116 258.699 280.513 258.877 280.858C259.063 281.194 259.32 281.46 259.647 281.656C259.973 281.852 260.347 281.95 260.767 281.95ZM262.769 283V281.208L263.007 279.584L262.769 277.974V276.35H264.043V283H262.769ZM268.691 283.14C268.075 283.14 267.524 282.991 267.039 282.692C266.554 282.384 266.166 281.969 265.877 281.446C265.597 280.923 265.457 280.335 265.457 279.682C265.457 279.029 265.597 278.441 265.877 277.918C266.166 277.395 266.554 276.98 267.039 276.672C267.524 276.364 268.075 276.21 268.691 276.21C269.186 276.21 269.634 276.317 270.035 276.532C270.436 276.737 270.758 277.027 271.001 277.4C271.253 277.764 271.393 278.189 271.421 278.674V280.676C271.393 281.152 271.258 281.577 271.015 281.95C270.772 282.323 270.45 282.617 270.049 282.832C269.648 283.037 269.195 283.14 268.691 283.14ZM268.901 281.95C269.321 281.95 269.685 281.852 269.993 281.656C270.31 281.46 270.558 281.194 270.735 280.858C270.912 280.513 271.001 280.121 271.001 279.682C271.001 279.225 270.908 278.828 270.721 278.492C270.544 278.156 270.296 277.89 269.979 277.694C269.671 277.498 269.307 277.4 268.887 277.4C268.467 277.4 268.098 277.498 267.781 277.694C267.464 277.89 267.212 278.161 267.025 278.506C266.848 278.842 266.759 279.229 266.759 279.668C266.759 280.116 266.848 280.513 267.025 280.858C267.212 281.194 267.464 281.46 267.781 281.656C268.108 281.852 268.481 281.95 268.901 281.95ZM272.191 283H270.917V281.208L271.155 279.584L270.917 277.974V273.004H272.191V283ZM279.766 283.14C279.159 283.14 278.608 282.991 278.114 282.692C277.619 282.384 277.227 281.969 276.938 281.446C276.658 280.923 276.518 280.335 276.518 279.682C276.518 279.029 276.658 278.441 276.938 277.918C277.227 277.395 277.614 276.98 278.1 276.672C278.594 276.364 279.15 276.21 279.766 276.21C280.27 276.21 280.718 276.317 281.11 276.532C281.511 276.737 281.833 277.027 282.076 277.4C282.318 277.764 282.454 278.189 282.482 278.674V280.676C282.454 281.152 282.318 281.577 282.076 281.95C281.842 282.323 281.525 282.617 281.124 282.832C280.732 283.037 280.279 283.14 279.766 283.14ZM279.976 281.95C280.601 281.95 281.105 281.74 281.488 281.32C281.87 280.891 282.062 280.345 282.062 279.682C282.062 279.225 281.973 278.828 281.796 278.492C281.628 278.147 281.385 277.881 281.068 277.694C280.75 277.498 280.382 277.4 279.962 277.4C279.542 277.4 279.168 277.498 278.842 277.694C278.524 277.89 278.272 278.161 278.086 278.506C277.908 278.842 277.82 279.229 277.82 279.668C277.82 280.116 277.908 280.513 278.086 280.858C278.272 281.194 278.529 281.46 278.856 281.656C279.182 281.852 279.556 281.95 279.976 281.95ZM281.978 283V281.208L282.216 279.584L281.978 277.974V276.35H283.252V283H281.978ZM287.2 283.14C286.827 283.14 286.472 283.093 286.136 283C285.809 282.897 285.506 282.757 285.226 282.58C284.946 282.393 284.703 282.174 284.498 281.922L285.31 281.11C285.553 281.409 285.833 281.633 286.15 281.782C286.467 281.922 286.822 281.992 287.214 281.992C287.606 281.992 287.909 281.927 288.124 281.796C288.339 281.656 288.446 281.465 288.446 281.222C288.446 280.979 288.357 280.793 288.18 280.662C288.012 280.522 287.793 280.41 287.522 280.326C287.251 280.233 286.962 280.144 286.654 280.06C286.355 279.967 286.071 279.85 285.8 279.71C285.529 279.57 285.305 279.379 285.128 279.136C284.96 278.893 284.876 278.571 284.876 278.17C284.876 277.769 284.974 277.423 285.17 277.134C285.366 276.835 285.637 276.607 285.982 276.448C286.337 276.289 286.761 276.21 287.256 276.21C287.779 276.21 288.241 276.303 288.642 276.49C289.053 276.667 289.389 276.938 289.65 277.302L288.838 278.114C288.651 277.871 288.418 277.685 288.138 277.554C287.867 277.423 287.559 277.358 287.214 277.358C286.85 277.358 286.57 277.423 286.374 277.554C286.187 277.675 286.094 277.848 286.094 278.072C286.094 278.296 286.178 278.469 286.346 278.59C286.514 278.711 286.733 278.814 287.004 278.898C287.284 278.982 287.573 279.071 287.872 279.164C288.171 279.248 288.455 279.365 288.726 279.514C288.997 279.663 289.216 279.864 289.384 280.116C289.561 280.368 289.65 280.699 289.65 281.11C289.65 281.735 289.426 282.23 288.978 282.594C288.539 282.958 287.947 283.14 287.2 283.14ZM295.079 283.14C294.817 283.14 294.598 283.051 294.421 282.874C294.253 282.687 294.169 282.468 294.169 282.216C294.169 281.955 294.253 281.74 294.421 281.572C294.598 281.395 294.817 281.306 295.079 281.306C295.34 281.306 295.555 281.395 295.723 281.572C295.9 281.74 295.989 281.955 295.989 282.216C295.989 282.468 295.9 282.687 295.723 282.874C295.555 283.051 295.34 283.14 295.079 283.14ZM298.522 283V273.564H299.782V283H298.522ZM296.884 277.498V276.35H301.42V277.498H296.884ZM306.927 283L304.855 280.088L304.617 279.864L301.999 276.35H303.525L305.415 278.94L305.653 279.136L308.453 283H306.927ZM301.873 283L304.617 279.304L305.331 280.228L303.357 283H301.873ZM305.751 279.85L305.023 278.954L306.857 276.35H308.327L305.751 279.85ZM310.362 283V273.564H311.622V283H310.362ZM308.724 277.498V276.35H313.26V277.498H308.724Z" fill="white"/>
<rect x="48" y="310" width="398" height="48" rx="6" fill="white"/>
<path d="M188.834 334.75V338.25C188.834 341.167 187.667 342.334 184.75 342.334H181.25C178.334 342.334 177.167 341.167 177.167 338.25V334.75C177.167 331.834 178.334 330.667 181.25 330.667H184.75C187.667 330.667 188.834 331.834 188.834 334.75Z" stroke="#88898B" stroke-width="1.25" stroke-linecap="round" stroke-linejoin="round"/>
<path d="M193.834 329.75V333.25C193.834 336.167 192.667 337.334 189.75 337.334H188.834V334.75C188.834 331.834 187.667 330.667 184.75 330.667H182.167V329.75C182.167 326.834 183.334 325.667 186.25 325.667H189.75C192.667 325.667 193.834 326.834 193.834 329.75Z" stroke="#88898B" stroke-width="1.25" stroke-linecap="round" stroke-linejoin="round"/>
<path d="M211.058 339.14C210.358 339.14 209.709 339.014 209.112 338.762C208.515 338.501 207.992 338.141 207.544 337.684C207.105 337.227 206.765 336.695 206.522 336.088C206.279 335.481 206.158 334.833 206.158 334.142C206.158 333.442 206.279 332.789 206.522 332.182C206.765 331.575 207.105 331.048 207.544 330.6C207.992 330.143 208.51 329.788 209.098 329.536C209.695 329.275 210.344 329.144 211.044 329.144C211.809 329.144 212.481 329.275 213.06 329.536C213.639 329.797 214.152 330.152 214.6 330.6L213.69 331.51C213.382 331.165 213.004 330.894 212.556 330.698C212.117 330.502 211.613 330.404 211.044 330.404C210.531 330.404 210.059 330.497 209.63 330.684C209.201 330.861 208.827 331.118 208.51 331.454C208.193 331.79 207.945 332.187 207.768 332.644C207.6 333.101 207.516 333.601 207.516 334.142C207.516 334.683 207.6 335.183 207.768 335.64C207.945 336.097 208.193 336.494 208.51 336.83C208.827 337.166 209.201 337.427 209.63 337.614C210.059 337.791 210.531 337.88 211.044 337.88C211.651 337.88 212.178 337.782 212.626 337.586C213.074 337.381 213.452 337.105 213.76 336.76L214.67 337.656C214.222 338.123 213.695 338.487 213.088 338.748C212.491 339.009 211.814 339.14 211.058 339.14ZM218.882 339.14C218.229 339.14 217.641 338.986 217.118 338.678C216.595 338.37 216.18 337.955 215.872 337.432C215.564 336.9 215.41 336.307 215.41 335.654C215.41 335.01 215.564 334.431 215.872 333.918C216.18 333.395 216.595 332.98 217.118 332.672C217.641 332.364 218.229 332.21 218.882 332.21C219.526 332.21 220.109 332.364 220.632 332.672C221.164 332.971 221.584 333.381 221.892 333.904C222.2 334.427 222.354 335.01 222.354 335.654C222.354 336.307 222.2 336.9 221.892 337.432C221.584 337.955 221.164 338.37 220.632 338.678C220.109 338.986 219.526 339.14 218.882 339.14ZM218.882 337.922C219.302 337.922 219.675 337.824 220.002 337.628C220.329 337.432 220.585 337.166 220.772 336.83C220.959 336.485 221.052 336.093 221.052 335.654C221.052 335.225 220.954 334.842 220.758 334.506C220.571 334.17 220.315 333.909 219.988 333.722C219.671 333.526 219.302 333.428 218.882 333.428C218.462 333.428 218.089 333.526 217.762 333.722C217.435 333.909 217.179 334.17 216.992 334.506C216.805 334.842 216.712 335.225 216.712 335.654C216.712 336.093 216.805 336.485 216.992 336.83C217.179 337.166 217.435 337.432 217.762 337.628C218.089 337.824 218.462 337.922 218.882 337.922ZM227.274 339.14C226.77 339.14 226.312 339.037 225.902 338.832C225.5 338.617 225.178 338.323 224.936 337.95C224.693 337.577 224.558 337.152 224.53 336.676V334.674C224.558 334.189 224.693 333.764 224.936 333.4C225.188 333.027 225.514 332.737 225.916 332.532C226.326 332.317 226.779 332.21 227.274 332.21C227.88 332.21 228.426 332.364 228.912 332.672C229.406 332.98 229.794 333.395 230.074 333.918C230.354 334.441 230.494 335.029 230.494 335.682C230.494 336.335 230.354 336.923 230.074 337.446C229.794 337.969 229.406 338.384 228.912 338.692C228.426 338.991 227.88 339.14 227.274 339.14ZM223.774 341.786V332.35H225.034V334.1L224.796 335.71L225.034 337.334V341.786H223.774ZM227.064 337.95C227.484 337.95 227.852 337.852 228.17 337.656C228.487 337.46 228.739 337.194 228.926 336.858C229.112 336.513 229.206 336.116 229.206 335.668C229.206 335.229 229.112 334.837 228.926 334.492C228.739 334.147 228.487 333.881 228.17 333.694C227.852 333.498 227.488 333.4 227.078 333.4C226.658 333.4 226.289 333.498 225.972 333.694C225.654 333.881 225.407 334.147 225.23 334.492C225.052 334.837 224.964 335.234 224.964 335.682C224.964 336.121 225.048 336.513 225.216 336.858C225.393 337.194 225.64 337.46 225.958 337.656C226.284 337.852 226.653 337.95 227.064 337.95ZM233.86 339.056L230.976 332.35H232.376L234.518 337.6H234.07L236.324 332.35H237.724L234.616 339.056H233.86ZM231.956 341.786L233.916 337.768L234.616 339.056L233.356 341.786H231.956ZM242.801 339V329.564H244.061V339H242.801ZM241.163 333.498V332.35H245.699V333.498H241.163ZM249.767 339.14C249.113 339.14 248.525 338.986 248.003 338.678C247.48 338.37 247.065 337.955 246.757 337.432C246.449 336.9 246.295 336.307 246.295 335.654C246.295 335.01 246.449 334.431 246.757 333.918C247.065 333.395 247.48 332.98 248.003 332.672C248.525 332.364 249.113 332.21 249.767 332.21C250.411 332.21 250.994 332.364 251.517 332.672C252.049 332.971 252.469 333.381 252.777 333.904C253.085 334.427 253.239 335.01 253.239 335.654C253.239 336.307 253.085 336.9 252.777 337.432C252.469 337.955 252.049 338.37 251.517 338.678C250.994 338.986 250.411 339.14 249.767 339.14ZM249.767 337.922C250.187 337.922 250.56 337.824 250.887 337.628C251.213 337.432 251.47 337.166 251.657 336.83C251.843 336.485 251.937 336.093 251.937 335.654C251.937 335.225 251.839 334.842 251.643 334.506C251.456 334.17 251.199 333.909 250.873 333.722C250.555 333.526 250.187 333.428 249.767 333.428C249.347 333.428 248.973 333.526 248.647 333.722C248.32 333.909 248.063 334.17 247.877 334.506C247.69 334.842 247.597 335.225 247.597 335.654C247.597 336.093 247.69 336.485 247.877 336.83C248.063 337.166 248.32 337.432 248.647 337.628C248.973 337.824 249.347 337.922 249.767 337.922ZM262.204 339.14C261.504 339.14 260.856 339.014 260.258 338.762C259.661 338.501 259.138 338.141 258.69 337.684C258.252 337.227 257.911 336.695 257.668 336.088C257.426 335.481 257.304 334.833 257.304 334.142C257.304 333.442 257.426 332.789 257.668 332.182C257.911 331.575 258.252 331.048 258.69 330.6C259.138 330.143 259.656 329.788 260.244 329.536C260.842 329.275 261.49 329.144 262.19 329.144C262.956 329.144 263.628 329.275 264.206 329.536C264.785 329.797 265.298 330.152 265.746 330.6L264.836 331.51C264.528 331.165 264.15 330.894 263.702 330.698C263.264 330.502 262.76 330.404 262.19 330.404C261.677 330.404 261.206 330.497 260.776 330.684C260.347 330.861 259.974 331.118 259.656 331.454C259.339 331.79 259.092 332.187 258.914 332.644C258.746 333.101 258.662 333.601 258.662 334.142C258.662 334.683 258.746 335.183 258.914 335.64C259.092 336.097 259.339 336.494 259.656 336.83C259.974 337.166 260.347 337.427 260.776 337.614C261.206 337.791 261.677 337.88 262.19 337.88C262.797 337.88 263.324 337.782 263.772 337.586C264.22 337.381 264.598 337.105 264.906 336.76L265.816 337.656C265.368 338.123 264.841 338.487 264.234 338.748C263.637 339.009 262.96 339.14 262.204 339.14ZM267.209 339V329.004H268.469V339H267.209ZM270.327 339V332.35H271.587V339H270.327ZM270.957 331.02C270.723 331.02 270.532 330.945 270.383 330.796C270.233 330.637 270.159 330.441 270.159 330.208C270.159 329.984 270.233 329.797 270.383 329.648C270.532 329.489 270.723 329.41 270.957 329.41C271.19 329.41 271.381 329.489 271.531 329.648C271.68 329.797 271.755 329.984 271.755 330.208C271.755 330.441 271.68 330.637 271.531 330.796C271.381 330.945 271.19 331.02 270.957 331.02ZM276.944 339.14C276.44 339.14 275.982 339.037 275.572 338.832C275.17 338.617 274.848 338.323 274.606 337.95C274.363 337.577 274.228 337.152 274.2 336.676V334.674C274.228 334.189 274.363 333.764 274.606 333.4C274.858 333.027 275.184 332.737 275.586 332.532C275.996 332.317 276.449 332.21 276.944 332.21C277.55 332.21 278.096 332.364 278.582 332.672C279.076 332.98 279.464 333.395 279.744 333.918C280.024 334.441 280.164 335.029 280.164 335.682C280.164 336.335 280.024 336.923 279.744 337.446C279.464 337.969 279.076 338.384 278.582 338.692C278.096 338.991 277.55 339.14 276.944 339.14ZM273.444 341.786V332.35H274.704V334.1L274.466 335.71L274.704 337.334V341.786H273.444ZM276.734 337.95C277.154 337.95 277.522 337.852 277.84 337.656C278.157 337.46 278.409 337.194 278.596 336.858C278.782 336.513 278.876 336.116 278.876 335.668C278.876 335.229 278.782 334.837 278.596 334.492C278.409 334.147 278.157 333.881 277.84 333.694C277.522 333.498 277.158 333.4 276.748 333.4C276.328 333.4 275.959 333.498 275.642 333.694C275.324 333.881 275.077 334.147 274.9 334.492C274.722 334.837 274.634 335.234 274.634 335.682C274.634 336.121 274.718 336.513 274.886 336.858C275.063 337.194 275.31 337.46 275.628 337.656C275.954 337.852 276.323 337.95 276.734 337.95ZM285.092 339.14C284.588 339.14 284.131 339.037 283.72 338.832C283.319 338.617 282.997 338.323 282.754 337.95C282.511 337.577 282.376 337.152 282.348 336.676V334.674C282.376 334.189 282.511 333.764 282.754 333.4C283.006 333.027 283.333 332.737 283.734 332.532C284.145 332.317 284.597 332.21 285.092 332.21C285.699 332.21 286.245 332.364 286.73 332.672C287.225 332.98 287.612 333.395 287.892 333.918C288.172 334.441 288.312 335.029 288.312 335.682C288.312 336.335 288.172 336.923 287.892 337.446C287.612 337.969 287.225 338.384 286.73 338.692C286.245 338.991 285.699 339.14 285.092 339.14ZM281.592 339V329.004H282.852V333.974L282.614 335.584L282.852 337.208V339H281.592ZM284.882 337.95C285.302 337.95 285.671 337.852 285.988 337.656C286.305 337.46 286.557 337.194 286.744 336.858C286.931 336.513 287.024 336.116 287.024 335.668C287.024 335.229 286.931 334.837 286.744 334.492C286.557 334.147 286.305 333.881 285.988 333.694C285.671 333.498 285.307 333.4 284.896 333.4C284.476 333.4 284.107 333.498 283.79 333.694C283.473 333.881 283.225 334.147 283.048 334.492C282.871 334.837 282.782 335.234 282.782 335.682C282.782 336.121 282.866 336.513 283.034 336.858C283.211 337.194 283.459 337.46 283.776 337.656C284.103 337.852 284.471 337.95 284.882 337.95ZM292.778 339.14C292.125 339.14 291.537 338.986 291.014 338.678C290.492 338.37 290.076 337.955 289.768 337.432C289.46 336.9 289.306 336.307 289.306 335.654C289.306 335.01 289.46 334.431 289.768 333.918C290.076 333.395 290.492 332.98 291.014 332.672C291.537 332.364 292.125 332.21 292.778 332.21C293.422 332.21 294.006 332.364 294.528 332.672C295.06 332.971 295.48 333.381 295.788 333.904C296.096 334.427 296.25 335.01 296.25 335.654C296.25 336.307 296.096 336.9 295.788 337.432C295.48 337.955 295.06 338.37 294.528 338.678C294.006 338.986 293.422 339.14 292.778 339.14ZM292.778 337.922C293.198 337.922 293.572 337.824 293.898 337.628C294.225 337.432 294.482 337.166 294.668 336.83C294.855 336.485 294.948 336.093 294.948 335.654C294.948 335.225 294.85 334.842 294.654 334.506C294.468 334.17 294.211 333.909 293.884 333.722C293.567 333.526 293.198 333.428 292.778 333.428C292.358 333.428 291.985 333.526 291.658 333.722C291.332 333.909 291.075 334.17 290.888 334.506C290.702 334.842 290.608 335.225 290.608 335.654C290.608 336.093 290.702 336.485 290.888 336.83C291.075 337.166 291.332 337.432 291.658 337.628C291.985 337.824 292.358 337.922 292.778 337.922ZM300.498 339.14C299.891 339.14 299.341 338.991 298.846 338.692C298.351 338.384 297.959 337.969 297.67 337.446C297.39 336.923 297.25 336.335 297.25 335.682C297.25 335.029 297.39 334.441 297.67 333.918C297.959 333.395 298.347 332.98 298.832 332.672C299.327 332.364 299.882 332.21 300.498 332.21C301.002 332.21 301.45 332.317 301.842 332.532C302.243 332.737 302.565 333.027 302.808 333.4C303.051 333.764 303.186 334.189 303.214 334.674V336.676C303.186 337.152 303.051 337.577 302.808 337.95C302.575 338.323 302.257 338.617 301.856 338.832C301.464 339.037 301.011 339.14 300.498 339.14ZM300.708 337.95C301.333 337.95 301.837 337.74 302.22 337.32C302.603 336.891 302.794 336.345 302.794 335.682C302.794 335.225 302.705 334.828 302.528 334.492C302.36 334.147 302.117 333.881 301.8 333.694C301.483 333.498 301.114 333.4 300.694 333.4C300.274 333.4 299.901 333.498 299.574 333.694C299.257 333.89 299.005 334.161 298.818 334.506C298.641 334.842 298.552 335.229 298.552 335.668C298.552 336.116 298.641 336.513 298.818 336.858C299.005 337.194 299.261 337.46 299.588 337.656C299.915 337.852 300.288 337.95 300.708 337.95ZM302.71 339V337.208L302.948 335.584L302.71 333.974V332.35H303.984V339H302.71ZM305.819 339V332.35H307.079V339H305.819ZM307.079 335.206L306.603 334.996C306.603 334.147 306.799 333.47 307.191 332.966C307.583 332.462 308.147 332.21 308.885 332.21C309.221 332.21 309.524 332.271 309.795 332.392C310.065 332.504 310.317 332.695 310.551 332.966L309.725 333.82C309.585 333.671 309.431 333.563 309.263 333.498C309.095 333.433 308.899 333.4 308.675 333.4C308.208 333.4 307.825 333.549 307.527 333.848C307.228 334.147 307.079 334.599 307.079 335.206ZM314.033 339.14C313.417 339.14 312.866 338.991 312.381 338.692C311.896 338.384 311.508 337.969 311.219 337.446C310.939 336.923 310.799 336.335 310.799 335.682C310.799 335.029 310.939 334.441 311.219 333.918C311.508 333.395 311.896 332.98 312.381 332.672C312.866 332.364 313.417 332.21 314.033 332.21C314.528 332.21 314.976 332.317 315.377 332.532C315.778 332.737 316.1 333.027 316.343 333.4C316.595 333.764 316.735 334.189 316.763 334.674V336.676C316.735 337.152 316.6 337.577 316.357 337.95C316.114 338.323 315.792 338.617 315.391 338.832C314.99 339.037 314.537 339.14 314.033 339.14ZM314.243 337.95C314.663 337.95 315.027 337.852 315.335 337.656C315.652 337.46 315.9 337.194 316.077 336.858C316.254 336.513 316.343 336.121 316.343 335.682C316.343 335.225 316.25 334.828 316.063 334.492C315.886 334.156 315.638 333.89 315.321 333.694C315.013 333.498 314.649 333.4 314.229 333.4C313.809 333.4 313.44 333.498 313.123 333.694C312.806 333.89 312.554 334.161 312.367 334.506C312.19 334.842 312.101 335.229 312.101 335.668C312.101 336.116 312.19 336.513 312.367 336.858C312.554 337.194 312.806 337.46 313.123 337.656C313.45 337.852 313.823 337.95 314.243 337.95ZM317.533 339H316.259V337.208L316.497 335.584L316.259 333.974V329.004H317.533V339Z" fill="#1E2129"/>
<defs>
<filter id="filter0_d_7699_9637" x="18" y="98" width="458" height="148" filterUnits="userSpaceOnUse" color-interpolation-filters="sRGB">
<feFlood flood-opacity="0" result="BackgroundImageFix"/>
<feColorMatrix in="SourceAlpha" type="matrix" values="0 0 0 0 0 0 0 0 0 0 0 0 0 0 0 0 0 0 127 0" result="hardAlpha"/>
<feOffset/>
<feGaussianBlur stdDeviation="15"/>
<feComposite in2="hardAlpha" operator="out"/>
<feColorMatrix type="matrix" values="0 0 0 0 1 0 0 0 0 1 0 0 0 0 1 0 0 0 0.25 0"/>
<feBlend mode="normal" in2="BackgroundImageFix" result="effect1_dropShadow_7699_9637"/>
<feBlend mode="normal" in="SourceGraphic" in2="effect1_dropShadow_7699_9637" result="shape"/>
</filter>
<linearGradient id="paint0_linear_7699_9637" x1="24.6802" y1="4.29516e-05" x2="620.972" y2="312.787" gradientUnits="userSpaceOnUse">
<stop stop-color="#224664" stop-opacity="0.51"/>
<stop offset="1" stop-color="#75899A" stop-opacity="0"/>
</linearGradient>
<linearGradient id="paint1_linear_7699_9637" x1="0" y1="0" x2="758.916" y2="484.454" gradientUnits="userSpaceOnUse">
<stop stop-color="white" stop-opacity="0.16"/>
<stop offset="1" stop-color="white" stop-opacity="0"/>
</linearGradient>
<linearGradient id="paint2_linear_7699_9637" x1="48" y1="151.895" x2="381.61" y2="333.976" gradientUnits="userSpaceOnUse">
<stop stop-color="#30C5D2"/>
<stop offset="1" stop-color="#471069"/>
</linearGradient>
<linearGradient id="paint3_linear_7699_9637" x1="48" y1="267.034" x2="264.362" y2="483.527" gradientUnits="userSpaceOnUse">
<stop stop-color="#30C5D2"/>
<stop offset="1" stop-color="#471069"/>
</linearGradient>
</defs>
</svg>
