<svg width="440" height="203" viewBox="0 0 440 203" fill="none" xmlns="http://www.w3.org/2000/svg">
<rect width="440" height="203" rx="8.91396" fill="#101217"/>
<circle cx="11.7055" cy="11.7055" r="3.90182" fill="#D95A57"/>
<circle cx="23.4111" cy="11.7055" r="3.90182" fill="#585A5D"/>
<circle cx="35.1162" cy="11.7055" r="3.90182" fill="#52BE80"/>
<path d="M81.2089 42.4982C80.3193 42.4982 79.5638 42.3374 78.9422 42.0159C78.3206 41.6944 77.7633 41.2228 77.2704 40.6013L78.5243 39.3474C78.835 39.7975 79.2048 40.1511 79.6335 40.4083C80.0621 40.6548 80.6087 40.7781 81.2732 40.7781C81.8947 40.7781 82.3877 40.6495 82.7521 40.3923C83.1272 40.1351 83.3147 39.7814 83.3147 39.3313C83.3147 38.9562 83.2183 38.6508 83.0254 38.415C82.8325 38.1792 82.5753 37.9863 82.2538 37.8363C81.943 37.6755 81.5947 37.5362 81.2089 37.4183C80.8338 37.2897 80.4533 37.1504 80.0675 37.0003C79.6924 36.8396 79.3441 36.6413 79.0226 36.4055C78.7118 36.1698 78.46 35.8643 78.267 35.4892C78.0741 35.1142 77.9777 34.6372 77.9777 34.0585C77.9777 33.3941 78.1384 32.8314 78.46 32.3706C78.7922 31.8991 79.2369 31.54 79.7942 31.2935C80.3515 31.0471 80.9731 30.9238 81.659 30.9238C82.3984 30.9238 83.0575 31.0685 83.6363 31.3578C84.2257 31.6472 84.7026 32.0169 85.067 32.4671L83.8131 33.7209C83.4916 33.3566 83.154 33.0886 82.8003 32.9172C82.4574 32.735 82.0609 32.6439 81.6107 32.6439C81.0535 32.6439 80.6141 32.7564 80.2926 32.9815C79.9818 33.2065 79.8264 33.5227 79.8264 33.9299C79.8264 34.2729 79.9228 34.5515 80.1157 34.7658C80.3086 34.9695 80.5605 35.1463 80.8713 35.2963C81.1928 35.4357 81.5411 35.5696 81.9162 35.6982C82.302 35.8268 82.6824 35.9715 83.0575 36.1323C83.4434 36.293 83.7917 36.502 84.1024 36.7592C84.424 37.0057 84.6812 37.3272 84.8741 37.7237C85.067 38.1203 85.1634 38.6186 85.1634 39.2188C85.1634 40.2262 84.8044 41.0246 84.0864 41.614C83.379 42.2034 82.4199 42.4982 81.2089 42.4982ZM90.2562 42.4982C89.4846 42.4982 88.788 42.3267 88.1664 41.9837C87.5555 41.6301 87.0679 41.1478 86.7035 40.5369C86.3499 39.9261 86.173 39.2402 86.173 38.4793C86.173 37.7184 86.3499 37.0379 86.7035 36.4377C87.0572 35.8268 87.5341 35.3446 88.1343 34.9909C88.7451 34.6372 89.4203 34.4604 90.1598 34.4604C90.8778 34.4604 91.5101 34.6265 92.0567 34.9588C92.614 35.291 93.048 35.7465 93.3588 36.3252C93.6803 36.9039 93.841 37.563 93.841 38.3025C93.841 38.4311 93.8303 38.565 93.8089 38.7043C93.7982 38.8329 93.7767 38.9776 93.7446 39.1384H87.4109V37.6916H92.8283L92.1692 38.2703C92.1478 37.7988 92.0567 37.4022 91.8959 37.0807C91.7352 36.7592 91.5047 36.5127 91.2047 36.3412C90.9153 36.1698 90.5563 36.084 90.1276 36.084C89.6775 36.084 89.2863 36.1805 88.9541 36.3734C88.6219 36.5663 88.3647 36.8396 88.1825 37.1932C88.0003 37.5362 87.9092 37.9488 87.9092 38.4311C87.9092 38.9133 88.0056 39.3366 88.1986 39.701C88.3915 40.0654 88.6647 40.3494 89.0184 40.553C89.3721 40.7459 89.7793 40.8424 90.2401 40.8424C90.6367 40.8424 91.001 40.7727 91.3333 40.6334C91.6762 40.4941 91.9656 40.2905 92.2013 40.0225L93.3266 41.1639C92.9515 41.6033 92.4961 41.9355 91.9602 42.1606C91.4244 42.3856 90.8564 42.4982 90.2562 42.4982ZM98.8113 42.4982C98.0504 42.4982 97.3591 42.3213 96.7375 41.9677C96.1267 41.614 95.6444 41.1317 95.2907 40.5209C94.9371 39.91 94.7602 39.2295 94.7602 38.4793C94.7602 37.7184 94.9371 37.0379 95.2907 36.4377C95.6444 35.8268 96.1267 35.3446 96.7375 34.9909C97.3591 34.6372 98.0504 34.4604 98.8113 34.4604C99.4114 34.4604 99.9687 34.5783 100.483 34.8141C101.008 35.0391 101.453 35.366 101.817 35.7947L100.66 36.9682C100.435 36.7003 100.162 36.502 99.8401 36.3734C99.5293 36.2341 99.1864 36.1644 98.8113 36.1644C98.3719 36.1644 97.9807 36.2662 97.6377 36.4699C97.3055 36.6628 97.043 36.9307 96.8501 37.2736C96.6679 37.6166 96.5768 38.0185 96.5768 38.4793C96.5768 38.9294 96.6679 39.3313 96.8501 39.6849C97.043 40.0279 97.3055 40.3012 97.6377 40.5048C97.9807 40.6977 98.3719 40.7942 98.8113 40.7942C99.1864 40.7942 99.5293 40.7299 99.8401 40.6013C100.162 40.4619 100.435 40.2583 100.66 39.9904L101.817 41.1639C101.453 41.5926 101.008 41.9248 100.483 42.1606C99.9687 42.3856 99.4114 42.4982 98.8113 42.4982ZM103.092 42.3374V34.6212H104.861V42.3374H103.092ZM104.861 38.0452L104.25 37.7398C104.25 36.7646 104.464 35.9769 104.893 35.3767C105.332 34.7658 105.991 34.4604 106.87 34.4604C107.256 34.4604 107.604 34.5301 107.915 34.6694C108.226 34.8087 108.515 35.0338 108.783 35.3446L107.626 36.5342C107.486 36.3841 107.331 36.2769 107.159 36.2126C106.988 36.1483 106.79 36.1162 106.565 36.1162C106.072 36.1162 105.664 36.2716 105.343 36.5824C105.021 36.8932 104.861 37.3808 104.861 38.0452ZM112.988 42.4982C112.216 42.4982 111.52 42.3267 110.898 41.9837C110.287 41.6301 109.8 41.1478 109.435 40.5369C109.082 39.9261 108.905 39.2402 108.905 38.4793C108.905 37.7184 109.082 37.0379 109.435 36.4377C109.789 35.8268 110.266 35.3446 110.866 34.9909C111.477 34.6372 112.152 34.4604 112.892 34.4604C113.61 34.4604 114.242 34.6265 114.788 34.9588C115.346 35.291 115.78 35.7465 116.091 36.3252C116.412 36.9039 116.573 37.563 116.573 38.3025C116.573 38.4311 116.562 38.565 116.541 38.7043C116.53 38.8329 116.508 38.9776 116.476 39.1384H110.143V37.6916H115.56L114.901 38.2703C114.88 37.7988 114.788 37.4022 114.628 37.0807C114.467 36.7592 114.236 36.5127 113.936 36.3412C113.647 36.1698 113.288 36.084 112.859 36.084C112.409 36.084 112.018 36.1805 111.686 36.3734C111.354 36.5663 111.096 36.8396 110.914 37.1932C110.732 37.5362 110.641 37.9488 110.641 38.4311C110.641 38.9133 110.737 39.3366 110.93 39.701C111.123 40.0654 111.396 40.3494 111.75 40.553C112.104 40.7459 112.511 40.8424 112.972 40.8424C113.368 40.8424 113.733 40.7727 114.065 40.6334C114.408 40.4941 114.697 40.2905 114.933 40.0225L116.058 41.1639C115.683 41.6033 115.228 41.9355 114.692 42.1606C114.156 42.3856 113.588 42.4982 112.988 42.4982ZM118.96 42.3374V31.4061H120.728V42.3374H118.96ZM117.111 36.2287V34.6212H122.577V36.2287H117.111ZM134.121 42.3374L128.912 36.4699L134.008 31.0846H136.372L130.745 36.936V35.9233L136.532 42.3374H134.121ZM127.321 42.3374V31.0846H129.17V42.3374H127.321ZM140.696 42.4982C139.925 42.4982 139.228 42.3267 138.606 41.9837C137.996 41.6301 137.508 41.1478 137.144 40.5369C136.79 39.9261 136.613 39.2402 136.613 38.4793C136.613 37.7184 136.79 37.0379 137.144 36.4377C137.497 35.8268 137.974 35.3446 138.574 34.9909C139.185 34.6372 139.86 34.4604 140.6 34.4604C141.318 34.4604 141.95 34.6265 142.497 34.9588C143.054 35.291 143.488 35.7465 143.799 36.3252C144.12 36.9039 144.281 37.563 144.281 38.3025C144.281 38.4311 144.27 38.565 144.249 38.7043C144.238 38.8329 144.217 38.9776 144.185 39.1384H137.851V37.6916H143.268L142.609 38.2703C142.588 37.7988 142.497 37.4022 142.336 37.0807C142.175 36.7592 141.945 36.5127 141.645 36.3412C141.355 36.1698 140.996 36.084 140.568 36.084C140.117 36.084 139.726 36.1805 139.394 36.3734C139.062 36.5663 138.805 36.8396 138.622 37.1932C138.44 37.5362 138.349 37.9488 138.349 38.4311C138.349 38.9133 138.446 39.3366 138.639 39.701C138.831 40.0654 139.105 40.3494 139.458 40.553C139.812 40.7459 140.219 40.8424 140.68 40.8424C141.077 40.8424 141.441 40.7727 141.773 40.6334C142.116 40.4941 142.406 40.2905 142.641 40.0225L143.767 41.1639C143.392 41.6033 142.936 41.9355 142.4 42.1606C141.864 42.3856 141.296 42.4982 140.696 42.4982ZM148.065 42.4178L144.769 34.6212H146.714L148.965 40.344H148.402L150.781 34.6212H152.743L149.158 42.4178H148.065ZM145.766 45.5525L148.161 40.6173L149.158 42.4178L147.727 45.5525H145.766ZM157.353 42.3374V31.0846H159.201V42.3374H157.353ZM158.623 42.3374V40.6495H164.506V42.3374H158.623ZM169.22 42.4982C168.469 42.4982 167.789 42.3213 167.178 41.9677C166.567 41.6033 166.08 41.1157 165.715 40.5048C165.362 39.8939 165.185 39.2134 165.185 38.4632C165.185 37.713 165.362 37.0379 165.715 36.4377C166.08 35.8375 166.567 35.3606 167.178 35.007C167.789 34.6426 168.469 34.4604 169.22 34.4604C169.981 34.4604 170.666 34.6372 171.277 34.9909C171.888 35.3446 172.37 35.8268 172.724 36.4377C173.088 37.0379 173.271 37.713 173.271 38.4632C173.271 39.2134 173.088 39.8939 172.724 40.5048C172.37 41.1157 171.888 41.6033 171.277 41.9677C170.666 42.3213 169.981 42.4982 169.22 42.4982ZM169.22 40.7942C169.659 40.7942 170.045 40.6977 170.377 40.5048C170.72 40.3012 170.983 40.0225 171.165 39.6689C171.358 39.3152 171.454 38.9133 171.454 38.4632C171.454 38.0131 171.358 37.6166 171.165 37.2736C170.972 36.9307 170.709 36.6628 170.377 36.4699C170.045 36.2662 169.659 36.1644 169.22 36.1644C168.791 36.1644 168.405 36.2662 168.062 36.4699C167.73 36.6628 167.467 36.9307 167.274 37.2736C167.092 37.6166 167.001 38.0131 167.001 38.4632C167.001 38.9133 167.092 39.3152 167.274 39.6689C167.467 40.0225 167.73 40.3012 168.062 40.5048C168.405 40.6977 168.791 40.7942 169.22 40.7942ZM177.956 45.7133C177.142 45.7133 176.429 45.5632 175.818 45.2631C175.207 44.9738 174.714 44.5612 174.339 44.0253L175.497 42.8679C175.808 43.2537 176.161 43.5431 176.558 43.736C176.954 43.9289 177.431 44.0253 177.988 44.0253C178.685 44.0253 179.237 43.8431 179.644 43.4788C180.051 43.1251 180.255 42.6375 180.255 42.0159V40.119L180.56 38.415L180.255 36.6949V34.6212H182.023V42.0159C182.023 42.7554 181.852 43.3984 181.509 43.945C181.166 44.5022 180.689 44.9363 180.078 45.2471C179.467 45.5579 178.76 45.7133 177.956 45.7133ZM177.876 42.1766C177.19 42.1766 176.568 42.0105 176.011 41.6783C175.465 41.3354 175.031 40.8692 174.709 40.2797C174.398 39.6903 174.243 39.0312 174.243 38.3025C174.243 37.5737 174.398 36.92 174.709 36.3412C175.031 35.7625 175.465 35.3071 176.011 34.9748C176.568 34.6319 177.19 34.4604 177.876 34.4604C178.487 34.4604 179.023 34.5837 179.483 34.8302C179.944 35.0766 180.303 35.4196 180.56 35.859C180.818 36.2877 180.946 36.7914 180.946 37.3701V39.267C180.946 39.835 180.812 40.3387 180.544 40.7781C180.287 41.2175 179.928 41.5604 179.467 41.8069C179.007 42.0534 178.476 42.1766 177.876 42.1766ZM178.23 40.5048C178.658 40.5048 179.033 40.4137 179.355 40.2315C179.676 40.0493 179.923 39.7975 180.094 39.476C180.276 39.1437 180.368 38.7579 180.368 38.3185C180.368 37.8791 180.276 37.4987 180.094 37.1772C179.923 36.8449 179.676 36.5877 179.355 36.4055C179.033 36.2234 178.658 36.1323 178.23 36.1323C177.801 36.1323 177.42 36.2234 177.088 36.4055C176.767 36.5877 176.515 36.8449 176.333 37.1772C176.15 37.4987 176.059 37.8791 176.059 38.3185C176.059 38.7472 176.15 39.1277 176.333 39.4599C176.515 39.7921 176.767 40.0493 177.088 40.2315C177.42 40.4137 177.801 40.5048 178.23 40.5048ZM184.004 42.3374V34.6212H185.772V42.3374H184.004ZM184.888 33.2065C184.588 33.2065 184.336 33.1047 184.132 32.9011C183.939 32.6975 183.843 32.4456 183.843 32.1455C183.843 31.8455 183.939 31.5936 184.132 31.39C184.336 31.1864 184.588 31.0846 184.888 31.0846C185.199 31.0846 185.451 31.1864 185.643 31.39C185.836 31.5936 185.933 31.8455 185.933 32.1455C185.933 32.4456 185.836 32.6975 185.643 32.9011C185.451 33.1047 185.199 33.2065 184.888 33.2065ZM193.044 42.3374V37.8845C193.044 37.3701 192.878 36.9468 192.546 36.6145C192.224 36.2823 191.806 36.1162 191.292 36.1162C190.949 36.1162 190.644 36.1912 190.376 36.3412C190.108 36.4913 189.899 36.7003 189.749 36.9682C189.599 37.2361 189.524 37.5415 189.524 37.8845L188.832 37.4987C188.832 36.9092 188.961 36.3895 189.218 35.9394C189.475 35.4785 189.829 35.1195 190.279 34.8623C190.74 34.5944 191.254 34.4604 191.822 34.4604C192.401 34.4604 192.916 34.6105 193.366 34.9105C193.816 35.1999 194.17 35.5803 194.427 36.0519C194.684 36.5127 194.813 36.995 194.813 37.4987V42.3374H193.044ZM187.755 42.3374V34.6212H189.524V42.3374H187.755ZM202.255 44.2504C201.687 43.7467 201.194 43.1305 200.776 42.4017C200.369 41.6729 200.053 40.8745 199.828 40.0065C199.603 39.1384 199.49 38.2382 199.49 37.3058C199.49 36.3734 199.603 35.4732 199.828 34.6051C200.053 33.737 200.369 32.9386 200.776 32.2098C201.194 31.4811 201.687 30.8649 202.255 30.3612L203.268 31.2614C202.561 31.9151 202.009 32.7618 201.612 33.8013C201.226 34.8302 201.033 35.9983 201.033 37.3058C201.033 38.6025 201.226 39.7707 201.612 40.8102C202.009 41.8498 202.561 42.6964 203.268 43.3502L202.255 44.2504ZM204.873 42.3374V31.0846H206.159L206.721 33.2065V42.3374H204.873ZM212.669 42.3374L205.934 33.5441L206.159 31.0846L212.894 39.8779L212.669 42.3374ZM212.669 42.3374L212.107 40.3601V31.0846H213.955V42.3374H212.669ZM221.572 42.4982C220.768 42.4982 220.018 42.3481 219.321 42.048C218.625 41.748 218.014 41.3354 217.489 40.8102C216.964 40.2744 216.551 39.6582 216.251 38.9616C215.961 38.2542 215.817 37.4987 215.817 36.6949C215.817 35.8911 215.961 35.1409 216.251 34.4443C216.551 33.7477 216.958 33.1369 217.473 32.6117C217.998 32.0759 218.603 31.6633 219.289 31.3739C219.986 31.0738 220.736 30.9238 221.54 30.9238C222.343 30.9238 223.088 31.0738 223.774 31.3739C224.471 31.6633 225.082 32.0759 225.607 32.6117C226.132 33.1369 226.539 33.7531 226.828 34.4604C227.129 35.157 227.279 35.9072 227.279 36.711C227.279 37.5148 227.129 38.2703 226.828 38.9776C226.539 39.6742 226.132 40.2851 225.607 40.8102C225.092 41.3354 224.487 41.748 223.79 42.048C223.104 42.3481 222.365 42.4982 221.572 42.4982ZM221.54 40.7299C222.301 40.7299 222.965 40.5584 223.533 40.2154C224.112 39.8725 224.562 39.4009 224.883 38.8008C225.216 38.1899 225.382 37.488 225.382 36.6949C225.382 36.1055 225.285 35.5696 225.092 35.0874C224.91 34.5944 224.648 34.1711 224.305 33.8174C223.962 33.453 223.554 33.1744 223.083 32.9815C222.622 32.7886 222.108 32.6921 221.54 32.6921C220.789 32.6921 220.125 32.8636 219.546 33.2065C218.978 33.5388 218.528 34.0049 218.196 34.6051C217.874 35.2052 217.714 35.9019 217.714 36.6949C217.714 37.2843 217.805 37.8309 217.987 38.3346C218.18 38.8276 218.442 39.2509 218.775 39.6046C219.118 39.9582 219.525 40.2369 219.996 40.4405C220.468 40.6334 220.982 40.7299 221.54 40.7299ZM232.377 42.3374V31.0846H233.663L234.225 33.2065V42.3374H232.377ZM240.173 42.3374L233.438 33.5441L233.663 31.0846L240.398 39.8779L240.173 42.3374ZM240.173 42.3374L239.611 40.3601V31.0846H241.459V42.3374H240.173ZM243.064 42.3374L247.693 31.0846H248.98L253.577 42.3374H251.584L247.983 33.2226H248.658L245.025 42.3374H243.064ZM245.346 40.1672V38.5597H251.31V40.1672H245.346ZM255.061 42.3374V31.0846H256.347L261.025 38.7847H260.19L264.867 31.0846H266.154V42.3374H264.305V34.3318L264.723 34.4443L261.251 40.1511H259.964L256.492 34.4443L256.91 34.3318V42.3374H255.061ZM268.594 42.3374V31.0846H270.442V42.3374H268.594ZM269.864 42.3374V40.6495H276.165V42.3374H269.864ZM269.864 37.4022V35.7786H275.619V37.4022H269.864ZM269.864 32.7725V31.0846H276.085V32.7725H269.864ZM277.835 44.2182L278.928 42.1766L279.523 42.0159C279.458 42.1445 279.383 42.2517 279.297 42.3374C279.212 42.4231 279.11 42.466 278.992 42.466C278.746 42.466 278.515 42.3642 278.301 42.1606C278.097 41.9462 277.995 41.6783 277.995 41.3568C277.995 41.0139 278.108 40.7245 278.333 40.4887C278.569 40.2422 278.858 40.119 279.201 40.119C279.523 40.119 279.801 40.2422 280.037 40.4887C280.283 40.7245 280.407 41.0139 280.407 41.3568C280.407 41.4961 280.375 41.6622 280.31 41.8551C280.257 42.0373 280.155 42.2731 280.005 42.5625L278.815 44.7487L277.835 44.2182ZM285.737 42.3374V31.0846H287.023L287.585 33.2065V42.3374H285.737ZM293.533 42.3374L286.798 33.5441L287.023 31.0846L293.758 39.8779L293.533 42.3374ZM293.533 42.3374L292.971 40.3601V31.0846H294.819V42.3374H293.533ZM302.436 42.4982C301.632 42.4982 300.882 42.3481 300.185 42.048C299.489 41.748 298.878 41.3354 298.353 40.8102C297.828 40.2744 297.415 39.6582 297.115 38.9616C296.826 38.2542 296.681 37.4987 296.681 36.6949C296.681 35.8911 296.826 35.1409 297.115 34.4443C297.415 33.7477 297.822 33.1369 298.337 32.6117C298.862 32.0759 299.467 31.6633 300.153 31.3739C300.85 31.0738 301.6 30.9238 302.404 30.9238C303.208 30.9238 303.952 31.0738 304.638 31.3739C305.335 31.6633 305.946 32.0759 306.471 32.6117C306.996 33.1369 307.403 33.7531 307.693 34.4604C307.993 35.157 308.143 35.9072 308.143 36.711C308.143 37.5148 307.993 38.2703 307.693 38.9776C307.403 39.6742 306.996 40.2851 306.471 40.8102C305.956 41.3354 305.351 41.748 304.654 42.048C303.968 42.3481 303.229 42.4982 302.436 42.4982ZM302.404 40.7299C303.165 40.7299 303.829 40.5584 304.397 40.2154C304.976 39.8725 305.426 39.4009 305.747 38.8008C306.08 38.1899 306.246 37.488 306.246 36.6949C306.246 36.1055 306.149 35.5696 305.956 35.0874C305.774 34.5944 305.512 34.1711 305.169 33.8174C304.826 33.453 304.419 33.1744 303.947 32.9815C303.486 32.7886 302.972 32.6921 302.404 32.6921C301.654 32.6921 300.989 32.8636 300.41 33.2065C299.842 33.5388 299.392 34.0049 299.06 34.6051C298.739 35.2052 298.578 35.9019 298.578 36.6949C298.578 37.2843 298.669 37.8309 298.851 38.3346C299.044 38.8276 299.307 39.2509 299.639 39.6046C299.982 39.9582 300.389 40.2369 300.86 40.4405C301.332 40.6334 301.846 40.7299 302.404 40.7299ZM313.241 42.3374V31.0846H315.09V42.3374H313.241ZM314.511 42.3374V40.6495H320.812V42.3374H314.511ZM314.511 37.4022V35.7786H320.266V37.4022H314.511ZM314.511 32.7725V31.0846H320.732V32.7725H314.511ZM322.723 42.3374V31.0846H324.009L328.687 38.7847H327.851L332.529 31.0846H333.815V42.3374H331.966V34.3318L332.384 34.4443L328.912 40.1511H327.626L324.154 34.4443L324.572 34.3318V42.3374H322.723ZM335.419 42.3374L340.049 31.0846H341.335L345.933 42.3374H343.939L340.338 33.2226H341.014L337.38 42.3374H335.419ZM337.702 40.1672V38.5597H343.666V40.1672H337.702ZM347.417 42.3374V31.0846H349.266V42.3374H347.417ZM351.703 42.3374V31.0846H353.551V42.3374H351.703ZM352.973 42.3374V40.6495H358.856V42.3374H352.973ZM360.718 44.2504L359.705 43.3502C360.412 42.6964 360.959 41.8498 361.345 40.8102C361.741 39.7707 361.94 38.6025 361.94 37.3058C361.94 35.9983 361.741 34.8302 361.345 33.8013C360.959 32.7618 360.412 31.9151 359.705 31.2614L360.718 30.3612C361.286 30.8649 361.774 31.4811 362.181 32.2098C362.599 32.9386 362.92 33.737 363.145 34.6051C363.37 35.4732 363.483 36.3734 363.483 37.3058C363.483 38.2382 363.37 39.1384 363.145 40.0065C362.92 40.8745 362.599 41.6729 362.181 42.4017C361.774 43.1305 361.286 43.7467 360.718 44.2504Z" fill="white"/>
<path d="M77.9871 61.3903L75.3241 57.3715H76.3874L78.5334 60.6587H78.0554L80.2111 57.3715H81.2549L78.5724 61.3903H77.9871ZM77.831 64.1411V60.7856H78.748V64.1411H77.831ZM82.8505 64.2387C82.3953 64.2387 81.9856 64.1314 81.6214 63.9168C81.2573 63.7022 80.9679 63.4128 80.7533 63.0486C80.5387 62.6779 80.4314 62.265 80.4314 61.8098C80.4314 61.3611 80.5387 60.9579 80.7533 60.6002C80.9679 60.236 81.2573 59.9467 81.6214 59.7321C81.9856 59.5175 82.3953 59.4102 82.8505 59.4102C83.2992 59.4102 83.7056 59.5175 84.0698 59.7321C84.4405 59.9402 84.7331 60.2263 84.9477 60.5905C85.1623 60.9546 85.2696 61.3611 85.2696 61.8098C85.2696 62.265 85.1623 62.6779 84.9477 63.0486C84.7331 63.4128 84.4405 63.7022 84.0698 63.9168C83.7056 64.1314 83.2992 64.2387 82.8505 64.2387ZM82.8505 63.39C83.1431 63.39 83.4033 63.3217 83.6309 63.1852C83.8585 63.0486 84.0373 62.8633 84.1674 62.6292C84.2974 62.3885 84.3625 62.1154 84.3625 61.8098C84.3625 61.5106 84.2942 61.244 84.1576 61.0099C84.0275 60.7758 83.8487 60.5937 83.6211 60.4637C83.4 60.3271 83.1431 60.2588 82.8505 60.2588C82.5579 60.2588 82.2977 60.3271 82.0701 60.4637C81.8425 60.5937 81.6637 60.7758 81.5336 61.0099C81.4036 61.244 81.3385 61.5106 81.3385 61.8098C81.3385 62.1154 81.4036 62.3885 81.5336 62.6292C81.6637 62.8633 81.8425 63.0486 82.0701 63.1852C82.2977 63.3217 82.5579 63.39 82.8505 63.39ZM88.1219 64.2387C87.7447 64.2387 87.4033 64.1541 87.0977 63.985C86.7985 63.8095 86.5644 63.5688 86.3954 63.2632C86.2263 62.9576 86.1417 62.6031 86.1417 62.2V59.5077H87.0197V62.1609C87.0197 62.4146 87.0619 62.6357 87.1465 62.8243C87.2375 63.0063 87.3676 63.1461 87.5366 63.2437C87.7057 63.3412 87.9041 63.39 88.1317 63.39C88.4763 63.39 88.7462 63.2827 88.9413 63.0681C89.1364 62.847 89.2339 62.5446 89.2339 62.1609V59.5077H90.1118V62.2C90.1118 62.6031 90.0273 62.9576 89.8582 63.2632C89.6891 63.5688 89.455 63.8095 89.1559 63.985C88.8633 64.1541 88.5186 64.2387 88.1219 64.2387ZM91.2885 64.1411V59.5077H92.1664V64.1411H91.2885ZM92.1664 61.4976L91.8347 61.3513C91.8347 60.7595 91.9713 60.2881 92.2444 59.9369C92.5176 59.5857 92.911 59.4102 93.4247 59.4102C93.6588 59.4102 93.8702 59.4524 94.0588 59.537C94.2474 59.615 94.4229 59.7483 94.5855 59.9369L94.01 60.5319C93.9125 60.4279 93.8052 60.3531 93.6881 60.3076C93.571 60.2621 93.4345 60.2393 93.2784 60.2393C92.9533 60.2393 92.6866 60.3433 92.4785 60.5514C92.2704 60.7595 92.1664 61.0749 92.1664 61.4976ZM99.2672 64.2387C98.8901 64.2387 98.5487 64.1541 98.243 63.985C97.9439 63.8095 97.7098 63.5688 97.5407 63.2632C97.3716 62.9576 97.2871 62.6031 97.2871 62.2V59.5077H98.165V62.1609C98.165 62.4146 98.2072 62.6357 98.2918 62.8243C98.3828 63.0063 98.5129 63.1461 98.682 63.2437C98.851 63.3412 99.0494 63.39 99.277 63.39C99.6217 63.39 99.8915 63.2827 100.087 63.0681C100.282 62.847 100.379 62.5446 100.379 62.1609V59.5077H101.257V62.2C101.257 62.6031 101.173 62.9576 101.004 63.2632C100.834 63.5688 100.6 63.8095 100.301 63.985C100.009 64.1541 99.6639 64.2387 99.2672 64.2387ZM105.711 64.1411V61.4391C105.711 61.0879 105.601 60.7986 105.38 60.571C105.159 60.3433 104.872 60.2295 104.521 60.2295C104.287 60.2295 104.079 60.2816 103.897 60.3856C103.715 60.4897 103.572 60.6327 103.468 60.8148C103.364 60.9969 103.312 61.205 103.312 61.4391L102.951 61.2343C102.951 60.8831 103.029 60.571 103.185 60.2978C103.341 60.0247 103.559 59.8101 103.838 59.654C104.118 59.4914 104.433 59.4102 104.785 59.4102C105.136 59.4102 105.445 59.498 105.711 59.6735C105.984 59.8491 106.199 60.08 106.355 60.3661C106.511 60.6457 106.589 60.9449 106.589 61.2635V64.1411H105.711ZM102.434 64.1411V59.5077H103.312V64.1411H102.434ZM107.788 64.1411V59.5077H108.666V64.1411H107.788ZM108.227 58.581C108.064 58.581 107.931 58.529 107.827 58.425C107.723 58.3144 107.671 58.1778 107.671 58.0153C107.671 57.8592 107.723 57.7291 107.827 57.6251C107.931 57.5145 108.064 57.4593 108.227 57.4593C108.389 57.4593 108.522 57.5145 108.626 57.6251C108.731 57.7291 108.783 57.8592 108.783 58.0153C108.783 58.1778 108.731 58.3144 108.626 58.425C108.522 58.529 108.389 58.581 108.227 58.581ZM111.939 64.2387C111.51 64.2387 111.123 64.1346 110.779 63.9265C110.434 63.7119 110.161 63.4225 109.959 63.0584C109.764 62.6942 109.667 62.2845 109.667 61.8293C109.667 61.3741 109.764 60.9644 109.959 60.6002C110.161 60.236 110.434 59.9467 110.779 59.7321C111.123 59.5175 111.507 59.4102 111.93 59.4102C112.287 59.4102 112.603 59.4849 112.876 59.6345C113.156 59.7776 113.377 59.9792 113.539 60.2393C113.708 60.4929 113.803 60.7888 113.822 61.127V62.5219C113.803 62.8535 113.708 63.1494 113.539 63.4095C113.377 63.6696 113.156 63.8745 112.876 64.0241C112.603 64.1671 112.291 64.2387 111.939 64.2387ZM112.076 63.4095C112.512 63.4095 112.863 63.2632 113.13 62.9706C113.396 62.6714 113.529 62.291 113.529 61.8293C113.529 61.5106 113.468 61.2343 113.344 61.0002C113.227 60.7595 113.058 60.5742 112.837 60.4441C112.622 60.3076 112.369 60.2393 112.076 60.2393C111.783 60.2393 111.523 60.3076 111.296 60.4441C111.075 60.5807 110.899 60.7693 110.769 61.0099C110.639 61.244 110.574 61.5139 110.574 61.8195C110.574 62.1317 110.639 62.4081 110.769 62.6487C110.899 62.8828 111.075 63.0681 111.296 63.2047C111.523 63.3412 111.783 63.4095 112.076 63.4095ZM113.481 66.0823V62.9803L113.637 61.8488L113.481 60.727V59.5077H114.359V66.0823H113.481ZM117.509 64.2387C117.132 64.2387 116.791 64.1541 116.485 63.985C116.186 63.8095 115.952 63.5688 115.783 63.2632C115.614 62.9576 115.529 62.6031 115.529 62.2V59.5077H116.407V62.1609C116.407 62.4146 116.449 62.6357 116.534 62.8243C116.625 63.0063 116.755 63.1461 116.924 63.2437C117.093 63.3412 117.292 63.39 117.519 63.39C117.864 63.39 118.134 63.2827 118.329 63.0681C118.524 62.847 118.621 62.5446 118.621 62.1609V59.5077H119.499V62.2C119.499 62.6031 119.415 62.9576 119.246 63.2632C119.077 63.5688 118.842 63.8095 118.543 63.985C118.251 64.1541 117.906 64.2387 117.509 64.2387ZM122.822 64.2387C122.36 64.2387 121.944 64.1346 121.573 63.9265C121.203 63.7119 120.91 63.4225 120.695 63.0584C120.481 62.6942 120.374 62.2812 120.374 61.8195C120.374 61.3643 120.478 60.9546 120.686 60.5905C120.9 60.2263 121.186 59.9402 121.544 59.7321C121.908 59.5175 122.315 59.4102 122.763 59.4102C123.193 59.4102 123.57 59.5077 123.895 59.7028C124.227 59.8979 124.483 60.1678 124.666 60.5124C124.854 60.8571 124.948 61.2473 124.948 61.683C124.948 61.748 124.945 61.8195 124.939 61.8976C124.932 61.9691 124.919 62.0536 124.9 62.1512H120.988V61.4196H124.431L124.11 61.7025C124.11 61.3903 124.054 61.127 123.944 60.9124C123.833 60.6913 123.677 60.5222 123.476 60.4051C123.274 60.2816 123.03 60.2198 122.744 60.2198C122.445 60.2198 122.181 60.2848 121.954 60.4149C121.726 60.5449 121.551 60.727 121.427 60.9611C121.303 61.1952 121.242 61.4716 121.242 61.7903C121.242 62.1154 121.307 62.4016 121.437 62.6487C121.567 62.8893 121.752 63.0779 121.993 63.2144C122.233 63.3445 122.51 63.4095 122.822 63.4095C123.082 63.4095 123.319 63.364 123.534 63.273C123.755 63.1819 123.944 63.0454 124.1 62.8633L124.666 63.4388C124.444 63.6989 124.171 63.8972 123.846 64.0338C123.528 64.1704 123.186 64.2387 122.822 64.2387ZM128.978 64.1411V57.3715H129.886V64.1411H128.978ZM127.593 58.1908V57.3715H129.788V58.1908H127.593ZM133.355 64.2387C132.906 64.2387 132.51 64.1541 132.165 63.985C131.827 63.816 131.564 63.5819 131.375 63.2827C131.186 62.9836 131.092 62.6454 131.092 62.2682C131.092 61.9626 131.151 61.683 131.268 61.4294C131.385 61.1757 131.557 60.9611 131.785 60.7856C132.012 60.6035 132.279 60.4734 132.584 60.3954L132.614 60.6587C132.354 60.5872 132.133 60.4734 131.95 60.3173C131.768 60.1548 131.629 59.9662 131.531 59.7516C131.44 59.5305 131.394 59.2964 131.394 59.0492C131.394 58.6981 131.479 58.3892 131.648 58.1226C131.817 57.8559 132.048 57.6478 132.341 57.4983C132.64 57.3422 132.978 57.2642 133.355 57.2642C133.739 57.2642 134.077 57.3422 134.37 57.4983C134.662 57.6478 134.893 57.8559 135.062 58.1226C135.231 58.3892 135.316 58.6981 135.316 59.0492C135.316 59.2964 135.267 59.5305 135.169 59.7516C135.078 59.9662 134.942 60.1548 134.76 60.3173C134.584 60.4734 134.366 60.5872 134.106 60.6587L134.126 60.3954C134.438 60.4734 134.704 60.6035 134.926 60.7856C135.153 60.9611 135.326 61.1757 135.443 61.4294C135.566 61.683 135.628 61.9626 135.628 62.2682C135.628 62.6454 135.534 62.9836 135.345 63.2827C135.156 63.5819 134.89 63.816 134.545 63.985C134.207 64.1541 133.81 64.2387 133.355 64.2387ZM133.355 63.4095C133.628 63.4095 133.866 63.3575 134.067 63.2534C134.275 63.1429 134.438 62.9933 134.555 62.8047C134.678 62.6162 134.74 62.3983 134.74 62.1512C134.74 61.9106 134.678 61.696 134.555 61.5074C134.438 61.3188 134.275 61.1725 134.067 61.0684C133.866 60.9579 133.628 60.9026 133.355 60.9026C133.088 60.9026 132.851 60.9579 132.643 61.0684C132.435 61.1725 132.269 61.3188 132.146 61.5074C132.028 61.696 131.97 61.9106 131.97 62.1512C131.97 62.3983 132.028 62.6162 132.146 62.8047C132.269 62.9933 132.435 63.1429 132.643 63.2534C132.851 63.3575 133.088 63.4095 133.355 63.4095ZM133.355 60.1905C133.68 60.1905 133.947 60.0897 134.155 59.8881C134.363 59.6865 134.467 59.4264 134.467 59.1078C134.467 58.7956 134.363 58.542 134.155 58.3469C133.947 58.1453 133.68 58.0445 133.355 58.0445C133.036 58.0445 132.773 58.1453 132.565 58.3469C132.357 58.542 132.253 58.7956 132.253 59.1078C132.253 59.4264 132.357 59.6865 132.565 59.8881C132.773 60.0897 133.036 60.1905 133.355 60.1905ZM136.679 62.0732V61.244H139.889V62.0732H136.679ZM143.289 64.2387C142.86 64.2387 142.476 64.1346 142.138 63.9265C141.8 63.7119 141.53 63.4225 141.328 63.0584C141.133 62.6942 141.036 62.2845 141.036 61.8293C141.036 61.3741 141.133 60.9644 141.328 60.6002C141.53 60.236 141.8 59.9467 142.138 59.7321C142.476 59.5175 142.86 59.4102 143.289 59.4102C143.633 59.4102 143.946 59.4849 144.225 59.6345C144.505 59.7776 144.729 59.9792 144.898 60.2393C145.074 60.4929 145.171 60.7888 145.191 61.127V62.5219C145.171 62.8535 145.077 63.1494 144.908 63.4095C144.739 63.6696 144.515 63.8745 144.235 64.0241C143.955 64.1671 143.64 64.2387 143.289 64.2387ZM143.435 63.4095C143.728 63.4095 143.981 63.3412 144.196 63.2047C144.417 63.0681 144.589 62.8828 144.713 62.6487C144.837 62.4081 144.898 62.1349 144.898 61.8293C144.898 61.5106 144.833 61.2343 144.703 61.0002C144.58 60.766 144.407 60.5807 144.186 60.4441C143.972 60.3076 143.718 60.2393 143.425 60.2393C143.133 60.2393 142.876 60.3076 142.655 60.4441C142.434 60.5807 142.258 60.7693 142.128 61.0099C142.004 61.244 141.943 61.5139 141.943 61.8195C141.943 62.1317 142.004 62.4081 142.128 62.6487C142.258 62.8828 142.434 63.0681 142.655 63.2047C142.882 63.3412 143.142 63.4095 143.435 63.4095ZM145.727 64.1411H144.84V62.8925L145.006 61.761L144.84 60.6392V57.1764H145.727V64.1411ZM147.015 64.1411V59.5077H147.893V64.1411H147.015ZM147.454 58.581C147.292 58.581 147.158 58.529 147.054 58.425C146.95 58.3144 146.898 58.1778 146.898 58.0153C146.898 57.8592 146.95 57.7291 147.054 57.6251C147.158 57.5145 147.292 57.4593 147.454 57.4593C147.617 57.4593 147.75 57.5145 147.854 57.6251C147.958 57.7291 148.01 57.8592 148.01 58.0153C148.01 58.1778 147.958 58.3144 147.854 58.425C147.75 58.529 147.617 58.581 147.454 58.581ZM151.109 66.1798C150.634 66.1798 150.211 66.092 149.841 65.9164C149.476 65.7409 149.184 65.4937 148.963 65.1751L149.528 64.5996C149.717 64.8402 149.941 65.0223 150.201 65.1458C150.462 65.2759 150.771 65.3409 151.128 65.3409C151.603 65.3409 151.977 65.2141 152.25 64.9605C152.53 64.7134 152.669 64.3785 152.669 63.9558V62.8047L152.825 61.761L152.669 60.727V59.5077H153.547V63.9558C153.547 64.398 153.443 64.7849 153.235 65.1166C153.034 65.4482 152.747 65.7083 152.377 65.8969C152.013 66.0855 151.59 66.1798 151.109 66.1798ZM151.109 64.0631C150.686 64.0631 150.306 63.9623 149.967 63.7607C149.636 63.5591 149.372 63.2827 149.177 62.9316C148.982 62.5739 148.885 62.1739 148.885 61.7317C148.885 61.2895 148.982 60.8961 149.177 60.5514C149.372 60.2003 149.636 59.9239 149.967 59.7223C150.306 59.5142 150.686 59.4102 151.109 59.4102C151.473 59.4102 151.795 59.4817 152.074 59.6248C152.354 59.7678 152.575 59.9694 152.738 60.2295C152.907 60.4832 152.998 60.7823 153.011 61.127V62.356C152.991 62.6942 152.897 62.9933 152.728 63.2534C152.565 63.5071 152.344 63.7054 152.065 63.8485C151.785 63.9915 151.466 64.0631 151.109 64.0631ZM151.284 63.2339C151.57 63.2339 151.821 63.1722 152.035 63.0486C152.256 62.925 152.426 62.7527 152.543 62.5316C152.66 62.304 152.718 62.0406 152.718 61.7415C152.718 61.4424 152.656 61.1822 152.533 60.9611C152.416 60.7335 152.25 60.5579 152.035 60.4344C151.821 60.3043 151.567 60.2393 151.274 60.2393C150.982 60.2393 150.725 60.3043 150.504 60.4344C150.283 60.5579 150.107 60.7335 149.977 60.9611C149.854 61.1822 149.792 61.4391 149.792 61.7317C149.792 62.0244 149.854 62.2845 149.977 62.5121C150.107 62.7397 150.283 62.9185 150.504 63.0486C150.731 63.1722 150.992 63.2339 151.284 63.2339ZM154.846 64.1411V59.5077H155.724V64.1411H154.846ZM155.285 58.581C155.122 58.581 154.989 58.529 154.885 58.425C154.781 58.3144 154.729 58.1778 154.729 58.0153C154.729 57.8592 154.781 57.7291 154.885 57.6251C154.989 57.5145 155.122 57.4593 155.285 57.4593C155.447 57.4593 155.58 57.5145 155.685 57.6251C155.789 57.7291 155.841 57.8592 155.841 58.0153C155.841 58.1778 155.789 58.3144 155.685 58.425C155.58 58.529 155.447 58.581 155.285 58.581ZM157.729 64.1411V57.5666H158.607V64.1411H157.729ZM156.588 60.3076V59.5077H159.749V60.3076H156.588ZM165.603 64.1411L163.437 61.7708L165.583 59.5077H166.647L164.257 62.0049L164.296 61.4976L166.735 64.1411H165.603ZM162.638 64.1411V57.1764H163.516V64.1411H162.638ZM169.375 64.2387C168.913 64.2387 168.497 64.1346 168.127 63.9265C167.756 63.7119 167.463 63.4225 167.249 63.0584C167.034 62.6942 166.927 62.2812 166.927 61.8195C166.927 61.3643 167.031 60.9546 167.239 60.5905C167.453 60.2263 167.74 59.9402 168.097 59.7321C168.461 59.5175 168.868 59.4102 169.317 59.4102C169.746 59.4102 170.123 59.5077 170.448 59.7028C170.78 59.8979 171.037 60.1678 171.219 60.5124C171.407 60.8571 171.502 61.2473 171.502 61.683C171.502 61.748 171.498 61.8195 171.492 61.8976C171.485 61.9691 171.472 62.0536 171.453 62.1512H167.541V61.4196H170.985L170.663 61.7025C170.663 61.3903 170.607 61.127 170.497 60.9124C170.386 60.6913 170.23 60.5222 170.029 60.4051C169.827 60.2816 169.583 60.2198 169.297 60.2198C168.998 60.2198 168.735 60.2848 168.507 60.4149C168.279 60.5449 168.104 60.727 167.98 60.9611C167.857 61.1952 167.795 61.4716 167.795 61.7903C167.795 62.1154 167.86 62.4016 167.99 62.6487C168.12 62.8893 168.305 63.0779 168.546 63.2144C168.787 63.3445 169.063 63.4095 169.375 63.4095C169.635 63.4095 169.873 63.364 170.087 63.273C170.308 63.1819 170.497 63.0454 170.653 62.8633L171.219 63.4388C170.998 63.6989 170.724 63.8972 170.399 64.0338C170.081 64.1704 169.739 64.2387 169.375 64.2387ZM173.904 64.1801L171.895 59.5077H172.87L174.363 63.1657H174.051L175.621 59.5077H176.597L174.431 64.1801H173.904ZM172.578 66.0823L173.943 63.2827L174.431 64.1801L173.553 66.0823H172.578ZM179.432 64.1411V59.5077H180.31V64.1411H179.432ZM179.871 58.581C179.708 58.581 179.575 58.529 179.471 58.425C179.367 58.3144 179.315 58.1778 179.315 58.0153C179.315 57.8592 179.367 57.7291 179.471 57.6251C179.575 57.5145 179.708 57.4593 179.871 57.4593C180.034 57.4593 180.167 57.5145 180.271 57.6251C180.375 57.7291 180.427 57.8592 180.427 58.0153C180.427 58.1778 180.375 58.3144 180.271 58.425C180.167 58.529 180.034 58.581 179.871 58.581ZM183.077 64.2387C182.817 64.2387 182.569 64.2061 182.335 64.1411C182.108 64.0696 181.896 63.972 181.701 63.8485C181.506 63.7184 181.337 63.5656 181.194 63.39L181.76 62.8243C181.929 63.0323 182.124 63.1884 182.345 63.2925C182.566 63.39 182.813 63.4388 183.086 63.4388C183.36 63.4388 183.571 63.3933 183.72 63.3022C183.87 63.2047 183.945 63.0714 183.945 62.9023C183.945 62.7332 183.883 62.6031 183.759 62.5121C183.642 62.4146 183.49 62.3365 183.301 62.278C183.112 62.213 182.911 62.1512 182.696 62.0927C182.488 62.0276 182.29 61.9463 182.101 61.8488C181.913 61.7513 181.757 61.6179 181.633 61.4489C181.516 61.2798 181.457 61.0554 181.457 60.7758C181.457 60.4962 181.526 60.2556 181.662 60.054C181.799 59.8459 181.987 59.6865 182.228 59.576C182.475 59.4654 182.771 59.4102 183.116 59.4102C183.48 59.4102 183.802 59.4752 184.081 59.6053C184.368 59.7288 184.602 59.9174 184.784 60.171L184.218 60.7368C184.088 60.5677 183.925 60.4376 183.73 60.3466C183.542 60.2556 183.327 60.21 183.086 60.21C182.833 60.21 182.638 60.2556 182.501 60.3466C182.371 60.4311 182.306 60.5514 182.306 60.7075C182.306 60.8636 182.365 60.9839 182.482 61.0684C182.599 61.153 182.752 61.2245 182.94 61.283C183.135 61.3416 183.337 61.4033 183.545 61.4684C183.753 61.5269 183.951 61.6082 184.14 61.7122C184.328 61.8163 184.481 61.9561 184.598 62.1317C184.722 62.3073 184.784 62.5381 184.784 62.8243C184.784 63.26 184.628 63.6046 184.315 63.8582C184.01 64.1118 183.597 64.2387 183.077 64.2387ZM189.766 64.2387C189.343 64.2387 188.96 64.1346 188.615 63.9265C188.27 63.7119 187.997 63.4225 187.796 63.0584C187.6 62.6942 187.503 62.2845 187.503 61.8293C187.503 61.3741 187.6 60.9644 187.796 60.6002C187.997 60.236 188.267 59.9467 188.605 59.7321C188.95 59.5175 189.337 59.4102 189.766 59.4102C190.117 59.4102 190.429 59.4849 190.702 59.6345C190.982 59.7776 191.206 59.9792 191.375 60.2393C191.545 60.4929 191.639 60.7888 191.658 61.127V62.5219C191.639 62.8535 191.545 63.1494 191.375 63.4095C191.213 63.6696 190.992 63.8745 190.712 64.0241C190.439 64.1671 190.124 64.2387 189.766 64.2387ZM189.912 63.4095C190.348 63.4095 190.699 63.2632 190.966 62.9706C191.232 62.6714 191.366 62.291 191.366 61.8293C191.366 61.5106 191.304 61.2343 191.18 61.0002C191.063 60.7595 190.894 60.5742 190.673 60.4441C190.452 60.3076 190.195 60.2393 189.903 60.2393C189.61 60.2393 189.35 60.3076 189.122 60.4441C188.901 60.5807 188.725 60.7693 188.595 61.0099C188.472 61.244 188.41 61.5139 188.41 61.8195C188.41 62.1317 188.472 62.4081 188.595 62.6487C188.725 62.8828 188.904 63.0681 189.132 63.2047C189.36 63.3412 189.62 63.4095 189.912 63.4095ZM191.307 64.1411V62.8925L191.473 61.761L191.307 60.6392V59.5077H192.195V64.1411H191.307ZM197.619 64.2387C197.164 64.2387 196.751 64.1314 196.38 63.9168C196.016 63.7022 195.726 63.4128 195.512 63.0486C195.304 62.6779 195.2 62.2682 195.2 61.8195C195.2 61.3643 195.304 60.9546 195.512 60.5905C195.726 60.2263 196.016 59.9402 196.38 59.7321C196.751 59.5175 197.164 59.4102 197.619 59.4102C197.976 59.4102 198.308 59.4784 198.614 59.615C198.919 59.7451 199.183 59.9369 199.404 60.1905L198.819 60.7758C198.676 60.6067 198.5 60.4799 198.292 60.3954C198.09 60.3043 197.866 60.2588 197.619 60.2588C197.326 60.2588 197.066 60.3271 196.838 60.4637C196.611 60.5937 196.432 60.7758 196.302 61.0099C196.172 61.244 196.107 61.5139 196.107 61.8195C196.107 62.1252 196.172 62.3951 196.302 62.6292C196.432 62.8633 196.611 63.0486 196.838 63.1852C197.066 63.3217 197.326 63.39 197.619 63.39C197.866 63.39 198.09 63.3477 198.292 63.2632C198.5 63.1722 198.679 63.0421 198.828 62.873L199.404 63.4583C199.189 63.7054 198.926 63.8972 198.614 64.0338C198.308 64.1704 197.976 64.2387 197.619 64.2387ZM200.275 64.1411V59.5077H201.152V64.1411H200.275ZM201.152 61.4976L200.821 61.3513C200.821 60.7595 200.957 60.2881 201.23 59.9369C201.504 59.5857 201.897 59.4102 202.411 59.4102C202.645 59.4102 202.856 59.4524 203.045 59.537C203.233 59.615 203.409 59.7483 203.572 59.9369L202.996 60.5319C202.899 60.4279 202.791 60.3531 202.674 60.3076C202.557 60.2621 202.421 60.2393 202.264 60.2393C201.939 60.2393 201.673 60.3433 201.465 60.5514C201.256 60.7595 201.152 61.0749 201.152 61.4976ZM205.626 64.1801L203.616 59.5077H204.592L206.084 63.1657H205.772L207.342 59.5077H208.318L206.152 64.1801H205.626ZM204.299 66.0823L205.665 63.2827L206.152 64.1801L205.274 66.0823H204.299ZM211.439 64.2387C211.088 64.2387 210.769 64.1671 210.483 64.0241C210.203 63.8745 209.979 63.6696 209.81 63.4095C209.641 63.1494 209.547 62.8535 209.527 62.5219V61.127C209.547 60.7888 209.641 60.4929 209.81 60.2393C209.985 59.9792 210.213 59.7776 210.493 59.6345C210.779 59.4849 211.094 59.4102 211.439 59.4102C211.862 59.4102 212.242 59.5175 212.58 59.7321C212.925 59.9467 213.195 60.236 213.39 60.6002C213.585 60.9644 213.682 61.3741 213.682 61.8293C213.682 62.2845 213.585 62.6942 213.39 63.0584C213.195 63.4225 212.925 63.7119 212.58 63.9265C212.242 64.1346 211.862 64.2387 211.439 64.2387ZM209 66.0823V59.5077H209.878V60.727L209.712 61.8488L209.878 62.9803V66.0823H209ZM211.293 63.4095C211.585 63.4095 211.842 63.3412 212.063 63.2047C212.284 63.0681 212.46 62.8828 212.59 62.6487C212.72 62.4081 212.785 62.1317 212.785 61.8195C212.785 61.5139 212.72 61.2408 212.59 61.0002C212.46 60.7595 212.284 60.5742 212.063 60.4441C211.842 60.3076 211.588 60.2393 211.302 60.2393C211.01 60.2393 210.753 60.3076 210.532 60.4441C210.311 60.5742 210.138 60.7595 210.015 61.0002C209.891 61.2408 209.829 61.5171 209.829 61.8293C209.829 62.1349 209.888 62.4081 210.005 62.6487C210.129 62.8828 210.301 63.0681 210.522 63.2047C210.75 63.3412 211.006 63.4095 211.293 63.4095ZM215.247 64.1411V57.5666H216.125V64.1411H215.247ZM214.106 60.3076V59.5077H217.266V60.3076H214.106ZM220.1 64.2387C219.645 64.2387 219.235 64.1314 218.871 63.9168C218.507 63.7022 218.217 63.4128 218.003 63.0486C217.788 62.6779 217.681 62.265 217.681 61.8098C217.681 61.3611 217.788 60.9579 218.003 60.6002C218.217 60.236 218.507 59.9467 218.871 59.7321C219.235 59.5175 219.645 59.4102 220.1 59.4102C220.549 59.4102 220.955 59.5175 221.319 59.7321C221.69 59.9402 221.983 60.2263 222.197 60.5905C222.412 60.9546 222.519 61.3611 222.519 61.8098C222.519 62.265 222.412 62.6779 222.197 63.0486C221.983 63.4128 221.69 63.7022 221.319 63.9168C220.955 64.1314 220.549 64.2387 220.1 64.2387ZM220.1 63.39C220.393 63.39 220.653 63.3217 220.88 63.1852C221.108 63.0486 221.287 62.8633 221.417 62.6292C221.547 62.3885 221.612 62.1154 221.612 61.8098C221.612 61.5106 221.544 61.244 221.407 61.0099C221.277 60.7758 221.098 60.5937 220.871 60.4637C220.649 60.3271 220.393 60.2588 220.1 60.2588C219.807 60.2588 219.547 60.3271 219.32 60.4637C219.092 60.5937 218.913 60.7758 218.783 61.0099C218.653 61.244 218.588 61.5106 218.588 61.8098C218.588 62.1154 218.653 62.3885 218.783 62.6292C218.913 62.8633 219.092 63.0486 219.32 63.1852C219.547 63.3217 219.807 63.39 220.1 63.39ZM225.43 66.1798C224.955 66.1798 224.532 66.092 224.162 65.9164C223.798 65.7409 223.505 65.4937 223.284 65.1751L223.85 64.5996C224.038 64.8402 224.263 65.0223 224.523 65.1458C224.783 65.2759 225.092 65.3409 225.449 65.3409C225.924 65.3409 226.298 65.2141 226.571 64.9605C226.851 64.7134 226.991 64.3785 226.991 63.9558V62.8047L227.147 61.761L226.991 60.727V59.5077H227.869V63.9558C227.869 64.398 227.764 64.7849 227.556 65.1166C227.355 65.4482 227.069 65.7083 226.698 65.8969C226.334 66.0855 225.911 66.1798 225.43 66.1798ZM225.43 64.0631C225.007 64.0631 224.627 63.9623 224.289 63.7607C223.957 63.5591 223.694 63.2827 223.498 62.9316C223.303 62.5739 223.206 62.1739 223.206 61.7317C223.206 61.2895 223.303 60.8961 223.498 60.5514C223.694 60.2003 223.957 59.9239 224.289 59.7223C224.627 59.5142 225.007 59.4102 225.43 59.4102C225.794 59.4102 226.116 59.4817 226.396 59.6248C226.675 59.7678 226.896 59.9694 227.059 60.2295C227.228 60.4832 227.319 60.7823 227.332 61.127V62.356C227.313 62.6942 227.218 62.9933 227.049 63.2534C226.887 63.5071 226.665 63.7054 226.386 63.8485C226.106 63.9915 225.788 64.0631 225.43 64.0631ZM225.605 63.2339C225.892 63.2339 226.142 63.1722 226.357 63.0486C226.578 62.925 226.747 62.7527 226.864 62.5316C226.981 62.304 227.039 62.0406 227.039 61.7415C227.039 61.4424 226.978 61.1822 226.854 60.9611C226.737 60.7335 226.571 60.5579 226.357 60.4344C226.142 60.3043 225.888 60.2393 225.596 60.2393C225.303 60.2393 225.046 60.3043 224.825 60.4344C224.604 60.5579 224.428 60.7335 224.298 60.9611C224.175 61.1822 224.113 61.4391 224.113 61.7317C224.113 62.0244 224.175 62.2845 224.298 62.5121C224.428 62.7397 224.604 62.9185 224.825 63.0486C225.053 63.1722 225.313 63.2339 225.605 63.2339ZM229.157 64.1411V59.5077H230.035V64.1411H229.157ZM230.035 61.4976L229.703 61.3513C229.703 60.7595 229.84 60.2881 230.113 59.9369C230.386 59.5857 230.78 59.4102 231.293 59.4102C231.527 59.4102 231.739 59.4524 231.927 59.537C232.116 59.615 232.292 59.7483 232.454 59.9369L231.879 60.5319C231.781 60.4279 231.674 60.3531 231.557 60.3076C231.44 60.2621 231.303 60.2393 231.147 60.2393C230.822 60.2393 230.555 60.3433 230.347 60.5514C230.139 60.7595 230.035 61.0749 230.035 61.4976ZM234.89 64.2387C234.468 64.2387 234.084 64.1346 233.739 63.9265C233.395 63.7119 233.121 63.4225 232.92 63.0584C232.725 62.6942 232.627 62.2845 232.627 61.8293C232.627 61.3741 232.725 60.9644 232.92 60.6002C233.121 60.236 233.391 59.9467 233.729 59.7321C234.074 59.5175 234.461 59.4102 234.89 59.4102C235.241 59.4102 235.554 59.4849 235.827 59.6345C236.106 59.7776 236.331 59.9792 236.5 60.2393C236.669 60.4929 236.763 60.7888 236.783 61.127V62.5219C236.763 62.8535 236.669 63.1494 236.5 63.4095C236.337 63.6696 236.116 63.8745 235.836 64.0241C235.563 64.1671 235.248 64.2387 234.89 64.2387ZM235.037 63.4095C235.472 63.4095 235.823 63.2632 236.09 62.9706C236.357 62.6714 236.49 62.291 236.49 61.8293C236.49 61.5106 236.428 61.2343 236.305 61.0002C236.188 60.7595 236.019 60.5742 235.797 60.4441C235.576 60.3076 235.319 60.2393 235.027 60.2393C234.734 60.2393 234.474 60.3076 234.246 60.4441C234.025 60.5807 233.85 60.7693 233.72 61.0099C233.596 61.244 233.534 61.5139 233.534 61.8195C233.534 62.1317 233.596 62.4081 233.72 62.6487C233.85 62.8828 234.029 63.0681 234.256 63.2047C234.484 63.3412 234.744 63.4095 235.037 63.4095ZM236.431 64.1411V62.8925L236.597 61.761L236.431 60.6392V59.5077H237.319V64.1411H236.431ZM241.036 64.2387C240.685 64.2387 240.366 64.1671 240.08 64.0241C239.8 63.8745 239.576 63.6696 239.407 63.4095C239.238 63.1494 239.144 62.8535 239.124 62.5219V61.127C239.144 60.7888 239.238 60.4929 239.407 60.2393C239.583 59.9792 239.81 59.7776 240.09 59.6345C240.376 59.4849 240.691 59.4102 241.036 59.4102C241.459 59.4102 241.839 59.5175 242.177 59.7321C242.522 59.9467 242.792 60.236 242.987 60.6002C243.182 60.9644 243.279 61.3741 243.279 61.8293C243.279 62.2845 243.182 62.6942 242.987 63.0584C242.792 63.4225 242.522 63.7119 242.177 63.9265C241.839 64.1346 241.459 64.2387 241.036 64.2387ZM238.597 66.0823V59.5077H239.475V60.727L239.309 61.8488L239.475 62.9803V66.0823H238.597ZM240.89 63.4095C241.182 63.4095 241.439 63.3412 241.66 63.2047C241.881 63.0681 242.057 62.8828 242.187 62.6487C242.317 62.4081 242.382 62.1317 242.382 61.8195C242.382 61.5139 242.317 61.2408 242.187 61.0002C242.057 60.7595 241.881 60.5742 241.66 60.4441C241.439 60.3076 241.186 60.2393 240.899 60.2393C240.607 60.2393 240.35 60.3076 240.129 60.4441C239.908 60.5742 239.735 60.7595 239.612 61.0002C239.488 61.2408 239.426 61.5171 239.426 61.8293C239.426 62.1349 239.485 62.4081 239.602 62.6487C239.726 62.8828 239.898 63.0681 240.119 63.2047C240.347 63.3412 240.603 63.4095 240.89 63.4095ZM247.552 64.1411V61.4391C247.552 61.0879 247.442 60.7986 247.221 60.571C247 60.3433 246.713 60.2295 246.362 60.2295C246.128 60.2295 245.92 60.2816 245.738 60.3856C245.556 60.4897 245.413 60.6327 245.309 60.8148C245.205 60.9969 245.153 61.205 245.153 61.4391L244.792 61.2343C244.792 60.8831 244.87 60.571 245.026 60.2978C245.182 60.0247 245.4 59.8101 245.679 59.654C245.959 59.4914 246.274 59.4102 246.626 59.4102C246.977 59.4102 247.286 59.4882 247.552 59.6443C247.825 59.8003 248.04 60.0182 248.196 60.2978C248.352 60.5775 248.43 60.8994 248.43 61.2635V64.1411H247.552ZM244.275 64.1411V57.1764H245.153V64.1411H244.275ZM249.629 64.1411V59.5077H250.506V64.1411H249.629ZM250.067 58.581C249.905 58.581 249.772 58.529 249.668 58.425C249.564 58.3144 249.511 58.1778 249.511 58.0153C249.511 57.8592 249.564 57.7291 249.668 57.6251C249.772 57.5145 249.905 57.4593 250.067 57.4593C250.23 57.4593 250.363 57.5145 250.467 57.6251C250.571 57.7291 250.624 57.8592 250.624 58.0153C250.624 58.1778 250.571 58.3144 250.467 58.425C250.363 58.529 250.23 58.581 250.067 58.581ZM253.917 64.2387C253.462 64.2387 253.049 64.1314 252.678 63.9168C252.314 63.7022 252.025 63.4128 251.81 63.0486C251.602 62.6779 251.498 62.2682 251.498 61.8195C251.498 61.3643 251.602 60.9546 251.81 60.5905C252.025 60.2263 252.314 59.9402 252.678 59.7321C253.049 59.5175 253.462 59.4102 253.917 59.4102C254.275 59.4102 254.606 59.4784 254.912 59.615C255.218 59.7451 255.481 59.9369 255.702 60.1905L255.117 60.7758C254.974 60.6067 254.798 60.4799 254.59 60.3954C254.388 60.3043 254.164 60.2588 253.917 60.2588C253.624 60.2588 253.364 60.3271 253.137 60.4637C252.909 60.5937 252.73 60.7758 252.6 61.0099C252.47 61.244 252.405 61.5139 252.405 61.8195C252.405 62.1252 252.47 62.3951 252.6 62.6292C252.73 62.8633 252.909 63.0486 253.137 63.1852C253.364 63.3217 253.624 63.39 253.917 63.39C254.164 63.39 254.388 63.3477 254.59 63.2632C254.798 63.1722 254.977 63.0421 255.127 62.873L255.702 63.4583C255.487 63.7054 255.224 63.8972 254.912 64.0338C254.606 64.1704 254.275 64.2387 253.917 64.2387ZM260.075 64.2387C259.815 64.2387 259.567 64.2061 259.333 64.1411C259.106 64.0696 258.894 63.972 258.699 63.8485C258.504 63.7184 258.335 63.5656 258.192 63.39L258.758 62.8243C258.927 63.0323 259.122 63.1884 259.343 63.2925C259.564 63.39 259.811 63.4388 260.084 63.4388C260.358 63.4388 260.569 63.3933 260.718 63.3022C260.868 63.2047 260.943 63.0714 260.943 62.9023C260.943 62.7332 260.881 62.6031 260.757 62.5121C260.64 62.4146 260.488 62.3365 260.299 62.278C260.11 62.213 259.909 62.1512 259.694 62.0927C259.486 62.0276 259.288 61.9463 259.099 61.8488C258.911 61.7513 258.755 61.6179 258.631 61.4489C258.514 61.2798 258.455 61.0554 258.455 60.7758C258.455 60.4962 258.524 60.2556 258.66 60.054C258.797 59.8459 258.985 59.6865 259.226 59.576C259.473 59.4654 259.769 59.4102 260.114 59.4102C260.478 59.4102 260.8 59.4752 261.079 59.6053C261.366 59.7288 261.6 59.9174 261.782 60.171L261.216 60.7368C261.086 60.5677 260.923 60.4376 260.728 60.3466C260.54 60.2556 260.325 60.21 260.084 60.21C259.831 60.21 259.636 60.2556 259.499 60.3466C259.369 60.4311 259.304 60.5514 259.304 60.7075C259.304 60.8636 259.363 60.9839 259.48 61.0684C259.597 61.153 259.75 61.2245 259.938 61.283C260.133 61.3416 260.335 61.4033 260.543 61.4684C260.751 61.5269 260.949 61.6082 261.138 61.7122C261.326 61.8163 261.479 61.9561 261.596 62.1317C261.72 62.3073 261.782 62.5381 261.782 62.8243C261.782 63.26 261.626 63.6046 261.313 63.8582C261.008 64.1118 260.595 64.2387 260.075 64.2387ZM264.911 64.2387C264.449 64.2387 264.033 64.1346 263.662 63.9265C263.291 63.7119 262.999 63.4225 262.784 63.0584C262.569 62.6942 262.462 62.2812 262.462 61.8195C262.462 61.3643 262.566 60.9546 262.774 60.5905C262.989 60.2263 263.275 59.9402 263.633 59.7321C263.997 59.5175 264.403 59.4102 264.852 59.4102C265.281 59.4102 265.658 59.5077 265.984 59.7028C266.315 59.8979 266.572 60.1678 266.754 60.5124C266.943 60.8571 267.037 61.2473 267.037 61.683C267.037 61.748 267.034 61.8195 267.027 61.8976C267.021 61.9691 267.008 62.0536 266.988 62.1512H263.077V61.4196H266.52L266.198 61.7025C266.198 61.3903 266.143 61.127 266.032 60.9124C265.922 60.6913 265.766 60.5222 265.564 60.4051C265.363 60.2816 265.119 60.2198 264.833 60.2198C264.533 60.2198 264.27 60.2848 264.042 60.4149C263.815 60.5449 263.639 60.727 263.516 60.9611C263.392 61.1952 263.33 61.4716 263.33 61.7903C263.33 62.1154 263.395 62.4016 263.525 62.6487C263.655 62.8893 263.841 63.0779 264.081 63.2144C264.322 63.3445 264.598 63.4095 264.911 63.4095C265.171 63.4095 265.408 63.364 265.623 63.273C265.844 63.1819 266.032 63.0454 266.188 62.8633L266.754 63.4388C266.533 63.6989 266.26 63.8972 265.935 64.0338C265.616 64.1704 265.275 64.2387 264.911 64.2387ZM270.111 64.2387C269.656 64.2387 269.243 64.1314 268.872 63.9168C268.508 63.7022 268.219 63.4128 268.004 63.0486C267.796 62.6779 267.692 62.2682 267.692 61.8195C267.692 61.3643 267.796 60.9546 268.004 60.5905C268.219 60.2263 268.508 59.9402 268.872 59.7321C269.243 59.5175 269.656 59.4102 270.111 59.4102C270.469 59.4102 270.8 59.4784 271.106 59.615C271.412 59.7451 271.675 59.9369 271.896 60.1905L271.311 60.7758C271.168 60.6067 270.992 60.4799 270.784 60.3954C270.582 60.3043 270.358 60.2588 270.111 60.2588C269.818 60.2588 269.558 60.3271 269.331 60.4637C269.103 60.5937 268.924 60.7758 268.794 61.0099C268.664 61.244 268.599 61.5139 268.599 61.8195C268.599 62.1252 268.664 62.3951 268.794 62.6292C268.924 62.8633 269.103 63.0486 269.331 63.1852C269.558 63.3217 269.818 63.39 270.111 63.39C270.358 63.39 270.582 63.3477 270.784 63.2632C270.992 63.1722 271.171 63.0421 271.321 62.873L271.896 63.4583C271.682 63.7054 271.418 63.8972 271.106 64.0338C270.8 64.1704 270.469 64.2387 270.111 64.2387ZM272.767 64.1411V59.5077H273.645V64.1411H272.767ZM273.645 61.4976L273.313 61.3513C273.313 60.7595 273.45 60.2881 273.723 59.9369C273.996 59.5857 274.389 59.4102 274.903 59.4102C275.137 59.4102 275.348 59.4524 275.537 59.537C275.726 59.615 275.901 59.7483 276.064 59.9369L275.488 60.5319C275.391 60.4279 275.283 60.3531 275.166 60.3076C275.049 60.2621 274.913 60.2393 274.757 60.2393C274.432 60.2393 274.165 60.3433 273.957 60.5514C273.749 60.7595 273.645 61.0749 273.645 61.4976ZM278.676 64.2387C278.214 64.2387 277.798 64.1346 277.427 63.9265C277.056 63.7119 276.764 63.4225 276.549 63.0584C276.334 62.6942 276.227 62.2812 276.227 61.8195C276.227 61.3643 276.331 60.9546 276.539 60.5905C276.754 60.2263 277.04 59.9402 277.398 59.7321C277.762 59.5175 278.168 59.4102 278.617 59.4102C279.046 59.4102 279.423 59.5077 279.749 59.7028C280.08 59.8979 280.337 60.1678 280.519 60.5124C280.708 60.8571 280.802 61.2473 280.802 61.683C280.802 61.748 280.799 61.8195 280.792 61.8976C280.786 61.9691 280.773 62.0536 280.753 62.1512H276.842V61.4196H280.285L279.963 61.7025C279.963 61.3903 279.908 61.127 279.797 60.9124C279.687 60.6913 279.531 60.5222 279.329 60.4051C279.127 60.2816 278.884 60.2198 278.597 60.2198C278.298 60.2198 278.035 60.2848 277.807 60.4149C277.58 60.5449 277.404 60.727 277.281 60.9611C277.157 61.1952 277.095 61.4716 277.095 61.7903C277.095 62.1154 277.16 62.4016 277.29 62.6487C277.42 62.8893 277.606 63.0779 277.846 63.2144C278.087 63.3445 278.363 63.4095 278.676 63.4095C278.936 63.4095 279.173 63.364 279.388 63.273C279.609 63.1819 279.797 63.0454 279.953 62.8633L280.519 63.4388C280.298 63.6989 280.025 63.8972 279.7 64.0338C279.381 64.1704 279.04 64.2387 278.676 64.2387ZM282.328 64.1411V57.5666H283.206V64.1411H282.328ZM281.187 60.3076V59.5077H284.348V60.3076H281.187ZM290.202 64.1411L288.037 61.7708L290.183 59.5077H291.246L288.856 62.0049L288.895 61.4976L291.334 64.1411H290.202ZM287.237 64.1411V57.1764H288.115V64.1411H287.237ZM295.22 64.1411V61.4391C295.22 61.0879 295.109 60.7986 294.888 60.571C294.667 60.3433 294.381 60.2295 294.03 60.2295C293.796 60.2295 293.588 60.2816 293.406 60.3856C293.224 60.4897 293.08 60.6327 292.976 60.8148C292.872 60.9969 292.82 61.205 292.82 61.4391L292.459 61.2343C292.459 60.8831 292.537 60.571 292.694 60.2978C292.85 60.0247 293.067 59.8101 293.347 59.654C293.627 59.4914 293.942 59.4102 294.293 59.4102C294.644 59.4102 294.953 59.498 295.22 59.6735C295.493 59.8491 295.708 60.08 295.864 60.3661C296.02 60.6457 296.098 60.9449 296.098 61.2635V64.1411H295.22ZM291.942 64.1411V59.5077H292.82V64.1411H291.942ZM299.403 64.2387C298.948 64.2387 298.538 64.1314 298.174 63.9168C297.81 63.7022 297.521 63.4128 297.306 63.0486C297.091 62.6779 296.984 62.265 296.984 61.8098C296.984 61.3611 297.091 60.9579 297.306 60.6002C297.521 60.236 297.81 59.9467 298.174 59.7321C298.538 59.5175 298.948 59.4102 299.403 59.4102C299.852 59.4102 300.258 59.5175 300.623 59.7321C300.993 59.9402 301.286 60.2263 301.5 60.5905C301.715 60.9546 301.822 61.3611 301.822 61.8098C301.822 62.265 301.715 62.6779 301.5 63.0486C301.286 63.4128 300.993 63.7022 300.623 63.9168C300.258 64.1314 299.852 64.2387 299.403 64.2387ZM299.403 63.39C299.696 63.39 299.956 63.3217 300.184 63.1852C300.411 63.0486 300.59 62.8633 300.72 62.6292C300.85 62.3885 300.915 62.1154 300.915 61.8098C300.915 61.5106 300.847 61.244 300.71 61.0099C300.58 60.7758 300.401 60.5937 300.174 60.4637C299.953 60.3271 299.696 60.2588 299.403 60.2588C299.111 60.2588 298.85 60.3271 298.623 60.4637C298.395 60.5937 298.216 60.7758 298.086 61.0099C297.956 61.244 297.891 61.5106 297.891 61.8098C297.891 62.1154 297.956 62.3885 298.086 62.6292C298.216 62.8633 298.395 63.0486 298.623 63.1852C298.85 63.3217 299.111 63.39 299.403 63.39ZM304.005 64.1411L302.171 59.5077H303.088L304.414 63.1169H304.122L305.439 59.5077H305.946L307.263 63.1169H306.97L308.297 59.5077H309.214L307.39 64.1411H306.873L305.536 60.6392H305.858L304.512 64.1411H304.005ZM313.272 64.1411V61.4391C313.272 61.0879 313.161 60.7986 312.94 60.571C312.719 60.3433 312.433 60.2295 312.082 60.2295C311.847 60.2295 311.639 60.2816 311.457 60.3856C311.275 60.4897 311.132 60.6327 311.028 60.8148C310.924 60.9969 310.872 61.205 310.872 61.4391L310.511 61.2343C310.511 60.8831 310.589 60.571 310.745 60.2978C310.901 60.0247 311.119 59.8101 311.399 59.654C311.678 59.4914 311.994 59.4102 312.345 59.4102C312.696 59.4102 313.005 59.498 313.272 59.6735C313.545 59.8491 313.759 60.08 313.915 60.3661C314.071 60.6457 314.15 60.9449 314.15 61.2635V64.1411H313.272ZM309.994 64.1411V59.5077H310.872V64.1411H309.994ZM319.484 64.2387C319.029 64.2387 318.619 64.1314 318.255 63.9168C317.891 63.7022 317.601 63.4128 317.387 63.0486C317.172 62.6779 317.065 62.265 317.065 61.8098C317.065 61.3611 317.172 60.9579 317.387 60.6002C317.601 60.236 317.891 59.9467 318.255 59.7321C318.619 59.5175 319.029 59.4102 319.484 59.4102C319.933 59.4102 320.339 59.5175 320.703 59.7321C321.074 59.9402 321.366 60.2263 321.581 60.5905C321.796 60.9546 321.903 61.3611 321.903 61.8098C321.903 62.265 321.796 62.6779 321.581 63.0486C321.366 63.4128 321.074 63.7022 320.703 63.9168C320.339 64.1314 319.933 64.2387 319.484 64.2387ZM319.484 63.39C319.776 63.39 320.037 63.3217 320.264 63.1852C320.492 63.0486 320.671 62.8633 320.801 62.6292C320.931 62.3885 320.996 62.1154 320.996 61.8098C320.996 61.5106 320.928 61.244 320.791 61.0099C320.661 60.7758 320.482 60.5937 320.254 60.4637C320.033 60.3271 319.776 60.2588 319.484 60.2588C319.191 60.2588 318.931 60.3271 318.703 60.4637C318.476 60.5937 318.297 60.7758 318.167 61.0099C318.037 61.244 317.972 61.5106 317.972 61.8098C317.972 62.1154 318.037 62.3885 318.167 62.6292C318.297 62.8633 318.476 63.0486 318.703 63.1852C318.931 63.3217 319.191 63.39 319.484 63.39ZM326.17 64.1411V61.4391C326.17 61.0879 326.059 60.7986 325.838 60.571C325.617 60.3433 325.331 60.2295 324.98 60.2295C324.746 60.2295 324.537 60.2816 324.355 60.3856C324.173 60.4897 324.03 60.6327 323.926 60.8148C323.822 60.9969 323.77 61.205 323.77 61.4391L323.409 61.2343C323.409 60.8831 323.487 60.571 323.643 60.2978C323.799 60.0247 324.017 59.8101 324.297 59.654C324.576 59.4914 324.892 59.4102 325.243 59.4102C325.594 59.4102 325.903 59.498 326.17 59.6735C326.443 59.8491 326.657 60.08 326.813 60.3661C326.97 60.6457 327.048 60.9449 327.048 61.2635V64.1411H326.17ZM322.892 64.1411V59.5077H323.77V64.1411H322.892ZM328.236 64.1411V57.1764H329.114V64.1411H328.236ZM331.92 64.1801L329.911 59.5077H330.886L332.379 63.1657H332.067L333.637 59.5077H334.613L332.447 64.1801H331.92ZM330.594 66.0823L331.959 63.2827L332.447 64.1801L331.569 66.0823H330.594ZM338.15 64.1411V57.5666H339.028V64.1411H338.15ZM337.009 60.3076V59.5077H340.17V60.3076H337.009ZM343.003 64.2387C342.548 64.2387 342.138 64.1314 341.774 63.9168C341.41 63.7022 341.121 63.4128 340.906 63.0486C340.692 62.6779 340.584 62.265 340.584 61.8098C340.584 61.3611 340.692 60.9579 340.906 60.6002C341.121 60.236 341.41 59.9467 341.774 59.7321C342.138 59.5175 342.548 59.4102 343.003 59.4102C343.452 59.4102 343.859 59.5175 344.223 59.7321C344.593 59.9402 344.886 60.2263 345.101 60.5905C345.315 60.9546 345.422 61.3611 345.422 61.8098C345.422 62.265 345.315 62.6779 345.101 63.0486C344.886 63.4128 344.593 63.7022 344.223 63.9168C343.859 64.1314 343.452 64.2387 343.003 64.2387ZM343.003 63.39C343.296 63.39 343.556 63.3217 343.784 63.1852C344.011 63.0486 344.19 62.8633 344.32 62.6292C344.45 62.3885 344.515 62.1154 344.515 61.8098C344.515 61.5106 344.447 61.244 344.31 61.0099C344.18 60.7758 344.002 60.5937 343.774 60.4637C343.553 60.3271 343.296 60.2588 343.003 60.2588C342.711 60.2588 342.451 60.3271 342.223 60.4637C341.995 60.5937 341.817 60.7758 341.687 61.0099C341.556 61.244 341.491 61.5106 341.491 61.8098C341.491 62.1154 341.556 62.3885 341.687 62.6292C341.817 62.8633 341.995 63.0486 342.223 63.1852C342.451 63.3217 342.711 63.39 343.003 63.39ZM349.962 64.1801L347.953 59.5077H348.928L350.421 63.1657H350.109L351.679 59.5077H352.655L350.489 64.1801H349.962ZM348.636 66.0823L350.001 63.2827L350.489 64.1801L349.611 66.0823H348.636ZM355.311 64.2387C354.856 64.2387 354.446 64.1314 354.082 63.9168C353.718 63.7022 353.428 63.4128 353.214 63.0486C352.999 62.6779 352.892 62.265 352.892 61.8098C352.892 61.3611 352.999 60.9579 353.214 60.6002C353.428 60.236 353.718 59.9467 354.082 59.7321C354.446 59.5175 354.856 59.4102 355.311 59.4102C355.76 59.4102 356.166 59.5175 356.53 59.7321C356.901 59.9402 357.193 60.2263 357.408 60.5905C357.623 60.9546 357.73 61.3611 357.73 61.8098C357.73 62.265 357.623 62.6779 357.408 63.0486C357.193 63.4128 356.901 63.7022 356.53 63.9168C356.166 64.1314 355.76 64.2387 355.311 64.2387ZM355.311 63.39C355.603 63.39 355.864 63.3217 356.091 63.1852C356.319 63.0486 356.498 62.8633 356.628 62.6292C356.758 62.3885 356.823 62.1154 356.823 61.8098C356.823 61.5106 356.755 61.244 356.618 61.0099C356.488 60.7758 356.309 60.5937 356.081 60.4637C355.86 60.3271 355.603 60.2588 355.311 60.2588C355.018 60.2588 354.758 60.3271 354.53 60.4637C354.303 60.5937 354.124 60.7758 353.994 61.0099C353.864 61.244 353.799 61.5106 353.799 61.8098C353.799 62.1154 353.864 62.3885 353.994 62.6292C354.124 62.8633 354.303 63.0486 354.53 63.1852C354.758 63.3217 355.018 63.39 355.311 63.39ZM360.582 64.2387C360.205 64.2387 359.864 64.1541 359.558 63.985C359.259 63.8095 359.025 63.5688 358.856 63.2632C358.687 62.9576 358.602 62.6031 358.602 62.2V59.5077H359.48V62.1609C359.48 62.4146 359.522 62.6357 359.607 62.8243C359.698 63.0063 359.828 63.1461 359.997 63.2437C360.166 63.3412 360.364 63.39 360.592 63.39C360.937 63.39 361.207 63.2827 361.402 63.0681C361.597 62.847 361.694 62.5446 361.694 62.1609V59.5077H362.572V62.2C362.572 62.6031 362.488 62.9576 362.319 63.2632C362.149 63.5688 361.915 63.8095 361.616 63.985C361.324 64.1541 360.979 64.2387 360.582 64.2387ZM364.519 64.2387C364.337 64.2387 364.185 64.1769 364.061 64.0533C363.944 63.9233 363.885 63.7704 363.885 63.5949C363.885 63.4128 363.944 63.2632 364.061 63.1462C364.185 63.0226 364.337 62.9608 364.519 62.9608C364.702 62.9608 364.851 63.0226 364.968 63.1462C365.092 63.2632 365.153 63.4128 365.153 63.5949C365.153 63.7704 365.092 63.9233 364.968 64.0533C364.851 64.1769 364.702 64.2387 364.519 64.2387Z" fill="#8F9094"/>
<rect x="48.675" y="91.8576" width="343.626" height="45.1371" rx="22.5685" fill="#101217"/>
<rect x="48.675" y="91.8576" width="343.626" height="45.1371" rx="22.5685" stroke="#404145" stroke-width="0.709286"/>
<path d="M118.804 109.668L118.453 113.039L121.824 112.091L122.07 113.706L118.839 113.97L120.929 116.744L119.419 117.569L117.926 114.496L116.574 117.569L115.012 116.744L117.066 113.97L113.87 113.706L114.116 112.091L117.452 113.039L117.084 109.668H118.804ZM128.475 109.668L128.124 113.039L131.495 112.091L131.741 113.706L128.51 113.97L130.6 116.744L129.09 117.569L127.597 114.496L126.245 117.569L124.682 116.744L126.737 113.97L123.541 113.706L123.787 112.091L127.123 113.039L126.754 109.668H128.475ZM138.146 109.668L137.795 113.039L141.166 112.091L141.412 113.706L138.181 113.97L140.27 116.744L138.76 117.569L137.268 114.496L135.916 117.569L134.353 116.744L136.407 113.97L133.212 113.706L133.458 112.091L136.794 113.039L136.425 109.668H138.146ZM147.816 109.668L147.465 113.039L150.836 112.091L151.082 113.706L147.852 113.97L149.941 116.744L148.431 117.569L146.939 114.496L145.587 117.569L144.024 116.744L146.078 113.97L142.883 113.706L143.128 112.091L146.464 113.039L146.096 109.668H147.816ZM157.487 109.668L157.136 113.039L160.507 112.091L160.753 113.706L157.522 113.97L159.612 116.744L158.102 117.569L156.609 114.496L155.257 117.569L153.695 116.744L155.749 113.97L152.553 113.706L152.799 112.091L156.135 113.039L155.766 109.668H157.487ZM166.772 117.499V115.884C166.772 115.655 166.894 115.532 167.123 115.532H169.897C170.125 115.532 170.248 115.655 170.248 115.884V117.499C170.248 117.727 170.125 117.85 169.897 117.85H167.123C166.894 117.85 166.772 117.727 166.772 117.499ZM181.167 109.668L180.816 113.039L184.187 112.091L184.432 113.706L181.202 113.97L183.291 116.744L181.781 117.569L180.289 114.496L178.937 117.569L177.374 116.744L179.428 113.97L176.233 113.706L176.479 112.091L179.815 113.039L179.446 109.668H181.167ZM190.837 109.668L190.486 113.039L193.857 112.091L194.103 113.706L190.872 113.97L192.962 116.744L191.452 117.569L189.959 114.496L188.607 117.569L187.045 116.744L189.099 113.97L185.904 113.706L186.149 112.091L189.485 113.039L189.117 109.668H190.837ZM200.508 109.668L200.157 113.039L203.528 112.091L203.774 113.706L200.543 113.97L202.633 116.744L201.123 117.569L199.63 114.496L198.278 117.569L196.716 116.744L198.77 113.97L195.574 113.706L195.82 112.091L199.156 113.039L198.787 109.668H200.508ZM210.179 109.668L209.828 113.039L213.199 112.091L213.445 113.706L210.214 113.97L212.303 116.744L210.793 117.569L209.301 114.496L207.949 117.569L206.386 116.744L208.441 113.97L205.245 113.706L205.491 112.091L208.827 113.039L208.458 109.668H210.179ZM219.463 117.499V115.884C219.463 115.655 219.586 115.532 219.814 115.532H222.589C222.817 115.532 222.94 115.655 222.94 115.884V117.499C222.94 117.727 222.817 117.85 222.589 117.85H219.814C219.586 117.85 219.463 117.727 219.463 117.499ZM233.858 109.668L233.507 113.039L236.878 112.091L237.124 113.706L233.893 113.97L235.983 116.744L234.473 117.569L232.98 114.496L231.628 117.569L230.066 116.744L232.12 113.97L228.924 113.706L229.17 112.091L232.506 113.039L232.138 109.668H233.858ZM243.529 109.668L243.178 113.039L246.549 112.091L246.795 113.706L243.564 113.97L245.654 116.744L244.144 117.569L242.651 114.496L241.299 117.569L239.736 116.744L241.791 113.97L238.595 113.706L238.841 112.091L242.177 113.039L241.808 109.668H243.529ZM253.2 109.668L252.849 113.039L256.22 112.091L256.466 113.706L253.235 113.97L255.324 116.744L253.814 117.569L252.322 114.496L250.97 117.569L249.407 116.744L251.461 113.97L248.266 113.706L248.512 112.091L251.848 113.039L251.479 109.668H253.2ZM262.87 109.668L262.519 113.039L265.89 112.091L266.136 113.706L262.906 113.97L264.995 116.744L263.485 117.569L261.993 114.496L260.641 117.569L259.078 116.744L261.132 113.97L257.937 113.706L258.182 112.091L261.518 113.039L261.15 109.668H262.87ZM272.155 117.499V115.884C272.155 115.655 272.278 115.532 272.506 115.532H275.28C275.509 115.532 275.631 115.655 275.631 115.884V117.499C275.631 117.727 275.509 117.85 275.28 117.85H272.506C272.278 117.85 272.155 117.727 272.155 117.499ZM286.55 109.668L286.199 113.039L289.57 112.091L289.816 113.706L286.585 113.97L288.675 116.744L287.165 117.569L285.672 114.496L284.32 117.569L282.757 116.744L284.812 113.97L281.616 113.706L281.862 112.091L285.198 113.039L284.829 109.668H286.55ZM296.221 109.668L295.87 113.039L299.241 112.091L299.487 113.706L296.256 113.97L298.345 116.744L296.835 117.569L295.343 114.496L293.991 117.569L292.428 116.744L294.482 113.97L291.287 113.706L291.533 112.091L294.869 113.039L294.5 109.668H296.221ZM305.891 109.668L305.54 113.039L308.911 112.091L309.157 113.706L305.927 113.97L308.016 116.744L306.506 117.569L305.014 114.496L303.662 117.569L302.099 116.744L304.153 113.97L300.958 113.706L301.203 112.091L304.539 113.039L304.171 109.668H305.891ZM315.562 109.668L315.211 113.039L318.582 112.091L318.828 113.706L315.597 113.97L317.687 116.744L316.177 117.569L314.684 114.496L313.332 117.569L311.77 116.744L313.824 113.97L310.628 113.706L310.874 112.091L314.21 113.039L313.841 109.668H315.562ZM325.233 109.668L324.882 113.039L328.253 112.091L328.499 113.706L325.268 113.97L327.357 116.744L325.847 117.569L324.355 114.496L323.003 117.569L321.44 116.744L323.495 113.97L320.299 113.706L320.545 112.091L323.881 113.039L323.512 109.668H325.233Z" fill="#4B4D54"/>
<rect x="137.086" y="162.711" width="166.803" height="5.09369" rx="2.54684" fill="#282A2F"/>
<rect x="182.922" y="175.445" width="75.1319" height="5.09369" rx="2.54684" fill="#282A2F"/>
</svg>
