<svg width="440" height="204" viewBox="0 0 440 204" fill="none" xmlns="http://www.w3.org/2000/svg">
<g clip-path="url(#clip0_7237_30356)">
<rect width="440" height="204" rx="12" fill="#101217"/>
<circle cx="14" cy="14" r="4" fill="#D95A57"/>
<circle cx="26" cy="14" r="4" fill="#585A5D"/>
<circle cx="38" cy="14" r="4" fill="#52BE80"/>
<path d="M54.666 44.667H41.3327C37.6527 44.667 34.666 47.6403 34.666 51.307V59.2803V60.6137C34.666 64.2803 37.6527 67.2537 41.3327 67.2537H43.3327C43.6927 67.2537 44.1727 67.4937 44.3993 67.787L46.3993 70.4403C47.2793 71.6137 48.7193 71.6137 49.5993 70.4403L51.5993 67.787C51.8527 67.4537 52.2527 67.2537 52.666 67.2537H54.666C58.346 67.2537 61.3327 64.2803 61.3327 60.6137V51.307C61.3327 47.6403 58.346 44.667 54.666 44.667ZM42.666 58.0003C41.9193 58.0003 41.3327 57.4003 41.3327 56.667C41.3327 55.9337 41.9327 55.3337 42.666 55.3337C43.3993 55.3337 43.9993 55.9337 43.9993 56.667C43.9993 57.4003 43.4127 58.0003 42.666 58.0003ZM47.9993 58.0003C47.2527 58.0003 46.666 57.4003 46.666 56.667C46.666 55.9337 47.266 55.3337 47.9993 55.3337C48.7327 55.3337 49.3327 55.9337 49.3327 56.667C49.3327 57.4003 48.746 58.0003 47.9993 58.0003ZM53.3327 58.0003C52.586 58.0003 51.9993 57.4003 51.9993 56.667C51.9993 55.9337 52.5993 55.3337 53.3327 55.3337C54.066 55.3337 54.666 55.9337 54.666 56.667C54.666 57.4003 54.0793 58.0003 53.3327 58.0003Z" fill="white"/>
<rect x="74" y="44" width="334" height="10" rx="5" fill="url(#paint0_linear_7237_30356)"/>
<rect x="74" y="62" width="164" height="10" rx="5" fill="url(#paint1_linear_7237_30356)"/>
<path d="M54.666 94.667H41.3327C37.6527 94.667 34.666 97.6403 34.666 101.307V109.28V110.614C34.666 114.28 37.6527 117.254 41.3327 117.254H43.3327C43.6927 117.254 44.1727 117.494 44.3993 117.787L46.3993 120.44C47.2793 121.614 48.7193 121.614 49.5993 120.44L51.5993 117.787C51.8527 117.454 52.2527 117.254 52.666 117.254H54.666C58.346 117.254 61.3327 114.28 61.3327 110.614V101.307C61.3327 97.6403 58.346 94.667 54.666 94.667ZM42.666 108C41.9193 108 41.3327 107.4 41.3327 106.667C41.3327 105.934 41.9327 105.334 42.666 105.334C43.3993 105.334 43.9993 105.934 43.9993 106.667C43.9993 107.4 43.4127 108 42.666 108ZM47.9993 108C47.2527 108 46.666 107.4 46.666 106.667C46.666 105.934 47.266 105.334 47.9993 105.334C48.7327 105.334 49.3327 105.934 49.3327 106.667C49.3327 107.4 48.746 108 47.9993 108ZM53.3327 108C52.586 108 51.9993 107.4 51.9993 106.667C51.9993 105.934 52.5993 105.334 53.3327 105.334C54.066 105.334 54.666 105.934 54.666 106.667C54.666 107.4 54.0793 108 53.3327 108Z" fill="white"/>
<rect x="74" y="94" width="334" height="10" rx="5" fill="url(#paint2_linear_7237_30356)"/>
<rect x="74" y="112" width="164" height="10" rx="5" fill="url(#paint3_linear_7237_30356)"/>
<path d="M54.666 142.667H41.3327C37.6527 142.667 34.666 145.64 34.666 149.307V157.28V158.614C34.666 162.28 37.6527 165.254 41.3327 165.254H43.3327C43.6927 165.254 44.1727 165.494 44.3993 165.787L46.3993 168.44C47.2793 169.614 48.7193 169.614 49.5993 168.44L51.5993 165.787C51.8527 165.454 52.2527 165.254 52.666 165.254H54.666C58.346 165.254 61.3327 162.28 61.3327 158.614V149.307C61.3327 145.64 58.346 142.667 54.666 142.667ZM42.666 156C41.9193 156 41.3327 155.4 41.3327 154.667C41.3327 153.934 41.9327 153.334 42.666 153.334C43.3993 153.334 43.9993 153.934 43.9993 154.667C43.9993 155.4 43.4127 156 42.666 156ZM47.9993 156C47.2527 156 46.666 155.4 46.666 154.667C46.666 153.934 47.266 153.334 47.9993 153.334C48.7327 153.334 49.3327 153.934 49.3327 154.667C49.3327 155.4 48.746 156 47.9993 156ZM53.3327 156C52.586 156 51.9993 155.4 51.9993 154.667C51.9993 153.934 52.5993 153.334 53.3327 153.334C54.066 153.334 54.666 153.934 54.666 154.667C54.666 155.4 54.0793 156 53.3327 156Z" fill="white"/>
<rect x="74" y="142" width="334" height="10" rx="5" fill="url(#paint4_linear_7237_30356)"/>
<rect x="74" y="160" width="164" height="10" rx="5" fill="url(#paint5_linear_7237_30356)"/>
</g>
<defs>
<linearGradient id="paint0_linear_7237_30356" x1="74" y1="49" x2="408" y2="49" gradientUnits="userSpaceOnUse">
<stop stop-color="#343842"/>
<stop offset="1" stop-color="#101217"/>
</linearGradient>
<linearGradient id="paint1_linear_7237_30356" x1="74" y1="67" x2="238" y2="67" gradientUnits="userSpaceOnUse">
<stop stop-color="#343842"/>
<stop offset="1" stop-color="#101217"/>
</linearGradient>
<linearGradient id="paint2_linear_7237_30356" x1="74" y1="99" x2="408" y2="99" gradientUnits="userSpaceOnUse">
<stop stop-color="#343842"/>
<stop offset="1" stop-color="#101217"/>
</linearGradient>
<linearGradient id="paint3_linear_7237_30356" x1="74" y1="117" x2="238" y2="117" gradientUnits="userSpaceOnUse">
<stop stop-color="#343842"/>
<stop offset="1" stop-color="#101217"/>
</linearGradient>
<linearGradient id="paint4_linear_7237_30356" x1="74" y1="147" x2="408" y2="147" gradientUnits="userSpaceOnUse">
<stop stop-color="#343842"/>
<stop offset="1" stop-color="#101217"/>
</linearGradient>
<linearGradient id="paint5_linear_7237_30356" x1="74" y1="165" x2="238" y2="165" gradientUnits="userSpaceOnUse">
<stop stop-color="#343842"/>
<stop offset="1" stop-color="#101217"/>
</linearGradient>
<clipPath id="clip0_7237_30356">
<rect width="440" height="204" rx="12" fill="white"/>
</clipPath>
</defs>
</svg>
