<svg width="368" height="468" viewBox="0 0 368 468" fill="none" xmlns="http://www.w3.org/2000/svg">
<g clip-path="url(#clip0_8445_9660)">
<path d="M164.009 335.126C161.903 369.916 101.849 446.495 9.48615 411.776" stroke="#707174" stroke-width="5.63767" stroke-linecap="round" stroke-dasharray="13.15 13.15"/>
</g>
<g clip-path="url(#clip1_8445_9660)">
<path d="M345.807 35.5341C311.752 15.4224 201.6 23.2709 175.599 132.178" stroke="#707174" stroke-width="6.39733" stroke-linecap="round" stroke-dasharray="14.93 14.93"/>
</g>
<rect x="81.918" y="151.066" width="160" height="160" rx="80" fill="url(#paint0_linear_8445_9660)"/>
<path d="M142.699 191.066H152.646V195.871H142.699V191.066Z" fill="white"/>
<path d="M142.699 200.196H153.572V205.241H142.699V200.196Z" fill="white"/>
<path d="M156.81 200.196H167.914V205.241H156.81V200.196Z" fill="white"/>
<path d="M170.227 200.196H181.099V205.241H170.227V200.196Z" fill="white"/>
<path d="M169.764 210.045H180.637V215.09H169.764V210.045Z" fill="white"/>
<path d="M154.959 229.265H169.302V236.232H154.959V229.265Z" fill="white"/>
<path d="M144.55 242.478H169.302V250.886H144.55V242.478Z" fill="white"/>
<path d="M153.109 255.451H163.518V260.256H153.109V255.451Z" fill="white"/>
<path d="M144.55 266.742H152.646V270.586H144.55V266.742Z" fill="white"/>
<path d="M162.131 266.742H170.227V270.586H162.131V266.742Z" fill="white"/>
<path d="M172.54 266.742H180.637V270.586H172.54V266.742Z" fill="white"/>
<path d="M163.056 191.066H173.003V195.871H163.056V191.066Z" fill="white"/>
<path d="M160.743 193.709C160.743 195.169 159.552 196.352 158.082 196.352C156.613 196.352 155.422 195.169 155.422 193.709C155.422 192.25 156.613 191.066 158.082 191.066C159.552 191.066 160.743 192.25 160.743 193.709Z" fill="white"/>
<path d="M181.099 193.709C181.099 195.169 179.908 196.352 178.439 196.352C176.97 196.352 175.779 195.169 175.779 193.709C175.779 192.25 176.97 191.066 178.439 191.066C179.908 191.066 181.099 192.25 181.099 193.709Z" fill="white"/>
<path d="M148.482 212.328C148.482 213.854 147.291 215.09 145.822 215.09C144.353 215.09 143.162 213.854 143.162 212.328C143.162 210.802 144.353 209.565 145.822 209.565C147.291 209.565 148.482 210.802 148.482 212.328Z" fill="white"/>
<path d="M157.273 212.328C157.273 213.854 156.133 215.09 154.728 215.09C153.323 215.09 152.184 213.854 152.184 212.328C152.184 210.802 153.323 209.565 154.728 209.565C156.133 209.565 157.273 210.802 157.273 212.328Z" fill="white"/>
<path d="M166.294 212.328C166.294 213.854 165.155 215.09 163.75 215.09C162.344 215.09 161.205 213.854 161.205 212.328C161.205 210.802 162.344 209.565 163.75 209.565C165.155 209.565 166.294 210.802 166.294 212.328Z" fill="white"/>
<path d="M148.482 222.178C148.482 223.703 147.291 224.94 145.822 224.94C144.353 224.94 143.162 223.703 143.162 222.178C143.162 220.652 144.353 219.415 145.822 219.415C147.291 219.415 148.482 220.652 148.482 222.178Z" fill="white"/>
<path d="M149.87 232.748C149.87 234.672 148.369 236.232 146.516 236.232C144.664 236.232 143.162 234.672 143.162 232.748C143.162 230.824 144.664 229.265 146.516 229.265C148.369 229.265 149.87 230.824 149.87 232.748Z" fill="white"/>
<path d="M180.637 232.748C180.637 234.672 179.135 236.232 177.282 236.232C175.43 236.232 173.928 234.672 173.928 232.748C173.928 230.824 175.43 229.265 177.282 229.265C179.135 229.265 180.637 230.824 180.637 232.748Z" fill="white"/>
<path d="M149.408 258.093C149.408 259.553 148.217 260.736 146.747 260.736C145.278 260.736 144.087 259.553 144.087 258.093C144.087 256.634 145.278 255.451 146.747 255.451C148.217 255.451 149.408 256.634 149.408 258.093Z" fill="white"/>
<path d="M172.078 258.093C172.078 259.553 170.887 260.736 169.417 260.736C167.948 260.736 166.757 259.553 166.757 258.093C166.757 256.634 167.948 255.451 169.417 255.451C170.887 255.451 172.078 256.634 172.078 258.093Z" fill="white"/>
<path d="M180.637 258.093C180.637 259.553 179.446 260.736 177.976 260.736C176.507 260.736 175.316 259.553 175.316 258.093C175.316 256.634 176.507 255.451 177.976 255.451C179.446 255.451 180.637 256.634 180.637 258.093Z" fill="white"/>
<path d="M159.355 268.904C159.355 270.098 158.371 271.066 157.157 271.066C155.943 271.066 154.959 270.098 154.959 268.904C154.959 267.71 155.943 266.742 157.157 266.742C158.371 266.742 159.355 267.71 159.355 268.904Z" fill="white"/>
<defs>
<linearGradient id="paint0_linear_8445_9660" x1="81.918" y1="194.512" x2="253.485" y2="215.216" gradientUnits="userSpaceOnUse">
<stop stop-color="#30C5D2"/>
<stop offset="1" stop-color="#471069"/>
</linearGradient>
<clipPath id="clip0_8445_9660">
<rect width="186.439" height="65.4344" fill="white" transform="matrix(-0.797911 0.602776 0.602776 0.797911 148.762 302.598)"/>
</clipPath>
<clipPath id="clip1_8445_9660">
<rect width="212.445" height="74.2515" fill="white" transform="translate(367.553 70.248) rotate(161.098)"/>
</clipPath>
</defs>
</svg>
