<svg width="800" height="1760" viewBox="0 0 800 1760" fill="none" xmlns="http://www.w3.org/2000/svg">
<g clip-path="url(#clip0_4828_6023)">
<g filter="url(#filter0_f_4828_6023)">
<ellipse cx="649.586" cy="797.605" rx="519.799" ry="335.768" transform="rotate(-118.017 649.586 797.605)" fill="url(#paint0_linear_4828_6023)"/>
</g>
<g style="mix-blend-mode:overlay" clip-path="url(#clip1_4828_6023)">
<path d="M493.5 1256.8L491.5 1255.6L414 1210.3L413 1209.7L411 1213.2L491.5 1260.3L492.4 1258.7L492.5 1258.5L493.5 1256.8ZM493.5 1165.9V1168L596.7 1197.7V1195.6L493.5 1165.9ZM493.5 1165.9V1168L596.7 1197.7V1195.6L493.5 1165.9ZM493.5 1165.9V1168L596.7 1197.7V1195.6L493.5 1165.9ZM493.5 1165.9V1168L596.7 1197.7V1195.6L493.5 1165.9ZM493.5 1165.9V1168L596.7 1197.7V1195.6L493.5 1165.9ZM493.5 1165.9V1168L596.7 1197.7V1195.6L493.5 1165.9ZM493.5 1165.9V1168L596.7 1197.7V1195.6L493.5 1165.9ZM493.5 1165.9V1168L596.7 1197.7V1195.6L493.5 1165.9ZM493.5 1165.9V1168L596.7 1197.7V1195.6L493.5 1165.9ZM493.5 1165.9V1168L596.7 1197.7V1195.6L493.5 1165.9ZM493.5 1165.9V1168L596.7 1197.7V1195.6L493.5 1165.9ZM493.5 1165.9V1168L596.7 1197.7V1195.6L493.5 1165.9ZM493.5 1165.9V1168L596.7 1197.7V1195.6L493.5 1165.9ZM493.5 1165.9V1168L596.7 1197.7V1195.6L493.5 1165.9ZM493.5 1165.9V1168L596.7 1197.7V1195.6L493.5 1165.9ZM493.5 1165.9V1168L596.7 1197.7V1195.6L493.5 1165.9ZM808 1440.7L806 1439.5L598.7 1318.3L596.7 1317.1L493.5 1256.8L492.5 1258.5L492.4 1258.7L491.5 1260.3L807 1444.7L809 1441.2L808 1440.7ZM596.7 1195.6L493.5 1165.9V1168L596.7 1197.7V1195.6ZM493.5 1165.9V1168L596.7 1197.7V1195.6L493.5 1165.9ZM493.5 1165.9V1168L596.7 1197.7V1195.6L493.5 1165.9ZM493.5 1165.9V1168L596.7 1197.7V1195.6L493.5 1165.9ZM493.5 1165.9V1168L596.7 1197.7V1195.6L493.5 1165.9ZM493.5 1165.9V1168L596.7 1197.7V1195.6L493.5 1165.9ZM493.5 1165.9V1168L596.7 1197.7V1195.6L493.5 1165.9ZM493.5 1165.9V1168L596.7 1197.7V1195.6L493.5 1165.9ZM493.5 1165.9V1168L596.7 1197.7V1195.6L493.5 1165.9ZM493.5 1165.9V1168L596.7 1197.7V1195.6L493.5 1165.9ZM493.5 1165.9V1168L596.7 1197.7V1195.6L493.5 1165.9ZM493.5 1165.9V1168L596.7 1197.7V1195.6L493.5 1165.9ZM493.5 1165.9V1168L596.7 1197.7V1195.6L493.5 1165.9ZM493.5 1165.9V1168L596.7 1197.7V1195.6L493.5 1165.9ZM493.5 1165.9V1168L596.7 1197.7V1195.6L493.5 1165.9ZM493.5 1165.9V1168L596.7 1197.7V1195.6L493.5 1165.9ZM493.5 1165.9V1168L596.7 1197.7V1195.6L493.5 1165.9ZM492.9 553.8L491.5 554.5V653.7L492.2 653.5L492.5 654.4H493.5V553.6L492.9 553.8ZM492.9 553.8L491.5 554.5V653.7L492.2 653.5L492.5 654.4H493.5V553.6L492.9 553.8ZM492.9 553.8L492.5 552.9H491.5V552.3L414 588.6V498.5H410V1211.5H414V1145.1L491.5 1167.4V1255.6L493.5 1256.8V856.3V756.7V553.6L492.9 553.8ZM491.5 554.5V653.7L414 681V590.8L491.5 554.5ZM414 1050.5V960.1L491.5 959.9V1059.3L414 1050.5ZM491.5 958L414 958.2V867.8L491.5 858.6V958ZM414 865.8V775.5L491.5 757.2V856.6L414 865.8ZM414 773.4V683.1L491.5 655.8V755.1L414 773.4ZM414 1143V1052.5L491.5 1061.3V1165.3L414 1143ZM492.9 553.8L491.5 554.5V653.7L492.2 653.5L492.5 654.4H493.5V553.6L492.9 553.8ZM492.9 553.8L491.5 554.5V653.7L492.2 653.5L492.5 654.4H493.5V553.6L492.9 553.8ZM598.7 391.7L596.7 392.9V503.7H597.7L597.3 502.8L598.7 502.1V391.7ZM806 267V405.2H810V267H806ZM598.7 391.7L596.7 392.9V503.7H597.7L597.3 502.8L598.7 502.1V391.7ZM598.7 391.7L596.7 392.9V503.7H597.7L597.3 502.8L598.7 502.1V391.7ZM806 405.2V405L598.7 502.1L597.3 502.8L597.7 503.7H596.7V617.4H597.7L597.4 616.5L598.7 616V504.3L806 407.2V543.4H810V405.2H806ZM806 543.4V543L598.7 616L597.4 616.5L597.7 617.4H596.7V616.7L493.5 653V655.1L596.7 618.8V731.1H597.7L597.5 730.1L598.7 729.8V618.1L806 545.1V681.6H810V543.4H806ZM806 681.6V681L598.7 729.8L597.5 730.1L597.7 731.1H596.7V730.3L493.5 754.7V756.7L596.7 732.4V844.9H597.7L597.6 843.9L598.7 843.8V732L806 683.1V819.8H810V681.6H806ZM806 819.8V819L598.7 843.7L597.6 843.8L597.7 844.8H596.7V844L493.5 856.3V858.3L596.7 846V958.6H597.7V957.6H598.7V845.8L806 821.1V958.1H810V819.8H806ZM806 958V957L598.7 957.6H597.7V958.6H596.7V957.6L493.5 958V960L596.7 959.7V1072.4H597.7L597.8 1071.4L598.7 1071.5V959.7L806 959V1096.2H810V958H806ZM806 1096.2V1095L598.7 1071.5L597.8 1071.4L597.7 1072.4L597.6 1073.4L596.7 1073.3V1197H597.7L598 1196L598.7 1196.2V1073.5L806 1097V1257.5H810V1096.2H806ZM806 1257.5V1255.9L598.7 1196.2L598 1196L597.7 1197H596.7V1317.2L598.7 1318.4V1198.4L806 1258V1443H810V1257.5H806ZM807 265.3L596.7 388.3L597.2 389.2L597.7 390L598.7 391.7L806 270.5L808 269.3L809 268.7L807 265.3ZM493.5 551.4V453.2L491.5 454.4V553H492.5L492.9 553.9L493.5 553.6L596.7 505.3V503.1L493.5 551.4ZM598.7 391.7L597.7 390L597.2 389.2L596.7 388.3L491.5 449.7L492.5 451.3V451.4L493.5 453.1L596.7 392.8V503L493.5 551.4V553H492.5L492.9 553.9L493.5 553.6L596.7 505.3V503.7H597.7L597.3 502.8L598.7 502.1V391.7ZM493.5 551.4V553H492.5L492.9 553.9L493.5 553.6L596.7 505.3V503.1L493.5 551.4ZM493.5 551.4V453.2L491.5 454.4V553H492.5L492.9 553.9L493.5 553.6L596.7 505.3V503.1L493.5 551.4ZM492.5 552.9H491.5V552.3L414 588.6V590.8L491.5 554.5L492.9 553.8L492.5 552.9ZM492.5 451.4L491.5 449.7L411 496.8L411.4 497.4L412 498.5L413 500.2L414 499.6L491.5 454.3V552.9H493.5V453.1L492.5 451.4ZM410 1211.5V1212.7L411 1213.3L412 1211.6H410V1211.5ZM808 1443L807 1444.7L810 1446.5V1443H808ZM807 265.3L808 267H810V263.5L807 265.3ZM411.4 497.4L411 496.8L410 497.4V498.5H412L411.4 497.4ZM411 497.4V498.5H413V497.4H411ZM491.5 451.3L493.5 451.4V451.3H491.5ZM491.5 451.4V552.9H493.5V451.4H491.5ZM491.5 552.9V654.4H493.5V552.9H491.5ZM491.5 654.4V755.9H493.5V654.4H491.5ZM491.5 755.9V757.2V856.6V857.5H493.5V856.4V756.8V756H491.5V755.9ZM491.5 857.5V959H493.5V857.5H491.5ZM491.5 959V1060.5H493.5V959H491.5ZM491.5 1060.5V1166.7H493.5V1060.5H491.5ZM493.5 1256.8V1166.6H491.5V1258.5H493.5V1256.8ZM491.5 1258.6V1258.8H493.5V1258.6H491.5ZM596.7 389.1V389.9H598.7V389.1H596.7ZM596.7 390V503.7H598.7V390H596.7ZM596.7 503.7V617.4H598.7V503.7H596.7ZM596.7 731.2V730.4L493.5 754.7V756.7L596.7 732.4V844.9H598.7V731.2H596.7ZM596.7 844.9V844L493.5 856.3V858.3L596.7 846V958.6H598.7V844.9H596.7ZM596.7 958.7V957.7L493.5 958V960L596.7 959.7V1072.4H598.7V958.7H596.7ZM597.7 1072.4L597.6 1073.4L596.7 1073.3V1197H598.7V1072.4H597.7ZM596.7 1196.9V1319.7H598.7V1196.9H596.7ZM808 1256.5L806 1255.9L598.7 1196.2L598 1196L597.7 1197H596.7V1317.2L598.7 1318.4V1198.4L806 1258L807.7 1258.5L808.3 1256.6L808 1256.5ZM596.7 1195.6L493.5 1165.9L492.8 1165.7L492.5 1166.7L492.2 1167.7L493.5 1168.1L596.7 1197.8L597.4 1198L597.7 1197L598 1196L596.7 1195.6ZM492.5 1166.7L492.8 1165.7L491.5 1165.3L414 1143L412.3 1142.5L412 1143.5L411.7 1144.5L412 1144.6L414 1145.2L491.5 1167.5V1255.7L493.5 1256.9V1166.7H492.5ZM808 1095.2L806 1095L598.7 1071.5L597.8 1071.4L597.7 1072.4L597.6 1073.4L596.7 1073.3V1197H597.7L598 1196L598.7 1196.2V1073.5L806 1097L807.9 1097.2L808 1096.2L808.1 1095.2H808ZM492.6 1059.5L492.5 1060.5L492.4 1061.5L493.5 1061.6V1059.6L492.6 1059.5ZM596.7 1071.3V1072.4H597.7L597.8 1071.4L596.7 1071.3ZM492.5 1060.5L492.6 1059.5L491.5 1059.4L414 1050.5L412.1 1050.3L412 1051.3L411.9 1052.3H412L414 1052.5L491.5 1061.3V1165.3L492.8 1165.7L492.5 1166.7H493.5V1060.5H492.5ZM806 957L598.7 957.6H597.7V958.6H596.7V957.6L493.5 958V960L596.7 959.7V1072.4H597.7L597.8 1071.4L598.7 1071.5V959.7L806 959H808V957H806ZM597.7 957.7H596.7L493.5 958H492.5V959V960H493.5L596.7 959.7H597.7V958.7V957.7ZM492.5 857.5L492.6 858.5L491.5 858.6V958L414 958.2H412V960.2H414L491.5 960V1059.4L492.6 1059.5L492.5 1060.5H493.5V857.5H492.5ZM808 819.8L807.9 818.8L806 819L598.7 843.7L597.6 843.8L597.7 844.8H596.7V844L493.5 856.3V858.3L596.7 846V958.6H597.7V957.6H598.7V845.8L806 821.1L808 820.9H808.1L808 819.8ZM597.7 844.9L597.6 843.9L596.7 844L493.5 856.3L492.4 856.4L492.5 857.4L492.6 858.4L493.5 858.3L596.7 846L597.8 845.9L597.7 844.9ZM492.5 857.5L492.4 856.5L491.5 856.6L414 865.8L412 866H411.9L412 867L412.1 868L414 867.8L491.5 858.6L492.6 858.5L492.5 857.5ZM808 681.6L807.8 680.6L806 681L598.7 729.8L597.5 730.1L597.7 731.1H596.7V730.3L493.5 754.7V756.7L596.7 732.4V844.9H597.7L597.6 843.9L598.7 843.8V732L806 683.1L808 682.6H808.2L808 681.6ZM597.7 731.2L597.5 730.2L596.7 730.4L493.5 754.7L492.3 755L492.5 756L492.7 757L493.5 756.8L596.7 732.5L597.9 732.2L597.7 731.2ZM492.5 755.9L492.3 754.9L491.5 755.1L414 773.4L412 773.9H411.8L412 774.9L412.2 775.9L414 775.5L491.5 757.2V856.6L492.4 856.5L492.5 857.5H493.5V856.4V756.8V756H492.5V755.9ZM808 543.4L807.7 542.5L806 543.1L598.7 616.1L597.4 616.6L597.7 617.5H596.7V616.8L493.5 653V655.1L596.7 618.8V731.1H597.7L597.5 730.1L598.7 729.8V618.1L806 545.1L808 544.4L808.3 544.3L808 543.4ZM597.7 617.4L597.4 616.5L596.7 616.7L493.5 653L492.2 653.5L492.5 654.4L492.8 655.4L493.5 655.2L596.7 618.9L598 618.4L597.7 617.4ZM492.9 553.8L491.5 554.5V653.7L414 681L412 681.7L411.7 681.8L412 682.8L412.3 683.7L414 683.1L491.5 655.8V755.1L492.3 754.9L492.5 755.9H493.5V553.6L492.9 553.8ZM808 405.2L807.6 404.3L806 405L598.7 502.1L597.3 502.8L597.7 503.7H596.7V617.4H597.7L597.4 616.5L598.7 616V504.3L806 407.2L808 406.3L808.4 406.1L808 405.2ZM597.7 503.7L597.3 502.8L596.7 503.1L493.5 551.4L492.1 552.1L492.5 553L492.9 553.9L493.5 553.6L596.7 505.3L598.1 504.6L597.7 503.7ZM492.5 552.9L492.1 552L491.5 552.3L414 588.6L412 589.5L411.6 589.7L412 590.6L412.4 591.5L414 590.8L491.5 554.5L492.9 553.8L492.5 552.9ZM597.7 1072.4L597.6 1073.4L596.7 1073.3L493.5 1061.6V1059.6L596.7 1071.3V1072.4H597.7Z" fill="url(#paint1_linear_4828_6023)" fill-opacity="0.6"/>
</g>
</g>
<defs>
<filter id="filter0_f_4828_6023" x="-34.4585" y="12.2412" width="1368.09" height="1570.73" filterUnits="userSpaceOnUse" color-interpolation-filters="sRGB">
<feFlood flood-opacity="0" result="BackgroundImageFix"/>
<feBlend mode="normal" in="SourceGraphic" in2="BackgroundImageFix" result="shape"/>
<feGaussianBlur stdDeviation="150" result="effect1_foregroundBlur_4828_6023"/>
</filter>
<linearGradient id="paint0_linear_4828_6023" x1="129.787" y1="644.183" x2="1222.63" y2="848.347" gradientUnits="userSpaceOnUse">
<stop stop-color="#30C5D2"/>
<stop offset="1" stop-color="#471069"/>
</linearGradient>
<linearGradient id="paint1_linear_4828_6023" x1="810" y1="855" x2="410" y2="855" gradientUnits="userSpaceOnUse">
<stop stop-color="white"/>
<stop offset="1" stop-color="white" stop-opacity="0"/>
</linearGradient>
<clipPath id="clip0_4828_6023">
<rect width="800" height="1760" fill="white"/>
</clipPath>
<clipPath id="clip1_4828_6023">
<rect width="396" height="1176" fill="white" transform="translate(412 267)"/>
</clipPath>
</defs>
</svg>
