<svg width="800" height="1760" viewBox="0 0 800 1760" fill="none" xmlns="http://www.w3.org/2000/svg">
<g clip-path="url(#clip0_4828_6017)">
<g filter="url(#filter0_f_4828_6017)">
<ellipse cx="73.7079" cy="808.341" rx="613.503" ry="396.297" transform="rotate(47.1705 73.7079 808.341)" fill="url(#paint0_linear_4828_6017)"/>
</g>
<g style="mix-blend-mode:overlay" clip-path="url(#clip1_4828_6017)">
<path d="M384 589.5L382 588.6L304.5 552.3V454.3L302.5 453.1V552.9H303.5L303.1 553.8L304.5 554.5L382 590.8L383.6 591.5L384 590.6L384.4 589.7L384 589.5ZM302.5 551.4L199.3 503.1L198.7 502.8L198.3 503.7L197.9 504.6L199.3 505.3L302.5 553.6L303.1 553.9L303.5 553L303.9 552.1L302.5 551.4ZM197.3 502.1L-10 405L-11.6 404.3L-12 405.2L-12.4 406.1L-12 406.3L-10 407.2L197.3 504.3L197.9 504.6L198.3 503.7L198.7 502.8L197.3 502.1ZM384 681.7L382 681L304.5 653.7V554.5L303.1 553.8L303.5 552.9H302.5V654.4H303.5L303.2 655.4L304.5 655.9L382 683.2L383.7 683.8L384 682.9L384.3 681.9L384 681.7ZM302.5 653L199.3 616.7L198.6 616.5L198.3 617.4L198 618.4L199.3 618.9L302.5 655.2L303.2 655.4L303.5 654.4L303.8 653.5L302.5 653ZM197.9 504.6L197.3 504.3V616L-10 543.1L-11.7 542.5L-12 543.4L-12.3 544.3L-12 544.4L-10 545.1L197.3 618.1L198 618.3L198.3 617.3H199.3V505.3L197.9 504.6ZM384 773.9L382 773.4L304.5 755.2V655.9L303.2 655.4L303.5 654.4H302.5V653L199.3 616.7V618.8L302.5 655.1V755.9H303.5L303.3 756.9L304.5 757.2L382 775.5L383.8 775.9L384 774.9L384.2 773.9H384ZM302.5 754.7L199.3 730.4L198.5 730.2L198.3 731.2L198.1 732.2L199.3 732.5L302.5 756.8L303.3 757L303.5 756L303.7 755L302.5 754.7ZM198.3 617.4L198 618.4L197.3 618.2V730L-10 681.1L-11.8 680.7L-12 681.7L-12.2 682.7H-12L-10 683.2L197.3 732L198.1 732.2L198.3 731.2H199.3V617.4H198.3ZM384 866L382 865.8L304.5 856.6V757.2L303.3 756.9L303.5 755.9H302.5V754.6L199.3 730.3V732.4L302.5 756.7V856.3V857.4H303.5L303.4 858.4L304.5 858.5L382 867.7L383.9 867.9L384 866.9L384.1 865.9L384 866ZM302.5 856.3L199.3 844L198.4 843.9L198.3 844.9L198.2 845.9L199.3 846L302.5 858.3L303.4 858.4L303.5 857.4L303.6 856.4L302.5 856.3ZM198.3 731.2L198.1 732.2L197.3 732V843.8L-10 819.1L-11.9 818.9L-12 819.9L-12.1 820.9H-12L-10 821.1L197.3 845.8L198.2 845.9L198.3 844.9H199.3V731.2H198.3ZM382 958.2L304.5 958V858.6L303.4 858.5L303.5 857.5H302.5V856.4L199.3 844V846L302.5 858.3V959H303.5V960H304.5L382 960.2H384V958.2H382ZM302.5 958L199.3 957.7H198.3V958.7V959.7H199.3L302.5 960H303.5V959V958H302.5ZM198.3 844.9L198.2 845.9L197.3 845.8V957.7L-10 957H-12V959H-10L197.3 959.6H198.3V958.6H199.3V844.9H198.3ZM384 1051.3L383.9 1050.3L382 1050.5L304.5 1059.3V960H303.5V959H302.5V958L199.3 957.7V959.7L302.5 960V1060.5H303.5L303.6 1061.5L304.5 1061.4L382 1052.6L384 1052.4H384.1L384 1051.3ZM303.5 1060.5L303.4 1059.5L302.5 1059.6L199.3 1071.3L198.2 1071.4L198.3 1072.4L198.4 1073.4L199.3 1073.3L302.5 1061.6L303.6 1061.5L303.5 1060.5ZM198.3 958.7V959.7H197.3V1071.5L-10 1095L-12 1095.2H-12.1L-12 1096.2L-11.9 1097.2L-10 1097L197.3 1073.5L198.4 1073.4L198.3 1072.4H199.3V958.7H198.3ZM384 1143.5L383.7 1142.5L382 1143L304.5 1165.3V1061.3L303.6 1061.4L303.5 1060.4H302.5V1059.5L199.3 1071.2V1073.2L302.5 1061.5V1256.7L304.5 1255.5V1167.3L382 1145L384 1144.4L384.3 1144.3L384 1143.5ZM303.5 1166.7L303.2 1165.7L302.5 1165.9L199.3 1195.6L198 1196L198.3 1197L198.6 1198L199.3 1197.8L302.5 1168L303.8 1167.6L303.5 1166.7ZM198.3 1072.4L198.4 1073.4L197.3 1073.5V1196.2L-10 1255.9L-12 1256.5L-12.3 1256.6L-12 1257.6L-11.7 1258.6L-10 1258L197.3 1198.3L198.6 1197.9L198.3 1196.9H199.3V1072.4H198.3ZM197.3 1196.9V1319.7H199.3V1196.9H197.3ZM197.3 1072.4V1196.9H199.3V1072.4H197.3ZM197.3 958.7V1072.4H199.3V958.7H197.3ZM197.3 844.9V958.6H199.3V844.9H197.3ZM197.3 731.2V845H199.3V731.2H197.3ZM197.3 617.4V731.1H199.3V617.4H197.3ZM197.3 503.7V617.4H199.3V503.7H197.3ZM199.3 503.1V390H197.3V391.7V503.7H198.3L197.9 504.6L199.3 505.3L302.5 553.6V551.4L199.3 503.1ZM197.3 389.1V389.9H199.3V389.1H197.3ZM302.5 1258.6V1258.8H304.5V1258.6H302.5ZM302.5 1166.7V1258.6H304.5V1166.7H302.5ZM302.5 1060.5V1059.6L199.3 1071.3V1073.3L302.5 1061.6V1166.7H304.5V1060.5H302.5ZM302.5 959V958L199.3 957.7V959.7L302.5 960V1060.5H304.5V959H302.5ZM302.5 857.5V856.4L199.3 844V846L302.5 858.3V959H304.5V857.5H302.5ZM304.5 757.2V755.9H302.5V754.6L199.3 730.3V732.4L302.5 756.7V856.3V857.4H304.5V856.5V757.2ZM302.5 654.4V653L199.3 616.7V618.8L302.5 655.1V755.9H304.5V654.4H302.5ZM302.5 552.9V654.4H304.5V552.9H302.5ZM302.5 451.4V552.9H304.5V451.4H302.5ZM302.5 451.3L304.5 451.4V451.3H302.5ZM383 497.4V498.5H385V497.4H383ZM385 496.8L384.6 497.4L384 498.5H386V497.4L385 496.8ZM-14 263.5V267H-12L-11 265.3L-14 263.5ZM-12 1443H-14V1446.5L-11 1444.7L-12 1443ZM384 1211.5L385 1213.2L386 1212.6V1211.4H384V1211.5ZM304.5 449.7L303.5 451.3V451.4L302.5 453.1L304.5 454.3L382 499.6L383 500.2L384 498.5L384.6 497.4L385 496.8L304.5 449.7ZM199.3 388.2L198.8 389.1L198.3 389.9L197.3 391.6V503.6H198.3L197.9 504.5L199.3 505.2L302.5 553.5V551.3L199.3 503V392.9L302.5 453.2L303.5 451.5V451.4L304.5 449.8L199.3 388.2ZM197.3 503.7V502.1L-10 405V407.2L197.3 504.3L197.9 504.6L198.3 503.7H197.3ZM-11 265.3L-13 268.8L-12 269.4L-10 270.6L197.3 391.8L198.3 390.1L198.8 389.3L199.3 388.4L-11 265.3ZM198.3 1196.9L198.6 1197.9L197.3 1198.3V1318.3L199.3 1317.1V1196.9H198.3ZM198.3 1196.9L198.6 1197.9L197.3 1198.3V1318.3L199.3 1317.1V1196.9H198.3ZM198.3 1196.9L198.6 1197.9L197.3 1198.3V1318.3L199.3 1317.1V1196.9H198.3ZM198.3 1196.9L198.6 1197.9L197.3 1198.3V1318.3L199.3 1317.1V1196.9H198.3ZM198.3 1196.9L198.6 1197.9L197.3 1198.3V1318.3L199.3 1317.1V1196.9H198.3ZM198.3 1196.9L198.6 1197.9L197.3 1198.3V1318.3L199.3 1317.1V1196.9H198.3ZM198.3 1196.9L198.6 1197.9L197.3 1198.3V1318.3L199.3 1317.1V1196.9H198.3ZM198.3 1196.9L198.6 1197.9L197.3 1198.3V1318.3L199.3 1317.1V1196.9H198.3ZM198.3 1196.9L198.6 1197.9L197.3 1198.3V1318.3L199.3 1317.1V1196.9H198.3ZM198.3 1196.9L198.6 1197.9L197.3 1198.3V1318.3L199.3 1317.1V1196.9H198.3ZM198.3 1196.9L198.6 1197.9L197.3 1198.3V1318.3L199.3 1317.1V1196.9H198.3ZM198.3 1196.9L198.6 1197.9L197.3 1198.3V1318.3L199.3 1317.1V1196.9H198.3ZM-14 1257.5V1443H-10V1257.5H-14ZM198.3 1196.9L198.6 1197.9L197.3 1198.3V1318.3L199.3 1317.1V1196.9H198.3ZM198.3 1196.9L198.6 1197.9L197.3 1198.3V1318.3L199.3 1317.1V1196.9H198.3ZM198.3 1196.9L198.6 1197.9L197.3 1198.3V1318.3L199.3 1317.1V1196.9H198.3ZM198.3 1196.9L198.6 1197.9L197.3 1198.3V1318.3L199.3 1317.1V1196.9H198.3ZM198.3 1196.9L198.6 1197.9L197.3 1198.3V1318.3L199.3 1317.1V1196.9H198.3ZM198.3 1196.9L198.6 1197.9L197.3 1198.3V1318.3L199.3 1317.1V1196.9H198.3ZM198.3 1196.9L198.6 1197.9L197.3 1198.3V1318.3L199.3 1317.1V1196.9H198.3ZM198.3 1196.9L198.6 1197.9L197.3 1198.3V1318.3L199.3 1317.1V1196.9H198.3ZM198.3 1196.9L198.6 1197.9L197.3 1198.3V1318.3L199.3 1317.1V1196.9H198.3ZM198.3 1196.9L198.6 1197.9L197.3 1198.3V1318.3L199.3 1317.1V1196.9H198.3ZM198.3 1196.9L198.6 1197.9L197.3 1198.3V1318.3L199.3 1317.1V1196.9H198.3ZM198.3 1196.9L198.6 1197.9L197.3 1198.3V1318.3L199.3 1317.1V1196.9H198.3ZM198.3 1072.4L198.4 1073.4L197.3 1073.5V1196.2L-10 1255.9V1096.2H-14V1257.4H-10V1257.9L197.3 1198.2L198.6 1197.8L198.3 1196.8H199.3V1072.4H198.3ZM198.3 958.7V959.7H197.3V1071.5L-10 1095V958H-14V1096.2H-10V1097L197.3 1073.5L198.4 1073.4L198.3 1072.4H199.3V958.7H198.3ZM198.3 844.9L198.2 845.9L197.3 845.8V957.7L-10 957V819.8H-14V958H-10V959L197.3 959.6H198.3V958.6H199.3V844.9H198.3ZM198.3 731.2L198.1 732.2L197.3 732V843.8L-10 819.1V681.6H-14V819.8H-10V821L197.3 845.7L198.2 845.8L198.3 844.8H199.3V731.2H198.3ZM198.3 617.4L198 618.4L197.3 618.2V730L-10 681.1V543.4H-14V681.6H-10V683.1L197.3 732L198.1 732.2L198.3 731.2H199.3V617.4H198.3ZM197.9 504.6L197.3 504.3V616L-10 543.1V405.2H-14V543.4H-10V545.2L197.3 618.2L198 618.4L198.3 617.4H199.3V505.3L197.9 504.6ZM197.3 503.7V502.1L-10 405V267H-14V405.2H-10V407.2L197.3 504.3L197.9 504.6L198.3 503.7H197.3ZM382 498.5V588.6L304.5 552.3V454.3L302.5 453.1V653L199.3 616.7V618.8L302.5 655.1V754.6L199.3 730.3V732.4L302.5 756.7V856.3L199.3 844V846L302.5 858.3V958L199.3 957.7V959.7L302.5 960V1059.6L199.3 1071.3V1073.3L302.5 1061.6V1256.8L304.5 1255.6V1167.4L382 1145.1V1211.5H386V498.5H382ZM382 683.1V773.4L304.5 755.2V655.9L382 683.1ZM382 775.5V865.8L304.5 856.6V757.2L382 775.5ZM382 867.8V958.2L304.5 958V858.6L382 867.8ZM304.5 960L382 960.2V1050.6L304.5 1059.4V960ZM382 590.8V681L304.5 653.7V554.5L382 590.8ZM304.5 1165.3V1061.3L382 1052.5V1143L304.5 1165.3ZM199.3 1195.6V1197.7L302.5 1168V1165.9L199.3 1195.6ZM199.3 1195.6V1197.7L302.5 1168V1165.9L199.3 1195.6ZM199.3 1195.6V1197.7L302.5 1168V1165.9L199.3 1195.6ZM199.3 1195.6V1197.7L302.5 1168V1165.9L199.3 1195.6ZM199.3 1195.6V1197.7L302.5 1168V1165.9L199.3 1195.6ZM199.3 1195.6V1197.7L302.5 1168V1165.9L199.3 1195.6ZM199.3 1195.6V1197.7L302.5 1168V1165.9L199.3 1195.6ZM199.3 1195.6V1197.7L302.5 1168V1165.9L199.3 1195.6ZM199.3 1195.6V1197.7L302.5 1168V1165.9L199.3 1195.6ZM199.3 1195.6V1197.7L302.5 1168V1165.9L199.3 1195.6ZM199.3 1195.6V1197.7L302.5 1168V1165.9L199.3 1195.6ZM199.3 1195.6V1197.7L302.5 1168V1165.9L199.3 1195.6ZM303.6 1258.7L303.5 1258.5L302.5 1256.8L199.3 1317.1L197.3 1318.3L-10 1439.5L-12 1440.7L-13 1441.3L-11 1444.8L304.5 1260.4L303.6 1258.7ZM302.5 1165.9L199.3 1195.6V1197.7L302.5 1168V1165.9ZM199.3 1195.6V1197.7L302.5 1168V1165.9L199.3 1195.6ZM199.3 1195.6V1197.7L302.5 1168V1165.9L199.3 1195.6ZM199.3 1195.6V1197.7L302.5 1168V1165.9L199.3 1195.6ZM199.3 1195.6V1197.7L302.5 1168V1165.9L199.3 1195.6ZM199.3 1195.6V1197.7L302.5 1168V1165.9L199.3 1195.6ZM199.3 1195.6V1197.7L302.5 1168V1165.9L199.3 1195.6ZM199.3 1195.6V1197.7L302.5 1168V1165.9L199.3 1195.6ZM199.3 1195.6V1197.7L302.5 1168V1165.9L199.3 1195.6ZM199.3 1195.6V1197.7L302.5 1168V1165.9L199.3 1195.6ZM199.3 1195.6V1197.7L302.5 1168V1165.9L199.3 1195.6ZM199.3 1195.6V1197.7L302.5 1168V1165.9L199.3 1195.6ZM383 1209.8L382 1210.4L304.5 1255.7L302.5 1256.9L303.5 1258.6L303.6 1258.8L304.5 1260.4L385 1213.3L383 1209.8Z" fill="url(#paint1_linear_4828_6017)" fill-opacity="0.6"/>
</g>
</g>
<defs>
<filter id="filter0_f_4828_6017" x="-734.685" y="-16.1619" width="1616.79" height="1649.01" filterUnits="userSpaceOnUse" color-interpolation-filters="sRGB">
<feFlood flood-opacity="0" result="BackgroundImageFix"/>
<feBlend mode="normal" in="SourceGraphic" in2="BackgroundImageFix" result="shape"/>
<feGaussianBlur stdDeviation="150" result="effect1_foregroundBlur_4828_6017"/>
</filter>
<linearGradient id="paint0_linear_4828_6017" x1="-539.795" y1="627.262" x2="750.058" y2="868.23" gradientUnits="userSpaceOnUse">
<stop stop-color="#30C5D2"/>
<stop offset="1" stop-color="#471069"/>
</linearGradient>
<linearGradient id="paint1_linear_4828_6017" x1="-347" y1="855" x2="386" y2="855" gradientUnits="userSpaceOnUse">
<stop stop-color="white"/>
<stop offset="1" stop-color="white" stop-opacity="0"/>
</linearGradient>
<clipPath id="clip0_4828_6017">
<rect width="800" height="1760" fill="white"/>
</clipPath>
<clipPath id="clip1_4828_6017">
<rect width="396" height="1176" fill="white" transform="translate(-10 267)"/>
</clipPath>
</defs>
</svg>
