<svg width="52" height="52" viewBox="0 0 52 52" fill="none" xmlns="http://www.w3.org/2000/svg">
<rect width="52" height="52" rx="8" fill="#1E2129"/>
<path d="M20.6099 16.1268H23.3366V17.328H20.6099V16.1268Z" fill="#585A5D"/>
<path d="M20.6099 18.4091H23.5902V19.6704H20.6099V18.4091Z" fill="#585A5D"/>
<path d="M24.478 18.4091H27.5217V19.6704H24.478V18.4091Z" fill="#585A5D"/>
<path d="M28.1558 18.4091H31.1362V19.6704H28.1558V18.4091Z" fill="#585A5D"/>
<path d="M28.029 20.8716H31.0094V22.1328H28.029V20.8716Z" fill="#585A5D"/>
<path d="M23.9707 25.6764H27.9022V27.4181H23.9707V25.6764Z" fill="#585A5D"/>
<path d="M21.1172 28.9797H27.9022V31.0818H21.1172V28.9797Z" fill="#585A5D"/>
<path d="M23.4634 32.2229H26.3169V33.4241H23.4634V32.2229Z" fill="#585A5D"/>
<path d="M21.1172 35.0457H23.3366V36.0067H21.1172V35.0457Z" fill="#585A5D"/>
<path d="M25.9364 35.0457H28.1558V36.0067H25.9364V35.0457Z" fill="#585A5D"/>
<path d="M28.79 35.0457H31.0094V36.0067H28.79V35.0457Z" fill="#585A5D"/>
<path d="M26.1901 16.1268H28.9168V17.328H26.1901V16.1268Z" fill="#585A5D"/>
<path d="M25.556 16.7875C25.556 17.1524 25.2295 17.4482 24.8267 17.4482C24.424 17.4482 24.0975 17.1524 24.0975 16.7875C24.0975 16.4226 24.424 16.1268 24.8267 16.1268C25.2295 16.1268 25.556 16.4226 25.556 16.7875Z" fill="#585A5D"/>
<path d="M31.1362 16.7875C31.1362 17.1524 30.8097 17.4482 30.4069 17.4482C30.0042 17.4482 29.6777 17.1524 29.6777 16.7875C29.6777 16.4226 30.0042 16.1268 30.4069 16.1268C30.8097 16.1268 31.1362 16.4226 31.1362 16.7875Z" fill="#585A5D"/>
<path d="M22.1952 21.4421C22.1952 21.8236 21.8687 22.1328 21.4659 22.1328C21.0632 22.1328 20.7367 21.8236 20.7367 21.4421C20.7367 21.0607 21.0632 20.7515 21.4659 20.7515C21.8687 20.7515 22.1952 21.0607 22.1952 21.4421Z" fill="#585A5D"/>
<path d="M24.6048 21.4421C24.6048 21.8236 24.2925 22.1328 23.9073 22.1328C23.522 22.1328 23.2097 21.8236 23.2097 21.4421C23.2097 21.0607 23.522 20.7515 23.9073 20.7515C24.2925 20.7515 24.6048 21.0607 24.6048 21.4421Z" fill="#585A5D"/>
<path d="M27.0778 21.4421C27.0778 21.8236 26.7655 22.1328 26.3803 22.1328C25.9951 22.1328 25.6828 21.8236 25.6828 21.4421C25.6828 21.0607 25.9951 20.7515 26.3803 20.7515C26.7655 20.7515 27.0778 21.0607 27.0778 21.4421Z" fill="#585A5D"/>
<path d="M22.1952 23.9046C22.1952 24.2861 21.8687 24.5953 21.4659 24.5953C21.0632 24.5953 20.7367 24.2861 20.7367 23.9046C20.7367 23.5232 21.0632 23.2139 21.4659 23.2139C21.8687 23.2139 22.1952 23.5232 22.1952 23.9046Z" fill="#585A5D"/>
<path d="M22.5756 26.5473C22.5756 27.0282 22.164 27.4181 21.6562 27.4181C21.1483 27.4181 20.7367 27.0282 20.7367 26.5473C20.7367 26.0663 21.1483 25.6764 21.6562 25.6764C22.164 25.6764 22.5756 26.0663 22.5756 26.5473Z" fill="#585A5D"/>
<path d="M31.0094 26.5473C31.0094 27.0282 30.5977 27.4181 30.0899 27.4181C29.5821 27.4181 29.1704 27.0282 29.1704 26.5473C29.1704 26.0663 29.5821 25.6764 30.0899 25.6764C30.5977 25.6764 31.0094 26.0663 31.0094 26.5473Z" fill="#585A5D"/>
<path d="M22.4488 32.8836C22.4488 33.2485 22.1223 33.5442 21.7196 33.5442C21.3168 33.5442 20.9903 33.2485 20.9903 32.8836C20.9903 32.5187 21.3168 32.2229 21.7196 32.2229C22.1223 32.2229 22.4488 32.5187 22.4488 32.8836Z" fill="#585A5D"/>
<path d="M28.6631 32.8836C28.6631 33.2485 28.3366 33.5442 27.9339 33.5442C27.5312 33.5442 27.2047 33.2485 27.2047 32.8836C27.2047 32.5187 27.5312 32.2229 27.9339 32.2229C28.3366 32.2229 28.6631 32.5187 28.6631 32.8836Z" fill="#585A5D"/>
<path d="M31.0094 32.8836C31.0094 33.2485 30.6829 33.5442 30.2801 33.5442C29.8774 33.5442 29.5509 33.2485 29.5509 32.8836C29.5509 32.5187 29.8774 32.2229 30.2801 32.2229C30.6829 32.2229 31.0094 32.5187 31.0094 32.8836Z" fill="#585A5D"/>
<path d="M25.1755 35.5863C25.1755 35.8848 24.9058 36.1268 24.5731 36.1268C24.2404 36.1268 23.9707 35.8848 23.9707 35.5863C23.9707 35.2878 24.2404 35.0457 24.5731 35.0457C24.9058 35.0457 25.1755 35.2878 25.1755 35.5863Z" fill="#585A5D"/>
<path d="M22.5756 23.9046C22.5756 24.3856 22.164 24.7755 21.6562 24.7755C21.1483 24.7755 20.7367 24.3856 20.7367 23.9046C20.7367 23.4236 21.1483 23.0337 21.6562 23.0337C22.164 23.0337 22.5756 23.4236 22.5756 23.9046Z" fill="#585A5D"/>
<g clip-path="url(#clip0_4528_4990)">
<path d="M5.99329 4.50024C5.69761 4.50024 5.40857 4.58822 5.16271 4.75304C4.91686 4.91786 4.72524 5.15213 4.61209 5.42622C4.49894 5.70031 4.46933 6.00191 4.52702 6.29288C4.5847 6.58385 4.72709 6.85113 4.93617 7.0609C5.14525 7.27068 5.41163 7.41354 5.70163 7.47142C5.99163 7.5293 6.29223 7.4996 6.5654 7.38606C6.83858 7.27253 7.07207 7.08027 7.23634 6.8336C7.40061 6.58693 7.48829 6.29692 7.48829 6.00024" stroke="#919597" stroke-width="0.299748" stroke-linecap="round" stroke-linejoin="round"/>
</g>
<path d="M8.70964 7.272L9.73364 6.192C9.83764 6.08533 9.91897 5.99333 9.97764 5.916C10.0363 5.836 10.0776 5.76267 10.1016 5.696C10.1283 5.62933 10.1416 5.56 10.1416 5.488C10.1416 5.34667 10.0963 5.236 10.0056 5.156C9.91497 5.076 9.79764 5.036 9.65364 5.036C9.5123 5.036 9.3883 5.07067 9.28164 5.14C9.17497 5.20667 9.0803 5.31067 8.99764 5.452L8.73364 5.232C8.84297 5.05067 8.97497 4.91467 9.12964 4.824C9.2843 4.73067 9.46297 4.684 9.66564 4.684C9.8363 4.684 9.9843 4.71733 10.1096 4.784C10.2376 4.85067 10.3363 4.944 10.4056 5.064C10.475 5.184 10.5096 5.324 10.5096 5.484C10.5096 5.59867 10.495 5.70133 10.4656 5.792C10.439 5.88267 10.3896 5.976 10.3176 6.072C10.2483 6.16533 10.151 6.27733 10.0256 6.408L9.19764 7.26L8.70964 7.272ZM8.70964 7.5V7.272L9.02964 7.164H10.5736V7.5H8.70964ZM10.9897 7.5L12.7697 4.724H13.1337L11.3537 7.5H10.9897ZM12.6177 7.54C12.5137 7.54 12.419 7.51467 12.3337 7.464C12.2484 7.41333 12.1804 7.34667 12.1297 7.264C12.079 7.17867 12.0537 7.08267 12.0537 6.976C12.0537 6.872 12.079 6.77867 12.1297 6.696C12.1804 6.61067 12.2484 6.54267 12.3337 6.492C12.419 6.44133 12.5137 6.416 12.6177 6.416C12.7217 6.416 12.8164 6.44133 12.9017 6.492C12.9897 6.54267 13.059 6.61067 13.1097 6.696C13.1604 6.77867 13.1857 6.872 13.1857 6.976C13.1857 7.08267 13.1604 7.17867 13.1097 7.264C13.059 7.34667 12.991 7.41333 12.9057 7.464C12.8204 7.51467 12.7244 7.54 12.6177 7.54ZM12.6177 7.256C12.6977 7.256 12.763 7.23067 12.8137 7.18C12.8644 7.12667 12.8897 7.05867 12.8897 6.976C12.8897 6.896 12.863 6.83067 12.8097 6.78C12.759 6.72667 12.695 6.7 12.6177 6.7C12.5404 6.7 12.4764 6.72667 12.4257 6.78C12.375 6.83067 12.3497 6.896 12.3497 6.976C12.3497 7.05867 12.375 7.12667 12.4257 7.18C12.4764 7.23067 12.5404 7.256 12.6177 7.256ZM11.5017 5.808C11.4004 5.808 11.307 5.78267 11.2217 5.732C11.1364 5.68133 11.0684 5.61333 11.0177 5.528C10.967 5.44267 10.9417 5.348 10.9417 5.244C10.9417 5.13733 10.9657 5.04267 11.0137 4.96C11.0644 4.87733 11.1324 4.81067 11.2177 4.76C11.303 4.70933 11.3977 4.684 11.5017 4.684C11.6084 4.684 11.7044 4.70933 11.7897 4.76C11.875 4.81067 11.943 4.87733 11.9937 4.96C12.0444 5.04267 12.0697 5.13733 12.0697 5.244C12.0697 5.348 12.0444 5.44267 11.9937 5.528C11.943 5.61333 11.875 5.68133 11.7897 5.732C11.707 5.78267 11.611 5.808 11.5017 5.808ZM11.5017 5.524C11.5817 5.524 11.647 5.49867 11.6977 5.448C11.7484 5.39467 11.7737 5.32667 11.7737 5.244C11.7737 5.16133 11.747 5.09467 11.6937 5.044C11.643 4.99333 11.579 4.968 11.5017 4.968C11.4244 4.968 11.3604 4.99333 11.3097 5.044C11.2617 5.09467 11.2377 5.16133 11.2377 5.244C11.2377 5.32667 11.2617 5.39467 11.3097 5.448C11.3604 5.49867 11.4244 5.524 11.5017 5.524Z" fill="#919597"/>
<defs>
<clipPath id="clip0_4528_4990">
<rect width="3.98667" height="4" fill="white" transform="translate(4 4)"/>
</clipPath>
</defs>
</svg>
