<svg width="202" height="108" viewBox="0 0 202 108" fill="none" xmlns="http://www.w3.org/2000/svg">
<path d="M2.62237 104.916C2.62237 106.613 4.21008 108 6.14991 108H196.885C198.825 108 200.412 106.613 200.412 104.916L202 8.98324C202 7.28659 199.717 3.97561 195.532 4.22482L9.12321 0.0026568C6.68889 -0.0529712 4.33593 0.766987 2.6122 2.27117C0.888474 3.77424 -0.054745 5.83025 0.00245829 7.95858L2.62237 104.915V104.916Z" fill="#101217"/>
<g clip-path="url(#clip0_7545_9390)">
<path d="M6.6645 101.115C6.6645 102.702 8.16829 104 10.007 104H193.158C194.996 104 196.5 102.702 196.5 101.115L198 15.0748C197.823 9.89672 192.564 8.03584 189.377 8.14576L10.4221 4.00193C8.70945 3.96236 7.05286 4.53173 5.83938 5.57703C4.62591 6.62233 3.95869 8.05123 4.00198 9.5296L6.66322 101.115H6.6645Z" fill="#1E2129"/>
</g>
<defs>
<clipPath id="clip0_7545_9390">
<rect width="194" height="100" fill="white" transform="translate(4 4)"/>
</clipPath>
</defs>
</svg>
