<svg width="120" height="120" viewBox="0 0 120 120" fill="none" xmlns="http://www.w3.org/2000/svg">
<path d="M7.27905 29.5133C7.51433 25.8941 9.7112 22.6871 13.0052 21.1301L55.6791 0.968393C58.4118 -0.322798 61.583 -0.322798 64.317 0.968393L106.99 21.1301C110.284 22.6859 112.48 25.8928 112.716 29.5133C116.718 91.0656 77.0468 113.492 64.042 119.158C61.4628 120.281 58.532 120.281 55.9541 119.158C42.9493 113.493 3.27789 91.0656 7.28033 29.5133H7.27905Z" fill="url(#paint0_linear_5950_36180)"/>
<path d="M15.1684 30.3734C15.2184 29.4063 15.7985 28.5425 16.6814 28.1267L58.8609 8.25451C59.5815 7.91516 60.4171 7.91516 61.1378 8.25451L103.317 28.1267C104.199 28.5425 104.78 29.4063 104.83 30.3734C106.078 54.5819 100.441 74.7815 88.0644 90.4368C78.6283 102.373 67.5899 108.769 61.1229 111.754C60.4104 112.082 59.5896 112.082 58.8771 111.754C52.4088 108.769 41.3704 102.373 31.9356 90.4368C19.5586 74.7815 13.9218 54.5819 15.1698 30.3734H15.1684Z" fill="#1E2129"/>
<path d="M49.3144 51.666V54.991C50.0111 54.896 50.8028 54.8485 51.6894 54.8327V51.666C51.6894 46.6785 53.0986 43.3535 60.002 43.3535C66.9053 43.3535 68.3145 46.6785 68.3145 51.666V54.8327C69.2011 54.8485 69.9928 54.896 70.6895 54.991V51.666C70.6895 47.0743 69.5811 40.9785 60.002 40.9785C50.4228 40.9785 49.3144 47.0743 49.3144 51.666Z" fill="white"/>
<path d="M49.3151 54.9923C50.0118 54.8973 50.8034 54.8498 51.6901 54.834H68.3151C69.2018 54.8498 69.9934 54.8973 70.6901 54.9923C74.7276 55.4832 75.8359 57.4623 75.8359 62.7507V65.9173C75.8359 72.2507 74.2526 73.834 67.9193 73.834H52.0859C45.7526 73.834 44.1693 72.2507 44.1693 65.9173V62.7507C44.1693 57.4623 45.2776 55.4832 49.3151 54.9923ZM65.2118 65.4581C65.5126 65.7431 65.9243 65.9173 66.3359 65.9173C66.5418 65.9173 66.7476 65.8698 66.9376 65.7907C67.1434 65.7115 67.3018 65.6006 67.4601 65.4581C67.7451 65.1573 67.9193 64.7457 67.9193 64.334C67.9193 64.1282 67.8718 63.9223 67.7926 63.7323C67.7134 63.5423 67.6026 63.3682 67.4601 63.2098C67.3018 63.0673 67.1434 62.9565 66.9376 62.8773C66.3518 62.624 65.6551 62.7665 65.2118 63.2098C65.0693 63.3682 64.9584 63.5423 64.8793 63.7323C64.8001 63.9223 64.7526 64.1282 64.7526 64.334C64.7526 64.7457 64.9268 65.1573 65.2118 65.4581ZM58.5459 64.9356C58.6251 65.1257 58.7359 65.2998 58.8784 65.4581C59.1793 65.7431 59.5909 65.9173 60.0026 65.9173C60.4301 65.9173 60.8259 65.7431 61.1268 65.4581C61.2693 65.2998 61.3801 65.1257 61.4593 64.9356C61.5384 64.7457 61.5859 64.5398 61.5859 64.334C61.5859 63.9065 61.4118 63.5107 61.1268 63.2098C60.5409 62.624 59.4801 62.624 58.8784 63.2098C58.5934 63.5107 58.4193 63.9065 58.4193 64.334C58.4193 64.5398 58.4668 64.7457 58.5459 64.9356ZM52.5451 65.4581C52.8459 65.7431 53.2576 65.9173 53.6693 65.9173C54.0809 65.9173 54.4926 65.7431 54.7934 65.4581C55.0784 65.1573 55.2526 64.7615 55.2526 64.334C55.2526 63.9065 55.0784 63.5107 54.7934 63.2098C54.1918 62.624 53.1309 62.624 52.5451 63.2098C52.4818 63.289 52.4184 63.3682 52.3551 63.4632C52.2918 63.5423 52.2443 63.6373 52.2126 63.7323C52.1651 63.8273 52.1334 63.9223 52.1176 64.0173C52.1018 64.1282 52.0859 64.239 52.0859 64.334C52.0859 64.7457 52.2601 65.1573 52.5451 65.4581Z" fill="white"/>
<defs>
<linearGradient id="paint0_linear_5950_36180" x1="112.998" y1="32.5843" x2="-1.02462" y2="44.7388" gradientUnits="userSpaceOnUse">
<stop stop-color="#30C5D2"/>
<stop offset="1" stop-color="#471069"/>
</linearGradient>
</defs>
</svg>
